<svg width="1684" height="1927" viewBox="0 0 1684 1927" fill="none" xmlns="http://www.w3.org/2000/svg">
<g clip-path="url(#clip0_23_3)">
<mask id="mask0_23_3" style="mask-type:luminance" maskUnits="userSpaceOnUse" x="0" y="0" width="2264" height="2701">
<path d="M2263.79 0H0V2700.18H2263.79V0Z" fill="white"/>
</mask>
<g mask="url(#mask0_23_3)">
<path opacity="0.2" d="M1565.15 1119.05L359.438 1890.02C325.9 1911.36 286.858 1922.29 247.705 1922.29C216.206 1922.29 184.926 1915.32 156.125 1901.34C91.3722 1869.51 50.7229 1807.1 50.7229 1739.21V197.251C50.7229 129.334 91.3722 66.9275 156.12 35.095C220.853 3.5359 299.082 7.87799 359.438 46.424L1565.15 817.373C1618.51 851.506 1650.47 907.996 1650.47 968.21C1650.48 1028.43 1618.52 1084.91 1565.15 1119.05Z" fill="#007BFF"/>
</g>
</g>
<defs>
<clipPath id="clip0_23_3">
<rect width="1684" height="1927" fill="white"/>
</clipPath>
</defs>
</svg>
