<?xml version="1.0" encoding="utf-8"?>
<!-- Generator: Adobe Illustrator 22.0.0, SVG Export Plug-In . SVG Version: 6.00 Build 0)  -->
<svg version="1.0" id="Layer_1" xmlns="http://www.w3.org/2000/svg" xmlns:xlink="http://www.w3.org/1999/xlink" x="0px" y="0px"
	 viewBox="0 0 605 431" style="enable-background:new 0 0 605 431;" xml:space="preserve">
<style type="text/css">
	.st0{fill:none;stroke:#DEE3FC;stroke-width:0.7896;stroke-miterlimit:10;}
	.st1{fill:#DEE3FC;}
	.st2{fill:#A4AFFF;}
	.st3{fill:#FFFFFF;}
	.st4{fill:#3945BA;}
	.st5{fill:none;stroke:#698BD1;stroke-linecap:round;stroke-linejoin:round;stroke-miterlimit:10;stroke-dasharray:2.837;}
	.st6{fill:#4B5A9B;}
	.st7{fill:#7F95F4;}
	.st8{fill:#B2C1F9;}
	.st9{fill:#3052CE;}
	.st10{fill:none;stroke:#495AD6;stroke-width:0.8956;stroke-miterlimit:10;}
	.st11{fill:none;stroke:#495AD6;stroke-width:1.6716;stroke-linecap:round;stroke-linejoin:round;stroke-miterlimit:10;}
	.st12{fill:#F0F4FF;}
	.st13{fill:#3B47BC;}
	.st14{fill:#495AD6;}
	.st15{fill:#281616;}
	.st16{fill:#002C54;}
	.st17{fill:#052635;}
	.st18{fill:#E5918F;}
	.st19{fill:#E83C4A;}
	.st20{fill:#CC6362;}
	.st21{fill:none;stroke:#FFFFFF;stroke-width:0.501;stroke-miterlimit:10;}
	.st22{opacity:0.5;}
	.st23{fill:#375F84;}
	.st24{fill:#467CDB;}
	.st25{fill:#E49191;}
	.st26{fill:none;stroke:#FFFFFF;stroke-width:0.8956;stroke-miterlimit:10;}
	.st27{fill:#FFFFFF;stroke:#495AD6;stroke-width:0.8956;stroke-miterlimit:10;}
	.st28{fill:none;stroke:#495AD6;stroke-width:1.6716;stroke-miterlimit:10;}
	.st29{fill:none;stroke:#495AD6;stroke-width:1.6716;stroke-linecap:round;stroke-miterlimit:10;}
	.st30{fill:#193091;}
	.st31{fill:none;stroke:#FFFFFF;stroke-width:0.8956;stroke-linecap:round;stroke-miterlimit:10;}
	.st32{fill:#6589D1;}
	.st33{fill:#3B5FB7;}
	.st34{fill:none;stroke:#FFFFFF;stroke-width:2;stroke-linecap:round;stroke-miterlimit:10;}
	.st35{fill:none;stroke:#DEE3FC;stroke-linecap:round;stroke-miterlimit:10;}
	.st36{fill:#7E89FD;stroke:#DEE3FC;stroke-miterlimit:10;}
	.st37{fill:#7E89FD;}
	.st38{fill:#B4C1EF;}
	.st39{fill:none;stroke:#FFFFFF;stroke-width:1.1144;stroke-linecap:round;stroke-miterlimit:10;}
</style>
<g id="OBJECTS">
	<g>
		<g>
			<g>
				<path class="st0" d="M198.9,131v-9.7c0-0.9-0.8-1.7-1.7-1.7h-2.6c-0.8,0-1.5-0.5-1.6-1.2c-0.9-3.8-2.5-7.3-4.5-10.5
					c-0.4-0.7-0.3-1.5,0.2-2l1.9-1.8c0.7-0.7,0.7-1.8,0-2.4l-7.1-6.8c-0.7-0.7-1.9-0.7-2.5,0l-1.9,1.8c-0.6,0.5-1.3,0.5-2.1,0.2
					c-3.3-2-7-3.5-11-4.4c-0.8-0.2-1.3-0.8-1.3-1.5v-2.6c0-0.9-0.8-1.7-1.7-1.7h-10.1c-1,0-1.7,0.8-1.7,1.7v2.4
					c0,0.8-0.5,1.5-1.3,1.5c-4,0.8-7.6,2.4-11,4.4c-0.7,0.4-1.5,0.3-2.1-0.2l-1.9-1.8c-0.7-0.7-1.9-0.7-2.5,0l-7.1,6.8
					c-0.7,0.7-0.7,1.8,0,2.4l1.9,1.8c0.6,0.5,0.6,1.3,0.2,2c-2.1,3.2-3.7,6.7-4.5,10.5c-0.2,0.8-0.9,1.2-1.6,1.2h-2.5
					c-1,0-1.7,0.8-1.7,1.7v9.8c0,0.9,0.8,1.7,1.7,1.7h2.5c0.8,0,1.5,0.5,1.6,1.2c0.9,3.8,2.5,7.3,4.5,10.5c0.4,0.7,0.3,1.5-0.2,2
					l-1.9,1.8c-0.7,0.7-0.7,1.8,0,2.4l7.1,6.8c0.7,0.7,1.9,0.7,2.5,0l1.9-1.8c0.6-0.5,1.3-0.5,2.1-0.2c3.3,2,7,3.4,11,4.4
					c0.8,0.2,1.3,0.8,1.3,1.5v2.4c0,0.9,0.8,1.7,1.7,1.7h10.1c1,0,1.7-0.8,1.7-1.7v-2.6c0-0.8,0.5-1.5,1.3-1.5c4-0.8,7.6-2.4,11-4.4
					c0.7-0.4,1.5-0.3,2.1,0.2l1.9,1.8c0.7,0.7,1.9,0.7,2.5,0l7.1-6.8c0.7-0.7,0.7-1.8,0-2.4l-1.9-1.8c-0.6-0.5-0.6-1.3-0.2-2
					c2.1-3.2,3.7-6.7,4.5-10.5c0.2-0.8,0.9-1.2,1.6-1.2h2.5C198.1,132.8,198.9,132,198.9,131z M157.8,153.6
					c-15.8,0-28.5-12.2-28.5-27.4c0-15.1,12.7-27.4,28.5-27.4s28.5,12.2,28.5,27.4S173.6,153.6,157.8,153.6z"/>
				<path class="st1" d="M245.3,163.9v-6.6c0-0.7-0.6-1.1-1.2-1.1h-1.7c-0.5,0-1-0.4-1.1-0.8c-0.6-2.6-1.7-5-3.1-7.2
					c-0.3-0.5-0.2-0.9,0.2-1.3l1.3-1.2c0.5-0.5,0.5-1.2,0-1.6l-4.8-4.7c-0.5-0.5-1.3-0.5-1.7,0l-1.3,1.2c-0.4,0.4-1,0.4-1.3,0.1
					c-2.3-1.3-4.8-2.4-7.5-3c-0.5-0.1-0.9-0.5-0.9-1.1v-1.8c0-0.7-0.6-1.1-1.2-1.1H214c-0.7,0-1.2,0.5-1.2,1.1v1.7
					c0,0.5-0.4,0.9-0.9,1.1c-2.7,0.5-5.2,1.6-7.5,3c-0.5,0.3-1,0.2-1.3-0.2l-1.3-1.2c-0.5-0.5-1.3-0.5-1.7,0l-4.8,4.7
					c-0.5,0.5-0.5,1.2,0,1.6l1.3,1.2c0.4,0.4,0.4,0.9,0.2,1.3c-1.3,2.2-2.5,4.6-3.1,7.2c-0.1,0.5-0.6,0.8-1.1,0.8h-1.7
					c-0.7,0-1.2,0.5-1.2,1.1v6.6c0,0.7,0.6,1.1,1.2,1.1h1.7c0.5,0,1,0.4,1.1,0.8c0.6,2.6,1.7,5,3.1,7.2c0.3,0.5,0.2,0.9-0.2,1.3
					l-1.3,1.2c-0.5,0.5-0.5,1.2,0,1.6l4.8,4.7c0.5,0.5,1.3,0.5,1.7,0l1.3-1.2c0.4-0.4,1-0.4,1.3-0.2c2.3,1.3,4.8,2.4,7.5,3
					c0.5,0.1,0.9,0.5,0.9,1.1v1.7c0,0.7,0.6,1.1,1.2,1.1h6.9c0.7,0,1.2-0.5,1.2-1.1v-1.7c0-0.5,0.4-0.9,0.9-1.1
					c2.7-0.5,5.2-1.6,7.4-3c0.5-0.3,1-0.2,1.3,0.2l1.3,1.2c0.5,0.5,1.3,0.5,1.7,0l4.8-4.7c0.5-0.5,0.5-1.2,0-1.6l-1.3-1.2
					c-0.4-0.4-0.4-0.9-0.2-1.3c1.3-2.2,2.5-4.6,3.1-7.2c0.1-0.5,0.6-0.8,1.1-0.8h1.7C244.8,165.1,245.3,164.6,245.3,163.9z
					 M217.3,178.3c-10.2,0-18.3-7.9-18.3-17.6c0-9.7,8.2-17.6,18.3-17.6c10.2,0,18.3,7.9,18.3,17.6
					C235.6,170.4,227.4,178.3,217.3,178.3z"/>
			</g>
			<g>
				<ellipse class="st2" cx="115.6" cy="336.2" rx="3.3" ry="3.2"/>
				<ellipse class="st2" cx="562.9" cy="248.4" rx="3.3" ry="3.2"/>
				<ellipse class="st2" cx="556.2" cy="133.7" rx="3.3" ry="3.2"/>
				<ellipse class="st2" cx="436.2" cy="94.7" rx="2.1" ry="2"/>
				<path class="st2" d="M128.6,67.9c0,1.1-1,2-2.1,2c-1.2,0-2.1-0.9-2.1-2c0-1.1,1-2,2.1-2C127.8,65.9,128.6,66.7,128.6,67.9z"/>
				<path class="st2" d="M175.1,192c0,1.1-1,2-2.1,2c-1.2,0-2.1-0.9-2.1-2c0-1.1,1-2,2.1-2C174.1,190,175.1,190.8,175.1,192z"/>
				<path class="st2" d="M98.2,339.5c0,1.1-1,2-2.1,2c-1.2,0-2.1-0.9-2.1-2c0-1.1,1-2,2.1-2C97.3,337.5,98.2,338.3,98.2,339.5z"/>
				<ellipse class="st2" cx="514" cy="338.1" rx="3.3" ry="3.2"/>
				<ellipse class="st2" cx="584.9" cy="338.1" rx="3.3" ry="3.2"/>
				<ellipse class="st2" cx="186.3" cy="59.1" rx="3.3" ry="3.2"/>
				<path class="st2" d="M416.7,205.3c0,2.4-2,4.3-4.4,4.3s-4.4-1.9-4.4-4.3c0-2.4,2-4.3,4.4-4.3S416.7,202.9,416.7,205.3z"/>
				<path class="st2" d="M87.1,152.1c0,2.4-2,4.3-4.4,4.3c-2.5,0-4.4-1.9-4.4-4.3c0-2.4,2-4.3,4.4-4.3
					C85.2,147.8,87.1,149.7,87.1,152.1z"/>
			</g>
			<g>
				<path class="st3" d="M74.5,87.9h-5.6c-0.4,0-0.7-0.3-0.7-0.7v-5.4c0-0.4,0.3-0.7,0.7-0.7h5.6c0.4,0,0.7,0.3,0.7,0.7v5.4
					C75.2,87.6,74.9,87.9,74.5,87.9z"/>
				<path class="st3" d="M83.8,87.9h-5.6c-0.4,0-0.7-0.3-0.7-0.7v-5.4c0-0.4,0.3-0.7,0.7-0.7h5.6c0.4,0,0.7,0.3,0.7,0.7v5.4
					C84.5,87.6,84.2,87.9,83.8,87.9z"/>
				<path class="st3" d="M93.1,87.9h-5.6c-0.4,0-0.7-0.3-0.7-0.7v-5.4c0-0.4,0.3-0.7,0.7-0.7h5.6c0.4,0,0.7,0.3,0.7,0.7v5.4
					C93.8,87.6,93.5,87.9,93.1,87.9z"/>
			</g>
			<g>
				<g>
					<path class="st1" d="M546.4,322.1h-5.6c-0.4,0-0.7-0.3-0.7-0.7V316c0-0.4,0.3-0.7,0.7-0.7h5.6c0.4,0,0.7,0.3,0.7,0.7v5.4
						C547.1,321.8,546.8,322.1,546.4,322.1z"/>
					<path class="st1" d="M555.6,322.1H550c-0.4,0-0.7-0.3-0.7-0.7V316c0-0.4,0.3-0.7,0.7-0.7h5.6c0.4,0,0.7,0.3,0.7,0.7v5.4
						C556.3,321.8,556,322.1,555.6,322.1z"/>
					<path class="st1" d="M564.9,322.1h-5.6c-0.4,0-0.7-0.3-0.7-0.7V316c0-0.4,0.3-0.7,0.7-0.7h5.6c0.4,0,0.7,0.3,0.7,0.7v5.4
						C565.6,321.8,565.3,322.1,564.9,322.1z"/>
				</g>
			</g>
			<g>
				<g>
					<path class="st1" d="M118,318.5h-5.6c-0.4,0-0.7-0.3-0.7-0.7v-5.4c0-0.4,0.3-0.7,0.7-0.7h5.6c0.4,0,0.7,0.3,0.7,0.7v5.4
						C118.7,318.2,118.4,318.5,118,318.5z"/>
					<path class="st1" d="M127.3,318.5h-5.6c-0.4,0-0.7-0.3-0.7-0.7v-5.4c0-0.4,0.3-0.7,0.7-0.7h5.6c0.4,0,0.7,0.3,0.7,0.7v5.4
						C128,318.2,127.7,318.5,127.3,318.5z"/>
					<path class="st1" d="M136.6,318.5h-5.6c-0.4,0-0.7-0.3-0.7-0.7v-5.4c0-0.4,0.3-0.7,0.7-0.7h5.6c0.4,0,0.7,0.3,0.7,0.7v5.4
						C137.2,318.2,137,318.5,136.6,318.5z"/>
				</g>
			</g>
		</g>
		<g>
			<g>
				<path class="st4" d="M369.2,375.7H235.8c-11.7,0-21-9.1-21-20.2V69.6c0-11.2,9.4-20.2,21-20.2h133.4c11.7,0,21,9.1,21,20.2
					v285.8C390.3,366.7,380.7,375.7,369.2,375.7z"/>
				<path class="st3" d="M368.5,371.2H236.4c-10.2,0-18.4-7.9-18.4-17.7V70c0-9.8,8.3-17.7,18.4-17.7h132.1
					c10.2,0,18.4,7.9,18.4,17.7v283.4C387,363.1,378.7,371.2,368.5,371.2z"/>
				<path class="st1" d="M379.6,69.5v283c0,6.6-5.6,12.1-12.5,12.1H237.9c-6.9,0-12.5-5.4-12.5-12.1v-283c0-6.6,5.6-12.1,12.5-12.1
					h21.5c1.2,0,2.3,0.7,2.9,1.7l2.3,4.4c1.1,2,3.2,3.3,5.6,3.3h64.8c2.4,0,4.5-1.2,5.6-3.3l2.3-4.4c0.5-1.1,1.7-1.7,2.9-1.7h21.5
					C374,57.4,379.6,62.8,379.6,69.5z"/>
				<path class="st1" d="M329.7,61.7h-52.1c-1.2,0-2.1-0.9-2.1-2.1l0,0c0-1.1,1-2.1,2.1-2.1h52.1c1.2,0,2.1,0.9,2.1,2.1l0,0
					C331.9,60.8,330.9,61.7,329.7,61.7z"/>
			</g>
			<path class="st5" d="M359.1,354.6H242.9c-4.5,0-8.3-3.6-8.3-7.9v-39.5c0-4.4,3.7-7.9,8.3-7.9h116.2c4.5,0,8.3,3.6,8.3,7.9v39.5
				C367.3,351.1,363.6,354.6,359.1,354.6z"/>
			<path class="st5" d="M353.1,218.8h-57.6c-3.3,0-6-2.6-6-5.7v-27.4c0-3.1,2.7-5.7,6-5.7h57.6c3.3,0,6,2.6,6,5.7v27.4
				C359.1,216.3,356.4,218.8,353.1,218.8z"/>
			<g>
				<path class="st6" d="M365.6,290.1h-119c-4,0-7.1-3.1-7.1-6.8V235c0-3.8,3.2-6.8,7.1-6.8h119c4,0,7.1,3.1,7.1,6.8v48.3
					C372.6,287.1,369.6,290.1,365.6,290.1z"/>
				<path class="st7" d="M367.3,229.9v48.3c0,3.8-3.2,6.8-7.1,6.8H241.7c-4,0-7.1-3.1-7.1-6.8v-48.3c0-3.8,3.2-6.8,7.1-6.8h118.5
					C364.1,223.1,367.3,226.1,367.3,229.9z"/>
				<path class="st3" d="M280.5,280h-34.9c-2.7,0-4.8-2.1-4.8-4.7v-33.6c0-2.6,2.1-4.7,4.8-4.7h34.9c2.7,0,4.8,2.1,4.8,4.7v33.6
					C285.2,278,283.1,280,280.5,280z"/>
				<g>
					<path class="st8" d="M321.8,242.6H291c-0.8,0-1.5-0.7-1.5-1.5l0,0c0-0.8,0.7-1.5,1.5-1.5h30.8c0.8,0,1.5,0.7,1.5,1.5l0,0
						C323.4,242,322.7,242.6,321.8,242.6z"/>
					<path class="st8" d="M307.8,248.4h-16.7c-0.8,0-1.5-0.7-1.5-1.5l0,0c0-0.8,0.7-1.5,1.5-1.5h16.7c0.8,0,1.5,0.7,1.5,1.5l0,0
						C309.4,247.7,308.7,248.4,307.8,248.4z"/>
					<path class="st8" d="M359.2,248.4H314c-0.8,0-1.5-0.7-1.5-1.5l0,0c0-0.8,0.7-1.5,1.5-1.5h45.2c0.8,0,1.5,0.7,1.5,1.5l0,0
						C360.7,247.7,360,248.4,359.2,248.4z"/>
					<path class="st8" d="M316.9,254.2H291c-0.8,0-1.5-0.7-1.5-1.5l0,0c0-0.8,0.7-1.5,1.5-1.5h25.9c0.8,0,1.5,0.7,1.5,1.5l0,0
						C318.5,253.5,317.9,254.2,316.9,254.2z"/>
					<path class="st8" d="M339,254.2h-16.3c-0.8,0-1.5-0.7-1.5-1.5l0,0c0-0.8,0.7-1.5,1.5-1.5H339c0.8,0,1.5,0.7,1.5,1.5l0,0
						C340.4,253.5,339.9,254.2,339,254.2z"/>
					<path class="st8" d="M359.2,254.2h-15c-0.8,0-1.5-0.7-1.5-1.5l0,0c0-0.8,0.7-1.5,1.5-1.5h15c0.8,0,1.5,0.7,1.5,1.5l0,0
						C360.7,253.5,360,254.2,359.2,254.2z"/>
					<path class="st8" d="M359.2,260.1h-68.2c-0.8,0-1.5-0.7-1.5-1.5l0,0c0-0.8,0.7-1.5,1.5-1.5h68.2c0.8,0,1.5,0.7,1.5,1.5l0,0
						C360.7,259.4,360,260.1,359.2,260.1z"/>
					<path class="st8" d="M328.6,265.9h-37.5c-0.8,0-1.5-0.7-1.5-1.5l0,0c0-0.8,0.7-1.5,1.5-1.5h37.5c0.8,0,1.5,0.7,1.5,1.5l0,0
						C330.1,265.2,329.5,265.9,328.6,265.9z"/>
					<path class="st8" d="M359.2,265.9h-24.7c-0.8,0-1.5-0.7-1.5-1.5l0,0c0-0.8,0.7-1.5,1.5-1.5h24.7c0.8,0,1.5,0.7,1.5,1.5l0,0
						C360.7,265.2,360,265.9,359.2,265.9z"/>
					<path class="st8" d="M313.1,271.7h-22.1c-0.8,0-1.5-0.7-1.5-1.5l0,0c0-0.8,0.7-1.5,1.5-1.5h22.1c0.8,0,1.5,0.7,1.5,1.5l0,0
						C314.7,271,314,271.7,313.1,271.7z"/>
					<path class="st8" d="M341.1,271.7h-22.1c-0.8,0-1.5-0.7-1.5-1.5l0,0c0-0.8,0.7-1.5,1.5-1.5h22.1c0.8,0,1.5,0.7,1.5,1.5l0,0
						C342.7,271,342,271.7,341.1,271.7z"/>
					<path class="st8" d="M359.2,271.7h-12.9c-0.8,0-1.5-0.7-1.5-1.5l0,0c0-0.8,0.7-1.5,1.5-1.5h12.9c0.8,0,1.5,0.7,1.5,1.5l0,0
						C360.7,271,360,271.7,359.2,271.7z"/>
					<path class="st8" d="M321.8,277.6H291c-0.8,0-1.5-0.7-1.5-1.5l0,0c0-0.8,0.7-1.5,1.5-1.5h30.8c0.8,0,1.5,0.7,1.5,1.5l0,0
						C323.4,276.9,322.7,277.6,321.8,277.6z"/>
					<path class="st8" d="M359.2,242.6h-30.8c-0.8,0-1.5-0.7-1.5-1.5l0,0c0-0.8,0.7-1.5,1.5-1.5h30.8c0.8,0,1.5,0.7,1.5,1.5l0,0
						C360.7,242,360,242.6,359.2,242.6z"/>
				</g>
				<g>
					<path class="st9" d="M367.3,229.9v2H234.7v-2c0-3.8,3.2-6.8,7.1-6.8h118.5C364.1,223.1,367.3,226.1,367.3,229.9z"/>
					<g>
						<path class="st1" d="M342.3,227.6c0,0.8-0.7,1.6-1.7,1.6c-1,0-1.7-0.7-1.7-1.6c0-0.8,0.7-1.6,1.7-1.6
							C341.6,226,342.3,226.8,342.3,227.6z"/>
						<path class="st1" d="M350.7,227.6c0,0.8-0.7,1.6-1.7,1.6c-1,0-1.7-0.7-1.7-1.6c0-0.8,0.7-1.6,1.7-1.6
							C350,226,350.7,226.8,350.7,227.6z"/>
						<path class="st1" d="M359.1,227.6c0,0.8-0.7,1.6-1.7,1.6c-0.9,0-1.7-0.7-1.7-1.6c0-0.8,0.7-1.6,1.7-1.6
							C358.4,226.1,359.1,226.8,359.1,227.6z"/>
					</g>
				</g>
			</g>
			<g>
				<path class="st10" d="M275.8,218.8h-26.2c-3.8,0-7.1-3.1-7.1-6.8v-25.2c0-3.7,3.2-6.8,7.1-6.8h26.2c3.8,0,7.1,3.1,7.1,6.8V212
					C282.7,215.8,279.6,218.8,275.8,218.8z"/>
				<g>
					<polyline class="st11" points="256.3,193.7 250.5,199.4 256.3,205 					"/>
					<polyline class="st11" points="268.9,193.7 274.6,199.4 268.9,205 					"/>
					<line class="st11" x1="265.3" y1="193.7" x2="259.9" y2="205"/>
				</g>
			</g>
			<g>
				<path class="st8" d="M367.3,85.1v79.1c0,4.3-3.7,7.8-8.1,7.8H242.7c-4.4,0-8.1-3.5-8.1-7.8V85.1c0-4.3,3.7-7.8,8.1-7.8h116.6
					C363.7,77.3,367.3,80.8,367.3,85.1z"/>
				<ellipse class="st12" cx="340.4" cy="102.4" rx="19.2" ry="18.5"/>
				<path class="st3" d="M312.7,172h-69.9c-4.4,0-8.1-3.5-8.1-7.8v-12.4l30.6-51c1.6-2.7,5.6-2.7,7.2,0l23.1,38.5l17.1,28.6
					C313.5,169.2,313.5,170.7,312.7,172z"/>
				<path class="st12" d="M342.8,172H276l19.6-32.8l10.6-17.6c1.5-2.4,5-2.4,6.5,0L342.8,172z"/>
			</g>
		</g>
		<g>
			<g>
				<rect x="423.8" y="318.8" class="st13" width="51.6" height="74.6"/>
				<rect x="475.3" y="318.7" class="st14" width="19.7" height="74.6"/>
				<g>
					<rect x="478.2" y="321.6" class="st8" width="14.5" height="2.4"/>
					<rect x="478.2" y="326.7" class="st8" width="14.5" height="2.4"/>
					<rect x="478.2" y="331.8" class="st8" width="14.5" height="2.4"/>
					<rect x="478.2" y="336.9" class="st8" width="14.5" height="2.4"/>
					<rect x="478.2" y="342.1" class="st8" width="14.5" height="2.4"/>
					<rect x="478.2" y="347.1" class="st8" width="14.5" height="2.4"/>
					<rect x="478.2" y="352.2" class="st8" width="14.5" height="2.4"/>
					<rect x="478.2" y="357.3" class="st8" width="14.5" height="2.4"/>
					<rect x="478.2" y="362.5" class="st8" width="14.5" height="2.4"/>
					<rect x="478.2" y="367.7" class="st8" width="14.5" height="2.4"/>
					<rect x="478.2" y="372.8" class="st8" width="14.5" height="2.4"/>
					<rect x="478.2" y="377.9" class="st8" width="14.5" height="2.4"/>
					<rect x="478.2" y="383" class="st8" width="14.5" height="2.4"/>
					<rect x="478.2" y="388" class="st8" width="14.5" height="2.4"/>
				</g>
			</g>
			<g>
				<path class="st15" d="M415.5,393.3h26.2c0,0,1.5-4.4-1.7-10.1c0,0-2.1,1.6-8.4,0.5c0,0-2.7,2.2-4.4,3.1
					C425.3,387.7,414.8,389.6,415.5,393.3z"/>
				<path class="st16" d="M417.3,322.2c1.7,9.7,9.4,42.6,12.9,61.9c6.1,0.5,9-0.2,10.6-0.5c-0.3-6.7-0.9-23-0.9-30.1
					c0.1-12.1,0.7-27.8-4.8-36.5l-18.4,1.5c0.1,0.9,0.2,1.7,0.3,2.3C417.1,321.3,417.2,321.8,417.3,322.2z"/>
				<path class="st15" d="M368,393.3h26.2c0,0,1.5-4.4-1.7-10.1c0,0-2.1,1.6-8.4,0.5c0,0-2.7,2.2-4.4,3.1
					C377.9,387.7,367.3,389.6,368,393.3z"/>
				<path class="st17" d="M383.4,383.7c5,1.2,8.6,1.1,10.3,0.8c1.3-7.8,3.6-25,5.6-33c3.1-12.5,6.1-29.7,4-35.9l-18.2-4.4
					C385.1,311.8,383.6,364.5,383.4,383.7z"/>
				<path class="st17" d="M455.7,293.3L455.7,293.3c-0.4-3.4-0.8-6-0.8-6l-20.3,4.7l-17.2,3.8c-6.4,1.3-14.1,3.1-20.9,4.4
					c-7.6,1.7-12.7,7.2-11,14.6l1.9,8.9c10.6-0.1,60.9-4.7,65.1-6.8C457.4,314.8,458.8,306.4,455.7,293.3z"/>
				<path class="st16" d="M486,293.3L486,293.3c-0.4-3.4-2.1-7.1-2.1-7.1l-19,6l-17.2,3.8c-6.4,1.3-14.1,3.1-20.9,4.4
					c-7.6,1.7-12.7,7.2-11,14.6l1.9,8.9c10.6-0.1,55.3-1.6,65.1-6.8C487.5,314.6,489.1,306.4,486,293.3z"/>
				<g>
					<path class="st18" d="M429.1,265.3c0,0,9-3.9,11.5,0c1.3,2.2,0.4,6.2-2.7,7.8c-3.1,1.7-20.4,8.7-36.9,12.7c0,0-0.7-2.2-1.9-4.4
						c0,0,7.4-3,14.7-7.9C421.3,268.6,429.1,265.3,429.1,265.3L429.1,265.3z"/>
				</g>
				<path class="st18" d="M431.4,238.3l-7.7,29.7c0,0,0.8,7.5,8.6,3.8c7.9-3.7,13.1-27.3,13.1-27.3L431.4,238.3z"/>
				<path class="st19" d="M444.5,254.9c-1-0.2-1.9-0.5-2.8-0.8s-1.7-0.5-2.5-0.8c-7.3-2.4-11.3-5.3-11.3-5.3
					c2.3-9.7,5.2-16.1,7.6-20.4c0.1-0.1,0.1-0.2,0.2-0.3c0.1-0.1,0.1-0.2,0.2-0.3c1.3-2.1,3.3-3.9,5.3-5.4c0.2-0.2,0.4-0.3,0.7-0.5
					l0.9,15.5l0.2,1.6L444.5,254.9z"/>
				<path class="st19" d="M444.5,254.9c-1-0.2-1.9-0.5-2.8-0.8s-1.7-0.5-2.5-0.8c1.6-10.5,2.9-17,2.9-17l0.8,1.9L444.5,254.9z"/>
				<path class="st19" d="M490.1,228c-0.2,4.6-1,12-1.7,19.3c-0.2,2.4-0.5,4.7-0.6,7c-0.1,1.5-2.4,9-2.5,10.3
					c-0.4,6.4-3.7,11.3-0.6,21.2c0.8,2.4,0.9,3.6,0.9,4.6c0,0.7-0.9,1.5-1.3,1.6c-1.3,0.8-3.8,1.2-7,1.6l0,0
					c-6.1,0.8-14.4,0.8-19.4,0.8c-6.7,0-16.7-1.1-18-2.7c-1.2-1.5-0.1-3.7,0.5-6.6c2.5-13.4,1.6-20.6,1.5-30.2c0-0.3,0-0.5,0-0.8
					c-0.3-15-1.3-27.9-0.6-32.5c0.2-0.2,0.4-0.3,0.7-0.5c1.1-0.7,2.1-1.3,3.2-1.9c0.1,0,0.2-0.1,0.3-0.2c0.3-0.2,0.6-0.3,0.9-0.5
					c0.1-0.1,0.2-0.1,0.4-0.2c2.3-1.1,5.6-2.2,7.5-2.8c0.2-0.1,0.5-0.2,0.7-0.2c1.7-0.1,3.7-0.1,5.8-0.1c1.7,0.1,4.6,0.3,7.7,0.7
					l0,0c3.4,0.4,7.2,1.1,10.2,1.8c0,0,0,0,0.1,0c0.6,0.2,4.2,1.5,8,5.4C487.6,224.5,488.9,226.1,490.1,228z"/>
				<path class="st19" d="M484.7,285.9c0.8,2.4,0.9,3.6,0.9,4.6c0,0.7-0.9,1.5-1.3,1.6c-1.3,0.8-3.8,1.2-7,1.6
					c1.3-0.2,3.6-2.1,3.6-3.9c0-1.2-1.7-9.5-1.2-15c0.5-5.4,1.3-14-0.4-20.9c-1.7-6.8-3.3-16-3.3-16l9.8,5.7c0,0,1.3,1.7,2.7,3.8
					c-0.2,2.4-0.5,4.7-0.6,7C487.5,255.8,481.5,276.1,484.7,285.9z"/>
				<g>
					<path class="st16" d="M441.6,188.4c0,0,0.9,9.9,4.2,10.5c3.3,0.7,2.5-3.5,2.5-3.5l-0.5-4.7L441.6,188.4z"/>
					<path class="st18" d="M457.2,224.1c-6.6-0.8-4.1-7-3.3-8.5c0.2-0.1,1.3-0.4,1.5-0.5l0,0c0.2-0.2,0.4-0.4,0.5-0.8
						c0.7-1.6,0.4-5,0.3-5.1l0,0v-0.5c0.1-0.4,0.2-0.8,0.3-1.1l3.4-2.7l7.4-5.6c0,0-2,9.4-0.4,15.3c0.1,0.5,0.4,1.1,1,1.5l0,0
						c0.2,0.1,0.4,0.2,0.7,0.3C470.6,217.1,468.2,225.3,457.2,224.1z"/>
					<path class="st20" d="M463.2,205.3c0,0-0.1,6.3-7.1,9.1c0.7-1.6,0.4-5,0.3-5.1l2.9-2.2L463.2,205.3z"/>
					<path class="st18" d="M443.3,189.7c0,0,1.6,20.4,7.3,22.2c0,0,7.3,0.7,12.5-6.2c1.5-2,3.4-2.4,4-4.7c1-3.8,2.5-10.9,0.6-15.2
						C465.2,179.8,443.5,174.9,443.3,189.7z"/>
					<path class="st16" d="M467.8,182.5c-0.1-3.7-4-5.1-4-5.1c-3.8-1.7-11.9-0.9-20.3,0.8c-2,0.4-4.4-0.8-5.8,0.2
						c-1.7,1.1,0,6.2,0,6.2c3.3,9.4,15.1,6.3,18.6,5.1c0.9,2.4,0.7,5.8,2.9,7.5c1.2,0.9,3.3,1.1,5.4,0.7c0.3,0.5,1.3,0.8,1.5,1.5
						c0.7,2.2,0.6,5.6,0.6,8.2l1-0.5C467.7,206.4,478.1,182.7,467.8,182.5z"/>
					<g>
						<path class="st21" d="M449.1,196.6c0.3,1.7-0.6,3.2-2,3.5c-1.3,0.2-2.8-0.9-3.1-2.7c-0.3-1.7,0.6-3.2,2-3.5
							C447.5,193.7,448.8,194.9,449.1,196.6z"/>
						<path class="st21" d="M456.1,195.4c0.3,1.7-0.6,3.2-2,3.5c-1.3,0.2-2.8-0.9-3.1-2.7c-0.3-1.7,0.6-3.2,2-3.5
							C454.4,192.4,455.8,193.7,456.1,195.4z"/>
						<path class="st21" d="M449.1,196.6c0,0,0.3-0.5,1.9-0.4"/>
						<line class="st21" x1="456.1" y1="195.8" x2="462" y2="194.8"/>
					</g>
					<g>
						<path class="st18" d="M462.5,202.1c4,1.5,5.3-8.2,1.5-8.6c-2.9-0.3-3.1,3.6-3.1,3.6S460.1,201.3,462.5,202.1z"/>
					</g>
					<g class="st22">
						<g>
							<path class="st20" d="M463.9,195c0,0-0.3,0.3-0.5,0.7c-0.2,0.5-0.5,1.1-0.5,1.6c0,0.3,0,0.7,0,0.9s0,0.5,0.1,0.8
								c0,0.3,0.1,0.5,0.1,0.7c0,0.2,0,0.3,0,0.3s-0.1-0.1-0.1-0.2c-0.1-0.1-0.2-0.3-0.3-0.5c-0.1-0.3-0.2-0.5-0.3-0.8
								c-0.1-0.4-0.1-0.7-0.1-1.1c0-0.4,0.1-0.8,0.3-1.1c0.2-0.3,0.4-0.5,0.6-0.8C463.5,195,463.9,195,463.9,195z"/>
						</g>
						<g>
							<path class="st20" d="M464.5,196.8c0,0-0.2,0-0.4,0.1c-0.2,0.1-0.5,0.2-0.7,0.5c-0.2,0.2-0.4,0.5-0.4,0.7
								c-0.1,0.2-0.1,0.4-0.1,0.4l-0.7-0.2c0,0,0.1-0.2,0.2-0.4c0.2-0.2,0.4-0.5,0.8-0.7c0.3-0.2,0.7-0.3,0.9-0.3
								C464.3,196.8,464.5,196.8,464.5,196.8z"/>
						</g>
					</g>
				</g>
				<path class="st18" d="M501.8,269.3L501.8,269.3c-1.7,2-8.6,3.5-11.8,0.7c-1-0.8-2.1-3.2-3.3-6.1c-2.9-7.4-5.6-18.4-5.6-18.4
					l15.2-7.5c0,0,2,8.5,3.7,16.5c0,0,0,0.1,0,0.2c0.6,2.6,1.1,5.1,1.5,7.3c0,0.1,0,0.1,0,0.2C501.7,264.8,501.9,267.4,501.8,269.3z
					"/>
				<path class="st19" d="M475.1,235.2c1.5,5.9,6.1,17.1,6.1,17.1c3.3,0.5,7.6-0.1,11.1-1.3c4.1-1.5,7.1-4.4,7.1-4.4
					s-3.1-8.2-5.8-14.2c-2.5-5.3-4-7.3-5-8.5c-1.6-1.6-4.2-3.5-6-4.4L475.1,235.2z"/>
				<path class="st19" d="M494.4,239l-9-3.7l-7-17.5c0,0,1.3,0.4,2.9,1.1l0,0c0,0,0.1,0,0.2,0.1c0,0,0.1,0,0.1,0.1
					c1.5,0.7,7.4,4,11.4,16.1c0,0.1,0.1,0.2,0.1,0.3c0.4,1.5,0.8,2.6,0.9,3.1c0,0.1,0,0.1,0,0.2C494.4,238.9,494.4,239,494.4,239z"
					/>
				<g>
					<path class="st18" d="M501.8,269.3L501.8,269.3c-0.1,1.1-0.4,1.9-1,2.1c-0.1,0.1-1.3,0.8-1.3,0.8c-1.9,1.1-5.2,3-9.4,4.7
						c-10.2,4.3-24.9,9.1-32.9,11.4c0,0-0.8-2.2-2-4.4c0,0,7.2-3.2,14.3-8.5c7.1-5.2,17.4-11.6,17.4-11.6l2.5-3
						c0,0,9.2-8.2,10.6-6.4c0,0,0,0.1,0,0.2c0.2,0.8,1,4,1.5,7.3c0,0.1,0,0.1,0,0.2C501.7,264.8,501.9,267.4,501.8,269.3z"/>
					<path class="st18" d="M455.9,283.3c0,0-1.7,1.1-3.7,0.7c-1-0.2-1.3-0.5-2.1-0.8c-0.8-0.1-2.8-0.4-3.7-0.8
						c-1-0.5-1.3-0.5-1.3,0.5s2,1.8,2.5,2c0.5,0.3,1.2,1.1,1.3,1.2c0.1,0.1-3.3,1.8-4.1,1.5c0,0-0.3,0.8-0.1,1.2
						c0.2,0.5,0.8,0.5,0.9,0.8c0.1,0.2-0.2,0.7,0,1.1c0.1,0.4,0.8,0.4,1,0.8c0.2,0.5,0,0.5,0.2,1.1c0.2,0.5,1,0.7,1.1,0.9
						s0.1,0.7,0.4,0.8c0.3,0.2,3.3-0.8,4.4-1.1c1.1-0.5,4-4.4,7.2-5.9L455.9,283.3z"/>
				</g>
				<path class="st23" d="M471.2,301.4H448v-2.2h23.2c0.6,0,1.1,0.5,1.1,1.1l0,0C472.2,300.9,471.8,301.4,471.2,301.4z"/>
				<path class="st23" d="M458.7,301.4h-58c-0.7,0-1.3-0.5-1.5-1.1l-11.9-41.2c-0.3-0.9,0.5-1.8,1.5-1.8h56.1c1.3,0,2.5,0.8,2.8,2.1
					l11.8,41C459.5,300.9,459.1,301.4,458.7,301.4z"/>
				<path class="st24" d="M456.5,301.4h-58c-0.7,0-1.3-0.5-1.5-1.1l-11.8-41.1c-0.3-0.9,0.5-1.8,1.5-1.8h56.1c1.3,0,2.5,0.8,2.8,2.1
					l11.8,41C457.5,300.9,457.1,301.4,456.5,301.4z"/>
			</g>
		</g>
		<g>
			<path class="st25" d="M226.6,274.8l6.7-6.6c0,0,0.2-3,0.6-3.6c0.4-0.7,1.3-3,1.7-3.2c0.5-0.3,1.3,0,1.3,0s0.9-0.3,1.3-0.3
				c0.4,0,1.2,0.4,1.2,0.4s1-0.1,1.3-0.1c0.4,0,0.6,0.1,0.6,0.1s1.6-1.8,2.4-2.4s2-1.7,2.4-1.7c0.3,0,0.5,0.5,0.2,1.1
				c-0.2,0.5-1.3,1.6-1.3,1.6l-3.1,4.4c0,0,0.5-0.2,0.8-0.4c0.3-0.2,2.1-1.8,2.3-1.9c0.1-0.1,1-0.5,1.5-0.1c0.5,0.5-3.3,4.8-3.8,5.4
				c-0.6,0.5-4,2.2-4,2.2s-3.6,6.2-4,6.6C234.7,276.9,226.6,274.8,226.6,274.8z"/>
			<path class="st25" d="M233,244.1c0,0-3.7,21-7.3,21.5c0,0-14.1,0.5-17.2-16c-2.8-14.2,8.2-17.3,13.3-16.2
				C226.9,234.4,234.1,235.2,233,244.1z"/>
			<path class="st25" d="M220.5,262.3c0,0-2,2.6-2.7,8.7c0,0-6,0.8-11.3-1.9c0,0,2.9-8.7,3.3-18.3"/>
			<path class="st16" d="M216.5,229.9c-7.7,1.6-7.1,6.3-7.1,6.3c-3.7,0.8-4.4,2.3-4.4,8.7s2.5,14.1,3.7,14.7
				c1.3,0.7,8.9,0.7,9.4,0.5s3.3-6.1,2.7-7.1c-0.6-1.1,0-5.1,1.7-5.2c1.7-0.2,1.3,2.4,1.3,2.4l1.5-0.3l1.1-2.7
				c10.2,0.5,12.9-10.6,12.9-10.6C237.1,235.1,224.2,228.3,216.5,229.9z"/>
			<path class="st18" d="M130.9,371.6l7.8,1.1l-2.5,8.7l-8.5-2.1c0,0-3.4-4.4,1.7-7.8C129.8,371.4,130.5,371.5,130.9,371.6z"/>
			<path d="M189.1,349.1l-11.5-33.5c0,0-3.4-1.2-5.2,0c0,0-11.9,6.2-10.6,23.8c1,13.3,3.8,27.7,5,33.5l-30.6-1.1
				c0,0-3.7,4.4-1.3,9.9c0,0,38.6,9.9,44,10.9c4.4,0.8,9.3,1.3,11.5-0.5C194.3,388.8,189.1,349.1,189.1,349.1z"/>
			<path class="st18" d="M167.2,371.6l7.8,1.1l-2.5,8.7l-8.5-2.1c0,0-3.4-4.4,1.7-7.8C166,371.4,166.8,371.5,167.2,371.6z"/>
			<path class="st24" d="M164.4,376.1c-0.2,1.7,1.3,3.3,1.1,3.7c-0.3,0.5-5.6,8.9-5.6,8.9s4,1.6,3.3,4h-10.1c0,0-2.7-2.3-2.5-5.5
				c0,0,0.7-3.7,2.5-7c1.7-3.3,5.8-10.8,5.8-10.8s1.2-0.5,3.3,0.1c2.5,0.7,4.8,2.1,4.8,2.1S164.8,371.9,164.4,376.1z"/>
			<path class="st16" d="M244.6,385.1c-2.5-8.9-25.7-46.8-33.6-57.1c-16.2-6.7-33.4-12.5-33.4-12.5c-7.1,1.6-10.6,15.5-6.6,24.7
				c2.8,6.3,20.4,22.2,31.2,31.6h-29.8c0,0-3.6,5-0.3,9.9c0,0,49.7,10.9,54,11.5c4.4,0.5,14.1,0,14.1,0S246.7,392.6,244.6,385.1z"/>
			<path class="st24" d="M128.2,376.1c-0.2,1.7,1.3,3.3,1.1,3.7c-0.3,0.5-5.6,8.9-5.6,8.9s4,1.6,3.3,4H117c0,0-2.7-2.3-2.5-5.5
				c0,0,0.7-3.7,2.5-7c1.7-3.3,5.8-10.8,5.8-10.8s1.2-0.5,3.3,0.1c2.5,0.7,4.8,2.1,4.8,2.1S128.6,371.9,128.2,376.1z"/>
			<path class="st25" d="M282.1,268.4L266,295.5l-11.4-11l-9.4,13.6l2.8,1.2l-1,0.8c0,0,22.2,10.3,24.8,8.1c2.7-2.3,15-36.8,15-36.8
				L282.1,268.4z"/>
			<path class="st19" d="M256.6,286.2c0,0-3.1,12.4-9,18.1l-15.5-5.7c0,0-7.2,11.7-14.2,20.6c-2.7,3.4-3.6,8.2-6.8,8.9
				c-0.2-0.1-0.4-0.1-0.6-0.2c-8.6-2.4-21.3,0.2-31.7-3.6c-11.5-4.2-9.4-6.4-9.4-6.4s7-12.1,11-25.1c1.7-5.7,3.1-11,3.8-15.1
				c1.5-7.3,7.6-13,15.2-14.1c0.1,0,0.2,0,0.3,0c8.8-1.1,31.7,1.5,36.2,3.4C240.4,269,256.6,286.2,256.6,286.2z"/>
			<path class="st19" d="M232,298.6c0,0-7.2,11.7-14.2,20.6c-2.7,3.4-3.6,8.2-6.8,8.9c1.3-0.5,3.7-7.5,4.5-9.1
				c0.8-1.6,2.1-3.1,5-8.7c2.9-5.5,6.7-13.7,6.7-13.7L232,298.6z"/>
			<g>
				<path d="M202.2,371.9c0,0,0.2-0.1,0.7-0.1c0.4,0,1.1-0.1,1.7-0.2c1.5-0.1,3.4,0,5.4,0.3c1,0.1,2,0.3,2.9,0.5s1.7,0.5,2.5,0.7
					s1.3,0.5,1.7,0.7c0.4,0.2,0.6,0.3,0.6,0.3s-0.3,0-0.7-0.1s-1-0.2-1.7-0.3c-1.5-0.2-3.3-0.5-5.3-0.8c-1-0.2-2-0.3-2.9-0.4
					c-0.9-0.1-1.7-0.2-2.5-0.3C203.1,372,202.2,371.9,202.2,371.9z"/>
			</g>
			<path class="st25" d="M294,258.4c-0.3,0-1.9,1.2-2.7,1.9l0.9-1.7c0,0,1.2-1.1,1.7-1.7c0.4-0.7,0.2-1.2-0.1-1.2
				c-0.2,0-1.7,1.1-2.5,1.7l0.2-0.4c0,0,1.2-1.1,1.7-1.7c0.4-0.7,0.2-1.2-0.1-1.2s-3.2,2.2-3.2,2.2l-1.3,1.7l1-1.9
				c0,0,0.5-0.7,0.9-1.3c0.4-0.7,0.1-0.8-0.1-1.1c-0.2-0.3-2.1,1.1-2.5,1.6c-0.5,0.5-2,2.7-2.1,3.1l-1.6,3.1
				c-0.1-0.9-0.3-2.4-0.4-3.4c-0.2-1.5-1.5-1.7-1.6-1.1c0,0.7-0.8,4-0.6,5.9c0.2,1.8,0.5,3.1,0.6,4c0.1,1.1-1,3.1-1,3.1
				s4.4,2.7,5.2,1.9c0.7-0.8,2.3-2.6,3.1-3.8c1.1-1.6,1.7-3.8,1.7-3.8l1.3-2.8c0,0,1.2-1.1,1.7-1.7C294.6,259,294.4,258.4,294,258.4
				z"/>
		</g>
		<g>
			<path class="st26" d="M550.2,172h-52.4c-3.3,0-6.1,2.7-6.1,5.9v11.8c0,3,2.3,5.4,5.3,5.8c0.4,0.1,0.8,0.4,0.8,0.8v6.6
				c0,0.4,0.5,0.5,0.7,0.2l5.3-7.2c0.2-0.2,0.4-0.4,0.7-0.4h45.5c3.3,0,6.1-2.7,6.1-5.9v-11.8C556.2,174.5,553.5,172,550.2,172z"/>
			<g>
				<path class="st26" d="M505.9,183.7c0,1.1-0.9,1.9-2,1.9s-2-0.8-2-1.9s0.9-1.9,2-1.9C505,181.8,505.9,182.7,505.9,183.7z"/>
				<path class="st26" d="M516,183.7c0,1.1-0.9,1.9-2,1.9c-1.1,0-2-0.8-2-1.9s0.9-1.9,2-1.9C515.1,181.8,516,182.7,516,183.7z"/>
				<path class="st26" d="M526,183.7c0,1.1-0.9,1.9-2,1.9c-1.1,0-2-0.8-2-1.9s0.9-1.9,2-1.9S526,182.7,526,183.7z"/>
				<path class="st26" d="M536,183.7c0,1.1-0.9,1.9-2,1.9s-2-0.8-2-1.9s0.9-1.9,2-1.9C535.2,181.8,536,182.7,536,183.7z"/>
				<path class="st26" d="M546.1,183.7c0,1.1-0.9,1.9-2,1.9c-1.1,0-2-0.8-2-1.9s0.9-1.9,2-1.9C545.2,181.8,546.1,182.7,546.1,183.7z
					"/>
			</g>
		</g>
		<g>
			<path class="st26" d="M136.7,224.1h52.4c3.3,0,6.1,2.7,6.1,5.9v11.8c0,3-2.3,5.4-5.3,5.8c-0.4,0.1-0.8,0.4-0.8,0.8v6.6
				c0,0.4-0.5,0.5-0.7,0.2l-5.3-7.2c-0.2-0.2-0.4-0.4-0.7-0.4h-45.5c-3.3,0-6.1-2.7-6.1-5.9v-11.8
				C130.6,226.7,133.4,224.1,136.7,224.1z"/>
			<g>
				<path class="st26" d="M181,235.8c0,1.1,0.9,1.9,2,1.9s2-0.8,2-1.9s-0.9-1.9-2-1.9S181,234.7,181,235.8z"/>
				<path class="st26" d="M170.9,235.8c0,1.1,0.9,1.9,2,1.9c1.1,0,2-0.8,2-1.9s-0.9-1.9-2-1.9C171.9,233.9,170.9,234.7,170.9,235.8z
					"/>
				<path class="st26" d="M160.9,235.8c0,1.1,0.9,1.9,2,1.9s2-0.8,2-1.9s-0.9-1.9-2-1.9S160.9,234.7,160.9,235.8z"/>
				<path class="st26" d="M150.9,235.8c0,1.1,0.9,1.9,2,1.9s2-0.8,2-1.9s-0.9-1.9-2-1.9S150.9,234.7,150.9,235.8z"/>
				<path class="st26" d="M140.8,235.8c0,1.1,0.9,1.9,2,1.9c1.1,0,2-0.8,2-1.9s-0.9-1.9-2-1.9C141.7,233.9,140.8,234.7,140.8,235.8z
					"/>
			</g>
		</g>
		<g>
			<path class="st27" d="M452.7,144.5h-95.3c-5.2,0-9.6-4-9.6-9.2l0,0c0-5,4.2-9.2,9.6-9.2h95.3c5.2,0,9.6,4,9.6,9.2l0,0
				C462.2,140.3,457.9,144.5,452.7,144.5z"/>
			<g>
				<path class="st28" d="M451.3,134.6c0,2.7-2.3,4.8-5,4.8c-2.8,0-5-2.2-5-4.8c0-2.7,2.3-4.8,5-4.8
					C449,129.8,451.3,132,451.3,134.6z"/>
				<line class="st29" x1="449.8" y1="138.1" x2="452.6" y2="140.8"/>
			</g>
		</g>
		<g>
			<g>
				<path class="st30" d="M308.3,393.7h-24c-4.2,0-7.6-3.3-7.6-7.3v-23.1c0-4,3.4-7.3,7.6-7.3h24c4.2,0,7.6,3.3,7.6,7.3v23.1
					C315.9,390.5,312.4,393.7,308.3,393.7z"/>
				<path class="st14" d="M301.1,393.7h-24c-4.2,0-7.6-3.3-7.6-7.3v-23.1c0-4,3.4-7.3,7.6-7.3h24c4.2,0,7.6,3.3,7.6,7.3v23.1
					C308.7,390.5,305.4,393.7,301.1,393.7z"/>
				<path class="st3" d="M284.4,367.8l11.3,6.3c0.7,0.4,0.7,1.3,0,1.7l-11.3,6.3c-0.7,0.4-1.6-0.1-1.6-0.8v-12.5
					C283,367.9,283.8,367.3,284.4,367.8z"/>
			</g>
			<g>
				<path class="st30" d="M556.3,393.7H525c-5.6,0-9.9-4.3-9.9-9.5V354c0-5.3,4.4-9.5,9.9-9.5h31.3c5.6,0,9.9,4.3,9.9,9.5v30.2
					C566.3,389.4,561.9,393.7,556.3,393.7z"/>
				<path class="st14" d="M547.1,393.7h-31.3c-5.6,0-9.9-4.3-9.9-9.5V354c0-5.3,4.4-9.5,9.9-9.5h31.3c5.6,0,9.9,4.3,9.9,9.5v30.2
					C557,389.4,552.5,393.7,547.1,393.7z"/>
				<path class="st3" d="M537.5,356.5c0,3.2-2.8,5.9-6.1,5.9s-6.1-2.7-6.1-5.9s2.8-5.9,6.1-5.9S537.5,353.3,537.5,356.5z"/>
				<path class="st3" d="M544.2,376.7v8.7c0,0.8-0.7,1.5-1.5,1.5H520c-0.8,0-1.5-0.7-1.5-1.5v-8.7c0-6.8,5.7-12.4,12.9-12.4l0,0
					C538.4,364.2,544.2,369.8,544.2,376.7z"/>
			</g>
			<g>
				<path class="st12" d="M416.8,155.1h-20.1c-0.8,0-1.5-0.7-1.5-1.5l0,0c0-0.8,0.7-1.5,1.5-1.5h20.1c0.8,0,1.5,0.7,1.5,1.5l0,0
					C418.4,154.4,417.6,155.1,416.8,155.1z"/>
				<path class="st12" d="M436.9,155.1h-14.6c-0.8,0-1.5-0.7-1.5-1.5l0,0c0-0.8,0.7-1.5,1.5-1.5h14.6c0.8,0,1.5,0.7,1.5,1.5l0,0
					C438.4,154.4,437.9,155.1,436.9,155.1z"/>
				<path class="st12" d="M405.2,161.4h-8.6c-0.8,0-1.5-0.7-1.5-1.5l0,0c0-0.8,0.7-1.5,1.5-1.5h8.6c0.8,0,1.5,0.7,1.5,1.5l0,0
					C406.8,160.7,406.1,161.4,405.2,161.4z"/>
				<path class="st12" d="M436.9,161.4h-26.6c-0.8,0-1.5-0.7-1.5-1.5l0,0c0-0.8,0.7-1.5,1.5-1.5h26.6c0.8,0,1.5,0.7,1.5,1.5l0,0
					C438.4,160.7,437.9,161.4,436.9,161.4z"/>
				<path class="st12" d="M423.3,167.8h-26.5c-0.8,0-1.5-0.7-1.5-1.5l0,0c0-0.8,0.7-1.5,1.5-1.5h26.5c0.8,0,1.5,0.7,1.5,1.5l0,0
					C424.7,167.2,424.1,167.8,423.3,167.8z"/>
				<path class="st12" d="M436.9,167.8h-8.6c-0.8,0-1.5-0.7-1.5-1.5l0,0c0-0.8,0.7-1.5,1.5-1.5h8.6c0.8,0,1.5,0.7,1.5,1.5l0,0
					C438.4,167.2,437.9,167.8,436.9,167.8z"/>
			</g>
			<g>
				<path class="st30" d="M161.8,303.9H91.5c-2.1,0-3.7-1.6-3.7-3.6v-34.1c0-2,1.7-3.6,3.7-3.6h70.3c2.1,0,3.7,1.6,3.7,3.6v34.1
					C165.5,302.3,163.9,303.9,161.8,303.9z"/>
				<line class="st31" x1="91" y1="268" x2="162.2" y2="268"/>
				<ellipse class="st3" cx="160.3" cy="265.1" rx="0.9" ry="0.8"/>
				<ellipse class="st3" cx="155.9" cy="265.1" rx="0.9" ry="0.8"/>
				<ellipse class="st3" cx="151.3" cy="265.1" rx="0.9" ry="0.8"/>
				<g>
					<g>
						<path class="st32" d="M104.3,273.6H92.1c-0.7,0-1.2-0.5-1.2-1.1l0,0c0-0.7,0.5-1.1,1.2-1.1h12.1c0.7,0,1.2,0.5,1.2,1.1l0,0
							C105.5,273.1,104.9,273.6,104.3,273.6z"/>
						<path class="st32" d="M104.3,278.9H92.1c-0.7,0-1.2-0.5-1.2-1.1l0,0c0-0.7,0.5-1.1,1.2-1.1h12.1c0.7,0,1.2,0.5,1.2,1.1l0,0
							C105.5,278.3,104.9,278.9,104.3,278.9z"/>
						<path class="st32" d="M104.3,284.2H92.1c-0.7,0-1.2-0.5-1.2-1.1l0,0c0-0.7,0.5-1.1,1.2-1.1h12.1c0.7,0,1.2,0.5,1.2,1.1l0,0
							C105.5,283.6,104.9,284.2,104.3,284.2z"/>
						<path class="st32" d="M104.3,289.4H92.1c-0.7,0-1.2-0.5-1.2-1.1l0,0c0-0.7,0.5-1.1,1.2-1.1h12.1c0.7,0,1.2,0.5,1.2,1.1l0,0
							C105.5,289,104.9,289.4,104.3,289.4z"/>
						<path class="st32" d="M104.3,294.7H92.1c-0.7,0-1.2-0.5-1.2-1.1l0,0c0-0.7,0.5-1.1,1.2-1.1h12.1c0.7,0,1.2,0.5,1.2,1.1l0,0
							C105.5,294.3,104.9,294.7,104.3,294.7z"/>
						<path class="st32" d="M104.3,300.1H92.1c-0.7,0-1.2-0.5-1.2-1.1l0,0c0-0.7,0.5-1.1,1.2-1.1h12.1c0.7,0,1.2,0.5,1.2,1.1l0,0
							C105.5,299.6,104.9,300.1,104.3,300.1z"/>
					</g>
					<g>
						<path class="st33" d="M161,273.6H109c-0.7,0-1.2-0.5-1.2-1.1l0,0c0-0.7,0.5-1.1,1.2-1.1H161c0.7,0,1.2,0.5,1.2,1.1l0,0
							C162.2,273.1,161.7,273.6,161,273.6z"/>
						<path class="st33" d="M161,278.9H109c-0.7,0-1.2-0.5-1.2-1.1l0,0c0-0.7,0.5-1.1,1.2-1.1H161c0.7,0,1.2,0.5,1.2,1.1l0,0
							C162.2,278.3,161.7,278.9,161,278.9z"/>
						<path class="st33" d="M161,284.2H109c-0.7,0-1.2-0.5-1.2-1.1l0,0c0-0.7,0.5-1.1,1.2-1.1H161c0.7,0,1.2,0.5,1.2,1.1l0,0
							C162.2,283.6,161.7,284.2,161,284.2z"/>
						<path class="st33" d="M161,289.4H109c-0.7,0-1.2-0.5-1.2-1.1l0,0c0-0.7,0.5-1.1,1.2-1.1H161c0.7,0,1.2,0.5,1.2,1.1l0,0
							C162.2,289,161.7,289.4,161,289.4z"/>
						<path class="st33" d="M161,294.7H109c-0.7,0-1.2-0.5-1.2-1.1l0,0c0-0.7,0.5-1.1,1.2-1.1H161c0.7,0,1.2,0.5,1.2,1.1l0,0
							C162.2,294.3,161.7,294.7,161,294.7z"/>
						<path class="st33" d="M161,300.1H109c-0.7,0-1.2-0.5-1.2-1.1l0,0c0-0.7,0.5-1.1,1.2-1.1H161c0.7,0,1.2,0.5,1.2,1.1l0,0
							C162.2,299.6,161.7,300.1,161,300.1z"/>
					</g>
				</g>
			</g>
			<g>
				<ellipse class="st0" cx="495.6" cy="80.2" rx="32.1" ry="30.9"/>
				<ellipse class="st1" cx="495.6" cy="80.3" rx="27.9" ry="26.9"/>
				<path class="st3" d="M498.1,80.3c0,1.3-1.2,2.4-2.5,2.4c-1.3,0-2.5-1.1-2.5-2.4s1.2-2.4,2.5-2.4C497,77.8,498.1,78.9,498.1,80.3
					z"/>
				<path class="st3" d="M495.3,79.8L495.3,79.8c-0.4,0.2-0.9,0.1-1.1-0.3L486,65.3c-0.2-0.4-0.1-0.8,0.3-1.1l0,0
					c0.4-0.2,0.9-0.1,1.1,0.3l8.2,14.2C495.8,79.2,495.7,79.6,495.3,79.8z"/>
				<path class="st3" d="M496,80.6L496,80.6c0.3-0.3,0.8-0.3,1.1,0l7.1,6.8c0.3,0.3,0.3,0.8,0,1.1l0,0c-0.3,0.3-0.8,0.3-1.1,0
					l-7.1-6.8C495.7,81.4,495.7,80.9,496,80.6z"/>
				<g>
					<line class="st34" x1="495.7" y1="58.8" x2="495.7" y2="55.7"/>
					<line class="st34" x1="517.9" y1="80.5" x2="521" y2="80.5"/>
					<line class="st34" x1="495.4" y1="101.7" x2="495.4" y2="104.8"/>
					<line class="st34" x1="473.3" y1="80.1" x2="470.1" y2="80.1"/>
				</g>
				<g class="st22">
					<line class="st35" x1="484.6" y1="61.6" x2="483" y2="58.9"/>
					<line class="st35" x1="514.9" y1="69.6" x2="517.8" y2="68.1"/>
					<line class="st35" x1="506.6" y1="98.9" x2="508.3" y2="101.6"/>
					<line class="st35" x1="476.2" y1="90.9" x2="473.4" y2="92.5"/>
				</g>
				<g class="st22">
					<line class="st35" x1="476.4" y1="69.4" x2="473.5" y2="67.9"/>
					<line class="st35" x1="506.8" y1="61.7" x2="508.4" y2="59.1"/>
					<line class="st35" x1="514.8" y1="91.2" x2="517.6" y2="92.7"/>
					<line class="st35" x1="484.3" y1="98.8" x2="482.7" y2="101.5"/>
				</g>
			</g>
			<g>
				<path class="st30" d="M114.8,235.5H79.7c-5.2,0-9.4-4-9.4-9.1v-33.9c0-5,4.2-9.1,9.4-9.1h35.2c5.2,0,9.4,4,9.4,9.1v33.9
					C124.2,231.5,120,235.5,114.8,235.5z"/>
				<path class="st36" d="M112.5,231h-39c-4.1,0-7.6-3.2-7.6-7.3v-37.5c0-4,3.3-7.3,7.6-7.3h39c4.1,0,7.6,3.2,7.6,7.3v37.5
					C120.1,227.7,116.7,231,112.5,231z"/>
				<g>
					<g>
						<path class="st1" d="M102.5,199h-0.3v-3c0-5-4.1-8.9-9.2-8.9c-5.2,0-9.2,4-9.2,8.9v3h-0.2c-1.3,0-2.5,1.1-2.5,2.4v11.2
							c0,1.3,1.2,2.4,2.5,2.4h18.7c1.3,0,2.5-1.1,2.5-2.4v-11.2C105,200.1,103.8,199,102.5,199z M86,196c0-3.6,3.1-6.6,6.9-6.6
							c3.7,0,6.9,3,6.9,6.6v3H86C86,199,86,196,86,196z"/>
						<path class="st37" d="M96,204.8c0-1.8-1.7-3.2-3.7-2.8c-1.2,0.2-2.1,1.1-2.4,2.2c-0.3,1.3,0.4,2.6,1.3,3.1
							c0.2,0.1,0.3,0.4,0.3,0.5l-0.5,1.9c-0.3,1.1,0.6,2.2,1.7,2.2s2.1-1.1,1.7-2.2l-0.5-1.8c-0.1-0.2,0.1-0.5,0.3-0.5
							C95.5,206.8,96,206,96,204.8z"/>
					</g>
					<path class="st1" d="M104,219.2H82.3c-0.6,0-1.1-0.5-1.1-1.1l0,0c0-0.5,0.5-1.1,1.1-1.1H104c0.6,0,1.1,0.5,1.1,1.1l0,0
						C105,218.7,104.5,219.2,104,219.2z"/>
					<path class="st1" d="M104,222.8H82.3c-0.6,0-1.1-0.5-1.1-1.1l0,0c0-0.5,0.5-1.1,1.1-1.1H104c0.6,0,1.1,0.5,1.1,1.1l0,0
						C105,222.3,104.5,222.8,104,222.8z"/>
				</g>
			</g>
			<g>
				<g>
					<path class="st30" d="M540.7,296.6H520c-3.1,0-5.6-2.4-5.6-5.3v-19.9c0-3,2.5-5.3,5.6-5.3h20.7c3.1,0,5.6,2.4,5.6,5.3v19.9
						C546.2,294.3,543.7,296.6,540.7,296.6z"/>
					<path class="st36" d="M539.3,294h-22.9c-2.5,0-4.4-1.9-4.4-4.3v-22c0-2.4,2-4.3,4.4-4.3h22.9c2.5,0,4.4,1.9,4.4,4.3v22.1
						C543.7,292.1,541.7,294,539.3,294z"/>
				</g>
				<g>
					<g>
						<path class="st3" d="M521.4,287.8c-0.1,0-0.2,0-0.3,0c-0.5-0.1-0.8-0.7-0.7-1.1l4.8-16.4c0.1-0.5,0.7-0.8,1.2-0.7
							s0.8,0.7,0.7,1.1l-4.8,16.4C522.2,287.5,521.8,287.8,521.4,287.8z"/>
					</g>
					<g>
						<path class="st3" d="M529.4,287.8c-0.1,0-0.2,0-0.3,0c-0.5-0.1-0.8-0.7-0.7-1.1l4.8-16.4c0.1-0.5,0.7-0.8,1.2-0.7
							s0.8,0.7,0.7,1.1l-4.8,16.4C530.2,287.5,529.8,287.8,529.4,287.8z"/>
					</g>
					<g>
						<path class="st3" d="M536.3,275.9h-17.1c-0.6,0-1-0.4-1-0.9s0.4-0.9,1-0.9h17.1c0.6,0,1,0.4,1,0.9S536.9,275.9,536.3,275.9z"
							/>
					</g>
					<g>
						<path class="st3" d="M536.3,283.5h-17.1c-0.6,0-1-0.4-1-0.9s0.4-0.9,1-0.9h17.1c0.6,0,1,0.4,1,0.9
							C537.3,282.9,536.9,283.5,536.3,283.5z"/>
					</g>
				</g>
			</g>
			<g>
				<path class="st12" d="M156.5,199.4h-12.3c-0.8,0-1.3-0.5-1.3-1.3l0,0c0-0.8,0.6-1.3,1.3-1.3h12.3c0.8,0,1.3,0.5,1.3,1.3l0,0
					C157.8,198.8,157.1,199.4,156.5,199.4z"/>
				<path class="st12" d="M168.9,205.2h-24.8c-0.8,0-1.3-0.5-1.3-1.3l0,0c0-0.8,0.6-1.3,1.3-1.3h24.8c0.8,0,1.3,0.5,1.3,1.3l0,0
					C170.1,204.6,169.6,205.2,168.9,205.2z"/>
				<path class="st12" d="M147,210.9H144c-0.8,0-1.3-0.5-1.3-1.3l0,0c0-0.8,0.6-1.3,1.3-1.3h2.9c0.8,0,1.3,0.5,1.3,1.3l0,0
					C148.4,210.3,147.8,210.9,147,210.9z"/>
				<path class="st12" d="M168.9,210.9h-17.2c-0.8,0-1.3-0.5-1.3-1.3l0,0c0-0.8,0.6-1.3,1.3-1.3h17.2c0.8,0,1.3,0.5,1.3,1.3l0,0
					C170.1,210.3,169.6,210.9,168.9,210.9z"/>
				<path class="st12" d="M168.9,199.4h-7.5c-0.8,0-1.3-0.5-1.3-1.3l0,0c0-0.8,0.6-1.3,1.3-1.3h7.5c0.8,0,1.3,0.5,1.3,1.3l0,0
					C170.1,198.8,169.6,199.4,168.9,199.4z"/>
			</g>
			<path class="st3" d="M99.4,376.7c-1.6,0-3.2,0.4-4.4,1.1c-0.5-4.4-4.4-7.9-9.2-7.9c-5.2,0-9.2,4-9.2,8.9c0,0.3,0,0.7,0.1,0.9
				c-0.4-0.1-0.9-0.1-1.3-0.1c-3.8,0-7,3.1-7,6.7c0,3.7,3.2,6.7,7,6.7h24c4.8,0,8.6-3.7,8.6-8.2C107.9,380.4,104.1,376.7,99.4,376.7
				z"/>
		</g>
		<g>
			<path class="st1" d="M38.3,341.1c-0.2-1.2-0.2-2.4,0.1-3.7c1.1-4,2.4-11.8-0.4-20c-4.6-13.8-23.2-26.1-23.2-26.1s5,20.4,9.3,29.1
				c3.1,6.3,8.4,13.6,11.3,17.5c0.8,1.1,1.3,2.3,1.7,3.6c3.1,16,2.5,28.5,2.5,28.7l1.3,0.1C41,370,41.4,357.5,38.3,341.1z"/>
			<path class="st38" d="M53.2,328.2c3.7-11.3,5.4-24.6,5.4-24.6s-16.7,13.3-18.2,23.5c-0.9,6.3,0.2,11.4,1.2,14.4
				c0.4,1.2,0.5,2.6,0.4,3.9c-1.7,15.1-0.4,26.7-0.4,27l1.3-0.1c0-0.2-1.3-11,0.2-25.2c0.2-2,1-3.8,2.3-5.3
				C47.9,338.7,51.3,334,53.2,328.2z"/>
			<path class="st1" d="M70.2,303.1c0,0-18,6.4-22.8,20.6c-2.9,8.6-1.5,16.6-0.4,20.7c0.3,1.1,0.3,2.4,0,3.5
				c-4.2,16.3-4.4,33.2-4.4,33.4h1.5c0-0.2,0.1-16.7,4.1-32.8c0.4-1.6,1.1-3.1,2.1-4.4c3.1-4,8.3-11.2,11.3-17.5
				C66,317.9,70.2,303.1,70.2,303.1z"/>
			<path class="st38" d="M38.3,362.9c-0.5-6-2.1-11.3-4.1-15.7c-0.4-0.8-0.6-1.9-0.4-2.8c0.3-1.9,0.4-4.7-0.4-8.5
				c-1.5-7-11-22-24.9-22.8c0,0,4.8,7.4,7.3,13.6c3.2,7.9,7.6,16,15,19.2c1.3,0.5,2.3,1.6,2.9,2.8c1.7,4.2,3.3,9,3.7,14.4
				L38.3,362.9L38.3,362.9z"/>
			<g>
				<g>
					<path class="st1" d="M29,393.3h22.9l6-34.9c0.3-1.5-1-3-2.5-3H25.6c-1.7,0-2.9,1.5-2.5,3L29,393.3z"/>
				</g>
			</g>
		</g>
		<line class="st39" x1="-18" y1="393.3" x2="623" y2="393.3"/>
	</g>
</g>
</svg>
