<?xml version="1.0" encoding="utf-8"?>
<!-- Generator: Adobe Illustrator 22.1.0, SVG Export Plug-In . SVG Version: 6.00 Build 0)  -->
<svg version="1.1" id="DESIGNED_BY_FREEPIK" xmlns="http://www.w3.org/2000/svg" xmlns:xlink="http://www.w3.org/1999/xlink"
	 x="0px" y="0px" viewBox="0 0 948.8 796.5" style="enable-background:new 0 0 948.8 796.5;" xml:space="preserve">
<style type="text/css">
	.st0{opacity:0.2;fill:#0B6EE8;}
	.st1{opacity:0.57;fill:url(#XMLID_3_);}
	.st2{fill:#F37021;}
	.st3{fill:url(#XMLID_4_);}
	.st4{fill:#FAA629;}
	.st5{fill:#F5F5F5;}
	.st6{fill:#E6E7E7;}
	.st7{opacity:0.57;fill:url(#XMLID_5_);}
	.st8{fill:url(#XMLID_6_);}
	.st9{fill:url(#XMLID_7_);}
	.st10{fill:url(#XMLID_8_);}
	.st11{fill:#1F1F89;}
	.st12{fill:url(#XMLID_9_);}
	.st13{fill:url(#XMLID_16_);}
	.st14{fill:url(#XMLID_37_);}
	.st15{fill:#5D4137;}
	.st16{fill:#F7F5EF;}
	.st17{fill:url(#XMLID_46_);}
	.st18{fill:url(#XMLID_47_);}
	.st19{fill:url(#XMLID_48_);}
	.st20{fill:url(#XMLID_49_);}
	.st21{fill:url(#XMLID_50_);}
	.st22{fill:url(#XMLID_51_);}
	.st23{fill:url(#XMLID_52_);}
	.st24{fill:url(#XMLID_53_);}
	.st25{fill:#A1A5C5;}
	.st26{fill:#2E2E3C;}
	.st27{fill:#305891;}
	.st28{fill:#EDEEF0;}
	.st29{fill:#DE3B3A;}
	.st30{fill:#9F9BAD;}
	.st31{fill:#7996CD;}
	.st32{fill:#ECAC53;}
	.st33{fill:#C8C8CD;}
	.st34{fill:#2D3969;}
	.st35{fill:#807C88;}
	.st36{fill:#E1E1E1;}
	.st37{opacity:0.37;fill:#807C88;}
	.st38{fill:#12143F;}
	.st39{fill:#FFFFFF;}
	.st40{fill:url(#XMLID_54_);}
	.st41{fill:url(#XMLID_55_);}
	.st42{fill:url(#XMLID_56_);}
	.st43{fill:url(#XMLID_57_);}
	.st44{fill:url(#XMLID_58_);}
	.st45{fill:url(#XMLID_59_);}
	.st46{fill:url(#XMLID_62_);}
	.st47{fill:#B0BEC5;}
	.st48{fill:#71457F;}
	.st49{fill:#5E3369;}
	.st50{fill:#E1F3F7;}
	.st51{fill:url(#XMLID_63_);}
	.st52{fill:url(#XMLID_64_);}
	.st53{fill:#0A5DE2;}
	.st54{fill:#5CC1A4;}
	.st55{fill:#F75873;}
	.st56{fill:#F76D59;}
	.st57{fill:#6D58A4;}
	.st58{fill:#0C67A8;}
	.st59{fill:#1E3F72;}
	.st60{fill:#4391B5;}
	.st61{fill:#1C538C;}
	.st62{fill:#0D2644;}
	.st63{fill:none;stroke:#7DEDE7;stroke-linecap:round;stroke-linejoin:round;stroke-miterlimit:10;}
	.st64{opacity:0.75;fill:#17CABC;}
	.st65{fill:none;stroke:#6CEDE6;stroke-linecap:round;stroke-linejoin:round;stroke-miterlimit:10;}
</style>
<path id="XMLID_41_" class="st0" d="M814.4,232.4c-31.2-18.1-57.4-44.2-75.1-75.6c-43.9-78-141.7-132.3-255.4-132.3
	c-154.7,0-280.1,100.6-280.1,224.6c0,3.8,0.1,7.6,0.4,11.4c3.4,54-14.8,106.6-49.4,148.2c-15.4,18.5-24.2,39.8-24.2,62.5
	c0,71.9,88.3,130.1,197.2,130.1c37.3,0,72.1-6.8,101.8-18.7c44.9-17.9,94.3-20.2,140.3-5.4c29.3,9.4,61.3,14.5,94.9,14.5
	c139.4,0,252.3-89.1,252.3-198.9C917.1,326.9,876.7,268.7,814.4,232.4z"/>
<g id="XMLID_844_">
	
		<radialGradient id="XMLID_3_" cx="581.5676" cy="2568.8735" r="513.6678" gradientTransform="matrix(0.9234 0 0 0.1248 -62.6144 387.8852)" gradientUnits="userSpaceOnUse">
		<stop  offset="0" style="stop-color:#37474F"/>
		<stop  offset="1" style="stop-color:#37474F;stop-opacity:0"/>
	</radialGradient>
	<ellipse id="XMLID_879_" class="st1" cx="474.4" cy="708.5" rx="474.4" ry="64.1"/>
	<g id="XMLID_845_">
		<g id="XMLID_875_">
			<path id="XMLID_878_" class="st2" d="M796,339.8c0-0.1-0.1-0.1-0.1-0.2c0,0.3,0.1,0.6,0.1,0.9c0,23.2-143.3,41.9-320,41.9
				c-176.7,0-320-18.8-320-41.9c0-0.7,0.1-1.5,0.4-2.2c-0.2,0.3-0.3,0.5-0.4,0.8c-0.3,0.8,0,7.3,0,8.1c0,19.7,103.3,36.2,242.7,40.7
				c-5.1,21.7-8,47.9-8,80.9c0,77.3,15.7,169,39.5,224.7c3.9,9.1,12.7,14.9,22.6,14.9h46.5c9.8,0,18.7-5.9,22.6-14.9
				c23.7-55.7,39.5-147.4,39.5-224.7c0-32.9-2.9-59.5-8-81.2C692.7,383,796,366.7,796,347C796,346.4,796.2,340.4,796,339.8z"/>
			<linearGradient id="XMLID_4_" gradientUnits="userSpaceOnUse" x1="475.9743" y1="689.4716" x2="475.9743" y2="273.1904">
				<stop  offset="0" style="stop-color:#F37021"/>
				<stop  offset="1" style="stop-color:#A54A24"/>
			</linearGradient>
			<path id="XMLID_877_" class="st3" d="M796,339.8c0-0.1-0.1-0.1-0.1-0.2c0,0.3,0.1,0.6,0.1,0.9c0,23.2-143.3,41.9-320,41.9
				c-176.7,0-320-18.8-320-41.9c0-0.7,0.1-1.5,0.4-2.2c-0.2,0.3-0.3,0.5-0.4,0.8c-0.3,0.8,0,7.3,0,8.1c0,19.7,103.3,36.2,242.7,40.7
				c-5.1,21.7-8,47.9-8,80.9c0,3.1,0,6.2,0.1,9.3l151.4,151.4c12-49.8,19.1-108.5,19.1-160.7c0-32.9-2.9-59.5-8-81.2
				C692.7,383,796,366.7,796,347C796,346.4,796.2,340.4,796,339.8z"/>
			<path id="XMLID_876_" class="st4" d="M476,382.4c176.7,0,320-18.8,320-41.9c0-0.3,0-0.6-0.1-0.9c-3.5-22.8-145.4-41.1-319.9-41.1
				c-171.2,0-310.9,17.6-319.6,39.7c-0.3,0.7-0.4,1.5-0.4,2.2C156,363.6,299.3,382.4,476,382.4z"/>
		</g>
		<g id="XMLID_846_">
			<g id="XMLID_865_">
				<polygon id="XMLID_867_" class="st5" points="579.6,357.9 521.4,355.6 575.7,323.5 633.9,325.8 				"/>
				<polygon id="XMLID_866_" class="st6" points="614.6,364.1 557.2,354.2 615.3,329.4 672.7,339.4 				"/>
			</g>
			<g id="XMLID_861_">
				<polygon id="XMLID_864_" class="st5" points="312.4,345.8 254.2,343.4 308.5,311.3 366.7,313.6 				"/>
				<polygon id="XMLID_863_" class="st6" points="347.4,351.9 290,342 348.1,317.3 405.5,327.2 				"/>
				<polygon id="XMLID_862_" class="st6" points="398.2,367.3 340.8,357.4 398.9,332.7 456.3,342.6 				"/>
			</g>
			<g id="XMLID_854_">
				
					<radialGradient id="XMLID_5_" cx="626.7913" cy="-160.7568" r="34.1303" gradientTransform="matrix(0.7498 0 0 0.1248 -13.6946 387.8852)" gradientUnits="userSpaceOnUse">
					<stop  offset="0" style="stop-color:#37474F"/>
					<stop  offset="3.717482e-02" style="stop-color:#37474F;stop-opacity:0.9628"/>
					<stop  offset="1" style="stop-color:#37474F;stop-opacity:0"/>
				</radialGradient>
				<path id="XMLID_860_" class="st7" d="M481.9,367.8c0,2.4-11.5,4.3-25.6,4.3c-14.1,0-25.6-1.9-25.6-4.3c0-2.4,11.5-4.3,25.6-4.3
					C470.4,363.6,481.9,365.5,481.9,367.8z"/>
				<g id="XMLID_855_">
					<path id="XMLID_859_" class="st5" d="M472.3,327.9h-31.9c-1.2,0-2,1.5-1.8,3l1.2,7.1c0.2,1.1,0.9,1.9,1.8,1.9h29.6
						c0.8,0,1.6-0.8,1.8-1.9l1.2-7.1C474.3,329.4,473.5,327.9,472.3,327.9z"/>
					<linearGradient id="XMLID_6_" gradientUnits="userSpaceOnUse" x1="456.3221" y1="366.2988" x2="456.3221" y2="363.3825">
						<stop  offset="0.1773" style="stop-color:#F5F5F5"/>
						<stop  offset="1" style="stop-color:#BDBDBD"/>
					</linearGradient>
					<path id="XMLID_858_" class="st8" d="M444.4,363.8l0.1,1.4c0.2,1.6,1.2,2.9,2.4,2.9h18.7c1.2,0,2.3-1.2,2.4-2.9l0.1-1.4H444.4z
						"/>
					<linearGradient id="XMLID_7_" gradientUnits="userSpaceOnUse" x1="444.8897" y1="353.6017" x2="489.5922" y2="353.6017">
						<stop  offset="1.135820e-02" style="stop-color:#937963"/>
						<stop  offset="1" style="stop-color:#4A392E"/>
					</linearGradient>
					<path id="XMLID_857_" class="st9" d="M440.2,343.9l2.4,19.5c0,0.2,0.2,0.4,0.5,0.4h26.6c0.2,0,0.4-0.2,0.5-0.4l2.4-19.5
						c0-0.3-0.2-0.5-0.5-0.5h-31.4C440.3,343.4,440.1,343.6,440.2,343.9z"/>
					<linearGradient id="XMLID_8_" gradientUnits="userSpaceOnUse" x1="456.322" y1="342.4023" x2="456.322" y2="340.7841">
						<stop  offset="0.1773" style="stop-color:#F5F5F5"/>
						<stop  offset="1" style="stop-color:#BDBDBD"/>
					</linearGradient>
					<polygon id="XMLID_856_" class="st10" points="470.7,341 442,341 442.2,343.4 470.4,343.4 					"/>
				</g>
			</g>
		</g>
	</g>
</g>
<path id="XMLID_812_" class="st11" d="M691.6,182.5c11-1.4,20.7,6.4,28.6,13.7c7.7-6.7,15.3-11.6,25-15.4
	c-1.2-4.4,0.4-35.2,0.2-38.2c-1.3-19.1-6.8-45.4-30.4-47.2c-1.7-0.1-7.1,1.1-8.1-0.5c-0.3-0.5,0.5-1.8,0.4-2.4
	c-0.2-1.6-0.7-2.6-2-3.7c-9.1-7.3-22.4-6.4-33.2-5.1c-12.9,1.5-23.9,7.3-33.5,16c-5,4.5-9.6,10.9-2.1,14.1
	c-2.2-0.3-6.1,15.7-6.5,17.5c-2.8,13.4-0.5,30.8,15.4,33.7c4.7,0.9,10.1,2.4,11.6,6.6c0.7,1.9,0.4,3.9,1,5.8c1.2,3.9,5.9,2,7.8,5.1
	c0.5,0.9,0.6,2,1,2.9c1,2,3.7,2.5,6,2.4C679.4,187.5,685.1,183.4,691.6,182.5z"/>
<g id="XMLID_808_">
	<g id="XMLID_809_">
		
			<linearGradient id="XMLID_9_" gradientUnits="userSpaceOnUse" x1="441.7489" y1="376.8254" x2="464.7539" y2="321.869" gradientTransform="matrix(-0.9336 0.3583 0.3583 0.9336 1018.1566 -288.4341)">
			<stop  offset="3.613780e-02" style="stop-color:#B0BEC5"/>
			<stop  offset="1" style="stop-color:#546E7A"/>
		</linearGradient>
		<path id="XMLID_811_" class="st12" d="M744.2,179.5l27.2,36.6l-41.5,28.7l-14.6-27.9c-1-1.9-3.4-2.6-5.2-1.5l-12.2,7.1l8.7-41.3
			l1.7-1.5l12.8,10.2L744.2,179.5z"/>
		
			<linearGradient id="XMLID_16_" gradientUnits="userSpaceOnUse" x1="186.3941" y1="321.2686" x2="248.1943" y2="158.4621" gradientTransform="matrix(0.9336 -0.3583 0.3583 0.9336 397.3896 -50.5395)">
			<stop  offset="3.613780e-02" style="stop-color:#B0BEC5"/>
			<stop  offset="1" style="stop-color:#546E7A"/>
		</linearGradient>
		<path id="XMLID_810_" class="st13" d="M686.2,213.3l-28.7-76.4l10.3-4l8.9,18.3l6.7,3.6l11.7,19.9l4.1-1.5l-1.6-4.8
			c-1.4-4.2,0.6-8.9,4.7-10.4c0.1,0,0.1,0,0.2-0.1c4.1-1.4,8.6,0.9,10.2,5l2,5.3c1.6,4.2-0.6,8.7-4.8,10.5c-2.6,1.1-3.8,4-2.8,6.6
			c0,0,2.7,7.1,2.7,7.1c4.2,10.9-11.1,43.6-21.8,25.3C687.3,216.3,686.7,214.8,686.2,213.3z"/>
	</g>
</g>
<g id="XMLID_804_">
	<g id="XMLID_806_">
		
			<linearGradient id="XMLID_37_" gradientUnits="userSpaceOnUse" x1="-43.4252" y1="589.7619" x2="-85.2406" y2="304.5605" gradientTransform="matrix(-1 0 0 1 617.5022 0)">
			<stop  offset="0" style="stop-color:#263238"/>
			<stop  offset="1" style="stop-color:#010101"/>
		</linearGradient>
		<path id="XMLID_807_" class="st14" d="M685.6,504.2c14.4-1.5,22.7-17.7,30.4-31.2c1.1-1.9,3.7-2.4,5.4-1c0,0,99,15.2,99,16.4
			c-2.7,46-3.5,89.9-33.1,98c-57.4,15.7-186.2-17.6-209.1-9c19.3,23.8,9.9,77.4,7.4,128.9c0,0.3,0,0.7,0,1c-3.9,6.5,2.7,12,2.8,19.1
			c0,0.5-0.2,0.9-0.3,1.3c-1.1,2.9-4.1,5.6-3.3,7.8c0,0.3,0,0.6,0,0.9c0,1.4,5.2,9.7,5.2,11c0,1.7-1.2,3.2-2.8,3.6
			c-8.2,1.9-19.9-3.4-29.1-1.5c-0.1-0.2,0.7,1,1.7-3c0.1-0.4-0.2-0.7-0.2-1.2c-7.3-3.9-6.2-6.9-3.9-11.4c0.2-1.3,0.4-3.2,0.6-4.6
			l0,0c-8.1-4.9-3.8-6.8-2.9-14.5c-0.1-0.5-0.2-1-0.3-1.5c-9.9-48.9-27-134.8-32.3-170.9c-1.3-8.9,4.7-17.2,13.5-18.7
			C594.4,513.2,668.6,506,685.6,504.2z"/>
	</g>
	<path id="XMLID_805_" class="st15" d="M518.1,781.2C538.6,767.1,556,757,558,752c0.2-0.6,0.5-1.1,0.7-1.6c9.5,1.2,19,2.1,28.5,3.2
		c2.5,9.8,7.6,28.4,3.6,32.9c-4.3,4.9-20.5,5.2-31.3,3.5c-11.9-1.9-14.2,4.7-26.1,6.1c-7.8,0.9-45.7,0.8-42.1-6.1
		C493.5,785.7,517.9,781.3,518.1,781.2z"/>
</g>
<path id="XMLID_801_" class="st16" d="M771.4,212.9c36.6,16.4,65.8,70.6,63,110.6c-3.3,46.7-10.4,166.8-10.4,166.9
	c-0.3,4.5,0.3,9.2-0.8,13.7c-2.9,12.4-21.9,15.3-32.3,16.4c-24.4,2.7-59-8.3-81.6-19c-10-4.7-9.3-8.3-10.5-19.3l-6.6-179.1
	c-3.6-28.5,4.2-50.1,27.5-72.7C730.9,219.7,767.5,211.2,771.4,212.9z"/>
<g id="XMLID_791_">
	
		<linearGradient id="XMLID_46_" gradientUnits="userSpaceOnUse" x1="-116.4769" y1="639.3329" x2="-116.4769" y2="706.2875" gradientTransform="matrix(-1 0 0 1 617.5022 0)">
		<stop  offset="0" style="stop-color:#263238"/>
		<stop  offset="1" style="stop-color:#010101"/>
	</linearGradient>
	<polygon id="XMLID_800_" class="st17" points="717.1,619 750.8,619 746.9,693.7 721,693.7 	"/>
	
		<linearGradient id="XMLID_47_" gradientUnits="userSpaceOnUse" x1="283.038" y1="340.607" x2="283.038" y2="352.6891" gradientTransform="matrix(1 0 0 -1 450.9433 1109.1672)">
		<stop  offset="0" style="stop-color:#263238"/>
		<stop  offset="1" style="stop-color:#010101"/>
	</linearGradient>
	<path id="XMLID_799_" class="st18" d="M809.1,772.2H658.9l0,0c11.3-8.7,25.3-13.5,39.6-13.5h71.1
		C783.8,758.8,797.7,763.5,809.1,772.2L809.1,772.2z"/>
	
		<linearGradient id="XMLID_48_" gradientUnits="userSpaceOnUse" x1="-116.4769" y1="712.04" x2="-116.4769" y2="767.9672" gradientTransform="matrix(-1 0 0 1 617.5022 0)">
		<stop  offset="0" style="stop-color:#263238"/>
		<stop  offset="1" style="stop-color:#010101"/>
	</linearGradient>
	<polygon id="XMLID_798_" class="st19" points="743.1,695.1 740.7,757.4 727.2,757.4 724.9,695.1 	"/>
	<g id="XMLID_792_">
		<g id="XMLID_796_">
			
				<linearGradient id="XMLID_49_" gradientUnits="userSpaceOnUse" x1="-274.5807" y1="518.7197" x2="-146.2447" y2="518.7197" gradientTransform="matrix(-1 0 0 1 617.5022 0)">
				<stop  offset="0" style="stop-color:#263238"/>
				<stop  offset="1" style="stop-color:#010101"/>
			</linearGradient>
			<path id="XMLID_797_" class="st20" d="M766.8,619c7.7-1.4,15.8-2.3,23.7-3.2c9.3-1,18.9-2.1,28.3-4c34.6-7,60.8-29.2,69.9-59.4
				c4.8-15.8,4.5-33.6-0.8-50c-3.8-11.7-10.3-20.3-16.6-28.5c-2.4-3.2-5-6.5-7.3-9.9c-5.9-8.7-14.9-25.4-9.3-39.1l-15.9-6.5
				c-8.2,20,1.4,41,10.9,55.2c2.6,3.9,5.3,7.4,7.9,10.8c5.9,7.7,11,14.4,13.9,23.3c4.3,13.1,4.5,27.3,0.7,39.8
				c-7.3,24.1-28.5,41.8-56.9,47.5c-8.8,1.8-17.6,2.8-26.9,3.8c-8.1,0.9-16.5,1.9-24.8,3.4L766.8,619z"/>
		</g>
		
			<linearGradient id="XMLID_50_" gradientUnits="userSpaceOnUse" x1="-118.6055" y1="634.1556" x2="-118.6055" y2="610.5128" gradientTransform="matrix(-1 0 0 1 617.5022 0)">
			<stop  offset="0" style="stop-color:#263238"/>
			<stop  offset="1" style="stop-color:#010101"/>
		</linearGradient>
		<ellipse id="XMLID_795_" class="st21" cx="736.1" cy="612" rx="70.5" ry="27.4"/>
		
			<linearGradient id="XMLID_51_" gradientUnits="userSpaceOnUse" x1="-118.6055" y1="592.161" x2="-118.6055" y2="618.6287" gradientTransform="matrix(-1 0 0 1 617.5022 0)">
			<stop  offset="0" style="stop-color:#263238"/>
			<stop  offset="1" style="stop-color:#010101"/>
		</linearGradient>
		<path id="XMLID_794_" class="st22" d="M643.5,592.7c0,11.6,41.5,20.9,92.6,20.9c51.2,0,92.6-9.4,92.6-20.9
			c0-11.6-41.5-8.1-92.6-8.1C684.9,584.6,643.5,581.1,643.5,592.7z"/>
		
			<linearGradient id="XMLID_52_" gradientUnits="userSpaceOnUse" x1="-231.7229" y1="379.8688" x2="-231.7229" y2="465.4171" gradientTransform="matrix(-1 0 -0.3447 1 751.0061 0)">
			<stop  offset="0" style="stop-color:#263238"/>
			<stop  offset="1" style="stop-color:#010101"/>
		</linearGradient>
		<path id="XMLID_793_" class="st23" d="M773.3,401.6c-9.1,26.3,15.3,47.7,54.5,47.7s78.3-21.3,87.4-47.7
			c9.1-26.3-15.3-47.7-54.5-47.7C821.5,353.9,782.4,375.3,773.3,401.6z"/>
	</g>
</g>
<g id="XMLID_787_">
	<g id="XMLID_789_">
		<linearGradient id="XMLID_53_" gradientUnits="userSpaceOnUse" x1="568.3885" y1="391.7357" x2="608.0019" y2="571.4456">
			<stop  offset="0" style="stop-color:#263238"/>
			<stop  offset="1" style="stop-color:#010101"/>
		</linearGradient>
		<path id="XMLID_790_" class="st24" d="M701.4,495.3c-4.4,4.8-9.5,8.2-15.8,8.9c-7.3,0.8-25.2,2.5-47.9,5.1
			c-17.2-15.5-31-26.9-38-28.7c1.8,10.4,0,21.7-4.1,33.8c-8.9,26.3-28.5,56.1-45.1,86.9c-0.2,0.3-0.3,0.6-0.5,0.9
			c-6,3.6-2.9,12.4-5.9,18.9c-0.2,0.4-0.5,0.7-0.8,1c-2.1,2-5.8,2.7-6.1,5.1c-0.1,0.3-0.3,0.6-0.4,0.8c-0.2,0.4-0.2,1.6-0.2,3.1
			c0,3.6,0.3,9-0.1,9.9c-0.7,1.5-2.3,2.2-3.9,1.6c-7.5-3.1-16.3-10.7-24.6-14.5c0.3,0,2.5-4.1,3.8-5.7c0.2-0.3,0.2-0.7,0.3-1.2
			c-4.3-7.8-2.2-9.9,1.7-12.5c0.7-1.1,1.7-2.7,2.5-3.8c-4.6-9.2-0.2-8.3,3.8-14.8c0.1-0.5,0.2-1,0.4-1.5c1.5-5.8,3.1-12.1,4.8-18.8
			c3.7-14.3,7.8-30.3,12.1-46.6c10.9-41.7,22.6-85.3,29.7-108c2.8-8.8,11.3-12.8,19.2-9c36.3,17.3,82.5,46.2,112.3,64.6l0.4,11.4
			C699.6,488.5,699.6,492.3,701.4,495.3z"/>
	</g>
	<path id="XMLID_788_" class="st15" d="M457,640.8c24.5-3.9,44.6-5.6,48.5-9.2c0.4-0.4,0.9-0.8,1.3-1.1c8.1,5.1,16.3,10,24.4,15.1
		c-2,9.9-5.4,28.9-10.9,31.3c-6,2.5-20.8-4.1-29.8-10.3c-9.9-6.9-14.9-1.9-26.2-5.7c-7.4-2.5-41.6-18.8-35.4-23.6
		C432.8,634.3,456.7,640.8,457,640.8z"/>
</g>
<g id="XMLID_727_">
	<path id="XMLID_786_" class="st25" d="M519.8,337.7h113l-30.1-105c-0.9-3-3.7-5.1-7-5.1H489.8c-4.8,0-8.3,4.4-7,8.9l26.9,93.9
		C511,334.6,515.1,337.7,519.8,337.7z"/>
	<path id="XMLID_785_" class="st26" d="M526.1,335.3h113l-30.1-105c-0.9-3-3.7-5.1-7-5.1H496.1c-4.8,0-8.3,4.4-7,8.9l26.9,93.9
		C517.3,332.3,521.4,335.3,526.1,335.3z"/>
	<path id="XMLID_784_" class="st27" d="M495.2,238.2l26.6,92.5h112l-1.5-5.4l-26.1-90.6c-0.8-2.8-3.5-4.8-6.5-4.8h-98.1
		C497.2,229.9,494,234,495.2,238.2z"/>
	<g id="XMLID_38_">
		<g id="XMLID_778_">
			<polygon id="XMLID_783_" class="st28" points="561.2,240.3 595.7,240.3 594.9,238 560.4,238 			"/>
			<polygon id="XMLID_782_" class="st29" points="529.9,240.3 546.2,240.3 545.5,238 529.2,238 			"/>
			<polygon id="XMLID_781_" class="st30" points="506.3,240.3 522.7,240.3 521.9,238 505.6,238 			"/>
			<polygon id="XMLID_780_" class="st31" points="524.6,240.3 528.5,240.3 527.7,238 523.8,238 			"/>
			<polygon id="XMLID_779_" class="st30" points="548.1,240.3 559.6,240.3 558.8,238 547.4,238 			"/>
		</g>
		<g id="XMLID_772_">
			<polygon id="XMLID_777_" class="st31" points="580.9,300.3 615.3,300.3 614.6,297.9 580.1,297.9 			"/>
			<polygon id="XMLID_776_" class="st30" points="549.6,300.3 565.9,300.3 565.1,297.9 548.8,297.9 			"/>
			<polygon id="XMLID_775_" class="st32" points="526,300.3 542.3,300.3 541.6,297.9 525.2,297.9 			"/>
			<polygon id="XMLID_774_" class="st31" points="544.3,300.3 548.1,300.3 547.4,297.9 543.5,297.9 			"/>
			<polygon id="XMLID_773_" class="st30" points="567.8,300.3 579.2,300.3 578.5,297.9 567,297.9 			"/>
		</g>
		<g id="XMLID_768_">
			<polygon id="XMLID_771_" class="st33" points="585.2,280.3 568.9,280.3 568.1,278 584.4,278 			"/>
			<polygon id="XMLID_770_" class="st32" points="608.8,280.3 592.5,280.3 591.7,278 608,278 			"/>
			<polygon id="XMLID_769_" class="st31" points="590.5,280.3 586.7,280.3 585.9,278 589.8,278 			"/>
		</g>
		<g id="XMLID_762_">
			<polygon id="XMLID_767_" class="st29" points="586,250.3 599,250.3 598.2,248 585.3,248 			"/>
			<polygon id="XMLID_766_" class="st31" points="554.7,250.3 560.3,250.3 559.5,248 554,248 			"/>
			<polygon id="XMLID_765_" class="st29" points="509.6,250.3 536.7,250.3 536,248 508.9,248 			"/>
			<polygon id="XMLID_764_" class="st31" points="538.7,250.3 553.3,250.3 552.5,248 537.9,248 			"/>
			<polygon id="XMLID_763_" class="st31" points="562.2,250.3 584.4,250.3 583.6,248 561.4,248 			"/>
		</g>
		<g id="XMLID_756_">
			<polygon id="XMLID_761_" class="st34" points="605.7,310.3 618.6,310.3 617.9,307.9 604.9,307.9 			"/>
			<polygon id="XMLID_760_" class="st34" points="574.4,310.3 580,310.3 579.2,307.9 573.6,307.9 			"/>
			<polygon id="XMLID_759_" class="st31" points="529.3,310.3 556.4,310.3 555.6,307.9 528.5,307.9 			"/>
			<polygon id="XMLID_758_" class="st31" points="558.3,310.3 573,310.3 572.2,307.9 557.5,307.9 			"/>
			<polygon id="XMLID_757_" class="st31" points="581.8,310.3 604.1,310.3 603.3,307.9 581.1,307.9 			"/>
		</g>
		<g id="XMLID_750_">
			<polygon id="XMLID_755_" class="st28" points="599.1,290.3 612.1,290.3 611.3,287.9 598.4,287.9 			"/>
			<polygon id="XMLID_754_" class="st31" points="567.9,290.3 573.4,290.3 572.6,287.9 567.1,287.9 			"/>
			<polygon id="XMLID_753_" class="st30" points="522.7,290.3 549.8,290.3 549.1,287.9 522,287.9 			"/>
			<polygon id="XMLID_752_" class="st31" points="551.8,290.3 566.4,290.3 565.6,287.9 551,287.9 			"/>
			<polygon id="XMLID_751_" class="st29" points="575.3,290.3 597.5,290.3 596.8,287.9 574.5,287.9 			"/>
		</g>
		<g id="XMLID_746_">
			<polygon id="XMLID_749_" class="st33" points="589.3,260.3 602.2,260.3 601.5,258 588.5,258 			"/>
			<polygon id="XMLID_748_" class="st33" points="568.2,260.3 581.1,260.3 580.4,258 567.4,258 			"/>
			<polygon id="XMLID_747_" class="st31" points="516.5,260.3 538.7,260.3 537.9,258 515.7,258 			"/>
		</g>
		<g id="XMLID_744_">
			<polygon id="XMLID_745_" class="st31" points="605.5,270.3 583.3,270.3 582.5,268 604.7,268 			"/>
		</g>
		<g id="XMLID_742_">
			<polygon id="XMLID_743_" class="st31" points="571.3,270.3 549,270.3 548.3,268 570.5,268 			"/>
		</g>
		<g id="XMLID_39_">
			<polygon id="XMLID_40_" class="st28" points="541.4,270.3 519.2,270.3 518.4,268 540.6,268 			"/>
		</g>
	</g>
	<g id="XMLID_35_">
		<path id="XMLID_36_" class="st35" d="M577.6,335.5h137.6c3.2,0,5.8-2.5,5.8-5.6l0,0c0-3.1-2.6-5.6-5.8-5.6H577.6
			c-3.2,0-5.8,2.5-5.8,5.6l0,0C571.7,332.9,574.4,335.5,577.6,335.5z"/>
	</g>
	<g id="XMLID_728_">
		<g id="XMLID_33_">
			<path id="XMLID_34_" class="st36" d="M525.4,335.1h79.6c3.2,0,5.8-2.5,5.8-5.6l0,0c0-3.1-2.6-5.6-5.8-5.6h-79.6
				c-3.2,0-5.8,2.5-5.8,5.6l0,0C519.6,332.6,522.2,335.1,525.4,335.1z"/>
		</g>
		<g id="XMLID_729_">
			
				<rect id="XMLID_733_" x="569.2" y="327.7" transform="matrix(-1 -4.281077e-11 4.281077e-11 -1 1148.5457 660.8718)" class="st37" width="10.2" height="5.5"/>
			
				<rect id="XMLID_732_" x="553.8" y="327.7" transform="matrix(-1 -4.352797e-11 4.352797e-11 -1 1117.7198 660.8718)" class="st37" width="10.2" height="5.5"/>
			
				<rect id="XMLID_731_" x="550.7" y="327.6" transform="matrix(-1 -4.406976e-11 4.406976e-11 -1 1111.833 658.405)" class="st38" width="10.5" height="3.3"/>
			
				<rect id="XMLID_730_" x="568.8" y="327.6" transform="matrix(-1 -4.191504e-11 4.191504e-11 -1 1145.9012 658.405)" class="st39" width="8.2" height="3.3"/>
		</g>
	</g>
</g>
<g id="XMLID_24_">
	<g id="XMLID_26_">
		
			<linearGradient id="XMLID_54_" gradientUnits="userSpaceOnUse" x1="-177.5841" y1="402.2126" x2="-206.435" y2="500.5196" gradientTransform="matrix(-0.8249 0.5652 0.5652 0.8249 311.7384 87.4963)">
			<stop  offset="3.613780e-02" style="stop-color:#B0BEC5"/>
			<stop  offset="1" style="stop-color:#546E7A"/>
		</linearGradient>
		<path id="XMLID_32_" class="st40" d="M742.4,321.6l-91.9-2.6c-1,0-1.9,0.7-2.1,1.7l-2,9.1c-0.2,1.1,0.4,2.2,1.4,2.5l72.4,22.7
			c14.2,4.4,28-7.5,25.8-22.2l-1.5-9.5C744.3,322.4,743.5,321.6,742.4,321.6z"/>
		
			<linearGradient id="XMLID_55_" gradientUnits="userSpaceOnUse" x1="-153.2594" y1="414.5247" x2="-187.8324" y2="532.329" gradientTransform="matrix(-0.8249 0.5652 0.5652 0.8249 311.7384 87.4963)">
			<stop  offset="3.613780e-02" style="stop-color:#B0BEC5"/>
			<stop  offset="1" style="stop-color:#546E7A"/>
		</linearGradient>
		<path id="XMLID_31_" class="st41" d="M638.4,302.2c-1.9-2.7-4.4-5.5-7.7-5.6c-2.2,0-4.2,1.2-5.6,2.9c-1.4,1.6-2.3,3.7-3.2,5.7
			c-1.6,3.6,15.3,28.2,24.1,26.6c2.7-0.5,2.2-3.2,3.1-5.8C652,318,643.5,309.1,638.4,302.2z"/>
		
			<linearGradient id="XMLID_56_" gradientUnits="userSpaceOnUse" x1="-153.2975" y1="414.5135" x2="-187.8706" y2="532.3179" gradientTransform="matrix(-0.8249 0.5652 0.5652 0.8249 311.7384 87.4963)">
			<stop  offset="3.613780e-02" style="stop-color:#B0BEC5"/>
			<stop  offset="1" style="stop-color:#546E7A"/>
		</linearGradient>
		<path id="XMLID_30_" class="st42" d="M632.7,299.7c0.9-1.1,0.5-2.8-0.8-3.4c-4.9-1.9-15.3,0.1-18.3,2.6c-2,1.7-2.1,7.1-0.1,9.1
			c2.4-0.9,0.9-3.6,2-5.3c0.9-1.5,2.6-1.1,4.4-1.1C624.2,301.5,629.5,303.9,632.7,299.7z"/>
		
			<linearGradient id="XMLID_57_" gradientUnits="userSpaceOnUse" x1="-149.5684" y1="415.6068" x2="-184.1408" y2="533.4091" gradientTransform="matrix(-0.8249 0.5652 0.5652 0.8249 311.7384 87.4963)">
			<stop  offset="3.613780e-02" style="stop-color:#B0BEC5"/>
			<stop  offset="1" style="stop-color:#546E7A"/>
		</linearGradient>
		<path id="XMLID_29_" class="st43" d="M634.1,305.9c0.9-1.1,0.5-2.8-0.8-3.4c-4.9-1.9-15.3,0.1-18.3,2.6c-2,1.7-2.1,7.1-0.1,9.1
			c2.4-0.9,0.9-3.6,2-5.3c0.9-1.5,2.6-1.1,4.4-1.1C625.6,307.6,630.9,310,634.1,305.9z"/>
		
			<linearGradient id="XMLID_58_" gradientUnits="userSpaceOnUse" x1="-146.554" y1="416.4926" x2="-181.127" y2="534.2971" gradientTransform="matrix(-0.8249 0.5652 0.5652 0.8249 311.7384 87.4963)">
			<stop  offset="3.613780e-02" style="stop-color:#B0BEC5"/>
			<stop  offset="1" style="stop-color:#546E7A"/>
		</linearGradient>
		<path id="XMLID_28_" class="st44" d="M635.1,310.7c0.9-1.1,0.5-2.8-0.8-3.4c-4.9-1.9-15.3,0.1-18.3,2.6c-2,1.7-2.1,7.1-0.1,9.1
			c2.4-0.9,0.9-3.6,2-5.3c0.9-1.5,2.6-1.1,4.4-1.1C626.6,312.5,631.8,314.9,635.1,310.7z"/>
		
			<linearGradient id="XMLID_59_" gradientUnits="userSpaceOnUse" x1="-144.5816" y1="416.509" x2="-178.8419" y2="533.2479" gradientTransform="matrix(-0.8249 0.5652 0.5652 0.8249 311.7384 87.4963)">
			<stop  offset="3.613780e-02" style="stop-color:#B0BEC5"/>
			<stop  offset="1" style="stop-color:#546E7A"/>
		</linearGradient>
		<path id="XMLID_27_" class="st45" d="M632.2,315.3c1.6-1,0.9-3.5-0.9-3.8c-3.9-0.7-10.2,0.6-12.2,2.3c-1.5,1.3-1.5,5.3-0.1,6.7
			c1.8-0.7,0.7-2.7,1.5-3.9c0.7-1.1,1.9-0.8,3.3-0.8C626.6,315.6,629.9,316.9,632.2,315.3z"/>
	</g>
	
		<linearGradient id="XMLID_62_" gradientUnits="userSpaceOnUse" x1="129.2405" y1="206.2231" x2="142.0214" y2="226.5102" gradientTransform="matrix(-0.8719 -0.4896 -0.4896 0.8719 849.8377 189.5866)">
		<stop  offset="3.613780e-02" style="stop-color:#B0BEC5"/>
		<stop  offset="1" style="stop-color:#546E7A"/>
	</linearGradient>
	<path id="XMLID_25_" class="st46" d="M641,306.1c-7.1-7-6.7,0.9-20.6-7.1c-2.2-1.3-4.4,1.6-2.6,3.3c2.2,2.2,5.4,4.3,6.5,5.5
		c2.2,2.5,1.8,6.9,4.4,9.4c2.4,2.4,5.4,2.7,8.5,2.5c1.4-0.1,3.2-0.4,4.4,0.3"/>
</g>
<path id="XMLID_23_" class="st47" d="M527.5,368.4c-12.7-0.9-25.4-1.3-38.1,0.7c-0.1,0.7-0.2,1.4-0.1,2.2c0.4,4.6,4.7,7.8,8.6,10.3
	c10.2,6.4,25.5,14.7,34.4,12.7c3.7-0.9,7.3-1.2,7.8-5C541.2,379.5,534,371.9,527.5,368.4z"/>
<path id="XMLID_22_" class="st48" d="M486.8,367.1L486.8,367.1l-6.3-82.6l0,0c-0.7,0-1.3,0.8-1.2,1.9l6,78.8
	C485.4,366.2,486,367.1,486.8,367.1z"/>
<polygon id="XMLID_21_" class="st49" points="486.8,367.1 523.5,367.1 517.2,284.6 480.5,284.5 "/>
<polygon id="XMLID_20_" class="st50" points="487.8,358 521.1,358 515.7,287.5 482.4,287.4 "/>
<linearGradient id="XMLID_63_" gradientUnits="userSpaceOnUse" x1="268.8853" y1="797.4419" x2="284.2273" y2="821.7943" gradientTransform="matrix(-0.1855 -0.9826 0.9826 -0.1855 -237.3703 778.867)">
	<stop  offset="3.613780e-02" style="stop-color:#B0BEC5"/>
	<stop  offset="1" style="stop-color:#546E7A"/>
</linearGradient>
<path id="XMLID_19_" class="st51" d="M495.6,373.4c-5.6-11.4,5.2-6.5-1.5-31c5.5-2.9,7.9,9.9,9.7,13c2,3.4,7,4.6,8.9,8.4
	c1.8,3.5,0.9,7-0.4,10.4c-0.6,1.5-1.6,3.4-1.3,5.1"/>
<linearGradient id="XMLID_64_" gradientUnits="userSpaceOnUse" x1="635.7573" y1="348.5256" x2="655.8589" y2="310.207">
	<stop  offset="3.613780e-02" style="stop-color:#B0BEC5"/>
	<stop  offset="1" style="stop-color:#546E7A"/>
</linearGradient>
<path id="XMLID_18_" class="st52" d="M682.2,334.4l-35.4,58.9l-111.4-13.5L514,390.3c0,0,101.8,35.7,153.7,51.5l57.8-74.2
	L682.2,334.4z"/>
<path id="XMLID_15_" class="st16" d="M722.7,274.4c10.7,1.1,21.6,6,29.8,11.4c8.9,5.9,15.7,16.1,14.3,26.7
	c-0.6,4.9-2.9,9.4-5.3,13.7c-9,16.3-20,31.5-32.5,45.3c-14.7-7.2-28.6-16.2-41.6-26.3c-3.2-2.4-6.4-5.1-7.8-8.9
	c-1.3-3.8,0.1-8.8,4-9.9c-2,0.6,3.2-25.2,3.8-27c3.1-8.6,7-16.4,15.1-21.2C708.6,274.6,715.6,273.7,722.7,274.4z"/>
<path id="XMLID_577_" class="st53" d="M335.7,101.3L335.7,101.3c-19.2,0-34.9,15.6-34.9,34.9v0c0,19.2,15.6,34.9,34.9,34.9h0
	c19.2,0,34.9-15.6,34.9-34.9v0C370.5,116.9,354.9,101.3,335.7,101.3z"/>
<g id="XMLID_13_">
	<circle id="XMLID_576_" class="st16" cx="335.7" cy="136.1" r="9.8"/>
	<path id="XMLID_573_" class="st16" d="M355.7,119.5c0-1.9-1.5-3.4-3.4-3.4c-0.8,0-1.6,0.3-2.2,0.8c-4.9-3.7-11.3-5.6-18.2-4.6
		c-10.5,1.6-18.8,10.1-20.2,20.6c-2,15.7,11.3,29,27,27c10.5-1.3,19.1-9.7,20.6-20.1c1-6.8-0.8-13.2-4.6-18.2
		C355.4,121.1,355.7,120.3,355.7,119.5L355.7,119.5z M335.7,159.4c-13.1,0-23.8-11-23.2-24.2c0.5-12.2,10.7-22.1,22.9-22.3
		c5.3-0.1,10.3,1.7,14.3,4.6c-0.4,0.6-0.6,1.2-0.6,1.9c0,1.9,1.5,3.4,3.4,3.4c0.7,0,1.4-0.2,1.9-0.6c2.9,3.9,4.6,8.7,4.6,13.9
		C358.9,149,348.5,159.4,335.7,159.4L335.7,159.4z"/>
</g>
<g id="XMLID_562_">
	<path id="XMLID_12_" class="st54" d="M423.2,190.7L423.2,190.7c-21.8-3.8-42.7,10.8-46.5,32.6l0,0c-3.8,21.8,10.8,42.7,32.6,46.5
		l0,0c21.8,3.8,42.7-10.8,46.5-32.6l0,0C459.6,215.3,445,194.5,423.2,190.7z"/>
	<path id="XMLID_563_" class="st16" d="M401,241.7c-0.3,1.3,0.4,2.4,1.7,2.6l2.2,0.4l-1.6,7.6c-0.4,1.7,0.9,3.6,2.6,3.9
		c1.7,0.4,3.6-0.9,3.9-2.6l1.6-7.6l4.4,0.9l-1.6,7.6c-0.4,1.7,0.9,3.6,2.6,3.9c1.7,0.4,3.6-0.9,3.9-2.6l1.6-7.6l2.2,0.4
		c1.3,0.3,2.4-0.4,2.6-1.7l4.4-21.8l-26.2-5.3L401,241.7z M399.9,218.8c-1.7-0.4-3.6,0.9-3.9,2.6l-3.1,15.3
		c-0.4,1.7,0.9,3.6,2.6,3.9c1.7,0.4,3.6-0.9,3.9-2.6l3.1-15.3C402.9,221,401.7,219.2,399.9,218.8L399.9,218.8z M437,226.4
		c-1.7-0.4-3.6,0.9-3.9,2.6l-3.1,15.3c-0.4,1.7,0.9,3.6,2.6,3.9c1.7,0.4,3.6-0.9,3.9-2.6l3.1-15.3
		C439.9,228.6,438.7,226.7,437,226.4L437,226.4z M428.7,211.5l3.4-2.3c0.5-0.3,0.7-1,0.3-1.5c-0.3-0.5-1-0.7-1.5-0.3l-3.9,2.6
		c-1.3-1.4-3.2-2.2-5.4-2.7c-2.2-0.4-4.2-0.4-6.2,0.1l-2.4-3.9c-0.4-0.3-1.3-0.5-1.7-0.4c-0.3,0.4-0.5,1.3-0.4,1.7l2.3,3.4
		c-3.5,1.8-6.5,5-7.4,9.4l26.2,5.3C432.9,218.7,431.5,214.4,428.7,211.5L428.7,211.5z M415.4,215.2l-2.2-0.4l0.4-2.2l2.2,0.4
		L415.4,215.2z M426.3,217.4l-2.2-0.4l0.4-2.2l2.2,0.4L426.3,217.4z M426.3,217.4"/>
</g>
<path id="XMLID_561_" class="st55" d="M593.2,0L593.2,0c-22,0-39.8,17.8-39.8,39.8v0c0,22,17.8,39.8,39.8,39.8h0
	c22,0,39.8-17.8,39.8-39.8v0C633,17.8,615.2,0,593.2,0z"/>
<g id="XMLID_554_">
	<g>
		<path id="XMLID_61_" class="st16" d="M617,39.8c0,3.7,0,7.3,0,11c0,1.9-0.8,3.3-2.4,4.2c-6.4,3.6-12.7,7.3-19.1,11
			c-1.6,0.9-3.1,0.9-4.7,0c-2.1-1.2-4.1-2.4-6.2-3.7c-0.2-0.1-0.6-0.3-0.6-0.6c0-0.3,0.4-0.3,0.7-0.4c0.8-0.3,1.6-0.6,2.3-1
			c0.5-0.3,0.9-0.2,1.3,0c1.4,0.9,2.8,1.7,4.2,2.5c0.5,0.3,0.9,0.3,1.4,0c6.3-3.6,12.6-7.2,18.9-10.8c0.6-0.3,0.8-0.7,0.8-1.3
			c0-7.2,0-14.5,0-21.7c0-0.6-0.2-1-0.8-1.3c-6.3-3.6-12.6-7.3-18.9-10.9c-0.5-0.3-0.8-0.3-1.3,0c-6.3,3.7-12.6,7.3-19,11
			c-0.5,0.3-0.7,0.6-0.7,1.2c0,7.3,0,14.6,0,21.8c0,0.5,0.2,0.9,0.7,1.1c1.6,0.9,3.1,1.9,4.7,2.8c0.9,0.5,1.8,0.9,2.8,0.7
			c1.4-0.2,2.2-1.2,2.2-2.7c0-3.8,0-7.6,0-11.4c0-3.4,0-6.9,0-10.3c0-1,0.1-1.1,1.2-1.1c0.5,0,1.1,0,1.6,0c0.7,0,0.9,0.3,0.9,0.9
			c0,2.4,0,4.9,0,7.3c0,4.8,0,9.6,0,14.5c0,0.8,0,1.6-0.2,2.4c-0.7,2.9-3.2,4.4-6.5,4.1c-1.5-0.2-2.8-0.7-4-1.4
			c-1.5-0.8-3-1.7-4.5-2.6c-1.6-0.9-2.4-2.3-2.4-4.1c0-7.4,0-14.7,0-22.1c0-1.8,0.8-3.2,2.4-4.1c6.4-3.7,12.8-7.4,19.1-11
			c1.5-0.9,3.1-0.9,4.7,0c6.4,3.7,12.8,7.4,19.3,11.1c1.5,0.9,2.3,2.2,2.3,4C617,32.4,617,36.1,617,39.8z"/>
		<path id="XMLID_60_" class="st16" d="M599.3,51c-2,0-3.8-0.2-5.6-0.8c-2.8-0.9-4.5-2.8-4.8-5.8c-0.1-1,0.1-1.3,1.1-1.3
			c0.1,0,0.3,0,0.4,0c1.9,0,1.9,0,2.5,1.7c0.5,1.3,1.5,2.1,2.8,2.3c2.3,0.5,4.7,0.5,7,0c1.2-0.3,2.2-0.8,2.5-2.2
			c0.2-1.2-0.1-1.9-1.3-2.4c-1.5-0.6-3-0.8-4.5-0.9c-1.7-0.2-3.5-0.3-5.2-0.8c-0.4-0.1-0.8-0.2-1.2-0.4c-2-0.8-3.3-2.2-3.4-4.4
			c-0.1-2.2,0.6-4,2.5-5.3c2.4-1.6,5.1-1.7,7.8-1.6c1.7,0.1,3.4,0.4,4.9,1.1c2.3,1.2,3.3,3.1,3.6,5.5c0.1,0.5-0.2,0.8-0.7,0.8
			c-0.8,0-1.6,0-2.3,0c-0.4,0-0.6-0.3-0.7-0.7c-0.7-2.2-1.8-3.1-4.1-3.3c-1.6-0.1-3.2-0.2-4.8,0.2c-1.4,0.3-2.1,1.1-2.2,2.2
			c-0.1,1,0.2,1.5,1.2,1.8c1.5,0.5,3,0.7,4.5,0.9c2.1,0.3,4.1,0.5,6.1,1.2c2.1,0.7,3.6,1.9,3.8,4.2c0.3,2.6-0.5,4.7-2.8,6
			C604.1,50.7,601.6,50.9,599.3,51z"/>
	</g>
</g>
<g id="XMLID_548_">
	<path id="XMLID_553_" class="st56" d="M483,56.2L483,56.2c-22.1,0-40,17.9-40,40v0c0,22.1,17.9,40,40,40h0c22.1,0,40-17.9,40-40v0
		C523,74.1,505.1,56.2,483,56.2z"/>
	<g id="XMLID_549_">
		<path id="XMLID_552_" class="st16" d="M483.3,73.6l-23.4,24.6v22l23.4-23.4l23.3-23.2H483.3z"/>
		<path id="XMLID_551_" class="st16" d="M459.9,120.2l23.4-23.4l23.3,23.4H459.9z"/>
		<path id="XMLID_550_" class="st16" d="M459.9,73.6h23.4l-23.4,24.6V73.6z"/>
	</g>
</g>
<g id="XMLID_534_">
	<path id="XMLID_547_" class="st57" d="M577.6,138.5L577.6,138.5c-14.6,0-26.5,11.9-26.5,26.5v0c0,14.6,11.9,26.5,26.5,26.5h0
		c14.6,0,26.5-11.9,26.5-26.5v0C604.2,150.4,592.3,138.5,577.6,138.5z"/>
	<g id="XMLID_535_">
		<path id="XMLID_544_" class="st16" d="M577.6,147.4l17.7,5l-2.8,23.3l-14.9,7.1l-14.9-7.1l-2.8-23.3L577.6,147.4z"/>
		<path id="XMLID_541_" class="st16" d="M577.6,149.1l-15.6,4.6l2.7,20.9l12.9,6V149.1z"/>
		<path id="XMLID_538_" class="st16" d="M577.6,149.1l15.6,4.6l-2.7,20.9l-12.9,6V149.1z"/>
		<path id="XMLID_537_" class="st57" d="M577.6,149.8l11.7,24h-3.9l-2.5-5.7h-5.3V165h3.9l-3.9-8.5V149.8z"/>
		<path id="XMLID_536_" class="st57" d="M577.6,149.8l-11.7,24h3.9l2.5-5.7h5.3V165h-3.9l3.9-8.5V149.8z"/>
	</g>
</g>
<path id="XMLID_2_" class="st54" d="M496.5,327c0.1,0.7,0.6,1.1,1.3,1.1l1.2-0.1l0.3,4.1c0.1,0.9,0.9,1.7,1.9,1.6
	c0.9-0.1,1.7-0.9,1.6-1.9l-0.3-4.1l2.3-0.2l0.3,4.1c0.1,0.9,0.9,1.7,1.9,1.6c0.9-0.1,1.7-0.9,1.6-1.9l-0.3-4.1l1.2-0.1
	c0.7-0.1,1.1-0.6,1.1-1.3l-0.8-11.7l-14.1,1L496.5,327z M492.7,315.5c-0.9,0.1-1.7,1-1.6,1.9l0.6,8.2c0.1,0.9,0.9,1.7,1.9,1.6
	c0.9-0.1,1.7-0.9,1.6-1.9l-0.6-8.2C494.5,316.2,493.6,315.4,492.7,315.5L492.7,315.5z M512.7,314.1c-0.9,0.1-1.7,1-1.6,1.9l0.6,8.2
	c0.1,0.9,0.9,1.7,1.9,1.6c0.9-0.1,1.7-0.9,1.6-1.9l-0.6-8.2C514.5,314.8,513.6,314,512.7,314.1L512.7,314.1z M506.3,307.7l1.4-1.6
	c0.2-0.3,0.2-0.6-0.1-0.8c-0.3-0.2-0.6-0.2-0.8,0.1l-1.6,1.9c-0.9-0.5-1.9-0.7-3.1-0.6c-1.2,0.1-2.2,0.4-3.1,0.9l-1.8-1.6
	c-0.2-0.1-0.7-0.1-0.9,0.1c-0.1,0.2-0.1,0.7,0.1,0.9l1.6,1.4c-1.6,1.4-2.6,3.5-2.4,5.8l14.1-1C509.5,310.8,508.1,308.7,506.3,307.7
	L506.3,307.7z M500.1,311.4l-1.2,0.1l-0.1-1.2l1.2-0.1L500.1,311.4z M505.9,311l-1.2,0.1l-0.1-1.2l1.2-0.1L505.9,311z M505.9,311"/>
<g id="XMLID_231_">
	<path id="XMLID_482_" class="st58" d="M236.7,690.6l13,88.9c0,0,10.3,13.9,49.2,13.9s49.2-13.9,49.2-13.9l13-88.9H236.7z"/>
	<path id="XMLID_480_" class="st59" d="M299,739c22.9,0,43.3-2.9,56.2-7.4l5.8-39.7H236.9l5.8,39.7C255.7,736.1,276,739,299,739z"/>
	<path id="XMLID_479_" class="st58" d="M369.9,711.1c0,10.4-31.7,18.8-70.9,18.8c-39.2,0-70.9-8.4-70.9-18.8l-3.4-28.3h148.6
		L369.9,711.1z"/>
	<ellipse id="XMLID_478_" class="st60" cx="299" cy="682.8" rx="74.3" ry="19.7"/>
	<ellipse id="XMLID_477_" class="st61" cx="299" cy="682.4" rx="66.5" ry="14.9"/>
	<path id="XMLID_476_" class="st62" d="M235.5,686.9c8.5-6,33.6-10.4,63.4-10.4c29.8,0,54.9,4.4,63.4,10.4c2-1.4,3-2.9,3-4.5
		c0-8.2-29.8-14.9-66.5-14.9c-36.7,0-66.5,6.7-66.5,14.9C232.5,684,233.6,685.5,235.5,686.9z"/>
	<g id="XMLID_455_">
		<path id="XMLID_474_" class="st53" d="M351.3,564.4c4.8-17.3-1-30.9-7.4-46.3c-6.3-15.4-7.4-31.7-5-47.9
			c3.2-22,10.5-43.2,2.1-64.5c-7.9-20.1-15.5-46.6-37.3-55.1c-21.2-9-37.2,11.8-36.8,31s11.3,36.6,5.8,55.5
			c-4.1,15.5-9.6,33.9-1.5,48.8c9.7,18.4,27.8,31.4,21,53.8c-2.7,8-7,14.8-7.9,22.9c-1.1,12.2,5.1,15.2,10.6,24.9
			c23.3,40.9-19.4,57.4-2.6,102.4c0.5,1.3,1.7,2.1,3,2l0,0c1.5-0.1,2.7-1.2,2.9-2.7c5.3-50.3,41.2-32.9,41.5-73.7
			c0.1-7.6-2.3-15.2-1.4-22.8C339.5,581.3,348.5,575.3,351.3,564.4z"/>
		<path id="XMLID_473_" class="st63" d="M303.7,579.6c0,0,2,23,18.8,25.9"/>
		<path id="XMLID_472_" class="st63" d="M287.7,468.2c0,0,1.2,25.7,22.8,32.7"/>
		<path id="XMLID_469_" class="st63" d="M335.6,433.3c0,0-1,26.8-22,30.8"/>
		<path id="XMLID_468_" class="st63" d="M335,516.8c0,0,5,29.3-12,36.7"/>
		<path id="XMLID_467_" class="st63" d="M330.5,615.2c0,0,0,26.6-26.8,29.3"/>
		<path id="XMLID_464_" class="st63" d="M297.1,396.1c0,0,2,26.9,18,31.4"/>
		<path id="XMLID_462_" class="st63" d="M299,377.5c18.5,18.3,16.9,59.6,15.6,78.8c-1.2,13.9-8.6,46.3,0,69.8
			c9,24.9,17.2,51.5,6.9,85.7c-7.2,23.9-30.6,35.5-25.9,79.2"/>
		<path id="XMLID_456_" class="st64" d="M339.8,613.4c0,0.8,0.1,1.5,0.1,2.3c-0.2,26.7-15.8,28.5-27.9,40.7c1.4-7.1,1.8-16,6.5-21.8
			c5.2-5.8,12.2-7,17.4-14C337.8,618,339,615.6,339.8,613.4z M343.9,518.1c-6.3-15.4-7.4-31.7-5-47.9c0.2-1.6,0.5-3.2,0.8-4.8
			c-8.3,3.2-14.9,9.3-18.8,17.7c-11.8,25-2.5,41.9,7.6,60.8c8.3,15.4,2.9,29.7,4.7,45.9c0.7,6.8,3.7,12.1,6,17.2
			c-0.6-4.7-1.3-9.4-0.7-14.1c1.1-11.6,10.1-17.6,12.8-28.6C356.1,547.1,350.3,533.5,343.9,518.1z M300,648.9
			c-1.6-3.5-3.6-7.4-4-11.2c-5.3,13.9-11.2,28.3-4.9,48.7c0,0.1,0,0.1,0.1,0.2c0.4,1.2,0.8,2.3,1.2,3.5c0.1,0.2,0.2,0.4,0.3,0.6
			c0,0,0,0.1,0.1,0.1c0.1,0.2,0.3,0.4,0.5,0.5c0,0,0,0,0,0c0.6,0.5,1.3,0.8,2.1,0.7h0c0.6,0,1.1-0.2,1.6-0.6
			c0.9-0.7,1.1-1.4,1.2-1.9c0-0.1,0-0.1,0-0.2c0.8-7.5,2.3-13.5,4.2-18.4c-1.1,0.7-2.2,1.4-3.4,2.1
			C302.7,664.9,305.2,660.1,300,648.9z"/>
	</g>
	<g id="XMLID_440_">
		<path id="XMLID_454_" class="st53" d="M406.1,555.4c-10.5-19.2-10.4-31.9-9.3-52.3c1.2-20.9-5.2-48.8-30.8-53.5
			c-19.2-3.5-34.8,4.3-41.9,19.4c-11.8,25-2.5,41.9,7.6,60.8c8.3,15.4,2.9,29.7,4.7,45.9c1.7,16.3,16.3,23.8,4.1,40.7
			c-5.2,7-12.2,8.1-17.4,14c-5.2,6.4-5.1,16.4-7,23.8c-4.7,18.7-23,16.1-23.8,35.1c-0.1,1.4,1.1,2.8,2.1,2.8c1,0,1.8,0.1,2.5-1.1
			c4.3-7.6,11.4-6.5,19.4-10c5.9-2.6,7.7-9.9,21.9-11.6c18.6-2.2,35.5,9.9,44.8-15.1c3.5-8.7,2.3-16.3,4.1-25
			c1.7-11.6,9.3-18.6,16.9-26.7C417.1,587.4,415.4,572.3,406.1,555.4z"/>
		<g id="XMLID_442_">
			<path id="XMLID_453_" class="st65" d="M340,495.7c0,0,12.2,21.6,29.3,23.1"/>
			<path id="XMLID_451_" class="st65" d="M352.8,562.7c0,0-0.9,38.9,11.5,47.1"/>
			<path id="XMLID_450_" class="st65" d="M393.2,536.6c0,0-1.4,33.4-22.4,39.3"/>
			<path id="XMLID_449_" class="st65" d="M376.1,632.4c0,0-10.7,32.2-41.1,27"/>
			<path id="XMLID_446_" class="st65" d="M371.7,465.9c0,0,8.8,25.4-4.4,37.4"/>
			<path id="XMLID_444_" class="st65" d="M294.4,690.3c2.8-10.5,18.3-14.3,22.7-17.2c49.2-32,68.4-93.9,44.1-198.8"/>
		</g>
		<path id="XMLID_441_" class="st64" d="M292.1,689.4c-0.1,1.4,1.1,2.8,2.1,2.8c0.1,0,0.1,0,0.2,0c3.1-2.4-0.8-5.7,3.9-16.8
			C294.9,678.5,292.4,682.6,292.1,689.4z"/>
	</g>
	<g id="XMLID_359_">
		<path id="XMLID_439_" class="st53" d="M295.6,643.3c-5.8-12.4-0.3-28.3-6-37.4c-6.9-11.3-18.6-2.7-32-18.3
			c-11.3-13-3.2-31.1-28.9-44.6c-7.9-4.1-17-2.1-20,6.8c-3.7,8.3,2.1,20.3,4.9,28.3c2.6,6.8,5.8,11.9,4.5,19.5c0,0.1,0,0.2-0.1,0.2
			c-1.5,5.8-5.3,8.9-3.3,15.8c4.3,16.7,27.9,15.2,39.8,25.6c8.4,7.3,0.8,16.1,9.1,27.2c8.2,11,12.3-1,27,25.1
			c0.5,0.9,1.7,1.3,2.7,0.7l0,0c0.7-0.4,1-1.1,1-1.8C292,662.2,304.1,661.6,295.6,643.3z"/>
		<g id="XMLID_429_">
			<path id="XMLID_438_" class="st65" d="M216.5,563c0,0,1.4,12.9,13.6,16.9"/>
			<path id="XMLID_437_" class="st65" d="M223.3,599.5c0,0,12.2,14.1,27.4,8.5"/>
			<path id="XMLID_436_" class="st65" d="M268.6,600.3c0,0,9.2,15.2,2.4,22.3"/>
			<path id="XMLID_435_" class="st65" d="M282.8,629.1c0,0,5.5,18.8-4,25.7"/>
			<path id="XMLID_433_" class="st65" d="M239.6,571.5c0,0,8,19.6,1.1,26.7"/>
			<path id="XMLID_432_" class="st65" d="M250.7,627.8c0,0,7.1,12,27.1,10.8"/>
			<path id="XMLID_431_" class="st65" d="M264.3,653.3c0,0,2,12.1,21.6,14.9"/>
			<path id="XMLID_430_" class="st65" d="M292,691.3c-0.8-25.6-14.4-27.8-14-42.9c0.4-11.8-0.1-23-14.4-31.6
				c-24.7-14.8-35-30.2-40-62.9"/>
		</g>
	</g>
</g>
</svg>
