<?xml version="1.0" encoding="utf-8"?>
<!-- Generator: Adobe Illustrator 22.0.0, SVG Export Plug-In . SVG Version: 6.00 Build 0)  -->
<svg version="1.1" id="Layer_1" xmlns="http://www.w3.org/2000/svg" xmlns:xlink="http://www.w3.org/1999/xlink" x="0px" y="0px"
	 viewBox="0 0 342.4 308.3" style="enable-background:new 0 0 342.4 308.3;" xml:space="preserve">
<style type="text/css">
	.st0{fill:#D4ECFF;}
	.st1{fill:#FF2C9C;}
	.st2{fill:#5793CE;}
	.st3{fill:#396CAA;}
	.st4{fill:url(#SVGID_1_);}
	.st5{fill:#EAEAEA;}
	.st6{fill:#173D7A;}
	.st7{fill:#111326;}
	.st8{fill:#2C53F1;}
	.st9{fill:#FFC2B0;}
	.st10{fill:#FFFFFF;}
	.st11{fill:#EA9C92;}
	.st12{fill:#1B4ECC;}
	.st13{fill:#274F89;}
	.st14{fill:#EA2A2A;}
	.st15{fill:#FF2C2C;}
	.st16{fill:#2A84F8;}
	.st17{fill:#7319E4;}
	.st18{fill:#D3008D;}
	.st19{fill:#EDEDED;}
	.st20{fill:#E9F6FF;}
	.st21{fill:#AEDEED;}
	.st22{opacity:0.4;fill:#FFFFFF;enable-background:new    ;}
	.st23{fill:#B2D3EA;}
	.st24{fill:#1C2035;}
	.st25{fill:#721BD5;}
	.st26{fill:#983BE9;}
	.st27{fill:#D29FFF;}
	.st28{fill:#5E12D6;}
	.st29{fill:#E8A200;}
	.st30{fill:#F9BF30;}
	.st31{fill:#FDD762;}
</style>
<title>kodeglobeAsset 2</title>
<g id="Layer_2_1_">
	<g id="Ñëîé_1">
		<path class="st0" d="M235.8,243.3l-0.4-0.6l11.1-6.5c1.4-0.8,3.1-0.8,4.5,0l9.2,5.5l-0.4,0.6l-9.2-5.5c-1.1-0.7-2.6-0.7-3.7,0
			L235.8,243.3z"/>
		<path class="st0" d="M268.9,241.5l-0.4-0.6l28.9-17.1c0.3-0.2,0.4-0.4,0.4-0.7c0-0.3-0.2-0.6-0.4-0.7l-9.6-5.9l0.4-0.6l9.6,5.9
			c0.5,0.3,0.8,0.8,0.8,1.4c0,0.6-0.3,1.1-0.8,1.4L268.9,241.5z"/>
		<path class="st0" d="M237.4,217.9l-0.4-0.6l28.2-16.2c0.3-0.2,0.5-0.5,0.5-0.8c0-0.3-0.2-0.6-0.5-0.8l-14.9-8.6
			c-2-1.2-3.3-3.4-3.3-5.7v-49.1c0-2,1-3.9,2.7-5.1l2.2-1.5l0.4,0.6l-2.2,1.5c-1.5,1-2.4,2.7-2.4,4.5v49.1c0,2.1,1.1,4,2.9,5.1
			l14.9,8.6c0.5,0.3,0.8,0.8,0.8,1.4c0,0.6-0.3,1.2-0.8,1.5L237.4,217.9z"/>
		<path class="st1" d="M235.6,233.4c-0.4,0-0.7-0.3-0.7-0.8c0-0.3,0.1-0.5,0.4-0.6l11.1-6.5c1.5-0.9,3.3-0.9,4.8,0l9.2,5.5
			c0.3,0.2,0.4,0.7,0.2,1c-0.2,0.3-0.6,0.4-0.9,0.2l-9.2-5.5c-1-0.6-2.3-0.6-3.3,0l-11.1,6.5C235.8,233.4,235.7,233.4,235.6,233.4z"
			/>
		<path class="st0" d="M219.8,268.4l-62-35.8c-2.2-1.2-1.9-3.4,0.6-4.9l0,0c2.5-1.4,6.3-1.6,8.4-0.3l62,35.8
			c2.2,1.2,1.9,3.4-0.6,4.9l0,0C225.7,269.5,221.9,269.6,219.8,268.4z"/>
		<path class="st0" d="M279.1,173.6c-0.5-0.3-1-0.5-1.5-0.7l0,0l-2.9-1.3l0.2,0.5c-2.2-0.4-4.5-0.5-6.7-0.1l0.1-0.6l-3.4,1.5l0,0
			c-0.4,0.2-0.8,0.4-1.3,0.6c-4.2,2.4-4.2,6.4,0,8.8c4.2,2.4,11,2.4,15.2,0C283.2,180,283.3,176.1,279.1,173.6z"/>
		<path class="st2" d="M275,175.9c-2.2,1.1-4.9,1.1-7.1,0c-2-1.1-2-3,0-4.1c2.2-1.1,4.9-1.1,7.1,0C277,172.9,277,174.8,275,175.9z"
			/>
		<path class="st2" d="M271.5,174.6L271.5,174.6c-0.9,0-1.7-0.8-1.7-1.7v-21.7h3.4v21.7C273.2,173.9,272.4,174.6,271.5,174.6
			C271.5,174.6,271.5,174.6,271.5,174.6z"/>
		<path class="st2" d="M272.7,152c-0.8,0.4-1.7,0.4-2.5,0c-0.4-0.1-0.6-0.5-0.5-0.9c0.1-0.2,0.3-0.4,0.5-0.5c0.8-0.4,1.7-0.4,2.5,0
			c0.4,0.1,0.6,0.5,0.5,0.9C273.1,151.8,272.9,152,272.7,152z"/>
		<path class="st0" d="M271.5,152L271.5,152c-0.8,0-1.4-0.6-1.4-1.4v-20.4h2.8v20.4C272.9,151.4,272.2,152,271.5,152z"/>
		<path class="st3" d="M291.5,140.9v-0.8l1.1-0.2l1.3-0.9c0.3-0.1,0.6-0.1,0.8,0l0.9,0.5l0.9-0.1v0.8l0,0c0,0.1-0.1,0.2-0.2,0.2
			l-2.9,1.3c-0.2,0.1-0.5,0.1-0.7,0l-1-0.6C291.6,141.1,291.5,141.1,291.5,140.9L291.5,140.9z"/>
		<path class="st2" d="M291.6,139.8l2.2-1.7c0.3-0.1,0.6-0.1,0.8,0l1.7,1c0.2,0.1,0.2,0.4-0.1,0.5l-2.9,1.3c-0.2,0.1-0.5,0.1-0.7,0
			l-1-0.6C291.4,140.2,291.4,140,291.6,139.8z"/>
		<path class="st0" d="M287.8,143.7c0.3,0,0.6-0.1,0.9-0.2l3.5-2c0.2-0.1,0.3-0.3,0.2-0.5c0,0,0,0,0,0c-0.1-0.2-0.4-0.3-0.5-0.2
			c0,0,0,0,0,0l-3.5,2.1c-0.3,0.1-0.7,0.1-1,0l-5.9-3.4c-0.2-0.1-0.5,0-0.6,0.2c-0.1,0.2,0,0.5,0.2,0.6l5.9,3.4
			C287.1,143.7,287.5,143.8,287.8,143.7z"/>
		
			<radialGradient id="SVGID_1_" cx="216.4376" cy="177.9381" r="34.9409" gradientTransform="matrix(1 0 0 -1 0 310)" gradientUnits="userSpaceOnUse">
			<stop  offset="0" style="stop-color:#01C8EF"/>
			<stop  offset="9.000000e-02" style="stop-color:#03BEE9"/>
			<stop  offset="0.24" style="stop-color:#08A5D7"/>
			<stop  offset="0.43" style="stop-color:#107BBB"/>
			<stop  offset="0.45" style="stop-color:#1177B8"/>
			<stop  offset="1" style="stop-color:#112564"/>
		</radialGradient>
		<polygon class="st4" points="253.9,136.3 259.5,133 256.4,131.6 253.6,133.5 		"/>
		<path class="st2" d="M290.2,131.4c-0.3-0.2-0.6-0.4-0.9-0.6l-12.1-8.9c-2.2-1.6-4.4-2-6.2-1.1l-0.1,0.1l0,0l-16.7,9.7l1.5,0.5
			l5.8,2.6l7.9,5.6l6.3,3.3l0.3,0.1c1.5-1.2,3.1-2.3,4-4.1c1.6-2.7,5.9-3.5,8.4-5.7c0.3,0.2,0.5,0.3,0.7,0.4
			C289.7,132.8,290,132.1,290.2,131.4z"/>
		<path class="st3" d="M295.5,127.4c-0.2,0-0.5,0.1-0.7,0.2l0,0l-16.3,9.4l0.6,2.4l0.6-0.3c-0.9,1.5-2.4,2.4-3.7,3.5l1.8,0.4l16-9.3
			l0.2-0.1c0.2-0.1,0.4-0.2,0.6-0.4l0,0l0,0c1.2-0.9,1.9-2.6,1.9-4.6v-0.2C296.6,127.9,296.1,127.4,295.5,127.4
			C295.5,127.4,295.5,127.4,295.5,127.4z"/>
		<path class="st5" d="M273.2,120.4c1.1,0.1,2.2,0.4,3.2,1C275.4,120.8,274.3,120.4,273.2,120.4z"/>
		<path class="st2" d="M280.6,137.8v-0.2c-0.1-0.6-0.6-1.1-1.2-1c-0.5,0.1-0.9,0.5-1,1v0.2c0,1.5-0.5,2.6-1.3,3
			c-0.8,0.4-2.4,0.1-3.8-0.9l-12.1-8.8c-1.9-1.4-3.7-1.9-5.4-1.4l10-5.8l-11.5,6.7l1.5,0.5l5.8,2.6l7.9,5.6l6.3,3.3l0.3,0.1
			c1.5-1.2,3.1-2.3,4-4.1C280.2,138.4,280.4,138.1,280.6,137.8C280.6,137.9,280.6,137.9,280.6,137.8z"/>
		<path class="st0" d="M275.8,143.7c-1.5-0.1-3-0.6-4.2-1.6l-12.1-8.8c-1.4-1.1-2.9-1.4-3.8-0.9c-0.9,0.5-1.3,1.5-1.3,3
			c0,0.6-0.5,1.1-1.1,1.1c-0.6,0-1.1-0.5-1.1-1.1c0-2.4,0.9-4.2,2.5-5c1.7-0.9,4-0.5,6.2,1.1l12.1,8.8c1.5,1.1,2.9,1.4,3.8,0.9
			c0.9-0.5,1.3-1.5,1.3-3V138c0-0.6,0.5-1.1,1.1-1.1s1.1,0.5,1.1,1.1v0.2c0,2.4-0.9,4.2-2.5,5C277.1,143.5,276.4,143.7,275.8,143.7z
			"/>
		<path class="st6" d="M266.3,163.4c0,0-2.3-1.1-3.7,0.6c-1.4,1.7-3.4,5.7-3.5,8.5c-0.1,2.7,2.2,2.5,3.5,1.9
			c1.3-0.6,5.2-6.2,5.4-7.3c0.2-1-0.1-2-0.6-2.9C267,163.9,266.3,163.4,266.3,163.4z"/>
		<path class="st2" d="M266.8,162.9l0.1,2.4c0,0.5-0.2,1-0.7,1.2c-0.5,0.3-1.2,0.4-1.8,0.3c-1.7-0.3-1.9-0.7-2-3.1
			C262.4,161.2,266.8,162.9,266.8,162.9z"/>
		<path class="st6" d="M258,158.9c0,0-2.2-1.1-3.7,0.6s-3.4,5.8-3.4,8.5c-0.1,2.7,2.2,2.5,3.5,1.9c1.3-0.6,5.2-6.2,5.4-7.3
			c0.2-1-0.1-2-0.6-2.9C258.7,159.3,258,158.9,258,158.9z"/>
		<path class="st2" d="M258.5,158.4l0.1,2.4c0,0.5-0.2,1-0.7,1.2c-0.5,0.3-1.2,0.4-1.7,0.3c-1.7-0.3-1.9-0.7-2-3.1
			C254.1,156.7,258.5,158.4,258.5,158.4z"/>
		<path class="st7" d="M278.7,115.1c-0.7-10.9-11.8,1.6-11.8,1.6l-7.6,7.5l-6.9,7.6c-1.3,1.5-2,3.5-1.7,5.5l2.8,21.3
			c0.1,1,1,1.8,2.1,1.8c0.3,0,0.7,0,1-0.1c1.4-0.1,2.4-1.4,2.3-2.7l-0.5-19.9l14.5-8.7C272.8,128.9,279.4,126.1,278.7,115.1z"/>
		<path class="st7" d="M287.1,119.3c-0.7-10.9-11.8,1.6-11.8,1.6l-7.6,7.5l-6.9,7.6c-1.3,1.5-2,3.5-1.7,5.5l2.8,21.2
			c0.1,1,1,1.8,2.1,1.8c0.3,0,0.7,0,1-0.1c1.4-0.2,2.4-1.4,2.3-2.7l-0.5-19.8l14.5-8.7C281.1,133.1,287.7,130.3,287.1,119.3z"/>
		<path class="st8" d="M280.4,84.2c8.5,3.5,8.3,8.5,8.3,8.5s-1.7,18.4-1.1,30.6c0.2,5.1-27.2,5.5-23.1-8.2c4.8-16.1,3-29.2,5.3-31.1
			C272,82,278.3,83.3,280.4,84.2z"/>
		
			<ellipse transform="matrix(0.2494 -0.9684 0.9684 0.2494 124.5987 335.8218)" class="st9" cx="278.9" cy="87.5" rx="3.2" ry="4.4"/>
		<path class="st10" d="M279.6,91.3c-0.5,0-1-0.1-1.5-0.2c-1.2-0.3-2.2-0.9-3-1.8c-0.7-0.8-1-1.9-0.7-2.9c0.5-1.9,3-3,5.5-2.3
			c1.2,0.3,2.2,0.9,3,1.8c1.2,1.2,1.1,3.2-0.1,4.3c-0.3,0.3-0.7,0.6-1.2,0.7C280.9,91.1,280.3,91.3,279.6,91.3z M278.3,84.7
			c-1.6,0-2.9,0.7-3.2,1.9c-0.2,0.8,0.1,1.6,0.6,2.2c1.4,1.5,3.6,2.1,5.5,1.4c0.8-0.3,1.3-0.8,1.6-1.6l0,0c0.2-0.8-0.1-1.6-0.6-2.2
			c-0.7-0.8-1.5-1.3-2.5-1.6C279.2,84.7,278.7,84.7,278.3,84.7L278.3,84.7z"/>
		<path class="st9" d="M277.1,83.9c0,1,0,2-0.1,3c-0.1,0.8,2.9,1.6,3.7,0.9c0.8-0.8,0.5-1.6,0.6-4.4
			C281.5,80.4,277.1,83.9,277.1,83.9z"/>
		<path class="st11" d="M281.3,83.3c0,0-0.7,2.7-4.3,3.7l0.1-2.4L281.3,83.3z"/>
		<path class="st9" d="M283.6,76.5c0.9,3.5-1.2,7-4.7,7.9c-3.5,0.9-7-1.2-7.9-4.7c-0.9-3.5,1.2-7,4.7-7.9
			C279.1,70.9,282.7,73,283.6,76.5C283.6,76.5,283.6,76.5,283.6,76.5z"/>
		<path class="st11" d="M278.7,78.4c0,0-3.6,1.5-6.1,1.6c-2.5,0-1.9-2.1-1.9-2.1l7.4-1.1L278.7,78.4z"/>
		<path class="st7" d="M271.9,78.8c0,0,3.1-1.3,5.9-0.7c0.7,0.1,1.2,0.5,1.7,1c0.1,0.2,0.3,0.3,0.5,0.4c0.5,0.1,1.3-1.9,2.2-2
			c1,0,1.6,0.6,0.8,1.9c-0.8,1.2-0.5,2.6-0.2,2.8c0.4,0.2,4.1-2.7,0.8-9.3s-11.8-3.1-13.2-1.7c0,0-1.4,1.2-2.5,0.1
			C268,71.2,266.7,80.7,271.9,78.8z"/>
		<path class="st9" d="M284,106.1v5c0,0.6-0.2,1.1-0.7,1.5l-10.2,9.3l1.2,1.8l13.4-9.8c0.6-0.5,1-1.2,1.1-1.9l0.9-8.7L284,106.1z"/>
		<path class="st12" d="M288,90.2c0,0,3.1,4.7,4.2,16.9c0,0-5.3,1.7-8.3,0.7C281,106.9,288,90.2,288,90.2z"/>
		<path class="st12" d="M283.4,96.1c-0.6,3.1-1,6.3-1.3,9.5c0,0.8,0.5,1.6,1.3,1.9l0,0V96.1z"/>
		<path class="st6" d="M280.8,128.3l-2.2-0.3l-14.5-8.4c-0.6-0.3-1.3-0.2-1.8,0.1l-10.3,6l-1.4-0.2v1.4l0,0c0,0.2,0.1,0.4,0.3,0.5
			l16.4,9.5c0.6,0.3,1.3,0.2,1.8-0.1l11.2-6.5c0.2-0.1,0.4-0.3,0.4-0.6l0,0L280.8,128.3z"/>
		<path class="st3" d="M269.9,123l-1-0.6h-11.4l-5.6,3.2l-1.4-0.2v1.4l0,0c0,0.2,0.1,0.4,0.3,0.5l16.5,9.5c0.3,0.1,0.6,0.2,0.9,0.2
			L269.9,123z"/>
		<path class="st2" d="M251.1,125.6l-0.6-0.1v1.4l0,0c0,0.2,0.1,0.4,0.3,0.5l0.3,0.2L251.1,125.6z"/>
		<path class="st13" d="M267.5,136.9c0.5,0.2,1.1,0.1,1.5-0.1v-2.3h-1.5V136.9z"/>
		<path class="st10" d="M267.3,135.5l-16.5-9.5c-0.5-0.3-0.4-0.7,0.1-1l11.2-6.5c0.6-0.3,1.2-0.3,1.8-0.1l16.5,9.5
			c0.5,0.3,0.4,0.7-0.1,1l-11.2,6.5C268.6,135.7,267.9,135.8,267.3,135.5z"/>
		<path class="st0" d="M267,134l-13.7-7.9c-0.4-0.2-0.3-0.6,0.1-0.9l6-3.4c0.5-0.2,1-0.3,1.5-0.1l13.7,7.9c0.4,0.2,0.3,0.6-0.1,0.9
			l-6,3.4C268.1,134.2,267.5,134.2,267,134z"/>
		<path class="st9" d="M262.8,118.1l-0.2,1.1c-0.1,1-0.1,2,0.1,2.9l0.2,1c0.1,0.6,0.6,1,1.1,1.1l0,0c0.4,0.1,0.8-0.2,0.9-0.6
			c0,0,0-0.1,0-0.1l0.3-2.4c0,0,0.6,0.8,0.9,0.8c0.3,0-0.3-2.4-1-3.8S262.8,118.1,262.8,118.1z"/>
		<path class="st9" d="M268.4,100l-1.8,3.5c-0.4,0.8-0.7,1.7-0.7,2.7l-0.7,11.9l-2.3-0.1l-1.1-13.4c0-0.4,0-0.8,0.1-1.2l1.2-6.8
			L268.4,100z"/>
		<path class="st6" d="M266.7,136.4l-1.4-1.8l-14.5-8.4c-0.5-0.4-0.8-1-0.8-1.6v-11.9l-0.8-1.1l0.8-0.5l0,0c0.2-0.1,0.4-0.1,0.6,0
			l16.5,9.5c0.5,0.4,0.8,1,0.8,1.6v13c0,0.3-0.1,0.5-0.3,0.7l0,0L266.7,136.4z"/>
		<path class="st3" d="M256.7,129.6l-1-0.6l-5.7-9.8v-6.5l-0.8-1.1l0.8-0.5l0,0c0.2-0.1,0.4-0.1,0.6,0l16.5,9.5
			c0.3,0.2,0.5,0.4,0.6,0.7L256.7,129.6z"/>
		<path class="st2" d="M249.5,112.1l-0.4-0.5l0.8-0.5l0,0c0.2-0.1,0.4-0.1,0.6,0l0.3,0.2L249.5,112.1z"/>
		<path class="st13" d="M267.1,120.8c0.4,0.4,0.6,0.9,0.7,1.4l-1.6,0.9l-0.7-1.3L267.1,120.8z"/>
		<path class="st2" d="M266.2,121.1l-16.5-9.5c-0.5-0.3-0.8,0-0.9,0.6v13c0,0.6,0.3,1.2,0.8,1.6l16.5,9.5c0.5,0.3,0.8,0,0.8-0.6v-13
			C267,122.1,266.7,121.5,266.2,121.1z"/>
		<path class="st9" d="M274.3,123.6l-0.3,0.6c-0.3,0.6-0.8,1.1-1.4,1.5l-1.6,1c-0.5,0.3-1.2,0.3-1.7,0h-0.1
			c-0.4-0.3-0.6-0.9-0.2-1.4c0,0,0.1-0.1,0.1-0.1l1.7-1.8c0,0-1,0.7-1.2,0.4c-0.3-0.3,0.9-1.3,1.8-1.3c0.6-0.1,1.2-0.3,1.7-0.7
			L274.3,123.6z"/>
		<path class="st12" d="M270,84c0,0-6.3,6.8-8.8,13.1c1.7,2.6,4.3,4.6,7.4,5.4C273.8,104,270,84,270,84z"/>
		<path class="st12" d="M267.4,102.1l1-9.8l-2.4,9.2C266.4,101.7,266.9,101.9,267.4,102.1z"/>
		<path class="st10" d="M274.7,82.6l-1.7-0.5c0.5,0.7,1.2,1.3,2,1.6c1.2,0.3,1.4-0.7,1.4-0.7L274.7,82.6z"/>
		<path class="st8" d="M231,78.7l-66.8-38.6c-2.2-1.3-4.2-1.3-5.7-0.4l0,0l-8.4,4.8l5.6,1c0,0.3,0,0.6,0,0.9v157.6
			c0,6.3,3.8,13.5,8.5,16.2l65.9,38.1l-1.9,5.8l8.2-4.8l0,0c1.9-1,3.1-3.4,3.1-7V94.9C239.5,88.6,235.7,81.4,231,78.7z"/>
		<polygon class="st0" points="293.8,214 283.8,208.2 273.7,214 283.8,219.8 		"/>
		<polygon class="st14" points="283.8,214.4 283.8,207.9 295.8,200.9 295.8,207.5 		"/>
		<polygon class="st14" points="283.8,207.9 271.8,200.9 271.8,207.5 283.8,214.4 		"/>
		<polygon class="st15" points="295.8,200.9 283.8,194 271.8,200.9 283.8,207.9 		"/>
		<path class="st10" d="M254.2,125.5c0,1-0.7,1.4-1.6,0.9c-0.9-0.6-1.5-1.7-1.6-2.8c0-1,0.7-1.4,1.6-0.9
			C253.5,123.4,254.1,124.4,254.2,125.5z"/>
		<path class="st15" d="M237.2,213.3c-0.3,0-0.5-0.1-0.6-0.4c-0.2-0.4-0.1-0.8,0.3-1l28.2-16.2c0.2-0.1,0.3-0.3,0.3-0.5
			c0-0.2-0.1-0.4-0.3-0.5l-14.9-8.6c-2.2-1.2-3.5-3.6-3.5-6v-49.1c0-2.2,1.1-4.2,2.8-5.4l2.2-1.5c0.3-0.2,0.8-0.1,1,0.2
			c0.2,0.3,0.1,0.8-0.2,1l-2.2,1.5c-1.4,0.9-2.2,2.5-2.2,4.2v49.1c0,2,1,3.8,2.7,4.7l14.9,8.6c1,0.6,1.3,1.8,0.8,2.8
			c-0.2,0.3-0.4,0.6-0.8,0.8l-28.2,16.2C237.5,213.3,237.4,213.3,237.2,213.3z"/>
		<path class="st16" d="M155.7,204.1c0,6.3,3.8,13.5,8.5,16.2l65.9,38.1l-1.9,5.8l8.2-4.8l0,0c1.9-1,3.1-3.4,3.1-7V94.9
			c-0.1-3.4-1-6.8-2.7-9.8l-81.1,46.8V204.1z"/>
		<path class="st17" d="M222.6,263.8l-66.8-38.6c-4.7-2.7-8.5-10-8.5-16.2V51.4c0-6.3,3.8-9.1,8.5-6.4l66.8,38.6
			c4.7,2.7,8.5,10,8.5,16.2v157.6C231.1,263.7,227.3,266.5,222.6,263.8z"/>
		<polygon class="st18" points="158.3,94.3 153.1,90.8 151.1,84.1 149.1,88.4 147.2,87.6 147.2,91.2 147.8,92.1 147.2,94.8 
			147.2,97.3 151.1,96.8 155.5,102.5 154.4,95.9 		"/>
		<path class="st10" d="M221.3,258.6l-64.2-37.1c-3.5-2-6.3-7.4-6.3-12.1V54.1c0-4.7,2.8-6.8,6.3-4.8l64.2,37.1
			c3.5,2,6.3,7.4,6.3,12.1v155.4C227.6,258.5,224.8,260.6,221.3,258.6z"/>
		<path class="st19" d="M195,210.9l-31.5-18.2v-76.6l14.8,8.6c10.3,6,16.7,17,16.7,28.9V210.9z"/>
		<path class="st0" d="M152.3,108.7L152.3,108.7c-3.2-1.9-7.6-1.7-12.5,1.2c-9.7,5.6-17.5,19.2-17.5,30.4v8.1l0,0l0.3,0.2l31.6,18.6
			l0.5-9.6l0.4-3.7l1.7-5.8l0.2-0.9l3.6-7.2l2.8-3.5l2.3-2.7l5.6-4.4l0.5-0.4l2.7-1.2l3.7-1h2.9l3.2,0.6L152.3,108.7z"/>
		<path class="st0" d="M156.3,183.2l1-0.6v-36.7c-0.5,0.8-0.9,1.7-1,2.6V183.2z"/>
		<polygon class="st0" points="188.2,201.5 156.3,183.1 156.6,148.4 157.8,144.9 161.5,138.5 165.9,133.4 169.8,130.2 174.1,127.6 
			181.8,126.7 185.9,129.1 188.2,132.5 188.9,137.9 188.7,196 		"/>
		<path class="st2" d="M152.3,108.7c-2.7-1.6-6.2-1.7-10.1,0l32.5,18.8l3.5-0.9h2.9l3.2,0.6L152.3,108.7L152.3,108.7z"/>
		<path class="st20" d="M142.9,108.3c-1.1,0.4-2.1,0.9-3.1,1.5c-0.7,0.4-1.4,0.9-2.1,1.4l32.4,18.7l1.1-0.9l0.5-0.4l2.7-1.2l1.1-0.3
			L142.9,108.3z"/>
		<path class="st10" d="M165.9,133.2l4.4-3.5L137.9,111c-1.5,1.1-2.9,2.3-4.2,3.6L165.9,133.2z"/>
		<path class="st2" d="M189.2,200.9l-1,0.6v-62.6c0-10.5-7.4-14.7-16.5-9.5c-9.1,5.2-16.5,18.1-16.5,28.6v8.4l-1,0.6v-8.4
			c0-11.2,7.9-24.8,17.5-30.4c9.7-5.6,17.5-1.1,17.5,10.1V200.9z"/>
		<polygon class="st21" points="131.9,134.2 130.1,141.5 131,153.4 128.7,152.1 125.8,145.6 128.4,137.5 		"/>
		<path class="st22" d="M184.1,181.2c-0.2,0-0.4-0.1-0.6-0.2l-23.2-13.4c-0.8-0.5-1.2-1.4-1.2-2.3v-18.3c0-0.5,0.2-0.9,0.5-1.2
			c0.3-0.2,0.7-0.2,1.1,0.1l23.2,13.4c0.7,0.5,1.2,1.4,1.2,2.3v18.3c0,0.5-0.2,0.9-0.5,1.2C184.4,181.2,184.3,181.2,184.1,181.2z
			 M160.1,146.5C160.1,146.5,160.1,146.5,160.1,146.5c-0.2,0-0.3,0.2-0.3,0.5v18.3c0,0.7,0.3,1.3,0.9,1.6l23.2,13.4
			c0.1,0,0.2,0.1,0.3,0.1c0.1,0,0.2-0.2,0.2-0.5v-18.2c0-0.6-0.3-1.3-0.8-1.6l-23.2-13.4C160.3,146.5,160.2,146.5,160.1,146.5z"/>
		<path class="st23" d="M167.5,168.4l-0.2-0.1c-0.7-0.5-1.1-1.3-1.1-2.1v-8.7c0-0.8,0.5-1.2,1.1-0.8l0.2,0.1
			c0.7,0.5,1.1,1.3,1.1,2.1v8.7C168.6,168.3,168.1,168.7,167.5,168.4z"/>
		<path class="st23" d="M172.2,171L172,171c-0.7-0.5-1.1-1.3-1.1-2.1v-5.1c0-0.8,0.5-1.2,1.1-0.8l0.2,0.1c0.7,0.5,1.1,1.3,1.1,2.1
			v5.1C173.3,171,172.8,171.4,172.2,171z"/>
		<path class="st3" d="M176.9,173.7l-0.2-0.1c-0.7-0.5-1.1-1.3-1.1-2.1v-12.1c0-0.8,0.5-1.2,1.1-0.8l0.2,0.1
			c0.7,0.5,1.1,1.3,1.1,2.1v12.1C178,173.7,177.5,174.1,176.9,173.7z"/>
		<ellipse class="st0" cx="139.5" cy="255.7" rx="20" ry="11.5"/>
		<path class="st6" d="M127.3,249.6c-1.4,0.7-2.3,2.2-2.2,3.8c0,0.6,0.1,1.3,0.3,1.9c0.4,0.9,1.9,2.2,4.2,1.3
			c2.3-0.9,7.5-5.7,7.7-8.9C137.6,241.8,130.9,248.1,127.3,249.6z"/>
		<path class="st6" d="M140.9,259.3c0,0-0.6,3.4-0.3,4c0.3,0.6,1.9,1.9,4.3,1.7c2.4-0.3,9.2-2.7,10.8-7.2c2.4-7-13.2,0.5-13.2,0.5
			L140.9,259.3z"/>
		<path class="st7" d="M147.6,205.2l0.5,52.9c0,1.7-1.2,3.3-2.9,3.7c-0.2,0-0.4,0.1-0.6,0.1c-1.2,0.2-2.4-0.3-3.1-1.3
			c-0.4-0.6-0.7-1.4-0.7-2.1l-0.7-22.6l-3.4-20.2l-4.7,35.7c0,0.9-0.5,1.8-1.3,2.4c-0.6,0.4-1.4,0.6-2.1,0.6c-1.1,0-2.1-0.5-2.8-1.4
			c-0.5-0.5-0.7-1.2-0.7-1.9l1.9-21.5l0.7-27.4L147.6,205.2z"/>
		<path class="st9" d="M140.7,157.9l-0.8,4.8c0,1,0.8,1.9,1.8,2.1c1.8,0.5,2.4-0.7,2.4-0.7l0.8-5.4L140.7,157.9z"/>
		<path class="st9" d="M150.8,155.2c-1.3,4.1-5.3,6.5-9,5.4s-5.6-5.5-4.3-9.6c1.3-4.1,5.3-6.5,9-5.4S152.1,151.1,150.8,155.2z"/>
		<path class="st8" d="M140.9,162.8c-0.1-0.1-7.8-5-10.6,0.2c-4.6,8.4-1.2,18.1-2.9,39c-0.3,3.5,4.7,5.6,7.1,7
			c2.1,1.2,4.5,1.9,6.9,2c2.4,0,7-2.1,6.8-5.2c-0.7-14.4,0.5-26.5,1.7-38.3C149.9,167.4,148.4,165.8,140.9,162.8z"/>
		<path class="st24" d="M136.7,215.6l-4.7,35.7c0,0.9-0.5,1.8-1.3,2.4c-0.1,0.1-0.3,0.2-0.4,0.2c1-0.7,3.8-30.7,4.3-34
			S136.7,215.6,136.7,215.6z"/>
		<polygon class="st9" points="165.8,167.1 172.2,154.4 170.2,153.1 163.5,162.8 		"/>
		<polygon class="st9" points="123.5,153.6 126.6,139.4 129.1,139.4 128.1,151.2 		"/>
		<path class="st12" d="M149.9,167.4c0,0,7.2,2.8,13.3-4.9c0.4-0.5,1.1-0.6,1.6-0.2c0.1,0.1,0.2,0.2,0.3,0.4c0.6,1.3,1.2,3.2,0.4,5
			c-3.7,8-16.4,7.7-19.5,12.2C143,184.2,149.9,167.4,149.9,167.4z"/>
		<path class="st12" d="M136.1,161c0,0-5.9,0.5-6.8-4.7c-0.3-1.7-0.5-3.4-0.6-5.1c0-0.6-0.5-1-1-1c0,0-0.1,0-0.1,0
			c-1.4,0.2-3.6,0.6-3.9,1.5c-0.4,1.4-1.3,8.4,4.6,19.1C132,177.8,136.1,161,136.1,161z"/>
		<path class="st9" d="M126.6,139.5l0.1-1.6c0-0.6,0.2-1.1,0.5-1.6l1.6-2.7l0.4-0.5c0.4-0.5,1.1-0.6,1.6-0.3l0.4,0.2
			c0.5,0.3,0.8,0.8,0.7,1.4l-0.9,2.3l1.1-0.2c0.2,0,0.4,0.1,0.4,0.3c0,0,0,0,0,0l0,0c0,0.2-0.1,0.4-0.2,0.4l-1.7,0.7l-1.6,2.2
			L126.6,139.5z"/>
		<path class="st9" d="M172.2,154.5l0.7-1.4c0.3-0.5,0.4-1.1,0.4-1.6l-0.1-3.2l-0.1-0.7c-0.1-0.6-0.6-1.1-1.3-1.1h-0.4
			c-0.6,0-1.1,0.4-1.3,0.9l-0.4,2.4l-0.8-0.7c-0.2-0.1-0.4-0.1-0.5,0c0,0,0,0,0,0l0,0c-0.1,0.1-0.1,0.3,0,0.5l1.2,1.5l0.3,3.1
			L172.2,154.5z"/>
		<path class="st12" d="M145.2,178.2c-0.6,2.8,3.1,24.3-1,32.1c2.1-0.9,4.2-2.5,4-4.6c-0.4-9.4-0.2-18.8,0.7-28.1
			c3.6-1.8,9.2-2.9,13.1-5.8C157.8,173.3,145.8,175.6,145.2,178.2z"/>
		<path class="st10" d="M138.2,161.4l1.1-1.1c0,0,1.7,1.8,3.2,2.1c0.8,0.2,1.7,0.4,2.5,0.5l0.7,1.9
			C145.6,164.8,140,164.4,138.2,161.4z"/>
		<path class="st7" d="M145.8,155.4c0.3,0,0.6-0.1,0.7-0.4c0.3-0.4,0.1-2.4,1-2.7c1.4-0.5,4.7,1.3,5.1-3.8c0.2-2.6-1.1-3.3-1.1-4.8
			c0,0,0.1,0.7-6.7,0.3c-6.8-0.5-9,5.5-9.1,8.4c-0.2,2.9,1.2,7.6,5.8,8.2c0.7,0.1,4-2.5,3.9-2.8c-0.1-0.3-1.3-0.3-1.1-1.3
			C144.5,155.8,145.1,155.3,145.8,155.4C145.8,155.4,145.8,155.4,145.8,155.4z"/>
		<path class="st19" d="M180.5,94.3l-20.4-11.8c-1-0.7-1.6-1.9-1.6-3.1V64.2c0-1.2,0.7-1.8,1.6-1.2l20.4,11.8c1,0.7,1.6,1.9,1.6,3.1
			v15.2C182.1,94.3,181.4,94.8,180.5,94.3z"/>
		<path class="st25" d="M178.5,70.2l-20.5-11.8c-0.3-0.2-0.7-0.2-1.1-0.1l0,0l-2,1.1l1.4,0.5v14.9c0,1.2,0.6,2.4,1.6,3.1l19.5,11.3
			V91l2-1.1l0,0c0.4-0.3,0.6-0.8,0.6-1.3V73.4C180.1,72.1,179.5,71,178.5,70.2z"/>
		<path class="st8" d="M176.5,91L156,79.2c-1-0.7-1.6-1.9-1.6-3.1V60.9c0-1.2,0.7-1.8,1.6-1.2l20.4,11.8c1,0.7,1.6,1.9,1.6,3.1v15.2
			C178.1,90.9,177.4,91.5,176.5,91z"/>
		<path class="st8" d="M176.5,71.4L156,59.6c-0.4-0.3-0.9-0.3-1.3,0.1c0.3,0,0.5,0,0.7,0.2l20.4,11.8c1,0.7,1.6,1.9,1.6,3.1V90
			c0,0.4-0.1,0.8-0.4,1.2c0.5,0,0.9-0.6,0.9-1.4V74.5C178.1,73.3,177.5,72.1,176.5,71.4z"/>
		<path class="st10" d="M162.9,73.9c0,0.9-0.6,1.2-1.4,0.8c-0.8-0.5-1.3-1.4-1.4-2.4c0-0.9,0.6-1.2,1.4-0.8
			C162.3,72.1,162.9,73,162.9,73.9z"/>
		<path class="st10" d="M167.1,76.4c0,0.9-0.6,1.2-1.4,0.8c-0.8-0.5-1.3-1.4-1.4-2.4c0-0.9,0.6-1.2,1.4-0.8
			C166.5,74.5,167,75.4,167.1,76.4z"/>
		<path class="st10" d="M171.3,78.8c0,0.9-0.6,1.2-1.4,0.8c-0.8-0.5-1.3-1.4-1.4-2.4c0-0.9,0.6-1.2,1.4-0.8
			C170.7,76.9,171.2,77.8,171.3,78.8z"/>
		<path class="st19" d="M221.1,174.5l-20.4-11.8c-1-0.7-1.6-1.9-1.6-3.1v-34.2c0-1.2,0.7-1.8,1.6-1.2l20.4,11.8
			c1,0.7,1.6,1.9,1.6,3.1v34.2C222.8,174.4,222,175,221.1,174.5z"/>
		<path class="st2" d="M219.1,131.4l-20.4-11.8c-0.3-0.2-0.7-0.3-1.1-0.1l0,0l-1.9,1.1l1.4,0.5V155c0,1.2,0.6,2.4,1.6,3.1l19.5,11.3
			v1.8l2-1.2l0,0c0.4-0.3,0.6-0.8,0.6-1.3v-34.2C220.8,133.3,220.1,132.1,219.1,131.4z"/>
		<path class="st0" d="M217.1,171.1l-20.4-11.8c-1-0.7-1.6-1.9-1.6-3.1V122c0-1.2,0.7-1.8,1.6-1.2l20.4,11.8c1,0.7,1.6,1.9,1.6,3.1
			v34.2C218.7,171.1,218,171.6,217.1,171.1z"/>
		<path class="st10" d="M217.1,132.6l-20.4-11.8c-0.4-0.3-0.9-0.3-1.3,0.1c0.3,0,0.5,0,0.7,0.2l20.4,11.8c1,0.7,1.6,1.9,1.6,3.1
			v34.2c0,0.4-0.1,0.8-0.4,1.2c0.5,0,0.9-0.6,0.9-1.4v-34.2C218.7,134.4,218.1,133.3,217.1,132.6z"/>
		<path class="st19" d="M221.1,220.6l-20.4-11.8c-1-0.7-1.6-1.9-1.6-3.1v-34.2c0-1.2,0.7-1.8,1.6-1.2l20.4,11.8
			c1,0.7,1.6,1.9,1.6,3.1v34.2C222.8,220.6,222,221.2,221.1,220.6z"/>
		<path class="st15" d="M219.1,177.6l-20.4-11.8c-0.3-0.2-0.7-0.3-1.1-0.1l0,0l-1.9,1.1l1.4,0.5v33.9c0,1.2,0.6,2.4,1.6,3.1
			l19.5,11.3v1.7l2-1.1l0,0c0.4-0.3,0.6-0.8,0.6-1.3v-34.2C220.8,179.4,220.1,178.3,219.1,177.6z"/>
		<path class="st8" d="M217.1,217.3l-20.4-11.8c-1-0.7-1.6-1.9-1.6-3.1v-34.2c0-1.2,0.7-1.8,1.6-1.2l20.4,11.8
			c1,0.7,1.6,1.9,1.6,3.1V216C218.7,217.2,218,217.8,217.1,217.3z"/>
		<path class="st10" d="M217.1,178.7l-20.4-11.8c-0.4-0.3-0.9-0.3-1.3,0.1c0.3,0,0.5,0,0.7,0.2l20.4,11.8c1,0.7,1.6,1.9,1.6,3.1
			v34.2c0,0.4-0.1,0.8-0.4,1.2c0.5,0,0.9-0.6,0.9-1.4v-34.2C218.7,180.6,218.1,179.4,217.1,178.7z"/>
		<path class="st0" d="M84.1,235.5l17.9-10.1c1-0.4,2.1-0.4,3.1,0.2l11.4,6.8c0.9,0.5,1,1.3,0.2,1.8l-17.9,10.1
			c-1,0.4-2.1,0.4-3.1-0.2l-11.4-6.7C83.4,236.7,83.3,235.9,84.1,235.5z"/>
		<path class="st8" d="M98.6,239.1l20.5-11.6c0.3-0.2,0.6-0.5,0.6-0.9l0,0v-2.3l-1.1,0.9l-12.8-7.6c-1.1-0.6-2.4-0.7-3.5-0.2
			l-19.6,11.1l-1.5-0.9v2.3l0,0c0.1,0.5,0.4,0.9,0.8,1.1l13.1,7.7C96.1,239.5,97.4,239.6,98.6,239.1z"/>
		<path class="st8" d="M81.8,226.8l20.5-11.5c1.1-0.5,2.5-0.4,3.5,0.2l13.1,7.7c1,0.6,1.1,1.5,0.2,2l-20.5,11.5
			c-1.1,0.5-2.5,0.4-3.5-0.2L82,228.9C80.9,228.2,80.8,227.3,81.8,226.8z"/>
		<path class="st10" d="M98.6,236.8l20.5-11.6c0.4-0.2,0.7-0.7,0.6-1.1c-0.1,0.2-0.3,0.4-0.5,0.5l-20.6,11.6
			c-1.1,0.5-2.5,0.4-3.5-0.2L82,228.2c-0.4-0.2-0.7-0.5-0.8-0.9c-0.2,0.5,0,1.1,0.7,1.5l13.1,7.7C96.1,237.2,97.5,237.3,98.6,236.8z
			"/>
		<path class="st10" d="M103.3,223.8c-0.4-0.1-0.7-0.6-0.5-1.1c0.1-0.3,0.3-0.5,0.5-0.5c0.9-0.4,1.9-0.4,2.8,0
			c0.4,0.1,0.7,0.6,0.5,1.1c-0.1,0.3-0.3,0.5-0.5,0.5C105.2,224.2,104.2,224.2,103.3,223.8z"/>
		<path class="st10" d="M99.1,226.2c-0.4-0.2-0.7-0.6-0.5-1.1c0.1-0.2,0.3-0.4,0.5-0.5c0.9-0.4,1.9-0.4,2.8,0
			c0.4,0.1,0.7,0.6,0.5,1.1c-0.1,0.3-0.3,0.5-0.5,0.5C101,226.6,100,226.6,99.1,226.2z"/>
		<path class="st10" d="M94.9,228.5c-0.4-0.1-0.7-0.6-0.5-1.1c0.1-0.3,0.3-0.5,0.5-0.5c0.9-0.4,1.9-0.4,2.8,0
			c0.4,0.2,0.7,0.6,0.5,1.1c-0.1,0.2-0.3,0.4-0.5,0.5C96.8,229,95.8,229,94.9,228.5z"/>
		<ellipse class="st0" cx="67" cy="211.1" rx="14.4" ry="8.3"/>
		<path class="st7" d="M58.9,110.9c0,0,0.4,7.6,0.9,12.7c0.6,5.1,12.9-3.9,12.9-3.9v-5.8L58.9,110.9z"/>
		<path class="st6" d="M65.4,205.5c0.2,0.5,3.4,4.4,6.6,5.3c0.9,0.3,1.9,0.5,2.9,0.4c0.5-0.1,0.9-0.6,0.8-1.1c0,0,0-0.1,0-0.1
			c-1.1-2.9-3.3-5.4-6.1-6.7C64.2,200.6,65.4,205.5,65.4,205.5z"/>
		<path class="st6" d="M64.3,207c0.7,1.7,1.2,3.4,1.6,5.2c0.2,1.4-0.6,3.3-1.2,4.5c-0.3,0.6-1.1,0.9-1.8,0.5
			c-0.1-0.1-0.2-0.1-0.3-0.2c-1.5-1.3-2.4-3-2.6-4.9c-0.4-4,0-4.7,0-4.7L64.3,207z"/>
		<path class="st7" d="M56.7,159c-0.2,3.5-0.2,7,0,10.6c0.4,5.6,1.9,31.5,2.2,37.8c0,0-0.1,1.9,3.5,1.5c3.7-0.4,3.4-2.5,3.4-2.5
			s5.1-0.1,5.3-3.1c0.2-3,5.3-36.2,5.3-48.1L56.7,159z"/>
		<path class="st9" d="M78.2,133l2.5,3.9l8.7,10.5c-0.2,0.6-0.7,1.1-1.4,1.2c-0.8,0.2-8.1-6.7-11.3-9.8c-0.8-0.8-1-2.1-0.3-3.1
			L78.2,133z"/>
		<path class="st12" d="M73.3,117c0,0,4-0.1,5.4,5.7c1.4,5.8,2.5,13,1.3,13.6c-3.6,1.8-5.9-0.3-5.9-0.3L73.3,117z"/>
		<path class="st8" d="M74.5,117.3c-0.7-0.3-1.5-0.3-2.2-0.1c-3.4,1-16.2,4.7-18.3,6.5c-2.4,2.1,3.7,13.8,3.6,17.6
			c-0.1,3.8-0.5,8.4-0.9,12.6c-0.3,4.2-0.8,6.5,2.6,8.2s9.3,1.9,13.6-1.5s3.6-5.6,3.4-8c-0.2-2.4-1.7-12.9-1.5-15.8
			c1.1-0.9,2-1.9,2.7-3.1c1.1-1.9-0.9-5.5-1.7-7.8s0.5-5,0.2-6.9C75.8,118.2,75.3,117.5,74.5,117.3z"/>
		<path class="st10" d="M70.4,121.3c0.3,2.1-1.7,4.1-4.3,4.4c-2.7,0.3-5-1.1-5.3-3.2s1.7-4.1,4.3-4.5
			C67.7,117.6,70.1,119.2,70.4,121.3z"/>
		<path class="st9" d="M69,121.4c0.2,1.5-1.2,2.9-3.1,3.2c-1.9,0.2-3.6-0.7-3.8-2.3c-0.2-1.5,1.2-2.9,3.1-3.2
			C67.1,118.9,68.8,119.9,69,121.4z"/>
		<path class="st9" d="M67.1,116.5c0,0-2.3-1.9-2.8-0.9c-0.5,1-0.8,5.1-0.8,5.1l4.6,1.2l-0.7-4.2C67.4,117.7,68.3,116.9,67.1,116.5z
			"/>
		<circle class="st9" cx="67.4" cy="111.5" r="6.9"/>
		<path class="st11" d="M64,116.7c0,0.2-0.1,0.4-0.1,0.7c0.5,2.4,4,3.4,4,3.4l-0.5-3.2c0,0,0.4-0.4,0.3-0.7
			C66.3,116.5,64.5,116.1,64,116.7z"/>
		<circle class="st9" cx="67.4" cy="111.5" r="6.9"/>
		<polygon class="st9" points="50.6,140.6 51.3,158.9 54,159.2 55.8,142.7 		"/>
		<path class="st12" d="M59.4,139.1c-0.1-0.6-1.3-1.2-1.5-2c-0.6-3.5-1-7-1.1-10.6l-0.7,8.6c0.8,2.5,1.6,4.9,1.6,6.3
			c-0.1,2.2-0.2,4.7-0.4,7.3l0,0C57.1,148.6,60.3,143,59.4,139.1z"/>
		<path class="st12" d="M54.5,123.3c0,0-2.1,0.8-3.4,7.4c-1.2,6.6-2.1,13.2,0,14.1c2.2,0.9,4,1.5,4.6-0.3c0.6-1.8,1-10.3,1.1-13.3
			C57,128.1,57.1,123.9,54.5,123.3z"/>
		<path class="st9" d="M88.7,146.6c0.8,0.3,1.4,0.8,2,1.3c0.5,0.6,1,1.2,1.4,1.8c0.7,1,1.2,3.2,0.8,3.4c-0.4,0.3-2.7-3.6-3.1-2.7
			c-0.4,0.9,0,1.7-0.5,1.7c-0.5,0-2.2-3.9-3.5-5.1C84.5,145.9,88.7,146.6,88.7,146.6z"/>
		<path class="st24" d="M65.7,206.3c0.5,0,1-0.1,1.5-0.1l0,0l1-40.3L65.7,206.3z"/>
		<path class="st26" d="M61.8,184.5l-1.4-1.9l-15-8.7c-0.5-0.4-0.9-1-0.9-1.7v-12.3l-0.9-1.1l0.8-0.5l0,0c0.2-0.1,0.4-0.1,0.6,0
			l17,9.8c0.5,0.4,0.9,1,0.9,1.7v13.4c0,0.3-0.1,0.6-0.3,0.7l0,0L61.8,184.5z"/>
		<path class="st27" d="M51.5,177.4l-1.1-0.6l-5.9-10.2v-6.7l-0.9-1.1l0.8-0.5l0,0c0.2-0.1,0.4-0.1,0.6,0l17,9.8
			c0.3,0.2,0.5,0.4,0.6,0.7L51.5,177.4z"/>
		<path class="st27" d="M44.1,159.3l-0.4-0.5l0.8-0.5l0,0c0.2-0.1,0.4-0.1,0.6,0l0.3,0.2L44.1,159.3z"/>
		<path class="st26" d="M62.3,168.3c0.4,0.4,0.7,0.9,0.7,1.4l-1.7,1l-0.8-1.4L62.3,168.3z"/>
		<path class="st17" d="M61.3,168.7l-17-9.8c-0.5-0.3-0.9,0-0.9,0.7v13.4c0,0.7,0.3,1.3,0.9,1.7l17,9.8c0.5,0.3,0.9,0,0.9-0.7v-13.4
			C62.2,169.7,61.8,169.1,61.3,168.7z"/>
		<polygon class="st10" points="57.8,178.3 57,177.8 57,170.9 57.8,171.3 		"/>
		<polygon class="st10" points="55.9,177.2 55.1,176.8 55.1,169.8 55.9,170.3 		"/>
		<polygon class="st10" points="54,176.1 53.2,175.7 53.2,168.7 54,169.2 		"/>
		<path class="st9" d="M51.3,158.8c-0.3,1.9-0.5,3.8-0.6,5.7c0.1,1.4,0.8,3.6,1.4,3.6c0.6-0.1,0-5.5,1-5c1,0.5,1.1,1.5,1.5,1.1
			c0.4-0.3-0.7-5-0.4-7S51.3,158.8,51.3,158.8z"/>
		<path class="st11" d="M70.1,112.2c3.4,1.2,4.1,0.5,4.1,0.4c0-0.2,0.1-0.4,0.1-0.6c0-0.7,0-1.5-0.2-2.2l-9-1.2
			C66.3,110.3,68.1,111.5,70.1,112.2z"/>
		<path class="st7" d="M74.6,105.1c-0.8-0.7-3.7-4.1-9-3.3c-3.3,0.5-6,2.7-6.7,7.8c-0.4,3.4,0.8,6.8,3.2,9.3
			c0.1-0.1,0.3-0.1,0.4-0.2c1.3-0.9,1.4-1.3,1.4-1.3l0.3-2.6c0-0.4-0.3-0.7-0.6-0.7c-0.4,0-0.7-0.3-1-0.6c-0.7-1-0.4-2.5,1.1-2.6
			c0.6,0,1.1-0.3,1.2-0.9c0.1-0.3,0.4-0.5,0.8-0.4c0,0,0,0,0,0c1.7,0.6,6,2,8.7,1.2C77.8,109.9,75.4,105.8,74.6,105.1z"/>
		<path class="st10" d="M70.6,115.2l2.1-0.6c-0.6,0.9-1.5,1.6-2.5,2c-1.5,0.4-1.7-0.8-1.7-0.8L70.6,115.2z"/>
		<polygon class="st27" points="54.9,164.1 53.1,163.1 53.8,164.2 54.7,164.5 		"/>
		<path class="st15" d="M94.4,167l20.5-11.7c0.3-0.2,0.6-0.5,0.6-0.9l0,0v-2.3l-1.1,0.9l-12.8-7.5c-1.1-0.6-2.4-0.7-3.5-0.2
			l-19.6,11.1l-1.5-0.9v2.3l0,0c0.1,0.5,0.4,0.9,0.8,1.1l13.1,7.7C91.9,167.5,93.2,167.5,94.4,167z"/>
		<path class="st15" d="M77.5,154.8L98,143.1c1.1-0.5,2.5-0.4,3.5,0.2l13.1,7.7c1,0.6,1.2,1.5,0.2,2l-20.5,11.7
			c-1.1,0.5-2.5,0.5-3.5-0.2l-13.1-7.7C76.7,156.2,76.6,155.3,77.5,154.8z"/>
		<path class="st10" d="M94.4,164.7l20.5-11.7c0.4-0.2,0.7-0.7,0.6-1.1c-0.1,0.2-0.3,0.4-0.5,0.5l-20.5,11.7
			c-1.1,0.5-2.5,0.4-3.5-0.2l-13.1-7.7c-0.4-0.2-0.7-0.5-0.8-0.9c-0.2,0.5,0,1.1,0.7,1.5l13.1,7.7C91.9,165.1,93.2,165.2,94.4,164.7
			z"/>
		<path class="st10" d="M99,151.7c-0.4-0.1-0.7-0.6-0.5-1.1c0.1-0.3,0.3-0.5,0.5-0.5c0.9-0.4,1.9-0.4,2.8,0c0.4,0.2,0.7,0.6,0.5,1.1
			c-0.1,0.2-0.3,0.4-0.5,0.5C100.9,152.1,99.9,152.1,99,151.7z"/>
		<path class="st10" d="M94.9,154.1c-0.4-0.1-0.7-0.6-0.5-1.1c0.1-0.3,0.3-0.5,0.5-0.5c0.9-0.4,1.9-0.4,2.8,0
			c0.4,0.2,0.7,0.6,0.5,1.1c-0.1,0.2-0.3,0.4-0.5,0.5C96.8,154.5,95.8,154.5,94.9,154.1z"/>
		<path class="st10" d="M90.7,156.5c-0.4-0.1-0.7-0.6-0.5-1.1c0.1-0.3,0.3-0.5,0.5-0.5c0.9-0.4,1.9-0.4,2.8,0
			c0.4,0.2,0.7,0.6,0.5,1.1c-0.1,0.2-0.3,0.4-0.5,0.5C92.6,156.9,91.5,156.9,90.7,156.5z"/>
		<path class="st18" d="M209.9,183.4c0,1.9-1.3,2.7-3,1.7c-1.8-1.1-2.9-3.1-3-5.2c0-1.9,1.3-2.7,3-1.7
			C208.6,179.3,209.8,181.3,209.9,183.4z"/>
		<path class="st18" d="M211.1,188.7C211.1,188.7,211.1,188.7,211.1,188.7c-0.1-0.9-0.9-1.6-1.4-1.4c-1,0.3-2,0.1-2.8-0.5
			c-1.1-0.7-2.1-1.7-2.8-2.8c-0.5-0.7-1.3-0.9-1.4-0.3c0,0,0,0.1,0,0.1l-1.4,9l11.3,6.5L211.1,188.7z"/>
		<path class="st10" d="M209.9,183.4c0,1.9-1.3,2.7-3,1.7c-1.8-1.1-2.9-3.1-3-5.2c0-1.9,1.3-2.7,3-1.7
			C208.6,179.3,209.8,181.3,209.9,183.4z"/>
		<path class="st10" d="M211.1,188.7C211.1,188.7,211.1,188.7,211.1,188.7c-0.1-0.9-0.9-1.6-1.4-1.4c-1,0.3-2,0.1-2.8-0.5
			c-1.1-0.7-2.1-1.7-2.8-2.8c-0.5-0.7-1.3-0.9-1.4-0.3c0,0,0,0.1,0,0.1l-1.4,9l11.3,6.5L211.1,188.7z"/>
		<polygon class="st10" points="213.3,206.2 199.6,198.3 199.6,197.3 213.3,205.2 		"/>
		<polygon class="st10" points="209.2,208.1 199.6,202.6 199.6,201.6 209.2,207.1 		"/>
		<polygon class="st10" points="207.9,205.2 199.6,200.4 199.6,199.4 207.9,204.2 		"/>
		<polygon class="st10" points="213.3,208.3 209.2,205.9 209.2,204.9 213.3,207.3 		"/>
		<polygon class="st2" points="213.4,140.3 199.7,132.4 199.7,131.4 213.4,139.3 		"/>
		<polygon class="st2" points="209.2,142.2 199.7,136.7 199.7,135.7 209.2,141.2 		"/>
		<polygon class="st2" points="207.9,139.3 199.7,134.5 199.7,133.5 207.9,138.3 		"/>
		<polygon class="st2" points="213.4,142.4 209.2,140 209.2,139.1 213.4,141.4 		"/>
		<polygon class="st2" points="213.4,148.6 199.7,140.7 199.7,139.7 213.4,147.6 		"/>
		<polygon class="st2" points="209.2,150.5 199.7,145 199.7,144 209.2,149.5 		"/>
		<polygon class="st2" points="207.9,147.6 199.7,142.9 199.7,141.9 207.9,146.6 		"/>
		<polygon class="st2" points="213.4,150.7 209.2,148.4 209.2,147.4 213.4,149.8 		"/>
		<polygon class="st2" points="213.4,156.9 199.7,149 199.7,148 213.4,155.9 		"/>
		<polygon class="st2" points="209.2,158.8 199.7,153.3 199.7,152.3 209.2,157.8 		"/>
		<polygon class="st2" points="207.9,155.9 199.7,151.2 199.7,150.2 207.9,155 		"/>
		<polygon class="st2" points="213.4,159.1 209.2,156.7 209.2,155.7 213.4,158.1 		"/>
		<polygon class="st10" points="170.2,180.2 160.5,174.6 160.5,173.7 170.2,179.3 		"/>
		<polygon class="st10" points="176.3,183.7 172.1,181.3 172.1,180.4 176.3,182.8 		"/>
		<polygon class="st10" points="170.6,182.4 166.4,180 166.4,179.1 170.6,181.5 		"/>
		<polygon class="st10" points="179.6,187.6 172.1,183.3 172.1,182.4 179.6,186.7 		"/>
		<polygon class="st10" points="184.7,192.6 173.7,186.2 173.7,185.3 184.7,191.7 		"/>
		<polygon class="st10" points="182.3,187.2 178.1,184.8 178.1,183.9 182.3,186.3 		"/>
		<polygon class="st10" points="164.7,179 160.5,176.6 160.5,175.7 164.7,178.1 		"/>
		<polygon class="st10" points="171.9,185.2 160.5,178.6 160.5,177.7 171.9,184.2 		"/>
		<polygon class="st10" points="167.5,184.6 160.6,180.6 160.6,179.7 167.5,183.7 		"/>
		<path class="st15" d="M268.7,232.6c-0.4,0-0.7-0.3-0.7-0.7c0-0.3,0.1-0.5,0.4-0.6l28.9-17.1c0.2-0.1,0.3-0.3,0.3-0.5
			c0-0.2-0.1-0.4-0.3-0.5l-7.9-4.7c-0.4-0.2-0.6-0.6-0.4-1c0.2-0.4,0.6-0.6,1-0.4c0.1,0,0.1,0.1,0.2,0.1l7.9,4.7
			c1,0.6,1.3,1.8,0.7,2.8c-0.2,0.3-0.4,0.5-0.7,0.7l-28.9,17.1C269,232.6,268.9,232.6,268.7,232.6z"/>
		<polygon class="st0" points="274.4,245.7 264.4,239.9 254.3,245.7 264.4,251.5 		"/>
		<polygon class="st28" points="264.4,246.1 264.4,239.6 276.3,232.7 276.3,239.2 		"/>
		<polygon class="st28" points="264.4,239.6 252.4,232.7 252.4,239.2 264.4,246.1 		"/>
		<polygon class="st17" points="276.3,232.7 264.4,225.8 252.4,232.7 264.4,239.6 		"/>
		<polygon class="st19" points="167.6,93.6 169.6,100.2 174.8,103.8 170.8,105.4 172,111.9 167.6,106.2 163.1,106.8 164.3,101.6 
			160.4,95.5 165.6,97.9 		"/>
		<polygon class="st19" points="184.1,103 186.1,109.6 191.3,113.2 187.3,114.8 188.5,121.4 184.1,115.7 179.6,116.2 180.8,111 
			176.9,104.9 182,107.3 		"/>
		<polygon class="st19" points="158.3,94.3 153.1,90.8 151.1,84.1 150.8,84.8 150.8,96.8 151.1,96.8 155.5,102.5 154.4,95.9 		"/>
		<polygon class="st29" points="114.6,60.9 116.7,67.5 121.8,71.1 117.9,72.7 119.1,79.3 114.6,73.6 110.2,74.1 111.4,68.9 
			107.4,62.8 112.6,65.2 		"/>
		<path class="st30" d="M105,64.2l2.4-1.4l3.7,1.7c0,0,0,2.5,0,2.6c-0.5,0.1-1.1,0.1-1.6,0.1C109.4,67.2,105,64.2,105,64.2z"/>
		<path class="st29" d="M119.1,79.3l-2.4,1.4l-1.2-6.6c0,0,1.2-1.2,1.2-1.2l1.3,0.2L119.1,79.3z"/>
		<polygon class="st31" points="112.2,62.3 114.3,68.9 119.4,72.5 115.5,74.1 116.7,80.7 112.2,74.9 107.8,75.5 109,70.3 105,64.2 
			110.2,66.6 		"/>
		<path class="st10" d="M116.7,80.7l-1.2-6.6l3.9-1.6l-5.2-3.6l-2-6.6l-2,4.3l-5.2-2.4l0.4,0.6l5,2.3l1.8-3.8l1.8,5.9l4.7,3.3
			l-3.6,1.5l1.1,6.2L116.7,80.7z"/>
		<polygon class="st29" points="112.2,62.3 114.6,60.9 116.7,67.5 114.3,68.9 		"/>
		<polygon class="st30" points="121.8,71.1 119.4,72.5 114.3,68.9 116.7,67.5 		"/>
		<polygon class="st10" points="114.4,69.1 114,68.9 116.6,67.4 116.7,67.5 116.8,67.7 		"/>
		<polygon class="st29" points="131.1,70.3 133.1,77 138.3,80.5 134.4,82.1 135.6,88.7 131.1,83 126.7,83.6 127.9,78.4 123.9,72.2 
			129.1,74.6 		"/>
		<path class="st30" d="M121.5,73.6l2.4-1.4l3.7,1.7c0,0,0,2.5,0,2.6c-0.5,0.1-1.1,0.1-1.6,0.1C125.9,76.7,121.5,73.6,121.5,73.6z"
			/>
		<path class="st29" d="M135.6,88.7l-2.4,1.4l-1.2-6.6l1.2-1.2l1.3,0.2L135.6,88.7z"/>
		<polygon class="st31" points="128.7,71.7 130.7,78.4 135.9,81.9 132,83.5 133.2,90.1 128.7,84.4 124.3,85 125.4,79.7 121.5,73.6 
			126.7,76 		"/>
		<path class="st10" d="M133.2,90.1l-1.2-6.6l3.9-1.6l-5.2-3.6l-2-6.6l-2,4.3l-5.2-2.4l0.4,0.6l5,2.3l1.8-3.8l1.8,5.9l4.7,3.3
			l-3.6,1.5l1.1,6.2L133.2,90.1z"/>
		<polygon class="st29" points="128.7,71.7 131.1,70.3 133.1,77 130.7,78.4 		"/>
		<polygon class="st30" points="138.3,80.5 135.9,81.9 130.7,78.4 133.1,77 		"/>
		<polygon class="st10" points="130.9,78.5 130.5,78.3 133.1,76.8 133.1,77 133.3,77.1 		"/>
		<polygon class="st29" points="147.6,79.8 149.6,86.4 154.8,90 150.9,91.6 152.1,98.1 147.6,92.4 143.2,93 144.3,87.8 140.4,81.7 
			145.6,84.1 		"/>
		<path class="st30" d="M138,83l2.4-1.4l3.7,1.7c0,0,0,2.5,0,2.6c-0.5,0.1-1.1,0.1-1.6,0.1C142.4,86.1,138,83,138,83z"/>
		<path class="st29" d="M152.1,98.1l-2.4,1.4l-1.2-6.6c0,0,1.2-1.2,1.2-1.2l1.3,0.2L152.1,98.1z"/>
		<polygon class="st31" points="145.2,81.2 147.2,87.8 152.4,91.4 148.5,93 149.7,99.5 145.2,93.8 140.8,94.4 141.9,89.2 138,83 
			143.2,85.5 		"/>
		<path class="st10" d="M149.6,99.5l-1.2-6.6l3.9-1.6l-5.2-3.6l-2-6.6l-2,4.3L138,83l0.4,0.6l5,2.3l1.8-3.8l1.8,5.9l4.7,3.3
			l-3.6,1.5l1.1,6.2L149.6,99.5z"/>
		<polygon class="st29" points="145.2,81.2 147.6,79.8 149.6,86.4 147.2,87.8 		"/>
		<polygon class="st30" points="154.8,90 152.4,91.4 147.2,87.8 149.6,86.4 		"/>
		<polygon class="st10" points="147.3,88 147,87.8 149.6,86.2 149.6,86.4 149.8,86.5 		"/>
		<polygon class="st29" points="164.1,89.2 166.1,95.8 171.3,99.4 167.4,101 168.6,107.6 164.1,101.9 159.7,102.5 160.8,97.2 
			156.9,91.1 162.1,93.5 		"/>
		<path class="st30" d="M154.5,92.5l2.4-1.4l3.7,1.7c0,0,0,2.5,0,2.6c-0.5,0.1-1.1,0.1-1.6,0.1C158.9,95.5,154.5,92.5,154.5,92.5z"
			/>
		<path class="st29" d="M168.6,107.6l-2.4,1.4l-1.2-6.6c0,0,1.2-1.2,1.2-1.2l1.3,0.2L168.6,107.6z"/>
		<polygon class="st31" points="161.7,90.6 163.7,97.2 168.9,100.8 165,102.4 166.1,109 161.7,103.3 157.2,103.8 158.4,98.6 
			154.5,92.5 159.7,94.9 		"/>
		<path class="st10" d="M166.1,109l-1.2-6.6l3.9-1.6l-5.2-3.6l-2-6.7l-2,4.3l-5.2-2.4l0.4,0.6l5,2.4l1.8-3.8l1.8,5.9l4.7,3.3
			l-3.6,1.5l1.1,6.2L166.1,109z"/>
		<polygon class="st29" points="161.7,90.6 164.1,89.2 166.1,95.8 163.7,97.2 		"/>
		<polygon class="st30" points="171.3,99.4 168.9,100.8 163.7,97.2 166.1,95.8 		"/>
		<polygon class="st10" points="163.8,97.4 163.5,97.2 166.1,95.7 166.1,95.8 166.3,96 		"/>
		<polygon class="st29" points="180.6,98.7 182.6,105.3 187.8,108.8 183.9,110.4 185,117 180.6,111.3 176.2,111.9 177.3,106.7 
			173.4,100.5 178.6,103 		"/>
		<path class="st30" d="M171,101.9l2.4-1.4l3.7,1.7c0,0,0,2.5,0,2.6c-0.5,0.1-1.1,0.1-1.6,0.1C175.4,105,171,101.9,171,101.9z"/>
		<path class="st29" d="M185,117l-2.4,1.4l-1.2-6.6l1.2-1.2l1.3,0.2L185,117z"/>
		<polygon class="st31" points="178.2,100 180.2,106.7 185.4,110.2 181.5,111.8 182.6,118.4 178.2,112.7 173.7,113.3 174.9,108.1 
			171,101.9 176.2,104.3 		"/>
		<path class="st10" d="M182.6,118.4l-1.2-6.6l3.9-1.6l-5.2-3.6l-2-6.6l-2,4.3l-5.2-2.4l0.4,0.6l5,2.3l1.8-3.8l1.8,5.9l4.7,3.3
			l-3.6,1.5l1.1,6.2L182.6,118.4z"/>
		<polygon class="st29" points="178.2,100 180.6,98.7 182.6,105.3 180.2,106.7 		"/>
		<polygon class="st30" points="187.8,108.8 185.4,110.2 180.2,106.7 182.6,105.3 		"/>
		<polygon class="st10" points="180.3,106.8 180,106.6 182.6,105.1 182.6,105.3 182.8,105.4 		"/>
	</g>
</g>
</svg>
