<?xml version="1.0" encoding="utf-8"?>
<!-- Generator: Adobe Illustrator 21.1.0, SVG Export Plug-In . SVG Version: 6.00 Build 0)  -->
<svg version="1.1" id="Layer_1" xmlns="http://www.w3.org/2000/svg" xmlns:xlink="http://www.w3.org/1999/xlink" x="0px" y="0px"
	 viewBox="0 0 500 500" style="enable-background:new 0 0 500 500;" xml:space="preserve">
<style type="text/css">
	.st0{fill:#005EB8;}
	.st1{fill:#EEEEEE;}
	.st2{fill:none;stroke:#FFFFFF;stroke-width:7.5;stroke-miterlimit:10;}
	.st3{fill:#4BAFF9;}
	.st4{fill:#70BEF2;}
	.st5{fill:#F4CAAF;}
	.st6{fill:#EAB99A;}
	.st7{fill:#494B51;}
	.st8{fill:#E0E0E0;}
	.st9{fill:#FFFFFF;}
	.st10{fill:#2D2D2D;}
	.st11{fill:#B7B7B7;}
	.st12{fill:#95A5A6;}
	.st13{fill:#FBB040;}
	.st14{fill:#ED8B00;}
	.st15{fill:#ACD9FC;}
	.st16{fill:#D4EDFC;}
	.st17{fill:#505050;}
	.st18{fill:#303030;}
	.st19{fill:#808080;}
	.st20{fill:#CCCCCC;}
	.st21{fill:#FFCB6E;}
</style>
<g>
	<g>
		<polygon class="st0" points="431.5,330.8 403.4,299.3 348.8,389.2 387.5,403.3 		"/>
	</g>
	<g>
		<g>
			<polygon class="st0" points="81.3,321 122.3,333.6 122.3,226.7 81.3,234.9 			"/>
		</g>
		<g>
			<g>
				<circle class="st1" cx="257.5" cy="261.2" r="165.6"/>
			</g>
			<g>
				<circle class="st2" cx="257.5" cy="261.2" r="121"/>
			</g>
			<g>
				<g>
					<polygon class="st3" points="81.6,321 40.5,333.6 40.5,226.7 81.6,234.9 					"/>
				</g>
				<g>
					<g>
						<path class="st4" d="M46.7,357.7l-9.7,0.9c-8.5,0.8-19.2-6.1-19.9-14.6L7,230.6c-0.7-8.5,8.5-16.8,16.9-17.6l9.7-0.9
							c8.5-0.8,19.7,12.2,20.5,20.7l6.5,108.1C61.4,349.4,55.1,356.9,46.7,357.7z"/>
					</g>
				</g>
				<g>
					<g>
						<polygon class="st5" points="77.3,276 85.8,278.8 85.8,280.8 77.3,286.1 						"/>
					</g>
					<g>
						<polygon class="st6" points="63.1,252.2 78.9,266 78.9,295.2 63.1,309.4 44.8,272.6 						"/>
					</g>
					<g>
						<path class="st7" d="M64.2,256.4c1.1-33.7-99.9,5.8-50.8,52.9c14.2,13.6,48.5,10.5,55.3-6C75.7,286.1,55.7,270.1,64.2,256.4z"
							/>
					</g>
				</g>
				<g>
					<g>
						<polygon class="st4" points="19.6,214.8 94.2,184.7 152.1,224.4 139.5,239.4 95,211.7 41.4,239.4 						"/>
					</g>
				</g>
				<g>
					<g>
						<polygon class="st4" points="46.9,318.5 112.3,329.3 142.2,292.2 160.4,300.8 120.2,358.6 35.3,358.5 						"/>
					</g>
				</g>
				<g>
					
						<rect x="103.8" y="244.1" transform="matrix(0.9541 -0.2994 0.2994 0.9541 -73.7835 53.8573)" class="st8" width="70.1" height="47.4"/>
				</g>
				<g>
					
						<rect x="103.8" y="244.1" transform="matrix(0.9808 -0.1952 0.1952 0.9808 -49.5845 32.2554)" class="st9" width="70.1" height="47.4"/>
				</g>
			</g>
			<g>
				<polygon class="st6" points="142.2,236.1 146.2,249.9 151.6,254.3 152.8,251.8 149.8,248.1 148.8,242.8 154.1,244 159.3,254.3 
					156.9,259.1 159.3,261.4 164.5,255.7 165.8,246.5 163.4,236.2 150.4,226.7 				"/>
			</g>
			<g>
				<path class="st6" d="M146.7,294.4l0.3-10.8l4.1-7.4c0.1-0.2,0.2-0.3,0.4-0.5l2.3-2.6l2.2,1.2l-2.2,4.7l-1.6,7.1h3.8l8.2-11.1
					l0.9-4.9l7,2.8l1.4,8.7l-7,13.6l-7.9,4.8L146.7,294.4z"/>
			</g>
			<g>
				<g>
					<ellipse class="st10" cx="259.6" cy="34.7" rx="13.2" ry="16.7"/>
				</g>
				<g>
					<ellipse class="st0" cx="259.5" cy="34.3" rx="4.5" ry="2.3"/>
				</g>
				<g>
					<path class="st0" d="M312.2,70.2c0,6.5-4.9,11.8-10.9,11.8h-79.1c-6,0-10.9-5.3-10.9-11.8c0-9.3,6.9-16.8,15.5-16.8h69.9
						C305.3,53.4,312.2,60.9,312.2,70.2z"/>
				</g>
				<g>
					<path class="st10" d="M285.8,56.6C277,72.2,271,80.3,259.6,78.8c-14.5,0-26.2-10-26.2-22.2c0-12.3,11.7-22.2,26.2-22.2
						C274,34.3,285.8,44.3,285.8,56.6z"/>
				</g>
				<g>
					<path class="st0" d="M258.2,88.7c0,4.7-7.6,8.6-16.9,8.6c-9.3,0-16.9-3.8-16.9-8.6c0-4.7-3.8-10.7,5.5-10.7
						C239.2,77.9,258.2,83.9,258.2,88.7z"/>
				</g>
				<g>
					<path class="st0" d="M297.8,89.4c0,4.7-7.6,8.6-16.9,8.6c-9.3,0-16.9-3.8-16.9-8.6c0-4.7,18.1-13.3,27.5-13.3
						C300.8,76.1,297.8,84.7,297.8,89.4z"/>
				</g>
				<g>
					<g>
						<path class="st6" d="M283.8,73.3c0,14.4-11,22.5-24.6,22.5c-13.6,0-24.6-8.1-24.6-22.5c0-14.4,11-26.1,24.6-26.1
							C272.8,47.3,283.8,58.9,283.8,73.3z"/>
					</g>
					<g>
						<ellipse class="st6" cx="259.2" cy="92.9" rx="3.1" ry="7"/>
					</g>
					<g>
						<path class="st10" d="M239.3,83h34.2l3.3-2.4l5.5,1.4c1.4-0.6,12.5-32.6-7-43.2l-36,3.8C239.2,42.6,222.8,61.8,239.3,83z"/>
					</g>
				</g>
				<g>
					<path class="st11" d="M304.6,172.6h-83.9c-1.1,0-2-0.9-2-2v-37.8c0-1.1,0.9-2,2-2h83.9c1.1,0,2,0.9,2,2v37.8
						C306.5,171.7,305.6,172.6,304.6,172.6z"/>
				</g>
				<g>
					<g>
						<rect x="236.1" y="142.5" class="st12" width="54.5" height="25"/>
					</g>
					<g>
						<g>
							<rect x="248.8" y="143.9" class="st11" width="29.5" height="3.4"/>
						</g>
						<g>
							<g>
								<rect x="237.8" y="148.3" class="st11" width="6.1" height="2.8"/>
							</g>
							<g>
								<rect x="245.3" y="148.3" class="st11" width="6.1" height="2.8"/>
							</g>
							<g>
								<rect x="252.8" y="148.3" class="st11" width="6.1" height="2.8"/>
							</g>
							<g>
								<rect x="260.3" y="148.3" class="st11" width="6.1" height="2.8"/>
							</g>
							<g>
								<rect x="267.8" y="148.3" class="st11" width="6.1" height="2.8"/>
							</g>
							<g>
								<g>
									<rect x="275.4" y="148.3" class="st11" width="6.1" height="2.8"/>
								</g>
							</g>
							<g>
								<g>
									<rect x="282.9" y="148.3" class="st11" width="6.1" height="2.8"/>
								</g>
							</g>
						</g>
						<g>
							<g>
								<rect x="237.8" y="151.9" class="st11" width="6.1" height="2.8"/>
							</g>
							<g>
								<rect x="245.3" y="151.9" class="st11" width="6.1" height="2.8"/>
							</g>
							<g>
								<rect x="252.8" y="151.9" class="st11" width="6.1" height="2.8"/>
							</g>
							<g>
								<rect x="260.3" y="151.9" class="st11" width="6.1" height="2.8"/>
							</g>
							<g>
								<rect x="267.8" y="151.9" class="st11" width="6.1" height="2.8"/>
							</g>
							<g>
								<g>
									<rect x="275.4" y="151.9" class="st11" width="6.1" height="2.8"/>
								</g>
							</g>
							<g>
								<g>
									<rect x="282.9" y="151.9" class="st11" width="6.1" height="2.8"/>
								</g>
							</g>
						</g>
						<g>
							<g>
								<rect x="237.8" y="155.5" class="st11" width="6.1" height="2.8"/>
							</g>
							<g>
								<rect x="245.3" y="155.5" class="st11" width="6.1" height="2.8"/>
							</g>
							<g>
								<rect x="252.8" y="155.5" class="st11" width="6.1" height="2.8"/>
							</g>
							<g>
								<rect x="260.3" y="155.5" class="st11" width="6.1" height="2.8"/>
							</g>
							<g>
								<rect x="267.8" y="155.5" class="st11" width="6.1" height="2.8"/>
							</g>
							<g>
								<g>
									<rect x="275.4" y="155.5" class="st11" width="6.1" height="2.8"/>
								</g>
							</g>
							<g>
								<g>
									<rect x="282.9" y="155.5" class="st11" width="6.1" height="2.8"/>
								</g>
							</g>
						</g>
						<g>
							<g>
								<rect x="237.8" y="159.1" class="st11" width="6.1" height="2.8"/>
							</g>
							<g>
								<rect x="245.3" y="159.1" class="st11" width="6.1" height="2.8"/>
							</g>
							<g>
								<rect x="252.8" y="159.1" class="st11" width="6.1" height="2.8"/>
							</g>
							<g>
								<rect x="260.3" y="159.1" class="st11" width="6.1" height="2.8"/>
							</g>
							<g>
								<rect x="267.8" y="159.1" class="st11" width="6.1" height="2.8"/>
							</g>
							<g>
								<g>
									<rect x="275.4" y="159.1" class="st11" width="6.1" height="2.8"/>
								</g>
							</g>
							<g>
								<g>
									<rect x="282.9" y="159.1" class="st11" width="6.1" height="2.8"/>
								</g>
							</g>
						</g>
						<g>
							<g>
								<rect x="237.8" y="162.7" class="st11" width="3" height="2.8"/>
							</g>
							<g>
								<rect x="241.4" y="162.7" class="st11" width="3" height="2.8"/>
							</g>
							<g>
								<rect x="245.1" y="162.7" class="st11" width="3" height="2.8"/>
							</g>
							<g>
								<rect x="248.7" y="162.7" class="st11" width="3" height="2.8"/>
							</g>
							<g>
								<rect x="252.3" y="162.7" class="st11" width="3" height="2.8"/>
							</g>
							<g>
								<g>
									<rect x="256" y="162.7" class="st11" width="3" height="2.8"/>
								</g>
							</g>
							<g>
								<g>
									<rect x="259.6" y="162.7" class="st11" width="3" height="2.8"/>
								</g>
							</g>
						</g>
						<g>
							<g>
								<rect x="263.6" y="162.7" class="st11" width="3.1" height="2.8"/>
							</g>
							<g>
								<rect x="267.3" y="162.7" class="st11" width="3.1" height="2.8"/>
							</g>
							<g>
								<rect x="271.1" y="162.7" class="st11" width="3.1" height="2.8"/>
							</g>
							<g>
								<rect x="274.8" y="162.7" class="st11" width="3.1" height="2.8"/>
							</g>
							<g>
								<rect x="278.6" y="162.7" class="st11" width="3.1" height="2.8"/>
							</g>
							<g>
								<g>
									<rect x="282.4" y="162.7" class="st11" width="3.1" height="2.8"/>
								</g>
							</g>
							<g>
								<g>
									<rect x="286.1" y="162.7" class="st11" width="3.1" height="2.8"/>
								</g>
							</g>
						</g>
					</g>
				</g>
				<g>
					<polygon class="st5" points="232.9,131.9 248.5,140.3 252.7,143.2 251.4,143.9 245.6,141 242.8,141 242.8,142.3 251.4,148.4 
						254.2,151.1 254.2,154.2 251.4,157.8 246.4,157.8 231,147.9 225.5,141.4 					"/>
				</g>
				<g>
					<polygon class="st5" points="288.9,128.1 282.3,133.2 278.2,137.7 277.3,140.3 279.1,141.7 281.1,138.1 285.8,137 281.1,144.9 
						274,147 274,149.8 278.4,154.2 281.5,154.2 292.5,148.2 296.6,139 					"/>
				</g>
				<g>
					<polygon class="st0" points="213.1,62.6 188.6,113.9 224.1,143.2 234.6,129.8 209.4,107 224.8,76.9 					"/>
				</g>
				<g>
					<polygon class="st0" points="311.3,64.5 328.3,113 297.5,140.3 287.8,126.5 312.2,105.2 299.3,81 					"/>
				</g>
				<g>
					<path class="st12" d="M310.3,174.2h-95.4c-1,0-1.8-0.8-1.8-1.8l0,0c0-1,0.8-1.8,1.8-1.8h95.4c1,0,1.8,0.8,1.8,1.8l0,0
						C312.1,173.4,311.3,174.2,310.3,174.2z"/>
				</g>
				<g>
					<path class="st12" d="M272.7,141.1h-18.2c-1.1,0-2.1-0.9-2.1-2.1v-4.1c0-1.1,0.9-2.1,2.1-2.1h18.2c1.1,0,2.1,0.9,2.1,2.1v4.1
						C274.7,140.2,273.8,141.1,272.7,141.1z"/>
				</g>
			</g>
			<g>
				<g>
					<g>
						<path class="st13" d="M329.2,315.9l-18.3,17.8l-22.1-8.3l-8.5,3.3l-10.5,21.4l-25.5-0.1l-9.8-21.7l-8.6-3.3l-22.6,7.8
							l-17.8-18.3l8.3-22.1l-3.3-8.5L169,273.4l0.1-25.5l21.7-9.8l3.3-8.6l-7.8-22.6l18.3-17.8l22.1,8.3l8.5-3.3l9.7-21.6l25.5,0.1
							l9.8,21.7l8.6,3.3l22.6-7.8l17.8,18.3l-8,22.4l3.3,8.5l21.4,10.5l-0.1,25.5l-21.7,9.8l-3.3,8.6L329.2,315.9z"/>
						<g>
							<path class="st14" d="M287.2,304.9c-21,14.3-49.5,12.6-67.5-6.6c-20.8-20.8-20-54.6,0.5-75.1c10.1-9.8,23.5-15.5,38.1-14.9
								c14.3,0.2,27.5,5.7,37.3,15.8l0,0c9.8,10.1,15.5,23.5,14.9,38.1c-0.8,14.3-6.3,26.9-16.4,36.7
								C291.9,301.5,289.4,303.3,287.2,304.9z"/>
							<g id="XMLID_1_">
								<g>
									<path class="st9" d="M224.9,292.7c-17.6-17.2-17.1-46.8,0.5-63.9c1.3-1.3,3.5-2.6,6.1-4.3c7.5-5.5,16.6-8.4,25.8-8.7
										c0.7,0,1.4-0.1,2.1-0.1c11.4,0,21.8,5.2,30.3,13.2c7.7,7.9,12.7,19.3,12.1,31.9c0.7,12.2-4.7,23.4-13.1,32.4
										C271.2,311.2,242,310.3,224.9,292.7z"/>
								</g>
								<g>
								</g>
							</g>
						</g>
					</g>
				</g>
				<g>
					<path class="st14" d="M243.8,275l-1.4-5.4h-9.4l-1.5,5.4h-8.6l9.5-29.2h10.5l9.6,29.2H243.8z M240.7,263.1l-1.3-4.8
						c-0.3-1.1-0.6-2.4-1.1-4.1s-0.7-2.9-0.8-3.6c-0.1,0.7-0.4,1.8-0.7,3.3c-0.4,1.6-1.1,4.6-2.3,9.2H240.7z"/>
					<path class="st14" d="M276.6,255.2c0,3.2-1,5.8-2.9,7.5c-1.9,1.8-4.6,2.7-8.2,2.7h-2.2v9.6h-7.8v-29h10.1
						c3.7,0,6.4,0.8,8.3,2.4S276.6,252.2,276.6,255.2z M263.3,259h1.4c1.2,0,2.1-0.3,2.8-1c0.7-0.7,1-1.6,1-2.7c0-2-1.1-2.9-3.3-2.9
						h-2V259z"/>
					<path class="st14" d="M281.2,275v-29h7.9v29H281.2z"/>
				</g>
			</g>
			<g>
				<g>
					<polygon class="st15" points="386.9,405.6 415.5,437.6 471,346.2 431.6,331.9 					"/>
				</g>
				<g>
					<path class="st16" d="M397.8,455l7.9,5.8c6.8,5,19.6,4.7,24.6-2.2l67.4-91.7c5-6.8,1.5-18.8-5.4-23.8l-7.9-5.8
						c-6.8-5-23.2,0.2-28.3,7.1l-61.7,89C389.5,440.3,390.9,450,397.8,455z"/>
				</g>
				<g>
					<g>
						<path class="st5" d="M413.2,368.5l-5.3-0.2c-2-0.1-3.4,2.1-2.4,3.9l2.5,4.9L413.2,368.5z"/>
					</g>
					<g>
						<path class="st6" d="M430,357.8l-8.3,1.4c-2.5,0.4-4.6,1.9-5.9,4l-11.1,18.3c-1.3,2.1-1.6,4.7-0.9,7l1.7,5.7
							c1.7,5.5,8.1,7.9,12.9,4.8l20.1-12.7c3-1.9,4.5-5.4,3.9-8.9l-2.4-12.7C439.1,360.1,434.6,357,430,357.8z"/>
					</g>
					<g>
						<path class="st10" d="M435.3,358.6c26.3-29.2,75.1,60.1,16.8,72.1c-14.7,3-48-12.2-47-30.1C406,382.2,435.5,379.3,435.3,358.6
							z"/>
					</g>
				</g>
				<g>
					<g>
						<path class="st17" d="M309.2,338.1l65.2-65.2c0.8-0.8,2.2-0.8,3.1,0l29.4,29.4c0.8,0.8,0.8,2.2,0,3.1l-65.2,65.2
							c-0.8,0.8-2.2,0.8-3.1,0l-29.4-29.4C308.3,340.3,308.3,338.9,309.2,338.1z"/>
					</g>
					<g>
						<g>
							
								<rect x="324.9" y="306" transform="matrix(-0.7071 0.7071 -0.7071 -0.7071 831.9713 294.9756)" class="st18" width="60" height="27.5"/>
						</g>
						<g>
							<g>
								
									<rect x="345.8" y="325.3" transform="matrix(-0.7071 0.7071 -0.7071 -0.7071 849.4532 302.611)" class="st19" width="32.4" height="3.8"/>
							</g>
							<g>
								<g>
									
										<rect x="373.2" y="304.9" transform="matrix(-0.7071 0.7071 -0.7071 -0.7071 859.4995 256.8087)" class="st19" width="6.8" height="3.1"/>
								</g>
								<g>
									
										<rect x="367.3" y="310.7" transform="matrix(-0.7071 0.7071 -0.7071 -0.7071 853.6563 270.9128)" class="st19" width="6.8" height="3.1"/>
								</g>
								<g>
									
										<rect x="361.5" y="316.6" transform="matrix(-0.7071 0.7071 -0.7071 -0.7071 847.8138 285.034)" class="st19" width="6.8" height="3.1"/>
								</g>
								<g>
									
										<rect x="355.7" y="322.4" transform="matrix(-0.7071 0.7071 -0.7071 -0.7071 841.971 299.141)" class="st19" width="6.8" height="3.1"/>
								</g>
								<g>
									
										<rect x="349.8" y="328.3" transform="matrix(-0.7071 0.7071 -0.7071 -0.7071 836.1308 313.2255)" class="st19" width="6.8" height="3.1"/>
								</g>
								<g>
									<g>
										
											<rect x="344" y="334.1" transform="matrix(-0.7071 0.7071 -0.7071 -0.7071 830.2916 327.3299)" class="st19" width="6.8" height="3.1"/>
									</g>
								</g>
								<g>
									<g>
										
											<rect x="338.1" y="339.9" transform="matrix(-0.7071 0.7071 -0.7071 -0.7071 824.4492 341.4357)" class="st19" width="6.8" height="3.1"/>
									</g>
								</g>
							</g>
							<g>
								<g>
									
										<rect x="370.4" y="302.1" transform="matrix(-0.7071 0.7071 -0.7071 -0.7071 852.7254 254.0242)" class="st19" width="6.8" height="3.1"/>
								</g>
								<g>
									
										<rect x="364.5" y="307.9" transform="matrix(-0.7071 0.7071 -0.7071 -0.7071 846.8844 268.1495)" class="st19" width="6.8" height="3.1"/>
								</g>
								<g>
									
										<rect x="358.7" y="313.8" transform="matrix(-0.7074 0.7068 -0.7068 -0.7074 841.0535 282.4264)" class="st19" width="6.8" height="3.1"/>
								</g>
								<g>
									
										<rect x="352.8" y="319.6" transform="matrix(-0.7071 0.7071 -0.7071 -0.7071 835.1993 296.3318)" class="st19" width="6.8" height="3.1"/>
								</g>
								<g>
									
										<rect x="347" y="325.4" transform="matrix(-0.7071 0.7071 -0.7071 -0.7071 829.3579 310.4356)" class="st19" width="6.8" height="3.1"/>
								</g>
								<g>
									<g>
										
											<rect x="341.2" y="331.3" transform="matrix(-0.7071 0.7071 -0.7071 -0.7071 823.5156 324.5621)" class="st19" width="6.8" height="3.1"/>
									</g>
								</g>
								<g>
									<g>
										
											<rect x="335.3" y="337.1" transform="matrix(-0.7071 0.7071 -0.7071 -0.7071 817.6725 338.6679)" class="st19" width="6.8" height="3.1"/>
									</g>
								</g>
							</g>
							<g>
								<g>
									
										<rect x="367.6" y="299.3" transform="matrix(-0.7071 0.7071 -0.7071 -0.7071 845.9468 251.1967)" class="st19" width="6.8" height="3.1"/>
								</g>
								<g>
									
										<rect x="361.7" y="305.1" transform="matrix(-0.7071 0.7071 -0.7071 -0.7071 840.1092 265.3206)" class="st19" width="6.8" height="3.1"/>
								</g>
								<g>
									
										<rect x="355.9" y="311" transform="matrix(-0.7071 0.7071 -0.7071 -0.7071 834.2686 279.4056)" class="st19" width="6.8" height="3.1"/>
								</g>
								<g>
									
										<rect x="350" y="316.8" transform="matrix(-0.7071 0.7071 -0.7071 -0.7071 828.4247 293.5092)" class="st19" width="6.8" height="3.1"/>
								</g>
								<g>
									
										<rect x="344.2" y="322.6" transform="matrix(-0.7068 0.7074 -0.7074 -0.7068 822.5747 307.4182)" class="st19" width="6.8" height="3.1"/>
								</g>
								<g>
									<g>
										
											<rect x="338.4" y="328.5" transform="matrix(-0.7071 0.7071 -0.7071 -0.7071 816.7383 321.7163)" class="st19" width="6.8" height="3.1"/>
									</g>
								</g>
								<g>
									<g>
										
											<rect x="332.5" y="334.3" transform="matrix(-0.7071 0.7071 -0.7071 -0.7071 810.8959 335.8221)" class="st19" width="6.8" height="3.1"/>
									</g>
								</g>
							</g>
							<g>
								<g>
									
										<rect x="364.8" y="296.5" transform="matrix(-0.7071 0.7071 -0.7071 -0.7071 839.1753 248.4077)" class="st19" width="6.8" height="3.1"/>
								</g>
								<g>
									
										<rect x="358.9" y="302.3" transform="matrix(-0.7071 0.7071 -0.7071 -0.7071 833.3357 262.5122)" class="st19" width="6.8" height="3.1"/>
								</g>
								<g>
									
										<rect x="353.1" y="308.1" transform="matrix(-0.7071 0.7071 -0.7071 -0.7071 827.493 276.6179)" class="st19" width="6.8" height="3.1"/>
								</g>
								<g>
									
										<rect x="347.2" y="314" transform="matrix(-0.7071 0.7071 -0.7071 -0.7071 821.6502 290.7237)" class="st19" width="6.8" height="3.1"/>
								</g>
								<g>
									
										<rect x="341.4" y="319.8" transform="matrix(-0.7071 0.7071 -0.7071 -0.7071 815.8067 304.8278)" class="st19" width="6.8" height="3.1"/>
								</g>
								<g>
									<g>
										
											<rect x="335.5" y="325.7" transform="matrix(-0.7071 0.7071 -0.7071 -0.7071 809.9637 318.9511)" class="st19" width="6.8" height="3.1"/>
									</g>
								</g>
								<g>
									<g>
										
											<rect x="329.7" y="331.5" transform="matrix(-0.7071 0.7071 -0.7071 -0.7071 804.1192 333.0547)" class="st19" width="6.8" height="3.1"/>
									</g>
								</g>
							</g>
							<g>
								<g>
									
										<rect x="364.9" y="292.4" transform="matrix(-0.7074 0.7068 -0.7068 -0.7074 833.6556 242.8209)" class="st19" width="3.3" height="3.1"/>
								</g>
								<g>
									
										<rect x="362.1" y="295.3" transform="matrix(-0.7071 0.7071 -0.7071 -0.7071 830.8062 249.453)" class="st19" width="3.3" height="3.1"/>
								</g>
								<g>
									
										<rect x="359.3" y="298.1" transform="matrix(-0.707 0.7072 -0.7072 -0.707 827.9743 256.2408)" class="st19" width="3.3" height="3.1"/>
								</g>
								<g>
									
										<rect x="356.4" y="300.9" transform="matrix(-0.7071 0.7071 -0.7071 -0.7071 825.1498 263.1074)" class="st19" width="3.3" height="3.1"/>
								</g>
								<g>
									
										<rect x="353.6" y="303.7" transform="matrix(-0.7071 0.7071 -0.7071 -0.7071 822.322 269.9347)" class="st19" width="3.3" height="3.1"/>
								</g>
								<g>
									<g>
										
											<rect x="350.8" y="306.6" transform="matrix(-0.7071 0.7071 -0.7071 -0.7071 819.4941 276.7619)" class="st19" width="3.3" height="3.1"/>
									</g>
								</g>
								<g>
									<g>
										
											<rect x="348" y="309.4" transform="matrix(-0.7071 0.7071 -0.7071 -0.7071 816.6663 283.5916)" class="st19" width="3.3" height="3.1"/>
									</g>
								</g>
							</g>
							<g>
								<g>
									
										<rect x="344.8" y="312.5" transform="matrix(-0.7071 0.7072 -0.7072 -0.7071 813.5468 291.0804)" class="st19" width="3.4" height="3.1"/>
								</g>
								<g>
									
										<rect x="341.9" y="315.4" transform="matrix(-0.7071 0.7071 -0.7071 -0.7071 810.6269 298.1692)" class="st19" width="3.4" height="3.1"/>
								</g>
								<g>
									
										<rect x="339" y="318.4" transform="matrix(-0.707 0.7072 -0.7072 -0.707 807.7038 305.1823)" class="st19" width="3.4" height="3.1"/>
								</g>
								<g>
									
										<rect x="336" y="321.3" transform="matrix(-0.7077 0.7065 -0.7065 -0.7077 804.7935 312.6543)" class="st19" width="3.4" height="3.1"/>
								</g>
								<g>
									
										<rect x="333.1" y="324.2" transform="matrix(-0.7076 0.7066 -0.7066 -0.7076 801.8685 319.6691)" class="st19" width="3.4" height="3.1"/>
								</g>
								<g>
									<g>
										
											<rect x="330.2" y="327.1" transform="matrix(-0.7071 0.7071 -0.7071 -0.7071 798.9415 326.3767)" class="st19" width="3.4" height="3.1"/>
									</g>
								</g>
								<g>
									<g>
										
											<rect x="327.3" y="330" transform="matrix(-0.7071 0.7071 -0.7071 -0.7071 796.022 333.4288)" class="st19" width="3.4" height="3.1"/>
									</g>
								</g>
							</g>
						</g>
					</g>
					<g>
						<path class="st18" d="M303.4,341.3l74.2-74.2c0.8-0.8,2-0.8,2.8,0l0,0c0.8,0.8,0.8,2,0,2.8l-74.2,74.2c-0.8,0.8-2,0.8-2.8,0
							l0,0C302.7,343.4,302.7,342.1,303.4,341.3z"/>
					</g>
					<g>
						<path class="st18" d="M358.5,337.8l14.1-14.1c0.9-0.9,2.3-0.9,3.2,0l3.2,3.2c0.9,0.9,0.9,2.3,0,3.2l-14.1,14.1
							c-0.9,0.9-2.3,0.9-3.2,0l-3.2-3.2C357.6,340.1,357.6,338.7,358.5,337.8z"/>
					</g>
				</g>
				<g>
					<polygon class="st6" points="391.5,313.9 372.7,316 367.3,315.9 368,314.5 374.8,313.6 377.3,311.9 376.6,310.8 365.3,310.5 
						361.1,309.8 359.3,307.1 359.6,302.2 364,299.2 383.6,298.7 392.5,301 					"/>
				</g>
				<g>
					<polygon class="st6" points="350.8,359.9 353.8,350.7 354.8,343.6 354,340.6 351.4,340.4 351.8,345.2 348,349.3 347.3,338.7 
						352.8,332.1 350.9,329.3 343.9,328 340.9,330 334.3,342.9 336.6,357.7 					"/>
				</g>
				<g>
					<polygon class="st16" points="495,347 453.8,287.7 389.3,300.2 391.5,313.9 445.8,313.2 458.2,353.1 					"/>
				</g>
				<g>
					<polygon class="st16" points="417.9,421.4 354.1,403.3 350.8,359.9 335.9,356.6 334.4,417.7 407,461.7 					"/>
				</g>
			</g>
		</g>
	</g>
	<path class="st1" d="M81.3,32L72.2,35c-1,0.2-1.4,1-1.8,1.5l-3.8,8.9l-3.1-9.1c-0.2-1-1-1.4-1.5-1.8l-8.9-3.8l9.1-3.1
		c1-0.2,1.4-1,1.8-1.5l3.8-8.9l3.1,9.1c0.2,1,1,1.4,1.5,1.8L81.3,32z"/>
	<path class="st20" d="M38.4,137.8l-11.2,3.8c-1.2,0.3-1.7,1.2-2.2,1.9l-4.7,11l-3.8-11.2c-0.3-1.2-1.2-1.7-1.9-2.2l-11-4.7
		l11.2-3.8c1.2-0.3,1.7-1.2,2.2-1.9l4.7-11l3.8,11.2c0.3,1.2,1.2,1.7,1.9,2.2L38.4,137.8z"/>
	<path class="st20" d="M404.3,21l-11.2,3.8c-1.2,0.3-1.7,1.2-2.2,1.9l-4.7,11l-3.8-11.2c-0.3-1.2-1.2-1.7-1.9-2.2l-11-4.7l11.2-3.8
		c1.2-0.3,1.7-1.2,2.2-1.9l4.7-11l3.8,11.2c0.3,1.2,1.2,1.7,1.9,2.2L404.3,21z"/>
	<path class="st20" d="M263.6,462.4l-11.2,3.8c-1.2,0.3-1.7,1.2-2.2,1.9l-4.7,11l-3.8-11.2c-0.3-1.2-1.2-1.7-1.9-2.2l-11-4.7
		l11.2-3.8c1.2-0.3,1.7-1.2,2.2-1.9l4.7-11l3.8,11.2c0.3,1.2,1.2,1.7,1.9,2.2L263.6,462.4z"/>
	<path class="st1" d="M499.1,134.2l-9.1,3.1c-1,0.2-1.4,1-1.8,1.5l-3.8,8.9l-3.1-9.1c-0.2-1-1-1.4-1.5-1.8l-8.9-3.8l9.1-3.1
		c1-0.2,1.4-1,1.8-1.5l3.8-8.9l3.1,9.1c0.2,1,1,1.4,1.5,1.8L499.1,134.2z"/>
	<path class="st1" d="M145.9,95.5l-5.7,1.9c-0.6,0.1-0.9,0.6-1.1,1l-2.4,5.6l-1.9-5.7c-0.1-0.6-0.6-0.9-1-1.1l-5.6-2.4l5.7-1.9
		c0.6-0.1,0.9-0.6,1.1-1l2.4-5.6l1.9,5.7c0.1,0.6,0.6,0.9,1,1.1L145.9,95.5z"/>
	<path class="st1" d="M422,143.5l-5.7,1.9c-0.6,0.1-0.9,0.6-1.1,1l-2.4,5.6l-1.9-5.7c-0.1-0.6-0.6-0.9-1-1.1l-5.6-2.4l5.7-1.9
		c0.6-0.1,0.9-0.6,1.1-1l2.4-5.6l1.9,5.7c0.1,0.6,0.6,0.9,1,1.1L422,143.5z"/>
	<g>
		<g>
			<g>
				<path class="st14" d="M450.2,190.5c-15.3,0-27.8-12.4-27.8-27.8s12.4-27.8,27.8-27.8s27.8,12.4,27.8,27.8
					S465.5,190.5,450.2,190.5z"/>
				<path class="st21" d="M450.2,141.5c11.7,0,21.2,9.5,21.2,21.2c0,11.7-9.5,21.2-21.2,21.2c-11.7,0-21.2-9.5-21.2-21.2
					C428.9,151,438.5,141.5,450.2,141.5 M450.2,138c-13.6,0-24.7,11.1-24.7,24.7c0,13.6,11.1,24.7,24.7,24.7
					c13.6,0,24.7-11.1,24.7-24.7C474.9,149.1,463.9,138,450.2,138L450.2,138z"/>
			</g>
			<g>
				<path class="st21" d="M448.6,173.5c-2.4-0.1-4.6-0.6-6.8-1.6v-5.4c1.3,0.6,2.6,1.2,4.1,1.6s2.8,0.6,3.9,0.6c0.9,0,1.6-0.1,2-0.3
					c0.4-0.2,0.6-0.6,0.6-1.1c0-0.4-0.2-0.7-0.5-0.9s-0.8-0.5-1.5-0.8c-0.7-0.3-1.7-0.7-2.9-1.1c-1.4-0.5-2.5-1.1-3.3-1.7
					c-0.8-0.6-1.5-1.3-1.8-2.1c-0.4-0.8-0.6-1.8-0.6-2.9c0-1.8,0.6-3.2,1.7-4.2c1.1-1,2.9-1.6,5.1-1.9v-2.2h3.3v2.2
					c2.1,0.1,4.3,0.6,6.5,1.6l-1.9,4.6c-2.3-1-4.3-1.5-6.1-1.5c-0.9,0-1.5,0.1-1.8,0.3c-0.4,0.2-0.5,0.5-0.5,0.9
					c0,0.4,0.1,0.7,0.4,0.9s0.7,0.5,1.3,0.8c0.6,0.3,1.5,0.6,2.6,1c2.3,0.8,3.9,1.7,4.9,2.7s1.5,2.3,1.5,3.9c0,1.8-0.6,3.3-1.7,4.4
					s-2.8,1.8-5,2.1v3.1h-3.3v-3H448.6z"/>
			</g>
		</g>
		<g>
			<g>
				<path class="st14" d="M109.6,87.4c-15.3,0-27.8-12.4-27.8-27.8s12.4-27.8,27.8-27.8s27.8,12.4,27.8,27.8S125,87.4,109.6,87.4z"
					/>
				<path class="st21" d="M109.6,38.4c11.7,0,21.2,9.5,21.2,21.2s-9.5,21.2-21.2,21.2s-21.2-9.5-21.2-21.2S97.9,38.4,109.6,38.4
					 M109.6,34.9c-13.6,0-24.7,11.1-24.7,24.7S96,84.4,109.6,84.4s24.7-11.1,24.7-24.7S123.3,34.9,109.6,34.9L109.6,34.9z"/>
			</g>
			<g>
				<path class="st21" d="M108.1,70.5c-2.4-0.1-4.6-0.6-6.8-1.6v-5.4c1.3,0.6,2.6,1.2,4.1,1.6c1.5,0.4,2.8,0.6,3.9,0.6
					c0.9,0,1.6-0.1,2-0.3c0.4-0.2,0.6-0.6,0.6-1.1c0-0.4-0.2-0.7-0.5-0.9c-0.3-0.2-0.8-0.5-1.5-0.8c-0.7-0.3-1.7-0.7-2.9-1.1
					c-1.4-0.5-2.5-1.1-3.3-1.7c-0.8-0.6-1.5-1.3-1.8-2.1c-0.4-0.8-0.6-1.8-0.6-2.9c0-1.8,0.6-3.2,1.7-4.2c1.1-1,2.9-1.6,5.1-1.9
					v-2.2h3.3v2.2c2.1,0.1,4.3,0.6,6.5,1.6l-1.9,4.6c-2.3-1-4.3-1.5-6.1-1.5c-0.9,0-1.5,0.1-1.8,0.3c-0.4,0.2-0.5,0.5-0.5,0.9
					s0.1,0.7,0.4,0.9c0.3,0.2,0.7,0.5,1.3,0.8c0.6,0.3,1.5,0.6,2.6,1c2.3,0.8,3.9,1.7,4.9,2.7c1,1,1.5,2.3,1.5,3.9
					c0,1.8-0.6,3.3-1.7,4.4c-1.1,1.1-2.8,1.8-5,2.1v3.1h-3.3v-3H108.1z"/>
			</g>
		</g>
		<g>
			<g>
				<path class="st14" d="M137.4,497.1c-15.3,0-27.8-12.4-27.8-27.8s12.4-27.8,27.8-27.8s27.8,12.4,27.8,27.8
					C165.2,484.7,152.7,497.1,137.4,497.1z"/>
				<path class="st21" d="M137.4,448.1c11.7,0,21.2,9.5,21.2,21.2c0,11.7-9.5,21.2-21.2,21.2c-11.7,0-21.2-9.5-21.2-21.2
					C116.1,457.7,125.7,448.1,137.4,448.1 M137.4,444.7c-13.6,0-24.7,11.1-24.7,24.7s11.1,24.7,24.7,24.7
					c13.6,0,24.7-11.1,24.7-24.7S151.1,444.7,137.4,444.7L137.4,444.7z"/>
			</g>
			<g>
				<path class="st21" d="M135.8,480.2c-2.4-0.1-4.6-0.6-6.8-1.6v-5.4c1.3,0.6,2.6,1.2,4.1,1.6c1.5,0.4,2.8,0.6,3.9,0.6
					c0.9,0,1.6-0.1,2-0.3c0.4-0.2,0.6-0.6,0.6-1.1c0-0.4-0.2-0.7-0.5-0.9c-0.3-0.2-0.8-0.5-1.5-0.8s-1.7-0.7-2.9-1.1
					c-1.4-0.5-2.5-1.1-3.3-1.7c-0.8-0.6-1.5-1.3-1.8-2.1c-0.4-0.8-0.6-1.8-0.6-2.9c0-1.8,0.6-3.2,1.7-4.2c1.1-1,2.9-1.6,5.1-1.9
					v-2.2h3.3v2.2c2.1,0.1,4.3,0.6,6.5,1.6l-1.9,4.6c-2.3-1-4.3-1.5-6.1-1.5c-0.9,0-1.5,0.1-1.8,0.3c-0.4,0.2-0.5,0.5-0.5,0.9
					s0.1,0.7,0.4,0.9c0.3,0.2,0.7,0.5,1.3,0.8c0.6,0.3,1.5,0.6,2.6,1c2.3,0.8,3.9,1.7,4.9,2.7s1.5,2.3,1.5,3.9
					c0,1.8-0.6,3.3-1.7,4.4c-1.1,1.1-2.8,1.8-5,2.1v3.1H136v-3H135.8z"/>
			</g>
		</g>
	</g>
	<path class="st1" d="M128.6,430.6l-9.1,3.1c-1,0.2-1.4,1-1.8,1.5L114,444l-3.1-9.1c-0.2-1-1-1.4-1.5-1.8l-8.9-3.8l9.1-3.1
		c1-0.2,1.4-1,1.8-1.5l3.8-8.9l3.1,9.1c0.2,1,1,1.4,1.5,1.8L128.6,430.6z"/>
	<path class="st1" d="M100.8,448.9l-5.7,1.9c-0.6,0.1-0.9,0.6-1.1,1l-2.4,5.6l-1.9-5.7c-0.1-0.6-0.6-0.9-1-1.1l-5.6-2.4l5.7-1.9
		c0.6-0.1,0.9-0.6,1.1-1l2.4-5.6l1.9,5.7c0.1,0.6,0.6,0.9,1,1.1L100.8,448.9z"/>
</g>
</svg>
