<svg xmlns="http://www.w3.org/2000/svg" xmlns:xlink="http://www.w3.org/1999/xlink" viewBox="0 0 1415.03 1252.5"><defs><linearGradient id="linear-gradient" x1="-11572.26" y1="354.57" x2="-11232.77" y2="354.57" gradientTransform="matrix(-1 -.05 -.05 1 -9836 -250.48)" gradientUnits="userSpaceOnUse"><stop offset="0" stop-color="#81d3e4"/><stop offset="1" stop-color="#6076fa"/></linearGradient><linearGradient id="linear-gradient-2" x1="-2607.3" y1="4040.86" x2="-2607.3" y2="3802.15" gradientTransform="rotate(-41.45 -4627.88 -3247.142)" xlink:href="#linear-gradient"/><linearGradient id="linear-gradient-3" x1="-11539.77" y1="252.09" x2="-11379.06" y2="252.09" xlink:href="#linear-gradient"/><linearGradient id="linear-gradient-4" x1="-905.49" y1="3404.91" x2="-905.49" y2="3170.51" gradientTransform="rotate(-29.45 -4674.183 -2817.116)" xlink:href="#linear-gradient"/><linearGradient id="linear-gradient-5" x1="785.51" y1="817.42" x2="261.49" y2="817.42" gradientUnits="userSpaceOnUse"><stop offset="0" stop-color="#eebe63"/><stop offset="1" stop-color="#dc3b57"/></linearGradient><linearGradient id="linear-gradient-6" x1="785.51" y1="846.07" x2="261.49" y2="846.07" xlink:href="#linear-gradient-5"/><linearGradient id="linear-gradient-7" x1="785.52" y1="874.72" x2="261.49" y2="874.72" xlink:href="#linear-gradient-5"/><linearGradient id="linear-gradient-8" x1="508.99" y1="134.07" x2="508.99" y2="428.8" xlink:href="#linear-gradient"/><linearGradient id="linear-gradient-9" x1="1798.91" y1="417.97" x2="1798.91" y2="712.7" xlink:href="#linear-gradient"/><linearGradient id="linear-gradient-10" x1="1798.91" y1="437.03" x2="1798.91" y2="695.12" gradientUnits="userSpaceOnUse"><stop offset="0" stop-color="#d3d8de"/><stop offset="1" stop-color="#fff"/></linearGradient><linearGradient id="linear-gradient-11" x1="1290.16" y1="1206.75" x2="1480.53" y2="1206.75" xlink:href="#linear-gradient"/><linearGradient id="linear-gradient-12" x1="1429.81" y1="1312.98" x2="1601.97" y2="1312.98" xlink:href="#linear-gradient"/><linearGradient id="linear-gradient-13" x1="1444.53" y1="1338.02" x2="1573.75" y2="1338.02" xlink:href="#linear-gradient"/><linearGradient id="linear-gradient-14" x1="1397.86" y1="1234.03" x2="1548.35" y2="1234.03" xlink:href="#linear-gradient"/><linearGradient id="linear-gradient-15" x1="73.18" y1="1165.98" x2="212.04" y2="1165.98" gradientUnits="userSpaceOnUse"><stop offset="0" stop-color="#e59148"/><stop offset="1" stop-color="#f1cc52"/></linearGradient><linearGradient id="linear-gradient-16" x1="1363.33" y1="1449.88" x2="1502.2" y2="1449.88" gradientUnits="userSpaceOnUse"><stop offset="0" stop-color="#b37239"/><stop offset="1" stop-color="#f1cc52"/></linearGradient><style>.cls-13{mix-blend-mode:hard-light;fill:#f4f4f4}.cls-4{fill:#72acfb}.cls-5{fill:#385988}.cls-6{fill:#4772b0}.cls-7{fill:#5886c7}.cls-8{fill:#e5f2fd}.cls-14{fill:#bfd4fc}.cls-15{fill:#fff}.cls-19{fill:#d4d4d4}.cls-23{fill:#c5cacf}.cls-24{fill:#cedefd}.cls-25{fill:#fc673d}.cls-28{fill:#4e85de}.cls-35{fill:#dcd0c8}.cls-36{fill:#6d6865}.cls-38{fill:#948c87}.cls-40{fill:#ebb35c}.cls-41{fill:#454971}.cls-42{fill:#2e3048}.cls-43{fill:#dba585}.cls-44{fill:#3e4148}.cls-45{fill:#363957}.cls-46{fill:#8c8581}.cls-48{fill:#b9afaa}.cls-52{fill:#dedfe6}.cls-53{fill:#762020}</style></defs><g style="isolation:isolate"><g id="_Layer_" data-name="&lt;Layer&gt;"><rect x="792.83" y="463.39" width="381.64" height="443.25" rx="25.22" ry="25.22" fill="#f4f4f4"/><path class="cls-4" d="M2314.67 931.14A97.52 97.52 0 102131 996.82c.73 2.06 1.54 4.1 2.4 6.08a97.53 97.53 0 00181.25-71.76zm-67.2 101.69a73 73 0 01-91.67-39.67c-.65-1.49-1.25-3-1.8-4.56a73.12 73.12 0 1193.47 44.23z" transform="translate(-1290.16 -283.9)"/><path class="cls-5" d="M2153 942.18l-23.3-7.28a97.66 97.66 0 0190.19-68.44l.73 24.4a73.24 73.24 0 00-67.62 51.32z" transform="translate(-1290.16 -283.9)"/><path class="cls-6" d="M2155.79 993.16l-22.38 9.74c-.86-2-1.67-4-2.4-6.08a97.08 97.08 0 01-1.27-61.91l23.3 7.28a72.77 72.77 0 00.95 46.41 75.78 75.78 0 001.8 4.56z" transform="translate(-1290.16 -283.9)"/><path class="cls-7" d="M2148.53 1027.18a96.88 96.88 0 01-15.12-24.28l22.38-9.74a72.62 72.62 0 0011.33 18.2z" transform="translate(-1290.16 -283.9)"/><path class="cls-4" d="M2399.24 990.71a40.34 40.34 0 10-34.51 72.93c.82.39 1.65.75 2.48 1.08a40.34 40.34 0 0032-74zm10.08 49.4a30.26 30.26 0 01-29.78 17.22 29.93 29.93 0 01-8.64-2c-.62-.25-1.25-.52-1.86-.81a30.25 30.25 0 1140.28-14.4z" transform="translate(-1290.16 -283.9)"/><path class="cls-5" d="M2355.19 1041.22l-8.95 4.69a40.38 40.38 0 016.36-46.4l7.35 6.92a30.3 30.3 0 00-4.76 34.79z" transform="translate(-1290.16 -283.9)"/><path class="cls-6" d="M2370.9 1055.32l-3.7 9.4c-.83-.33-1.66-.69-2.48-1.08a40.16 40.16 0 01-18.49-17.74l8.95-4.69a30.12 30.12 0 0013.85 13.3c.63.3 1.25.56 1.87.81z" transform="translate(-1290.16 -283.9)"/><path class="cls-4" d="M2418.45 921.58a40.35 40.35 0 10-72.94-34.51c-.38.82-.74 1.65-1.07 2.48a40.34 40.34 0 0074 32zM2369 931.66a30.22 30.22 0 01-15.21-38.42c.25-.62.52-1.25.81-1.86a30.25 30.25 0 1114.4 40.28z" transform="translate(-1290.16 -283.9)"/><path class="cls-4" d="M2367.94 877.53l-4.7-8.94a40.41 40.41 0 0146.4 6.36l-6.92 7.35a30.31 30.31 0 00-34.79-4.77z" transform="translate(-1290.16 -283.9)"/><path class="cls-6" d="M2353.83 893.25l-9.39-3.7c.33-.83.69-1.66 1.07-2.48a40.18 40.18 0 0117.74-18.48l4.7 8.94a30.09 30.09 0 00-13.3 13.86c-.3.61-.57 1.24-.82 1.86z" transform="translate(-1290.16 -283.9)"/><path class="cls-7" d="M2341.76 901.08a40.2 40.2 0 012.68-11.52l9.39 3.7a30.17 30.17 0 00-2 8.64z" transform="translate(-1290.16 -283.9)"/><path class="cls-8" d="M1079.42 810.09h-75.32v-1.5h73.83v-28.46h1.49v29.96zM937.56 810.09h-97.98v-1.5h96.48v-46.58h1.5v48.08z"/><path class="cls-4" d="M839.58 793.01H907v8.98h-67.42zM1004.1 793.01h39.65v8.98h-39.65zM824.31 501.44h32.26v6.9h-32.26zM958.82 527.4h50.06v6.9h-50.06zM894.09 527.4h30.56v6.9h-30.56zM824.31 527.4h60.54v6.9h-60.54zM866.4 501.44h47.81v6.9H866.4zM934.22 527.4h13.13v6.9h-13.13zM973.17 501.82h35.72v6.9h-35.72zM1021.62 527.4h30.46v6.9h-30.46zM925.96 501.82h37.86v6.9h-37.86z"/><path d="M1670.11 735c22 48 34.37 93.46 18.17 113.74a26.4 26.4 0 01-3.14 3.29c-12.48 11-37 11.24-78.47-5.12-110.3-43.57-115.53-118.76-137.84-192.19-22-72.51-98.81-60.26-100.77-59.93 178.99-62.32 264.71 58.83 302.05 140.21z" transform="translate(-1290.16 -283.9)" fill="url(#linear-gradient)"/><path d="M1688.28 848.76a26.4 26.4 0 01-3.14 3.29c-20.72-12.48-60.39-38.94-79.09-68.65-8.82-14-16.23-29.79-24.1-46.46-14.84-31.55-30.22-64.16-57-89.18l3-3.22c27.44 25.61 43 58.61 58 90.54 7.8 16.56 15.15 32.2 23.85 46 18.2 28.92 58.28 55.53 78.48 67.68z" transform="translate(-1290.16 -283.9)" fill="url(#linear-gradient-2)"/><path d="M1650.94 754.65c-1.3 3.19-2.14 5-2.23 5.21-.34-1.76-.67-3.51-1-5.21-14.71-75.39-34.39-83.27-93.39-149.22-60.32-67.43-25.64-130.29-25.64-130.29 202.14 58.41 136 245.81 122.26 279.51z" transform="translate(-1290.16 -283.9)" fill="url(#linear-gradient-3)"/><path d="M1650.94 754.65c-1.3 3.19-2.14 5-2.23 5.21-.34-1.76-.67-3.51-1-5.21 6.55-65.18-32.77-141.66-45.12-155.38-12.78-14.21-20.66-33.75-23.64-41.12-.5-1.22-1-2.38-1.12-2.65l2.85-1.61c.25.44.58 1.25 1.3 3 2.91 7.21 10.64 26.37 23 40.14 15.7 17.44 52.02 94.29 45.96 157.62z" transform="translate(-1290.16 -283.9)" fill="url(#linear-gradient-4)"/><rect class="cls-13" x="327.69" y="80.22" width="978.98" height="363.47" rx="46.72" ry="46.72"/><path class="cls-14" d="M1103.53 184.56h119.64v12h-119.64zM1103.53 221.72h137.51v12h-137.51zM1103.32 258.68h71.15v12h-71.15zM1103.32 295.63h109.61v12h-109.61z"/><path class="cls-15" d="M378.95 868.58h367.04v12.28H378.95z"/><path fill="url(#linear-gradient-5)" d="M378.95 811.28h272.59v12.28H378.95z"/><path fill="url(#linear-gradient-6)" d="M378.95 839.94h294.54v12.28H378.95z"/><path fill="url(#linear-gradient-7)" d="M378.95 868.58h191.12v12.28H378.95z"/><path class="cls-19" d="M455.43 410.3h106.64v13.14H455.43zM429.56 386.9h158.38v13.14H429.56z"/><circle cx="508.99" cy="206.56" r="27.53" fill="url(#linear-gradient-8)"/><path d="M1848.82 580.23v52.36a121.1 121.1 0 01-99.82 0v-52.36a49.91 49.91 0 1199.82 0z" transform="translate(-1290.16 -283.9)" fill="url(#linear-gradient-9)"/><path class="cls-15" d="M681.06 165.85h256.48v16.53H681.06zM965.09 165.85h99.67v16.53h-99.67zM681.06 128.19H801.5v16.53H681.06z"/><path d="M1798.91 646.62a123 123 0 01-51.27-11.05 124 124 0 11102.53 0 123 123 0 01-51.26 11.05zm0-241.53a117.51 117.51 0 10117.49 117.5 117.62 117.62 0 00-117.49-117.49z" transform="translate(-1290.16 -283.9)" fill="url(#linear-gradient-10)"/><path class="cls-15" d="M952.26 851.82H1015a16.83 16.83 0 0116.83 16.83v62.77a16.84 16.84 0 01-16.83 16.84h-62.73a16.84 16.84 0 01-16.84-16.84v-62.77a16.83 16.83 0 0116.83-16.83z"/><path class="cls-23" d="M979.09 880.86h9.13v38.37h-9.13z"/><path class="cls-23" transform="rotate(90 1770.675 396.915)" d="M2269.25 1164.76h9.12v38.37h-9.12z"/><path class="cls-24" d="M699.29 213.7h6.55v158.8h-6.55zM729.38 213.7h6.55v158.8h-6.55zM759.47 213.7h6.55v158.8h-6.55zM789.56 213.7h6.55v158.8h-6.55zM819.65 213.7h6.55v158.8h-6.55zM849.74 213.7h6.55v158.8h-6.55zM879.83 213.7h6.55v158.8h-6.55zM909.92 213.7h6.55v158.8h-6.55zM940.01 213.7h6.55v158.8h-6.55zM970.1 213.7h6.55v158.8h-6.55zM1000.19 213.7h6.55v158.8h-6.55zM1030.28 213.7h6.55v158.8h-6.55z"/><path class="cls-25" d="M699.29 261.18h6.55V372.5h-6.55zM729.38 299.65h6.55v72.85h-6.55zM759.47 236.62h6.55V372.5h-6.55zM789.56 332.94h6.55v39.56h-6.55zM819.65 293.1h6.55v79.4h-6.55zM849.74 263.36h6.55V372.5h-6.55zM879.83 302.11h6.55v70.39h-6.55zM909.92 253.27h6.55V372.5h-6.55zM940.01 307.02h6.55v65.48h-6.55zM970.1 267.73h6.55V372.5h-6.55zM1000.19 320.11h6.55v52.39h-6.55zM1030.28 267.73h6.55V372.5h-6.55z"/><rect class="cls-13" x="154.37" y="463.39" width="615.2" height="563.33" rx="34.66" ry="34.66"/><path d="M1672.52 917.93a86.46 86.46 0 00-46.95-108.49c-1.76-.76-3.56-1.48-5.4-2.13a86.54 86.54 0 1052.34 110.62zm-103.33 31.95a64.88 64.88 0 1143.7-122.18q2.07.74 4 1.6a64.88 64.88 0 01-47.74 120.58z" transform="translate(-1290.16 -283.9)" fill="#90c1fc"/><path d="M1571.7 826.85l-6.46-20.68a86.68 86.68 0 00-60.73 80l21.65.65a65 65 0 0145.53-60z" transform="translate(-1290.16 -283.9)" fill="#4372bd"/><path class="cls-28" d="M1616.93 829.29l8.65-19.86c-1.76-.76-3.56-1.48-5.4-2.13a86.17 86.17 0 00-54.93-1.13l6.46 20.68a64.57 64.57 0 0141.19.84q2.1.74 4.03 1.6z" transform="translate(-1290.16 -283.9)"/><path class="cls-4" d="M1647.12 822.85a86.11 86.11 0 00-21.54-13.41l-8.65 19.86a64.54 64.54 0 0116.16 10.06z" transform="translate(-1290.16 -283.9)"/><path class="cls-4" d="M627.77 809.7h30.03v102.87h-30.03zM583.12 838.56h30.03v74.02h-30.03zM671.08 762.03h30.03v150.54h-30.03zM696.27 686.82l-.53-3.24-79.25 12.97-25.7 54.76-85.45 5.81-27.68 40.83-65.32-1.62-.09 3.29 67.13 1.66 27.79-40.99 85.78-5.82 25.78-54.95 77.54-12.7z"/><path class="cls-28" d="M1889.58 833.65H1975a9.76 9.76 0 009.76-9.76 9.76 9.76 0 00-9.76-9.76h-85.41a9.76 9.76 0 00-9.76 9.76 9.76 9.76 0 009.75 9.76z" transform="translate(-1290.16 -283.9)"/><path class="cls-4" d="M1889.58 867.71H1975a9.76 9.76 0 009.76-9.76 9.76 9.76 0 00-9.76-9.76h-85.41a9.76 9.76 0 00-9.76 9.76 9.76 9.76 0 009.75 9.76zM1889.58 901.77H1975a9.76 9.76 0 009.76-9.77 9.76 9.76 0 00-9.76-9.76h-85.41a9.76 9.76 0 00-9.76 9.76 9.76 9.76 0 009.75 9.77z" transform="translate(-1290.16 -283.9)"/><path class="cls-4" d="M444.82 566.63h-48.85v-1.87h48.07l25.72-25.72h31.5v1.87h-30.72l-25.72 25.72zM491.11 651.96h-62.86l-20.37-20.37 1.32-1.33 19.83 19.83h62.08v1.87z"/><path class="cls-28" d="M474.41 551.45h65.16v8h-65.16zM454.54 632.98h52.45v7.99h-52.45z"/><path d="M1306.79 955.18c16.41-7.85 32.75 44.41 32.75 44.41 27.9 36.87 66.89-12.18 63.09 42.93-6.68 96.44 111 30.33 56.71 131s47.93 56.93 14.2 138.12 10 178-40.77 138.22c0 0-44.7-98-90.8-128.35s27.62-66.31 13.2-107.5c-21-59.83-71.43-57.48-35-121.77s-69.17-110.37-13.38-137.06z" transform="translate(-1290.16 -283.9)" fill="url(#linear-gradient-11)"/><path class="cls-15" d="M1448.84 1413c-22-15.48-47.76-123.32-49.29-187.55-.79-32.9-10.51-46.61-19.09-58.71-8.2-11.56-15.29-21.54-11.16-44.47 7.89-43.81-12.85-62.72-13.06-62.91l2.4-2.74c.93.81 22.52 20.31 14.24 66.29-3.85 21.42 2.5 30.38 10.55 41.72 8.44 11.9 19 26.71 19.77 60.72 1.65 68.94 28 170.76 47.75 184.66z" transform="translate(-1290.16 -283.9)"/><path d="M1457.08 1421a46.92 46.92 0 01-9.3-1c-8.48-1.71-14-6.19-16.53-13.3-5.93-17 7.81-44.52 19-57.81.18-.22 18.86-23 16.86-54.67-.33-5.3-.88-10.21-1.37-14.53-1.4-12.52-2.42-21.56 3-27.6 4.74-5.33 13.88-7.63 30.58-7.71 29.28-.13 40.87-12.26 50.17-22 4-4.14 7.68-8 12.22-10.52 14.59-8 30-9.14 36.76-2.79 3.18 3 5.88 8.93.6 20-4.82 10.07-11.07 16.45-16.1 21.58-6.75 6.9-11.22 11.45-8.9 20.54.55 2.13 1.18 4.28 1.81 6.44 4.51 15.44 9.63 32.94-16.79 44.82-5.61 2.52-10.72 4.52-15.23 6.29-18.45 7.24-29.58 11.61-42.15 38.14-2.43 5.14-4.58 10-6.66 14.71-10 22.41-17.49 39.41-37.97 39.41zm106.3-206c-4 2.21-7.42 5.74-11.33 9.84-9.78 10.24-22 23-52.78 23.13-15.35.07-24 2.07-27.88 6.49-4.3 4.83-3.36 13.19-2.06 24.78.49 4.37 1 9.32 1.39 14.71 2.08 33.12-16.9 56.26-17.71 57.23-11 13.15-23.55 39.32-18.32 54.27 2 5.81 6.68 9.49 13.81 10.93 24.89 5 31.76-10.54 43.15-36.34 2.08-4.73 4.24-9.62 6.7-14.8 13.18-27.84 25.49-32.67 44.11-40 4.47-1.75 9.54-3.74 15.06-6.23 23.54-10.58 19.29-25.1 14.79-40.48-.65-2.2-1.29-4.39-1.84-6.56-2.83-11.06 2.75-16.77 9.83-24 5.09-5.19 10.85-11.07 15.42-20.6 2.39-5 4.36-11.78.18-15.74-5.5-5.21-19.48-3.78-32.51 3.34z" transform="translate(-1290.16 -283.9)" fill="url(#linear-gradient-12)"/><path d="M1448.16 1442l-3.64-.19c.18-3.41 4.77-83.89 37.08-107.45 35.45-25.84 46.63-53.61 52-72.25 6.27-22 38.2-27.83 39.56-28.07l.63 3.58c-.31.06-31 5.72-36.69 25.49-5.47 19.16-17 47.69-53.31 74.19-30.97 22.54-35.58 103.88-35.63 104.7z" transform="translate(-1290.16 -283.9)" fill="url(#linear-gradient-13)"/><path d="M1522 1036.4c-23-7.88-18.2 36.39-27.9 69.15s-108 14.29-66.72 96.31-52.16 27.43-24.26 99 2.43 148.12 32.75 128.65 17-109.6 48.58-120.31 36.69-23.2 5.46-52.31 81.83-58 53.93-116.81 4.74-94.58-21.84-103.68z" transform="translate(-1290.16 -283.9)" fill="url(#linear-gradient-14)"/><path class="cls-15" d="M1450 1426.08c-2.89-12.25-27.56-120.08-4.54-133.11 20.28-11.49 19.79-56.17 16.62-98.36-2.81-37.35 45.16-54.8 47.21-55.53l1.21 3.43c-.47.17-47.39 17.26-44.8 51.83 3.25 43.33 3.6 89.31-18.46 101.8-17.48 9.9-1.39 96.55 6.29 129.11z" transform="translate(-1290.16 -283.9)"/><path fill="url(#linear-gradient-15)" d="M212.04 1103.78l-32.79 124.41h-73.28l-32.8-124.41h138.87z"/><path d="M1502.2 1387.68s-72.2 13.55-72.2 124.41h-33.89l-32.79-124.41z" transform="translate(-1290.16 -283.9)" fill="url(#linear-gradient-16)"/><path class="cls-14" d="M410.31 30.74V41.3H307.45v102.85H296.9V30.74h113.41zM1257.49 0h83.72v5.87h-83.72zM1257.49 11.06h83.72v24.67h-83.72zM1200.08 20.45h49.38v3.69h-49.38zM1200.08 25.75h49.38v9.99h-49.38z"/><path class="cls-14" d="M1339.36 0h3.68v69.13h-3.68z"/><path class="cls-35" d="M313.81 942.17h103.31v6.13H313.81z"/><path class="cls-36" transform="rotate(180 977.26 1245.66)" d="M1617.81 1248.16h9.05v278.9h-9.05z"/><path fill="#c6bbb5" d="M400.95 940.43h71.81v8.76h-71.81z"/><path class="cls-38" d="M423.26 865.71h27.19v82.59h-27.19z"/><path fill="#a98e75" d="M276.75 948.4h397.87v15.86H276.75z"/><path class="cls-40" d="M1490.55 1136.32s-4.35 61 7.57 68.33c7.47 4.57 37.25 20 36.37 22.9s-16.82 25.75-16.82 25.75-57.21-37.67-59-49.54c-1.8-11.6 2.81-89.35 10.68-92.93 5.89-2.68 9-.47 16.42 5 10.36 7.77 4.78 20.49 4.78 20.49z" transform="translate(-1290.16 -283.9)"/><path class="cls-41" d="M1560.93 1489s-1.78 12.35-2 14.2-19.79-1.09-19.79-1.09l-1.58-14.7s20.93-.17 23.37 1.59z" transform="translate(-1290.16 -283.9)"/><path class="cls-42" d="M1559.13 1501.61s6.2 7.44 12.2 10.68 15.42 4.53 19 7.89c2.56 2.42 9.32 12.85-15.58 12.64s-36.91 1.47-39.58-2.52 3.86-29.53 3.86-29.53 5.87 2.13 20.1.84z" transform="translate(-1290.16 -283.9)"/><path class="cls-41" d="M1686.29 1489.1s-1.78 12.35-2 14.2-19.79-1.09-19.79-1.09l-1.59-14.7s20.94-.15 23.38 1.59z" transform="translate(-1290.16 -283.9)"/><path class="cls-42" d="M1684.5 1501.73s6.2 7.44 12.2 10.68 28.06 5.91 31.61 9.26c2.56 2.42 6.82 12.18-28.22 11.27-24.89-.65-36.91 1.47-39.58-2.52s3.86-29.53 3.86-29.53 5.55 2.27 20.13.84zM1497.82 1275.69s71.13 12 87.21 14.56 103.19 24.2 114.08 30.81c8.67 5.26-4.55 131.54-7.64 179.72h-34.31l-2.49-144.52c-41.18 1-70.56-9.63-100.54-5.08s-55 11-74-14.53c-.05-.01-.75-55.38 17.69-60.96z" transform="translate(-1290.16 -283.9)"/><path class="cls-42" d="M1567.93 1500.89l-33.44-2.07-3.26-142.57c-17.72.44-23.8-.68-38.15-2.42l-27-62.75c23.66 4.73 99.48 23.85 109.58 30 8.69 5.24-4.66 131.63-7.73 179.81z" transform="translate(-1290.16 -283.9)"/><path class="cls-43" d="M1530.56 1009s26.08-7.2 36 13 5.44 58.62-7.7 62.23-32-.55-37.5-13.15-9.81-30.5-8.51-42.1 10.79-17.17 17.71-19.98z" transform="translate(-1290.16 -283.9)"/><path class="cls-43" d="M1552.08 1080.26s-.29 15.4 1.41 18.68-36.31 2.46-36.31 2.46 6-18.49 2.59-34.24c-3.37-15.59 32.31 13.1 32.31 13.1z" transform="translate(-1290.16 -283.9)"/><path class="cls-44" d="M1517.72 1061.33s2 4.13 11.87 3.46 22.81-12.53 27-13.59 4.43-3.44 4.43-3.44l2.21 3.93 4.28.65s-2.91-11.9 3.42-16.08-2.85-37.92-34.93-29.79c0 0-24.49 4.48-24.81 18.16s1.81 29.46 6.53 36.7z" transform="translate(-1290.16 -283.9)"/><path class="cls-35" d="M1555.48 1098.55s-.11-6.27-2.95-6.87-29.88-4.32-33.37-2.95l-1.5 8.28s6.73 4.14 37.82 1.54z" transform="translate(-1290.16 -283.9)"/><path class="cls-43" d="M1563.31 1045c-.73-5.14-6.57-11-9.92-3s2.26 19.67 6 19 4.91-9.06 3.92-16z" transform="translate(-1290.16 -283.9)"/><path class="cls-45" d="M1668.72 1172.64c.16.08.18.09 0 0z" transform="translate(-1290.16 -283.9)"/><path class="cls-44" d="M1523 1012.71s-31.8-1.5-5.55 48.14z" transform="translate(-1290.16 -283.9)"/><path class="cls-46" d="M161.96 1233.91l2.36 6.65 99.94-30.96-4.78-13.48-97.52 37.79z"/><path class="cls-46" d="M256.33 1096.2h11.36v108.65h-11.36z"/><path fill="#5d5955" d="M228.51 1090.43h67v6.4h-67z"/><path class="cls-46" d="M362.94 1233.91l-2.36 6.65-99.94-30.96 4.39-14.32 97.91 38.63z"/><path class="cls-46" d="M292.53 1239.85v7.74l-31.89-37.99 4.39-14.32 27.5 44.57z"/><circle class="cls-48" cx="362.94" cy="1243.16" r="9.34"/><circle class="cls-48" cx="283.98" cy="1243.16" r="9.34"/><circle class="cls-48" cx="161.96" cy="1243.16" r="9.34"/><rect class="cls-35" x="183.09" y="1066.17" width="158.72" height="24.25" rx="11.07" ry="11.07"/><path class="cls-36" d="M614.67 964.26h9.05v278.9h-9.05z"/><rect x="319.45" y="739.85" width="234.81" height="165.65" rx="11.05" ry="11.05" fill="#b2a8a3"/><path fill="#f4f6ff" d="M328.65 748.8h216.42v130.74H328.65z"/><ellipse cx="526.73" cy="891.87" rx="8.72" ry="6.73" fill="#8c8480"/><path class="cls-38" d="M1775.62 1232.52v-2.95s-4.15-18.33-33.46-18.33-28.72 21.28-28.72 21.28z" transform="translate(-1290.16 -283.9)"/><path class="cls-43" d="M1713.09 1214s6.37-.49 8.71-1.9 16.29-10.8 19.57-9.29 25.1 8.19 24.34 11.38-2.78 2.88-4.32 2.32-17.38-3.89-18.78-3.33c0 0 15.57 5.68 15.63 9.82s-3.26 5.15-4.73 6.72-3.25 5.46-7.26 5.76-23.58-6.51-27.61-6.82-11.48.25-12-.41 6.45-14.25 6.45-14.25z" transform="translate(-1290.16 -283.9)"/><path class="cls-40" d="M1597.16 1107.24c-20.3-3.57-41.67-8.69-41.67-8.69l-37.81-1.54s-34.7 7.64-48.37 13.81c-1.29.59-1.3 31-4.86 38.93l11.33 23.91s6.54 47.36 7.9 68.42c.62 9.67-1.76 93.44-1.76 93.44s3.4 1.68 29.21 4.52 90.29-1 90.7-4.08-12.49-113.5-13.06-119.22c-.87-8.78 2.54-49.35 2.54-49.35 4.86 6.53 17.26 36 30.18 50.06 7.6 8.26 45.23 13.32 52.33 13.55 15.44.52 43.61 3.59 44.43 2.09.66-.9 2.46-25 .69-25.59-1.54-.52-53.85-3.53-67.26-10.64-4.9-2.6-19.56-34.56-19.56-34.56s-23.76-50.03-34.96-55.06z" transform="translate(-1290.16 -283.9)"/><rect class="cls-35" x="146.01" y="897.59" width="109.46" height="151.59" rx="21.26" ry="21.26"/><path class="cls-35" d="M1526.23 1368.29c-16.13 0-29.23-5.42-38.91-16.11-21.88-24.16-17.95-66.62-17.77-68.42a6.09 6.09 0 0112.12 1.2c0 .48-3.54 39 14.7 59.07 7.37 8.13 17.14 12.08 29.85 12.08a6.09 6.09 0 010 12.18z" transform="translate(-1290.16 -283.9)"/><rect class="cls-52" x="343.99" y="759.21" width="63.39" height="6.91" rx="1.58" ry="1.58"/><rect class="cls-52" x="343.99" y="774.03" width="63.39" height="6.91" rx="1.58" ry="1.58"/><path class="cls-52" d="M349.31 791h52.75a5.33 5.33 0 015.33 5.33v67.47a5.32 5.32 0 01-5.32 5.32h-52.76a5.32 5.32 0 01-5.31-5.32v-67.46a5.32 5.32 0 015.31-5.34z"/><rect class="cls-52" x="420.18" y="759.21" width="112.89" height="109.91" rx="8.43" ry="8.43"/><path class="cls-42" d="M1255.64 743.16l-62.01 34.09-62.28-98.01 75.32-26.16 48.97 90.08z"/><path class="cls-35" d="M1251.71 740.21l-58 31.88-58.24-91.65 70.44-24.47 45.8 84.24z"/><path class="cls-43" d="M2563.1 1007s-10.8-5.16-15.53-7.86-16.92-6.4-17.91-7.28-36.12-3-38.26-4.89-4.21 4.31 4.91 6.31 21.78 6.88 22.47 10.43-9.35 4.4-10.37 7.34.28 2.27 1.72 2.9 11.95-5.19 16.58-3.54 11.68-.63 15.23.58 20.76 7 20.76 7zM2480.76 1048.85s-9.07-8.16-13.45-11.58-12.63-13.46-13.83-14-16.94-32.86-19.5-34.15 2.42-5.64 7.84 2.17 15 17.85 18.58 17.12.5-10.53 2.88-12.63 2.26-.62 3.41.5-.24 13.28 3.12 17 4 11.26 6.48 14.13 14.71 16.79 14.71 16.79z" transform="translate(-1290.16 -283.9)"/><path class="cls-41" d="M2676 1485.05s2 13.61 2.21 15.66 21.82-1.2 21.82-1.2l1.75-16.21s-23.04-.17-25.78 1.75z" transform="translate(-1290.16 -283.9)"/><path class="cls-42" d="M2678 1499s-6.84 8.2-13.45 11.78-17 5-20.91 8.69c-2.82 2.67-10.28 14.18 17.18 13.94s40.7 1.63 43.64-2.78-4.26-32.55-4.26-32.55-6.48 2.32-22.2.92z" transform="translate(-1290.16 -283.9)"/><path class="cls-41" d="M2521.46 1485.05s2 13.61 2.21 15.66 21.82-1.2 21.82-1.2l1.75-16.21s-23.09-.17-25.78 1.75z" transform="translate(-1290.16 -283.9)"/><path class="cls-42" d="M2523.43 1499s-6.83 8.2-13.44 11.78-30.93 6.51-34.86 10.21c-2.82 2.67-7.51 13.43 31.12 12.42 27.45-.71 40.7 1.63 43.64-2.78s-4.26-32.55-4.26-32.55-6.12 2.48-22.2.92zM2658.17 1135.22s20.27 32.21 18.76 61.32 7.35 60.9 10.4 91.31c3.39 33.91 17.29 114.17 17.79 132.31s-2.15 76.05-2.15 76.05l-27.81.64s-23.36-140.33-29.41-154.65-36-116.4-37.06-127.85 49.48-79.13 49.48-79.13z" transform="translate(-1290.16 -283.9)"/><path class="cls-42" d="M2551.46 1139.58s-15.28 79.79-17.29 97.61-3.36 86.23-4.37 97.37-6.72 145.74-12.1 162.28h35.56s27.29-97.85 27.29-144.14 21.09-100.65 34.7-131.2 44.76-31.27 53.13-87.94c0 .01-105.6-11.95-116.92 6.02z" transform="translate(-1290.16 -283.9)"/><path class="cls-43" d="M2624.35 864.43s-27.21-10.17-39.76 10.54-11.33 62.18 2.38 67.28 34.32 2.43 41.34-10.53 13.36-31.69 13.05-44.22-9.87-19.5-17.01-23.07z" transform="translate(-1290.16 -283.9)"/><path class="cls-43" d="M2589.92 943.21s1.14 7.35-.74 11 35.26 3.71 35.26 3.71 3-19.68 8.73-36.32-43.25 21.61-43.25 21.61z" transform="translate(-1290.16 -283.9)"/><path class="cls-44" d="M2633.17 921.57s-2.57 4.23-13 2.59-23.23-15.56-27.59-17.08-4.41-4.09-4.41-4.09l-2.73 4-4.64.3s4.23-12.45-2.15-17.53 6.62-40.29 40.16-28.57c0 0 25.76 7.1 24.83 21.75s-4.71 31.33-10.47 38.63z" transform="translate(-1290.16 -283.9)"/><path class="cls-35" d="M2587 953.74s.12-6.92 3.26-7.58 34.6-3.69 38.44-2.17V952s-7.44 4.6-41.7 1.74z" transform="translate(-1290.16 -283.9)"/><path class="cls-43" d="M2588.84 897.65c.59-2.46 6.84-9.48 9.23-2s-3.62 17.64-7 16.77-3.71-8.54-2.23-14.77z" transform="translate(-1290.16 -283.9)"/><path class="cls-45" d="M2462.12 1035.43c-.12.09-.19.1 0 0z" transform="translate(-1290.16 -283.9)"/><path class="cls-25" d="M2681 1211.95s-16.69 4.91-45.14 8-99.55-1.13-100-4.5 15.29-125.18 14.4-131.46-1.38-28.62-1.38-28.62c-.35 6.13-6.58 31.14-14.12 44.78-2.72 4.92-11.85 20.37-16.25 16.86-21.3-17-54.28-81.09-56.37-81.63 1.75-.76 15.63-7.15 17.57-7.8 1.71-.57 17.07 15.7 26.38 25.79 4.15 4.49 7.1 7.76 7.1 7.76 2.69-6 12.48-44.15 15.53-57.34 6.86-29.74 5.81-31 5.81-31 20.82-6.3 52.41-19.11 52.41-19.11l41.69-1.7s38.27 8.42 53.34 15.23c1.43.65 1.44 34.14 5.36 42.92l-12.5 26.36s-7.21 52.21-8.71 75.43c-.65 10.72 14.88 100.03 14.88 100.03z" transform="translate(-1290.16 -283.9)"/><path class="cls-25" d="M2689.1 1053.67c-1.09 3.51-6 6.48-9.25 7.78a11.94 11.94 0 01-6.67.67l-1.64-.3-28.57-5.3s-6.25-72 39-89.25c1.24.39 17.13 54.16 7.13 86.4z" transform="translate(-1290.16 -283.9)"/><path class="cls-53" d="M2679.85 1061.45a11.94 11.94 0 01-6.67.67l-1.64-.3 2.82-36.79zM2513.23 1061.17l-3.49 14.79s-3.79-14.84-3.61-22.55c4.15 4.5 7.1 7.76 7.1 7.76z" transform="translate(-1290.16 -283.9)"/><path class="cls-44" d="M2632.1 866.87s35.65-4.46.6 55.1z" transform="translate(-1290.16 -283.9)"/><path class="cls-42" d="M1160.02 673.99l-3.63-6.23 28.56-9.85 3.62 6.19-28.55 9.89z"/></g></g></svg>