<svg xmlns="http://www.w3.org/2000/svg" width="1024" height="408" viewBox="0 0 1024 408">
    <g fill="none" fill-rule="nonzero">
        <path fill="#F0FFF6" d="M391.524 61.469L611.2 1.375c26.783-7.328 52.07 15.736 47.239 43.095L609.22 323.053c-3.196 18.088-18.917 31.27-37.281 31.258l-170.6-.112c-20.89-.013-37.823-16.968-37.81-37.871l.142-218.386c.012-17.044 11.415-31.978 27.853-36.473z"/>
        <path fill="#35C19C" d="M624.472 375.935s2.766-46.336 22.127-40.802c.002 0-11.753.69-22.127 40.802zM615.484 383.542c-.474 2.136 0-49.794-15.903-47.027 0 0 29.74-15.215 15.903 47.027z"/>
        <path fill="#33B895" d="M620.326 384.927c-1.384-3.46-9.68-73.317 3.456-74.692l-3.456 74.692z"/>
        <path fill="#31CEA3" d="M611.335 377.319s7.607-49.102 41.488-31.816c0 0-17.286-5.53-41.488 31.816z"/>
        <path fill="#35C19C" d="M620.613 372.87c0-1.385 3.688-51.18 18.9-53.026 0 0-12.907 29.97-14.29 52.104l-4.61.921z"/>
        <path fill="#33B895" d="M609.55 369.642s-1.842-19.827-8.757-23.055c0 0 13.829 2.767 14.29 23.506l-5.533-.451z"/>
        <path fill="#ECF1F9" d="M604.887 361.773h30.589v44.774h-30.589z"/>
        <path fill="#DBE1E8" d="M611.335 361.773h-6.448v44.774h15.24z"/>
        <path fill="#4D585F" d="M382.73 203.207a.278.278 0 0 1-.237-.13c-4.725-7.526-4.79-14.024-4.012-18.15.845-4.478 2.783-7.138 2.865-7.25a.282.282 0 0 1 .451.334c-.02.026-1.956 2.684-2.772 7.048-.746 4.022-.678 10.361 3.942 17.723a.28.28 0 0 1-.088.386.293.293 0 0 1-.15.04z"/>
        <path fill="#458396" d="M913.953 355.244c-1.1 3.285 19.467 31.123 31.335 41.602h7.274l-19.398-36.006-19.211-5.596z"/>
        <path fill="#FEC5B5" d="M942.61 394.337l8.17-.803 1.782 3.312h-7.274zM978.052 387.331l9.951 7.599s-11.428.88-12.896 0-1.654-.323-1.654-.323.56-2.425-5.036-6.716c-5.596-4.29 9.635-.56 9.635-.56z"/>
        <path fill="#4D585F" d="M1005.814 406.174c-.746-7.25-10.163-7.187-11.378-6.716l-10.072-7.09s-6.155 3.358-10.818 1.68v11.94l32.268.186z"/>
        <path fill="#EEEBFF" d="M717.598 87.73l-43.153 242.761c-2.813 15.828 9.391 30.35 25.508 30.35h217.42c14.308 0 25.906-11.567 25.906-25.839V92.242c0-14.27-11.598-25.839-25.906-25.839H743.1c-12.543-.01-23.29 8.978-25.5 21.327z"/>
        <rect width="184.096" height="122.176" x="730.043" y="127.187" fill="#E2E1F9" rx="5.377"/>
        <rect width="19.993" height="10.132" x=".172" y=".039" fill="#BAAEE5" opacity=".4" rx="1.393" transform="translate(879.073 86.562)"/>
        <rect width="19.993" height="10.132" x=".168" y=".045" fill="#BAAEE5" opacity=".2" rx="1.393" transform="translate(870.68 100.554)"/>
        <rect width="19.993" height="10.132" x=".151" y=".045" fill="#BAAEE5" opacity=".2" rx="1.393" transform="translate(894.554 100.554)"/>
        <rect width="19.993" height="10.132" x=".172" y=".039" fill="#BAAEE5" opacity=".4" rx="1.393" transform="translate(697.029 280.395)"/>
        <rect width="19.993" height="10.132" x=".168" y=".045" fill="#BAAEE5" opacity=".2" rx="1.393" transform="translate(688.635 294.387)"/>
        <rect width="19.993" height="10.132" x=".151" y=".045" fill="#BAAEE5" opacity=".2" rx="1.393" transform="translate(712.51 294.387)"/>
        <rect width="171.786" height="110.069" x="736.198" y="133.241" fill="#FFF" rx="4.928"/>
        <path fill="#A291FA" d="M701.64 397.91c-2.798-6.793-4.714-13.901-6.206-21.127-2.322-11.227-3.441-22.885-2.102-34.306 1.436-12.268 6.045-24.231 15.108-32.893 6.538-6.254 14.815-10.326 23.476-12.733 63.79-17.723 91.581 50.37 138.771 49.438 47.19-.933 63.417 57.832 63.417 57.832H704.496a82.402 82.402 0 0 1-2.856-6.212z"/>
        <path fill="#8573E1" d="M882.058 370.541s19.584-2.238 28.91 5.597c9.326 7.835 23.688 29.476 19.958 29.29-3.73-.187-48.309 0-48.309 0s4.36-18.054-9.197-26.098c-13.557-8.044 8.638-8.789 8.638-8.789z"/>
        <path fill="#FF9582" d="M864.245 332.017s2.425 0 2.798-1.306l-5.596-.373-3.17.933 5.968.746zM857.157 333.883l4.29-.56s-1.306 3.172-5.41 2.798c-4.103-.373 1.12-2.238 1.12-2.238z"/>
        <path fill="#8573E1" d="M747.016 312.709l-10.818 2.611s12.59 5.317 13.336 6.623c.747 1.306-2.518-9.234-2.518-9.234z"/>
        <path fill="#4D585F" d="M774.342 303.474c1.305.187-10.632 1.306-12.87-6.53-2.238-7.835 12.87-14.364 12.87-14.364 2.195-4.422 1.865 12.01 7.554 15.204 0 0-2.611 1.12-4.85-.933 0 0 0 1.306 2.239 2.985 0 0-3.358.56-4.57-1.586 0 0 .979 2.528 2.051 3.172.467.28-2.238 1.84-4.383.653"/>
        <path fill="#FEC5B5" d="M764.456 298.25l-2.238 11.532-13.99.595.933-13.619z"/>
        <path fill="#FF9582" d="M748.695 307.485c4.402-.287 9.013-1.075 15.108-5.41l.933-5.224-12.87-5.596-3.17 8.768v7.462z"/>
        <path fill="#4D585F" d="M776.02 271.946s6.661 6.503.094 10.447c-.625.367-1.28.68-1.959.933-9.699 3.731 1.865-11.38 1.865-11.38z"/>
        <path fill="#FEC5B5" d="M776.114 275.77l-2.655 24.419a1.328 1.328 0 0 1-1.492 1.177c-3.956-.493-15.48-2.343-18.583-7.462-3.756-6.194 13.217-22.051 22.73-18.134z"/>
        <path fill="#FFF3F6" d="M96.498 41.828h182.418c14.348 0 25.979 11.633 25.979 25.984v286.82c0 14.35-11.631 25.983-25.979 25.983H27.956c-17.13 0-29.571-16.292-25.063-32.82l68.545-286.82a25.977 25.977 0 0 1 25.06-19.147z"/>
        <path fill="#FDFDFD" d="M498.058 53.889h108.275v189.473H498.058z"/>
        <path fill="#F1FAF7" d="M496.317 148.626h110.585v3.44H496.317zM496.317 98.536h110.585v1H496.317zM496.317 199.64h110.585v1H496.317z"/>
        <path fill="#F1FAF7" d="M550.269 51.775h3.439v191.81h-3.439zM521.054 54.857h1v191.809h-1zM580.543 54.857h1v191.809h-1z"/>
        <path fill="#D3EFDE" d="M493.482 53.822h115.509v3.194H493.482zM493.482 58.614h115.509v3.194H493.482zM493.482 63.855h115.509v3.194H493.482zM493.482 69.095h115.509v3.194H493.482zM493.482 74.337h115.509v3.194H493.482zM493.482 79.578h115.509v3.194H493.482zM493.482 84.82h115.509v3.194H493.482zM493.482 90.06h115.509v3.194H493.482zM493.482 94.674h115.509v3.194H493.482zM493.482 99.608h115.509v3.194H493.482zM493.482 104.543h115.509v3.194H493.482zM493.482 109.479h115.509v3.194H493.482z"/>
        <rect width="90.97" height="63.663" x=".052" y=".039" fill="#F5CDD4" opacity=".5" rx="1.701" transform="translate(188.013 124.807)"/>
        <rect width="76.005" height="48.641" x="195.498" y="132.357" fill="#FFF3F6" rx="1.701"/>
        <path fill="#F5CDD4" d="M213.305 160.29h-17.807v18.945a1.763 1.763 0 0 0 1.763 1.763h18.982v-17.772a2.938 2.938 0 0 0-2.938-2.936zM269.741 132.357h-35.626a26.19 26.19 0 0 0 6.965 29.758 26.178 26.178 0 0 0 30.42 2.889v-30.886a1.763 1.763 0 0 0-1.759-1.761z" opacity=".3"/>
        <path fill="#D3A954" d="M95.685 258.047l4.477-7.648h1.305l-5.222 8.768zM96.99 248.906l-4.29 9.141h1.493l4.477-9.14z"/>
        <ellipse cx="71.811" cy="255.436" fill="#8CC63F" rx="2.611" ry="2.612"/>
        <ellipse cx="79.271" cy="253.757" fill="#8CC63F" rx="2.611" ry="2.612"/>
        <ellipse cx="75.261" cy="253.85" fill="#8CC63F" rx="3.451" ry="3.451"/>
        <ellipse cx="90.742" cy="256.462" fill="#8CC63F" rx="3.451" ry="3.451"/>
        <ellipse cx="84.494" cy="253.943" fill="#8CC63F" rx="4.477" ry="4.477"/>
        <path fill="#EAC7A7" d="M294.125 266.144H15.228v10.56h278.916z"/>
        <path fill="#F2D5B8" d="M294.125 262.995H15.228v5.475h278.916z"/>
        <path fill="#EFB1BB" d="M172.304 301.142h2.16v94.939h-2.16zM258.253 301.142h2.16v94.939h-2.16zM43.379 301.142h2.16v94.939h-2.16z"/>
        <path fill="#FEC5B5" d="M414.953 376.117l-1.81 3.192-4.476-3.917 2.798-5.597 3.488 6.322"/>
        <path fill="#8FE2C0" d="M434.407 231.556l26.132 70.232a7.264 7.264 0 0 1-.746 6.529l-45.716 69.127s-2.612-3.918-5.783-5.224c9.886-9.141 16.414-60.258 32.828-66.227l-23.502-45.147s.746-27.797 16.787-29.29z"/>
        <path fill="#85C9AC" d="M408.294 372.22c3.171 1.306 5.783 5.224 5.783 5.224l13.802-20.87v-33.635c-7.731 17.636-12.889 43.086-19.585 49.281z"/>
        <path fill="#8FE2C0" d="M407.175 236.593s-15.108 14.738-16.414 24.812c0 5.224 4.104 38.99 28.165 124.434l5.782-1.866-2.425-110.628v-1.772l10.166-6.903 2.611-33.207s-24.248-13.619-27.885 5.13z"/>
        <path fill="#85C9AC" d="M423.03 271.106c4.103-2.798 4.476-3.73 4.476-3.73l12.87 37.124-17.257-33.09"/>
        <path fill="#99C6DD" d="M537.973 315.787h5.502v89.361h-5.502z"/>
        <path fill="#6C9BAD" d="M537.926 315.693l.047 7.231 5.502 5.65.047-12.88h-5.596"/>
        <path fill="#E5AD30" d="M511.254 273.063h55.583v23.372h-55.583z"/>
        <path fill="#B5DEF7" d="M519.461 307.672h42.527v11.007h-42.527z"/>
        <path fill="#669FBC" d="M513.026 296.012l-12.87 26.304s-1.865 7.09 0 11.38c1.865 4.291 9.699 67.347 9.699 67.347h9.7l.932-72.384 12.31-17.536h14.922l18.092 21.08-3.917 68.84h11.378l12.378-68.138a12.501 12.501 0 0 0-2.052-7.794l-17.42-31.901-53.152 2.802z"/>
        <path fill="#000" d="M511.903 298.306l56.79-.5-2.415-4.5-53.159 2.426z" opacity=".2"/>
        <path fill="#99C6DD" d="M523.842 406.547l16.882-16.886 16.882 16.886z"/>
        <path fill="#B5DEF7" d="M474.136 306.134h6.342V406.36h-6.342z"/>
        <path fill="#4D585F" d="M517.596 190.327s-.761 4.85 2.61 7.463c3.373 2.611 2.426-9.888 2.426-9.888l-5.036 2.425z"/>
        <path fill="#FF9582" d="M541.284 191.26s2.052-2.239 2.052 0-.56 6.53-2.052 5.597c-1.492-.933 0-5.597 0-5.597zM520.67 193.047s-2.367-1.9-2.03.312c.338 2.212 1.545 6.369 2.878 5.223 1.334-1.145-.849-5.535-.849-5.535z"/>
        <path fill="#FEC5B5" d="M538.486 203.013l1.12 17.91s-12.498 8.208-13.99-2.612v-14.365l12.87-.933z"/>
        <path fill="#FF9582" d="M525.616 207.638s6.553 5.384 13.303 2.293l-.526-7.382-12.684-.187-.093 5.276z"/>
        <path fill="#FEC5B5" d="M577.282 251.331l4.898 14.179 3.123 9.328H572.06l-10.072-20.708z"/>
        <path fill="#FF9582" d="M579.299 257.089l-2.763-7.996-13.924 3.998 2.733 3.65s9.813 2.189 13.954.348M579.334 270.92l-12.497-7.09 4.29 10.075z"/>
        <path fill="#FEC5B5" d="M498.57 254.13l-5.782 20.708h13.99l7.087-23.507z"/>
        <path fill="#FF9582" d="M494.654 268.121s11.838-4.885 15.43-4.216l-.79 2.586s-13.148 5.921-14.64 1.63z"/>
        <path fill="#FEC5B5" d="M519.181 189.488l2.47 12.779a5.373 5.373 0 0 0 1.964 2.692c1.76 1.272 4.85 3.278 7.716 3.992a4.476 4.476 0 0 0 3.462-.56c1.457-.912 3.73-2.768 5.336-4.512a5.024 5.024 0 0 0 1.33-3.16l.85-17.022s-19.584-16.596-23.128 5.79z"/>
        <path fill="#4D585F" d="M518.413 192.28c6.627 2.838 19.327-8.11 19.327-8.11s5.596-6.342-2.984-10.82c-8.58-4.477-21.823 3.359-20.89 5.597.932 2.239 2.61 2.426 2.61 2.426s-5.265 7.826 1.937 10.907z"/>
        <path fill="#4D585F" d="M538.548 179.136s5.347-1.68 4.228 8.395l-.8 2.863s-4.796-3.798-5.169-6.596c-.373-2.799-1.744-6.155 1.74-4.662z"/>
        <path fill="#FFC501" d="M512.56 261.592c-11.565.56-19.772-5.597-19.772-5.597l6.482-28.636a9.092 9.092 0 0 1 6.155-6.67l20.191-6.31s7.274 7.633 13.523 0l22.804 4.227a9.091 9.091 0 0 1 7.274 5.783l11.702 29.825s-2.145 2.145-14.082 3.638c-11.937 1.492-54.277 3.74-54.277 3.74z"/>
        <path fill="#FEC5B5" d="M392.44 211.222s6.342 4.477 9.326 8.395c2.984 3.917-1.492-20.522-1.492-20.522l-14.362-4.104-1.12 9.701 7.648 6.53z"/>
        <path fill="#FF9582" d="M395.424 207.49c-4.316-3.238-4.547 0-4.163 2.726l1.18 1.006s6.145 5.154 9.325 8.395v.932c.908-4.947-6.342-13.059-6.342-13.059z"/>
        <path fill="#4D585F" d="M423.682 141.543s-8.02-10.261-9.885-10.82c0 0-2.425-1.493-8.02 2.611 0 0-2.985-2.425-5.596-1.679-2.612.746-8.953 6.156-10.072 10.82-.62 2.584-.222 5.494.018 8.103.29 3.171.726 6.322.951 9.493.202 2.86.241 5.295-1.605 7.67-1.504 1.934-3.503 3.382-5.037 5.287-1.64 2.033-3.139 4.195-4.27 6.557-3.627 7.573-1.91 15.363 4.726 20.536 14.362 11.194 44.951-16.79 44.951-16.79.362-.33 1.12-.515 1.558-.765a12.732 12.732 0 0 0 3.079-2.425c2.414-2.654 2.522-6.354.795-9.449a11.306 11.306 0 0 0-3.451-3.731c-1.21-.84-2.518-1.291-3.563-2.358-2.036-2.078-3.73-4.929-4.29-7.804a6.809 6.809 0 0 1-.104-2.2c.561-4.102 4.292-7.273-.185-13.056z"/>
        <path fill="#637077" d="M430.959 183.43a.278.278 0 0 1-.215-.457c2.147-2.595 2.654-6.374 1.237-9.193-.81-1.61-2.147-2.883-3.44-4.105a51.17 51.17 0 0 1-1.119-1.087c-1.619-1.63-2.585-3.371-3.618-5.653a.28.28 0 0 1 .51-.231c1.034 2.281 1.939 3.917 3.505 5.488.36.373.746.726 1.12 1.079 1.326 1.263 2.698 2.57 3.553 4.268 1.514 3.01.977 7.039-1.306 9.8a.278.278 0 0 1-.227.091z"/>
        <path fill="#FF9582" d="M503.607 218.87l2.61.747s1.17.12 1.89-.22c.72-.34-3.94-1.273-3.94-1.273l-.56.746zM502.3 218.497l3.452 1.586s-1.306 1.12-3.917-.186l-7.554 1.026c.81-1.6 1.602-3.219 5.036-2.426 0 0-2.798-.186 2.984 0z"/>
        <path fill="#637077" d="M388.337 198.629a.29.29 0 0 1-.123-.028c-5.223-2.563-6.715-6.632-7.034-9.596a14.65 14.65 0 0 1 .55-5.858.28.28 0 1 1 .53.186 14.338 14.338 0 0 0-.52 5.634c.458 4.104 2.719 7.171 6.714 9.142a.28.28 0 0 1-.123.531l.006-.011z"/>
        <path fill="#FEC5B5" d="M395.797 208.983c2.612 24.812-3.17 34.326-3.17 34.326s-9.326 35.446-9.7 37.685c-.373 2.239-8.598 1.38-8.598 1.38l-3.152-.634-3.5.634c-5.366.637-7.692-1.007-6.945-.634.746.373 9.885-2.425 9.885-2.425s7.647-.933 8.394-1.12c.746-.186 1.678-5.41.56-16.976-1.12-11.567 6.34-19.775 6.34-19.775s-2.797-33.767-3.17-37.498c-.373-3.731 3.17-8.955 3.17-8.955l9.797 2.799.09 11.193M434.407 227.825s3.73 7.09 9.326 6.157c5.13-.855 36.432-8.769 41.613-10.075.48-.12 2.201-.56 2.686-.464l4.477 1.12 6.528-.187 3.544-1.68a7.547 7.547 0 0 0-4.663-.186l-2.718-.453a.317.317 0 0 1-.162-.547l1.947-1.798 8.953-.933c4.85 1.68 5.41-.373 5.41-.373l-5.223-1.493-10.073-.56-11.377 2.8c-39.916 1.118-40.289 4.663-40.289 4.663l-.653-3.824s-2.238-15.298-3.17-27.238c-.933-11.94-9.327-12.499-9.327-12.499s-6.248 41.32 3.171 47.57zM404.004 155.814l1.187 15.943a6.553 6.553 0 0 1-.625 3.33c-1.013 2.11-3.208 6.028-7.461 11.136l13.243 14.738 17.906-10.447s1.679-11.567-5.782-12.5a20.586 20.586 0 0 1-2.354-.427c-5.392-1.32-6.413-4.236-6.413-4.236v-8.395s-5.69-12.033-9.7-9.142z"/>
        <path fill="#FF9582" d="M413.703 171.058v-4.237s-.764-1.616-1.928-3.52c-1.593-.56-3.574-.804-5.346.349 0 0 1.306 4.85 7.088 7.462l.186-.054z"/>
        <path fill="#FEC5B5" d="M402.605 158.706l-4.29-1.866 2.052-5.596 16.414-8.769 4.954 5.304c.548 5.983-.384 13.632-1.628 18.206.05.83-.47 1.587-1.263 1.836-3.31 1.035-9.057-.254-12.381-4.253 0 0-2.365-4.862-3.858-4.862"/>
        <path fill="#4D585F" d="M391.6 161.877l9.513 6.903s2.798-9.888 1.492-10.074c-1.305-.187-3.916-3.545-2.238-5.597 1.679-2.052 4.477 1.12 4.477 1.12-.187.56.746 2.611.746 2.611 0-2.238 2.052-2.238 2.052-2.238 2.984-1.12 4.57-6.81 4.57-6.81-.094 2.705-2.425 5.784-2.425 5.784 2.145-1.213 3.543-5.784 3.543-5.784.187 1.68-2.424 5.784-2.424 5.784l1.56-.097a4.803 4.803 0 0 0 3.62-1.974c1.756-2.465 2.28-6.138 2.28-6.138s3.526 3.045 3.544 4.29c.019 1.247.84-4.01.467-5.13-.373-1.119-8.02-6.529-8.02-6.529s-22.383 11.753-22.756 23.88z"/>
        <path fill="#4D585F" d="M427.693 166.541a.276.276 0 0 1-.243-.142c-2.831-4.988-2.04-10.797-1.462-15.04.22-1.623.412-3.026.307-3.917-.358-3.041-5.951-8.894-6.007-8.955a.28.28 0 0 1 .404-.388c.235.246 5.783 6.046 6.156 9.274.112.953-.075 2.318-.31 4.048-.56 4.164-1.343 9.865 1.393 14.69a.278.278 0 0 1-.104.372.265.265 0 0 1-.134.058zM436.832 179.787a.285.285 0 0 1-.14-.038.282.282 0 0 1-.102-.373c1-1.727 1.257-3.466.764-5.171-.593-2.052-2.17-3.714-3.544-4.83a.28.28 0 0 1-.298-.026l-2.052-1.575a.28.28 0 0 1 .3-.47 16.117 16.117 0 0 1 2.603 1.802c1.259 1.062 2.89 2.784 3.515 4.944.538 1.866.262 3.742-.817 5.606a.28.28 0 0 1-.229.13z"/>
        <path fill="#637077" d="M387.964 175.496a.276.276 0 0 1-.202-.086.28.28 0 0 1 0-.395c5.062-4.884 4.214-12.01 4.204-12.084 0-.018-.117-1.173-.27-2.895a.28.28 0 1 1 .56-.049c.152 1.719.266 2.87.268 2.88 0 .068.892 7.474-4.372 12.55a.276.276 0 0 1-.188.079z"/>
        <path fill="#00C39A" d="M435.06 231.463l3.171-18.096c3.19-1.823 4.894-8.222 5.418-10.537.138-.6.08-1.228-.164-1.793-2.14-4.893-11.41-15.467-11.41-15.467l-.038-5.263-12.66-3.23s1.88 5.881-2.596 8.493-16.32-3.824-16.32-3.824l-14.475 13.31s19.79 13.087 13.822 23.721c0 0 3.357 2.052 5.222 8.582.89 3.112 1.397 5.335 1.679 6.807.166.77.29 1.55.373 2.334 0 0 14.922-4.477 27.978-5.037z"/>
        <path fill="#000" d="M406.43 217.751c.982.217 1.986.33 2.993.336.5 0 .996-.015 1.492-.06s.981-.123 1.462-.212c.482-.097.957-.222 1.423-.374.467-.15.92-.328 1.368-.52a13.988 13.988 0 0 0 2.506-1.481l.04-.028.039-.019a17.182 17.182 0 0 1 2.009-.817 15.393 15.393 0 0 1 2.094-.537c.72-.134 1.45-.196 2.18-.187.187.01.374.015.56.026l.532.05c.352.04.705.083 1.052.131 1.391.21 2.744.467 4.103.56.683.047 1.368.052 2.052.015a18.664 18.664 0 0 0 2.069-.248c-.657.254-1.333.455-2.022.598-.698.135-1.404.217-2.114.245-1.423.06-2.835-.11-4.21-.224-.344-.034-.686-.06-1.027-.082l-.51-.01h-.494c-.663.021-1.323.097-1.973.228-.66.13-1.31.302-1.95.513-.635.205-1.258.448-1.864.728l.078-.047a12.83 12.83 0 0 1-2.77 1.511c-.98.381-2.004.636-3.048.758a12.545 12.545 0 0 1-3.107-.034 11.562 11.562 0 0 1-1.515-.3 8.91 8.91 0 0 1-1.449-.519z" opacity=".2"/>
        <path fill="#85C9AC" d="M416.501 275.21a.373.373 0 0 1-.153-.714c6.935-3.102 12.693-9.18 12.75-9.242a.373.373 0 1 1 .546.511c-.058.062-5.917 6.248-12.99 9.412a.373.373 0 0 1-.153.034z"/>
        <path fill="#85C9AC" d="M424.106 270.547a.373.373 0 0 1-.347-.51c5.454-13.922 1.923-36.7 1.886-36.938a.378.378 0 1 1 .746-.117c.035.23 3.598 23.211-1.929 37.311a.373.373 0 0 1-.356.254z"/>
        <path fill="#4D585F" d="M418.926 385.839s.746 1.679 0 4.664c-1.865 7.089 2.425 4.29 2.425 14.551h1.305v-9.7l6.156 9.7h13.243l-7.461-4.85-10.072-16.23-5.596 1.865zM408.615 375.386s-1.054 1.506-3.995 2.409c-7.034 2.061-2.425 4.29-11.208 9.587l.673 1.12 5.911-3.564 2.397-1.444-5.131 10.28 6.836 11.344.302-8.895 8.7-17.005-4.485-3.832z"/>
        <path fill="#736357" d="M415.661 154.298l2.518-.094.021.56-2.518.093zM404.838 154.514l.041-.558 3.786.28-.042.558z"/>
        <path fill="#FEC5B5" d="M521.7 268.121c11.097-6.436-27.046.047-27.046.047l-2.636 9.02a1.866 1.866 0 0 0 .862 2.136c2.764 1.588 10.973 3.856 31.617-4.477 27.232-11.016-2.798-6.726-2.798-6.726zM551.076 271.013l25.087-.86a9.964 9.964 0 0 1 9.84 6.944 3.984 3.984 0 0 1-4.011 5.184c-10.283-.56-31.164-2.14-35.208-6.044-5.407-5.224 4.292-5.224 4.292-5.224z"/>
        <path fill="#B5DEF7" d="M477.648 309.727l-31.831-25.562h63.663z"/>
        <path fill="#F2BDC7" d="M197.895 294.021l-24.51 18.037-24.511-18.037zM283.844 294.068l-24.544 17.99-24.478-18.082zM68.97 294.021l-24.51 18.037-24.512-18.037z"/>
        <path fill="#458396" d="M520.207 332.763a.28.28 0 0 1-.28-.28v-11.006a.28.28 0 1 1 .56 0v11.007a.28.28 0 0 1-.28.28zM565.837 336.017h-.018a.282.282 0 0 1-.261-.297l.695-10.986a.28.28 0 1 1 .56.035l-.696 10.985a.28.28 0 0 1-.28.263zM541.75 307.672a.28.28 0 0 1-.28-.28v-11.007a.28.28 0 1 1 .56 0v11.007a.28.28 0 0 1-.28.28z"/>
        <path fill="#FF9582" d="M401.164 155.39s-.504-1.617.106-1.628c.61-.011 2.848 2.185 2.848 2.185s-1.177-.308-1.527.224c-.351.531 1.663.992 1.663.992s-2.19.278-2.383-.653c-.194-.93 1.147-1.026 1.147-1.026s-1.25-1.166-1.52-.996c-.27.17-.334.903-.334.903z"/>
        <path fill="#637077" d="M423.216 150.497h-.02a.278.278 0 0 1-.26-.298c.071-.974-.746-2.205-2.348-3.556a20.036 20.036 0 0 0-2.548-1.804.28.28 0 0 1 .28-.485c.22.127 5.372 3.13 5.176 5.886a.28.28 0 0 1-.28.257z"/>
        <path fill="#00C39A" d="M425.622 178.67l6.547 6.993-.186-5.41s-3.582-.927-6.36-1.584z"/>
        <path fill="#DDC0A6" d="M468.194 278.757h8.044l.847 3.474h-9.738z"/>
        <path fill="#F2D5B8" d="M465.295 265.122v13.562a2.052 2.052 0 0 0 2.061 2.064h9.718a2.063 2.063 0 0 0 2.065-2.064v-.888a19.111 19.111 0 0 0 2.051-.274c.56-.108 1.004-.242 1.235-.416.953-.698.763-7.623.636-8.384-.127-.761-.89-1.207-2.033-1.207h-1.887v-2.393h-13.846zm13.844 3.66c.587 0 1.175 0 1.632.024.258.003.515.039.765.106.634.254.507 6.797-.32 7.24a.757.757 0 0 1-.095.046c-.402.15-1.191.171-1.982.141v-7.557z"/>
        <path fill="#DDC0A6" d="M479.139 267.523v1.266c.587 0 1.175 0 1.632.025-.024-.476-.043-.913-.062-1.291h-1.57zM479.139 276.34v1.456a19.111 19.111 0 0 0 2.051-.274c-.022-.401-.044-.847-.067-1.324-.404.15-1.193.171-1.984.141z"/>
        <path fill="#FFF" d="M474.088 262.672l-.026-.06c-.373-.835-1.138-1.324-1.679-2.009-.675-.849-.683-1.865-.597-2.934.08-.983.25-1.97.138-2.952-.151-1.335-1.216-3.43-2.688-3.664-1.65-.263-3.01 1.258-2.33 2.836.245.56.676 1.03 1.075 1.493.4.462.789.98.933 1.585.162.746-.077 1.493-.094 2.256-.037 1.865 1.942 2.306 3.23 3.078a3.957 3.957 0 0 1 1.821 2.153c.163-.644.5-1.071.217-1.782zM473.125 258.113c.058.604.672 1.005 1.263 1.141a2.214 2.214 0 0 0 1.533-.14c1.073-.56.91-2.134-.186-2.574-.942-.373-2.718.448-2.61 1.573zM463.866 255.878c.034.345.385.574.72.653.293.078.604.05.877-.08.612-.323.519-1.219-.11-1.47-.543-.213-1.548.255-1.487.897z"/>
        <path fill="#A37F62" d="M119.607 218.967H128.727l.961 3.939h-11.042z"/>
        <path fill="#C69C6D" d="M116.318 203.506v15.378a2.338 2.338 0 0 0 2.34 2.339h11.017a2.339 2.339 0 0 0 2.343-2.34v-1.005c.78-.063 1.555-.166 2.324-.31.62-.125 1.137-.278 1.399-.474 1.081-.79.865-8.64.721-9.514-.143-.873-1.009-1.367-2.305-1.367h-2.14v-2.715l-15.699.008zm15.7 4.15c.664 0 1.33 0 1.848.027.293.003.585.044.867.12.72.288.577 7.708-.36 8.21a.671.671 0 0 1-.11.05c-.455.171-1.35.186-2.238.16l-.007-8.566z"/>
        <path fill="#A37F62" d="M132.018 206.22v1.437c.664 0 1.33 0 1.848.026l-.069-1.463h-1.78zM132.018 216.22v1.652c.78-.062 1.555-.166 2.324-.31-.026-.455-.053-.962-.079-1.503-.455.177-1.35.202-2.245.16z"/>
        <path fill="#FFF" d="M126.29 200.735a1.148 1.148 0 0 0-.03-.07c-.42-.946-1.291-1.502-1.908-2.278-.767-.961-.776-2.112-.68-3.329.092-1.119.286-2.238.16-3.343-.174-1.516-1.381-3.891-3.048-4.156-1.866-.299-3.414 1.427-2.643 3.216.277.644.764 1.168 1.217 1.701.454.534.896 1.12 1.047 1.799.186.836-.088 1.701-.105 2.557-.042 2.107 2.201 2.612 3.664 3.491.975.584 1.71 1.379 2.063 2.442.2-.746.583-1.23.263-2.03zM125.198 195.56c.066.685.761 1.138 1.431 1.295.58.155 1.196.098 1.738-.159 1.217-.643 1.034-2.425-.218-2.921-1.061-.424-3.074.51-2.95 1.785zM114.71 193.025c.038.392.433.65.815.746.331.09.683.058.993-.09.694-.373.59-1.382-.125-1.665-.614-.25-1.763.281-1.683 1.009z"/>
        <path fill="#D6DEED" d="M509.575 277.636h58.381v4.85h-58.381z"/>
        <path fill="#E7EFF7" d="M567.863 277.543h-58.381V241.42a3.337 3.337 0 0 1 3.335-3.335h51.711a3.337 3.337 0 0 1 3.335 3.335v36.122z"/>
        <path fill="#4D585F" d="M522.57 401.27c0 4.404-15.938 4.404-15.938 0a7.97 7.97 0 0 1 15.938 0z"/>
        <rect width="17.936" height="4.949" x="505.737" y="400.105" fill="#4D585F" rx="1.048"/>
        <path fill="#4D585F" d="M561.393 394.941v10.18H590.7s.81-4.897-11.367-8.479l-6.627-1.701h-11.314z"/>
        <path fill="#FEC5B5" d="M418.926 385.839l5.782-1.866-.067-3.031-6.6 1.75.885 3.147z"/>
        <path fill="#000" d="M400.76 216.417l-.065.092a8.737 8.737 0 0 1-.887 2.268s3.357 2.052 5.222 8.582c.89 3.112 1.397 5.335 1.679 6.807.166.77.29 1.55.373 2.334 0 0 .429-.129 1.203-.345-1.873-14.872-7.524-19.738-7.524-19.738z" opacity=".08"/>
        <path fill="#85C9AC" d="M395.424 260.1c-.186-4.664 12.87-23.693 12.87-23.693a3.807 3.807 0 0 0-.839-1.04c-.104.392-.198.801-.28 1.226 0 0-15.108 14.738-16.414 24.812 0 2.16.702 9.201 3.227 22.76h4.234s-2.611-19.402-2.798-24.065z"/>
        <path fill="#DFF2FC" d="M345.623 282.374h259.824v5.522H345.623z"/>
        <path fill="#736357" d="M412.118 159.452a3.917 3.917 0 1 1 0-7.835 3.917 3.917 0 0 1 0 7.835zm0-7.276a3.358 3.358 0 1 0 0 6.716 3.358 3.358 0 0 0 0-6.716zM421.024 158.24c-1.773 0-3.217-1.59-3.217-3.545 0-1.955 1.444-3.545 3.217-3.545 1.774 0 3.218 1.59 3.218 3.545 0 1.955-1.444 3.544-3.218 3.544zm0-6.53c-1.466 0-2.658 1.34-2.658 2.985 0 1.645 1.192 2.985 2.658 2.985s2.658-1.34 2.658-2.985c0-1.646-1.192-2.985-2.658-2.985z"/>
        <path fill="#F4CD27" d="M402.186 157.587h1v2.425h-1z"/>
        <path fill="#F4CD27" d="M403.956 161.318h-3.167l1.583-1.584z"/>
        <path fill="#F4CD27" d="M401.253 161.131h1v1.306h-1zM403.118 161.131h1v1.306h-1z"/>
        <path fill="#F4CD27" d="M404.051 162.344a1.679 1.679 0 1 1-3.357 0h3.357z"/>
        <ellipse cx="538.859" cy="260.053" fill="#B9C8D1" rx="5.083" ry="5.084"/>
        <path fill="#EFB1BB" d="M156.892 405.92l16.492-12.136 16.49 12.136zM242.843 405.92l16.49-12.136 16.49 12.136zM27.969 405.92l16.49-12.136 16.492 12.136z"/>
        <path fill="#4D585F" d="M225.564 244.113a.56.56 0 0 1-.522-.76c2.946-7.773 1.195-15.224-.793-20.102a37.063 37.063 0 0 0-5.113-8.878.56.56 0 0 1 .86-.719c.123.148 3.04 3.664 5.277 9.142 2.072 5.072 3.894 12.827.815 20.956a.56.56 0 0 1-.524.361zM160.305 213.421a.56.56 0 0 1-.56-.463c-1.144-6.48 5.998-14.223 10.724-19.347 1.942-2.105 3.949-4.28 4-5.01a.561.561 0 1 1 1.12.08c-.077 1.072-1.524 2.687-4.29 5.689-4.577 4.96-11.493 12.46-10.445 18.394a.56.56 0 0 1-.549.657z"/>
        <path fill="#4D585F" d="M169.404 166.595c11.723-7.904 24.807 34.954 24.807 34.954s-19.573 28.862-28.454 19.982c-8.88-8.88 1.817-22.406 8.073-30.681 6.256-8.276-3.615-24.253-3.615-24.253"/>
        <path fill="#475256" d="M122.87 293.892l-11.097-11.505 4.103-15.077 53.494-.68.025 10.006-46.517 17.256"/>
        <path fill="#4D585F" d="M179.364 179.305c-6.901-2.238-7.834-17.228-7.834-17.228s-.68-4.201 1.996-4.341c3.294-.327 25.533-1.355 29.321 13.021 3.788 14.376-3.385 22.242 4.085 28.197 6.715 5.348 33.104 31.06 10.893 49.021-9.485 7.67-26.622 5.201-29.868 4.85-23.811-2.622-4.551-54.66-5.7-59.371-1.171-4.785-2.893-14.149-2.893-14.149z"/>
        <path fill="#4D585F" d="M172.774 163.267s-7.274 1.817-.701 10.283 9.421-10.02.701-10.283z"/>
        <path fill="#FEC5B5" d="M190.373 196.976l-9.886 5.18s-1.891-4.702-2.524-7.275a40.057 40.057 0 0 0-.373-1.416 7.892 7.892 0 0 0-5.51-5.55h-.013c-2.137-.593-3.892-1.306-4.327-2.365-.528-1.306.588-5.579 1.341-7.758a1.185 1.185 0 0 0-.451-1.37c-.72-.486-1.638-1.217-1.444-1.68.308-.746 2.304-.054 3.14-1.022.835-.968 1.225-3.23 1.855-4.871.373-.983.636-1.733 1.069-2.252a2.165 2.165 0 0 1 1.179-.733s.781 6.043 2.238 7.731c1.457 1.688 8.104 2.069 8.104 2.069l.148 1.328.373 3.377s2.484-4.248 4.881-3.696c2.397.552 1.96 4.272.548 6.29-1.412 2.02-4.687 1.624-4.687 1.624l.696 2.781a41.962 41.962 0 0 0 1.444 4.232c1.038 2.682 2.199 5.376 2.199 5.376z"/>
        <path fill="#FF9582" d="M184.924 176.977c-2.285.079-6.59 0-8.479-1.582-1.992-1.664-2.878-6.53-3.188-8.813a2.165 2.165 0 0 1 1.18-.733s.78 6.043 2.238 7.731c1.456 1.688 8.104 2.069 8.104 2.069l.145 1.328zM181.086 188.669c-.849 1.087-2.865 1.946-4.518 2.5a7.9 7.9 0 0 0-4.476-3.263c.265.061 4.57 1.013 7.567-.963 3.098-2.04 4.43-3.766 4.43-3.766s-1.466 3.524-3.003 5.492zM190.45 180.117s.393-2.457-.499-2.345c-.892.112-3.678 3.778-3.678 3.778s1.647-.698 2.268 0c.621.697-2.207 1.796-2.207 1.796s3.244-.058 3.33-1.451c.086-1.394-1.884-1.25-1.884-1.25s1.57-1.959 2-1.77c.428.188.67 1.242.67 1.242z"/>
        <path fill="#D6DEED" d="M86.732 343.451L74.77 357.775s-8.394.148-8.79 8.582a1.901 1.901 0 0 0 2.383 1.906l27.836-7.477-.834-15.564-8.632-1.77zM120.543 366.3l-6.776 16.826s-7.564 4.202-5.493 10.77a2.125 2.125 0 0 0 3.17 1.153l21.014-13.443-3.73-18.344-8.185 3.039z"/>
        <path fill="#AAA" d="M179.09 171.983a.56.56 0 0 1-.36-.132c-2.205-1.866-3.412-10.886-3.544-11.908a.564.564 0 1 1 1.12-.142c.339 2.66 1.566 9.858 3.153 11.193a.56.56 0 0 1-.362.99h-.007z"/>
        <path fill="#FF9092" d="M187.97 190.894s-7.485 2.985-9.503 7.63c-4.339 7.368-16.8 25.559-16.75 26.24.166 2.201 2.481 8.927 5.247 9.081 2.26 0-3.126 32.525-.862 40.709 2.914 10.531 36.48-7.505 36.48-7.505s9.283-50.456-14.612-76.155z"/>
        <path fill="#FEC5B5" d="M135.963 215.432l-2.57-6.302-16.355.933.092 2.494.932.536.21 2.265 1.29.477.395 2.052 1.198.202.406 1.981s7.855 3.545 11.826.746c3.97-2.798 2.576-5.384 2.576-5.384z"/>
        <path fill="#D7BDF3" d="M187.696 189.35l-10.035 6.147.605 3.833 10.314-7.745-.884-2.034"/>
        <path fill="#000" d="M174.158 255.128c2.425-1.48 4.17-3.866 5.424-6.627 1.532-3.376 2.697-6.92 3.73-10.473 2.15-7.373 3.87-15.033 4.513-22.698.164-1.952.76-5.368-.48-7.118l-18.357 18.973-2.703 13.914c1.097 4.513.316 9.223-.028 13.777-.056.733-.248 1.306.452 1.679.792.433 2.424.157 3.277.04a10.718 10.718 0 0 0 4.172-1.467z" opacity=".12"/>
        <path fill="#FEC5B5" d="M162.803 235.9l4.728-8.754 9.974 8.209-6.512 11.812c-1.33 2.525-4.234 3.85-6.983 3.088-.101-.028-.204-.06-.308-.091-3.73-1.183-30.767-29.527-30.767-29.527l2.584-5.369s26.594 16.19 27.284 20.631z"/>
        <path fill="#FF9582" d="M165.011 231.81l8.966 9.944 3.248-5.802-10.858-6.726-1.356 2.584"/>
        <path fill="#FF9092" d="M181.082 200.334l-15.686 29.638 10.818 9.774 14.103-23.609c.166-.315.113-6.156.237-6.48.682-1.866.02-2.476-2.466-4.532-2.96-2.442-7.006-4.79-7.006-4.79z"/>
        <path fill="#000" d="M165.154 229.862l13.218-26.094.998.506-13.218 26.094z" opacity=".12"/>
        <path fill="#5D6970" d="M190.41 296.308c22.664-.451 12.683-34.81 12.683-34.81l-87.206 28.917 4.63 76.09 8.207-3.118c-.17-14.03 8.535-53.445 3.986-61.51l57.7-5.569z"/>
        <path fill="#424C4F" d="M136.794 283.518l-19.383 6.035.245.56-1.746.25 3.144 51.452c3.421-7.67 3.143-32.73 3.005-41.675l.02.043s1.495-11.393 14.715-16.665z"/>
        <path fill="#475256" d="M115.869 267.31s-9.345 0-12.617 13.555l-16.693 63.36 8.634.933c2.352-10.798 24.415-44.665 26.348-56.795l-5.672-21.053z"/>
        <path fill="#646F75" d="M101.078 302.168a1.01 1.01 0 0 1-.976-1.27l5.752-21.495a1.01 1.01 0 1 1 1.95.522l-5.753 21.495a1.007 1.007 0 0 1-.973.748zM98.556 310.343a1.01 1.01 0 0 1-.976-1.269l.806-3.027a1.01 1.01 0 1 1 1.951.52l-.808 3.026a1.011 1.011 0 0 1-.973.75z"/>
        <rect width="280.154" height="2.612" y="405.241" fill="#C16881" rx="1.26"/>
        <path fill="#A8B7C6" d="M83.25 359.846a.56.56 0 0 1-.396-.164l-4.94-4.942a.56.56 0 1 1 .79-.791l4.941 4.942a.56.56 0 0 1-.395.955zM85.208 357.7a.56.56 0 0 1-.395-.164l-4.941-4.943a.56.56 0 1 1 .79-.791l4.951 4.943a.56.56 0 0 1-.395.956h-.01zM87.167 355.369a.56.56 0 0 1-.396-.165l-4.94-4.942a.56.56 0 1 1 .79-.79l4.941 4.941a.56.56 0 0 1-.395.956zM122.53 381.695a.56.56 0 0 1-.252-.06l-6.234-3.158a.56.56 0 1 1 .505-.998l6.234 3.157a.56.56 0 0 1-.254 1.06zM123.958 379.156a.548.548 0 0 1-.252-.06l-6.235-3.156a.56.56 0 0 1 .505-1l6.236 3.157a.56.56 0 0 1-.254 1.06zM125.092 376.33a.56.56 0 0 1-.252-.06l-6.233-3.156a.56.56 0 0 1 .505-1l6.23 3.156a.56.56 0 0 1-.254 1.06h.004z"/>
        <ellipse cx="188.946" cy="185.477" fill="#D3DBE0" rx="1.865" ry="1.866"/>
        <path fill="#FFF" d="M107.2 255.436H60.482l8.545 7.535h31.104z"/>
        <g opacity=".24">
            <path fill="#FFF" d="M64.338 215.65h74.26v14.413h-74.26z"/>
            <path fill="#FFF" d="M64.338 215.318h74.26v1h-74.26z"/>
            <path fill="#FFFFFE" d="M64.338 214.988h74.26v1h-74.26z"/>
            <path fill="#FFFFFD" d="M64.338 214.658h74.26v1h-74.26z"/>
            <path fill="#FFFFFC" d="M64.338 214.326h74.26v1h-74.26z"/>
            <path fill="#FFFFFB" d="M64.338 213.995h74.26v1h-74.26z"/>
            <path fill="#FFFFFA" d="M64.338 213.665h74.26v1h-74.26z"/>
            <path fill="#FFFFF9" d="M64.338 213.333h74.26v1h-74.26z"/>
            <path fill="#FFFFF8" d="M64.338 213.003h74.26v1h-74.26z"/>
            <path fill="#FFFFF7" d="M64.338 212.673h74.26v1h-74.26z"/>
            <path fill="#FFFFF6" d="M64.338 212.341h74.26v1h-74.26z"/>
            <path fill="#FFFFF5" d="M64.338 212.01h74.26v1h-74.26z"/>
            <path fill="#FFFFF4" d="M64.338 211.678h74.26v1h-74.26z"/>
            <path fill="#FFFFF3" d="M64.338 211.348h74.26v1h-74.26z"/>
            <path fill="#FFFFF2" d="M64.338 211.018h74.26v1h-74.26z"/>
            <path fill="#FFFFF1" d="M64.338 210.686h74.26v1h-74.26z"/>
            <path fill="#FFFFF0" d="M64.338 210.356h74.26v1h-74.26z"/>
            <path fill="#FFFFEF" d="M64.338 210.025h74.26v1h-74.26z"/>
            <path fill="#FFE" d="M64.338 209.693h74.26v1h-74.26z"/>
            <path fill="#FFFFED" d="M64.338 209.363h74.26v1h-74.26z"/>
            <path fill="#FFFFEC" d="M64.338 209.033h74.26v1h-74.26z"/>
            <path fill="#FFFFEB" d="M64.338 208.701h74.26v1h-74.26z"/>
            <path fill="#FFFFEA" d="M64.338 208.371h74.26v1h-74.26z"/>
            <path fill="#FFFFE9" d="M64.338 208.041h74.26v1h-74.26z"/>
            <path fill="#FFFFE8" d="M64.338 207.708h74.26v1h-74.26z"/>
            <path fill="#FFFFE7" d="M64.338 207.378h74.26v1h-74.26z"/>
            <path fill="#FFFFE6" d="M64.338 207.048h74.26v1h-74.26z"/>
            <path fill="#FFFFE5" d="M64.338 206.716h74.26v1h-74.26z"/>
            <path fill="#FFFFE4" d="M64.338 206.386h74.26v1h-74.26z"/>
            <path fill="#FFFFE3" d="M64.338 206.056h74.26v1h-74.26z"/>
            <path fill="#FFFFE2" d="M64.338 205.723h74.26v1h-74.26z"/>
            <path fill="#FFFFE1" d="M64.338 205.393h74.26v1h-74.26z"/>
            <path fill="#FFFFE0" d="M64.338 205.063h74.26v1h-74.26z"/>
            <path fill="#FFFFDF" d="M64.338 204.731h74.26v1h-74.26z"/>
            <path fill="#FFFFDE" d="M64.338 204.401h74.26v1h-74.26z"/>
            <path fill="#FFD" d="M64.338 204.071h74.26v1h-74.26z"/>
            <path fill="#FFFFDC" d="M64.338 203.74h74.26v1h-74.26z"/>
            <path fill="#FEFFDB" d="M64.338 203.408h74.26v1h-74.26z"/>
            <path fill="#FEFFDA" d="M64.338 203.078h74.26v1h-74.26z"/>
            <path fill="#FEFFD9" d="M64.338 202.746h74.26v1h-74.26z"/>
            <path fill="#FEFFD8" d="M64.338 202.416h74.26v1h-74.26z"/>
            <path fill="#FEFFD7" d="M64.338 202.086h74.26v1h-74.26z"/>
            <path fill="#FEFFD6" d="M64.338 201.754h74.26v1h-74.26z"/>
            <path fill="#FEFFD5" d="M64.338 201.423h74.26v1h-74.26z"/>
            <path fill="#FEFFD4" d="M64.338 201.093h74.26v1h-74.26z"/>
            <path fill="#FEFFD3" d="M64.338 200.761h74.26v1h-74.26z"/>
            <path fill="#FEFFD2" d="M64.338 200.431h74.26v1h-74.26z"/>
            <path fill="#FEFFD1" d="M64.338 200.101h74.26v1h-74.26z"/>
            <path fill="#FEFFD0" d="M64.338 199.77h74.26v1h-74.26z"/>
            <path fill="#FEFFCF" d="M64.338 199.438h74.26v1h-74.26z"/>
            <path fill="#FEFFCE" d="M64.338 199.108h74.26v1h-74.26z"/>
            <path fill="#FEFFCD" d="M64.338 198.776h74.26v1h-74.26z"/>
            <path fill="#FEFFCC" d="M64.338 198.446h74.26v1h-74.26z"/>
            <path fill="#FEFFCB" d="M64.338 198.114h74.26v1h-74.26z"/>
            <path fill="#FEFFCA" d="M64.338 197.784h74.26v1h-74.26z"/>
            <path fill="#FEFFC9" d="M64.338 197.453h74.26v1h-74.26z"/>
            <path fill="#FEFFC8" d="M64.338 197.121h74.26v1h-74.26z"/>
            <path fill="#FEFFC7" d="M64.338 196.791h74.26v1h-74.26z"/>
            <path fill="#FEFFC6" d="M64.338 196.461h74.26v1h-74.26z"/>
            <path fill="#FEFFC5" d="M64.338 196.13h74.26v1h-74.26z"/>
            <path fill="#FEFFC4" d="M64.338 195.8h74.26v1h-74.26z"/>
            <path fill="#FEFFC3" d="M64.338 195.468h74.26v1h-74.26z"/>
            <path fill="#FEFFC2" d="M64.338 195.136h74.26v1h-74.26z"/>
            <path fill="#FEFFC1" d="M64.338 194.806h74.26v1h-74.26z"/>
            <path fill="#FEFFC0" d="M64.338 194.476h74.26v1h-74.26z"/>
            <path fill="#FEFFBF" d="M64.338 194.144h74.26v1h-74.26z"/>
            <path fill="#FEFFBE" d="M64.338 193.814h74.26v1h-74.26z"/>
            <path fill="#FEFFBD" d="M64.338 193.483h74.26v1h-74.26z"/>
            <path fill="#FEFFBC" d="M64.338 193.151h74.26v1h-74.26z"/>
            <path fill="#FEFFBB" d="M64.338 192.821h74.26v1h-74.26z"/>
            <path fill="#FEFFBA" d="M64.338 192.491h74.26v1h-74.26z"/>
            <path fill="#FEFFB9" d="M64.338 192.16h74.26v1h-74.26z"/>
            <path fill="#FEFFB8" d="M64.338 191.83h74.26v1h-74.26z"/>
            <path fill="#FEFFB7" d="M64.338 191.5h74.26v1h-74.26z"/>
            <path fill="#FEFFB6" d="M64.338 191.166h74.26v1h-74.26z"/>
            <path fill="#FEFFB5" d="M64.338 190.836h74.26v1h-74.26z"/>
            <path fill="#FEFFB4" d="M64.338 190.506h74.26v1h-74.26z"/>
            <path fill="#FEFFB3" d="M64.338 190.174h74.26v1h-74.26z"/>
            <path fill="#FEFFB2" d="M64.338 189.844h74.26v1h-74.26z"/>
            <path fill="#FEFFB1" d="M64.338 189.514h74.26v1h-74.26z"/>
            <path fill="#FEFFB0" d="M64.338 189.181h74.26v1h-74.26z"/>
            <path fill="#FEFFAF" d="M64.338 188.851h74.26v1h-74.26z"/>
            <path fill="#FEFFAE" d="M64.338 188.521h74.26v1h-74.26z"/>
            <path fill="#FEFFAD" d="M64.338 188.19h74.26v1h-74.26z"/>
            <path fill="#FEFFAC" d="M64.338 187.86h74.26v1h-74.26z"/>
            <path fill="#FEFFAB" d="M64.338 187.53h74.26v1h-74.26z"/>
            <path fill="#FEFFAA" d="M64.338 187.197h74.26v1h-74.26z"/>
            <path fill="#FEFFA9" d="M64.338 186.866h74.26v1h-74.26z"/>
            <path fill="#FEFFA8" d="M64.338 186.536h74.26v1h-74.26z"/>
            <path fill="#FEFFA7" d="M64.338 186.204h74.26v1h-74.26z"/>
            <path fill="#FEFFA6" d="M64.338 185.874h74.26v1h-74.26z"/>
            <path fill="#FEFFA5" d="M64.338 185.544h74.26v1h-74.26z"/>
            <path fill="#FEFFA4" d="M64.338 185.212h74.26v1h-74.26z"/>
            <path fill="#FEFFA3" d="M64.338 184.881h74.26v1h-74.26z"/>
            <path fill="#FEFFA2" d="M64.338 184.55h74.26v1h-74.26z"/>
            <path fill="#FEFFA1" d="M64.338 184.22h74.26v1h-74.26z"/>
            <path fill="#FEFFA0" d="M64.338 183.89h74.26v1h-74.26z"/>
            <path fill="#FEFF9F" d="M64.338 183.557h74.26v1h-74.26z"/>
            <path fill="#FEFF9E" d="M64.338 183.227h74.26v1h-74.26z"/>
            <path fill="#FEFF9D" d="M64.338 182.896h74.26v1h-74.26z"/>
            <path fill="#FEFF9C" d="M64.338 182.564h74.26v1h-74.26z"/>
            <path fill="#FEFF9B" d="M64.338 182.234h74.26v1h-74.26z"/>
            <path fill="#FEFF99" d="M64.338 181.904h74.26v1h-74.26z"/>
            <path fill="#FEFF98" d="M64.338 181.572h74.26v1h-74.26z"/>
            <path fill="#FEFF97" d="M64.338 181.242h74.26v1h-74.26z"/>
            <path fill="#FEFF96" d="M64.338 180.911h74.26v1h-74.26z"/>
            <path fill="#FEFF95" d="M64.338 180.58h74.26v1h-74.26z"/>
            <path fill="#FDFF94" d="M64.338 180.25h74.26v1h-74.26z"/>
            <path fill="#FDFF93" d="M64.338 179.92h74.26v1h-74.26z"/>
            <path fill="#FDFF92" d="M64.338 179.587h74.26v1h-74.26z"/>
            <path fill="#FDFF91" d="M64.338 179.257h74.26v1h-74.26z"/>
            <path fill="#FDFF90" d="M64.338 178.926h74.26v1h-74.26z"/>
            <path fill="#FDFF8F" d="M64.338 178.594h74.26v1h-74.26z"/>
            <path fill="#FDFF8E" d="M64.338 178.264h74.26v1h-74.26z"/>
            <path fill="#FDFF8D" d="M64.338 177.934h74.26v1h-74.26z"/>
            <path fill="#FDFF8C" d="M64.338 177.602h74.26v1h-74.26z"/>
            <path fill="#FDFF8B" d="M64.338 177.272h74.26v1h-74.26z"/>
            <path fill="#FDFF8A" d="M64.338 176.941h74.26v1h-74.26z"/>
            <path fill="#FDFF89" d="M64.338 176.61h74.26v1h-74.26z"/>
            <path fill="#FDFF88" d="M64.338 176.28h74.26v1h-74.26z"/>
            <path fill="#FDFF87" d="M64.338 175.95h74.26v1h-74.26z"/>
            <path fill="#FDFF86" d="M64.338 175.617h74.26v1h-74.26z"/>
            <path fill="#FDFF85" d="M64.338 175.287h74.26v1h-74.26z"/>
            <path fill="#FDFF84" d="M64.338 174.957h74.26v1h-74.26z"/>
            <path fill="#FDFF83" d="M64.338 174.624h74.26v1h-74.26z"/>
            <path fill="#FDFF82" d="M64.338 174.294h74.26v1h-74.26z"/>
            <path fill="#FDFF81" d="M64.338 173.964h74.26v1h-74.26z"/>
            <path fill="#FDFF80" d="M64.338 173.632h74.26v1h-74.26z"/>
            <path fill="#FDFF7F" d="M64.338 173.302h74.26v1h-74.26z"/>
            <path fill="#FDFF7E" d="M64.338 172.972h74.26v1h-74.26z"/>
            <path fill="#FDFF7D" d="M64.338 172.64h74.26v1h-74.26z"/>
            <path fill="#FDFF7C" d="M64.338 172.31h74.26v1h-74.26z"/>
            <path fill="#FDFF7B" d="M64.338 171.98h74.26v1h-74.26z"/>
            <path fill="#FDFF7A" d="M64.338 171.647h74.26v1h-74.26z"/>
            <path fill="#FDFF79" d="M64.338 171.317h74.26v1h-74.26z"/>
            <path fill="#FDFF78" d="M64.338 170.985h74.26v1h-74.26z"/>
            <path fill="#FDFF77" d="M64.338 170.655h74.26v1h-74.26z"/>
            <path fill="#FDFF76" d="M64.338 170.324h74.26v1h-74.26z"/>
            <path fill="#FDFF75" d="M64.338 169.992h74.26v1h-74.26z"/>
            <path fill="#FDFF74" d="M64.338 169.662h74.26v1h-74.26z"/>
            <path fill="#FDFF73" d="M64.338 169.332h74.26v1h-74.26z"/>
            <path fill="#FDFF72" d="M64.338 169h74.26v1h-74.26z"/>
            <path fill="#FDFF71" d="M64.338 168.67h74.26v1h-74.26z"/>
            <path fill="#FDFF70" d="M64.338 168.34h74.26v1h-74.26z"/>
            <path fill="#FDFF6F" d="M64.338 168.007h74.26v1h-74.26z"/>
            <path fill="#FDFF6E" d="M64.338 167.677h74.26v1h-74.26z"/>
            <path fill="#FDFF6D" d="M64.338 167.347h74.26v1h-74.26z"/>
            <path fill="#FDFF6C" d="M64.338 167.015h74.26v1h-74.26z"/>
            <path fill="#FDFF6B" d="M64.338 166.685h74.26v1h-74.26z"/>
            <path fill="#FDFF6A" d="M64.338 166.354h74.26v1h-74.26z"/>
            <path fill="#FDFF69" d="M64.338 166.022h74.26v1h-74.26z"/>
            <path fill="#FDFF68" d="M64.338 165.692h74.26v1h-74.26z"/>
            <path fill="#FDFF67" d="M64.338 165.362h74.26v1h-74.26z"/>
            <path fill="#FDFF66" d="M64.338 165.03h74.26v1h-74.26z"/>
            <path fill="#FDFF65" d="M64.338 164.7h74.26v1h-74.26z"/>
            <path fill="#FDFF64" d="M64.338 164.37h74.26v1h-74.26z"/>
            <path fill="#FDFF63" d="M64.338 164.037h74.26v1h-74.26z"/>
            <path fill="#FDFF62" d="M64.338 163.707h74.26v1h-74.26z"/>
            <path fill="#FDFF61" d="M64.338 163.377h74.26v1h-74.26z"/>
            <path fill="#FDFF60" d="M64.338 163.045h74.26v1h-74.26z"/>
            <path fill="#FDFF5F" d="M64.338 162.715h74.26v1h-74.26z"/>
            <path fill="#FDFF5E" d="M64.338 162.384h74.26v1h-74.26z"/>
            <path fill="#FDFF5D" d="M64.338 162.052h74.26v1h-74.26z"/>
            <path fill="#FDFF5C" d="M64.338 161.722h74.26v1h-74.26z"/>
            <path fill="#FDFF5B" d="M64.338 161.392h74.26v1h-74.26z"/>
            <path fill="#FDFF5A" d="M64.338 161.06h74.26v1h-74.26z"/>
            <path fill="#FDFF59" d="M64.338 160.73h74.26v1h-74.26z"/>
            <path fill="#FDFF58" d="M64.338 160.4h74.26v1h-74.26z"/>
            <path fill="#FDFF57" d="M64.338 160.067h74.26v1h-74.26z"/>
            <path fill="#FDFF56" d="M64.338 159.737h74.26v1h-74.26z"/>
            <path fill="#FDFF55" d="M64.338 159.407h74.26v1h-74.26z"/>
            <path fill="#FDFF54" d="M64.338 159.075h74.26v1h-74.26z"/>
            <path fill="#FDFF53" d="M64.338 158.745h74.26v1h-74.26z"/>
            <path fill="#FDFF52" d="M64.338 158.415h74.26v1h-74.26z"/>
            <path fill="#FDFF51" d="M64.338 158.082h74.26v1h-74.26z"/>
            <path fill="#FDFF50" d="M64.338 157.752h74.26v1h-74.26z"/>
            <path fill="#FDFF4F" d="M64.338 157.42h74.26v1h-74.26z"/>
            <path fill="#FDFF4E" d="M64.338 157.09h74.26v1h-74.26z"/>
            <path fill="#FCFF4D" d="M64.338 156.76h74.26v1h-74.26z"/>
            <path fill="#FCFF4C" d="M64.338 156.428h74.26v1h-74.26z"/>
            <path fill="#FCFF4B" d="M64.338 156.097h74.26v1h-74.26z"/>
            <path fill="#FCFF4A" d="M64.338 155.767h74.26v1h-74.26z"/>
            <path fill="#FCFF49" d="M64.338 155.435h74.26v1h-74.26z"/>
            <path fill="#FCFF48" d="M64.338 155.105h74.26v1h-74.26z"/>
            <path fill="#FCFF47" d="M64.338 154.775h74.26v1h-74.26z"/>
            <path fill="#FCFF46" d="M64.338 154.443h74.26v1h-74.26z"/>
            <path fill="#FCFF45" d="M64.338 154.113h74.26v1h-74.26z"/>
            <path fill="#FCFF44" d="M64.338 153.782h74.26v1h-74.26z"/>
            <path fill="#FCFF43" d="M64.338 153.45h74.26v1h-74.26z"/>
            <path fill="#FCFF42" d="M64.338 153.12h74.26v1h-74.26z"/>
            <path fill="#FCFF41" d="M64.338 152.79h74.26v1h-74.26z"/>
            <path fill="#FCFF40" d="M64.338 152.458h74.26v1h-74.26z"/>
            <path fill="#FCFF3F" d="M64.338 152.128h74.26v1h-74.26z"/>
            <path fill="#FCFF3E" d="M64.338 151.797h74.26v1h-74.26z"/>
            <path fill="#FCFF3D" d="M64.338 151.465h74.26v1h-74.26z"/>
            <path fill="#FCFF3C" d="M64.338 151.135h74.26v1h-74.26z"/>
            <path fill="#FCFF3B" d="M64.338 150.805h74.26v1h-74.26z"/>
            <path fill="#FCFF3A" d="M64.338 150.473h74.26v1h-74.26z"/>
            <path fill="#FCFF39" d="M64.338 150.143h74.26v1h-74.26z"/>
            <path fill="#FCFF38" d="M64.338 149.812h74.26v1h-74.26z"/>
            <path fill="#FCFF37" d="M64.338 149.48h74.26v1h-74.26z"/>
            <path fill="#FCFF36" d="M64.338 149.15h74.26v1h-74.26z"/>
            <path fill="#FCFF35" d="M64.338 148.82h74.26v1h-74.26z"/>
            <path fill="#FCFF34" d="M64.338 148.488h74.26v1h-74.26z"/>
            <path fill="#FCFF33" d="M64.338 148.158h74.26v1h-74.26z"/>
            <path fill="#FCFF32" d="M64.338 147.827h74.26v1h-74.26z"/>
            <path fill="#FCFF31" d="M64.338 147.495h74.26v1h-74.26z"/>
            <path fill="#FCFF30" d="M64.338 147.165h74.26v1h-74.26z"/>
            <path fill="#FCFF2F" d="M64.338 146.835h74.26v1h-74.26z"/>
            <path fill="#FCFF2E" d="M64.338 146.503h74.26v1h-74.26z"/>
            <path fill="#FCFF2D" d="M64.338 146.173h74.26v1h-74.26z"/>
            <path fill="#FCFF2C" d="M64.338 145.842h74.26v1h-74.26z"/>
            <path fill="#FCFF2B" d="M64.338 145.51h74.26v1h-74.26z"/>
            <path fill="#FCFF2A" d="M64.338 145.18h74.26v1h-74.26z"/>
        </g>
        <path fill="#EFB1BB" d="M100.348 41.828h1.865v87.868h-1.865z"/>
        <ellipse cx="100.721" cy="150.777" fill="#FFDA40" rx="9.14" ry="9.141"/>
        <path fill="#FFF" d="M66.148 151.523h70.639l-35.719-35.725z"/>
        <rect width="329.209" height="2.612" x="332.194" y="405.241" fill="#3CAC83" rx="1.26"/>
        <rect width="43.459" height="22.76" x="433.102" y="104.511" fill="#31CEA3" rx="3.022"/>
        <path fill="#31CEA3" d="M433.102 119.78v12.528l14.548-7.462z"/>
        <ellipse cx="446.531" cy="116.264" fill="#FFF" rx="1.679" ry="1.679"/>
        <ellipse cx="454.179" cy="116.264" fill="#FFF" rx="1.679" ry="1.679"/>
        <ellipse cx="462.199" cy="116.264" fill="#FFF" rx="1.679" ry="1.679"/>
        <path fill="#FFF" d="M839.158 357.11c-18.093 0-40.848-23.507-40.848-23.507 2.61-2.239 1.678-9.514.746-9.888-.933-.373-19.958-6.156-21.45-6.342-1.492-.187-11.751-9.142-13.243-9.328-1.492-.187-18.839 1.679-18.839 1.679s-1.305 9.887 0 13.432c1.306 3.544 43.833 57.646 60.06 57.086 16.227-.56 33.574-23.133 33.574-23.133z"/>
        <path fill="#D6E0E8" d="M745.187 312.966l20.983-3.925-1.9-1.09-18.653 1.68zM774.336 357.881c6.487 4.01 14.898 8.472 20.057 8.37 8.787-.176 25.687-12.938 27.605-14.412a78.214 78.214 0 0 1-5.383-3.228l-14.388 5.513-22.131-15.417-13.057 11.32a298.43 298.43 0 0 0 7.297 7.854z"/>
        <path fill="#FEC5B5" d="M777.14 344.143l1.479.734 21.263 10.548c.847.42 1.83.475 2.718.15l44.679-16.282 3.357-1.12c5.41 1.68 9.326-7.089 9.326-7.089s4.902-.149 7.15-.313c.272-.02.503-.04.684-.06 1.679-.186 3.544-1.865 3.544-1.865l-13.43-.56-10.072 6.716c-17.107 2.668-41.109 3.125-46.257 8.209l-20.237-11.287"/>
        <path fill="#FF9582" d="M781.71 334.909l2.034-1.599 3.997 2.23-3.997 11.878-5.17-2.487z"/>
        <path fill="#FFF" d="M764.363 318.492l23.315 16.044-10.445 15.857-18.28-18.282"/>
        <path fill="#8573E1" d="M864.228 375.464s18.39-2.684 22.493-1.565c4.103 1.12-15.482 8.209-17.906 7.65-2.425-.56-7.497-5.637-4.587-6.085z"/>
        <path fill="#458396" d="M903.88 350.02s-22.569 27.797-33.946 28.916c-4.29.747-16.787.933-11.938-4.104 4.85-5.037 45.885-24.812 45.885-24.812z"/>
        <path fill="#669FBC" d="M809.529 367.84l90.994-35.73s4.663-2.984 8.767 1.12c4.103 4.104 70.691 55.594 70.691 55.594l-7.834 3.918c-6.58-8.989-60.474-24.178-68.266-42.722 0 0-39.916 30.222-49.429 31.528-9.512 1.306-47.878-.739-44.923-13.708z"/>
        <path fill="#4D585F" d="M968.417 405.987c-.571-5.51-7.726-6.313-8.65-5.957l-7.647-5.387s-4.68 2.552-8.223 1.276v9.076l24.52.992z"/>
        <path fill="#C3CBD8" d="M848.297 349.087l40.475-16.417 1.459 3.481-37.996 14.925s-2.632.063-3.938-1.989z"/>
        <path fill="#C3CBD8" d="M894.741 289.016l-5.969 43.654.866 2.067 6.968-47.214z"/>
        <path fill="#4D585F" d="M777.315 270.957c.113.363.176.74.186 1.12.178 3.408-1.997 5.919-3.917 8.52-2.995 4.078-5.254 8.646-8.102 12.83-3.75 5.506-9.583 11.566-16.888 10.612l3.171-2.425s-5.036 2.612-9.885 1.866c0 0 5.222-2.612 5.409-3.172 0 0-3.917 3.172-10.632.187l5.782-1.306s-7.274 1.865-12.683-2.612a113.817 113.817 0 0 0 6.994-9.96c3.83-6.18 5.75-17.852 14.017-19.835 3.652-.877 8.245-.746 11.977-.41 4.254.39 8.8 1.421 12.763 3.022.56.224 1.12.489 1.493.964.137.181.243.384.315.6z"/>
        <path fill="#A291FA" d="M737.69 316.067s26.86 8.022 43.833 36.005c16.973 27.984 80.017 10.447 95.498 31.715l-89.25 9.98-63.79-44.773 13.71-32.927z"/>
        <path fill="#6F5DDD" d="M882.058 388.264a.932.932 0 0 1-.786-.43c-3.579-5.607-9.589-9.377-18.919-11.866-8.363-2.239-18.042-3.085-28.29-3.988-21.475-1.896-43.684-3.857-53.333-19.417-8.675-14.302-20.86-23.577-29.556-28.842-9.423-5.705-16.858-8.046-16.93-8.07a.934.934 0 0 1 .559-1.782c.311.097 7.728 2.425 17.346 8.255 8.875 5.373 21.316 14.846 30.181 29.463 9.155 14.76 30.89 16.678 51.91 18.533 9.874.873 20.086 1.774 28.606 4.046 9.673 2.58 16.227 6.716 20.008 12.664a.933.933 0 0 1-.785 1.434h-.011z"/>
        <path fill="#D6E0E8" d="M787.305 334.909a.56.56 0 0 1-.304-.09l-22.196-14.365a.56.56 0 1 1 .608-.932l22.196 14.365a.56.56 0 0 1-.304 1.03v-.008z"/>
        <rect width="329.209" height="2.612" x="694.791" y="404.121" fill="#6F5DDD" rx="1.26"/>
        <path fill="#FFE98D" d="M891.471 165.896h-12.273V148.67h17.222v11.387zM875.281 197.362h17.221v17.225h-17.221zM854.204 174.789h17.221v17.225h-17.221z"/>
        <path fill="#FEE3FF" d="M892.564 191.09h-11.426l-5.795-6.367v-10.858h17.221z"/>
        <rect width="69.199" height="8.768" x="765.855" y="156.421" fill="#E2E1F9" rx=".904"/>
        <rect width="69.199" height="8.768" x="765.855" y="203.386" fill="#E2E1F9" rx=".904"/>
        <rect width="69.199" height="18.842" x="765.855" y="169.433" fill="#E2E1F9" rx="1.327"/>
        <rect width="69.199" height="5.037" x="765.855" y="193.685" fill="#EDEDFC" rx=".686"/>
        <ellipse cx="754.104" cy="160.805" fill="#E2E1F9" rx="5.409" ry="5.41"/>
        <ellipse cx="754.104" cy="207.864" fill="#E2E1F9" rx="5.409" ry="5.41"/>
        <path fill="#EFD76F" d="M891.384 159.359v6.53l5.036-5.784z"/>
        <path fill="#F1D3F4" d="M882.804 184.357h-7.461l5.782 6.716z"/>
        <path fill="#DBE1E8" d="M604.887 361.773h30.589v1.78h-30.589z"/>
    </g>
</svg>
