<?xml version="1.0" encoding="utf-8"?>
<!-- Generator: Adobe Illustrator 16.0.0, SVG Export Plug-In . SVG Version: 6.00 Build 0)  -->
<!DOCTYPE svg PUBLIC "-//W3C//DTD SVG 1.1//EN" "http://www.w3.org/Graphics/SVG/1.1/DTD/svg11.dtd">
<svg version="1.1" id="Layer_1" xmlns="http://www.w3.org/2000/svg" xmlns:xlink="http://www.w3.org/1999/xlink" x="0px" y="0px"
	 width="450px" height="450px" viewBox="0 0 450 450" enable-background="new 0 0 450 450" xml:space="preserve">
<g>
	<g>
		<g>
			
				<linearGradient id="SVGID_1_" gradientUnits="userSpaceOnUse" x1="538.2363" y1="390.5586" x2="538.2363" y2="505.2929" gradientTransform="matrix(-0.9712 0.2385 0.2385 0.9712 668.8929 -243.605)">
				<stop  offset="0" style="stop-color:#CFECF7"/>
				<stop  offset="1" style="stop-color:#1BBECF"/>
			</linearGradient>
			<path fill="url(#SVGID_1_)" d="M345.138,295.559c15.755-88.187-81.001-34.58-78.745-65.936
				c6.127-33.783,87.319,8.717,68.846-65.416c-5.038-20.226-62.422-51.362-116.627-46.804
				c-53.866,4.88-107.01,33.192-103.048,117.306c3.886,68.012,32.987,112.965,91.308,121.471
				C286.368,367.775,342.939,312.663,345.138,295.559z"/>
		</g>
		<path fill="#045388" d="M41.774,334.203c-3.778-1.857-7.139-3.747-9.991-5.61l0.528-0.809c2.819,1.842,6.146,3.712,9.888,5.555
			L41.774,334.203z M22.82,321.135c-3.06-3.482-4.615-6.963-4.752-10.639l0.963-0.035c0.129,3.443,1.605,6.727,4.514,10.037
			L22.82,321.135z M22.524,299.997l-0.802-0.535c1.825-2.737,4.339-5.604,7.684-8.765l0.663,0.697
			C26.776,294.507,24.308,297.32,22.524,299.997z M38.838,283.895l-0.601-0.754c3.042-2.423,6.342-4.918,9.195-7.07l0.58,0.771
			C45.165,278.986,41.872,281.479,38.838,283.895z M57.251,269.839l-0.588-0.766c3.559-2.742,6.424-5.041,9.019-7.234l0.623,0.735
			C63.699,264.777,60.822,267.085,57.251,269.839z M74.868,254.717l-0.686-0.678c2.994-3.036,5.423-5.9,7.426-8.754l0.789,0.554
			C80.363,248.736,77.901,251.641,74.868,254.717z M87.744,235.486l-0.917-0.299c0.896-2.756,1.352-5.535,1.352-8.269
			c0-0.964-0.057-1.942-0.167-2.908l0.957-0.11c0.116,1.001,0.174,2.017,0.174,3.018C89.142,229.754,88.671,232.635,87.744,235.486z
			 M84.491,213.257c-0.975-1.819-2.165-3.673-3.535-5.509c-0.998-1.338-1.977-2.689-2.91-4.015l0.788-0.554
			c0.928,1.319,1.902,2.662,2.895,3.993c1.398,1.875,2.613,3.769,3.611,5.629L84.491,213.257z M71.706,194.019
			c-2.055-3.425-3.917-6.857-5.536-10.203l0.868-0.419c1.606,3.319,3.455,6.725,5.495,10.125L71.706,194.019z M61.683,173.103
			c-1.334-3.792-2.378-7.562-3.101-11.205l0.945-0.188c0.715,3.599,1.746,7.323,3.065,11.072L61.683,173.103z M221.299,156.752
			l-0.87-1.622c-1.184-2.207-2.44-4.384-3.733-6.474l0.819-0.507c0.995,1.605,1.967,3.264,2.902,4.945
			c0.023-0.764,0.049-1.521,0.079-2.271l0.964,0.04c-0.054,1.331-0.095,2.681-0.123,4.05L221.299,156.752z M57.309,150.33
			c-0.005-0.324-0.008-0.646-0.008-0.966c0-3.649,0.352-7.226,1.047-10.631l0.944,0.193c-0.681,3.342-1.026,6.854-1.026,10.438
			c0,0.315,0.002,0.632,0.007,0.949L57.309,150.33z M222.318,139.366l-0.958-0.106c0.439-3.963,1.025-7.822,1.746-11.468
			l0.945,0.187C223.337,131.598,222.753,135.429,222.318,139.366z M210.165,139.174c-2.334-3.053-4.841-6.006-7.448-8.778
			l0.702-0.661c2.63,2.794,5.158,5.773,7.512,8.853L210.165,139.174z M345.656,134.624l-0.964-0.038
			c0.024-0.622,0.039-1.241,0.039-1.858c0-3.167-0.338-6.37-0.993-9.518l0.941-0.198c0.672,3.214,1.015,6.483,1.015,9.716
			C345.694,133.358,345.682,133.99,345.656,134.624z M62.9,128.099l-0.87-0.415c1.66-3.483,3.769-6.787,6.267-9.82l0.744,0.613
			C66.593,121.449,64.527,124.687,62.9,128.099z M194.402,122.433c-2.899-2.5-5.961-4.872-9.102-7.049l0.551-0.792
			c3.166,2.196,6.256,4.589,9.18,7.112L194.402,122.433z M226.852,116.817l-0.922-0.285c1.189-3.833,2.584-7.484,4.143-10.853
			l0.873,0.405C229.404,109.414,228.027,113.025,226.852,116.817z M340.13,112.363c-1.56-3.385-3.513-6.706-5.809-9.871l0.779-0.565
			c2.333,3.215,4.319,6.592,5.903,10.034L340.13,112.363z M77.259,110.525l-0.592-0.76c2.98-2.317,6.29-4.409,9.84-6.218
			l0.438,0.858C83.449,106.188,80.19,108.247,77.259,110.525z M175.511,109.331c-3.356-1.837-6.848-3.516-10.376-4.988l0.371-0.89
			c3.56,1.485,7.082,3.179,10.468,5.033L175.511,109.331z M154.291,100.474c-3.678-1.096-7.443-2.003-11.193-2.695l0.176-0.948
			c3.784,0.698,7.583,1.614,11.292,2.72L154.291,100.474z M97.568,100.06l-0.294-0.918c3.606-1.154,7.407-2.076,11.3-2.741
			l0.162,0.95C104.888,98.008,101.131,98.919,97.568,100.06z M131.681,96.311c-3.85-0.279-7.727-0.338-11.506-0.172l-0.042-0.963
			c3.818-0.166,7.732-0.106,11.618,0.174L131.681,96.311z M236.583,96.101l-0.795-0.545c2.256-3.291,4.776-6.287,7.493-8.902
			l0.67,0.695C241.281,89.919,238.801,92.864,236.583,96.101z M326.796,93.837c-2.719-2.636-5.695-5.096-8.854-7.311l0.555-0.789
			c3.201,2.245,6.219,4.737,8.971,7.408L326.796,93.837z M308.056,80.675c-3.466-1.706-7.057-3.132-10.673-4.241l0.283-0.922
			c3.665,1.124,7.304,2.569,10.816,4.297L308.056,80.675z M253.027,80.415l-0.492-0.829c3.334-1.975,6.921-3.557,10.658-4.7
			l0.281,0.921C259.811,76.929,256.295,78.479,253.027,80.415z M286.166,74.022c-3.868-0.478-7.739-0.581-11.451-0.302l-0.07-0.961
			c3.775-0.282,7.711-0.178,11.642,0.307L286.166,74.022z"/>
		
			<linearGradient id="SVGID_2_" gradientUnits="userSpaceOnUse" x1="416.9219" y1="19.7886" x2="527.7256" y2="19.7886" gradientTransform="matrix(1 0 0 -1 -82.6602 253.04)">
			<stop  offset="0" style="stop-color:#28BED0"/>
			<stop  offset="0.5515" style="stop-color:#55C4C2"/>
		</linearGradient>
		<path fill="url(#SVGID_2_)" d="M334.363,245.141c-1.454-8.882,13.098-12.359,16.886-6.953c-1.215-8.48,5.637-19.605,17.389-20.563
			c22.183-2.075,15.754,14.408,26.416,14.647c9.739-0.186,2.479-14.263,24.634-7.209c5.304,1.577,7.991,7.504,11.738,14.833
			c7.59-8.353,12.244-2.912,13.64,5.248C408.349,250.365,371.079,250.365,334.363,245.141z"/>
		
			<linearGradient id="SVGID_3_" gradientUnits="userSpaceOnUse" x1="86.0283" y1="95.9063" x2="245.0342" y2="95.9063" gradientTransform="matrix(1 0 0 -1 -82.6602 253.04)">
			<stop  offset="0" style="stop-color:#28BED0"/>
			<stop  offset="0.5515" style="stop-color:#55C4C2"/>
		</linearGradient>
		<path fill="url(#SVGID_3_)" d="M3.514,174.197c-2.088-12.746,18.793-17.737,24.231-9.976
			c-1.742-12.174,8.089-28.137,24.954-29.513c31.833-2.978,22.606,20.675,37.906,21.018c13.979-0.264,3.561-20.464,35.353-10.343
			c7.609,2.261,11.467,10.769,16.844,21.282c10.893-11.983,17.571-4.18,19.572,7.532C109.687,181.694,56.202,181.694,3.514,174.197z
			"/>
		<g>
			<g>
				<g>
					<path fill="#097A7E" d="M36.394,259.555c1.74,5.941,4.508,11.739,10.372,14.405c5.275,2.401,11.204,2.103,15.958,5.819
						c6.915,5.412,9.69,13.686,18.48,17.379c3.62,1.52,7.479,2.037,11.384,1.999c2.229-0.021,8.929,3.233,12.504-1.492
						c7.866-10.396-49.527-68.587-77.164-61.354C15.261,239.629,34.877,254.363,36.394,259.555z"/>
				</g>
				<g>
					<path fill="#097A7E" d="M68.23,251.016c-0.58,24.451,8.552,41.594,24.356,48.143c2.057,0.854,8.929,3.232,12.504-1.492
						C109.888,291.327,90.42,267.227,68.23,251.016z"/>
				</g>
				<g>
					<path fill="#0B6767" d="M105.306,297.346l0.814-0.681c-29.158-34.767-47.508-43.662-66.938-53.082
						c-1.531-0.742-3.067-1.485-4.611-2.245l-0.467,0.951c1.545,0.761,3.082,1.507,4.617,2.25
						C58.042,253.908,76.294,262.755,105.306,297.346z"/>
				</g>
				<g>
					<path fill="#0B6767" d="M48.058,260.555c5.992-3.318,10.195-2.328,16.017-0.949c0.851,0.201,1.733,0.41,2.656,0.615
						l0.227-1.039c-0.916-0.201-1.793-0.406-2.638-0.608c-5.825-1.378-10.427-2.466-16.776,1.054L48.058,260.555z"/>
				</g>
				<g>
					<path fill="#0B6767" d="M83.236,273.793l0.24-1.033c-1.026-0.24-1.946-0.482-2.756-0.697
						c-3.729-0.985-5.979-1.584-11.117-0.008l0.31,1.014c4.853-1.488,6.87-0.951,10.535,0.02
						C81.266,273.305,82.193,273.549,83.236,273.793z"/>
				</g>
				<g>
					<path fill="#0B6767" d="M54.274,252.262l1.127-0.042c-2.334-1.716-4.545-4.938-6.201-7.271
						c-1.053-1.481-2.142-3.016-3.393-4.385l-0.782,0.718c1.206,1.319,2.273,2.823,3.309,4.28
						C50.039,247.965,51.801,250.447,54.274,252.262z"/>
				</g>
			</g>
			<g>
				<g>
					<path fill="#097A7E" d="M68.695,219.396c-2.586,6.565-4.142,13.722-0.726,20.221c3.07,5.847,8.622,9.72,10.301,16.391
						c2.445,9.704-0.833,19.094,4.499,28.559c2.197,3.898,5.311,7.063,8.854,9.757c2.021,1.532,5.783,9.149,12.305,7.391
						c14.345-3.862,11.505-13.876,14.412-19.51c5.977-11.587,7.788-21.484,1.22-30.399c-2.688-3.648-7.247-5.563-9.749-9.328
						c-2.293-3.447-1.298-11.326-3.39-15.654c-2.275-4.706-7.396-8.132-8.468-13.234c-2.29-10.915-13.683-23.384-20.643-21.032
						C63.171,197.332,70.955,213.661,68.695,219.396z"/>
				</g>
				<g>
					<path fill="#0B6767" d="M104.419,301.57l1.06-0.041c-1.969-51.663-12.275-72.488-23.186-94.54
						c-0.86-1.737-1.722-3.478-2.581-5.238l-0.953,0.465c0.86,1.763,1.721,3.505,2.583,5.243
						C92.201,229.406,102.459,250.134,104.419,301.57z"/>
				</g>
				<g>
					<path fill="#0B6767" d="M95.604,241.143l0.814-0.68c-0.684-0.822-1.327-1.621-1.948-2.391
						c-4.273-5.301-7.648-9.484-15.798-10.747l-0.163,1.048c7.744,1.2,10.844,5.045,15.133,10.363
						C94.269,239.512,94.917,240.314,95.604,241.143z"/>
				</g>
				<g>
					<path fill="#0B6767" d="M100.983,264.9l0.824-0.67c-0.758-0.933-1.416-1.795-1.996-2.557c-2.656-3.484-4.262-5.587-9.973-7.75
						l-0.376,0.993c5.428,2.056,6.876,3.952,9.506,7.399C99.552,263.084,100.215,263.953,100.983,264.9z"/>
				</g>
				<g>
					<path fill="#0B6767" d="M89.962,225.301l1.084,0.977c-0.907-3.186-0.829-7.827-0.691-11.089
						c0.089-2.068,0.18-4.207,0.009-6.305l-1.058,0.085c0.167,2.034,0.078,4.139-0.011,6.175
						C89.155,218.489,89.006,221.949,89.962,225.301z"/>
				</g>
			</g>
		</g>
		<g>
			<g>
				<g>
					<rect x="97.714" y="145.259" fill="#FFFFFF" width="207.43" height="170.216"/>
					<rect x="111.842" y="191.019" fill="#F2F2F2" width="179.18" height="112.861"/>
					<rect x="111.842" y="190.5" fill="#D9D3D3" width="179.18" height="20.605"/>
					<g>
						<rect x="148.5" y="158.456" fill="#D9D3D3" width="140.318" height="7.929"/>
						<g>
							<g>
								<path fill="#FBAC1D" d="M123.501,162.42c0,1.334,1.091,2.425,2.425,2.425c1.333,0,2.425-1.09,2.425-2.425
									c0-1.333-1.092-2.425-2.425-2.425C124.592,159.996,123.501,161.087,123.501,162.42z"/>
							</g>
							<g>
								<path fill="#0E86C8" d="M114.042,162.42c0,1.334,1.091,2.425,2.425,2.425s2.425-1.09,2.425-2.425
									c0-1.333-1.091-2.425-2.425-2.425S114.042,161.087,114.042,162.42z"/>
							</g>
							<g>
								<path fill="#F26B41" d="M132.959,162.42c0,1.334,1.091,2.425,2.425,2.425s2.425-1.09,2.425-2.425
									c0-1.333-1.091-2.425-2.425-2.425C134.05,159.996,132.959,161.087,132.959,162.42z"/>
							</g>
						</g>
					</g>
				</g>
			</g>
			<g>
				<g>
					<rect x="125.514" y="225.329" fill="#F26B41" width="49.771" height="18.899"/>
					<g>
						<rect x="187.255" y="225.309" fill="#045388" width="90.093" height="1.927"/>
						<rect x="187.255" y="233.814" fill="#045388" width="90.093" height="1.928"/>
						<rect x="187.255" y="242.318" fill="#045388" width="90.093" height="1.929"/>
					</g>
				</g>
				<g>
					<rect x="125.514" y="257.457" fill="#FBAC1D" width="49.771" height="18.902"/>
					<g>
						<rect x="187.255" y="257.439" fill="#045388" width="90.093" height="1.929"/>
						<rect x="187.255" y="265.943" fill="#045388" width="90.093" height="1.929"/>
						<rect x="187.255" y="274.449" fill="#045388" width="90.093" height="1.93"/>
					</g>
				</g>
			</g>
		</g>
		<g>
			<path fill="#045388" d="M320.652,375.146c-1.241,9.68,4.041,21.576,23.258,23.932c22.011,0.381,30.158-13.411,29.499-23.932
				H320.652z"/>
			<g>
				<rect x="321.554" y="187.665" fill="#FBAC1D" width="50.82" height="182.558"/>
				<g>
					<polygon fill="#FCD5CA" points="372.855,187.948 346.962,140.678 321.071,187.948 					"/>
					<polygon fill="#045388" points="356.809,158.65 346.962,140.678 337.117,158.65 					"/>
				</g>
			</g>
			<g>
				<rect x="357.773" y="188.272" fill="#FFFFFF" width="1.93" height="181.951"/>
				<rect x="334.223" y="188.272" fill="#FFFFFF" width="1.93" height="181.951"/>
			</g>
			<rect x="319.475" y="368.352" fill="#F26B41" width="54.977" height="7.224"/>
		</g>
		<path fill="#F26B41" d="M60.26,289.07c0.195,0.002,0,0.504,0,0.504c8.819-3.59,69.62-5.965,71.556,7.47
			c3.123,21.679,6.278,36.787-10.175,43.293c-10.575,4.183-33.818,3.075-48.782,1.681l-11.998,8.918l0.286-10.266
			c-0.638-0.095-1.145-0.177-1.48-0.24C43.311,337.314,34.043,288.684,60.26,289.07z"/>
		<g>
			<path fill="#FBAC1D" d="M237.936,86.513c19.967-0.387,12.908,48.245,0.451,51.359c-3.855,0.964-35.582,5.943-47.204-0.092
				c-12.532-6.506-10.129-21.614-7.75-43.292c1.475-13.436,47.783-11.06,54.502-7.471C237.936,87.016,237.786,86.516,237.936,86.513
				z"/>
		</g>
		<g>
			<path fill="#FBAC1D" d="M253.432,309.668c3.194,16.482,23.748,67.896,14.31,69.643c-24.257,6.676-31.122-57.828-32.931-65.756
				c6.813,0.146,7.436-4.873,13.545-6.425"/>
			<g>
				<g>
					<path fill="#0E86C8" d="M303.343,229.055c-4.614,23.959,10.801,80.938,30.657,97.98c-22.994-5.801-60.216-13.791-88.283-7.526
						c-3.227,0.716-7.078,3.199-10.758,2.708c-8.909-1.185-13.792-16.131-6.741-22.873c1.865-1.781,4.618-1.389,7.058-2.174
						C262.066,288.489,289.779,248.057,303.343,229.055z"/>
				</g>
				<g>
					<path fill="#045388" d="M347.54,269.157c8.466,27.5,3.246,53.506-11.663,58.091c-14.909,4.602-33.859-13.979-42.318-41.465
						c-8.469-27.488-3.25-53.508,11.659-58.104C320.127,223.099,339.077,241.668,347.54,269.157z"/>
				</g>
				<g>
					<g>
						<g>
							<path fill="#F26B41" d="M312.556,266.469c-7.586-0.506-14.973-0.386-22.933-2.093c0.388,6.774,1.658,14.031,3.936,21.407
								c2.268,7.369,5.297,14.097,8.793,19.908c5.612-5.885,11.792-9.945,17.775-14.639L312.556,266.469z"/>
						</g>
					</g>
					<g>
						<path fill="#FFFFFF" d="M320.228,291.029c-2.056,0.644-5.433-4.352-7.521-11.139c-2.096-6.804-2.114-12.814-0.05-13.459
							c2.063-0.632,5.435,4.362,7.526,11.151C322.27,284.369,322.291,290.396,320.228,291.029z"/>
					</g>
				</g>
			</g>
			<g>
				<g enable-background="new    ">
					<path fill="#F26B41" d="M258.412,354.441c0.018-0.006,0.037-0.01,0.056-0.012c0.009-0.003,0.013-0.003,0.021-0.007
						c0.006,0,0.011-0.002,0.018-0.003l3.121-0.88c-0.016,0.004-0.025,0.006-0.039,0.01c-0.021,0.003-0.039,0.007-0.057,0.013
						c-0.012,0-0.021,0-0.03,0.002c-0.021,0.004-0.038,0.006-0.056,0.008c-0.01,0-0.021,0-0.032,0
						c-0.015,0.003-0.035,0.003-0.052,0.003c-0.014,0-0.021,0-0.031-0.003c-0.021,0-0.043-0.002-0.063-0.004
						c-0.011-0.002-0.016-0.002-0.023-0.002c-0.025-0.004-0.055-0.01-0.084-0.015c-0.006,0-0.014-0.002-0.02-0.004
						c-0.022-0.007-0.045-0.011-0.066-0.016c-0.012-0.005-0.022-0.011-0.038-0.015c-0.015-0.004-0.03-0.009-0.044-0.014
						c-0.018-0.004-0.026-0.011-0.039-0.016c-0.02-0.006-0.033-0.012-0.051-0.021c-0.012-0.005-0.028-0.009-0.039-0.014
						c-0.016-0.011-0.034-0.015-0.051-0.022c-0.012-0.005-0.025-0.013-0.037-0.021c-0.018-0.007-0.03-0.017-0.049-0.024
						c-0.014-0.008-0.029-0.015-0.043-0.021c-0.016-0.011-0.029-0.021-0.045-0.029c-0.018-0.01-0.029-0.017-0.041-0.026
						c-0.018-0.009-0.037-0.018-0.051-0.029c-0.016-0.01-0.029-0.02-0.041-0.027c-0.018-0.012-0.033-0.023-0.049-0.036
						c-0.014-0.01-0.03-0.021-0.044-0.03c-0.017-0.013-0.031-0.024-0.05-0.037c-0.014-0.012-0.027-0.021-0.043-0.032
						c-0.019-0.015-0.035-0.029-0.053-0.046c-0.013-0.01-0.027-0.021-0.041-0.033c-0.019-0.018-0.039-0.032-0.057-0.051
						c-0.014-0.012-0.023-0.021-0.036-0.033c-0.024-0.02-0.047-0.04-0.067-0.063c-0.012-0.01-0.021-0.02-0.032-0.027
						c-0.031-0.033-0.064-0.063-0.097-0.098c-0.006-0.004-0.012-0.008-0.013-0.013c-0.032-0.028-0.059-0.062-0.09-0.092
						c-0.013-0.013-0.021-0.025-0.034-0.036c-0.023-0.023-0.045-0.053-0.066-0.077c-0.015-0.011-0.025-0.026-0.037-0.04
						c-0.024-0.025-0.049-0.059-0.074-0.086c-0.014-0.016-0.025-0.027-0.035-0.043c-0.031-0.037-0.059-0.072-0.09-0.105
						c-0.008-0.01-0.014-0.021-0.021-0.026c-0.037-0.05-0.078-0.099-0.115-0.147c-0.01-0.013-0.021-0.027-0.03-0.041
						c-0.028-0.041-0.062-0.078-0.09-0.121c-0.013-0.014-0.021-0.026-0.032-0.041c-0.04-0.06-0.084-0.117-0.126-0.18
						c-0.007-0.009-0.017-0.021-0.021-0.029c-0.037-0.057-0.078-0.112-0.115-0.17c-0.008-0.013-0.018-0.024-0.024-0.035
						c-0.047-0.074-0.095-0.146-0.142-0.222c-0.01-0.017-0.02-0.03-0.026-0.045c-0.05-0.075-0.097-0.153-0.146-0.233
						c-0.006-0.008-0.01-0.021-0.021-0.028c-0.053-0.091-0.106-0.185-0.161-0.278c-0.002-0.004-0.004-0.006-0.004-0.007
						c-0.055-0.097-0.109-0.192-0.163-0.293c-0.006-0.008-0.009-0.019-0.013-0.024c-0.055-0.095-0.104-0.189-0.156-0.287
						c-0.004-0.015-0.015-0.027-0.02-0.043c-0.051-0.096-0.1-0.189-0.147-0.289c-0.009-0.02-0.021-0.035-0.026-0.055
						c-0.047-0.093-0.094-0.188-0.139-0.281c-0.006-0.015-0.015-0.027-0.021-0.045c-0.051-0.102-0.098-0.203-0.146-0.307l0,0
						c-0.029-0.073-0.064-0.146-0.097-0.219c-0.011-0.018-0.019-0.037-0.024-0.057c-0.025-0.055-0.048-0.105-0.07-0.16
						c-0.012-0.026-0.023-0.055-0.035-0.082c-0.02-0.045-0.04-0.092-0.061-0.139c-0.013-0.027-0.027-0.06-0.041-0.09
						c-0.019-0.043-0.035-0.089-0.058-0.134c-0.011-0.024-0.019-0.052-0.026-0.075c-0.055-0.126-0.107-0.256-0.158-0.387
						c-0.008-0.018-0.015-0.036-0.019-0.059c-0.054-0.125-0.104-0.261-0.153-0.394c-0.009-0.021-0.02-0.04-0.023-0.062
						c-0.041-0.105-0.081-0.215-0.12-0.32c-0.005-0.021-0.015-0.043-0.022-0.063c-0.037-0.104-0.074-0.215-0.111-0.321
						c-0.004-0.01-0.008-0.018-0.012-0.025c-0.047-0.146-0.1-0.292-0.146-0.442c-0.003-0.008-0.008-0.013-0.01-0.022
						c-0.041-0.12-0.08-0.245-0.12-0.368c-0.005-0.022-0.015-0.044-0.021-0.067c-0.033-0.107-0.066-0.216-0.102-0.322
						c-0.006-0.021-0.01-0.041-0.018-0.062c-0.031-0.094-0.057-0.188-0.082-0.284c-0.013-0.037-0.025-0.076-0.037-0.117
						c-0.026-0.098-0.053-0.19-0.08-0.285c-0.006-0.021-0.01-0.043-0.016-0.063c-0.029-0.101-0.057-0.201-0.084-0.299
						c-0.006-0.021-0.013-0.04-0.015-0.062c-0.03-0.115-0.062-0.234-0.093-0.351c-0.008-0.026-0.014-0.052-0.02-0.078
						c-0.031-0.119-0.06-0.237-0.089-0.354c-0.002-0.019-0.009-0.034-0.01-0.053c-0.033-0.138-0.065-0.272-0.095-0.408
						c-0.004-0.006-0.004-0.01-0.004-0.016c-0.035-0.145-0.064-0.286-0.095-0.428c0-0.006-0.001-0.01-0.003-0.014
						c-0.029-0.152-0.061-0.304-0.088-0.451c0-0.008-0.002-0.012-0.004-0.019c-0.027-0.157-0.061-0.312-0.085-0.462
						c0-0.004-0.001-0.008-0.004-0.011c-0.022-0.155-0.052-0.302-0.072-0.453c-0.002-0.012-0.004-0.022-0.005-0.034
						c-0.021-0.148-0.044-0.295-0.064-0.439c-0.004-0.026-0.008-0.055-0.013-0.082c-0.005-0.043-0.012-0.09-0.021-0.133
						c0-0.037-0.004-0.068-0.01-0.104c-0.005-0.042-0.012-0.086-0.017-0.13c-0.002-0.032-0.006-0.065-0.011-0.099
						c-0.008-0.047-0.012-0.096-0.016-0.144c-0.006-0.028-0.007-0.06-0.013-0.089c-0.006-0.063-0.013-0.125-0.019-0.188
						c0-0.012,0-0.023,0-0.039c-0.01-0.076-0.017-0.153-0.022-0.23c0-0.025-0.004-0.049-0.004-0.076
						c-0.007-0.05-0.009-0.102-0.013-0.154c-0.004-0.024-0.006-0.056-0.006-0.082c-0.006-0.071-0.012-0.145-0.015-0.215
						c0-0.009-0.001-0.021-0.002-0.029c-0.003-0.082-0.007-0.162-0.012-0.24c0.001-0.021,0-0.038,0.001-0.059
						c-0.006-0.088-0.01-0.176-0.01-0.264c0-0.003,0.002-0.006,0-0.01c0-0.088-0.004-0.172-0.002-0.257
						c0.002-0.024-0.002-0.046-0.002-0.068c0.002-0.03,0.004-0.062,0.004-0.092s0-0.058,0-0.086c0.002-0.03,0.002-0.062,0.002-0.093
						c0.002-0.026,0.002-0.055,0.005-0.082c0-0.031,0.002-0.062,0.002-0.092c0.001-0.026,0.004-0.052,0.003-0.076
						c0.002-0.032,0.005-0.063,0.006-0.096c0.004-0.023,0.003-0.05,0.004-0.078c0.001-0.018,0.004-0.037,0.006-0.057
						c0.002-0.033,0.004-0.063,0.008-0.094c0-0.021,0.002-0.042,0.004-0.061c0.002-0.029,0.004-0.06,0.008-0.088
						c0.001-0.021,0.002-0.039,0.005-0.062c0.004-0.027,0.008-0.056,0.011-0.087c0-0.018,0.004-0.037,0.006-0.057
						c0.004-0.029,0.008-0.059,0.012-0.086c0.004-0.018,0.004-0.037,0.006-0.054c0.006-0.031,0.01-0.063,0.014-0.095
						c0.002-0.014,0.005-0.027,0.008-0.041c0.006-0.043,0.014-0.084,0.02-0.127c0.004-0.012,0.005-0.024,0.009-0.037
						c0.007-0.031,0.01-0.063,0.017-0.092c0.002-0.017,0.008-0.032,0.01-0.049c0.008-0.024,0.012-0.053,0.016-0.074
						c0.003-0.019,0.009-0.033,0.012-0.051c0.006-0.021,0.012-0.047,0.018-0.069c0.006-0.017,0.009-0.033,0.012-0.048
						c0.009-0.025,0.013-0.047,0.021-0.066c0.004-0.016,0.006-0.032,0.012-0.049c0.006-0.021,0.012-0.041,0.02-0.064
						c0.004-0.016,0.008-0.029,0.01-0.043c0.012-0.025,0.02-0.048,0.028-0.068c0.001-0.012,0.005-0.024,0.011-0.037
						c0.012-0.03,0.021-0.063,0.032-0.094c0-0.002,0.004-0.009,0.005-0.013c0.012-0.03,0.024-0.059,0.037-0.09
						c0.006-0.01,0.01-0.021,0.014-0.034c0.01-0.02,0.019-0.035,0.028-0.058c0.006-0.013,0.011-0.024,0.017-0.034
						c0.006-0.018,0.019-0.035,0.023-0.053c0.008-0.014,0.014-0.023,0.02-0.035c0.012-0.016,0.019-0.032,0.024-0.049
						c0.009-0.01,0.017-0.021,0.021-0.031c0.012-0.018,0.017-0.031,0.029-0.046c0.006-0.011,0.012-0.021,0.021-0.032
						c0.01-0.014,0.021-0.027,0.03-0.043c0.004-0.01,0.011-0.02,0.02-0.025c0.012-0.019,0.023-0.033,0.036-0.05
						c0.005-0.007,0.01-0.012,0.014-0.018c0.019-0.021,0.037-0.041,0.056-0.06c0.004-0.008,0.01-0.013,0.014-0.018
						c0.013-0.014,0.025-0.028,0.04-0.041c0.009-0.007,0.016-0.014,0.022-0.02c0.01-0.012,0.023-0.021,0.035-0.03
						c0.01-0.009,0.018-0.015,0.024-0.021c0.01-0.01,0.022-0.019,0.034-0.025c0.011-0.008,0.018-0.014,0.026-0.021
						c0.013-0.007,0.022-0.014,0.038-0.022c0.01-0.004,0.016-0.012,0.025-0.014c0.013-0.008,0.025-0.016,0.039-0.021
						c0.008-0.004,0.017-0.008,0.024-0.014c0.015-0.008,0.03-0.013,0.044-0.019c0.008-0.003,0.016-0.007,0.021-0.01
						c0.021-0.009,0.046-0.017,0.068-0.021l-3.119,0.88c-0.023,0.006-0.045,0.014-0.065,0.021c-0.01,0.002-0.017,0.006-0.026,0.01
						c-0.013,0.006-0.027,0.012-0.043,0.018c-0.009,0.004-0.018,0.009-0.024,0.015c-0.017,0.006-0.028,0.012-0.039,0.021
						c-0.011,0.006-0.017,0.01-0.028,0.017c-0.01,0.006-0.025,0.016-0.035,0.022c-0.008,0.006-0.018,0.012-0.025,0.018
						c-0.012,0.009-0.023,0.02-0.033,0.027c-0.012,0.006-0.018,0.012-0.025,0.02c-0.014,0.01-0.023,0.021-0.035,0.031
						c-0.008,0.007-0.017,0.012-0.023,0.019c-0.014,0.015-0.023,0.027-0.039,0.041c-0.01,0.007-0.012,0.011-0.016,0.017
						c-0.02,0.019-0.035,0.039-0.055,0.062c-0.004,0.004-0.008,0.011-0.013,0.017c-0.013,0.018-0.024,0.033-0.038,0.049
						c-0.007,0.009-0.012,0.02-0.02,0.028c-0.012,0.013-0.021,0.028-0.031,0.043c-0.006,0.009-0.014,0.021-0.021,0.03
						c-0.009,0.018-0.016,0.029-0.024,0.045c-0.007,0.012-0.015,0.023-0.019,0.032c-0.013,0.017-0.02,0.032-0.027,0.051
						c-0.008,0.009-0.017,0.021-0.02,0.034c-0.009,0.016-0.02,0.033-0.025,0.051c-0.008,0.014-0.015,0.023-0.019,0.038
						c-0.009,0.017-0.019,0.038-0.024,0.06c-0.006,0.008-0.01,0.02-0.015,0.03c-0.014,0.027-0.026,0.062-0.038,0.091
						c0,0.004-0.003,0.008-0.006,0.014c-0.008,0.029-0.021,0.061-0.031,0.091c-0.002,0.013-0.009,0.024-0.014,0.038
						c-0.008,0.021-0.014,0.045-0.021,0.066c-0.008,0.014-0.008,0.03-0.015,0.045c-0.006,0.021-0.011,0.041-0.019,0.066
						c-0.006,0.016-0.008,0.029-0.012,0.047c-0.008,0.021-0.014,0.043-0.021,0.064c-0.001,0.019-0.01,0.033-0.012,0.051
						c-0.006,0.023-0.012,0.047-0.016,0.068c-0.006,0.018-0.009,0.033-0.015,0.051c-0.004,0.025-0.007,0.049-0.013,0.074
						c-0.004,0.017-0.006,0.03-0.014,0.047c-0.002,0.031-0.01,0.063-0.014,0.094c-0.002,0.014-0.006,0.023-0.008,0.037
						c-0.006,0.039-0.014,0.083-0.022,0.127c-0.001,0.013-0.005,0.027-0.006,0.04c-0.003,0.032-0.006,0.063-0.009,0.096
						c-0.008,0.019-0.012,0.037-0.012,0.054c-0.004,0.027-0.008,0.059-0.01,0.086c-0.004,0.02-0.004,0.041-0.009,0.059
						c-0.002,0.029-0.005,0.057-0.009,0.085c0,0.021-0.003,0.042-0.006,0.062c0,0.028-0.002,0.059-0.01,0.088
						c0,0.021,0,0.039-0.002,0.061c-0.004,0.029-0.004,0.063-0.008,0.095c0,0.019,0,0.038-0.004,0.06
						c-0.001,0.006,0,0.011-0.002,0.019c0,0.019,0,0.039-0.002,0.06c-0.001,0.029-0.004,0.058-0.005,0.09
						c-0.002,0.025-0.002,0.053-0.005,0.078c0,0.031,0,0.061-0.003,0.094c-0.001,0.025-0.001,0.055-0.001,0.08
						c-0.004,0.029-0.004,0.063-0.004,0.093c0,0.028,0,0.06-0.002,0.089c0.002,0.027,0,0.059,0,0.087
						c0.002,0.013,0.002,0.022,0,0.037c0.002,0.009,0,0.021,0,0.034c0.002,0.085,0.002,0.168,0.002,0.257
						c-0.002,0.005,0,0.006,0,0.01c0,0.089,0.004,0.175,0.008,0.265c0.001,0.01,0.001,0.021,0,0.033
						c0,0.006,0.001,0.016,0.001,0.022c0.004,0.08,0.008,0.159,0.012,0.239c0.001,0.012,0,0.021,0.001,0.029
						c0.004,0.073,0.012,0.146,0.014,0.223c0.004,0.01,0,0.021,0.004,0.033c0,0.013,0,0.022,0,0.037
						c0.009,0.053,0.009,0.109,0.016,0.166c0.001,0.023,0.001,0.047,0.006,0.068c0.006,0.077,0.012,0.156,0.021,0.232
						c-0.002,0.002,0,0.004-0.002,0.007c0,0.011,0.002,0.021,0.004,0.032c0.007,0.063,0.015,0.125,0.017,0.187
						c0.004,0.031,0.007,0.062,0.013,0.09c0.004,0.05,0.012,0.097,0.015,0.144c0.003,0.014,0.006,0.027,0.006,0.041
						c0.003,0.02,0.005,0.041,0.007,0.058c0.006,0.045,0.01,0.09,0.018,0.134c0.004,0.029,0.011,0.063,0.012,0.094
						c0.006,0.047,0.012,0.094,0.019,0.144c0.003,0.021,0.005,0.041,0.009,0.062c0,0.006,0,0.012,0,0.02
						c0.021,0.146,0.045,0.295,0.067,0.445c0,0.006,0.001,0.01,0.001,0.016c0.002,0.002,0.002,0.006,0.003,0.007
						c0.022,0.151,0.048,0.302,0.074,0.454c0,0.004,0,0.008,0,0.012c0,0,0,0.002,0.002,0.002c0.026,0.152,0.056,0.307,0.087,0.461
						c0,0.004-0.003,0.004-0.003,0.006c0.004,0.004,0.003,0.008,0.004,0.015c0.029,0.147,0.06,0.299,0.091,0.45
						c0.002,0,0.002,0,0,0.004c0.002,0.003,0.002,0.006,0.002,0.012c0.03,0.141,0.062,0.283,0.094,0.428
						c0.002,0.002,0.002,0.006,0.002,0.01s0,0.004,0,0.007c0.031,0.136,0.063,0.27,0.097,0.405c0.003,0.013,0.005,0.021,0.006,0.037
						c0.003,0.004,0.004,0.006,0.004,0.015c0.027,0.118,0.058,0.237,0.087,0.358c0.006,0.012,0.008,0.025,0.012,0.039
						c0.004,0.012,0.006,0.024,0.011,0.037c0.028,0.117,0.06,0.232,0.09,0.352c0.004,0.004,0.004,0.014,0.006,0.019
						c0.003,0.013,0.011,0.024,0.013,0.041c0.026,0.101,0.051,0.199,0.078,0.3c0.006,0.014,0.008,0.026,0.014,0.039
						c0,0.01,0.004,0.018,0.004,0.023c0.029,0.097,0.057,0.191,0.08,0.285c0.01,0.024,0.017,0.05,0.023,0.074
						c0.006,0.014,0.01,0.028,0.016,0.047c0.025,0.094,0.055,0.188,0.082,0.28c0.006,0.013,0.011,0.028,0.014,0.042
						c0,0.01,0.005,0.014,0.006,0.02c0.033,0.106,0.066,0.217,0.1,0.324c0.004,0.008,0.006,0.019,0.01,0.028
						c0.004,0.011,0.007,0.022,0.013,0.035c0.04,0.124,0.079,0.249,0.118,0.372c0.003,0.001,0.003,0.004,0.003,0.006
						c0.003,0.006,0.004,0.012,0.006,0.02c0.049,0.146,0.099,0.295,0.147,0.44c0.002,0.002,0,0.004,0.002,0.007
						c0.002,0.004,0.006,0.012,0.009,0.016c0.036,0.111,0.077,0.218,0.114,0.324c0.008,0.021,0.014,0.043,0.023,0.063
						c0.037,0.109,0.077,0.217,0.118,0.325c0.004,0.008,0.006,0.018,0.011,0.026c0.002,0.014,0.008,0.02,0.012,0.03
						c0.049,0.136,0.103,0.271,0.154,0.4c0.006,0.016,0.01,0.032,0.016,0.047c0.056,0.133,0.106,0.264,0.158,0.394
						c0.006,0.008,0.01,0.018,0.016,0.023c0.003,0.018,0.01,0.031,0.018,0.047c0.02,0.045,0.039,0.093,0.057,0.139
						c0.013,0.029,0.025,0.061,0.039,0.09c0.021,0.045,0.039,0.09,0.06,0.138c0.014,0.028,0.022,0.056,0.034,0.083
						c0.025,0.053,0.047,0.105,0.072,0.158c0.008,0.019,0.018,0.037,0.025,0.059c0.081,0.177,0.16,0.352,0.241,0.521
						c0.008,0.018,0.016,0.029,0.021,0.045c0.047,0.097,0.092,0.189,0.137,0.281c0.006,0.01,0.01,0.021,0.015,0.029
						c0.006,0.01,0.011,0.018,0.017,0.028c0.049,0.096,0.094,0.192,0.146,0.286c0.007,0.015,0.016,0.027,0.021,0.043
						c0.053,0.099,0.104,0.193,0.151,0.287c0.003,0.004,0.003,0.008,0.007,0.008c0.003,0.003,0.008,0.013,0.01,0.018
						c0.055,0.102,0.107,0.196,0.164,0.291c0.002,0.004,0.002,0.004,0.002,0.008c0.055,0.096,0.109,0.188,0.168,0.279
						c0.002,0.008,0.006,0.014,0.01,0.021c0.002,0.004,0.004,0.004,0.006,0.006c0.048,0.08,0.097,0.156,0.143,0.234
						c0.008,0.016,0.02,0.028,0.028,0.043c0.048,0.075,0.095,0.149,0.146,0.223c0,0.004,0.006,0.007,0.008,0.011
						c0.004,0.01,0.011,0.017,0.016,0.026c0.036,0.057,0.072,0.11,0.113,0.168c0.01,0.009,0.016,0.019,0.021,0.029
						c0.04,0.062,0.085,0.12,0.126,0.18c0.003,0.008,0.011,0.011,0.013,0.018c0.008,0.009,0.014,0.018,0.021,0.025
						c0.028,0.039,0.058,0.08,0.09,0.119c0.009,0.015,0.019,0.027,0.029,0.043c0.039,0.049,0.077,0.1,0.114,0.146
						c0.002,0,0.002,0.002,0.006,0.006c0.007,0.006,0.012,0.012,0.017,0.02c0.029,0.037,0.062,0.07,0.085,0.107
						c0.014,0.016,0.026,0.025,0.038,0.04c0.024,0.03,0.052,0.062,0.078,0.087c0.005,0.01,0.013,0.02,0.021,0.025
						c0.004,0.006,0.01,0.013,0.014,0.018c0.021,0.024,0.044,0.051,0.066,0.073c0.01,0.013,0.022,0.024,0.035,0.035
						c0.03,0.034,0.059,0.065,0.088,0.096c0.002,0.003,0.008,0.009,0.012,0.011c0,0.002,0,0.002,0,0.002
						c0.033,0.035,0.063,0.065,0.1,0.097c0.009,0.01,0.021,0.019,0.027,0.028c0.023,0.021,0.046,0.043,0.07,0.063
						c0,0.001,0.004,0.005,0.01,0.007c0.009,0.01,0.017,0.02,0.027,0.025c0.02,0.017,0.035,0.033,0.057,0.05
						c0.014,0.013,0.029,0.021,0.041,0.031c0.018,0.018,0.039,0.032,0.053,0.048c0.006,0.004,0.013,0.008,0.018,0.016
						c0.01,0.004,0.018,0.01,0.024,0.018c0.019,0.012,0.034,0.025,0.052,0.037c0.014,0.01,0.028,0.021,0.043,0.029
						c0.018,0.016,0.031,0.023,0.049,0.037c0.008,0.004,0.014,0.008,0.021,0.016c0.009,0.004,0.014,0.006,0.021,0.011
						c0.014,0.013,0.03,0.022,0.049,0.032c0.013,0.01,0.027,0.019,0.041,0.025c0.018,0.01,0.031,0.02,0.047,0.027
						c0.01,0.006,0.02,0.011,0.026,0.013c0.005,0.007,0.011,0.009,0.017,0.011c0.018,0.008,0.031,0.018,0.047,0.023
						c0.015,0.007,0.029,0.016,0.039,0.02c0.019,0.01,0.033,0.019,0.049,0.022c0.009,0.007,0.02,0.01,0.029,0.015l0,0l0,0l0,0
						c0.004,0.002,0.008,0.004,0.011,0.006c0.015,0.006,0.03,0.013,0.049,0.018c0.01,0.005,0.026,0.009,0.035,0.014
						c0.018,0.006,0.034,0.014,0.054,0.018c0.01,0.002,0.021,0.006,0.029,0.009c0.002,0.001,0.005,0.001,0.007,0.001
						c0.021,0.007,0.045,0.012,0.063,0.018c0.008,0,0.014,0.002,0.02,0.004c0.031,0.006,0.057,0.013,0.084,0.017
						c0.003,0,0.006,0,0.006,0c0.003,0,0.014,0.002,0.02,0c0.019,0.002,0.043,0.005,0.063,0.005c0.01,0.001,0.018,0.001,0.03,0.001
						c0.021-0.001,0.034,0,0.052,0c0.005,0,0.008,0,0.016-0.001c0.006,0,0.012,0,0.02-0.003c0.018,0,0.035,0,0.053-0.004
						C258.389,354.445,258.402,354.443,258.412,354.441z"/>
					<g>
						<g>
							<path fill="#FAF4A2" d="M261.706,343.17c1.524,5.287,1.485,9.93-0.08,10.371c-1.569,0.443-4.077-3.482-5.603-8.77
								c-1.521-5.287-1.484-9.929,0.082-10.371C257.676,333.958,260.184,337.885,261.706,343.17z"/>
							<path fill="#045388" d="M261.376,354.057c-2.083,0-4.502-4.604-5.813-9.15c-1.267-4.393-1.494-8.458-0.569-10.12
								c0.25-0.449,0.582-0.735,0.983-0.853c0.123-0.031,0.25-0.05,0.381-0.05c2.084,0,4.502,4.604,5.813,9.153
								c1.268,4.391,1.497,8.457,0.573,10.118c-0.251,0.448-0.581,0.735-0.984,0.852
								C261.637,354.04,261.507,354.057,261.376,354.057z M256.357,334.848c-0.043,0-0.082,0.006-0.119,0.016
								c-0.146,0.043-0.283,0.173-0.405,0.393c-0.67,1.204-0.66,4.816,0.653,9.385c1.66,5.743,4.051,8.726,5.01,8.438
								c0.146-0.042,0.279-0.175,0.402-0.394c0.67-1.203,0.66-4.816-0.655-9.381C259.652,337.785,257.385,334.848,256.357,334.848z"
								/>
						</g>
					</g>
				</g>
			</g>
		</g>
		<g>
			<g>
				<path fill="#FBAC1D" d="M76.735,41.989l-0.566-3.899c-0.744-5.057-1.511-10.285-2.028-15.552l1.384-0.135
					c0.514,5.234,1.279,10.445,2.016,15.486l0.57,3.901L76.735,41.989z"/>
				<path fill="#FBAC1D" d="M55.407,51.153l-3.286-2.141c-4.292-2.788-8.726-5.67-13.026-8.767l0.813-1.127
					c4.271,3.076,8.693,5.95,12.97,8.729l3.289,2.144L55.407,51.153z"/>
				<path fill="#FBAC1D" d="M31.739,76.427l-0.256-1.364c5.159-0.965,10.272-2.177,15.222-3.351l3.869-0.913l0.317,1.353
					l-3.866,0.912C42.062,74.241,36.93,75.457,31.739,76.427z"/>
				<path fill="#FBAC1D" d="M107.083,51.153l-0.761-1.161l3.292-2.144c4.275-2.779,8.697-5.653,12.968-8.729l0.813,1.127
					c-4.3,3.097-8.735,5.979-13.024,8.767L107.083,51.153z"/>
				<path fill="#FBAC1D" d="M130.753,76.427c-5.192-0.97-10.323-2.186-15.287-3.364l-3.866-0.912l0.316-1.353l3.871,0.913
					c4.947,1.173,10.063,2.386,15.221,3.351L130.753,76.427z"/>
			</g>
			<path fill="#045388" d="M75.579,126.449c0.022,0.301,1.707,4.138,1.731,4.441c2.79,0,5.588,0,8.373,0
				c-0.032-0.303,1.264-4.14,1.229-4.443C84.133,126.447,78.358,126.447,75.579,126.449z"/>
			<path fill="#FBAC1D" d="M70.569,100.21c0.846,2.118,1.632,12.596,2.387,14.744h17.807c0.824-2.157,1.681-12.644,2.604-14.764
				c2.027-2.925,11.354-13.78,14.515-23.948c4.259-12.763-7.668-30.784-26.151-30.81C63.304,45.271,50.307,62.04,54.554,74.843
				C57.738,85.463,66.625,95.445,70.569,100.21z"/>
			<path fill="#045388" d="M85.103,113.579c-1.354-7.419-0.695-23.022,2.004-34.254c-0.368,0.041-0.731,0.013-1.091-0.083
				c-1.689-0.449-2.924-2.369-3.804-4.557c-1.271,2.871-2.822,4.447-4.641,4.704c-0.717,0.103-1.431-0.012-2.122-0.29
				c1.602,10.737,3.327,26.327,2.89,34.412l-1.104-0.061c0.417-7.659-1.287-23.754-2.999-35.017c-1.812-1.254-3.4-3.521-4.499-5.752
				c-1.159-2.359-2.134-5.482-1.068-6.522L68.74,66.1c0.926-0.637,1.794-0.794,2.578-0.472c1.9,0.782,2.54,4.146,2.882,5.954
				l0.015,0.078c0.313,1.655,0.667,3.745,1.033,6.121c0.711,0.414,1.446,0.618,2.167,0.515c1.243-0.175,2.818-1.33,4.243-5.152
				c-0.424-1.322-0.733-2.639-0.947-3.71c-0.712-3.563,0.257-6.339,1.583-7.239c0.537-0.365,1.113-0.399,1.577-0.097
				c0.825,0.535,1.074,1.986,0.699,4.089c-0.489,2.744-1.073,5.068-1.751,6.965c0.971,2.875,2.195,4.684,3.479,5.024
				c0.351,0.093,0.717,0.081,1.104-0.037c0.848-3.253,1.88-6.078,3.093-8.14l0.207-0.356c0.687-1.189,1.335-2.318,2.241-2.226
				c0.772,0.074,1.093,1.003,1.198,1.31c0.877,2.55-2.581,7.244-3.556,8.361c-0.754,0.865-1.498,1.481-2.227,1.85
				c-2.744,11.021-3.528,27.005-2.171,34.444L85.103,113.579z M92.827,68.534c-0.306,0.172-0.883,1.169-1.167,1.662l-0.21,0.363
				c-1.016,1.726-1.904,4.06-2.664,6.771c0.314-0.264,0.638-0.587,0.97-0.967c1.504-1.726,3.909-5.634,3.344-7.277
				C92.979,68.737,92.877,68.59,92.827,68.534z M69.416,66.974c-0.281,0.379-0.091,2.365,1.312,5.22
				c0.813,1.651,1.965,3.415,3.256,4.625c-0.292-1.832-0.58-3.504-0.854-4.953l-0.015-0.078c-0.26-1.372-0.87-4.584-2.216-5.139
				C70.484,66.479,70,66.586,69.416,66.974z M83.186,63c-0.094,0-0.205,0.063-0.271,0.108c-0.856,0.582-1.77,2.862-1.121,6.109
				c0.146,0.729,0.305,1.423,0.477,2.078c0.432-1.46,0.841-3.21,1.213-5.303c0.358-2.007,0.019-2.82-0.211-2.968
				C83.246,63.007,83.217,63,83.186,63z"/>
			<path fill="#0E86C8" d="M69.912,112.572c1.107,1.211,1.627,1.779,2.149,2.351c-2.017-0.19-2.119,3.027,0.423,3.181
				c-2.593-0.101-2.698,3.217-0.165,3.253c-2.534-0.138-2.638,3.599-0.252,3.809c-0.607,0.661-1.082,1.177-1.595,1.735
				c3.276,1.536,21.396,1.436,21.775-0.163c-0.446-0.53-0.939-1.119-1.445-1.715c2.543-0.224,1.869-3.595-0.252-3.438
				c2.846-0.313,1.759-3.686-0.012-3.454c2.392-0.44,1.665-2.877,0.304-3.177c0.572-0.784,1.021-1.398,1.738-2.382
				C84.949,112.572,77.791,112.572,69.912,112.572z"/>
		</g>
		<g>
			<path fill="#FFFFFF" d="M180.397,281.223h-59.815v-61.429h59.815V281.223z"/>
			<g>
				<g>
					<g>
						<path fill="#045388" d="M148.13,277.593c2.42-5.958,6.082-14.971,8.364-20.59c0.193-0.476,0.398-0.894,0.607-1.292
							c-1.2-2.95-2.327-5.729-3.277-8.066c-3.278-8.065-8.642-8.065-11.918,0c-3.279,8.066-8.642,21.269-11.917,29.336
							c-0.084,0.205-0.163,0.412-0.238,0.612H148.13z"/>
						<path fill="#0E86C8" d="M173.597,277.593c-2.42-5.958-6.082-14.971-8.364-20.59c-2.212-5.44-5.714-5.86-8.131-1.292
							c-0.208,0.398-0.414,0.816-0.607,1.292c-2.283,5.619-5.944,14.632-8.364,20.59H173.597z"/>
					</g>
					<path fill="#FBAC1D" d="M165.414,235.18c0,2.84-2.3,5.137-5.14,5.137c-2.838,0-5.14-2.297-5.14-5.137
						c0-2.838,2.301-5.141,5.14-5.141C163.114,230.039,165.414,232.342,165.414,235.18z"/>
				</g>
			</g>
			<path fill="#F7A29F" d="M159.114,277.24c-6.691-0.146-2.656-10.19-16.578-8.928c-2.116,0.17-18.995,0.849-20.557,1.854v9.842
				h57.208v-16.106C166.134,265.354,164.85,277.135,159.114,277.24z"/>
			<path fill="#BCE3DC" d="M180.397,281.223h-59.815v-61.429h59.815V281.223z M123.636,278.646h53.709V222.37h-53.709V278.646z"/>
			<path fill="#FFFFFF" d="M179.335,280.461h-57.689v-59.905h57.689V280.461z M122.127,279.979h56.727v-58.939h-56.727V279.979z"/>
		</g>
		<g>
			<rect x="165.087" y="161.442" fill="#FFFFFF" width="35.672" height="1.928"/>
		</g>
		<g>
			<path id="WordPress__x28_alt_x29_" fill="#FFFFFF" d="M198.833,103.039c3.225-6.016,9.692-9.949,17.151-9.949
				c4.826,0,9.238,2.057,12.625,4.96c-0.967-0.187-2.024,0.023-3.088,0.633c-2.494,1.429-3.308,5.474-0.076,7.505
				c2.018,1.261,2.734,4.418,2.668,6.346c-0.065,1.932-4.69,10.802-4.69,10.802l-4.502-15.46c0,0-0.155-1.084-0.155-1.397
				c0-0.394,0.131-0.877,0.373-1.153c0.168-0.184,0.424-0.569,0.728-0.569h2.133v-1.718h-11.601v1.718h0.358
				c0.382,0,0.752,0.511,1.111,0.878c0.423,0.438,0.957,2.083,1.603,3.79l1.688,5.557l-3.637,8.4l-3.987-16.79
				c0,0,0.116-1.151,0.358-1.346c0.157-0.134,0.398-0.49,0.678-0.49h0.109v-1.718L198.833,103.039L198.833,103.039z
				 M201.107,105.957c0,0-0.939-1.2-1.934-1.2h-1.012c-0.975,2.149-1.513,5.034-1.513,7.679c0,7.955,4.878,14.777,11.829,17.686
				L201.107,105.957z M232.623,102.885c0.365,1.744,0.291,3.858-0.426,6.184c-1.869,6.054-6.498,16.942-8.289,21.09
				c6.726-3.002,11.41-9.707,11.41-17.5C235.318,109.089,234.334,105.748,232.623,102.885z M216.374,119.229l-4.942,12.076
				c1.459,0.35,2.982,0.541,4.553,0.541c1.623,0,3.201-0.202,4.707-0.576L216.374,119.229z"/>
		</g>
		<g>
			<path fill="#FDFEFF" d="M79.906,307.915c1.203-1.204,3.151-1.204,4.352-0.002l0.287,0.287l3.704-3.704l-0.288-0.289
				c-2.111-2.114-5.075-2.854-7.782-2.217c-0.389-2.389-2.458-4.211-4.952-4.213c-2.771,0-5.018,2.252-5.018,5.024
				c0,2.394,1.67,4.396,3.907,4.903c-0.848,2.838-0.156,6.038,2.082,8.279l8.346,8.349l3.701-3.709l-8.346-8.349
				C78.702,311.079,78.7,309.122,79.906,307.915z M107.628,302.803c0-2.773-2.248-5.023-5.019-5.023c-2.537,0-4.633,1.885-4.97,4.33
				c-2.824-0.829-6-0.127-8.23,2.104l-8.346,8.352l3.704,3.705l8.343-8.348c1.207-1.207,3.15-1.204,4.348-0.006
				c1.202,1.202,1.202,3.154-0.001,4.357l-0.286,0.287l3.701,3.709l0.288-0.291c2.215-2.22,2.919-5.377,2.111-8.192
				C105.73,307.462,107.628,305.354,107.628,302.803z M103.361,325.293c0.664-2.729-0.072-5.729-2.202-7.857l-8.334-8.354
				l-3.704,3.705l8.335,8.354c1.207,1.209,1.205,3.153,0.007,4.354c-1.201,1.201-3.15,1.201-4.354-0.002l-0.285-0.285l-3.7,3.709
				l0.283,0.282c2.254,2.258,5.481,2.946,8.33,2.069c0.463,2.297,2.488,4.022,4.918,4.022c2.77,0,5.018-2.247,5.018-5.022
				C107.674,327.732,105.799,325.636,103.361,325.293z M92.594,317.146l-8.335,8.352c-1.198,1.2-3.151,1.203-4.357-0.004
				c-1.203-1.206-1.203-3.153-0.001-4.358l0.285-0.284l-3.703-3.705l-0.284,0.283c-2.152,2.153-2.878,5.194-2.177,7.947
				c-2.213,0.523-3.86,2.516-3.86,4.891c0,2.775,2.248,5.023,5.019,5.023c2.385-0.001,4.381-1.664,4.893-3.896
				c2.736,0.682,5.751-0.047,7.889-2.188l8.333-8.353L92.594,317.146z"/>
		</g>
		<path fill="#097A7E" d="M174.76,366.07c0.195,0.003,0,0.504,0,0.504c8.819-3.59,69.62-5.967,71.557,7.47
			c3.123,21.681,6.276,36.787-10.174,43.292c-10.576,4.184-33.819,3.076-48.784,1.682l-11.712-1.348
			c-0.638-0.095-1.145-0.177-1.48-0.24C157.811,414.314,148.543,365.684,174.76,366.07z"/>
		<g>
			<path id="Drupal" fill="#FFFFFF" d="M213.53,377.723c-2.332-1.451-4.538-2.02-6.738-3.471c-1.364-0.92-3.256-3.113-4.844-5.001
				c-0.305,3.028-1.23,4.261-2.29,5.138c-2.241,1.752-3.651,2.277-5.591,3.334c-1.629,0.834-10.478,6.098-10.478,17.42
				c0,11.318,9.555,19.654,20.164,19.654c10.612,0,19.814-7.678,19.814-19.306S214.939,378.6,213.53,377.723z M213.709,410.371
				c-0.222,0.217-2.247,1.622-4.623,1.843c-2.378,0.218-5.593,0.351-7.529-1.405c-0.307-0.309-0.222-0.744,0-0.918
				c0.22-0.18,0.395-0.313,0.661-0.313c0.266,0,0.218,0,0.353,0.089c0.88,0.704,2.2,1.271,5.016,1.271
				c2.819,0,4.803-0.785,5.682-1.446c0.396-0.308,0.572-0.042,0.617,0.134C213.928,409.799,214.017,410.064,213.709,410.371z
				 M206.078,406.677c0.485-0.44,1.279-1.143,2.028-1.448c0.749-0.309,1.141-0.264,1.848-0.264c0.704,0,1.455,0.043,1.981,0.396
				c0.527,0.352,0.837,1.14,1.009,1.574c0.179,0.441,0,0.703-0.348,0.881c-0.306,0.174-0.352,0.088-0.661-0.481
				c-0.306-0.569-0.571-1.144-2.112-1.144s-2.026,0.529-2.774,1.144c-0.748,0.612-1.013,0.833-1.279,0.481
				C205.508,407.468,205.596,407.115,206.078,406.677z M221.97,398.313c0,1.359-0.439,3.815-1.499,5.353
				c-1.053,1.538-1.712,2.108-2.95,2.021c-1.586-0.135-4.754-5.047-6.78-5.138c-2.55-0.087-8.1,5.313-12.459,5.313
				c-2.643,0-3.433-0.396-4.313-0.969c-1.323-0.922-1.984-2.324-1.941-4.256c0.047-3.425,3.257-6.623,7.311-6.667
				c5.148-0.046,8.719,5.085,11.314,5.044c2.203-0.041,6.431-4.344,8.5-4.344C221.354,394.671,221.97,396.949,221.97,398.313z"/>
		</g>
	</g>
</g>
</svg>
