<svg xmlns="http://www.w3.org/2000/svg" width="500" height="500" viewBox="0 0 500 500" fill="none"><path d="M250.17 483C380.293 483 485.78 422.098 485.78 346.97C485.78 271.843 380.293 210.94 250.17 210.94C120.046 210.94 14.5596 271.843 14.5596 346.97C14.5596 422.098 120.046 483 250.17 483Z" fill="#C1EEE6"></path><path d="M71.2403 395.41L30.6003 372C28.3103 370.67 28.3103 368.53 30.6003 367.21L267 230.68C268.285 230.025 269.708 229.683 271.15 229.683C272.593 229.683 274.015 230.025 275.3 230.68L315.94 254.14C318.23 255.46 318.23 257.61 315.94 258.93L79.5403 395.41C78.2538 396.061 76.8322 396.401 75.3903 396.401C73.9484 396.401 72.5268 396.061 71.2403 395.41Z" fill="#E0E0E0"></path><path d="M245.93 405.12L148.32 348.77L270.3 278.48L367.79 334.76L245.93 405.12Z" fill="#E0E0E0"></path><path d="M380.691 430.251C406.173 430.251 426.831 418.324 426.831 403.611C426.831 388.898 406.173 376.971 380.691 376.971C355.208 376.971 334.551 388.898 334.551 403.611C334.551 418.324 355.208 430.251 380.691 430.251Z" fill="#E0E0E0"></path><path d="M442.6 371.531C447.6 374.421 447.6 379.101 442.6 381.991C437.6 384.881 429.49 384.871 424.49 381.991C419.49 379.111 419.49 374.421 424.49 371.531C429.49 368.641 437.6 368.641 442.6 371.531Z" fill="#E0E0E0"></path><path d="M217.321 353.59L252.261 333.39C255.861 331.31 257.661 328.59 257.661 325.86C257.661 323.13 257.661 321 257.661 321L221.411 300.56C220.401 299.903 219.559 299.017 218.955 297.975C218.35 296.933 217.999 295.763 217.931 294.56V251.47L156.931 286.73V329.8C157.001 331.002 157.352 332.172 157.957 333.214C158.561 334.256 159.402 335.142 160.411 335.8L191.251 353.56C198.441 357.75 210.121 357.75 217.321 353.59Z" fill="#F77021"></path><g opacity="0.6"><path opacity="0.6" d="M217.321 353.59L252.261 333.39C255.861 331.31 257.661 328.59 257.661 325.86C257.661 323.13 257.661 321 257.661 321L221.411 300.56C220.401 299.903 219.559 299.017 218.955 297.975C218.35 296.933 217.999 295.763 217.931 294.56V251.47L156.931 286.73V329.8C157.001 331.002 157.352 332.172 157.957 333.214C158.561 334.256 159.402 335.142 160.411 335.8L191.251 353.56C198.441 357.75 210.121 357.75 217.321 353.59Z" fill="black"></path></g><path opacity="0.3" d="M171.58 337.43V342.27L160.39 335.82C159.381 335.162 158.541 334.277 157.939 333.234C157.336 332.192 156.987 331.022 156.92 329.82V286.73L168.54 280C168.78 283 169.05 286 169.29 289L161.13 293.72V327.37C161.195 328.574 161.544 329.745 162.149 330.788C162.754 331.831 163.597 332.716 164.61 333.37L171.58 337.43Z" fill="black"></path><path d="M161.13 327.38C161.199 328.583 161.549 329.753 162.154 330.795C162.758 331.838 163.6 332.723 164.61 333.38L191.23 348.72C198.43 352.87 210.11 352.88 217.32 348.72L252.32 328.52C259.53 324.36 259.53 317.62 252.32 313.46L225.69 298.12C224.679 297.464 223.838 296.578 223.233 295.536C222.628 294.493 222.278 293.323 222.21 292.12V258.46L161.21 293.72L161.13 327.38Z" fill="#F77021"></path><path opacity="0.3" d="M161.13 327.38C161.199 328.583 161.549 329.753 162.154 330.795C162.758 331.838 163.6 332.723 164.61 333.38L191.23 348.72C198.43 352.87 210.11 352.88 217.32 348.72L252.32 328.52C259.53 324.36 259.53 317.62 252.32 313.46L225.69 298.12C224.679 297.464 223.838 296.578 223.233 295.536C222.628 294.493 222.278 293.323 222.21 292.12V258.46L161.21 293.72L161.13 327.38Z" fill="black"></path><path opacity="0.5" d="M232.72 302.23L225.64 298.14C224.63 297.484 223.788 296.598 223.183 295.556C222.579 294.513 222.228 293.343 222.16 292.14V258.46L161.16 293.72V327.38C161.229 328.583 161.58 329.753 162.184 330.795C162.789 331.838 163.63 332.723 164.64 333.38L171.64 337.38L232.72 302.23Z" fill="black"></path><path d="M257.67 321V325.86C257.67 328.59 255.86 331.3 252.27 333.39L217.27 353.58C213.44 355.625 209.162 356.686 204.82 356.67V351.83C209.162 351.846 213.44 350.785 217.27 348.74L252.27 328.53C255.86 326.47 257.67 323.74 257.67 321Z" fill="#F77021"></path><path opacity="0.5" d="M257.67 321V325.86C257.67 328.59 255.86 331.3 252.27 333.39L217.27 353.58C213.44 355.625 209.162 356.686 204.82 356.67V351.83C209.162 351.846 213.44 350.785 217.27 348.74L252.27 328.53C255.86 326.47 257.67 323.74 257.67 321Z" fill="black"></path><path d="M63.1501 369.21C64.4688 369.847 65.9187 370.165 67.3829 370.139C68.8472 370.113 70.2849 369.743 71.5801 369.06L307.58 232.81C308.845 231.984 309.899 230.872 310.654 229.564C311.41 228.256 311.847 226.788 311.93 225.28V34.3597C311.874 32.898 311.474 31.4701 310.764 30.1915C310.053 28.9129 309.052 27.8194 307.84 26.9997C306.523 26.362 305.074 26.0442 303.611 26.072C302.148 26.0998 300.712 26.4725 299.42 27.1597L63.4201 163.4C62.1556 164.223 61.1034 165.333 60.3492 166.64C59.5951 167.947 59.1602 169.413 59.0801 170.92V361.84C59.1326 363.301 59.5284 364.73 60.2355 366.01C60.9425 367.291 61.941 368.387 63.1501 369.21Z" fill="#F77021"></path><path d="M71.5805 369.05L307.58 232.8C308.846 231.975 309.9 230.863 310.656 229.555C311.412 228.247 311.848 226.779 311.93 225.27V34.3599C311.93 31.5899 309.98 30.4599 307.58 31.8499L71.5805 168.1C70.3145 168.925 69.2608 170.036 68.505 171.345C67.7492 172.653 67.3125 174.121 67.2305 175.63V366.54C67.2305 369.31 69.1805 370.44 71.5805 369.05Z" fill="#F77021"></path><path opacity="0.5" d="M71.5805 369.05L307.58 232.8C308.846 231.975 309.9 230.863 310.656 229.555C311.412 228.247 311.848 226.779 311.93 225.27V34.3599C311.93 31.5899 309.98 30.4599 307.58 31.8499L71.5805 168.1C70.3145 168.925 69.2608 170.036 68.505 171.345C67.7492 172.653 67.3125 174.121 67.2305 175.63V366.54C67.2305 369.31 69.1805 370.44 71.5805 369.05Z" fill="black"></path><path d="M70.9403 374C69.7069 374.536 68.3723 374.799 67.0278 374.771C65.6834 374.744 64.3607 374.426 63.1503 373.84C61.9373 373.016 60.9356 371.917 60.2267 370.633C59.5179 369.349 59.1217 367.916 59.0703 366.45V349.08L67.2203 353.8V371.18C67.2203 373.71 68.8303 374.86 70.9403 374Z" fill="#F77021"></path><path opacity="0.5" d="M70.9403 374C69.7069 374.536 68.3723 374.799 67.0278 374.771C65.6834 374.744 64.3607 374.426 63.1503 373.84C61.9373 373.016 60.9356 371.917 60.2267 370.633C59.5179 369.349 59.1217 367.916 59.0703 366.45V349.08L67.2203 353.8V371.18C67.2203 373.71 68.8303 374.86 70.9403 374Z" fill="black"></path><path d="M67.2207 353.8V371.18C67.2207 373.95 69.2207 375.07 71.5707 373.69L307.571 237.44C308.836 236.615 309.889 235.503 310.645 234.195C311.401 232.887 311.838 231.419 311.921 229.91V212.49L67.2207 353.8Z" fill="#F77021"></path><path opacity="0.3" d="M67.2305 353.76V371.18C67.2305 373.95 69.2305 375.07 71.5805 373.69L307.58 237.44C308.846 236.615 309.899 235.503 310.655 234.195C311.411 232.887 311.848 231.419 311.93 229.91V212.49L67.2305 353.76Z" fill="black"></path><path d="M75.3799 332V178.33C75.428 177.426 75.6885 176.547 76.1403 175.764C76.592 174.98 77.2223 174.314 77.9799 173.82L301.15 44.9996C302.59 44.1696 303.76 44.8396 303.76 46.4996V200.14C303.711 201.045 303.45 201.927 302.996 202.712C302.543 203.498 301.91 204.165 301.15 204.66L77.9999 333.5C76.5499 334.33 75.3799 333.65 75.3799 332Z" fill="#F77021"></path><path d="M75.3799 332V178.33C75.428 177.426 75.6885 176.547 76.1403 175.764C76.592 174.98 77.2223 174.314 77.9799 173.82L301.15 44.9996C302.59 44.1696 303.76 44.8396 303.76 46.4996V200.14C303.711 201.045 303.45 201.927 302.996 202.712C302.543 203.498 301.91 204.165 301.15 204.66L77.9999 333.5C76.5499 334.33 75.3799 333.65 75.3799 332Z" fill="#2F3F5C"></path><path opacity="0.7" d="M68.5103 171.33C67.7353 172.633 67.2923 174.106 67.2203 175.62V353.8L59.0703 349.08V170.92C59.124 169.404 59.5647 167.927 60.3503 166.63L68.5103 171.33Z" fill="black"></path><path opacity="0.3" d="M311.881 33.64C311.571 31.4 309.761 30.59 307.571 31.84L71.5806 168.1C70.301 168.9 69.2449 170.011 68.5106 171.33L60.3506 166.62C61.0898 165.302 62.149 164.191 63.4306 163.39L299.431 27.15C300.724 26.4627 302.162 26.09 303.626 26.0622C305.091 26.0344 306.542 26.3523 307.861 26.99C308.967 27.7464 309.899 28.7314 310.592 29.8786C311.286 31.0259 311.725 32.3085 311.881 33.64Z" fill="black"></path><path d="M93.6104 207.75C93.0137 207.337 92.5221 206.79 92.1748 206.152C91.8275 205.515 91.6342 204.805 91.6104 204.08V187.17C91.6535 186.419 91.8723 185.688 92.2492 185.037C92.6261 184.386 93.1505 183.832 93.7803 183.42L315.87 55.17C316.496 54.7764 317.217 54.5608 317.955 54.5466C318.694 54.5325 319.423 54.7202 320.063 55.0896C320.703 55.4589 321.23 55.996 321.587 56.6428C321.944 57.2896 322.118 58.0216 322.09 58.76V75.66C322.054 76.4117 321.839 77.1438 321.463 77.7959C321.088 78.448 320.562 79.0013 319.93 79.41L97.8004 207.67C97.1577 208.013 96.4431 208.199 95.7149 208.212C94.9868 208.226 94.2656 208.068 93.6104 207.75Z" fill="#F77021"></path><path opacity="0.4" d="M322.07 58.4099C321.92 57.2899 321.01 56.8799 319.93 57.5099L97.8 185.77C97.1649 186.176 96.6395 186.733 96.27 187.39L92.21 185C92.5764 184.34 93.1025 183.783 93.74 183.38L315.87 55.1699C316.466 54.7771 317.156 54.551 317.869 54.5149C318.582 54.4788 319.291 54.6341 319.924 54.9646C320.556 55.2952 321.089 55.789 321.466 56.3948C321.844 57.0007 322.052 57.6964 322.07 58.4099Z" fill="white"></path><path d="M97.8004 345.24C97.2855 345.552 96.7014 345.731 96.1003 345.76C95.2449 345.869 94.3767 345.716 93.6104 345.32C93.012 344.909 92.5191 344.362 92.1716 343.724C91.8241 343.087 91.6318 342.376 91.6104 341.65V212.82L95.6804 215.17V344C95.6804 345 96.1703 345.55 96.8803 345.55C97.2072 345.521 97.5224 345.415 97.8004 345.24Z" fill="#F0F0F0"></path><path opacity="0.1" d="M96.2703 187.39C95.8816 188.034 95.6647 188.768 95.6403 189.52V215.17L91.5703 212.82V187.17C91.5703 187.08 91.5703 187 91.5703 186.91C91.5889 186.732 91.619 186.555 91.6603 186.38C91.7721 185.909 91.9541 185.457 92.2003 185.04L96.2703 187.39Z" fill="black"></path><path d="M322.091 58.7603V70.3303L162.791 162.33C161.601 163.02 160.631 162.46 160.631 161.08V156.7C160.631 155.32 159.631 154.76 158.461 155.45L105.931 185.78C105.299 186.19 104.773 186.744 104.396 187.395C104.019 188.047 103.801 188.778 103.761 189.53V193.91C103.719 194.661 103.502 195.391 103.127 196.042C102.752 196.694 102.229 197.248 101.601 197.66L95.6006 201.1V189.52C95.6419 188.77 95.8588 188.039 96.234 187.388C96.6092 186.737 97.1321 186.183 97.7606 185.77L319.931 57.5103C321.121 56.8203 322.091 57.3803 322.091 58.7603Z" fill="#F77021"></path><path d="M322.091 213.23C322.052 213.983 321.836 214.715 321.46 215.369C321.085 216.022 320.561 216.578 319.931 216.99L97.8006 345.24C96.6106 345.93 95.6406 345.37 95.6406 343.99V201.09L101.641 197.65C102.831 196.96 104.771 186.46 105.971 185.77L157.621 155.94C158.821 155.25 161.621 163.01 162.831 162.32L322.131 70.3203V213.22L322.091 213.23Z" fill="#FAFAFA"></path><path d="M321.091 72.0601V213.23C321.052 213.806 320.883 214.366 320.595 214.867C320.308 215.368 319.909 215.797 319.431 216.12L97.3006 344.38C97.1628 344.47 97.0048 344.525 96.8406 344.54C96.6406 344.54 96.6406 344.02 96.6406 343.99V201.66L102.101 198.51C102.971 198.01 103.511 196.33 104.721 192C105.155 190.147 105.754 188.337 106.511 186.59L157.701 157C158.3 157.83 158.845 158.699 159.331 159.6C160.721 162.05 161.501 163.33 162.631 163.33C162.863 163.331 163.091 163.269 163.291 163.15L321.091 72.0301V72.0601ZM322.091 70.3301L162.791 162.33C162.738 162.345 162.683 162.345 162.631 162.33C161.421 162.33 158.961 155.87 157.741 155.87C157.688 155.857 157.633 155.857 157.581 155.87L105.931 185.7C104.731 186.39 102.791 196.89 101.601 197.58L95.6006 201.02V344C95.6006 345 96.0906 345.55 96.8006 345.55C97.1551 345.543 97.5009 345.44 97.8006 345.25L319.931 217C320.561 216.587 321.085 216.032 321.46 215.378C321.836 214.725 322.052 213.993 322.091 213.24V70.3301Z" fill="#E0E0E0"></path><path d="M133.64 263.57L163.24 246.48C164.04 246.02 164.68 246.39 164.68 247.31V297.16C164.654 297.661 164.51 298.148 164.26 298.583C164.01 299.017 163.66 299.386 163.24 299.66L133.64 316.75C132.84 317.21 132.2 316.83 132.2 315.91V266.07C132.226 265.569 132.37 265.082 132.62 264.647C132.871 264.213 133.22 263.844 133.64 263.57Z" fill="#F0F0F0"></path><path d="M139.05 266.69L157.83 255.85C158.62 255.39 159.27 255.72 159.27 256.58C159.235 257.065 159.086 257.535 158.836 257.952C158.586 258.368 158.241 258.721 157.83 258.98L139.05 269.82C138.26 270.28 137.61 269.95 137.61 269.09C137.647 268.606 137.796 268.137 138.046 267.72C138.296 267.303 138.64 266.951 139.05 266.69Z" fill="#E0E0E0"></path><path d="M137.61 274.78V275.91C137.61 276.46 138 276.68 138.48 276.41L139.48 275.84C139.735 275.678 139.946 275.457 140.098 275.196C140.249 274.935 140.336 274.641 140.35 274.34V273.22C140.35 272.66 139.96 272.44 139.48 272.72L138.48 273.28C138.228 273.444 138.017 273.666 137.866 273.926C137.715 274.187 137.628 274.479 137.61 274.78Z" fill="#F77021"></path><path d="M143 272.22C143 273.08 143.65 273.41 144.45 272.95L157.81 265.23C158.22 264.972 158.564 264.621 158.814 264.206C159.064 263.791 159.213 263.323 159.25 262.84C159.25 261.97 158.6 261.65 157.81 262.11L144.45 269.82C144.036 270.078 143.689 270.429 143.437 270.846C143.185 271.263 143.035 271.734 143 272.22Z" fill="#E0E0E0"></path><path d="M137.61 281V282.13C137.61 282.68 138 282.9 138.48 282.63L139.48 282.06C139.733 281.896 139.944 281.675 140.095 281.414C140.247 281.153 140.334 280.861 140.35 280.56V279.44C140.35 278.88 139.96 278.66 139.48 278.94L138.48 279.5C138.228 279.664 138.017 279.885 137.866 280.146C137.715 280.406 137.628 280.699 137.61 281Z" fill="#F77021"></path><path d="M143 278.48C143 279.34 143.65 279.67 144.45 279.21L157.81 271.49C158.22 271.232 158.564 270.881 158.814 270.466C159.064 270.051 159.213 269.583 159.25 269.1C159.25 268.23 158.6 267.91 157.81 268.37L144.45 276.08C144.036 276.337 143.689 276.689 143.437 277.106C143.185 277.523 143.035 277.994 143 278.48Z" fill="#E0E0E0"></path><path d="M137.61 287.29V288.41C137.61 288.97 138 289.19 138.48 288.91L139.48 288.35C139.733 288.185 139.943 287.964 140.094 287.703C140.245 287.443 140.333 287.15 140.35 286.85V285.72C140.35 285.17 139.96 284.95 139.48 285.22L138.48 285.79C138.227 285.953 138.017 286.175 137.865 286.435C137.714 286.696 137.627 286.989 137.61 287.29Z" fill="#F77021"></path><path d="M143 284.72C143 285.59 143.65 285.91 144.45 285.45L157.81 277.74C158.22 277.482 158.564 277.131 158.814 276.716C159.064 276.301 159.213 275.833 159.25 275.35C159.25 274.48 158.6 274.16 157.81 274.62L144.45 282.33C144.037 282.586 143.691 282.936 143.439 283.352C143.187 283.767 143.037 284.236 143 284.72Z" fill="#E0E0E0"></path><path d="M137.61 293.529V294.659C137.61 295.209 138 295.439 138.48 295.159L139.48 294.599C139.733 294.435 139.943 294.214 140.094 293.953C140.245 293.693 140.333 293.4 140.35 293.099V291.999C140.35 291.449 139.96 291.219 139.48 291.499L138.48 292.059C138.232 292.221 138.024 292.437 137.873 292.692C137.722 292.947 137.632 293.234 137.61 293.529Z" fill="#F77021"></path><path d="M143 291C143 291.86 143.65 292.19 144.45 291.73L157.83 284C158.24 283.74 158.584 283.387 158.834 282.97C159.084 282.554 159.233 282.084 159.27 281.6C159.27 280.74 158.62 280.41 157.83 280.87L144.47 288.58C144.051 288.838 143.699 289.192 143.444 289.613C143.188 290.034 143.036 290.509 143 291Z" fill="#E0E0E0"></path><path d="M138.94 301.15L157.71 290.31C158.51 289.85 159.16 290.17 159.16 291.04C159.123 291.525 158.973 291.993 158.721 292.409C158.469 292.824 158.123 293.174 157.71 293.43L138.94 304.27C138.14 304.73 137.49 304.41 137.5 303.54C137.535 303.057 137.684 302.588 137.934 302.173C138.184 301.758 138.529 301.407 138.94 301.15Z" fill="#E0E0E0"></path><path d="M137.49 309.23V310.36C137.49 310.91 137.88 311.14 138.36 310.86L139.36 310.3C139.611 310.136 139.82 309.914 139.97 309.653C140.119 309.393 140.205 309.1 140.22 308.8V307.67C140.22 307.12 139.83 306.89 139.36 307.17L138.36 307.73C138.108 307.895 137.897 308.116 137.746 308.377C137.595 308.637 137.507 308.93 137.49 309.23Z" fill="#F77021"></path><path d="M142.91 306.67C142.91 307.53 143.56 307.86 144.35 307.4L157.71 299.69C158.123 299.432 158.469 299.08 158.721 298.663C158.973 298.246 159.123 297.776 159.16 297.29C159.16 296.43 158.51 296.1 157.71 296.56L144.35 304.27C143.94 304.531 143.596 304.883 143.346 305.3C143.096 305.716 142.947 306.186 142.91 306.67Z" fill="#E0E0E0"></path><path d="M311.941 65.9996C313.451 65.1296 314.671 65.8396 314.671 67.5796C314.621 68.5261 314.347 69.4472 313.873 70.2676C313.398 71.0881 312.736 71.7844 311.941 72.2996C310.441 73.1596 309.221 72.4596 309.221 70.7196C309.27 69.7741 309.541 68.8535 310.014 68.0331C310.487 67.2128 311.147 66.5159 311.941 65.9996Z" fill="white"></path><path d="M302.13 71.6696C303.64 70.7996 304.86 71.4996 304.86 73.2396C304.816 74.193 304.546 75.1221 304.071 75.95C303.596 76.7778 302.931 77.4805 302.13 77.9996C300.63 78.8696 299.41 78.1596 299.41 76.4296C299.453 75.4772 299.722 74.5486 300.195 73.7208C300.668 72.893 301.331 72.1899 302.13 71.6696Z" fill="white"></path><path d="M294.252 81.5879C295.315 79.7465 295.316 77.7568 294.254 77.1437C293.192 76.5307 291.47 77.5265 290.406 79.3679C289.343 81.2094 289.342 83.1991 290.404 83.8121C291.466 84.4252 293.188 83.4294 294.252 81.5879Z" fill="white"></path><path d="M322.091 70.3301V84.4101L95.6406 215.17V201.09L100.091 198.51C101.281 197.82 101.681 196.77 102.251 194.76L103.761 189.52C104.241 187.7 104.761 186.46 105.931 185.77L157.581 155.94C158.781 155.25 159.721 155.18 160.581 156.69L162.431 160.05C163.111 161.22 163.431 161.91 164.641 161.22L322.091 70.3301Z" fill="#E6E6E6"></path><path d="M95.6403 201.09V215.17L91.5703 212.82V198.75L95.6403 201.09Z" fill="#E0E0E0"></path><path opacity="0.5" d="M105.57 202.1L102.17 204.1L103.47 201.61C103.521 201.517 103.548 201.412 103.548 201.305C103.548 201.199 103.521 201.094 103.47 201C103.37 200.88 103.19 201 103.08 201.19L101.24 204.73C101.24 204.73 101.24 204.81 101.19 204.86C101.181 204.92 101.181 204.981 101.19 205.04C101.179 205.093 101.179 205.148 101.19 205.2C101.205 205.228 101.221 205.255 101.24 205.28L103.08 206.69C103.106 206.71 103.138 206.72 103.17 206.72C103.203 206.72 103.234 206.71 103.26 206.69C103.357 206.629 103.431 206.538 103.47 206.43C103.524 206.343 103.553 206.243 103.553 206.14C103.553 206.038 103.524 205.937 103.47 205.85L102.17 204.85L105.57 202.85C105.659 202.782 105.731 202.695 105.78 202.594C105.828 202.493 105.853 202.382 105.85 202.27C105.85 202.13 105.72 202 105.57 202.1Z" fill="#455A64"></path><path opacity="0.5" d="M108.411 200.46L111.811 198.46L110.511 197.46C110.401 197.38 110.391 197.12 110.511 196.88C110.631 196.64 110.781 196.54 110.891 196.62L112.741 198.04C112.747 198.063 112.747 198.087 112.741 198.11C112.747 198.16 112.747 198.21 112.741 198.26C112.746 198.323 112.746 198.387 112.741 198.45C112.745 198.493 112.745 198.537 112.741 198.58L110.891 202.13C110.853 202.216 110.79 202.289 110.711 202.34C110.698 202.353 110.682 202.364 110.665 202.371C110.648 202.378 110.629 202.382 110.611 202.382C110.592 202.382 110.574 202.378 110.556 202.371C110.539 202.364 110.524 202.353 110.511 202.34C110.459 202.247 110.432 202.142 110.432 202.035C110.432 201.928 110.459 201.823 110.511 201.73L111.811 199.24L108.411 201.24C108.261 201.33 108.141 201.24 108.141 200.98C108.147 200.879 108.175 200.781 108.221 200.692C108.268 200.602 108.332 200.523 108.411 200.46Z" fill="#455A64"></path><path opacity="0.5" d="M119.561 190.67C119.561 190.47 119.361 190.5 119.271 190.72L118.811 191.86C118.011 191.77 117.051 192.55 116.401 193.92C115.561 195.7 115.561 197.81 116.401 198.62C116.605 198.811 116.87 198.925 117.149 198.941C117.429 198.958 117.705 198.876 117.931 198.71C118.607 198.255 119.136 197.612 119.451 196.86C119.505 196.77 119.534 196.666 119.534 196.56C119.534 196.454 119.505 196.351 119.451 196.26C119.351 196.16 119.171 196.26 119.071 196.49C118.441 197.82 117.421 198.41 116.791 197.8C116.161 197.19 116.161 195.62 116.791 194.29C117.231 193.35 117.881 192.79 118.441 192.75L118.091 193.61C118.001 193.83 118.091 194.04 118.221 193.95L119.611 193.04C119.666 192.995 119.709 192.936 119.735 192.87C119.761 192.803 119.77 192.731 119.761 192.66L119.561 190.67Z" fill="#455A64"></path><path opacity="0.5" d="M156.09 162.37L157.33 159.75C157.405 159.627 157.445 159.485 157.445 159.34C157.445 159.196 157.405 159.054 157.33 158.93C157.18 158.79 156.95 158.93 156.8 159.24L155.56 161.86L154.32 160.67C154.18 160.53 153.94 160.67 153.79 160.97C153.72 161.096 153.683 161.237 153.683 161.38C153.683 161.524 153.72 161.665 153.79 161.79L155 163L153.76 165.63C153.69 165.754 153.653 165.893 153.653 166.035C153.653 166.177 153.69 166.317 153.76 166.44C153.799 166.47 153.846 166.487 153.895 166.487C153.944 166.487 153.992 166.47 154.03 166.44C154.144 166.359 154.234 166.248 154.29 166.12L155.53 163.49L156.77 164.69C156.808 164.722 156.856 164.739 156.905 164.739C156.955 164.739 157.002 164.722 157.04 164.69C157.156 164.611 157.246 164.5 157.3 164.37C157.375 164.247 157.415 164.105 157.415 163.96C157.415 163.816 157.375 163.674 157.3 163.55L156.09 162.37Z" fill="#455A64"></path><path d="M124.07 193.9V189.52C124.111 188.768 124.329 188.036 124.706 187.385C125.083 186.733 125.609 186.18 126.24 185.77L307.75 80.9995C308.94 80.3095 309.91 80.8695 309.91 82.2495V86.6295C309.869 87.38 309.652 88.1104 309.277 88.7618C308.902 89.4131 308.379 89.9672 307.75 90.3795L126.24 195.15C125 195.84 124.07 195.28 124.07 193.9Z" fill="#FAFAFA"></path><path d="M304.8 90.7304C304.737 90.7418 304.673 90.7418 304.61 90.7304C304.49 90.6746 304.393 90.5803 304.333 90.4624C304.273 90.3446 304.255 90.21 304.28 90.0804L304.49 88.3004L303.66 87.7004C303.585 87.6435 303.525 87.5692 303.485 87.4838C303.445 87.3984 303.426 87.3046 303.43 87.2104C303.433 87.0668 303.467 86.9256 303.529 86.7961C303.591 86.6667 303.68 86.5522 303.79 86.4604L305.06 85.4604C305.085 85.4319 305.103 85.3974 305.11 85.3604L305.68 83.4904C305.717 83.3389 305.797 83.2014 305.911 83.0948C306.024 82.9882 306.167 82.9172 306.32 82.8904C306.425 82.8818 306.529 82.9061 306.619 82.9599C306.708 83.0137 306.779 83.0943 306.82 83.1904L307.3 84.1904L308.37 83.7804C308.469 83.7402 308.577 83.7311 308.681 83.7543C308.784 83.7776 308.879 83.832 308.95 83.9104C309.035 84.0414 309.08 84.1942 309.08 84.3504C309.08 84.5065 309.035 84.6593 308.95 84.7904L308.03 86.5104C308.03 86.5104 308.03 86.6104 308.03 86.6204L308.24 88.1804C308.263 88.3263 308.254 88.4755 308.212 88.6173C308.171 88.7591 308.098 88.8899 308 89.0004C307.938 89.0697 307.86 89.1238 307.774 89.1585C307.687 89.1932 307.593 89.2075 307.5 89.2004L306.5 89.0704L305.38 90.5004C305.311 90.585 305.222 90.6506 305.12 90.6908C305.019 90.7311 304.909 90.7447 304.8 90.7304ZM304.19 87.1104L305.02 87.7104C305.106 87.7823 305.172 87.8756 305.211 87.9809C305.249 88.0862 305.259 88.1998 305.24 88.3104L305.1 89.4904L305.85 88.5404C305.913 88.4488 305.999 88.375 306.099 88.326C306.199 88.277 306.309 88.2544 306.42 88.2604L307.42 88.3904C307.427 88.3507 307.427 88.31 307.42 88.2704L307.2 86.7104C307.182 86.517 307.22 86.3224 307.31 86.1504L308.12 84.6404L307.29 84.9604C307.167 85.0105 307.029 85.0103 306.905 84.9599C306.782 84.9094 306.683 84.8127 306.63 84.6904L306.26 83.9004L305.75 85.5604C305.694 85.7435 305.587 85.9066 305.44 86.0304L304.16 87.0304C304.165 87.0587 304.175 87.0858 304.19 87.1104Z" fill="#E0E0E0"></path><g opacity="0.5"><path opacity="0.5" d="M312.461 80.4804C312.296 80.4795 312.136 80.4243 312.006 80.3234C311.875 80.2224 311.782 80.0814 311.74 79.922C311.698 79.7627 311.709 79.5939 311.773 79.4417C311.836 79.2896 311.948 79.1626 312.091 79.0804L318.181 75.5604C318.353 75.4609 318.558 75.434 318.75 75.4856C318.942 75.5372 319.106 75.663 319.206 75.8354C319.305 76.0078 319.332 76.2126 319.28 76.4048C319.229 76.5971 319.103 76.7609 318.931 76.8604L312.841 80.3804C312.725 80.4469 312.594 80.4814 312.461 80.4804Z" fill="#455A64"></path><path opacity="0.5" d="M312.461 83.9999C312.296 83.999 312.136 83.9438 312.006 83.8429C311.875 83.742 311.782 83.6009 311.74 83.4416C311.698 83.2822 311.709 83.1134 311.773 82.9613C311.836 82.8091 311.948 82.6821 312.091 82.5999L318.181 79.0799C318.353 78.9805 318.558 78.9536 318.75 79.0051C318.942 79.0567 319.106 79.1825 319.206 79.3549C319.305 79.5273 319.332 79.7321 319.28 79.9244C319.229 80.1166 319.103 80.2804 318.931 80.3799L312.841 83.8999C312.723 83.9621 312.593 83.9963 312.461 83.9999Z" fill="#455A64"></path><path opacity="0.5" d="M312.461 87.5206C312.296 87.5197 312.136 87.4645 312.006 87.3636C311.875 87.2626 311.782 87.1216 311.74 86.9622C311.698 86.8029 311.709 86.6341 311.773 86.4819C311.836 86.3298 311.948 86.2028 312.091 86.1206L318.181 82.6006C318.35 82.5058 318.549 82.481 318.736 82.5314C318.923 82.5819 319.082 82.7037 319.181 82.8706C319.273 83.04 319.296 83.2384 319.246 83.4247C319.196 83.6109 319.076 83.7706 318.911 83.8706L312.821 87.3806C312.715 87.4575 312.591 87.5057 312.461 87.5206Z" fill="#455A64"></path></g><path d="M95.6399 215.17L95.6299 229.23L322.07 98.5002L322.09 84.4102L95.6399 215.17Z" fill="#455A64"></path><path d="M121 206.2V208.92C121 209.48 121.39 209.7 121.87 209.42L155.87 189.77V185L121.87 204.65C121.612 204.82 121.398 205.05 121.247 205.32C121.096 205.589 121.011 205.891 121 206.2Z" fill="#FAFAFA"></path><path d="M160.5 182.37C160.99 182.09 161.38 182.32 161.38 182.88V185.6C161.364 185.904 161.276 186.199 161.123 186.462C160.97 186.724 160.757 186.947 160.5 187.11L155.9 189.77V185L160.5 182.37Z" fill="#F77021"></path><path d="M160.16 186.1L159.65 185.94C159.701 185.724 159.728 185.502 159.73 185.28C159.753 185.073 159.722 184.864 159.639 184.673C159.557 184.482 159.426 184.315 159.26 184.19C159.149 184.122 159.021 184.086 158.89 184.086C158.76 184.086 158.631 184.122 158.52 184.19C158.198 184.442 157.94 184.766 157.766 185.136C157.593 185.506 157.508 185.911 157.52 186.32C157.495 186.528 157.526 186.74 157.608 186.933C157.691 187.126 157.822 187.294 157.99 187.42C158.09 187.48 158.204 187.511 158.32 187.51C158.47 187.507 158.615 187.462 158.74 187.38C159.128 187.108 159.419 186.719 159.57 186.27L160.08 186.43H160.14C160.18 186.43 160.219 186.417 160.251 186.394C160.283 186.371 160.307 186.338 160.32 186.3C160.321 186.253 160.306 186.208 160.276 186.171C160.247 186.134 160.206 186.109 160.16 186.1ZM158.52 187.1C158.465 187.136 158.401 187.155 158.335 187.155C158.269 187.155 158.205 187.136 158.15 187.1C158.046 187.003 157.966 186.883 157.917 186.749C157.869 186.615 157.852 186.471 157.87 186.33C157.864 185.986 157.937 185.645 158.083 185.333C158.228 185.021 158.443 184.747 158.71 184.53C158.779 184.485 158.858 184.461 158.94 184.46C158.983 184.45 159.027 184.45 159.07 184.46C159.176 184.556 159.256 184.676 159.305 184.81C159.354 184.945 159.369 185.089 159.35 185.23C159.364 185.581 159.296 185.931 159.152 186.252C159.008 186.573 158.792 186.857 158.52 187.08V187.1Z" fill="#FAFAFA"></path><path d="M115.07 208.63L112.75 210C112.497 210.164 112.287 210.385 112.136 210.646C111.985 210.906 111.897 211.199 111.88 211.5V214.19C111.88 214.75 112.27 214.97 112.75 214.69L115.07 213.35C115.323 213.186 115.534 212.965 115.685 212.704C115.836 212.443 115.923 212.151 115.94 211.85V209.16C115.94 208.58 115.55 208.35 115.07 208.63Z" fill="#FAFAFA"></path><path d="M195.701 160.93C194.798 161.52 194.047 162.315 193.508 163.249C192.97 164.184 192.659 165.232 192.601 166.31C192.601 168.31 193.991 169.09 195.701 168.1C196.603 167.509 197.354 166.714 197.893 165.78C198.432 164.845 198.743 163.797 198.801 162.72C198.801 160.75 197.411 159.94 195.701 160.93Z" fill="#F77021"></path><path d="M195.34 164.09C195.242 164.092 195.145 164.068 195.06 164.02C194.959 163.953 194.878 163.86 194.826 163.751C194.773 163.642 194.75 163.521 194.76 163.4C194.774 163.115 194.856 162.838 194.999 162.591C195.141 162.344 195.341 162.135 195.58 161.98C195.685 161.92 195.804 161.888 195.925 161.888C196.046 161.888 196.165 161.92 196.27 161.98C196.371 162.047 196.452 162.14 196.504 162.249C196.557 162.358 196.58 162.479 196.57 162.6C196.556 162.885 196.474 163.162 196.331 163.409C196.189 163.656 195.989 163.865 195.75 164.02C195.622 164.078 195.48 164.102 195.34 164.09Z" fill="white"></path><path d="M196.93 164.3C196.757 164.214 196.563 164.175 196.369 164.189C196.176 164.203 195.989 164.269 195.83 164.38L195.38 164.64C194.97 164.901 194.629 165.257 194.387 165.679C194.145 166.1 194.009 166.575 193.99 167.06V167.38C194.267 167.5 194.569 167.546 194.869 167.515C195.168 167.483 195.455 167.375 195.7 167.2C196.412 166.754 197.001 166.135 197.41 165.4V165.32C197.429 165.123 197.394 164.924 197.309 164.745C197.225 164.566 197.094 164.412 196.93 164.3Z" fill="white"></path><path d="M202.8 158.53L224.05 146.25C224.91 145.76 225.61 146.13 225.61 147.1C225.578 147.632 225.419 148.149 225.148 148.608C224.877 149.067 224.501 149.455 224.05 149.74L202.8 162C201.94 162.5 201.24 162.12 201.24 161.16C201.275 160.63 201.435 160.115 201.706 159.658C201.977 159.202 202.352 158.815 202.8 158.53Z" fill="#E0E0E0"></path><path d="M235.241 139.819L248.431 132.139C249.291 131.639 249.981 132.019 249.991 132.979C249.956 133.511 249.796 134.027 249.525 134.485C249.254 134.944 248.879 135.332 248.431 135.619L235.241 143.309C234.381 143.799 233.681 143.429 233.681 142.459C233.716 141.928 233.875 141.412 234.146 140.954C234.417 140.495 234.792 140.107 235.241 139.819Z" fill="#E0E0E0"></path><path d="M259.64 125.8L268.74 120.52C269.6 120.02 270.3 120.4 270.3 121.36C270.267 121.892 270.108 122.409 269.837 122.867C269.566 123.326 269.19 123.714 268.74 124L259.64 129.29C258.78 129.78 258.08 129.41 258.08 128.45C258.114 127.917 258.272 127.399 258.543 126.939C258.814 126.478 259.19 126.088 259.64 125.8Z" fill="#E0E0E0"></path><path d="M229.681 147.53C229.58 147.53 229.483 147.49 229.412 147.419C229.341 147.348 229.301 147.251 229.301 147.15V142.46C229.315 142.371 229.361 142.29 229.43 142.232C229.498 142.174 229.586 142.142 229.676 142.142C229.766 142.142 229.853 142.174 229.922 142.232C229.99 142.29 230.036 142.371 230.051 142.46V147.15C230.051 147.249 230.012 147.344 229.943 147.415C229.874 147.486 229.78 147.528 229.681 147.53Z" fill="#263238"></path><path d="M254.05 133.46C253.949 133.46 253.852 133.42 253.781 133.349C253.71 133.277 253.67 133.181 253.67 133.08V128.39C253.684 128.301 253.73 128.22 253.799 128.162C253.868 128.103 253.955 128.071 254.045 128.071C254.135 128.071 254.222 128.103 254.291 128.162C254.36 128.22 254.405 128.301 254.42 128.39V133.08C254.42 133.179 254.381 133.274 254.312 133.345C254.243 133.416 254.149 133.457 254.05 133.46Z" fill="#263238"></path><path d="M274.361 121.73C274.261 121.73 274.166 121.691 274.095 121.622C274.024 121.553 273.983 121.459 273.981 121.36V116.67C273.972 116.616 273.975 116.56 273.989 116.507C274.004 116.454 274.03 116.404 274.066 116.362C274.102 116.321 274.146 116.287 274.196 116.264C274.246 116.24 274.3 116.229 274.356 116.229C274.411 116.229 274.465 116.24 274.515 116.264C274.565 116.287 274.61 116.321 274.645 116.362C274.681 116.404 274.707 116.454 274.722 116.507C274.736 116.56 274.739 116.616 274.731 116.67V121.36C274.728 121.457 274.688 121.55 274.619 121.619C274.551 121.688 274.458 121.727 274.361 121.73Z" fill="#263238"></path><path d="M282.17 114.5V113.64C282.17 112.64 281.57 112.2 280.83 112.64C280.426 112.932 280.095 113.315 279.864 113.758C279.633 114.2 279.509 114.691 279.5 115.19V116C279.484 116.534 279.329 117.054 279.05 117.51C278.98 117.628 278.943 117.763 278.94 117.9C278.94 118.15 279.09 118.26 279.27 118.16L282.4 116.36C282.501 116.284 282.583 116.186 282.641 116.073C282.698 115.961 282.729 115.836 282.73 115.71C282.734 115.662 282.726 115.614 282.709 115.569C282.692 115.524 282.665 115.484 282.63 115.45C282.466 115.358 282.333 115.218 282.251 115.048C282.168 114.878 282.14 114.687 282.17 114.5Z" fill="#F77021"></path><path d="M281.48 117.1C281.475 117.341 281.414 117.578 281.301 117.792C281.188 118.005 281.027 118.189 280.83 118.33C280.48 118.53 280.19 118.33 280.19 117.84L281.48 117.1Z" fill="#F77021"></path><path d="M287.88 110.72C287.771 110.719 287.665 110.692 287.57 110.64C287.456 110.564 287.365 110.459 287.305 110.336C287.245 110.213 287.219 110.076 287.23 109.94C287.243 109.619 287.334 109.306 287.494 109.027C287.654 108.749 287.879 108.513 288.15 108.34C288.263 108.263 288.395 108.217 288.532 108.206C288.669 108.196 288.806 108.221 288.93 108.28C289.044 108.356 289.135 108.461 289.195 108.584C289.255 108.707 289.28 108.843 289.27 108.98C289.256 109.301 289.166 109.614 289.005 109.892C288.845 110.171 288.62 110.407 288.35 110.58C288.207 110.665 288.046 110.713 287.88 110.72Z" fill="#F77021"></path><path d="M289.67 111C289.475 110.904 289.258 110.863 289.042 110.881C288.825 110.899 288.618 110.974 288.44 111.1L287.93 111.39C287.47 111.687 287.088 112.089 286.815 112.564C286.542 113.039 286.386 113.572 286.36 114.12V114.48C286.673 114.613 287.014 114.664 287.351 114.629C287.689 114.594 288.012 114.474 288.29 114.28C289.088 113.782 289.751 113.095 290.22 112.28V112.19C290.244 111.96 290.206 111.728 290.109 111.519C290.012 111.309 289.861 111.13 289.67 111Z" fill="#F77021"></path><path d="M290.36 108.399C290.251 108.404 290.143 108.376 290.05 108.319C289.935 108.245 289.842 108.14 289.782 108.017C289.722 107.894 289.698 107.756 289.71 107.619C289.724 107.298 289.815 106.986 289.975 106.707C290.135 106.429 290.36 106.193 290.63 106.019C290.739 105.933 290.872 105.882 291.011 105.872C291.149 105.862 291.288 105.894 291.408 105.965C291.528 106.035 291.624 106.14 291.683 106.266C291.742 106.391 291.762 106.532 291.74 106.669C291.725 106.989 291.634 107.3 291.474 107.576C291.314 107.853 291.09 108.087 290.82 108.259C290.683 108.348 290.524 108.397 290.36 108.399Z" fill="#F77021"></path><path d="M292.15 108.64C291.954 108.542 291.736 108.499 291.518 108.515C291.3 108.531 291.09 108.605 290.91 108.73L290.41 109.03C289.831 109.388 289.379 109.92 289.12 110.55C289.287 110.459 289.475 110.411 289.665 110.411C289.856 110.411 290.043 110.459 290.21 110.55C290.397 110.677 290.546 110.851 290.642 111.055C290.739 111.259 290.78 111.485 290.76 111.71V111.93C291.566 111.439 292.234 110.751 292.7 109.93V109.84C292.727 109.609 292.69 109.374 292.593 109.163C292.496 108.951 292.343 108.77 292.15 108.64Z" fill="#F77021"></path><path d="M298.33 102.24C297.587 102.723 296.969 103.376 296.526 104.144C296.083 104.912 295.827 105.774 295.78 106.66C295.761 106.937 295.801 107.216 295.9 107.477C295.998 107.738 296.152 107.974 296.35 108.17L296.03 109.68C296.03 109.87 296.12 109.95 296.24 109.81L297.39 108.47C297.722 108.42 298.04 108.308 298.33 108.14C299.071 107.654 299.687 107.001 300.128 106.233C300.569 105.465 300.824 104.604 300.87 103.72C300.87 102.09 299.73 101.43 298.33 102.24Z" fill="#F77021"></path><path d="M310.56 95.1203C310.749 94.9976 310.965 94.9222 311.19 94.9003C311.365 94.8765 311.543 94.908 311.7 94.9903C311.853 95.0839 311.972 95.2241 312.04 95.3903C312.135 95.6075 312.179 95.8434 312.17 96.0803C312.173 96.2891 312.15 96.4975 312.1 96.7003C312.05 96.8902 311.99 97.0772 311.92 97.2603C311.84 97.4303 311.76 97.6003 311.67 97.7603C311.58 97.9203 311.5 98.0703 311.42 98.2203C311.34 98.3703 311.26 98.5303 311.2 98.6803C311.135 98.8241 311.088 98.9752 311.06 99.1303C311.048 99.2013 311.031 99.2715 311.01 99.3403C310.988 99.394 310.949 99.4394 310.9 99.4703L310.18 99.8903C310.163 99.9051 310.142 99.9132 310.12 99.9132C310.098 99.9132 310.076 99.9051 310.06 99.8903C310.024 99.8487 310.006 99.7949 310.01 99.7403C310.011 99.5443 310.038 99.3493 310.09 99.1603C310.146 98.97 310.213 98.7831 310.29 98.6003C310.37 98.4303 310.46 98.2503 310.55 98.0903C310.64 97.9303 310.73 97.7703 310.81 97.6203C310.887 97.4854 310.954 97.345 311.01 97.2003C311.062 97.077 311.09 96.9443 311.09 96.8103C311.09 96.6303 311.09 96.5203 310.96 96.4703C310.83 96.4203 310.74 96.4703 310.56 96.5503C310.404 96.6348 310.271 96.7547 310.17 96.9003C310.099 97.0165 310.042 97.1407 310 97.2703C310 97.3903 309.93 97.5003 309.91 97.5903C309.886 97.6786 309.834 97.7562 309.76 97.8103L309.03 98.2303C309.016 98.2417 308.998 98.2478 308.98 98.2478C308.962 98.2478 308.944 98.2417 308.93 98.2303C308.915 98.1916 308.915 98.149 308.93 98.1103C308.937 97.8568 308.974 97.6051 309.04 97.3603C309.124 97.0707 309.234 96.7895 309.37 96.5203C309.515 96.2394 309.689 95.9746 309.89 95.7303C310.074 95.4874 310.301 95.2806 310.56 95.1203ZM311.08 101.12C311.078 101.19 311.061 101.258 311.03 101.32C311.007 101.376 310.969 101.425 310.92 101.46L310.16 101.89C310.145 101.904 310.125 101.912 310.105 101.912C310.084 101.912 310.065 101.904 310.05 101.89C310.014 101.849 309.996 101.795 310 101.74V100.81C310.002 100.741 310.019 100.673 310.05 100.61C310.07 100.553 310.108 100.503 310.16 100.47L310.92 100.03C310.936 100.018 310.955 100.012 310.975 100.012C310.995 100.012 311.014 100.018 311.03 100.03C311.065 100.072 311.083 100.126 311.08 100.18V101.12Z" fill="#F77021"></path><path d="M132.19 215.32V257.22C132.19 258.6 133.19 259.16 134.36 258.47L283.36 172.41C283.989 171.998 284.512 171.444 284.887 170.792C285.262 170.141 285.479 169.411 285.52 168.66V126.77C285.52 125.39 284.52 124.83 283.36 125.52L134.36 211.57C133.729 211.98 133.203 212.533 132.826 213.185C132.449 213.837 132.231 214.568 132.19 215.32Z" fill="#F77021"></path><path opacity="0.7" d="M132.19 215.32V257.22C132.19 258.6 133.19 259.16 134.36 258.47L283.36 172.41C283.989 171.998 284.512 171.444 284.887 170.792C285.262 170.141 285.479 169.411 285.52 168.66V126.77C285.52 125.39 284.52 124.83 283.36 125.52L134.36 211.57C133.729 211.98 133.203 212.533 132.826 213.185C132.449 213.837 132.231 214.568 132.19 215.32Z" fill="white"></path><path d="M144.38 221.42C139.89 224.02 136.25 230.32 136.25 235.5C136.25 240.68 139.89 242.78 144.38 240.19C148.87 237.6 152.51 231.3 152.5 226.11C152.49 220.92 148.86 218.83 144.38 221.42Z" fill="#F77021"></path><path d="M143.43 229.69C143.178 229.693 142.929 229.628 142.71 229.5C142.445 229.324 142.233 229.08 142.095 228.793C141.958 228.506 141.901 228.187 141.93 227.87C141.964 227.128 142.175 226.405 142.546 225.761C142.916 225.118 143.436 224.572 144.06 224.17C144.312 223.966 144.619 223.843 144.941 223.817C145.264 223.791 145.587 223.863 145.868 224.025C146.148 224.186 146.373 224.429 146.513 224.721C146.653 225.013 146.701 225.34 146.65 225.66C146.615 226.403 146.402 227.126 146.03 227.77C145.657 228.414 145.136 228.959 144.51 229.36C144.186 229.564 143.813 229.677 143.43 229.69Z" fill="white"></path><path d="M147.591 230.23C147.138 230.005 146.634 229.907 146.13 229.946C145.627 229.984 145.143 230.159 144.731 230.45L143.551 231.13C142.481 231.818 141.592 232.751 140.955 233.852C140.319 234.953 139.954 236.19 139.891 237.46V238.3C141.051 238.94 142.631 238.83 144.381 237.82C146.247 236.657 147.789 235.04 148.861 233.12V232.92C148.901 232.4 148.805 231.878 148.583 231.406C148.36 230.935 148.018 230.529 147.591 230.23Z" fill="white"></path><path d="M158.121 219.71L175.331 209.78C176.191 209.28 176.891 209.6 176.891 210.48C176.844 210.989 176.678 211.481 176.407 211.915C176.136 212.349 175.768 212.713 175.331 212.98L158.121 222.91C157.261 223.41 156.561 223.1 156.561 222.21C156.608 221.7 156.773 221.209 157.044 220.775C157.315 220.34 157.684 219.976 158.121 219.71Z" fill="#455A64"></path><path d="M157.481 226.369L167.601 220.529C168.101 220.229 168.511 220.419 168.511 220.939C168.483 221.238 168.386 221.526 168.228 221.781C168.07 222.036 167.856 222.251 167.601 222.409L157.481 228.249C156.971 228.539 156.561 228.359 156.561 227.839C156.587 227.539 156.684 227.25 156.844 226.994C157.004 226.739 157.222 226.524 157.481 226.369Z" fill="#455A64"></path><path d="M134.36 258.52L283.36 172.52C283.989 172.108 284.512 171.554 284.887 170.903C285.262 170.251 285.479 169.521 285.52 168.77V161.9L132.19 250.39V257.27C132.19 258.65 133.16 259.21 134.36 258.52Z" fill="#F5F5F5"></path><path d="M172.811 234.29C172.762 234.291 172.713 234.282 172.667 234.264C172.622 234.246 172.581 234.219 172.546 234.184C172.511 234.15 172.484 234.108 172.466 234.063C172.448 234.017 172.439 233.969 172.441 233.92V229.23C172.439 229.18 172.448 229.131 172.466 229.085C172.484 229.039 172.511 228.997 172.545 228.961C172.58 228.926 172.621 228.898 172.667 228.879C172.712 228.859 172.761 228.85 172.811 228.85C172.911 228.85 173.008 228.89 173.079 228.961C173.151 229.032 173.191 229.129 173.191 229.23V233.92C173.191 233.969 173.181 234.018 173.161 234.064C173.142 234.109 173.114 234.15 173.079 234.185C173.043 234.219 173.001 234.246 172.955 234.264C172.909 234.282 172.86 234.291 172.811 234.29Z" fill="#EBEBEB"></path><path d="M154.64 240.47L167.82 232.78C168.68 232.29 169.38 232.66 169.38 233.63C169.345 234.162 169.186 234.678 168.915 235.136C168.644 235.595 168.269 235.983 167.82 236.27L154.64 244C153.78 244.5 153.08 244.12 153.08 243.16C153.107 242.62 153.263 242.094 153.535 241.626C153.806 241.159 154.185 240.762 154.64 240.47Z" fill="#E0E0E0"></path><path d="M196.62 220.46C196.571 220.46 196.522 220.45 196.476 220.43C196.431 220.411 196.389 220.383 196.355 220.348C196.32 220.312 196.293 220.27 196.275 220.224C196.257 220.178 196.249 220.129 196.25 220.08V215.39C196.25 215.291 196.289 215.197 196.359 215.128C196.428 215.059 196.522 215.02 196.62 215.02C196.719 215.019 196.814 215.058 196.885 215.127C196.956 215.196 196.998 215.29 197 215.39V220.08C197 220.18 196.96 220.277 196.889 220.348C196.818 220.419 196.721 220.46 196.62 220.46Z" fill="#EBEBEB"></path><path d="M178.451 226.63L191.631 219C192.491 218.5 193.191 218.88 193.191 219.84C193.157 220.372 192.998 220.888 192.727 221.347C192.456 221.806 192.08 222.194 191.631 222.48L178.451 230.17C177.591 230.67 176.891 230.29 176.891 229.33C176.916 228.788 177.071 228.26 177.343 227.79C177.614 227.321 177.994 226.923 178.451 226.63Z" fill="#E0E0E0"></path><path d="M220.431 206.62C220.332 206.62 220.237 206.581 220.166 206.512C220.095 206.443 220.053 206.349 220.051 206.25V201.56C220.051 201.459 220.091 201.362 220.162 201.291C220.233 201.22 220.33 201.18 220.431 201.18C220.48 201.18 220.529 201.19 220.575 201.209C220.62 201.228 220.662 201.256 220.696 201.292C220.731 201.327 220.758 201.369 220.776 201.415C220.794 201.461 220.802 201.51 220.801 201.56V206.25C220.801 206.348 220.762 206.442 220.692 206.511C220.623 206.581 220.529 206.62 220.431 206.62Z" fill="#EBEBEB"></path><path d="M202.26 212.8L215.44 205.11C216.3 204.62 217 204.99 217 205.96C216.965 206.492 216.806 207.008 216.535 207.466C216.264 207.925 215.889 208.313 215.44 208.6L202.26 216.28C201.4 216.78 200.7 216.4 200.7 215.44C200.735 214.909 200.895 214.393 201.166 213.934C201.437 213.476 201.812 213.087 202.26 212.8Z" fill="#E0E0E0"></path><path d="M244.24 192.79C244.14 192.79 244.043 192.75 243.972 192.678C243.9 192.607 243.86 192.511 243.86 192.41V187.72C243.86 187.67 243.87 187.621 243.889 187.576C243.909 187.53 243.937 187.489 243.972 187.455C244.008 187.42 244.05 187.393 244.096 187.375C244.142 187.357 244.191 187.348 244.24 187.35C244.289 187.348 244.338 187.357 244.384 187.375C244.429 187.393 244.47 187.42 244.505 187.455C244.54 187.49 244.567 187.531 244.585 187.577C244.603 187.622 244.612 187.671 244.61 187.72V192.41C244.612 192.459 244.603 192.508 244.585 192.554C244.567 192.6 244.54 192.642 244.506 192.678C244.471 192.713 244.43 192.741 244.384 192.761C244.339 192.78 244.29 192.79 244.24 192.79Z" fill="#EBEBEB"></path><path d="M226.071 199L239.251 191.32C240.111 190.82 240.811 191.2 240.811 192.16C240.777 192.692 240.618 193.208 240.347 193.667C240.076 194.126 239.7 194.514 239.251 194.8L226.071 202.49C225.201 202.99 224.511 202.61 224.511 201.65C224.542 201.116 224.7 200.598 224.971 200.137C225.242 199.676 225.619 199.286 226.071 199Z" fill="#E0E0E0"></path><path d="M249.87 185.129L263.06 177.439C263.92 176.949 264.62 177.319 264.62 178.289C264.585 178.821 264.426 179.337 264.155 179.795C263.884 180.254 263.509 180.642 263.06 180.929L249.87 188.609C249.01 189.109 248.32 188.729 248.32 187.769C248.353 187.239 248.511 186.723 248.78 186.265C249.05 185.806 249.423 185.417 249.87 185.129Z" fill="#E0E0E0"></path><path d="M127 398.891L140.29 391.23C140.29 391.23 148.54 366.95 146.45 344.59C143.82 316.81 130.7 307.001 123 310.141C115.3 313.281 116.89 324.311 125.06 339.141C131.51 350.931 131.53 378.051 127 398.891Z" fill="#F77021"></path><path opacity="0.1" d="M127 398.891L140.29 391.23C140.29 391.23 148.54 366.95 146.45 344.59C143.82 316.81 130.7 307.001 123 310.141C115.3 313.281 116.89 324.311 125.06 339.141C131.51 350.931 131.53 378.051 127 398.891Z" fill="black"></path><path d="M133.35 395.841C133.476 395.841 133.599 395.801 133.702 395.728C133.804 395.654 133.881 395.55 133.92 395.431C142.48 369.221 142.84 332.431 126.64 315.821C126.585 315.764 126.52 315.719 126.447 315.688C126.374 315.657 126.296 315.641 126.218 315.64C126.139 315.639 126.06 315.653 125.987 315.683C125.914 315.712 125.847 315.756 125.79 315.811C125.734 315.866 125.689 315.932 125.658 316.004C125.627 316.077 125.61 316.155 125.609 316.234C125.608 316.313 125.623 316.391 125.652 316.464C125.682 316.537 125.725 316.604 125.78 316.661C141.07 332.321 141.34 368.821 132.78 395.051C132.756 395.126 132.746 395.206 132.752 395.285C132.758 395.364 132.78 395.442 132.817 395.512C132.853 395.583 132.903 395.646 132.964 395.697C133.024 395.748 133.095 395.787 133.17 395.811C133.229 395.83 133.289 395.84 133.35 395.841Z" fill="white"></path><path d="M103.08 412.681C101.7 413.471 98.8602 411.741 97.7802 411.011C95.9212 409.744 94.417 408.023 93.4102 406.011C92.286 403.718 91.9016 401.132 92.3102 398.611C92.5346 397.281 92.8487 395.968 93.2502 394.681C93.6202 393.411 93.9802 392.141 94.3502 390.861C94.7925 389.631 94.983 388.325 94.9102 387.021C94.5702 384.411 92.2602 382.581 90.1502 381.021C87.8202 379.281 85.4002 376.971 85.4102 373.831C85.5763 371.39 86.551 369.075 88.1802 367.251C89.6802 365.351 91.4602 363.671 92.8202 361.661C93.8913 360.264 94.4492 358.541 94.4002 356.781C94.2535 355.704 93.8931 354.667 93.3402 353.731C92.2302 351.681 90.7602 349.811 90.0002 347.611C89.2402 345.411 89.3402 342.681 91.0602 341.111C92.4702 339.821 94.5602 339.641 96.4702 339.761C98.2451 339.983 99.9508 340.587 101.47 341.531C106.47 344.311 109.31 350.211 114.6 352.351C116.6 353.171 118.88 353.351 121.01 353.911C123.14 354.471 125.31 355.561 126.29 357.531C128.24 361.411 124.63 366.201 125.99 370.321C127.2 373.961 130.75 375.321 132.74 378.641C133.55 380.091 133.876 381.762 133.67 383.411C133.501 386.2 132.823 388.935 131.67 391.481C130.379 394.007 128.901 396.434 127.25 398.741C127.16 398.801 103.29 412.561 103.08 412.681Z" fill="#F77021"></path><path d="M117.34 405.001C117.472 404.997 117.597 404.946 117.694 404.858C117.791 404.77 117.854 404.651 117.87 404.521C120.44 384.161 110.72 356.691 96.2004 343.301C96.0936 343.218 95.9599 343.179 95.8255 343.19C95.6912 343.202 95.566 343.263 95.4744 343.362C95.3829 343.461 95.3318 343.591 95.3311 343.726C95.3303 343.86 95.38 343.991 95.4705 344.091C109.76 357.281 119.33 384.331 116.8 404.391C116.784 404.532 116.823 404.675 116.912 404.788C117 404.9 117.129 404.973 117.27 404.991L117.34 405.001Z" fill="white"></path><path d="M114.85 378.92C114.934 378.92 115.017 378.9 115.092 378.862C115.167 378.824 115.231 378.768 115.28 378.7C115.365 378.587 115.403 378.445 115.384 378.305C115.365 378.164 115.292 378.037 115.18 377.95C107.18 371.95 94.9205 372.95 94.4105 373.03C94.3395 373.036 94.2704 373.057 94.2072 373.09C94.1441 373.123 94.0881 373.168 94.0426 373.223C93.997 373.278 93.9628 373.341 93.9418 373.409C93.9209 373.477 93.9136 373.549 93.9205 373.62C93.9357 373.761 94.0044 373.89 94.1124 373.981C94.2204 374.072 94.3594 374.119 94.5005 374.11C94.6305 374.11 106.85 373.05 114.5 378.81C114.601 378.885 114.725 378.924 114.85 378.92Z" fill="white"></path><path d="M113.65 373.921C113.787 373.921 113.919 373.868 114.018 373.773C114.116 373.678 114.175 373.548 114.18 373.411C114.55 364.081 121.59 358.411 121.66 358.411C121.716 358.368 121.764 358.314 121.8 358.252C121.836 358.19 121.859 358.122 121.868 358.052C121.877 357.981 121.873 357.909 121.854 357.841C121.835 357.772 121.803 357.707 121.76 357.651C121.67 357.54 121.54 357.469 121.398 357.452C121.256 357.435 121.113 357.474 121 357.561C118.682 359.526 116.787 361.941 115.43 364.661C114.074 367.38 113.285 370.347 113.11 373.381C113.104 373.523 113.155 373.661 113.25 373.765C113.346 373.87 113.478 373.933 113.62 373.941L113.65 373.921Z" fill="white"></path><path d="M245.93 395.74C237.062 390.618 229.461 383.564 223.693 375.102C217.924 366.64 214.136 356.987 212.61 346.86L205.52 299.79C204.169 290.815 201.039 282.201 196.313 274.453C191.587 266.705 185.361 259.979 178 254.67L168.75 248V253.28L173.75 256.9C181.092 262.199 187.306 268.907 192.027 276.633C196.749 284.36 199.884 292.949 201.25 301.9L208.48 349.3C210.022 359.403 213.815 369.031 219.579 377.471C225.343 385.911 232.93 392.948 241.78 398.06L245.91 400.44V395.75L245.93 395.74Z" fill="#EBEBEB"></path><path d="M326.34 281.19L319.25 234.12C317.9 225.147 314.771 216.533 310.047 208.785C305.323 201.037 299.099 194.31 291.74 189L282.49 182.32L168.75 248L178 254.68C185.361 259.989 191.587 266.715 196.313 274.463C201.039 282.211 204.169 290.826 205.52 299.8L212.61 346.87C214.136 356.997 217.924 366.65 223.693 375.112C229.461 383.574 237.062 390.628 245.93 395.75L359.67 330.08C350.797 324.96 343.193 317.906 337.422 309.441C331.652 300.977 327.864 291.321 326.34 281.19Z" fill="#FAFAFA"></path><path d="M282.43 183.51L291.15 189.81C298.386 195.059 304.509 201.692 309.164 209.323C313.819 216.955 316.914 225.434 318.27 234.27L325.35 281.34C326.831 291.338 330.497 300.887 336.086 309.307C341.676 317.728 349.052 324.813 357.69 330.06L245.93 394.58C237.302 389.528 229.918 382.604 224.321 374.32C218.724 366.035 215.057 356.6 213.59 346.71L206.51 299.64C205.115 290.541 201.929 281.808 197.137 273.949C192.344 266.089 186.04 259.257 178.59 253.85L170.59 248.08L282.43 183.51ZM282.49 182.32L168.75 248L178 254.68C185.361 259.989 191.587 266.715 196.313 274.463C201.039 282.211 204.169 290.826 205.52 299.8L212.61 346.87C214.136 356.997 217.924 366.65 223.693 375.112C229.461 383.574 237.062 390.628 245.93 395.75L359.67 330.08C350.798 324.961 343.195 317.908 337.424 309.446C331.654 300.983 327.865 291.329 326.34 281.2L319.25 234.13C317.901 225.155 314.773 216.539 310.049 208.789C305.325 201.039 299.1 194.311 291.74 189L282.49 182.32Z" fill="#E0E0E0"></path><path d="M245.93 395.74L359.67 330.07V334.76L245.93 400.43V395.74Z" fill="#F5F5F5"></path><path d="M190 244.46C186 246.15 185.61 249.61 189.05 252.21C191.002 253.518 193.234 254.347 195.566 254.63C197.897 254.913 200.263 254.643 202.47 253.84C206.47 252.16 206.87 248.69 203.47 246.1C201.515 244.781 199.275 243.944 196.933 243.659C194.591 243.374 192.215 243.649 190 244.46Z" fill="#F77021"></path><path d="M194.3 248.67C193.967 248.707 193.632 248.707 193.3 248.67C192.557 248.606 191.844 248.351 191.23 247.93C190.31 247.24 190.41 246.34 191.48 245.93C192.181 245.667 192.939 245.588 193.68 245.7C194.421 245.773 195.133 246.031 195.75 246.45C196.67 247.14 196.56 248.04 195.5 248.45C195.115 248.591 194.709 248.665 194.3 248.67Z" fill="white"></path><path d="M199.93 248.58C198.758 248.404 197.56 248.527 196.45 248.94L195.45 249.38C193.64 250.16 193.45 251.69 195.03 252.87L195.59 253.29C197.483 253.568 199.414 253.414 201.24 252.84C202.96 252.18 204.01 251.42 204.16 250.33L203.39 249.82C202.36 249.119 201.17 248.692 199.93 248.58Z" fill="white"></path><path d="M208.47 237.08L241.87 217.79C242.523 217.445 243.258 217.283 243.996 217.322C244.733 217.361 245.447 217.599 246.06 218.01L246.36 218.25C246.608 218.409 246.807 218.632 246.937 218.895C247.068 219.158 247.124 219.452 247.101 219.744C247.077 220.037 246.974 220.318 246.803 220.557C246.632 220.796 246.4 220.983 246.13 221.1L212.76 240.43C212.114 240.756 211.39 240.894 210.669 240.831C209.948 240.767 209.26 240.504 208.68 240.07C208.56 239.98 208.44 239.89 208.33 239.79C208.08 239.656 207.872 239.453 207.733 239.205C207.593 238.957 207.526 238.675 207.541 238.391C207.556 238.107 207.651 237.833 207.815 237.601C207.98 237.369 208.207 237.188 208.47 237.08Z" fill="#455A64"></path><path d="M215.81 244.86L232.53 235.21C232.665 235.145 232.78 235.046 232.866 234.924C232.952 234.802 233.006 234.66 233.023 234.512C233.04 234.363 233.02 234.213 232.963 234.075C232.907 233.936 232.816 233.815 232.7 233.72L232.4 233.43C232.132 233.189 231.795 233.038 231.437 232.997C231.079 232.956 230.716 233.027 230.4 233.2L213.77 242.92C213.636 242.987 213.521 243.087 213.435 243.21C213.349 243.333 213.295 243.475 213.278 243.624C213.261 243.773 213.282 243.924 213.338 244.063C213.394 244.202 213.485 244.325 213.6 244.42L213.81 244.62C214.079 244.86 214.415 245.012 214.773 245.055C215.13 245.098 215.493 245.03 215.81 244.86Z" fill="#455A64"></path><path opacity="0.2" d="M204.88 263.19L295 211.14C295.594 210.807 296.29 210.703 296.955 210.848C297.62 210.994 298.209 211.379 298.61 211.93L298.8 212.2C298.98 212.468 299.103 212.77 299.161 213.088C299.219 213.406 299.209 213.732 299.134 214.046C299.059 214.36 298.919 214.655 298.724 214.912C298.529 215.169 298.282 215.383 298 215.54L207.83 267.63C207.244 267.957 206.556 268.051 205.904 267.893C205.251 267.736 204.682 267.338 204.31 266.78L204.12 266.49C203.935 266.229 203.808 265.932 203.746 265.618C203.684 265.305 203.689 264.981 203.761 264.67C203.833 264.358 203.97 264.066 204.162 263.811C204.355 263.555 204.6 263.344 204.88 263.19Z" fill="black"></path><path opacity="0.2" d="M210.35 272.071L300.57 220.001C300.848 219.834 301.158 219.728 301.479 219.688C301.801 219.649 302.127 219.677 302.437 219.771C302.747 219.865 303.033 220.023 303.279 220.235C303.524 220.447 303.722 220.708 303.86 221.001L304 221.291C304.269 221.917 304.302 222.62 304.092 223.269C303.883 223.918 303.445 224.47 302.86 224.821L212.62 276.961C212.351 277.124 212.05 277.228 211.738 277.265C211.425 277.303 211.109 277.274 210.808 277.179C210.508 277.084 210.232 276.927 209.998 276.717C209.763 276.506 209.577 276.249 209.45 275.961L209.29 275.641C208.982 275.022 208.92 274.309 209.117 273.647C209.314 272.984 209.754 272.421 210.35 272.071Z" fill="black"></path><path opacity="0.2" d="M214.41 281.72L304.71 229.59C304.967 229.422 305.26 229.316 305.565 229.284C305.871 229.251 306.179 229.291 306.466 229.402C306.752 229.512 307.008 229.69 307.213 229.919C307.417 230.148 307.563 230.423 307.64 230.72L307.76 231.17C307.928 231.861 307.873 232.586 307.604 233.244C307.334 233.901 306.864 234.456 306.26 234.83L216 287C215.75 287.167 215.462 287.27 215.162 287.299C214.862 287.328 214.56 287.282 214.282 287.167C214.004 287.051 213.759 286.868 213.569 286.635C213.378 286.402 213.248 286.126 213.19 285.83C213.19 285.67 213.1 285.51 213.05 285.35C212.863 284.679 212.894 283.966 213.139 283.314C213.383 282.661 213.828 282.104 214.41 281.72Z" fill="black"></path><path opacity="0.2" d="M217 292.241L269.49 261.931C269.723 261.757 270 261.65 270.29 261.622C270.58 261.595 270.872 261.647 271.134 261.774C271.396 261.901 271.618 262.098 271.776 262.342C271.934 262.586 272.022 262.87 272.03 263.161L272.14 263.861C272.216 264.586 272.089 265.318 271.773 265.975C271.457 266.632 270.964 267.188 270.35 267.581L217.86 297.921C217.627 298.094 217.351 298.201 217.062 298.229C216.773 298.257 216.482 298.205 216.221 298.08C215.959 297.954 215.737 297.759 215.578 297.516C215.419 297.273 215.33 296.991 215.32 296.701C215.32 296.451 215.25 296.211 215.21 295.961C215.142 295.236 215.273 294.507 215.588 293.852C215.903 293.196 216.392 292.639 217 292.241Z" fill="black"></path><path d="M325.54 320.76L239.65 370.36C238.463 371.044 237.064 371.264 235.725 370.975C234.385 370.687 233.2 369.912 232.4 368.8C226.966 360.48 223.34 350.117 221.52 337.71L218.09 314.92C217.942 313.469 218.197 312.005 218.829 310.69C219.461 309.375 220.444 308.261 221.67 307.47L307.67 257.79C310.06 256.41 312.34 257.51 312.75 260.24L316.18 283.04C317.321 294.116 321.026 304.774 327 314.17C327.368 314.689 327.624 315.279 327.75 315.902C327.876 316.525 327.87 317.168 327.733 317.789C327.595 318.41 327.329 318.995 326.951 319.507C326.573 320.019 326.093 320.446 325.54 320.76Z" fill="#F77021"></path><path opacity="0.7" d="M325.54 320.76L239.65 370.36C238.463 371.044 237.064 371.264 235.725 370.975C234.385 370.687 233.2 369.912 232.4 368.8C226.966 360.48 223.34 350.117 221.52 337.71L218.09 314.92C217.942 313.469 218.197 312.005 218.829 310.69C219.461 309.375 220.444 308.261 221.67 307.47L307.67 257.79C310.06 256.41 312.34 257.51 312.75 260.24L316.18 283.04C317.321 294.116 321.026 304.774 327 314.17C327.368 314.689 327.624 315.279 327.75 315.902C327.876 316.525 327.87 317.168 327.733 317.789C327.595 318.41 327.329 318.995 326.951 319.507C326.573 320.019 326.093 320.446 325.54 320.76Z" fill="white"></path><path d="M239.65 370.36L325.54 320.76C326.093 320.446 326.574 320.019 326.952 319.507C327.329 318.996 327.596 318.41 327.733 317.789C327.871 317.168 327.877 316.525 327.75 315.902C327.624 315.279 327.369 314.689 327 314.17C324.191 309.816 321.902 305.148 320.18 300.26L293.53 292.74L281.7 319L294.55 329.33L249.71 305.73L226.78 357.86C228.291 361.685 230.174 365.353 232.4 368.81C233.202 369.921 234.388 370.694 235.727 370.98C237.066 371.266 238.464 371.046 239.65 370.36Z" fill="#F77021"></path><path d="M275.67 287.171C278.83 285.351 281.84 286.861 282.4 290.551C282.614 292.491 282.286 294.453 281.453 296.218C280.62 297.983 279.314 299.483 277.68 300.551C274.52 302.381 271.51 300.861 270.96 297.171C270.743 295.231 271.069 293.27 271.9 291.505C272.732 289.739 274.037 288.239 275.67 287.171Z" fill="#F77021"></path><path d="M301.75 350.15C301.464 350.175 301.176 350.175 300.89 350.15C300.266 350.091 299.667 349.874 299.15 349.52C298.39 348.95 298.48 348.2 299.36 347.82C299.944 347.602 300.574 347.537 301.19 347.63C301.812 347.691 302.41 347.904 302.93 348.25C303.69 348.83 303.6 349.58 302.72 349.96C302.41 350.079 302.082 350.143 301.75 350.15Z" fill="#F77021"></path><path d="M306.46 350.081C305.481 349.929 304.479 350.032 303.55 350.381L302.68 350.741C301.17 351.391 301.01 352.671 302.33 353.661L302.79 354.011C304.376 354.24 305.992 354.11 307.52 353.631C308.95 353.081 309.83 352.441 309.96 351.531L309.31 351.111C308.464 350.529 307.483 350.174 306.46 350.081Z" fill="#F77021"></path><path d="M308.11 346.311L304.89 346.471L304.02 347.221C303.984 347.25 303.956 347.286 303.936 347.328C303.916 347.369 303.906 347.415 303.906 347.461C303.906 347.506 303.916 347.552 303.936 347.593C303.956 347.635 303.984 347.671 304.02 347.701L304.89 348.391L308.16 348.261L308.11 346.311ZM304.67 347.671C304.639 347.671 304.608 347.664 304.58 347.652C304.551 347.64 304.525 347.622 304.504 347.6C304.482 347.577 304.466 347.551 304.455 347.522C304.444 347.493 304.439 347.462 304.44 347.431C304.44 347.37 304.464 347.311 304.507 347.268C304.551 347.225 304.609 347.201 304.67 347.201C304.701 347.199 304.732 347.204 304.761 347.215C304.79 347.226 304.817 347.243 304.839 347.264C304.862 347.286 304.879 347.312 304.892 347.34C304.904 347.369 304.91 347.399 304.91 347.431C304.91 347.494 304.885 347.555 304.84 347.6C304.795 347.645 304.734 347.671 304.67 347.671Z" fill="#F77021"></path><path d="M324.78 340.61C324.78 341.1 324.15 341.51 323.78 341.71C323.081 342.1 322.314 342.348 321.52 342.44C320.76 341.55 322.22 340 324.78 340.61Z" fill="#F77021"></path><path d="M324.9 337.46C322.54 335.51 318.84 334.79 316.24 336.28C313.64 337.77 313.13 340.92 315.52 342.87C317.91 344.82 322.18 344.87 324.76 343.36C327.34 341.85 327.27 339.4 324.9 337.46ZM321 337C321.218 336.895 321.463 336.858 321.703 336.896C321.942 336.933 322.165 337.043 322.34 337.21C322.417 337.274 322.477 337.357 322.514 337.45C322.551 337.543 322.564 337.644 322.552 337.743C322.54 337.842 322.503 337.937 322.445 338.019C322.387 338.1 322.31 338.166 322.22 338.21C322.001 338.331 321.75 338.381 321.501 338.354C321.253 338.327 321.018 338.225 320.83 338.06C320.753 337.988 320.695 337.897 320.661 337.797C320.627 337.697 320.618 337.59 320.635 337.485C320.652 337.381 320.694 337.282 320.757 337.198C320.821 337.113 320.904 337.045 321 337ZM316.26 340.64C316.181 340.568 316.121 340.477 316.086 340.375C316.051 340.274 316.041 340.166 316.058 340.06C316.075 339.954 316.117 339.854 316.182 339.768C316.247 339.683 316.332 339.615 316.43 339.57C316.646 339.464 316.89 339.427 317.128 339.465C317.366 339.502 317.587 339.613 317.76 339.78C317.837 339.844 317.898 339.925 317.935 340.018C317.973 340.11 317.987 340.211 317.976 340.31C317.965 340.41 317.93 340.505 317.873 340.587C317.816 340.669 317.739 340.735 317.65 340.78C317.431 340.919 317.173 340.984 316.914 340.966C316.655 340.948 316.408 340.848 316.21 340.68L316.26 340.64ZM324.1 342.1C322.993 342.691 321.754 342.99 320.5 342.97C319.41 342.986 318.33 342.757 317.34 342.3L324.06 338.51C324.416 338.741 324.714 339.051 324.933 339.415C325.151 339.779 325.283 340.187 325.32 340.61C325.247 340.949 325.094 341.265 324.872 341.531C324.651 341.797 324.369 342.006 324.05 342.14L324.1 342.1Z" fill="#F77021"></path><path d="M339 328.671C338.762 328.29 338.461 327.952 338.11 327.671C337.287 326.964 336.277 326.51 335.202 326.363C334.127 326.216 333.033 326.381 332.05 326.841C331.625 327.035 331.258 327.337 330.985 327.716C330.712 328.095 330.542 328.539 330.491 329.004C330.441 329.468 330.512 329.938 330.698 330.367C330.883 330.796 331.177 331.169 331.55 331.451C331.76 331.617 331.984 331.764 332.22 331.891C335.22 333.601 340.67 333.811 340.67 333.811C340.618 331.972 340.038 330.188 339 328.671ZM336.39 330.561C335.909 330.817 335.367 330.938 334.823 330.91C334.278 330.881 333.752 330.705 333.3 330.401C333.123 330.265 332.983 330.085 332.895 329.88C332.807 329.675 332.774 329.45 332.798 329.228C332.822 329.006 332.903 328.794 333.033 328.612C333.163 328.43 333.338 328.285 333.54 328.191C334.011 327.971 334.535 327.892 335.049 327.963C335.563 328.034 336.046 328.252 336.44 328.591C337.24 329.241 337.27 330.061 336.4 330.561H336.39Z" fill="#F77021"></path><path d="M447.65 339.23L434.79 376.76C434.708 376.999 434.554 377.206 434.348 377.353C434.143 377.5 433.897 377.578 433.645 377.578C433.392 377.578 433.146 377.5 432.941 377.353C432.735 377.206 432.581 376.999 432.5 376.76L419.81 338.93L447.65 339.23Z" fill="#FFA8A7"></path><path d="M432.5 376.749C432.582 376.988 432.736 377.196 432.941 377.342C433.147 377.489 433.393 377.568 433.645 377.568C433.897 377.568 434.144 377.489 434.349 377.342C434.554 377.196 434.708 376.988 434.79 376.749L437.3 369.419C436.217 369.998 434.996 370.268 433.77 370.2C432.544 370.131 431.361 369.726 430.35 369.029L429.79 368.649L432.5 376.749Z" fill="#2F3F5C"></path><path d="M420.29 171.58V175.25V179.68L419.83 338.92C422.907 342.169 427.095 344.14 431.56 344.44C438.29 345.14 445.2 342.93 447.66 339.23L448.11 180.08V171.61C447.78 177.09 420.05 177.08 420.29 171.58Z" fill="#F77021"></path><path d="M420.21 185.549V193.749C420.13 196.129 425.21 197.669 431.04 198.199C438.8 198.939 447.94 196.839 448.04 193.689V187.639V185.479C447.92 188.629 438.78 190.739 431.04 189.999C425.44 189.479 420.54 187.999 420.26 185.809C420.219 185.729 420.202 185.639 420.21 185.549Z" fill="#EBEBEB"></path><path d="M420.23 187.599C420.03 193.119 447.85 193.049 448.05 187.529V179.319C447.85 184.839 420.05 184.909 420.23 179.389V187.599Z" fill="#F77021"></path><path d="M420.29 171.58V179.68C420.05 185.1 446.9 185.26 448.11 180.08C448.138 179.979 448.154 179.875 448.16 179.77V171.61C447.78 177.09 420.05 177.08 420.29 171.58Z" fill="#EBEBEB"></path><path d="M448.23 136.86V136.51C448.23 132.56 442.01 129.35 434.33 129.35C426.65 129.35 420.42 132.56 420.42 136.51V140.24L420.29 171.58C420.19 173.93 425.19 175.48 430.99 176.04C438.75 176.8 447.93 174.75 448.1 171.61L448.22 137.11C448.24 137 448.23 136.88 448.23 136.86Z" fill="#F28F8F"></path><path opacity="0.2" d="M434.33 143.67C442.012 143.67 448.24 140.464 448.24 136.51C448.24 132.555 442.012 129.35 434.33 129.35C426.648 129.35 420.42 132.555 420.42 136.51C420.42 140.464 426.648 143.67 434.33 143.67Z" fill="white"></path><path opacity="0.1" d="M448.08 180.079L448.23 136.859C448.05 140.239 442.23 143.439 435.98 143.669L435.53 344.569L434.79 376.759L447.65 339.229L448.08 180.079Z" fill="#4B6590"></path><path d="M403.09 213.56C408.38 212.79 414.9 216.77 419.44 223.15C423.98 229.53 439.8 245.06 441.54 250C442.8 253.6 442.06 260.37 434.61 257.19C427.4 254.12 404.41 231.57 404.41 231.57L403.09 213.56Z" fill="#FFBE9D"></path><path d="M400.56 213.559C402.263 213.195 403.998 213 405.74 212.979C407.57 213.099 411.68 214.189 415.91 218.309C420.14 222.429 431.12 235.74 431.12 235.74C431.12 235.74 431.61 239.479 427.93 243.649C424.25 247.819 420.81 247.82 420.81 247.82L404.5 234.309L400.56 213.559Z" fill="#2F3F5C"></path><path d="M436.4 242.67L448 225.83V213.46C448 213.46 450.56 214.32 451.58 218.31C452.6 222.3 453.87 226.94 453.36 230.31C452.85 233.68 444.82 254.26 440.49 257.16C436.16 260.06 436.4 242.67 436.4 242.67Z" fill="#FFBE9D"></path><path d="M384.19 207.969L386.45 222.209L400.56 221.449L398.54 204.909L384.19 207.969Z" fill="#FFBE9D"></path><path d="M374.7 190.51C374.7 190.51 371.34 195.61 371.7 196.11C372.06 196.61 374.56 197.11 374.56 197.11L374.7 190.51Z" fill="#9A4A4D"></path><path d="M384 176.389C377.2 177.829 375.23 180.819 374.59 191.629C373.92 202.929 375.07 206.479 376.59 207.999C377.59 208.999 383.16 209.209 385.97 208.439C389.48 207.439 397.43 204.649 401.15 198.969C405.52 192.289 406.67 183.219 401.99 179.509C395.4 174.269 386.81 175.809 384 176.389Z" fill="#FFBE9D"></path><path d="M384.32 208.75C385.532 208.53 386.728 208.229 387.9 207.85C387.009 208.867 385.813 209.568 384.49 209.85L384.32 208.75Z" fill="#9A4A4D"></path><path d="M374.2 179.82C375.146 180.346 376.154 180.753 377.2 181.03C378.86 181.51 378.61 182.13 378.84 183.65C379.043 185.022 379.701 186.287 380.71 187.24C381.36 187.83 381.84 187.88 382.06 188.78C382.165 189.72 382.165 190.669 382.06 191.61C382.06 193.49 383.28 194.91 383.86 192.4C383.86 192.4 384.94 188.22 388.46 188.75C391.98 189.28 392.29 193.24 390.61 196.35C389.61 198.25 386.85 197.75 386.85 197.75C386.752 199.499 387.029 201.25 387.664 202.883C388.299 204.517 389.276 205.996 390.53 207.22C390.53 207.22 394.03 209.82 399.53 207.12C401.868 204.122 403.961 200.942 405.79 197.61C408.23 193.37 410.34 188.15 409.51 183.16C409.244 181.292 408.418 179.548 407.14 178.16C406.787 177.845 406.503 177.46 406.306 177.03C406.11 176.599 406.006 176.133 406 175.66C405.791 174.532 405.188 173.515 404.3 172.79C403.604 172.239 402.772 171.886 401.892 171.768C401.012 171.65 400.117 171.772 399.3 172.12C399.231 171.248 398.889 170.421 398.321 169.756C397.753 169.092 396.99 168.624 396.14 168.42C394.42 168.06 392.628 168.307 391.07 169.12C390.613 168.301 389.958 167.611 389.165 167.111C388.372 166.611 387.466 166.319 386.531 166.26C385.596 166.201 384.66 166.378 383.811 166.775C382.962 167.171 382.226 167.775 381.67 168.53C381.412 168.133 381.064 167.803 380.653 167.566C380.243 167.33 379.783 167.194 379.31 167.17C378.367 167.136 377.426 167.286 376.54 167.61C375.787 167.833 375.063 168.142 374.38 168.53C373.147 169.293 372.185 170.426 371.632 171.767C371.079 173.108 370.963 174.589 371.3 176C371.495 176.802 371.853 177.555 372.352 178.212C372.851 178.869 373.48 179.417 374.2 179.82Z" fill="#2F3F5C"></path><path d="M406.07 178.689L410.14 176.289C409.982 176.022 409.773 175.789 409.526 175.602C409.278 175.415 408.995 175.279 408.695 175.202C408.395 175.124 408.082 175.107 407.775 175.15C407.468 175.193 407.172 175.297 406.905 175.454C406.637 175.612 406.404 175.821 406.217 176.069C406.031 176.316 405.895 176.599 405.817 176.899C405.74 177.199 405.722 177.512 405.765 177.819C405.809 178.127 405.912 178.422 406.07 178.689Z" fill="#2F3F5C"></path><path d="M409.87 390.08L409.96 390.99C410.125 392.193 410.155 393.41 410.05 394.62C410.049 395.082 409.948 395.538 409.754 395.957C409.561 396.376 409.28 396.749 408.93 397.05C408.098 397.506 407.206 397.843 406.28 398.05C404.214 398.558 402.037 398.342 400.11 397.44C398.51 396.67 397.26 395.44 395.53 394.97C393.744 394.526 391.924 394.225 390.09 394.07C389.274 394.004 388.467 393.856 387.68 393.63C387.082 393.42 386.504 393.159 385.95 392.85C384.018 391.936 382.278 390.663 380.82 389.1C379.9 388.06 379.265 386.799 378.98 385.44C378.82 384.63 378.5 382.32 379.83 382.38C386.38 382.67 392.83 384.08 399.41 384C399.836 383.97 400.264 383.97 400.69 384C401.488 384.168 402.239 384.509 402.89 385C403.161 385.234 403.483 385.401 403.831 385.486C404.179 385.571 404.542 385.573 404.89 385.49C406.015 385.317 407.161 385.333 408.28 385.54C408.523 385.575 408.756 385.665 408.959 385.803C409.161 385.942 409.33 386.126 409.45 386.34C409.514 386.496 409.548 386.662 409.55 386.83C409.66 388 409.77 389 409.87 390.08Z" fill="#2F3F5C"></path><path d="M409.2 382.239L408.86 387.169C408.54 389.049 402.14 390.169 400.86 386.879L400.23 381.279L409.2 382.239Z" fill="#FFBE9D"></path><path d="M384.83 401.76C384.83 401.76 385.61 404.32 386.02 406.56C386.34 408.34 386.79 411.32 386.14 412.64C385.49 413.96 383.05 414.76 379.29 414.64C376.86 414.56 373.04 416.13 370.41 417.52C367.78 418.91 362.12 419.42 359.29 419.03C355.96 418.56 352.55 416.54 352.04 415.15C351.53 413.76 352.28 412.33 360.22 409.15C360.29 409.15 371.22 405.83 375.14 401.72L384.83 401.76Z" fill="#2F3F5C"></path><path d="M384.9 398.589C384.9 398.589 384.84 400.759 384.83 402.009C384.82 403.259 383.3 405.069 379.5 404.849C376.83 404.689 374.99 403.929 375.14 401.739L375.21 398.569L384.9 398.589Z" fill="#FFBE9D"></path><path d="M411.78 344.33C410.65 334.73 409.78 329.22 409.78 329.22C409.78 329.22 409.98 315.84 410.78 303.37C411.63 289.89 411.44 272.92 411.78 269.56C411.78 269.56 368.49 260.32 368.13 275.93C367.73 294.07 368.93 331.6 369.19 336.49C369.55 343.35 369.57 350.49 370.73 361.62C371.88 372.62 375.21 398.57 375.21 398.57C376.7 399.367 378.365 399.783 380.055 399.783C381.745 399.783 383.409 399.367 384.9 398.57C384.9 398.57 388.67 367.46 388.52 359.57C388.429 353.835 387.881 348.117 386.88 342.47L390.29 307.25C390.29 307.25 391.63 318.14 391.99 325C392.35 331.86 393.29 336.05 394.99 348.82C396.46 359.89 400.19 383.27 400.19 383.27C401.608 384.069 403.221 384.458 404.847 384.393C406.474 384.327 408.05 383.81 409.4 382.9C409.4 382.9 412.91 353.94 411.78 344.33Z" fill="#F77021"></path><path opacity="0.3" d="M411.78 344.33C410.65 334.73 409.78 329.22 409.78 329.22C409.78 329.22 409.98 315.84 410.78 303.37C411.63 289.89 411.44 272.92 411.78 269.56C411.78 269.56 368.49 260.32 368.13 275.93C367.73 294.07 368.93 331.6 369.19 336.49C369.55 343.35 369.57 350.49 370.73 361.62C371.88 372.62 375.21 398.57 375.21 398.57C376.7 399.367 378.365 399.783 380.055 399.783C381.745 399.783 383.409 399.367 384.9 398.57C384.9 398.57 388.67 367.46 388.52 359.57C388.429 353.835 387.881 348.117 386.88 342.47L390.29 307.25C390.29 307.25 391.63 318.14 391.99 325C392.35 331.86 393.29 336.05 394.99 348.82C396.46 359.89 400.19 383.27 400.19 383.27C401.608 384.069 403.221 384.458 404.847 384.393C406.474 384.327 408.05 383.81 409.4 382.9C409.4 382.9 412.91 353.94 411.78 344.33Z" fill="#4B6590"></path><path opacity="0.15" d="M406.76 290.88C406.76 290.88 403.76 295.83 394.66 299.45L392.12 307.95L391.85 322.89C391.5 318.08 390.97 312.82 390.29 307.25L391.29 298.49C391.29 298.49 401.37 295.45 406.76 290.88Z" fill="#4B6590"></path><path d="M413.45 222.769C411.71 216.579 407.62 213.849 403.09 213.559C401.94 213.489 399.6 213.559 399.6 213.559C399.92 216.189 391.84 218.039 385.6 216.559C383.7 217.049 380.6 217.759 378.99 218.289C374.48 219.789 369.06 225.429 368.36 240.159C368.36 240.159 367.64 271.809 367.86 281.009C379.01 285.709 389.78 286.299 396.27 285.009C409.8 282.379 412.02 276.579 412.02 276.579C412.02 276.579 411.9 268.579 411.39 255.709C413.65 237.509 414.2 225.449 413.45 222.769Z" fill="#2F3F5C"></path><path d="M360.7 275.23C361.892 275.973 362.878 277.003 363.568 278.226C364.258 279.449 364.63 280.826 364.65 282.23C364.84 285.11 364.84 288.23 366.19 290.84C366.41 291.27 367.59 292.24 368.05 292.1V288.42C368.8 287.47 370.85 285.7 371.38 284.61C372.26 282.79 371.23 280.61 371.76 278.61C372.1 277.839 372.329 277.025 372.44 276.19C372.514 275.156 372.35 274.118 371.96 273.158C371.57 272.197 370.964 271.339 370.19 270.65C368.19 269.04 366.43 267.04 364.64 265.24C362.32 262.91 359.1 259.48 356.78 257.14L372.35 242.21C374.146 240.498 375.646 238.501 376.79 236.3C379.34 231.4 382.79 222.81 378.94 218.3C373.39 218.3 370.24 219.15 364.57 225.76C359.68 231.46 344.07 250.16 342.06 253.33C340.05 256.5 338.9 258.67 342.75 262.19C345.887 264.867 349.165 267.373 352.57 269.7C355.2 271.59 358.07 273.36 360.7 275.23Z" fill="#FFBE9D"></path><path d="M356.79 257.189C355.392 258.54 353.78 259.648 352.02 260.469C354.106 260.182 356.104 259.438 357.87 258.289L356.79 257.189Z" fill="#9A4A4D"></path><path d="M380.69 217.8C378.438 217.694 376.181 217.865 373.97 218.31C370.6 219.04 368.33 220.75 362.49 227.36C356.65 233.97 352.55 239.36 352.55 239.36C352.55 239.36 350.87 243.08 355.55 247.3C360.23 251.52 364.45 250.79 364.45 250.79L377.57 238.03C377.57 238.03 386.93 228.24 380.69 217.8Z" fill="#2F3F5C"></path></svg>