<svg xmlns="http://www.w3.org/2000/svg" width="430.836" height="460.33" viewBox="0 0 430.836 460.33"><defs><style>.a{fill:#ebebeb;}.b{fill:#f5f5f5;}.c{fill:#e0e0e0;}.d{fill:#fff;}.e{fill:#fafafa;}.f{fill:#263238;}.g{fill:#455a64;}.h{fill:#115dff;}.i{opacity:0.2;}.j{opacity:0.3;}.k{fill:#ffbe9d;}</style></defs><g transform="translate(-37.12 -32.9)"><g transform="translate(37.12 34.521)"><path class="a" d="M414.968,92.987a25.412,25.412,0,0,0-7.937-13.007,24.271,24.271,0,0,0-13.456-6.437A19.68,19.68,0,0,0,373.1,85.887a19.72,19.72,0,0,0-6.458-5.682,19.965,19.965,0,0,0-15.609-1.377,24.331,24.331,0,0,0-11.8,9.12,25.352,25.352,0,0,0-5.03,14.385,30.84,30.84,0,0,0,5.825,18.476c4.081,5.448,10.263,9.549,16.445,12.436,10.406,4.856,24.066,10.865,24.066,10.865s10.018-9.294,19.169-16.221c5.438-4.081,10.59-9.416,13.477-15.609A30.891,30.891,0,0,0,414.968,92.987Z" transform="translate(-31.122 -33.703)"/><path class="a" d="M458.661,52.8a14.946,14.946,0,0,0-2.4-8.61,14.283,14.283,0,0,0-6.58-5.815,11.569,11.569,0,0,0-13.589,3.683,11.589,11.589,0,0,0-11.375-7.56,14.282,14.282,0,0,0-8.161,3.254,14.9,14.9,0,0,0-5.172,7.335,18.17,18.17,0,0,0,.316,11.345,25.648,25.648,0,0,0,7.315,9.7c5.1,4.428,11.865,10.039,11.865,10.039s7.141-3.652,13.477-6.121a25.668,25.668,0,0,0,10.2-6.672A18.19,18.19,0,0,0,458.661,52.8Z" transform="translate(-29.579 -34.489)"/><path class="a" d="M444.739,155.168a10.967,10.967,0,0,0-3.367-5.631,10.539,10.539,0,0,0-5.774-2.816,8.457,8.457,0,0,0-8.845,5.244,8.457,8.457,0,0,0-9.488-3.112,10.539,10.539,0,0,0-5.1,3.887,10.957,10.957,0,0,0-2.214,6.121,13.263,13.263,0,0,0,2.448,7.968,18.823,18.823,0,0,0,7.029,5.407c4.468,2.122,10.324,4.754,10.324,4.754s4.336-3.958,8.294-6.907a18.761,18.761,0,0,0,5.856-6.672A13.263,13.263,0,0,0,444.739,155.168Z" transform="translate(-29.593 -32.224)"/><rect class="b" width="165.556" height="76.351" transform="translate(0 331.818)"/><path class="c" d="M198.674,432.41H40.84V363.67H198.674Zm-156.8-1.02H197.643V364.7H41.87Z" transform="translate(-37.045 -27.843)"/><rect class="c" width="40.451" height="76.351" transform="translate(165.567 331.818)"/><path class="c" d="M41.343,384.538H198.106a.214.214,0,0,0,0-.418H41.343a.214.214,0,0,0,0,.418Z" transform="translate(-37.038 -27.43)"/><path class="c" d="M118.7,384.735a171.559,171.559,0,0,0,.061-20.74.214.214,0,0,0-.428,0,169.493,169.493,0,0,0,.061,20.74.153.153,0,0,0,.306,0Z" transform="translate(-35.486 -27.841)"/><path class="c" d="M160.144,374.2a2.132,2.132,0,1,1-.621-1.514,2.132,2.132,0,0,1,.621,1.514Z" transform="translate(-34.722 -27.674)"/><path class="c" d="M79.484,374.2a2.132,2.132,0,1,1-.621-1.514A2.132,2.132,0,0,1,79.484,374.2Z" transform="translate(-36.351 -27.674)"/><path class="c" d="M120.375,397.4a2.142,2.142,0,1,1-2.142-2.132,2.142,2.142,0,0,1,2.142,2.132Z" transform="translate(-35.526 -27.205)"/><path class="c" d="M56.7,434.58,48.17,482.519h4.795L68.686,434.58Z" transform="translate(-36.897 -26.411)"/><path class="c" d="M188.167,434.58l7.121,48.02h-4.795L176.18,434.58Z" transform="translate(-34.312 -26.411)"/><path class="c" d="M219.537,434.58l8.08,48.02h-4.805L207.55,434.58Z" transform="translate(-33.679 -26.411)"/><path class="c" d="M120.235,418.582a2.142,2.142,0,1,1-2.142-2.132,2.142,2.142,0,0,1,2.142,2.132Z" transform="translate(-35.528 -26.777)"/><path class="c" d="M41.343,407.708H198.106a.214.214,0,0,0,0-.418H41.343a.214.214,0,0,0,0,.418Z" transform="translate(-37.038 -26.962)"/><rect class="c" width="10.192" height="50.061" transform="matrix(0.005, 1, -1, 0.005, 115.533, 295.7)"/><rect class="b" width="15.833" height="55.794" transform="matrix(0.005, 1, -1, 0.005, 121.513, 315.759)"/><path class="c" d="M145.8,359.733a57.03,57.03,0,0,1-.275-7.917,56.9,56.9,0,0,1,.275-7.917,60,60,0,0,1,.265,7.917,60.135,60.135,0,0,1-.265,7.917Z" transform="translate(-34.932 -28.242)"/><path class="c" d="M148.1,359.733a57.034,57.034,0,0,1-.275-7.917,56.905,56.905,0,0,1,.275-7.917,60,60,0,0,1,.265,7.917,60.128,60.128,0,0,1-.265,7.917Z" transform="translate(-34.886 -28.242)"/><path class="c" d="M109.866,359.733a60.132,60.132,0,0,1-.265-7.917,60,60,0,0,1,.265-7.917,56.907,56.907,0,0,1,.275,7.917,57.029,57.029,0,0,1-.275,7.917Z" transform="translate(-35.657 -28.242)"/><path class="c" d="M112.166,359.733a58.08,58.08,0,0,1-.265-7.917,57.961,57.961,0,0,1,.265-7.917,56.906,56.906,0,0,1,.275,7.917A57.031,57.031,0,0,1,112.166,359.733Z" transform="translate(-35.611 -28.242)"/><path class="c" d="M117.17,351.915c0-.153,5.631-.275,12.579-.275s12.569.122,12.569.275-5.631.275-12.569.275S117.17,352.068,117.17,351.915Z" transform="translate(-35.504 -28.086)"/><rect class="a" width="10.192" height="68.842" transform="matrix(0.005, 1, -1, 0.005, 142.497, 305.475)"/><path class="c" d="M167.266,342.81a3.3,3.3,0,1,1,3.254-3.3,3.3,3.3,0,0,1-3.254,3.3Z" transform="translate(-34.56 -28.397)"/><rect class="c" width="2.04" height="46.082" transform="translate(123.759 310.098) rotate(90)"/><rect class="c" width="98.907" height="143.357" transform="translate(15.66 3.143)"/><rect class="b" width="98.907" height="143.357" transform="translate(10.712 3.143)"/><rect class="d" width="74.331" height="112.302" transform="translate(22.995 18.67)"/><path class="c" d="M134,165.1v-8.264c0-5.376,0-13.262-.061-23.138,0-19.8-.071-47.837-.122-80.86l.245.245H59.736l.275-.265c0,42.358,0,81.421-.061,112.3l-.214-.214,54.07.112h15.038l-14.9.061-54.233.112h-.214v-.214c0-30.881,0-69.944-.051-112.3V52.4h74.841v.255c0,33.085-.092,61.211-.122,81.023,0,9.886,0,17.71-.061,23.077v7.692A2.147,2.147,0,0,1,134,165.1Z" transform="translate(-36.669 -34.128)"/><path class="c" d="M145.107,37.57a19.311,19.311,0,0,1-1.765,2.561c-1.153,1.53-2.785,3.622-4.642,5.886s-3.632,4.234-4.887,5.682a18.159,18.159,0,0,1-2.183,2.224,19.688,19.688,0,0,1,1.887-2.469l4.764-5.784c1.806-2.183,3.438-4.162,4.754-5.774a18.008,18.008,0,0,1,2.071-2.326Z" transform="translate(-35.212 -34.427)"/><path class="d" d="M132.89,162.51a91.979,91.979,0,0,0,12.967,16.221" transform="translate(-35.186 -31.904)"/><path class="c" d="M145.856,178.731a15.433,15.433,0,0,1-2.265-2.04,73.3,73.3,0,0,1-9.182-11.5,14.036,14.036,0,0,1-1.51-2.663,20.237,20.237,0,0,1,1.826,2.448c1.092,1.53,2.622,3.622,4.407,5.866s3.5,4.183,4.744,5.591A20.547,20.547,0,0,1,145.856,178.731Z" transform="translate(-35.186 -31.904)"/><path class="d" d="M47.6,178.316,60.556,162.33" transform="translate(-36.908 -31.908)"/><path class="c" d="M60.556,162.31a101.639,101.639,0,0,1-6.264,8.162,96.917,96.917,0,0,1-6.692,7.845,96.485,96.485,0,0,1,6.274-8.162,98.132,98.132,0,0,1,6.682-7.845Z" transform="translate(-36.908 -31.908)"/><path class="c" d="M47.62,37.57A91.111,91.111,0,0,1,53.9,45.089a91.041,91.041,0,0,1,5.866,7.845,91.113,91.113,0,0,1-6.284-7.519A88.524,88.524,0,0,1,47.62,37.57Z" transform="translate(-36.908 -34.427)"/><rect class="c" width="24.893" height="70.669" transform="translate(49.275 41.472)"/><rect class="c" width="71.821" height="74.872" transform="translate(341.019 164.66)"/><rect class="e" width="71.821" height="74.872" transform="translate(336.153 164.66)"/><path class="c" d="M438.421,270.783H366.6V195.87h71.821Zm-71.811-.051h71.811V195.911h-71.77Z" transform="translate(-30.468 -31.231)"/><rect class="d" width="52.509" height="54.733" transform="translate(345.814 174.729)"/><path class="c" d="M376.28,259.77a8.683,8.683,0,0,1-1.3,1.51c-.837.877-2.04,2.04-3.336,3.377s-2.54,2.459-3.438,3.285a8.3,8.3,0,0,1-1.52,1.265,9.393,9.393,0,0,1,1.3-1.5c.837-.888,2.04-2.04,3.346-3.387s2.54-2.469,3.438-3.3a7.6,7.6,0,0,1,1.51-1.255Z" transform="translate(-30.466 -29.941)"/><path class="c" d="M427.56,259.64a8.68,8.68,0,0,1,1.51,1.3c.877.837,2.04,2.04,3.377,3.336s2.469,2.53,3.285,3.428A7.781,7.781,0,0,1,437,269.22a8.937,8.937,0,0,1-1.5-1.285c-.888-.847-2.04-2.04-3.387-3.346s-2.469-2.54-3.3-3.438A8.5,8.5,0,0,1,427.56,259.64Z" transform="translate(-29.237 -29.943)"/><path class="c" d="M427.42,206.087a8.678,8.678,0,0,1,1.3-1.51c.837-.877,2.04-2.04,3.336-3.377s2.54-2.469,3.428-3.285A8.161,8.161,0,0,1,437,196.65a8.346,8.346,0,0,1-1.285,1.5c-.837.888-2.04,2.04-3.346,3.387s-2.54,2.469-3.438,3.3a8.5,8.5,0,0,1-1.51,1.255Z" transform="translate(-29.24 -31.215)"/><path class="c" d="M376.187,206.19a8.682,8.682,0,0,1-1.51-1.3c-.888-.837-2.04-2.04-3.387-3.336s-2.459-2.54-3.285-3.428a8.315,8.315,0,0,1-1.255-1.52,8.344,8.344,0,0,1,1.5,1.285c.877.837,2.04,2.04,3.387,3.346s2.469,2.54,3.285,3.438A8.925,8.925,0,0,1,376.187,206.19Z" transform="translate(-30.465 -31.216)"/><path class="c" d="M428.459,260.5a1.021,1.021,0,0,1,0-.265v-3.713c0-2.6,0-6.366-.051-11.161,0-9.59-.061-23.24-.1-39.594l.2.194H376.144l.235-.224V260.47l-.194-.194,37.91.1,10.651.051h.041l-10.6.051-38.043.1h-.2V205.41h52.805v.2c0,16.4-.082,30.106-.1,39.726,0,4.764,0,8.529-.061,11.11V260.1a1.8,1.8,0,0,1-.122.4Z" transform="translate(-30.279 -31.038)"/><rect class="a" width="17.527" height="17.527" transform="translate(363.31 193.337)"/></g><g transform="translate(332.47 300.248)"><rect class="f" width="70.209" height="9.651" transform="translate(30.274 131.403)"/><path class="f" d="M356.18,423.64h70.444v9.886H356.18Zm70.209.235H356.425v9.406h69.965Z" transform="translate(-326.029 -292.359)"/><path class="f" d="M419.873,430.07l-10.11,49.846h-37.39l-9.763-46.643Z" transform="translate(-325.899 -292.229)"/><path class="g" d="M419.873,474.31l-5.4,7.407H369.027l-6.417-7.407Z" transform="translate(-325.899 -291.336)"/><path class="f" d="M393.293,433.532c.143,0,.316-23.1.4-51.581s0-51.581-.1-51.581-.316,23.087-.4,51.581S393.16,433.532,393.293,433.532Z" transform="translate(-325.282 -294.242)"/><path class="f" d="M378,374.84a2.785,2.785,0,0,0,.194.541l.622,1.489.459,1.081c.143.4.306.837.469,1.306s.347,1.02.541,1.51.337,1.112.52,1.714a68.907,68.907,0,0,1,1.959,8.59,105.082,105.082,0,0,1,1.092,10.753,146.377,146.377,0,0,1-.551,19.628c-.235,2.51-.459,4.54-.622,5.938-.071.653-.133,1.183-.184,1.612a2.122,2.122,0,0,0,0,.561,2.478,2.478,0,0,0,.122-.551l.275-1.6c.224-1.387.5-3.407.775-5.917a129.184,129.184,0,0,0,.7-19.7A97.511,97.511,0,0,0,383.244,391a64.412,64.412,0,0,0-2.04-8.631c-.194-.592-.357-1.173-.551-1.714s-.4-1.02-.582-1.5l-.51-1.3c-.173-.4-.357-.745-.5-1.071-.3-.592-.53-1.071-.714-1.459a2.192,2.192,0,0,0-.347-.49Z" transform="translate(-325.588 -293.344)"/><path class="f" d="M379.72,356.53a5.657,5.657,0,0,0,.224.765l.734,2.142.531,1.551c.184.571.367,1.194.571,1.867.408,1.336.888,2.846,1.306,4.56l.7,2.673c.214.939.428,1.908.663,2.918.49,2.04.837,4.193,1.3,6.478.775,4.581,1.449,9.651,1.928,15.007s.633,10.467.7,15.119,0,8.845-.245,12.365c-.061,1.755-.173,3.346-.265,4.744s-.163,2.591-.255,3.581-.122,1.694-.173,2.255a4.266,4.266,0,0,0,0,.8,5.37,5.37,0,0,0,.122-.786c.071-.561.153-1.306.265-2.255s.235-2.173.347-3.571.255-2.989.337-4.744c.235-3.52.337-7.723.347-12.385s-.224-9.794-.673-15.17-1.163-10.447-1.969-15.038c-.459-2.285-.837-4.479-1.347-6.488-.235-1.02-.459-1.989-.684-2.928l-.735-2.663c-.449-1.714-.949-3.224-1.387-4.56-.214-.663-.418-1.275-.6-1.857s-.408-1.071-.582-1.53l-.826-2.122a3.439,3.439,0,0,0-.337-.724Z" transform="translate(-325.553 -293.714)"/><path class="f" d="M397.651,437.56a1.916,1.916,0,0,0,0-.275,3.5,3.5,0,0,1,.071-.8c.051-.735.122-1.755.2-3.061.173-2.7.408-6.529.7-11.222.612-9.5,1.489-22.618,3.061-37.043.816-7.223,1.765-14.068,2.744-20.281.531-3.061,1.02-6.05,1.54-8.794s1.02-5.3,1.52-7.631.969-4.428,1.387-6.264.8-3.428,1.122-4.723.561-2.255.735-2.969c.071-.326.133-.582.173-.786a2.5,2.5,0,0,0,.051-.265,1.121,1.121,0,0,0-.1.255c-.051.2-.133.449-.224.765-.194.714-.469,1.7-.816,2.959s-.775,2.856-1.214,4.693-1.02,3.928-1.459,6.254-1.02,4.877-1.581,7.631-1.02,5.7-1.581,8.8c-1.02,6.213-1.979,13.069-2.8,20.292-1.6,14.446-2.428,27.545-2.938,37.084-.265,4.754-.439,8.6-.551,11.222-.051,1.3-.082,2.326-.112,3.061v.8a.816.816,0,0,0,.061.3Z" transform="translate(-325.193 -294.18)"/><path class="h" d="M394.06,341.364c.306-3.265,3.611-5.733,6.907-5.774a10.865,10.865,0,0,1,8.355,4.54,26.149,26.149,0,0,1,4.02,8.937c2.214,7.7,3.428,15.8,2.479,23.77s-4.173,15.8-9.9,21.424c-.928.918-2.132,1.836-3.407,1.561a4.162,4.162,0,0,1-1.8-1.112,53.193,53.193,0,0,1-17.262-40.451c.092-3.061.49-6.182,2.163-8.7s5.591-5.2,8.437-4.193" transform="translate(-325.478 -294.137)"/><path class="h" d="M417.91,315.8l4.621,8.386c.112.194.255.418.479.428s.418-.2.551-.408L435.8,305.422l-2.826-1.6Z" transform="translate(-324.782 -294.778)"/><g class="i" transform="translate(93.128 9.042)"><path d="M417.91,315.8l4.621,8.386c.112.194.255.418.479.428s.418-.2.551-.408L435.8,305.422l-2.826-1.6Z" transform="translate(-417.91 -303.82)"/></g><path class="h" d="M393.649,331.085l41.736-24.627a1.969,1.969,0,0,0,1.02-1.02c.163-.612-.3-1.214-.745-1.673A28.79,28.79,0,0,0,413.349,295a25.5,25.5,0,0,0-20.159,12.548c-4.03,7.141-4.162,16.711.459,23.546" transform="translate(-325.342 -294.957)"/><path class="f" d="M429.3,298.523a1.96,1.96,0,0,0-.541-.071c-.357,0-.9-.082-1.581-.071a31.129,31.129,0,0,0-5.784.459,33.6,33.6,0,0,0-8.253,2.51,33.167,33.167,0,0,0-15.456,13.987,34.474,34.474,0,0,0-3.316,7.957,31.279,31.279,0,0,0-1.02,5.713c-.071.684,0,.857-.061,1.224a2.133,2.133,0,0,0,.316.908,7.6,7.6,0,0,1-.061-2.112,35.468,35.468,0,0,1,1.183-5.631,34.085,34.085,0,0,1,26.739-24.2,36.629,36.629,0,0,1,5.723-.612C428.548,298.543,429.3,298.564,429.3,298.523Z" transform="translate(-325.279 -294.888)"/><path class="f" d="M399.12,313.71a10.274,10.274,0,0,0,2.1.959c1.336.52,3.193,1.194,5.274,1.846s3.979,1.183,5.366,1.53a9.649,9.649,0,0,0,2.275.429,11.976,11.976,0,0,0-2.173-.775l-5.325-1.653-5.295-1.714a10.7,10.7,0,0,0-2.224-.622Z" transform="translate(-325.162 -294.578)"/><path class="f" d="M405.571,296.4a18.026,18.026,0,0,0-.5,4.652,17.476,17.476,0,0,0,.265,4.683,30.248,30.248,0,0,0,.235-4.662A28.288,28.288,0,0,0,405.571,296.4Z" transform="translate(-325.043 -294.928)"/><path class="f" d="M435.272,305.871a20.017,20.017,0,0,0-3.061-1.02c-1.9-.582-4.54-1.326-7.488-2.04s-5.631-1.255-7.58-1.6a20.167,20.167,0,0,0-3.193-.429,22.084,22.084,0,0,0,3.122.775c1.928.439,4.6,1.02,7.539,1.734s5.58,1.4,7.5,1.9a22.817,22.817,0,0,0,3.163.684Z" transform="translate(-324.862 -294.84)"/><path class="h" d="M410.878,334.351c3.581-2.724,7.386-3.254,11.885-3.061a36.247,36.247,0,0,1,13.007,3.367c7.039,3.061,13.65,7.621,17.864,14.048s5.662,14.946,2.52,21.954a3.153,3.153,0,0,1-1.428,1.734,3.387,3.387,0,0,1-2.357-.184c-8.008-2.612-16.068-5.244-23.464-9.335s-14.058-9.773-18.017-17.211A14.712,14.712,0,0,1,409,339.952a7.07,7.07,0,0,1,1.836-5.58" transform="translate(-324.963 -294.224)"/><path class="f" d="M410.77,333.47a3.42,3.42,0,0,0,.571.224l1.673.581,1.214.408c.449.153.918.357,1.428.551,1.02.408,2.183.816,3.418,1.418l1.969.9c.684.316,1.357.694,2.04,1.02,1.449.714,2.918,1.622,4.479,2.551a70.831,70.831,0,0,1,17.659,15.538c1.112,1.428,2.2,2.775,3.061,4.081.449.663.918,1.285,1.316,1.928l1.194,1.948c.755,1.153,1.306,2.265,1.847,3.224.255.479.51.918.724,1.336l.561,1.153c.316.653.582,1.173.786,1.592a2.967,2.967,0,0,0,.306.541,3.74,3.74,0,0,0-.214-.581l-.7-1.632c-.163-.357-.337-.755-.52-1.173s-.449-.877-.694-1.367c-.52-.969-1.02-2.1-1.785-3.265l-1.122-1.867c-.388-.643-.857-1.275-1.306-1.949-.877-1.367-1.969-2.724-3.061-4.183a75.07,75.07,0,0,0-8.161-8.59,76.084,76.084,0,0,0-9.569-7.049c-1.581-.918-3.061-1.816-4.54-2.52-.724-.357-1.408-.735-2.1-1.02l-1.989-.877c-1.255-.582-2.438-.969-3.469-1.357-.51-.184-1.02-.367-1.438-.51l-1.234-.367-1.7-.49a2.794,2.794,0,0,0-.632-.194Z" transform="translate(-324.927 -294.18)"/><path class="f" d="M438.26,348.35a82.4,82.4,0,0,0,8.733,2.816,85.364,85.364,0,0,0,8.865,2.336,82.4,82.4,0,0,0-8.733-2.816,83.067,83.067,0,0,0-8.865-2.336Z" transform="translate(-324.372 -293.879)"/><path class="f" d="M438.621,367.607a15.144,15.144,0,0,0,.194-2.724c0-1.683.051-4.009,0-6.57s-.214-4.887-.347-6.57a13.8,13.8,0,0,0-.347-2.7,15.182,15.182,0,0,0,0,2.724c.061,1.847.122,4.081.2,6.56s.112,4.713.163,6.56A14.925,14.925,0,0,0,438.621,367.607Z" transform="translate(-324.376 -293.865)"/><path class="f" d="M422.431,359.419c.133,0,.571-4.723,1.02-10.559a94.856,94.856,0,0,0,.479-10.59c-.143-.01-.571,4.724-1.02,10.559A94.926,94.926,0,0,0,422.431,359.419Z" transform="translate(-324.692 -294.083)"/><path class="f" d="M442.947,337.822a16.977,16.977,0,0,0-2.806-.082c-1.724,0-4.081.061-6.733.153s-5.009.194-6.733.3a15.487,15.487,0,0,0-2.785.265,14.81,14.81,0,0,0,2.8.092c1.724,0,4.081-.071,6.743-.153s5.009-.194,6.733-.3a14.805,14.805,0,0,0,2.785-.275Z" transform="translate(-324.662 -294.094)"/><path class="f" d="M403.924,395.246a2.04,2.04,0,0,0,.061-.561,13.911,13.911,0,0,1,.071-1.6c.061-1.4.082-3.418,0-5.917s-.214-5.458-.51-8.753-.8-6.886-1.469-10.641-1.52-7.294-2.377-10.488-1.765-6.04-2.6-8.4-1.561-4.254-2.112-5.54l-.633-1.479a2.041,2.041,0,0,0-.255-.5,3.056,3.056,0,0,0,.163.541c.143.388.326.9.541,1.51.5,1.306,1.173,3.214,1.959,5.58s1.643,5.213,2.489,8.4,1.642,6.723,2.336,10.457,1.153,7.335,1.5,10.61.53,6.233.622,8.712.133,4.509.133,5.907v1.6a2.19,2.19,0,0,0,.081.561Z" transform="translate(-325.263 -294.02)"/><path class="f" d="M401.57,367.39a11.937,11.937,0,0,0,1.663,1.826c1.081,1.081,2.622,2.53,4.366,4.081s3.387,2.867,4.591,3.8a11.789,11.789,0,0,0,2.04,1.408,13.367,13.367,0,0,0-1.806-1.683l-4.489-3.9-4.448-3.938A12.86,12.86,0,0,0,401.57,367.39Z" transform="translate(-325.112 -293.495)"/><path class="f" d="M388.62,378.155a18.937,18.937,0,0,0,1.775-2.448l4.081-6.019,4.213-5.968a19.186,19.186,0,0,0,1.683-2.51,17.012,17.012,0,0,0-1.969,2.306c-1.153,1.469-2.7,3.54-4.336,5.887s-3.061,4.509-4.009,6.121a17.639,17.639,0,0,0-1.438,2.632Z" transform="translate(-325.374 -293.62)"/><path class="f" d="M395.41,345c-.082.112,4.305,3.061,9.794,6.59s10,6.295,10.079,6.182-4.315-3.061-9.8-6.6S395.481,344.9,395.41,345Z" transform="translate(-325.237 -293.947)"/><path class="f" d="M383.28,358.36a84.312,84.312,0,0,0,6.631-6.121,82.643,82.643,0,0,0,6.295-6.5,82.652,82.652,0,0,0-6.641,6.121A78.149,78.149,0,0,0,383.28,358.36Z" transform="translate(-325.482 -293.932)"/><path class="h" d="M381.312,358.4l-3.775-.316a18.65,18.65,0,0,1-7.6-2.326,32.089,32.089,0,0,0-3.55-1.785c-4.662-1.867-9.855-1.53-14.864-1.785a61.517,61.517,0,0,1-23.658-6.05,2.387,2.387,0,0,1-1.02-.928c-.775-1.418.663-2.673,1.908-3.428,6.346-3.918,12.8-7.876,20.006-9.814s15.364-1.612,21.506,2.612c7.213,4.958,9.835,15.15,11.059,23.821" transform="translate(-326.625 -294.233)"/><path class="f" d="M326.75,344.664a2.97,2.97,0,0,0,.643-.3l1.785-.939c1.54-.806,3.775-2.04,6.59-3.367a60.709,60.709,0,0,1,10.2-3.928,33.666,33.666,0,0,1,13.262-1.081,22.669,22.669,0,0,1,12.059,5.183,26.861,26.861,0,0,1,6.284,8.825,73.02,73.02,0,0,1,2.734,6.866c.275.8.5,1.428.673,1.908a5.482,5.482,0,0,0,.255.653,3.224,3.224,0,0,0-.163-.684c-.143-.49-.337-1.132-.582-1.938a63.245,63.245,0,0,0-2.6-6.958,26.728,26.728,0,0,0-6.295-9.018,22.883,22.883,0,0,0-12.3-5.325,33.77,33.77,0,0,0-13.415,1.122,59.282,59.282,0,0,0-10.2,4.081c-2.806,1.4-5.019,2.652-6.539,3.52l-1.734,1.02a4.593,4.593,0,0,0-.653.357Z" transform="translate(-326.623 -294.162)"/><path class="f" d="M335.62,349.52c.071.112,5-3.061,11-7.141S357.432,335,357.35,334.86s-5.009,3.061-11.008,7.141S335.538,349.4,335.62,349.52Z" transform="translate(-326.444 -294.152)"/><path class="f" d="M340.77,334.61a19.383,19.383,0,0,0,7.243.6,23.462,23.462,0,0,0-3.611-.377,25.708,25.708,0,0,0-3.632-.225Z" transform="translate(-326.34 -294.157)"/><path class="f" d="M361.91,331.85a9.744,9.744,0,0,0,1.622,2.53,11.221,11.221,0,0,0,2.04,2.326,9.563,9.563,0,0,0-1.612-2.53A10.824,10.824,0,0,0,361.91,331.85Z" transform="translate(-325.913 -294.212)"/><path class="f" d="M357.59,352.28a12.773,12.773,0,0,0,2.367-1.285c1.418-.867,3.346-2.132,5.4-3.622s3.877-2.908,5.172-3.938a13.8,13.8,0,0,0,2.04-1.755,14.652,14.652,0,0,0-2.265,1.469c-1.469,1.081-3.265,2.377-5.244,3.815s-3.938,2.8-5.305,3.734a15.962,15.962,0,0,0-2.163,1.581Z" transform="translate(-326 -294.014)"/><path class="h" d="M375.407,373.574c3.591-.959,7.876,2.54,8.621,6.182s-.633,7.366-2.234,10.722a54.693,54.693,0,0,1-14.854,19.445,36.726,36.726,0,0,1-22.72,8.366c1.52-7.06-.408-14.425.439-21.6A28.116,28.116,0,0,1,369.5,372.054c2.3-.245,4.948-.6,5.866,1.52" transform="translate(-326.27 -293.404)"/><path class="f" d="M344.22,418.255a3.2,3.2,0,0,0,.51-.235,10.01,10.01,0,0,0,1.347-.908,14.058,14.058,0,0,0,3.54-4.744c.582-1.112,1.214-2.326,1.847-3.663s1.255-2.765,1.928-4.264a39.955,39.955,0,0,1,2.377-4.57,35.428,35.428,0,0,1,3.265-4.448c2.469-2.887,5.1-5.387,7.4-7.784a50.749,50.749,0,0,0,5.631-6.754,25.507,25.507,0,0,0,2.755-5.254c.224-.663.4-1.183.479-1.54a2.782,2.782,0,0,0,.112-.551c-.051,0-.255.724-.775,2.04a27.233,27.233,0,0,1-2.867,5.1,52.373,52.373,0,0,1-5.672,6.641c-2.3,2.367-4.948,4.856-7.437,7.774a34.733,34.733,0,0,0-3.305,4.519,39.114,39.114,0,0,0-2.377,4.632l-1.887,4.285c-.6,1.336-1.224,2.55-1.775,3.673a14.579,14.579,0,0,1-3.367,4.754C344.893,417.877,344.189,418.2,344.22,418.255Z" transform="translate(-326.27 -293.371)"/><path class="f" d="M362.52,411.936a10.647,10.647,0,0,0-.326-2.418c-.286-1.479-.745-3.509-1.367-5.723s-1.3-4.193-1.826-5.6a10.928,10.928,0,0,0-1.02-2.234,12.751,12.751,0,0,0,.643,2.346c.449,1.439,1.02,3.418,1.683,5.621s1.132,4.213,1.5,5.662a13.013,13.013,0,0,0,.714,2.346Z" transform="translate(-325.992 -292.918)"/><path class="f" d="M344.88,394.717a14.007,14.007,0,0,0,2.54-.582c1.54-.4,3.683-.959,6.06-1.489s4.55-.959,6.121-1.255a14.636,14.636,0,0,0,2.54-.561,13.261,13.261,0,0,0-2.591.214c-1.591.214-3.785.571-6.182,1.112s-4.519,1.153-6.05,1.642a12.641,12.641,0,0,0-2.438.918Z" transform="translate(-326.257 -293.021)"/><path class="f" d="M375.6,399.948a13.916,13.916,0,0,0-.388-2.806c-.316-1.714-.816-4.081-1.489-6.652s-1.387-4.876-1.949-6.529a14.545,14.545,0,0,0-1.02-2.632,16.393,16.393,0,0,0,.694,2.734c.469,1.683,1.132,3.989,1.806,6.56s1.224,4.9,1.622,6.59a18.061,18.061,0,0,0,.724,2.734Z" transform="translate(-325.735 -293.213)"/><path class="f" d="M353,379.893c0,.133,4.5-.224,10.018-.816a98.658,98.658,0,0,0,9.967-1.306c0-.133-4.509.224-10.028.816A98.164,98.164,0,0,0,353,379.893Z" transform="translate(-326.093 -293.286)"/><path class="g" d="M356.19,433.175c0,.143,15.762.255,35.217.255s35.217-.112,35.217-.255-15.762-.245-35.217-.245S356.19,433,356.19,433.175Z" transform="translate(-326.029 -292.171)"/><path class="g" d="M366.94,453.065c0,.143,10.63.255,23.73.255s23.73-.112,23.73-.255-10.62-.245-23.73-.245S366.94,452.932,366.94,453.065Z" transform="translate(-325.811 -291.77)"/><path class="g" d="M367.35,455.915c0,.133,10.437.245,23.311.245s23.311-.112,23.311-.245-10.437-.255-23.311-.255S367.35,455.772,367.35,455.915Z" transform="translate(-325.803 -291.713)"/><path class="g" d="M366.53,450.725c0,.143,11,.255,24.546.255s24.546-.112,24.546-.255-10.987-.255-24.546-.255S366.53,450.582,366.53,450.725Z" transform="translate(-325.82 -291.817)"/></g><g transform="translate(181.65 32.9)"><path class="f" d="M322.616,380.642l-118.107-.071a25.729,25.729,0,0,1-25.719-25.739l.061-296.2A25.729,25.729,0,0,1,204.56,32.9l118.148.1a25.729,25.729,0,0,1,25.719,25.709l-.071,296.2A25.729,25.729,0,0,1,322.616,380.642Z" transform="translate(-178.79 -32.9)"/><path class="d" d="M322.422,43.241h-22.9a5.693,5.693,0,0,0-5.56,5.815V53.2a5.7,5.7,0,0,1-5.57,5.815H243.744a5.682,5.682,0,0,1-5.56-5.815V49.005a5.7,5.7,0,0,0-5.57-5.825h-28.1A18.017,18.017,0,0,0,186.481,61.2l-.061,289.112a18.027,18.027,0,0,0,18.017,18.037l117.914.061a18.027,18.027,0,0,0,18.037-18.017l.051-289.112a18.017,18.017,0,0,0-18.017-18.037Z" transform="translate(-178.636 -32.692)"/><path class="f" d="M251.26,349.644a2.255,2.255,0,1,1-.671-1.595A2.265,2.265,0,0,1,251.26,349.644Z" transform="translate(-177.418 -26.55)"/><path class="c" d="M263.7,349.534a2.265,2.265,0,1,1-2.285-2.244,2.265,2.265,0,0,1,2.285,2.244Z" transform="translate(-177.167 -26.553)"/><path class="c" d="M276.09,349.434a2.265,2.265,0,1,1-2.285-2.244A2.265,2.265,0,0,1,276.09,349.434Z" transform="translate(-176.917 -26.555)"/><path class="f" d="M201.76,82.561a1.02,1.02,0,0,1,.286,0h.765l2.846-.071-.092.082V79.337a1.081,1.081,0,0,1,.959-.888h1.367a1.1,1.1,0,0,1,.939,1.112c0,.959,0,1.969,0,3.061l-.153-.153h3.591l-.163.153v-5.6a1.183,1.183,0,0,0-.5-.837c-.531-.52-1.02-1.02-1.571-1.54l-1.54-1.612-.735-.714c-.255-.245-.449-.5-.735-.551a.908.908,0,0,0-.806.153c-.214.173-.449.439-.663.653l-1.285,1.3c-.806.837-1.653,1.612-2.265,2.326a2.581,2.581,0,0,0-.184,1.336v4.55a2.663,2.663,0,0,1,0,.479V76.807a1.551,1.551,0,0,1,.2-.755c.663-.816,1.449-1.53,2.265-2.4l1.275-1.306c.235-.235.418-.449.694-.694a1.224,1.224,0,0,1,1.02-.2,1.887,1.887,0,0,1,.867.622l.735.714,1.52,1.489,1.571,1.54a1.479,1.479,0,0,1,.592,1.02c0,.377,0,.765,0,1.143V82.6h-3.887V79.388a.826.826,0,0,0-.7-.847h-1.3a.877.877,0,0,0-.765.684V82.5h-3.724Z" transform="translate(-178.326 -32.122)"/><rect class="b" width="3.826" height="255.762" rx="1.8" transform="translate(152.325 64.996)"/><rect class="c" width="2.612" height="20.618" rx="1.22" transform="translate(152.937 76.688)"/><rect class="d" width="128.595" height="55.274" rx="4.43" transform="translate(19.965 63.639)"/><path class="h" d="M202.431,95.37h61.283v55.182H202.431a4.081,4.081,0,0,1-4.081-4.081V99.441a4.081,4.081,0,0,1,4.081-4.071Z" transform="translate(-178.395 -31.639)"/><g class="j" transform="translate(30.85 76.616)"><path d="M251.582,124.935c2.04-1.306,2.9-3.765,3.662-6.04.49-1.489.969-3.183.224-4.55a5.57,5.57,0,0,0-2.785-2.1A70.76,70.76,0,0,0,240.268,108l-31.085,11.069a4.693,4.693,0,0,0,6.988,5.193,33.728,33.728,0,0,1-1.428,18.282,3.061,3.061,0,0,0-.2,2.479c.49.867,1.673.969,2.663.969l31.167.092c1.52,0,3.254-.082,4.2-1.265s.643-3.061.245-4.57l-3.061-11.63a3.193,3.193,0,0,1-.061-2.132A4.165,4.165,0,0,1,251.582,124.935Z" transform="translate(-209.03 -108)"/></g><path class="d" d="M247.461,140.26c-.214-.459-2.979-10.386-2.979-10.386l.52-10.569.5-14.66-7.141-1.265c-5.162,2.989-13.262,4.244-18.547,1.816,0,0-2.836.133-4.224,1.408-.541.49.326,4.754,1.112,8.967.816,4.428,3.122,15.435,3.122,15.435s-3.907,9.437-4.744,12.15c0,0,23.923-4.336,31.932,0C247.022,143.157,248.716,142.923,247.461,140.26Z" transform="translate(-178.057 -31.477)"/><path class="d" d="M207,111.919l8.927-5.5,2.4,12.242-4.6,3.9S206.745,118.989,207,111.919Z" transform="translate(-178.221 -31.416)"/><path class="d" d="M244.929,104.62l9.059,3.918s-2.979,11.375-4.713,12.681l-4.6-1.938-1.132,3.56-.061-14.283Z" transform="translate(-177.484 -31.452)"/><path class="c" d="M214.536,121.355a1.633,1.633,0,0,1-.459-.214,11.355,11.355,0,0,1-1.143-.745,12.65,12.65,0,0,1-3.061-3.3,12.293,12.293,0,0,1-1.1-2.244,10.518,10.518,0,0,1-.5-1.969,7.254,7.254,0,0,1-.092-1.367,1.754,1.754,0,0,1,0-.5c.061,0,.051.714.275,1.826a11.772,11.772,0,0,0,.541,1.908,12.816,12.816,0,0,0,1.1,2.173,14.609,14.609,0,0,0,3,3.254C213.955,120.936,214.567,121.3,214.536,121.355Z" transform="translate(-178.197 -31.323)"/><path class="c" d="M217.01,116.9a.635.635,0,0,1-.347-.173,7.141,7.141,0,0,1-.786-.684,21.979,21.979,0,0,1-2.122-2.663,28.46,28.46,0,0,1-1.775-2.908,3.979,3.979,0,0,1-.51-1.316s.255.469.7,1.2,1.092,1.755,1.836,2.836a31.3,31.3,0,0,0,2.04,2.693c.286.326.531.571.7.745S217.02,116.883,217.01,116.9Z" transform="translate(-178.13 -31.36)"/><path class="c" d="M244.42,105.43a6.224,6.224,0,0,1-1.092.286c-.7.173-1.724.449-2.959.826L236,107.909a34.686,34.686,0,0,1-5.468,1.275,22.006,22.006,0,0,1-10.09-1.02,21.018,21.018,0,0,1-2.846-1.224c-.326-.163-.561-.326-.724-.418l-.245-.163a9.183,9.183,0,0,1,1.02.469,22.934,22.934,0,0,0,2.846,1.122,22.5,22.5,0,0,0,9.988.9,37.635,37.635,0,0,0,5.427-1.234c1.643-.479,3.122-.949,4.377-1.306s2.285-.592,3-.724c.357-.082.643-.112.837-.143A1.02,1.02,0,0,1,244.42,105.43Z" transform="translate(-178.026 -31.436)"/><path class="c" d="M245.38,113.54a.95.95,0,0,0-.286.071l-.837.143c-.724.112-1.775.245-3.061.377a101.477,101.477,0,0,1-10.2.49c-4.009,0-7.631-.143-10.2-.275l-3.061-.184-.847-.061a1.02,1.02,0,0,1-.3,0h1.143l3.061.082c2.622.082,6.244.194,10.2.194s7.611-.184,10.2-.408c1.306-.1,2.357-.2,3.061-.275l.837-.082A1.623,1.623,0,0,1,245.38,113.54Z" transform="translate(-178.027 -31.272)"/><path class="c" d="M244.948,119a8.645,8.645,0,0,1-1.02.326c-.337.1-.745.194-1.234.3s-1.02.224-1.643.326a68.934,68.934,0,0,1-9.661.837,93.562,93.562,0,0,1-9.7-.194c-1.234-.092-2.234-.194-2.928-.286a7.05,7.05,0,0,1-1.02-.194,8.231,8.231,0,0,1,1.071.071c.694,0,1.694.122,2.928.184,2.479.112,5.9.214,9.682.1a79.433,79.433,0,0,0,9.631-.745q.939-.122,1.653-.275c.479-.082.9-.153,1.234-.245A5.478,5.478,0,0,1,244.948,119Z" transform="translate(-178.004 -31.162)"/><path class="c" d="M244.141,126.38a6.193,6.193,0,0,1-1.02.143c-.633.071-1.551.163-2.693.255-2.285.173-5.448.357-8.947.4s-6.662-.082-8.947-.286c-1.132-.112-2.04-.214-2.693-.326a7.032,7.032,0,0,1-1.02-.184,4.887,4.887,0,0,1,1.02.061c.633.071,1.551.143,2.693.224,2.285.143,5.438.245,8.927.194s6.641-.184,8.927-.306l2.7-.153A5.325,5.325,0,0,1,244.141,126.38Z" transform="translate(-177.982 -31.013)"/><path class="c" d="M245.632,133.678a6.519,6.519,0,0,1-1.071,0l-2.938-.2c-2.469-.163-5.886-.337-9.671-.337s-7.2.173-9.671.337l-2.928.2a6.643,6.643,0,0,1-1.081,0,8.863,8.863,0,0,1,1.02-.163c.684-.092,1.683-.194,2.918-.306,2.479-.214,5.907-.418,9.692-.418s7.223.194,9.692.418c1.234.112,2.234.214,2.928.306A8.875,8.875,0,0,1,245.632,133.678Z" transform="translate(-177.993 -30.883)"/><path class="c" d="M247.959,107.7a8.161,8.161,0,0,1-1.194,2.571,7.672,7.672,0,0,1-1.785,2.2c-.071,0,.7-1.02,1.52-2.367A24.055,24.055,0,0,1,247.959,107.7Z" transform="translate(-177.454 -31.39)"/><path class="f" d="M215.91,111a3.439,3.439,0,0,1,.194.765c.122.561.265,1.275.449,2.122.388,1.857.9,4.3,1.469,7s1.02,5.213,1.377,7.009c.153.9.275,1.632.347,2.142a3.543,3.543,0,0,1,.071.8,3.939,3.939,0,0,1-.194-.775c-.112-.561-.265-1.275-.449-2.122-.388-1.847-.9-4.295-1.469-6.988s-1.02-5.213-1.377-7.019c-.153-.9-.275-1.632-.347-2.132a3.56,3.56,0,0,1-.071-.8Z" transform="translate(-178.041 -31.323)"/><path class="f" d="M245.023,114.2a2.244,2.244,0,0,1,0,.612,15.567,15.567,0,0,1-.071,1.663c-.071,1.4-.184,3.336-.337,5.468s-.306,4.081-.439,5.458c-.061.694-.122,1.265-.163,1.653a1.916,1.916,0,0,1-.112.6,2.572,2.572,0,0,1,0-.612c0-.388,0-.959.061-1.653.071-1.408.194-3.336.347-5.468s.306-4.081.439-5.468c.061-.694.122-1.265.163-1.653A2.784,2.784,0,0,1,245.023,114.2Z" transform="translate(-177.476 -31.259)"/><path class="c" d="M251.47,107.58a13.691,13.691,0,0,1-.735,1.8c-.469,1.112-1.081,2.652-1.643,4.4s-.949,3.356-1.2,4.53a17.2,17.2,0,0,1-.439,1.9v-.52a10.077,10.077,0,0,1,.194-1.418,34.687,34.687,0,0,1,1.132-4.581,35.281,35.281,0,0,1,1.734-4.4c.265-.541.49-1.02.653-1.265a2.3,2.3,0,0,1,.306-.439Z" transform="translate(-177.404 -31.392)"/><path class="c" d="M247.427,139.931a1.337,1.337,0,0,1-.326-.061l-.939-.224c-.4-.1-.9-.224-1.479-.337s-1.224-.275-1.969-.388-1.53-.265-2.4-.357-1.8-.184-2.775-.265a48.011,48.011,0,0,0-12.712.847c-.959.214-1.877.4-2.714.633s-1.622.449-2.336.673-1.336.449-1.9.643-1.02.377-1.418.541l-.9.337a1.123,1.123,0,0,1-.316.1,2.273,2.273,0,0,1,.3-.153l.867-.408c.388-.173.847-.377,1.408-.582s1.173-.469,1.887-.694,1.49-.49,2.336-.714,1.765-.439,2.724-.663A45.909,45.909,0,0,1,237.562,138c1.02.092,1.918.163,2.785.306s1.683.255,2.408.4,1.4.3,1.969.428,1.071.275,1.469.4l.918.275A1.438,1.438,0,0,1,247.427,139.931Z" transform="translate(-178.054 -30.78)"/><path class="h" d="M262.565,150.967c-.143,0-.265-12.242-.265-27.453s.122-27.464.265-27.464.265,12.242.265,27.464S262.708,150.967,262.565,150.967Z" transform="translate(-177.104 -31.625)"/><path class="h" d="M322.461,150.56a5.172,5.172,0,0,0,.918-.122,4.714,4.714,0,0,0,2.316-1.316,4.8,4.8,0,0,0,1.02-1.694,7.14,7.14,0,0,0,.2-2.387c0-1.755,0-3.775,0-6.05,0-9.121-.051-22.291-.082-38.573a7.141,7.141,0,0,0-.092-1.489,4.367,4.367,0,0,0-2.867-3.224,10.56,10.56,0,0,0-3.142-.224H202.854a4.264,4.264,0,0,0-3.652,2.04,4.325,4.325,0,0,0-.612,2.04v46.551a4.275,4.275,0,0,0,1.857,3.346,4.223,4.223,0,0,0,1.816.7,19.184,19.184,0,0,0,2.04,0h8.162l57.212.051,38.573.092h10.488l-10.488.051-38.573.082-57.212.061H204.3a18.372,18.372,0,0,1-2.1,0,4.672,4.672,0,0,1-2.04-.775,4.764,4.764,0,0,1-2.04-3.744q0-8.457,0-17.262V99.642A4.8,4.8,0,0,1,202.895,95H322.328a4.979,4.979,0,0,1,1.643.255,4.744,4.744,0,0,1,3.112,3.509,7.528,7.528,0,0,1,.1,1.571c0,16.323-.071,29.453-.092,38.573v6.05a7.141,7.141,0,0,1-.245,2.428,4.794,4.794,0,0,1-1.02,1.724,4.54,4.54,0,0,1-2.377,1.3A3.988,3.988,0,0,1,322.461,150.56Z" transform="translate(-178.4 -31.646)"/><path class="h" d="M290.9,107.705c0,.143-5.274.265-11.773.265s-11.773-.122-11.773-.265,5.274-.265,11.773-.265S290.9,107.552,290.9,107.705Z" transform="translate(-177.002 -31.395)"/><path class="h" d="M313.6,114.815c0,.143-10.406.265-23.24.265s-23.25-.122-23.25-.265,10.406-.265,23.25-.265S313.6,114.662,313.6,114.815Z" transform="translate(-177.007 -31.251)"/><path class="h" d="M313.6,119.005c0,.153-10.406.265-23.24.265s-23.25-.112-23.25-.265,10.406-.265,23.25-.265S313.6,118.842,313.6,119.005Z" transform="translate(-177.007 -31.167)"/><path class="h" d="M308.041,139.572a2.377,2.377,0,0,0-.571-1.3,2.255,2.255,0,0,0-1.173-.765,1.836,1.836,0,0,0-2.04.888,1.785,1.785,0,0,0-.53-.612,1.857,1.857,0,0,0-1.428-.316,2.3,2.3,0,0,0-1.2.694,2.458,2.458,0,0,0-.643,1.275,2.856,2.856,0,0,0,.306,1.785,4.235,4.235,0,0,0,1.367,1.357l2.1,1.306a20.734,20.734,0,0,1,1.979-1.265,4.142,4.142,0,0,0,1.438-1.285A2.877,2.877,0,0,0,308.041,139.572Z" transform="translate(-176.334 -30.789)"/><path class="f" d="M304.218,144.042h-.071s-1.2-.735-2.091-1.306a4.08,4.08,0,0,1-1.418-1.4,3.061,3.061,0,0,1-.326-1.867,2.55,2.55,0,0,1,.684-1.336,2.347,2.347,0,0,1,1.275-.735,2.04,2.04,0,0,1,1.53.337,2.225,2.225,0,0,1,.459.469,1.949,1.949,0,0,1,2.04-.765,2.357,2.357,0,0,1,1.234.806,2.428,2.428,0,0,1,.6,1.367,2.979,2.979,0,0,1-.418,1.847,4.346,4.346,0,0,1-1.49,1.326c-.918.51-1.959,1.245-1.969,1.255Zm-1.591-6.478a1.562,1.562,0,0,0-.306,0,2.357,2.357,0,0,0-1.755,1.867,2.765,2.765,0,0,0,.3,1.7,3.958,3.958,0,0,0,1.326,1.306c.765.49,1.755,1.1,2.04,1.265.255-.173,1.132-.775,1.918-1.224a4.009,4.009,0,0,0,1.4-1.234,2.642,2.642,0,0,0,.388-1.683h0a2.163,2.163,0,0,0-.541-1.234,2.04,2.04,0,0,0-1.1-.724,1.724,1.724,0,0,0-1.908.826l-.112.2-.1-.2a1.928,1.928,0,0,0-.5-.571,1.806,1.806,0,0,0-1.041-.3Z" transform="translate(-176.337 -30.791)"/><path class="f" d="M318.545,142.622H313.26l-.082-.622c-.235-1.826-.439-3.458-.571-4.519h0c.143,1.02.357,2.693.6,4.519a4.147,4.147,0,0,0,.082.622h0l3.764.051h1.52Z" transform="translate(-176.116 -30.789)"/><path class="f" d="M317.016,142.715h-3.785s-.071,0-.071-.061l-.082-.653-.571-4.438h-1.173c-.112,0-.173,0-.173-.092s.071-.071.173-.082H312.6s.092,0,.092.061h0l.612,4.652a.992.992,0,0,0,.051.388l5.1.082c.122,0,.184,0,.184.082s-.061.082-.184.082h-1.428Z" transform="translate(-176.117 -30.79)"/><path class="f" d="M313.09,141.463h5.427c.122-.653.255-1.357.388-2.091l.2-1.1h0c-.061.357-.133.724-.2,1.1-.143.735-.275,1.449-.4,2.1H313.08Z" transform="translate(-176.079 -30.773)"/><path class="f" d="M318.558,141.628h0l-5.407-.082s-.1,0-.1-.082a.048.048,0,1,1,.082-.051h5.315l.551-2.969-6.274-.092s-.112,0-.112-.082.082-.082.112-.082h6.519a.061.061,0,0,1,0,.061l-.214,1.143c-.082.469-.173.939-.255,1.387l-.143.735a.071.071,0,0,1-.071.112Z" transform="translate(-176.088 -30.774)"/><path class="f" d="M314.531,143.9v-.122a.51.51,0,0,0-.194-.275.469.469,0,0,0-.469-.071.5.5,0,0,0-.337.459.52.52,0,0,0,.326.469.5.5,0,0,0,.469-.061.459.459,0,0,0,.194-.275c0-.071,0-.122,0-.122a.327.327,0,0,1,0,.133.581.581,0,0,1-.194.306.541.541,0,0,1-.52.082.561.561,0,0,1,0-1.02.541.541,0,0,1,.52.092.5.5,0,0,1,.184.306.325.325,0,0,1,.02.1Z" transform="translate(-176.071 -30.67)"/><path class="f" d="M314.013,144.534a.53.53,0,0,1-.214,0,.631.631,0,1,1,.6-1.092.653.653,0,0,1,.214.357.671.671,0,0,1,0,.143.316.316,0,0,1,0,.143.571.571,0,0,1-.214.357.633.633,0,0,1-.388.092Zm0-1.02h-.143a.418.418,0,0,0-.275.388.439.439,0,0,0,.265.4.449.449,0,0,0,.408-.051.459.459,0,0,0,.163-.235v-.082h0a.152.152,0,0,0,0-.082.408.408,0,0,0-.163-.235.367.367,0,0,0-.255-.143Z" transform="translate(-176.073 -30.671)"/><path class="f" d="M317.861,143.931v-.122a.51.51,0,0,0-.194-.275.5.5,0,0,0-.8.388.479.479,0,0,0,.316.469.469.469,0,0,0,.469-.061.561.561,0,0,0,.2-.265c0-.082,0-.133,0-.133a.327.327,0,0,1,0,.133.459.459,0,0,1-.194.306.555.555,0,1,1-.51-.969.53.53,0,0,1,.52.092.5.5,0,0,1,.184.306A.327.327,0,0,1,317.861,143.931Z" transform="translate(-176.004 -30.67)"/><path class="f" d="M317.323,144.564a.53.53,0,0,1-.214,0,.633.633,0,0,1,0-1.194.612.612,0,0,1,.6.1.653.653,0,0,1,.214.357.336.336,0,0,1,0,.143.768.768,0,0,1,0,.153.642.642,0,0,1-.224.347A.612.612,0,0,1,317.323,144.564Zm0-1.02a.367.367,0,0,0-.143,0,.429.429,0,0,0-.275.388.423.423,0,0,0,.673.347.4.4,0,0,0,.163-.235.133.133,0,0,0,0-.082h0a.644.644,0,0,1,0-.092.541.541,0,0,0-.163-.235.408.408,0,0,0-.245-.122Z" transform="translate(-176.006 -30.67)"/><path class="f" d="M320.26,137.84a1.51,1.51,0,1,1-.431-1.077A1.51,1.51,0,0,1,320.26,137.84Z" transform="translate(-175.995 -30.812)"/><path class="d" d="M318.76,138.631h0a5.283,5.283,0,0,1,0-.765,4.083,4.083,0,0,1,.061-.8,2.837,2.837,0,0,1,0,.8,6.4,6.4,0,0,1-.051.765h-.01Z" transform="translate(-175.964 -30.797)"/><path class="d" d="M319.591,137.9a4.2,4.2,0,0,1-.8,0,2.805,2.805,0,0,1-.786-.071,4.082,4.082,0,0,1,.786,0,2.988,2.988,0,0,1,.8.071Z" transform="translate(-175.979 -30.782)"/><path class="h" d="M290.044,141.255c0,.143-4.795.265-10.712.265s-10.7-.122-10.7-.265,4.795-.265,10.7-.265S290.044,141.112,290.044,141.255Z" transform="translate(-176.976 -30.718)"/><rect class="b" width="128.595" height="55.274" rx="4.43" transform="translate(19.965 127.534)"/><path class="d" d="M202.431,158h61.283v55.182H202.431a4.081,4.081,0,0,1-4.081-4.081V162.081A4.081,4.081,0,0,1,202.431,158Z" transform="translate(-178.395 -30.374)"/><path class="c" d="M262.565,213.6c-.143,0-.265-12.242-.265-27.453s.122-27.464.265-27.464.265,12.242.265,27.464S262.708,213.6,262.565,213.6Z" transform="translate(-177.104 -30.361)"/><path class="c" d="M322.461,213.189a5.171,5.171,0,0,0,.918-.122,4.55,4.55,0,0,0,2.316-1.316,4.723,4.723,0,0,0,1.02-1.694,7.058,7.058,0,0,0,.2-2.377v-6.06c0-9.12-.051-22.291-.082-38.573a7.224,7.224,0,0,0-.092-1.489,4.366,4.366,0,0,0-2.867-3.224,10.569,10.569,0,0,0-3.142-.214H202.854a4.24,4.24,0,0,0-4.264,4.081v46.551a4.275,4.275,0,0,0,3.673,4.081,17.009,17.009,0,0,0,2.04,0h8.162l57.212.061,38.573.082h10.488l-10.488.051-38.573.082-57.212.061H204.3a20.924,20.924,0,0,1-2.1,0,4.754,4.754,0,0,1-4.081-4.53q0-8.457,0-17.262v-29.1a4.8,4.8,0,0,1,4.795-4.632H322.349a4.979,4.979,0,0,1,1.642.255,4.734,4.734,0,0,1,3.112,3.52,7.435,7.435,0,0,1,.1,1.561c0,16.323-.071,29.453-.092,38.573v6.06a7.141,7.141,0,0,1-.245,2.418,4.7,4.7,0,0,1-1.02,1.724,4.54,4.54,0,0,1-2.377,1.3A3.367,3.367,0,0,1,322.461,213.189Z" transform="translate(-178.4 -30.381)"/><path class="f" d="M290.9,170.335c0,.143-5.274.265-11.773.265s-11.773-.122-11.773-.265,5.274-.265,11.773-.265S290.9,170.182,290.9,170.335Z" transform="translate(-177.002 -30.131)"/><path class="c" d="M313.6,177.445c0,.143-10.406.265-23.24.265s-23.25-.122-23.25-.265,10.406-.265,23.25-.265S313.6,177.3,313.6,177.445Z" transform="translate(-177.007 -29.987)"/><path class="c" d="M313.6,181.615c0,.153-10.406.265-23.24.265s-23.25-.112-23.25-.265,10.406-.265,23.25-.265S313.6,181.472,313.6,181.615Z" transform="translate(-177.007 -29.903)"/><path class="h" d="M308.041,202.212a2.408,2.408,0,0,0-.571-1.306,2.254,2.254,0,0,0-1.173-.765,1.836,1.836,0,0,0-1.439.245,1.938,1.938,0,0,0-.612.643,1.673,1.673,0,0,0-.53-.6,1.857,1.857,0,0,0-1.428-.326,2.367,2.367,0,0,0-1.2.694,2.458,2.458,0,0,0-.643,1.275,2.846,2.846,0,0,0,.306,1.785,4.234,4.234,0,0,0,1.367,1.357c.908.582,2.1,1.306,2.1,1.306a23.264,23.264,0,0,1,1.979-1.265,4.224,4.224,0,0,0,1.439-1.275A2.887,2.887,0,0,0,308.041,202.212Z" transform="translate(-176.335 -29.525)"/><path class="f" d="M304.218,206.672h-.071s-1.2-.724-2.091-1.306a4.08,4.08,0,0,1-1.418-1.4,3.061,3.061,0,0,1-.326-1.867,2.55,2.55,0,0,1,.684-1.336,2.408,2.408,0,0,1,1.275-.735,2.04,2.04,0,0,1,1.53.337,2.285,2.285,0,0,1,.459.479,1.836,1.836,0,0,1,.531-.52,2.04,2.04,0,0,1,1.54-.255,2.336,2.336,0,0,1,1.234.806,2.418,2.418,0,0,1,.6,1.377,2.959,2.959,0,0,1-.418,1.836,4.244,4.244,0,0,1-1.489,1.326c-.918.52-1.959,1.245-1.969,1.255Zm-1.591-6.478a1.561,1.561,0,0,0-.306,0,2.2,2.2,0,0,0-1.143.663,2.234,2.234,0,0,0-.612,1.2,2.755,2.755,0,0,0,.3,1.7,3.867,3.867,0,0,0,1.326,1.306c.765.49,1.755,1.1,2.04,1.265.255-.173,1.132-.775,1.918-1.224a3.815,3.815,0,0,0,1.4-1.234,2.642,2.642,0,0,0,.388-1.683h0a2.163,2.163,0,0,0-.541-1.234,2.04,2.04,0,0,0-1.1-.724,1.714,1.714,0,0,0-1.336.224,1.8,1.8,0,0,0-.571.6l-.112.2-.1-.2a1.764,1.764,0,0,0-.5-.561,1.745,1.745,0,0,0-1.041-.306Z" transform="translate(-176.337 -29.526)"/><path class="f" d="M318.538,205.252h-5.285l-.082-.622c-.235-1.826-.439-3.448-.571-4.519h0l.6,4.509a3.987,3.987,0,0,0,.082.622h0l3.765.051h1.52Z" transform="translate(-176.109 -29.524)"/><path class="f" d="M317.016,205.345h-3.785a.071.071,0,0,1-.071-.061l-.653-5.1h-1.173c-.1,0-.173,0-.173-.082s.071-.082.173-.082H312.6s.092,0,.092.071h0l.612,4.632a1.123,1.123,0,0,0,.051.408l5.1.071c.122,0,.184,0,.184.092s-.061.071-.184.082h-1.428Z" transform="translate(-176.117 -29.526)"/><path class="f" d="M313.09,204.063h5.427c.122-.663.255-1.367.388-2.1.071-.377.143-.745.2-1.1h0c-.061.347-.133.724-.2,1.092-.143.735-.275,1.449-.4,2.1h0l-3.9-.051h-1.53Z" transform="translate(-176.079 -29.509)"/><path class="f" d="M318.558,204.258h0l-5.407-.082c-.082,0-.1-.051-.1-.082a.081.081,0,0,1,0-.051h5.4l.551-2.969-6.274-.092s-.112,0-.112-.082.082-.082.112-.082h6.519a.071.071,0,0,1,0,.061l-.214,1.143c-.082.469-.173.928-.255,1.367l-.143.755S318.6,204.258,318.558,204.258Z" transform="translate(-176.088 -29.51)"/><path class="f" d="M314.532,206.531v-.122a.51.51,0,0,0-.194-.275.5.5,0,0,0-.806.388.51.51,0,0,0,.327.469.5.5,0,0,0,.469-.061.48.48,0,0,0,.194-.265c0-.082,0-.133,0-.133a.326.326,0,0,1,0,.133.55.55,0,1,1-.7-.663.541.541,0,0,1,.52.092.5.5,0,0,1,.184.306A.327.327,0,0,1,314.532,206.531Z" transform="translate(-176.071 -29.406)"/><path class="f" d="M314.013,207.164a.53.53,0,0,1-.214,0,.622.622,0,0,1-.418-.6.633.633,0,0,1,.429-.592.612.612,0,0,1,.6.1.653.653,0,0,1,.214.357.669.669,0,0,1,0,.143.356.356,0,0,1,0,.153.551.551,0,0,1-.214.347.632.632,0,0,1-.4.092Zm0-1.02a.368.368,0,0,0-.143,0,.421.421,0,0,0-.01.786.449.449,0,0,0,.408-.051.4.4,0,0,0,.163-.235.315.315,0,0,0,0-.082h0a.183.183,0,0,0,0-.092.408.408,0,0,0-.163-.235.367.367,0,0,0-.255-.122Z" transform="translate(-176.073 -29.406)"/><path class="f" d="M317.861,206.561v-.122a.592.592,0,0,0-.194-.275.531.531,0,0,0-.469-.071.5.5,0,0,0-.326.459.479.479,0,0,0,.316.469.469.469,0,0,0,.469-.061.561.561,0,0,0,.2-.265c0-.082,0-.133,0-.133a.327.327,0,0,1,0,.133.439.439,0,0,1-.194.306.51.51,0,0,1-.52.082.541.541,0,0,1-.367-.531.551.551,0,0,1,.378-.52.531.531,0,0,1,.52.092.5.5,0,0,1,.184.306.317.317,0,0,1,0,.133Z" transform="translate(-176.004 -29.405)"/><path class="f" d="M317.323,207.194a.53.53,0,0,1-.214,0,.633.633,0,0,1,0-1.194.612.612,0,0,1,.6.1.653.653,0,0,1,.214.357.389.389,0,0,1,0,.153.661.661,0,0,1,0,.143.642.642,0,0,1-.224.347A.612.612,0,0,1,317.323,207.194Zm0-1.02a.367.367,0,0,0-.143,0,.449.449,0,0,0-.275.4.408.408,0,0,0,.265.388.388.388,0,0,0,.408-.051.408.408,0,0,0,.163-.224.184.184,0,0,0,0-.092h0a.645.645,0,0,1,0-.092.541.541,0,0,0-.163-.235.48.48,0,0,0-.245-.122Z" transform="translate(-176.006 -29.406)"/><path class="f" d="M320.26,200.47a1.51,1.51,0,1,1-1.5-1.52,1.51,1.51,0,0,1,1.5,1.52Z" transform="translate(-175.995 -29.547)"/><path class="d" d="M318.76,201.261h0a5.283,5.283,0,0,1,0-.765,4.083,4.083,0,0,1,.061-.8,2.837,2.837,0,0,1,0,.8,6.4,6.4,0,0,1-.051.765h-.01Z" transform="translate(-175.964 -29.532)"/><path class="d" d="M319.591,200.532a4.2,4.2,0,0,1-.8,0,3.776,3.776,0,0,1-.786-.061,2.958,2.958,0,0,1,.786,0A3.6,3.6,0,0,1,319.591,200.532Z" transform="translate(-175.979 -29.517)"/><path class="f" d="M290.044,203.885a106.01,106.01,0,0,1-10.712.265,105.88,105.88,0,0,1-10.7-.265c0-.143,4.795-.265,10.7-.265S290.044,203.742,290.044,203.885Z" transform="translate(-176.976 -29.453)"/><rect class="b" width="128.595" height="55.274" rx="4.43" transform="translate(19.965 190.643)"/><path class="d" d="M202.431,219.86h61.283v55.182H202.431a4.081,4.081,0,0,1-4.081-4.081V223.931a4.081,4.081,0,0,1,4.081-4.071Z" transform="translate(-178.395 -29.125)"/><path class="c" d="M262.565,275.457c-.143,0-.265-12.293-.265-27.453s.122-27.464.265-27.464.265,12.293.265,27.464S262.708,275.457,262.565,275.457Z" transform="translate(-177.104 -29.112)"/><path class="c" d="M322.461,275.1a5.172,5.172,0,0,0,.918-.122,4.55,4.55,0,0,0,3.316-3.01,7.141,7.141,0,0,0,.2-2.387v-6.05c0-9.121-.051-22.291-.082-38.573a7.142,7.142,0,0,0-.092-1.489,4.367,4.367,0,0,0-2.867-3.224,10.56,10.56,0,0,0-3.142-.224H202.854a4.254,4.254,0,0,0-4.264,4.081v46.551A4.275,4.275,0,0,0,200.446,274a4.223,4.223,0,0,0,1.816.7,19.431,19.431,0,0,0,2.04,0h8.162l57.212.051,38.573.092h10.488l-10.488.051-38.573.082-57.212.061H204.3a18.37,18.37,0,0,1-2.1-.051,4.724,4.724,0,0,1-4.081-4.519q0-8.457,0-17.262V224.091a4.8,4.8,0,0,1,4.795-4.621H322.349a4.979,4.979,0,0,1,1.643.255,4.744,4.744,0,0,1,3.112,3.509,7.528,7.528,0,0,1,.1,1.571c0,16.323-.071,29.453-.092,38.573v6.05a7.142,7.142,0,0,1-.245,2.428,4.8,4.8,0,0,1-1.02,1.724,4.622,4.622,0,0,1-2.377,1.3A3.99,3.99,0,0,1,322.461,275.1Z" transform="translate(-178.4 -29.133)"/><path class="f" d="M290.9,232.185c0,.153-5.274.275-11.773.275s-11.773-.122-11.773-.275,5.274-.265,11.773-.265S290.9,232,290.9,232.185Z" transform="translate(-177.002 -28.882)"/><path class="c" d="M313.6,239.305c0,.143-10.406.265-23.24.265s-23.25-.122-23.25-.265,10.406-.265,23.25-.265S313.6,239.152,313.6,239.305Z" transform="translate(-177.007 -28.738)"/><path class="c" d="M313.6,243.475c0,.143-10.406.265-23.24.265s-23.25-.122-23.25-.265,10.406-.265,23.25-.265S313.6,243.332,313.6,243.475Z" transform="translate(-177.007 -28.654)"/><path class="h" d="M308.041,264.042a2.438,2.438,0,0,0-.571-1.306,2.306,2.306,0,0,0-1.173-.755,1.836,1.836,0,0,0-2.04.888,1.7,1.7,0,0,0-.53-.612,1.857,1.857,0,0,0-1.428-.316,2.224,2.224,0,0,0-1.2.694,2.418,2.418,0,0,0-.643,1.275,2.857,2.857,0,0,0,.306,1.785,4.234,4.234,0,0,0,1.367,1.357l2.1,1.306a20.727,20.727,0,0,1,1.979-1.265,4.142,4.142,0,0,0,1.438-1.285,2.887,2.887,0,0,0,.4-1.765Z" transform="translate(-176.334 -28.276)"/><path class="f" d="M304.218,268.522h-.071s-1.2-.735-2.091-1.306a4.223,4.223,0,0,1-1.418-1.4,3.061,3.061,0,0,1-.326-1.867,2.521,2.521,0,0,1,.684-1.336,2.418,2.418,0,0,1,1.275-.745,2.04,2.04,0,0,1,1.53.347,2.223,2.223,0,0,1,.459.469,1.939,1.939,0,0,1,.53-.51,2.041,2.041,0,0,1,1.54-.265,2.418,2.418,0,0,1,1.234.806,2.479,2.479,0,0,1,.592,1.326,2.979,2.979,0,0,1-.418,1.847,4.223,4.223,0,0,1-1.489,1.316c-.918.52-1.959,1.255-1.969,1.265Zm-1.591-6.468h-.306a2.132,2.132,0,0,0-1.143.663,2.214,2.214,0,0,0-.612,1.194,2.744,2.744,0,0,0,.3,1.7,3.887,3.887,0,0,0,1.326,1.316c.765.49,1.755,1.092,2.04,1.265.255-.173,1.132-.775,1.918-1.224a4.009,4.009,0,0,0,1.4-1.234,2.652,2.652,0,0,0,.388-1.694h0a2.163,2.163,0,0,0-.541-1.224,2.04,2.04,0,0,0-1.1-.724,1.724,1.724,0,0,0-1.908.826l-.112.194-.1-.194a1.805,1.805,0,0,0-.5-.571,1.734,1.734,0,0,0-1.041-.3Z" transform="translate(-176.337 -28.278)"/><path class="f" d="M318.538,267.1h-5.285l-.082-.622c-.235-1.826-.439-3.458-.571-4.519h0c.143,1.071.357,2.693.6,4.519a4.154,4.154,0,0,0,.082.622h5.285Z" transform="translate(-176.109 -28.275)"/><path class="f" d="M317.016,267.206h-3.785s-.071,0-.071-.061l-.653-5.1h-1.173c-.1,0-.173,0-.173-.092s.071-.071.173-.082H312.6s.092,0,.092.061h0l.612,4.642a1.018,1.018,0,0,0,.051.4l5.1.082c.122,0,.184,0,.184.082s-.061.082-.184.082h-1.428Z" transform="translate(-176.117 -28.277)"/><path class="f" d="M313.09,265.953h5.427c.122-.653.255-1.357.388-2.091l.2-1.1h0c-.061.357-.133.724-.2,1.1-.143.735-.275,1.438-.4,2.1h0l-3.9-.051h-1.53Z" transform="translate(-176.079 -28.259)"/><path class="f" d="M318.558,266.117h0l-3.9-.051h-1.51c-.071,0-.1,0-.1-.082a.048.048,0,1,1,.082-.051h5.315l.551-2.979-5.1-.061h-1.173c-.071,0-.112,0-.112-.071s.082-.082.1-.082h6.529a.061.061,0,0,1,0,.061l-.214,1.143-.4,2.122A.071.071,0,0,1,318.558,266.117Z" transform="translate(-176.088 -28.26)"/><path class="f" d="M314.532,268.391v-.122a.51.51,0,0,0-.194-.275.469.469,0,0,0-.469-.071.5.5,0,0,0-.337.459.52.52,0,0,0,.326.469.5.5,0,0,0,.469-.061.459.459,0,0,0,.194-.275c0-.071,0-.122,0-.122a.326.326,0,0,1,0,.133.582.582,0,0,1-.194.306.571.571,0,0,1-.52.082.561.561,0,0,1-.367-.53.551.551,0,0,1,.9-.428.479.479,0,0,1,.184.306.327.327,0,0,1,.01.133Z" transform="translate(-176.071 -28.157)"/><path class="f" d="M314.013,269.024a.53.53,0,0,1-.214,0,.633.633,0,0,1,0-1.194.612.612,0,0,1,.6.1.622.622,0,0,1,.214.357.336.336,0,0,1,0,.143.316.316,0,0,1,0,.143.571.571,0,0,1-.214.357A.633.633,0,0,1,314.013,269.024Zm0-1.02h-.143a.418.418,0,0,0-.275.388.439.439,0,0,0,.265.4.449.449,0,0,0,.408-.051.459.459,0,0,0,.163-.235.51.51,0,0,0,0-.092h0a.132.132,0,0,0,0-.082.357.357,0,0,0-.163-.235A.367.367,0,0,0,314.013,268Z" transform="translate(-176.073 -28.158)"/><path class="f" d="M317.861,268.421V268.3a.51.51,0,0,0-.194-.275.5.5,0,0,0-.8.388.49.49,0,0,0,.786.408.541.541,0,0,0,.2-.275v-.122a.327.327,0,0,1,0,.133.48.48,0,0,1-.194.306.541.541,0,0,1-.52.082.557.557,0,0,1,.01-1.051.53.53,0,0,1,.52.092.5.5,0,0,1,.184.306A.327.327,0,0,1,317.861,268.421Z" transform="translate(-176.004 -28.156)"/><path class="f" d="M317.323,269.024a.531.531,0,0,1-.214,0,.643.643,0,0,1-.418-.6.633.633,0,0,1,.428-.592.622.622,0,0,1,.6.1.653.653,0,0,1,.214.357.663.663,0,0,1,0,.143.768.768,0,0,1,0,.153.643.643,0,0,1-.224.347.612.612,0,0,1-.388.092Zm0-1.02h-.143a.418.418,0,0,0-.275.388.439.439,0,0,0,.265.4.449.449,0,0,0,.408-.051.429.429,0,0,0,.163-.235.173.173,0,0,0,0-.082h0a.645.645,0,0,1,0-.092.49.49,0,0,0-.163-.235.419.419,0,0,0-.245-.092Z" transform="translate(-176.006 -28.158)"/><path class="f" d="M320.26,262.32a1.51,1.51,0,1,1-1.5-1.52,1.51,1.51,0,0,1,1.5,1.52Z" transform="translate(-175.995 -28.299)"/><path class="d" d="M318.76,263.121h0a5.38,5.38,0,0,1,0-.765,4.085,4.085,0,0,1,.061-.8,2.837,2.837,0,0,1,0,.8,6.4,6.4,0,0,1-.051.765h-.01Z" transform="translate(-175.964 -28.283)"/><path class="d" d="M319.591,262.382a3.06,3.06,0,0,1-.8,0,3.369,3.369,0,0,1-.786-.071,7.716,7.716,0,0,1,1.581,0Z" transform="translate(-175.979 -28.269)"/><path class="f" d="M290.044,265.745c0,.143-4.795.265-10.712.265s-10.7-.122-10.7-.265,4.795-.265,10.7-.265S290.044,265.6,290.044,265.745Z" transform="translate(-176.976 -28.204)"/><rect class="b" width="128.595" height="55.274" rx="4.43" transform="translate(19.965 254.14)"/><path class="d" d="M202.431,282.11h61.283v55.182H202.431a4.081,4.081,0,0,1-4.081-4.081V286.181A4.081,4.081,0,0,1,202.431,282.11Z" transform="translate(-178.395 -27.868)"/><path class="c" d="M262.565,337.7c-.143,0-.265-12.293-.265-27.453s.122-27.453.265-27.453.265,12.242.265,27.453S262.708,337.7,262.565,337.7Z" transform="translate(-177.104 -27.855)"/><path class="c" d="M322.461,337.289a5.172,5.172,0,0,0,.918-.122,4.55,4.55,0,0,0,2.316-1.316,4.724,4.724,0,0,0,1.02-1.693,7.058,7.058,0,0,0,.2-2.377v-6.06c0-9.121-.051-22.291-.082-38.563a7.273,7.273,0,0,0-.092-1.5,4.182,4.182,0,0,0-.551-1.367,4.244,4.244,0,0,0-2.316-1.846,10.2,10.2,0,0,0-3.142-.224H202.854a4.24,4.24,0,0,0-4.264,4.081v46.551a4.3,4.3,0,0,0,1.857,3.356,4.346,4.346,0,0,0,1.816.694c.633.082,1.357,0,2.04.051h8.162l57.212.061,38.573.082,10.488.051h0l-10.488.051-38.573.092-57.212.051H204.3c-.694,0-1.357,0-2.1-.051a4.754,4.754,0,0,1-4.081-4.53V286.382a4.8,4.8,0,0,1,4.795-4.632H322.349a4.7,4.7,0,0,1,4.162,2.265,4.653,4.653,0,0,1,.592,1.5,7.526,7.526,0,0,1,.1,1.571c0,16.272-.071,29.443-.092,38.563v6.06a7.141,7.141,0,0,1-.245,2.418,4.621,4.621,0,0,1-1.02,1.724,4.469,4.469,0,0,1-2.377,1.3A3.366,3.366,0,0,1,322.461,337.289Z" transform="translate(-178.4 -27.876)"/><path class="f" d="M290.9,294.435c0,.143-5.274.265-11.773.265s-11.773-.122-11.773-.265,5.274-.265,11.773-.265S290.9,294.292,290.9,294.435Z" transform="translate(-177.002 -27.625)"/><path class="c" d="M313.6,301.545c0,.153-10.406.265-23.24.265s-23.25-.112-23.25-.265,10.406-.265,23.25-.265S313.6,301.4,313.6,301.545Z" transform="translate(-177.007 -27.481)"/><path class="c" d="M313.6,305.725c0,.143-10.406.265-23.24.265s-23.25-.122-23.25-.265,10.406-.275,23.25-.275S313.6,305.572,313.6,305.725Z" transform="translate(-177.007 -27.397)"/><path class="h" d="M308.041,326.312a2.408,2.408,0,0,0-.571-1.306,2.255,2.255,0,0,0-1.173-.765,1.836,1.836,0,0,0-1.439.245,1.938,1.938,0,0,0-.612.643,1.673,1.673,0,0,0-.53-.6,1.857,1.857,0,0,0-1.428-.326,2.316,2.316,0,0,0-1.2.7,2.387,2.387,0,0,0-.643,1.265,2.846,2.846,0,0,0,.306,1.785,4.142,4.142,0,0,0,1.367,1.357c.908.582,2.1,1.306,2.1,1.306a23.26,23.26,0,0,1,1.979-1.265,4.224,4.224,0,0,0,1.439-1.275,2.887,2.887,0,0,0,.408-1.765Z" transform="translate(-176.335 -27.019)"/><path class="f" d="M304.218,330.772h-.071s-1.2-.735-2.091-1.306a4.153,4.153,0,0,1-1.418-1.408,3.06,3.06,0,0,1-.326-1.867,2.551,2.551,0,0,1,.684-1.336,2.407,2.407,0,0,1,1.275-.735,1.979,1.979,0,0,1,1.989.816,1.928,1.928,0,0,1,2.04-.775,2.336,2.336,0,0,1,1.234.806,2.418,2.418,0,0,1,.6,1.377h0a2.958,2.958,0,0,1-.418,1.836,4.244,4.244,0,0,1-1.489,1.326c-.918.52-1.959,1.245-1.969,1.255Zm-1.591-6.468h-.306a2.2,2.2,0,0,0-1.143.663,2.234,2.234,0,0,0-.612,1.2,2.744,2.744,0,0,0,.3,1.7,3.867,3.867,0,0,0,1.326,1.306c.765.5,1.755,1.1,2.04,1.265.255-.173,1.132-.775,1.918-1.224a3.815,3.815,0,0,0,1.4-1.234,2.642,2.642,0,0,0,.388-1.683h0a2.346,2.346,0,0,0-1.642-1.959,1.755,1.755,0,0,0-1.336.224,1.8,1.8,0,0,0-.571.6l-.112.2-.1-.2a1.765,1.765,0,0,0-.5-.561,1.734,1.734,0,0,0-1.041-.306Z" transform="translate(-176.337 -27.021)"/><path class="f" d="M318.538,329.362h-5.285l-.082-.622c-.235-1.826-.439-3.448-.571-4.519h0l.6,4.509a3.987,3.987,0,0,0,.082.622h0l3.765.051h1.52Z" transform="translate(-176.109 -27.018)"/><path class="f" d="M317.016,329.446h-3.785a.082.082,0,0,1-.071-.071l-.653-5.1h-1.173c-.1,0-.173,0-.173-.082s.061-.082.173-.082H312.6s.092,0,.092.071h0l.612,4.621a1.179,1.179,0,0,0,.051.418l5.1.071c.122,0,.184,0,.184.092s-.061.071-.184.082h-1.428Z" transform="translate(-176.117 -27.021)"/><path class="f" d="M313.09,328.194h5.427c.122-.653.255-1.367.388-2.1l.214-1.092h0l-4.6-.061h4.6c-.061.347-.133.724-.2,1.1-.143.724-.275,1.438-.4,2.091h0l-3.9-.051h-1.53Z" transform="translate(-176.079 -27.004)"/><path class="f" d="M318.558,328.358h0l-5.407-.082s-.1,0-.1-.082a.081.081,0,0,1,0-.051.123.123,0,0,1,.082,0h5.315l.551-2.979-5.886-.082h-.388s-.112,0-.112-.082,0-.082.112-.082h6.519a.071.071,0,0,1,0,.061l-.214,1.143c-.082.469-.173.928-.255,1.377l-.143.745S318.6,328.358,318.558,328.358Z" transform="translate(-176.088 -27.004)"/><path class="f" d="M314.532,330.631v-.122a.51.51,0,0,0-.194-.275.5.5,0,0,0-.806.388.506.506,0,0,0,.99.143v-.133a.326.326,0,0,1,0,.133.551.551,0,0,1-.194.306.51.51,0,0,1-.52.082.541.541,0,0,1-.367-.53.551.551,0,0,1,.377-.52.541.541,0,0,1,.52.092.5.5,0,0,1,.184.306.327.327,0,0,1,.01.133Z" transform="translate(-176.071 -26.9)"/><path class="f" d="M314.013,331.264a.53.53,0,0,1-.214,0,.622.622,0,0,1-.418-.6.633.633,0,0,1,1.02-.49.653.653,0,0,1,.214.357.338.338,0,0,1,0,.143.357.357,0,0,1,0,.153.551.551,0,0,1-.214.347.632.632,0,0,1-.388.092Zm0-1.02a.366.366,0,0,0-.143,0,.421.421,0,0,0-.01.786.449.449,0,0,0,.408-.051.4.4,0,0,0,.163-.235.315.315,0,0,0,0-.082h0a.183.183,0,0,0,0-.092.408.408,0,0,0-.163-.235.418.418,0,0,0-.255-.122Z" transform="translate(-176.073 -26.901)"/><path class="f" d="M317.861,330.671v-.133a.592.592,0,0,0-.194-.275.53.53,0,0,0-.469-.071.5.5,0,0,0,0,.939.52.52,0,0,0,.469-.061.632.632,0,0,0,.2-.275q0-.122,0-.122a.326.326,0,0,1,0,.133.48.48,0,0,1-.194.306.571.571,0,0,1-.52.082.561.561,0,0,1-.367-.531.571.571,0,0,1,.377-.53.53.53,0,0,1,.52.092.49.49,0,0,1,.184.316A.327.327,0,0,1,317.861,330.671Z" transform="translate(-176.004 -26.9)"/><path class="f" d="M317.323,331.295h-.214a.64.64,0,0,1,.01-1.2.612.612,0,0,1,.6.112.6.6,0,0,1,.214.347.39.39,0,0,1,0,.153.665.665,0,0,1,0,.143.643.643,0,0,1-.224.347.612.612,0,0,1-.388.1Zm0-1.02h-.143a.449.449,0,0,0-.275.4.439.439,0,0,0,.265.4.449.449,0,0,0,.571-.286.184.184,0,0,0,0-.092h0a.644.644,0,0,1,0-.092.541.541,0,0,0-.163-.235.479.479,0,0,0-.245-.122Z" transform="translate(-176.006 -26.9)"/><path class="f" d="M320.26,324.57a1.51,1.51,0,1,1-1.5-1.52A1.51,1.51,0,0,1,320.26,324.57Z" transform="translate(-175.995 -27.042)"/><path class="d" d="M318.76,325.371h0a5.283,5.283,0,0,1,0-.765,3.878,3.878,0,0,1,.061-.786,2.837,2.837,0,0,1,0,.8,6.353,6.353,0,0,1-.051.755h-.01Z" transform="translate(-175.964 -27.026)"/><path class="d" d="M319.591,324.632a4.2,4.2,0,0,1-.8,0,3.775,3.775,0,0,1-.786-.061,2.745,2.745,0,0,1,.786,0A4.083,4.083,0,0,1,319.591,324.632Z" transform="translate(-175.979 -27.012)"/><path class="f" d="M290.044,328.005a105.992,105.992,0,0,1-10.712.265,105.844,105.844,0,0,1-10.7-.265c0-.143,4.795-.265,10.7-.265A102.683,102.683,0,0,1,290.044,328.005Z" transform="translate(-176.976 -26.947)"/><path class="f" d="M214.933,171.606s-8.162,18.761-7.723,28.953l21.149,6.366,3.611-6.866,3.061,6.866s16.323-3.989,20.771-7.978c0,0-4.326-21.934-7.7-27.259,0,0,2.1-4.428.469-4.652s-4.285.224-6.284,0-2.663.316-5.1-.061-2.224,2.724-5.213,2.04-3-1.306-6.121-2.091-4.856,1.683-6.835,1.02a30.513,30.513,0,0,0-4.315-.928,2.163,2.163,0,0,0-2.479,1.653.765.765,0,0,0,.561,1.02,3.448,3.448,0,0,1,2.153,1.918Z" transform="translate(-178.217 -30.197)"/><path class="f" d="M243.04,167.32a3.958,3.958,0,0,1-.449,2.408,4.081,4.081,0,0,1-1.551,1.9,21.3,21.3,0,0,0,1.275-2.04,19.389,19.389,0,0,0,.724-2.265Z" transform="translate(-177.533 -30.186)"/><path class="e" d="M231.407,181.344a2.339,2.339,0,0,1-.337-.357l-.877-1.02-3.061-3.622h.2l-4.081,5.1v-.194l.112.143,4,5.193h-.2l3.061-3.785a12.656,12.656,0,0,1,.877-1.02,2.439,2.439,0,0,1,.337-.388,4.077,4.077,0,0,1-.255.388l-.806,1.092-2.959,3.918-.1.143-.1-.143-4.081-5.162-.1-.143-.071-.092.071-.092,4.142-5.1.1-.133.1.133,2.959,3.764.806,1.02a4.394,4.394,0,0,1,.265.357Z" transform="translate(-177.898 -30.009)"/><path class="e" d="M246.537,178.164a4.179,4.179,0,0,1-.337-.367l-.867-1.02-3.061-3.632h.2l-4.081,5.1V178.1l.112.133,4,5.193h-.2l3.061-3.785.877-1.02a3.661,3.661,0,0,1,.337-.377,2.174,2.174,0,0,1-.255.377l-.806,1.092-2.959,3.928-.1.133-.1-.133-4.081-5.172-.1-.133-.071-.1.071-.092,4.142-5.1.1-.122.1.122,2.959,3.764.806,1.02a2.952,2.952,0,0,1,.255.337Z" transform="translate(-177.593 -30.073)"/><path class="e" d="M235.21,167.32a26.976,26.976,0,0,1,2.612,3.122h-.214l.071-.082.122-.163.255-.316.469-.6.816-1.02a4.621,4.621,0,0,1,.816-.877,4.5,4.5,0,0,1-.643,1.02l-.765,1.02q-.224.286-.459.612l-.255.316-.122.163-.061.082H237.6a28.481,28.481,0,0,1-2.387-3.275Z" transform="translate(-177.651 -30.186)"/><path class="e" d="M220.518,171.616a5.346,5.346,0,0,1-.877-.939c-.51-.6-1.2-1.438-1.949-2.377l-.173-.224h.245c-.582,1.02-1.112,1.847-1.51,2.469a5.357,5.357,0,0,1-.684.959,4.264,4.264,0,0,1,.51-1.02c.347-.653.847-1.53,1.428-2.52l.112-.184.133.173.173.214c.745.949,1.408,1.806,1.877,2.438a5.378,5.378,0,0,1,.714,1.01Z" transform="translate(-178.047 -30.177)"/><path class="e" d="M241.527,194.1a2.857,2.857,0,0,1-.337-.367l-.877-1.02-3.01-3.632h.194c-1.194,1.5-2.6,3.244-4.081,5.1V194l.112.133,4,5.193h-.214c1.234-1.54,2.265-2.826,3.061-3.785l.877-1.02a2.624,2.624,0,0,1,.337-.377,3.429,3.429,0,0,1-.255.377l-.806,1.1-2.959,3.918-.1.133-.112-.133c-1.173-1.52-2.561-3.285-4.081-5.172l-.1-.133-.071-.092.071-.092c1.51-1.867,2.928-3.6,4.142-5.1l.1-.122.092.122,2.969,3.765.806,1.02a2.947,2.947,0,0,1,.245.367Z" transform="translate(-177.693 -29.752)"/><path class="e" d="M223.787,198.285a2.181,2.181,0,0,1-.337-.367l-.877-1.02-3.061-3.632h.2l-4.081,5.1v-.184l.112.133,4,5.193h-.2l3.061-3.785.877-1.02a2.439,2.439,0,0,1,.337-.388,4.071,4.071,0,0,1-.255.388l-.806,1.092-2.959,3.918-.1.133-.1-.133-4.081-5.172-.1-.133-.071-.092.071-.092,4.142-5.1.1-.122.1.122,2.959,3.765.806,1.02a4.394,4.394,0,0,1,.265.377Z" transform="translate(-178.052 -29.668)"/><path class="e" d="M208.69,189.49a2.407,2.407,0,0,1,.428-.4l1.214-1.02c1.02-.816,2.489-1.928,4.081-3.142l.592-.449v.194c-.877-1.622-1.653-3.061-2.193-4.081A11.489,11.489,0,0,1,212,178.88a12.479,12.479,0,0,1,1.02,1.612c.592,1.02,1.4,2.448,2.285,4.081l.061.122-.1.071-.592.449c-1.612,1.214-3.061,2.306-4.152,3.061-.541.388-1.02.694-1.275.9a2.142,2.142,0,0,1-.551.316Z" transform="translate(-178.186 -29.953)"/><path class="e" d="M253.867,193.594a2.111,2.111,0,0,1-.449-.357c-.286-.235-.673-.592-1.163-1.02-.959-.888-2.285-2.122-3.734-3.509l-.061-.061v-.092h0c.663-1.887,1.275-3.591,1.734-4.815.224-.622.418-1.112.551-1.459a2.04,2.04,0,0,1,.245-.51,2.172,2.172,0,0,1-.133.551c-.1.357-.265.857-.469,1.479-.4,1.255-1.02,2.969-1.642,4.856h0V188.5c1.449,1.377,2.744,2.642,3.673,3.571.459.459.837.837,1.081,1.1A2.133,2.133,0,0,1,253.867,193.594Z" transform="translate(-177.383 -29.894)"/><path class="f" d="M248.087,171.437a1.154,1.154,0,0,1-.326.092c-.214,0-.531.122-.959.173a19.709,19.709,0,0,1-3.571.153c-1.52-.051-3.305-.255-5.285-.51a46.522,46.522,0,0,0-6.437-.49c-2.3,0-4.468.255-6.458.449s-3.775.357-5.285.4a28.43,28.43,0,0,1-3.581-.082,5.424,5.424,0,0,1-.959-.122,1.479,1.479,0,0,1-.337-.061h.337c.224,0,.551.051.969.061a34.407,34.407,0,0,0,3.56,0c1.5-.071,3.285-.245,5.264-.459s4.173-.449,6.488-.479a45.174,45.174,0,0,1,6.478.52c1.969.275,3.754.5,5.254.571a21.173,21.173,0,0,0,3.55-.061C247.648,171.5,248.087,171.407,248.087,171.437Z" transform="translate(-178.061 -30.121)"/><path class="f" d="M217.27,186.709a2.154,2.154,0,0,1,0-.612c0-.388.082-.949.163-1.653a54.869,54.869,0,0,1,.939-5.407c.459-2.04,1.02-3.958,1.438-5.295.224-.663.408-1.194.551-1.561a2.194,2.194,0,0,1,.255-.561,2.243,2.243,0,0,1-.143.592c-.122.449-.275,1.02-.459,1.6-.388,1.347-.888,3.2-1.357,5.295s-.8,3.989-1.02,5.366c-.1.643-.184,1.183-.255,1.643a2.5,2.5,0,0,1-.112.592Z" transform="translate(-178.014 -30.099)"/><path class="f" d="M220.23,181.036a38.834,38.834,0,0,1,.653-4.723,37.533,37.533,0,0,1,.949-4.672,38.573,38.573,0,0,1-.653,4.723,37.532,37.532,0,0,1-.949,4.673Z" transform="translate(-177.953 -30.099)"/><path class="g" d="M244.9,194.922a6.028,6.028,0,0,1-.408-.857c-.245-.561-.561-1.377-.928-2.4a59.1,59.1,0,0,1-3.377-16.6c-.061-1.081-.082-1.959-.071-2.571a5.661,5.661,0,0,1,0-.939,5.446,5.446,0,0,1,.082.939c0,.6.092,1.479.173,2.561a68.348,68.348,0,0,0,1.173,8.366,70.282,70.282,0,0,0,2.183,8.162c.347,1.02.632,1.857.847,2.428a6.116,6.116,0,0,1,.327.908Z" transform="translate(-177.552 -30.1)"/><path class="g" d="M244.193,180.267a4.621,4.621,0,0,1-.469-1.183c-.245-.755-.561-1.8-.857-2.959s-.531-2.234-.673-3.01a5.1,5.1,0,0,1-.163-1.265,5.265,5.265,0,0,1,.377,1.224c.224.877.469,1.877.755,2.979s.541,2.091.765,2.969A6.843,6.843,0,0,1,244.193,180.267Z" transform="translate(-177.513 -30.095)"/><path class="g" d="M229.562,204.2h-.245a4.022,4.022,0,0,1-.684-.112,21.509,21.509,0,0,1-2.448-.684,70.061,70.061,0,0,1-7.672-3.418,32.369,32.369,0,0,0-7.825-2.857,17.759,17.759,0,0,0-2.51-.306c-.592,0-.928,0-.928-.051h.939a14.017,14.017,0,0,1,2.54.224,29.882,29.882,0,0,1,7.917,2.785c2.948,1.438,5.591,2.775,7.611,3.489a23.942,23.942,0,0,0,2.408.765,7.143,7.143,0,0,1,.9.163Z" transform="translate(-178.215 -29.591)"/><path class="g" d="M254.685,195.51a6.235,6.235,0,0,1-.745.5c-.479.306-1.2.735-2.1,1.234a67.782,67.782,0,0,1-7.254,3.479,66.418,66.418,0,0,1-7.631,2.571c-1.02.265-1.806.469-2.367.581a4.592,4.592,0,0,1-.888.153,5.768,5.768,0,0,1,.857-.265c.551-.153,1.357-.377,2.336-.673,1.969-.582,4.672-1.469,7.57-2.653s5.458-2.428,7.274-3.377l2.142-1.153A4.7,4.7,0,0,1,254.685,195.51Z" transform="translate(-177.681 -29.617)"/><path class="f" d="M244.825,169.13a3.061,3.061,0,0,1-.867,1.5,3.163,3.163,0,0,1-1.4,1.02c-.051-.071.561-.541,1.173-1.234A12.532,12.532,0,0,1,244.825,169.13Z" transform="translate(-177.503 -30.15)"/><path class="f" d="M222.181,167.59c.082,0,.143.888.52,1.908s.9,1.734.826,1.8a3.468,3.468,0,0,1-1.112-1.694,3.4,3.4,0,0,1-.235-2.01Z" transform="translate(-177.915 -30.181)"/><rect class="f" width="31.605" height="21.108" rx="2.49" transform="translate(40.249 276.755) rotate(-0.1)"/><path class="f" d="M241.168,308.273a2.039,2.039,0,0,1,0-.408l.061-1.153a24.627,24.627,0,0,0,0-4.224,9.477,9.477,0,0,0-2.418-5.58,6.213,6.213,0,0,0-3.122-1.734,17.558,17.558,0,0,0-3.928-.327c-2.693,0-5.356.551-7.141,2.04a6.886,6.886,0,0,0-1.949,2.612,10.027,10.027,0,0,0-.745,2.785,20.994,20.994,0,0,0,0,4.213c0,.459.071.847.092,1.153a1.693,1.693,0,0,1,0,.4,1.8,1.8,0,0,1-.082-.4c0-.255-.1-.643-.163-1.143a18.6,18.6,0,0,1-.122-4.254,9.9,9.9,0,0,1,.714-2.877,7.142,7.142,0,0,1,2.04-2.754,8.8,8.8,0,0,1,3.377-1.663,16.077,16.077,0,0,1,4-.479,17.34,17.34,0,0,1,4.009.347,6.448,6.448,0,0,1,3.285,1.847,9.681,9.681,0,0,1,2.438,5.795,21.942,21.942,0,0,1-.082,4.254,6.532,6.532,0,0,1-.133,1.153A1.706,1.706,0,0,1,241.168,308.273Z" transform="translate(-177.926 -27.619)"/><rect class="g" width="31.605" height="21.108" rx="2.49" transform="translate(36.26 276.65) rotate(-0.1)"/><path class="f" d="M243.408,325.168a3.386,3.386,0,0,0,1.02-.245,2.561,2.561,0,0,0,.959-.745,2.52,2.52,0,0,0,.53-1.541c0-2.581-.051-6.274-.082-10.824v-5.489a2.367,2.367,0,0,0-.877-1.591,2.51,2.51,0,0,0-1.816-.52h-26.2a2.336,2.336,0,0,0-2.04,1.132,2.2,2.2,0,0,0-.347,1.122V322.25a3.264,3.264,0,0,0,.1,1.02,2.519,2.519,0,0,0,.52.888,2.367,2.367,0,0,0,1.826.775h26.178a.776.776,0,0,1,.265,0H239.48l-10.834.082h-11.64a2.734,2.734,0,0,1-2.663-1.887,3.55,3.55,0,0,1-.133-1.163V306.172a2.581,2.581,0,0,1,.4-1.306,2.755,2.755,0,0,1,2.326-1.316h26.2a2.857,2.857,0,0,1,2.04.6,2.673,2.673,0,0,1,1.02,1.8v16.343a2.632,2.632,0,0,1-.592,1.612,2.765,2.765,0,0,1-1.02.745,2.04,2.04,0,0,1-1.173.52Z" transform="translate(-178.075 -27.436)"/><path class="f" d="M245.535,314.505c0,.153-6.958.265-15.527.265s-15.527-.112-15.527-.265,6.947-.265,15.527-.265S245.535,314.362,245.535,314.505Z" transform="translate(-178.069 -27.22)"/><path class="c" d="M229.785,317.159a11.814,11.814,0,0,1,0-4.979,11.815,11.815,0,0,1,0,4.979Z" transform="translate(-177.766 -27.261)"/><path class="h" d="M206.55,253.951s7.937-21.679,9.9-22.975,10.1-3.591,10.1-3.591l6.06,20.016,7.223-20.3s7.641,2.306,9.835,5.733,7.825,21.189,7.825,21.189l-12.069,4.6,1.54,7.294-30.442-.4,1.836-6.254Z" transform="translate(-178.23 -28.979)"/><g class="j" transform="translate(38.726 200.447)"><path d="M222.871,240.765a21.332,21.332,0,0,1-3.061-11.385l-3.061,1.163a23.393,23.393,0,0,0,3.571,11.477,3.683,3.683,0,0,0,1.265,1.357,1.377,1.377,0,0,0,1.7-.245C223.8,242.459,223.32,241.5,222.871,240.765Z" transform="translate(-216.75 -229.38)"/></g><g class="j" transform="translate(45.602 222.906)"><path d="M226.561,252.114a1.336,1.336,0,0,0-1.02-.7h0a1.816,1.816,0,1,0,0,3.6,1.438,1.438,0,0,0,.888-.49,1.938,1.938,0,0,0,.347-.908A2.418,2.418,0,0,0,226.561,252.114Z" transform="translate(-223.489 -251.395)"/></g><g class="j" transform="translate(53.786 225.605)"><path d="M245.2,259.427a12.405,12.405,0,0,1-4.081,3.061,5.774,5.774,0,0,1-5.1,0c-.7-.388-1.4-1.02-2.193-.908-.582.071-1.153.51-1.7.306a1.02,1.02,0,0,1-.6-.775,1.673,1.673,0,0,1,.888-1.653,3.285,3.285,0,0,1,1.949-.275c.663.082,1.306.275,1.969.367,2.693.388,5.917-1.714,7.825-3.856l1.418-1.653-.7,3.948Z" transform="translate(-231.511 -254.04)"/></g><path class="f" d="M246.8,247.86a46.144,46.144,0,0,1-.939,5.2,47.606,47.606,0,0,1-1.214,5.1,51.892,51.892,0,0,1,.939-5.2,49.845,49.845,0,0,1,1.214-5.1Z" transform="translate(-177.46 -28.56)"/><path class="d" d="M246.57,230.59a1.725,1.725,0,0,1-.112.52,6.8,6.8,0,0,1-.551,1.347,8.366,8.366,0,0,1-3.377,3.367,8.223,8.223,0,0,1-4.672.867,7.142,7.142,0,0,1-1.428-.3,1.6,1.6,0,0,1-.49-.214,9.636,9.636,0,0,0,1.928.316,8.631,8.631,0,0,0,4.53-.928,8.488,8.488,0,0,0,3.326-3.214C246.336,231.314,246.519,230.58,246.57,230.59Z" transform="translate(-177.636 -28.909)"/><path class="d" d="M248.91,232.58a1.938,1.938,0,0,1-.245.582,8.752,8.752,0,0,1-.939,1.449,10.477,10.477,0,0,1-10.2,3.836,9.806,9.806,0,0,1-1.663-.459,2.122,2.122,0,0,1-.571-.275,23.1,23.1,0,0,0,2.265.541,10.8,10.8,0,0,0,10-3.765,18.434,18.434,0,0,0,1.357-1.908Z" transform="translate(-177.649 -28.868)"/><path class="d" d="M231.278,244.77a2.765,2.765,0,0,1-.633.265c-.408.143-1.02.377-1.714.684a30.716,30.716,0,0,0-5.336,2.948,30.4,30.4,0,0,0-4.642,3.948c-.541.561-.969,1.02-1.255,1.367a4.383,4.383,0,0,1-.469.49,2.9,2.9,0,0,1,.377-.561c.265-.357.673-.847,1.194-1.428a26.525,26.525,0,0,1,4.632-4.081,27.1,27.1,0,0,1,5.417-2.9,17.413,17.413,0,0,1,1.765-.6,3.061,3.061,0,0,1,.663-.133Z" transform="translate(-178.014 -28.622)"/><path class="d" d="M230.949,242.56a2.437,2.437,0,0,1-.622.224c-.408.122-1.02.306-1.714.551a48.2,48.2,0,0,0-5.509,2.224,49.8,49.8,0,0,0-5.183,2.908c-.633.408-1.153.755-1.5,1.02a3.386,3.386,0,0,1-.571.347,3.061,3.061,0,0,1,.5-.439c.337-.275.837-.643,1.459-1.071a37.484,37.484,0,0,1,5.172-3,38.869,38.869,0,0,1,5.57-2.163c.735-.214,1.326-.377,1.745-.459a2.6,2.6,0,0,1,.653-.143Z" transform="translate(-178.042 -28.667)"/><path class="d" d="M252.117,254.853a29.85,29.85,0,0,0-2.765-2.163,27.358,27.358,0,0,0-3.163-1.53,3.06,3.06,0,0,1,1.02.214,10.11,10.11,0,0,1,2.3,1.02,10.408,10.408,0,0,1,1.969,1.592,3.449,3.449,0,0,1,.643.867Z" transform="translate(-177.429 -28.493)"/><path class="d" d="M210.9,254.952a13.753,13.753,0,0,1-1.489-3.224,13.488,13.488,0,0,1-.857-3.448c.082,0,.479,1.52,1.122,3.356S210.978,254.921,210.9,254.952Z" transform="translate(-178.189 -28.552)"/><path class="d" d="M223.409,264.948a14.588,14.588,0,0,1-3.142-1.469,13.479,13.479,0,0,1-2.877-1.949c0-.061,1.357.765,3.061,1.7A25.715,25.715,0,0,1,223.409,264.948Z" transform="translate(-178.011 -28.284)"/><path class="f" d="M231.146,251.459a5.685,5.685,0,0,1-.357-.888c-.224-.571-.52-1.418-.877-2.459-.724-2.04-1.694-4.979-2.714-8.162s-1.9-6.121-2.52-8.253c-.306-1.02-.541-1.918-.7-2.51a7.713,7.713,0,0,1-.224-.939,5.162,5.162,0,0,1,.326.908c.2.633.48,1.469.8,2.489.684,2.142,1.591,5.03,2.6,8.213s1.938,6.07,2.622,8.162c.326,1.02.592,1.857.8,2.489a6.019,6.019,0,0,1,.255.949Z" transform="translate(-177.882 -28.956)"/><path class="f" d="M233.541,251.083a3.143,3.143,0,0,1-1.285.143,2.9,2.9,0,0,1-1.3-.133,5.7,5.7,0,0,1,2.581,0Z" transform="translate(-177.737 -28.498)"/><path class="f" d="M241.15,227.711c.1-.439-1.479,5.04-3.6,11.742s-3.9,12.12-3.969,12.1,1.581-5.478,3.7-12.242S241.15,227.711,241.15,227.711Z" transform="translate(-177.684 -28.967)"/><path class="f" d="M218.144,258.852c-.082,0-.755-2.591-1.51-5.825a58.958,58.958,0,0,1-1.234-5.9c.071,0,.755,2.591,1.51,5.836S218.216,258.842,218.144,258.852Z" transform="translate(-178.051 -28.575)"/><path d="M252.406,75.35l-2.04,6.172h-1.53l-1.357-4.183-1.408,4.183h-1.53L242.5,75.35h1.53l1.387,4.336,1.459-4.336h1.316l1.408,4.366,1.438-4.366Z" transform="translate(-177.504 -32.043)"/><path d="M253,75.35h1.428v6.172H253Z" transform="translate(-177.292 -32.043)"/><path d="M255.34,80.911l.479-1.02a3.642,3.642,0,0,0,2.04.643c.847,0,1.183-.286,1.183-.663,0-1.153-3.581-.357-3.581-2.652,0-1.02.847-1.918,2.6-1.918a4.2,4.2,0,0,1,2.142.541l-.449,1.092a3.479,3.479,0,0,0-1.7-.49c-.847,0-1.173.316-1.173.7,0,1.143,3.581.357,3.581,2.622,0,1.02-.847,1.908-2.612,1.908a4.336,4.336,0,0,1-2.51-.765Z" transform="translate(-177.244 -32.044)"/><path d="M266.972,75.35v6.172h-1.428v-2.53h-2.8v2.53H261.32V75.35h1.428v2.428h2.8V75.35Z" transform="translate(-177.124 -32.043)"/><path d="M269.343,75.35h.694l-1.122,5.6h3.458l-.112.571H268.18Z" transform="translate(-176.985 -32.043)"/><path d="M274.425,75.35h.612l-1.224,6.172h-.653Z" transform="translate(-176.885 -32.043)"/><path d="M275.37,80.789l.316-.51a2.846,2.846,0,0,0,1.979.735c1.081,0,1.816-.439,1.816-1.214,0-1.418-3.2-.7-3.2-2.642,0-1.163,1.02-1.857,2.469-1.857a3.336,3.336,0,0,1,1.908.53l-.275.531a2.856,2.856,0,0,0-1.673-.51c-1.071,0-1.8.479-1.8,1.245,0,1.438,3.214.745,3.214,2.622,0,1.183-1.02,1.857-2.52,1.857a3.254,3.254,0,0,1-2.234-.786Z" transform="translate(-176.84 -32.044)"/><path d="M283.333,75.911H281.16l.112-.561h5l-.122.561h-2.173l-1.112,5.611h-.643Z" transform="translate(-176.723 -32.043)"/><path class="f" d="M324,74c0,.092-2.979.184-6.652.214a65.032,65.032,0,0,1-6.662-.1,64.606,64.606,0,0,1,6.652-.214A61.7,61.7,0,0,1,324,74Z" transform="translate(-176.127 -32.072)"/><path class="f" d="M324.023,77.322c0,.092-2.979.184-6.652.214a64.763,64.763,0,0,1-6.652-.1,64.607,64.607,0,0,1,6.652-.214C321.044,77.19,324.023,77.23,324.023,77.322Z" transform="translate(-176.126 -32.005)"/><path class="f" d="M324.053,80.663c0,.082-2.979.184-6.652.214a66.378,66.378,0,0,1-6.652-.112c0-.082,2.969-.184,6.652-.214A66.372,66.372,0,0,1,324.053,80.663Z" transform="translate(-176.126 -31.939)"/></g><g transform="translate(45.005 95.841)"><path class="h" d="M100.924,448.353l-4.56,34.013-18.4-2.1,4.509-34.085Z" transform="translate(-44.181 -87.497)"/><path class="f" d="M87.25,480.027c-.153,0,.816-7.468,2.173-16.639s2.561-16.578,2.714-16.558-.816,7.468-2.163,16.639S87.4,480.058,87.25,480.027Z" transform="translate(-43.993 -87.484)"/><path class="f" d="M96.67,479.393,78.276,477.23l-.316,2.408,18.4,2.1Z" transform="translate(-44.181 -86.87)"/><path class="f" d="M79.37,468.994a2.713,2.713,0,0,1,.571-.673,12.812,12.812,0,0,1,1.877-1.52,12.487,12.487,0,0,1,3.3-1.581,9.855,9.855,0,0,1,11.13,3.7,8.417,8.417,0,0,1,1.02,2.173,2.347,2.347,0,0,1,.184.877,20.076,20.076,0,0,0-1.571-2.826,9.875,9.875,0,0,0-6.478-3.775,11.4,11.4,0,0,0-7.345,1.755C80.329,468.168,79.441,469.086,79.37,468.994Z" transform="translate(-44.152 -87.122)"/><g class="j" transform="translate(36.003 372.905)"><path d="M99.177,461.824l-.541,3.01-18.5-1.683.4-3.03Z" transform="translate(-80.14 -460.12)"/></g><path class="h" d="M158.638,450.557l-2.1,34.258-18.506-.765,2.03-34.329Z" transform="translate(-42.968 -87.425)"/><path class="f" d="M147.291,483.142c-.163,0,.265-7.519.949-16.751s1.367-16.731,1.52-16.721-.275,7.519-.959,16.762S147.444,483.153,147.291,483.142Z" transform="translate(-42.781 -87.426)"/><path class="f" d="M156.679,481.816l-18.506-.826-.143,2.428,18.506.765Z" transform="translate(-42.968 -86.794)"/><path class="f" d="M138.67,472.707a3.8,3.8,0,0,1,.52-.714,12.68,12.68,0,0,1,1.765-1.653,12.322,12.322,0,0,1,3.112-1.806,9.61,9.61,0,0,1,4.366-.714,9.794,9.794,0,0,1,7.009,3.6,8.447,8.447,0,0,1,1.214,2.04,2.561,2.561,0,0,1,.245.857,19.2,19.2,0,0,0-1.765-2.693,9.9,9.9,0,0,0-6.743-3.305,11.324,11.324,0,0,0-7.2,2.285C139.558,471.82,138.741,472.779,138.67,472.707Z" transform="translate(-42.955 -87.06)"/><g class="j" transform="translate(96.062 376.618)"><path d="M157.9,464.117l-.326,3.04-18.567-.347.184-3.05Z" transform="translate(-139.01 -463.76)"/></g><path class="f" d="M90.615,294.23c-.53,0-2.214,22.6-1.775,30.055s.857,65.353.857,65.353-3.918,2.632-3.918,6.121-7.019,67.547-7.019,67.547l21.118,3.509s19.231-69.74,19.669-79.381,14.028-75.882,14.028-75.882,4.387,62.721,4.387,72.372-.184,83.9-.184,83.9,15.64,2.214,23.158.418c0,0,6.417-55.815,6.417-74.239v-29.81S174.811,329.508,178.31,312s0-34.268,0-34.268l-63.15-8.274Z" transform="translate(-44.164 -91.065)"/><path class="g" d="M106.573,392.2a26.371,26.371,0,0,0-8.039-.8,26.526,26.526,0,0,0-7.774,2.2,7.142,7.142,0,0,1,2.04-1.245,17.456,17.456,0,0,1,11.477-1.02,7.376,7.376,0,0,1,2.3.857Z" transform="translate(-43.922 -88.615)"/><path class="g" d="M107.776,386.921a33.1,33.1,0,0,1-5.968.061,33.1,33.1,0,0,1-5.958-.469,34.251,34.251,0,0,1,5.968-.061,34.247,34.247,0,0,1,5.958.469Z" transform="translate(-43.819 -88.705)"/><path class="g" d="M150.033,400.106a5.315,5.315,0,0,1-.622-.52,17.334,17.334,0,0,1-1.479-1.612,23.464,23.464,0,0,1-5.1-13.354,16.493,16.493,0,0,1,0-2.193,2.754,2.754,0,0,1,.112-.8c.092,0,.061,1.143.245,2.969a26.525,26.525,0,0,0,5.019,13.14A24.526,24.526,0,0,1,150.033,400.106Z" transform="translate(-42.872 -88.8)"/><path class="g" d="M133.644,308.24a3.387,3.387,0,0,1-.541.837l-.816.816c-.357.286-.765.612-1.224.949a27.107,27.107,0,0,1-8.1,3.56,21.546,21.546,0,0,1-8.814.735,3.414,3.414,0,0,1-.806-.133l-.7-.2a4.633,4.633,0,0,1-1.081-.408,3.46,3.46,0,0,1-.857-.49,19.517,19.517,0,0,0,3.5.867,23.188,23.188,0,0,0,8.621-.877,30.34,30.34,0,0,0,8.039-3.367c.459-.306.877-.6,1.234-.857l.867-.735A3.674,3.674,0,0,1,133.644,308.24Z" transform="translate(-43.52 -90.282)"/><path class="k" d="M208.31,136.755a20.312,20.312,0,0,1,1.969-8.733c2.132-4.254,8.508-11.385,8.508-11.385s8.8-6.835,9.722-6.386,1.214,1.52,0,2.581-5.927,6.539-5.927,6.539,1.979.755,1.979,2.122a3.591,3.591,0,0,1-.459,2.04s1.826.888,2.275,1.949a5.519,5.519,0,0,1,.459,1.979,1.551,1.551,0,0,1,1.214,1.51,8.16,8.16,0,0,1-.153,2.581s-3.336,3.805-4.7,4.254-3.193,1.02-3.193,1.02l-1.194,1.592V142.8Z" transform="translate(-41.549 -94.28)"/><path class="g" d="M76.823,169.28S45,225.472,44.85,234.287c-.235,15.67,44.266,28.31,44.266,28.31l6.274-17.884L72.7,229l16.507-35.829Z" transform="translate(-44.849 -93.088)"/><path class="g" d="M76.193,169.573a29.208,29.208,0,0,1,14.283-5.887c8.672-1.02,24.158-1.316,24.158-1.316s42.022-9.182,45.164-7.356,7.356,13.13,8.162,18.363-3.56,55.253-3.56,55.253,18.792,58.151,17.486,60.028c-.643.888-23.342,8.876-46.266,10.641l-1.275-17.007-2.7,15.833c-21.312,1.591-45.5,2.377-45.5,2.377s16.6-57.661,16.078-59.242S73.958,175.194,76.193,169.573Z" transform="translate(-44.219 -93.38)"/><path class="g" d="M158.16,155.384s15.446,8.723,17.272,8.519,3.642-3.244,6.07-.816l13.569-2.428L208.639,136a43.429,43.429,0,0,1,13.569,8.3s-7.5,25.709-12.15,29.586-22.546,17.2-47.531,17.4l-3.061-20.5Z" transform="translate(-42.561 -93.759)"/><path class="f" d="M174,185.031c-.082-.051.663-1.132,1.53-3.061a24.281,24.281,0,0,0,1.234-3.458,26.526,26.526,0,0,0,.755-4.428,25.9,25.9,0,0,0-.092-4.489,23.619,23.619,0,0,0-.7-3.611c-.561-2.04-1.143-3.2-1.02-3.244a3.458,3.458,0,0,1,.469.8,15.637,15.637,0,0,1,.949,2.336,22.057,22.057,0,0,1,.826,3.662,24.074,24.074,0,0,1,.133,4.591,24.585,24.585,0,0,1-.816,4.519,21.1,21.1,0,0,1-1.367,3.489,14.821,14.821,0,0,1-1.285,2.163A8.193,8.193,0,0,1,174,185.031Z" transform="translate(-42.242 -93.22)"/><path class="f" d="M199.946,165.484a13.65,13.65,0,0,1-5.866-5.264,34.083,34.083,0,0,1,2.9,2.663,34.344,34.344,0,0,1,2.969,2.6Z" transform="translate(-41.836 -93.27)"/><path class="k" d="M88.61,260.05s.633,2.3,4.295-.286c0,0,5.1-1.02,7.733-3.54s3.061-4.081,4.9-4.193,7.141-.877,7.254-.826,1.449-3.01-.214-3.53-9.039.163-9.039.163l-2.153.133-.367-2.948.418-2.673s-4.509,1.724-4.438,2.959c0,0-3.2-.939-3.632,1.194Z" transform="translate(-43.966 -91.612)"/><path class="f" d="M91.289,213.719a5.55,5.55,0,0,1-.581-1.081c-.337-.7-.816-1.745-1.377-3.061-1.122-2.581-2.591-6.193-4.081-10.2s-2.622-7.774-3.4-10.477c-.388-1.357-.684-2.459-.867-3.224a5.1,5.1,0,0,1-.235-1.2,6.3,6.3,0,0,1,.439,1.143l1.02,3.173c.857,2.673,2.04,6.366,3.53,10.406s2.857,7.662,3.887,10.273l1.224,3.061a4.785,4.785,0,0,1,.439,1.194Z" transform="translate(-44.124 -92.781)"/><path class="f" d="M142.567,241.8a7.672,7.672,0,0,1-.745,1.285c-.5.816-1.285,1.949-2.316,3.316a58.958,58.958,0,0,1-9.263,9.59,59.906,59.906,0,0,1-11.222,7.254c-1.54.745-2.806,1.306-3.7,1.642a8.942,8.942,0,0,1-1.4.48,8.292,8.292,0,0,1,1.316-.673c.867-.388,2.112-1.02,3.611-1.785a65.293,65.293,0,0,0,20.332-16.741c1.02-1.326,1.9-2.418,2.448-3.193a8.365,8.365,0,0,1,.939-1.173Z" transform="translate(-43.455 -91.623)"/><path class="f" d="M73.725,227.78c0,.153-2.408.633-5.244,1.7s-4.979,2.306-5.1,2.173a14.9,14.9,0,0,1,4.917-2.632,14.956,14.956,0,0,1,5.427-1.245Z" transform="translate(-44.475 -91.906)"/><g class="j" transform="translate(33.969 86.374)"><path d="M85.567,199.633c-3.448-1.418-6.529-5.58-7.233-9.243s.755-7.437,1.275-11.13a161.1,161.1,0,0,0,5.958,20.4" transform="translate(-78.145 -179.26)"/></g><g class="j" transform="translate(73.669 160.96)"><path d="M117.06,268.448a21.036,21.036,0,0,0,27.484-16.078C136.148,258.032,126.283,264.235,117.06,268.448Z" transform="translate(-117.06 -252.37)"/></g><path class="f" d="M165.583,166.43a4.508,4.508,0,0,1,.275,1.092c.153.714.316,1.745.49,3.061a67.566,67.566,0,0,1-.469,20.139c-.224,1.275-.439,2.3-.622,3a4.143,4.143,0,0,1-.326,1.02c-.082,0,.224-1.581.582-4.081a84.422,84.422,0,0,0,.459-20.037C165.726,168.032,165.5,166.45,165.583,166.43Z" transform="translate(-42.425 -93.145)"/><g class="j" transform="translate(56.479 55.442)"><path d="M149.179,148.94,100.21,224.434c11.957,6,27.035,8.988,38.339,1.826,3.132,3.856,9.845,2.459,12.9-1.479s3.387-9.263,3.428-14.283C155.086,189.89,152.107,169.405,149.179,148.94Z" transform="translate(-100.21 -148.94)"/></g><path class="f" d="M129.694,96.579C124.43,95.722,119,98,115.085,101.609s-6.55,8.417-8.651,13.324c-4.081,9.549-6.478,19.73-8.835,29.851-3.509,14.915-6.978,29.912-7.906,45.2s3.642,24.311,10.2,38.135l23.311-3.234v-4.417l3.152,4.417,9.049-1.4s2.714-23.668,2.714-23.6,4.315,22.546,4.315,22.546l7.549-.7c7.5-29.739-1.02-49.316,3.275-79.687,1.02-7.223,2.622-14.415,2.6-21.71s-1.918-14.925-6.947-20.2-13.711-7.447-19.894-3.571" transform="translate(-43.946 -94.595)"/><path class="g" d="M134.6,223.468a1.326,1.326,0,0,1-.082-.337,7.393,7.393,0,0,0-.194-1.02l-.694-3.887c-.571-3.377-1.367-8.274-2.04-14.354a157.574,157.574,0,0,1-1.183-21.5,121.923,121.923,0,0,1,.949-12.691,105.456,105.456,0,0,1,2.755-13.385c2.571-9.008,6.172-17.211,7.917-25.107a50.05,50.05,0,0,0,1.387-11.334,31.83,31.83,0,0,0-1.489-9.794,26.9,26.9,0,0,0-3.724-7.284,22.158,22.158,0,0,0-4.305-4.438,20.874,20.874,0,0,0-3.326-2.04l-.928-.418a1.519,1.519,0,0,1-.306-.163l.326.112.959.377a18.365,18.365,0,0,1,3.4,2.04,22.026,22.026,0,0,1,4.417,4.428,26.638,26.638,0,0,1,3.846,7.335,31.627,31.627,0,0,1,1.571,9.916,50.286,50.286,0,0,1-1.347,11.447c-1.734,7.957-5.325,16.18-7.886,25.137a106.16,106.16,0,0,0-2.744,13.313,120.663,120.663,0,0,0-1.02,12.63,163.871,163.871,0,0,0,1.02,21.424c.673,6.121,1.408,10.977,1.918,14.364.255,1.673.449,2.979.592,3.9.061.428.112.765.143,1.02A1.479,1.479,0,0,1,134.6,223.468Z" transform="translate(-43.143 -94.573)"/><path class="g" d="M102.384,207.88a.888.888,0,0,1,0-.286c0-.214-.061-.49-.1-.826l-.337-3.214c-.071-.7-.143-1.479-.224-2.326s-.112-1.775-.173-2.765c-.1-1.989-.286-4.254-.3-6.764,0-1.255,0-2.571-.071-3.938s.051-2.785.071-4.264c0-2.948.235-6.121.428-9.406a201.352,201.352,0,0,1,2.826-21.424,201.615,201.615,0,0,1,5.315-20.9q1.53-4.729,3.061-8.9c.53-1.377,1.02-2.724,1.52-3.989l1.53-3.632c.939-2.326,1.949-4.356,2.775-6.121.428-.908.816-1.745,1.194-2.51l1.02-2.04c.643-1.214,1.143-2.173,1.51-2.857l.4-.735q.133-.265.153-.245a1.447,1.447,0,0,1-.1.265c-.092.194-.214.449-.357.765-.347.694-.816,1.663-1.418,2.9-.306.633-.653,1.326-1.02,2.04s-.735,1.612-1.143,2.52c-.806,1.816-1.8,3.856-2.7,6.193-.479,1.153-.969,2.367-1.489,3.632s-1.02,2.612-1.489,3.989c-1.071,2.744-2.04,5.744-3.061,8.886a207.831,207.831,0,0,0-5.264,20.863,208.639,208.639,0,0,0-2.857,21.322c-.2,3.3-.449,6.437-.479,9.376,0,1.469-.1,2.9-.092,4.254s0,2.683,0,3.928c0,2.51.143,4.764.214,6.754,0,1.02.082,1.918.122,2.775s.133,1.612.184,2.316c.1,1.367.184,2.448.235,3.224v.837A1.021,1.021,0,0,1,102.384,207.88Z" transform="translate(-43.712 -94.471)"/><path class="g" d="M115.14,225.606a.659.659,0,0,0-.1-.275,5.3,5.3,0,0,1-.265-.847c-.245-.775-.571-1.857-1.02-3.234-.2-.7-.439-1.489-.694-2.346s-.449-1.806-.7-2.826c-.459-2.04-1.122-4.326-1.551-6.917-.235-1.3-.49-2.653-.755-4.081s-.418-2.9-.643-4.428-.479-3.061-.582-4.754-.286-3.326-.428-5.1a163.334,163.334,0,0,1,.163-22.607,178.207,178.207,0,0,1,3.377-22.362c.4-1.694.786-3.336,1.153-4.948s.837-3.132,1.234-4.621c.775-3,1.673-5.733,2.469-8.243s1.632-4.723,2.316-6.7,1.357-3.642,1.908-5l1.275-3.132.347-.806a1.562,1.562,0,0,1,.133-.275,1.214,1.214,0,0,1-.082.3l-.3.826c-.286.755-.684,1.816-1.183,3.163s-1.173,3.061-1.826,5.03-1.5,4.193-2.234,6.723-1.643,5.244-2.4,8.233c-.388,1.49-.847,3.061-1.2,4.621l-1.132,4.948a183.422,183.422,0,0,0-3.326,22.291,167.587,167.587,0,0,0-.214,22.536c.143,1.724.275,3.407.408,5.05s.388,3.2.561,4.744.337,3.01.612,4.417.49,2.755.714,4.081c.408,2.591,1.02,4.887,1.469,6.927.245,1.02.428,1.959.663,2.826s.449,1.642.653,2.357l.888,3.254c.082.357.153.633.214.857A1.306,1.306,0,0,1,115.14,225.606Z" transform="translate(-43.572 -94.242)"/><path class="g" d="M147.448,211.592a2.228,2.228,0,0,1-.122-.286c-.1-.224-.245-.51-.418-.877l-.673-1.438c-.245-.582-.52-1.255-.826-2.04a72.219,72.219,0,0,1-3.907-13.262,75.147,75.147,0,0,1,.7-32.371c.969-4.081,2.255-8.243,3.55-12.487s2.561-8.4,3.469-12.467a62.234,62.234,0,0,0,1.6-11.906,38.511,38.511,0,0,0-1.1-10.773,28.188,28.188,0,0,0-3.805-8.61,24.066,24.066,0,0,0-10.2-8.855,20.924,20.924,0,0,0-3.55-1.132l-.959-.194a1.337,1.337,0,0,1-.316-.092,1.316,1.316,0,0,1,.326,0l1.02.143a20.241,20.241,0,0,1,3.611,1.02,23.76,23.76,0,0,1,10.437,8.835,27.933,27.933,0,0,1,3.918,8.7,38.626,38.626,0,0,1,1.173,10.9,62.119,62.119,0,0,1-1.581,12.008c-.908,4.081-2.163,8.264-3.469,12.518s-2.581,8.386-3.55,12.446a75.81,75.81,0,0,0-1.928,11.875,77.137,77.137,0,0,0,4.805,33.523c.3.755.561,1.428.786,2.04l.633,1.459.367.9a1.346,1.346,0,0,1,.01.429Z" transform="translate(-43.112 -94.591)"/></g><g transform="translate(40.64 490.445)"><path class="f" d="M467.887,481.655c0,.143-95.663.265-213.648.265S40.57,481.8,40.57,481.655s95.643-.265,213.669-.265S467.887,481.5,467.887,481.655Z" transform="translate(-40.57 -481.39)"/></g></g></svg>