<svg width="55" height="55" viewBox="0 0 55 55" fill="none" xmlns="http://www.w3.org/2000/svg">
<path d="M27.4997 52.1351C41.1054 52.1351 52.1351 41.1054 52.1351 27.4997C52.1351 13.8939 41.1054 2.86426 27.4997 2.86426C13.8939 2.86426 2.86426 13.8939 2.86426 27.4997C2.86426 41.1054 13.8939 52.1351 27.4997 52.1351Z" fill="#4842A8"/>
<path d="M27.5 46.4062C37.9416 46.4062 46.4062 37.9416 46.4062 27.5C46.4062 17.0584 37.9416 8.59375 27.5 8.59375C17.0584 8.59375 8.59375 17.0584 8.59375 27.5C8.59375 37.9416 17.0584 46.4062 27.5 46.4062Z" fill="#5952BE"/>
<path d="M34.375 36.0931C34.1492 36.0942 33.9254 36.0501 33.7168 35.9635C33.5083 35.877 33.3191 35.7496 33.1604 35.5889L26.2854 28.7139C25.963 28.3919 25.7817 27.955 25.7812 27.4993V16.041C25.7812 15.5852 25.9623 15.148 26.2847 14.8257C26.607 14.5033 27.0442 14.3223 27.5 14.3223C27.9558 14.3223 28.393 14.5033 28.7153 14.8257C29.0377 15.148 29.2188 15.5852 29.2188 16.041V26.7889L35.5896 33.1598C35.9114 33.482 36.0922 33.9189 36.0922 34.3743C36.0922 34.8298 35.9114 35.2667 35.5896 35.5889C35.4309 35.7496 35.2417 35.877 35.0332 35.9635C34.8246 36.0501 34.6008 36.0942 34.375 36.0931Z" fill="white"/>
</svg>
