<svg width="60" height="60" viewBox="0 0 60 60" fill="none" xmlns="http://www.w3.org/2000/svg">
<g clip-path="url(#clip0_595_67)">
<path d="M30 60C46.5685 60 60 46.5685 60 30C60 13.4315 46.5685 0 30 0C13.4315 0 0 13.4315 0 30C0 46.5685 13.4315 60 30 60Z" fill="url(#paint0_linear_595_67)"/>
<path d="M46.6545 16.4648H13.3455C13.2088 16.4648 13.0734 16.4917 12.9471 16.544C12.8207 16.5963 12.706 16.673 12.6093 16.7697C12.5126 16.8664 12.436 16.9812 12.3837 17.1076C12.3314 17.2339 12.3046 17.3693 12.3047 17.5061V20.6296H47.6953V17.5061C47.6954 17.3693 47.6685 17.2339 47.6163 17.1076C47.564 16.9812 47.4873 16.8664 47.3907 16.7697C47.294 16.673 47.1792 16.5963 47.0529 16.544C46.9266 16.4917 46.7912 16.4648 46.6545 16.4648ZM12.3047 42.4939C12.3046 42.6307 12.3315 42.7661 12.3837 42.8924C12.436 43.0188 12.5127 43.1336 12.6093 43.2303C12.706 43.327 12.8208 43.4037 12.9471 43.456C13.0734 43.5083 13.2088 43.5352 13.3455 43.5352H46.6543C46.7911 43.5352 46.9265 43.5083 47.0528 43.456C47.1791 43.4037 47.2939 43.327 47.3906 43.2303C47.4873 43.1336 47.5639 43.0188 47.6162 42.8924C47.6685 42.7661 47.6953 42.6307 47.6952 42.4939V22.7119H12.3047V42.4939ZM34.4686 31.7774C34.2734 31.5821 34.1637 31.3174 34.1637 31.0413C34.1637 30.7652 34.2734 30.5004 34.4686 30.3052C34.5652 30.2084 34.6799 30.1317 34.8062 30.0794C34.9325 30.027 35.0678 30.0001 35.2045 30.0001C35.3412 30.0001 35.4766 30.027 35.6029 30.0794C35.7291 30.1317 35.8439 30.2084 35.9405 30.3052L38.0223 32.3875C38.119 32.4841 38.1957 32.5989 38.248 32.7252C38.3003 32.8515 38.3273 32.9869 38.3273 33.1236C38.3273 33.2603 38.3003 33.3957 38.248 33.522C38.1957 33.6483 38.119 33.763 38.0223 33.8597L35.9405 35.942C35.8439 36.0387 35.7291 36.1154 35.6029 36.1678C35.4766 36.2201 35.3412 36.2471 35.2045 36.2471C35.0678 36.2471 34.9325 36.2201 34.8062 36.1678C34.6799 36.1154 34.5652 36.0387 34.4686 35.942C34.2734 35.7468 34.1637 35.482 34.1637 35.2059C34.1637 34.9298 34.2734 34.665 34.4686 34.4698L35.8145 33.1235L34.4686 31.7774ZM27.9325 39.1997L30.0143 26.7057C30.1078 26.1374 30.6394 25.7449 31.2117 25.8496C31.3466 25.872 31.4757 25.9208 31.5917 25.9931C31.7077 26.0654 31.8083 26.1599 31.8878 26.2712C31.9673 26.3824 32.0241 26.5082 32.0549 26.6414C32.0858 26.7745 32.0901 26.9125 32.0677 27.0473L29.9858 39.5413C29.8902 40.1186 29.3389 40.494 28.7884 40.3975C28.2211 40.3029 27.8379 39.767 27.9325 39.1997ZM21.9777 32.3873L24.0595 30.305C24.1561 30.2083 24.2709 30.1316 24.3971 30.0792C24.5234 30.0269 24.6588 29.9999 24.7955 29.9999C24.9322 29.9999 25.0675 30.0269 25.1938 30.0792C25.3201 30.1316 25.4348 30.2083 25.5314 30.305C25.7266 30.5003 25.8363 30.7651 25.8363 31.0412C25.8363 31.3172 25.7266 31.582 25.5314 31.7773L24.1855 33.1234L25.5314 34.4696C25.7266 34.6649 25.8363 34.9297 25.8363 35.2058C25.8363 35.4819 25.7266 35.7466 25.5314 35.9419C25.4348 36.0386 25.3201 36.1153 25.1938 36.1677C25.0675 36.22 24.9322 36.247 24.7955 36.247C24.6588 36.247 24.5234 36.22 24.3971 36.1677C24.2709 36.1153 24.1561 36.0386 24.0595 35.9419L21.9777 33.8596C21.7825 33.6643 21.6728 33.3995 21.6728 33.1235C21.6728 32.8474 21.7825 32.5826 21.9777 32.3873Z" fill="url(#paint1_linear_595_67)"/>
</g>
<defs>
<linearGradient id="paint0_linear_595_67" x1="30" y1="60" x2="30" y2="0" gradientUnits="userSpaceOnUse">
<stop stop-color="#ADDCFF"/>
<stop offset="0.503" stop-color="#EAF6FF"/>
<stop offset="1" stop-color="#EAF6FF"/>
</linearGradient>
<linearGradient id="paint1_linear_595_67" x1="30" y1="43.5352" x2="30" y2="16.4648" gradientUnits="userSpaceOnUse">
<stop stop-color="#00C0FF"/>
<stop offset="1" stop-color="#5558FF"/>
</linearGradient>
<clipPath id="clip0_595_67">
<rect width="60" height="60" fill="white"/>
</clipPath>
</defs>
</svg>
