<svg id="Layer_1" data-name="Layer 1" xmlns="http://www.w3.org/2000/svg" viewBox="0 0 560.56 429.55"><title>Logo Designing By Xeon Multimedia</title><rect x="455.07" y="307.03" width="30.99" height="30.99" rx="6.55" transform="translate(-81.22 405.28) rotate(-50.99)" style="fill:#09b9e4"/><path d="M467.5,309.65a24,24,0,0,1,6,4.85,4.72,4.72,0,0,1,.42,5.69,5.17,5.17,0,0,1-5.55,2.49,8.54,8.54,0,0,1-3.73-2l-.86-.69c-1.23,1.49-2.42,2.95-3.63,4.47l-2.82-2.31Zm-1.83,8.09a5.07,5.07,0,0,0,2.46,1.68,2.48,2.48,0,0,0,2.75-1.21,2.13,2.13,0,0,0-.32-2.7,20.37,20.37,0,0,0-1.83-1.51Z" transform="translate(-4.97 -79.87)" style="fill:#fff"/><path d="M480.25,326.12l-2,1.48c-.47-.62-.92-1.24-1.41-1.81a1.8,1.8,0,0,0-.85-.59,1.11,1.11,0,0,0-.94.13,1,1,0,0,0-.21.93,12.83,12.83,0,0,0,.69,1.39,10.81,10.81,0,0,1,.81,1.68,3.36,3.36,0,0,1-2,4.29,3.42,3.42,0,0,1-1.71.14,6.53,6.53,0,0,1-3.86-2.06c-.7-.73-1.29-1.58-2-2.44l2.14-1.68c.75.91,1.46,1.78,2.2,2.62a1.25,1.25,0,0,0,.73.41,1.15,1.15,0,0,0,.88-.21,1.2,1.2,0,0,0,.23-.92,5.29,5.29,0,0,0-.53-1.13,15.15,15.15,0,0,1-.95-1.94,3.37,3.37,0,0,1,2.13-4.25,3.46,3.46,0,0,1,1.23-.17A7,7,0,0,1,480.25,326.12Z" transform="translate(-4.97 -79.87)" style="fill:#fff"/><path d="M495,228.8H370.52c-18.76,0-19-23.28-2.34-28a32.65,32.65,0,0,1,29.29,6.22s4.52-57.22,47.36-50.5c33.78,5.29,31.81,42.07,31.81,42.07s6.95-15.12,25.19-9.41C520.83,195.19,518.76,228.8,495,228.8Z" transform="translate(-4.97 -79.87)" style="fill:#ebf7f8"/><ellipse cx="268.24" cy="325.98" rx="160.79" ry="20.67" style="fill:#dae4e5"/><ellipse cx="428.88" cy="337.7" rx="117.98" ry="25.73" style="fill:#dae4e5"/><path d="M126.68,318.9h-109c-16.44,0-16.65-18.69-2-22.45a30.37,30.37,0,0,1,25.66,5s4-46,41.5-40.54c29.58,4.25,27.86,33.79,27.86,33.79s6.1-12.16,22-7.56C149.4,291.89,147.52,318.9,126.68,318.9Z" transform="translate(-4.97 -79.87)" style="fill:#ebf7f8"/><path d="M151.28,126.94H239c13.24,0,13.44-15.12,1.68-18.09a24.51,24.51,0,0,0-20.67,4s-3.18-36.94-33.39-32.64c-23.81,3.36-22.44,27.2-22.44,27.2s-4.9-9.79-17.75-6.08C133,105.21,134.5,126.94,151.28,126.94Z" transform="translate(-4.97 -79.87)" style="fill:#ebf7f8"/><path d="M167,398.47c0,4.07-23.51,7.37-52.48,7.37S62,402.49,62,398.47s23.51-7.39,52.48-7.39S167,394.39,167,398.47Z" transform="translate(-4.97 -79.87)" style="fill:#dae4e5"/><line x1="76.88" y1="319.14" x2="93.41" y2="146.21" style="fill:none;stroke:#073e60;stroke-miterlimit:10;stroke-width:2px"/><line x1="142.79" y1="319.14" x2="126.24" y2="146.21" style="fill:none;stroke:#073e60;stroke-miterlimit:10;stroke-width:2px"/><line x1="92.1" y1="160" x2="127.57" y2="160" style="fill:none;stroke:#073e60;stroke-miterlimit:10;stroke-width:2px"/><line x1="90.12" y1="180.74" x2="129.55" y2="180.74" style="fill:none;stroke:#073e60;stroke-miterlimit:10;stroke-width:2px"/><line x1="88.12" y1="201.5" x2="131.53" y2="201.5" style="fill:none;stroke:#073e60;stroke-miterlimit:10;stroke-width:2px"/><line x1="86.14" y1="222.25" x2="133.51" y2="222.25" style="fill:none;stroke:#073e60;stroke-miterlimit:10;stroke-width:2px"/><line x1="84.16" y1="243.01" x2="135.43" y2="243.01" style="fill:none;stroke:#073e60;stroke-miterlimit:10;stroke-width:2px"/><line x1="82.17" y1="263.77" x2="137.43" y2="263.77" style="fill:none;stroke:#073e60;stroke-miterlimit:10;stroke-width:2px"/><line x1="80.19" y1="284.53" x2="139.46" y2="284.53" style="fill:none;stroke:#073e60;stroke-miterlimit:10;stroke-width:2px"/><line x1="78.21" y1="305.29" x2="140.79" y2="305.29" style="fill:none;stroke:#073e60;stroke-miterlimit:10;stroke-width:2px"/><path d="M133.38,227.12H96.25A2.15,2.15,0,0,1,94.1,225h0a2.15,2.15,0,0,1,2.15-2.15h37.13a2.13,2.13,0,0,1,2.13,2.13v0h0A2.15,2.15,0,0,1,133.38,227.12Z" transform="translate(-4.97 -79.87)" style="fill:#5490cc"/><line x1="254.28" y1="317.02" x2="254.28" y2="319.54" style="fill:none;stroke:#778083;stroke-linecap:round;stroke-linejoin:round"/><path d="M259.27,403.46v4a19,19,0,0,1-19,19H207.73a11.37,11.37,0,0,1-11.37-11.37V403.39" transform="translate(-4.97 -79.87)" style="fill:none;stroke:#778083;stroke-linecap:round;stroke-linejoin:round;stroke-dasharray:2.895343542098999,2.4127862453460693"/><line x1="191.39" y1="321.48" x2="191.39" y2="318.96" style="fill:none;stroke:#778083;stroke-linecap:round;stroke-linejoin:round"/><line x1="140.67" y1="321.06" x2="140.67" y2="323.57" style="fill:none;stroke:#778083;stroke-linecap:round;stroke-linejoin:round"/><path d="M145.66,407.74v14.43a22.17,22.17,0,0,0,22.16,22.17h70.31a32.94,32.94,0,0,0,32.93-32.94V386.6" transform="translate(-4.97 -79.87)" style="fill:none;stroke:#778083;stroke-linecap:round;stroke-linejoin:round;stroke-dasharray:3.0656867027282715,2.554738759994507"/><line x1="266.09" y1="304.58" x2="266.09" y2="302.06" style="fill:none;stroke:#778083;stroke-linecap:round;stroke-linejoin:round"/><path d="M195.15,444.34" transform="translate(-4.97 -79.87)" style="fill:none"/><line x1="157.88" y1="321.06" x2="157.88" y2="323.57" style="fill:none;stroke:#778083;stroke-linecap:round;stroke-linejoin:round"/><path d="M162.84,407.74v14.43A22.17,22.17,0,0,0,185,444.34h24" transform="translate(-4.97 -79.87)" style="fill:none;stroke:#778083;stroke-linecap:round;stroke-linejoin:round;stroke-dasharray:3.0606870651245117,2.550572633743286"/><line x1="206.2" y1="364.47" x2="208.72" y2="364.47" style="fill:none;stroke:#778083;stroke-linecap:round;stroke-linejoin:round"/><line x1="174.48" y1="321.06" x2="174.48" y2="323.57" style="fill:none;stroke:#778083;stroke-linecap:round;stroke-linejoin:round"/><path d="M179.46,407.86v14.31a22.18,22.18,0,0,0,22.17,22.17h26.15" transform="translate(-4.97 -79.87)" style="fill:none;stroke:#778083;stroke-linecap:round;stroke-linejoin:round;stroke-dasharray:3.1453452110290527,2.6211209297180176"/><line x1="224.99" y1="364.47" x2="227.51" y2="364.47" style="fill:none;stroke:#778083;stroke-linecap:round;stroke-linejoin:round"/><polygon points="146.73 254.08 146.73 329.39 134.62 329.42 134.37 254.1 146.73 254.08" style="fill:#fdd247"/><polygon points="140.4 237.71 141.64 239.47 146.73 254.08 134.37 254.1 139.22 239.4 140.4 237.71" style="fill:#fdded6"/><polygon points="140.4 237.71 141.64 239.47 140.99 239.87 140.4 239.4 139.78 240.04 139.22 239.4 140.4 237.71" style="fill:#fdd247"/><polygon points="134.37 254.1 136.15 255.42 137.39 254.1 134.37 254.1" style="fill:#fdded6"/><polygon points="137.39 254.1 139.17 255.42 140.43 254.08 137.39 254.1" style="fill:#fdded6"/><polygon points="140.43 254.08 142.2 255.42 143.46 254.08 140.43 254.08" style="fill:#fdded6"/><polygon points="143.46 254.08 145.22 255.41 146.73 254.08 143.46 254.08" style="fill:#fdded6"/><polygon points="140.4 237.71 141.64 239.45 146.73 254.08 146.73 329.39 142.8 329.39 142.55 254.08 138.65 241.15 139.22 239.4 140.4 237.71" style="fill:#72616f;opacity:0.20000000298023224;isolation:isolate"/><rect x="134.62" y="328.58" width="12.13" height="2.23" style="fill:#fdd247"/><polygon points="163.73 254.08 163.73 329.39 151.6 329.42 151.35 254.1 163.73 254.08" style="fill:#f7954c"/><polygon points="157.38 237.71 158.62 239.47 163.73 254.08 151.35 254.1 156.2 239.4 157.38 237.71" style="fill:#fdded6"/><polygon points="157.38 237.71 158.62 239.47 157.97 239.87 157.4 239.4 156.76 240.04 156.2 239.4 157.38 237.71" style="fill:#f7954c"/><polygon points="151.35 254.1 153.13 255.42 154.39 254.1 151.35 254.1" style="fill:#fdded6"/><polygon points="154.39 254.1 156.15 255.42 157.41 254.08 154.39 254.1" style="fill:#fdded6"/><polygon points="157.41 254.08 159.18 255.42 160.44 254.08 157.41 254.08" style="fill:#fdded6"/><polygon points="160.44 254.08 162.22 255.41 163.73 254.08 160.44 254.08" style="fill:#fdded6"/><polygon points="157.38 237.71 158.62 239.45 163.73 254.08 163.73 329.39 159.8 329.39 159.55 254.08 155.63 241.15 156.2 239.4 157.38 237.71" style="fill:#72616f;opacity:0.20000000298023224;isolation:isolate"/><rect x="151.6" y="328.58" width="12.13" height="2.23" style="fill:#f7954c"/><polygon points="180.71 254.08 180.71 329.39 168.6 329.42 168.33 254.1 180.71 254.08" style="fill:#f1604d"/><polygon points="174.38 237.71 175.6 239.47 180.71 254.08 168.35 254.1 173.18 239.4 174.38 237.71" style="fill:#fdded6"/><polygon points="174.38 237.71 175.6 239.47 174.96 239.87 174.38 239.4 173.75 240.04 173.18 239.4 174.38 237.71" style="fill:#f1604d"/><polygon points="168.35 254.1 170.11 255.42 171.37 254.1 168.35 254.1" style="fill:#fdded6"/><polygon points="171.37 254.1 173.13 255.42 174.39 254.08 171.37 254.1" style="fill:#fdded6"/><polygon points="174.39 254.08 176.17 255.42 177.41 254.08 174.39 254.08" style="fill:#fdded6"/><polygon points="177.41 254.08 179.2 255.41 180.71 254.08 177.41 254.08" style="fill:#fdded6"/><polygon points="174.38 237.71 175.6 239.45 180.71 254.08 180.71 329.39 176.78 329.39 176.53 254.08 172.61 241.15 173.18 239.4 174.38 237.71" style="fill:#72616f;opacity:0.20000000298023224;isolation:isolate"/><rect x="168.58" y="328.58" width="12.13" height="2.23" style="fill:#f1604d"/><polygon points="197.69 254.08 197.69 329.39 185.58 329.42 185.31 254.1 197.69 254.08" style="fill:#5490cc"/><polygon points="191.35 237.71 192.6 239.47 197.69 254.08 185.33 254.1 190.18 239.4 191.35 237.71" style="fill:#fdded6"/><polygon points="191.35 237.71 192.6 239.47 191.94 239.87 191.35 239.4 190.73 240.04 190.18 239.4 191.35 237.71" style="fill:#2486b8"/><polygon points="185.33 254.1 187.11 255.42 188.35 254.1 185.33 254.1" style="fill:#fdded6"/><polygon points="188.35 254.1 190.13 255.42 191.39 254.08 188.35 254.1" style="fill:#fdded6"/><polygon points="191.39 254.08 193.15 255.42 194.41 254.08 191.39 254.08" style="fill:#fdded6"/><polygon points="194.41 254.08 196.18 255.41 197.69 254.08 194.41 254.08" style="fill:#fdded6"/><polygon points="191.35 237.71 192.6 239.45 197.69 254.08 197.69 329.39 193.77 329.39 193.5 254.08 189.59 241.15 190.18 239.4 191.35 237.71" style="fill:#72616f;opacity:0.20000000298023224;isolation:isolate"/><rect x="185.58" y="328.58" width="12.13" height="2.23" style="fill:#1a7f80"/><path d="M481.41,434.63H558a7,7,0,0,1,7,7h0a7,7,0,0,1-7,7H316.81a22.94,22.94,0,0,1-23-22.89V398.47" transform="translate(-4.97 -79.87)" style="fill:none;stroke:#778083;stroke-linecap:round;stroke-linejoin:round;stroke-dasharray:3,2.5"/><path d="M279.19,401.91v46.31A23.2,23.2,0,0,1,256,471.43h-8.18" transform="translate(-4.97 -79.87)" style="fill:none;stroke:#778083;stroke-linecap:round;stroke-linejoin:round;stroke-dasharray:3,2.5"/><path d="M309.37,388.38v19.18a13.92,13.92,0,0,0,13.92,13.9h84" transform="translate(-4.97 -79.87)" style="fill:none;stroke:#778083;stroke-linecap:round;stroke-linejoin:round;stroke-dasharray:3,2.5"/><path d="M372,144c-19.9-24.64-49.49-42.12-81.78-42.68-18.68-.33-38.36,2.14-55,11A124.4,124.4,0,0,0,197.42,144c-17.84,22.07-28.12,50.85-25,79C175,246.58,186.62,268.23,202,285.9c15,17.25,36.87,31.47,40.61,55.82,1.08,7-1.49,16.58,3.82,22.14,6.31,6.62,16.55,4.31,24.63,4.25q14.44-.12,28.84-.19c6.9,0,17.92,1.88,23.11-4.06,5.31-5.56,2.74-15.12,3.81-22.14,2.82-18.34,17.13-33.2,30.23-45.16,15.12-13.72,27.09-29.49,33.84-48.95C403.43,211.55,395.79,173.49,372,144Z" transform="translate(-4.97 -79.87)" style="fill:#fdd247"/><path d="M278.94,389.13c0-12.56-.68-25.19-1.1-37.65-.65-20.24-1.67-40.51-3.57-60.68-1.11-11.75-3.11-23.51-7.8-34.39-3-6.89-8.24-15.55-16.59-16.29a11.75,11.75,0,0,0-12.69,10.73c0,.23,0,.46,0,.69-.1,9,8.57,16.79,16.7,19.11,9.42,2.65,21.83.77,29.6-5.22,8.07-6.18,12.58-16.23,13.93-26.1,1.09-8,.72-17-8.08-20.16-7.51-2.72-13.29,3.46-14,10.62-.73,7.49,1.37,15.6,4.3,22.44s7.92,14.41,15.77,16.1c10.71,2.3,22.65-3.68,30-11.13,5.54-5.6,13.81-16.53,8-24.52a11.32,11.32,0,0,0-12-3.68c-5.22,1.43-9,5.76-12.11,10-7.86,10.75-11.75,23.81-13.15,37-1.68,14.79-1.68,29.92-2.13,44.8s-.86,29.66-1.21,44.49c-.17,7.78-.17,15.54-.2,23.31a1.29,1.29,0,1,0,2.58,0c1.41-24.1,1.92-48.21,2.79-72.33.86-23.16-.85-49.16,11.2-69.9,2.57-4.45,5.83-9.56,10.38-12.23,6-3.52,13.17-.27,11.47,7.21-2,8.82-10.76,16.79-18.64,20.61-8.23,3.91-17.88,4.92-24.23-2.51-4.65-5.44-7.17-12.78-8.4-19.71-.94-5-2.33-14.83,4-17.12,3.36-1.17,7.24,1.13,9,3.85,2.08,3.17,1.44,8.24,1,11.75-1.12,9.31-5.34,19.1-13.12,24.73-7,5-19.07,6.83-27.27,3.76-6.8-2.55-17.57-12.88-10.58-20.34,4.62-4.94,11-2.12,14.83,2.25,6.72,7.76,9.4,19.11,11.27,29a220.89,220.89,0,0,1,2.72,24.2c2.3,29.09,3.24,58.28,5.54,87.33a.87.87,0,0,0,1.68,0Z" transform="translate(-4.97 -79.87)" style="fill:#fff"/><rect x="246.51" y="287.87" width="65.15" height="6.43" style="fill:#337bc0"/><path d="M320.39,396.41a3.8,3.8,0,0,1,.11-4.84l.41-.42a3.82,3.82,0,0,0,.16-4.79l-.65-.82a3.77,3.77,0,0,1,.28-4.9,3.78,3.78,0,0,0,.36-4.84l-1.68-2.34a3.38,3.38,0,0,0-2.71-1.34H251.85a3.37,3.37,0,0,0-2.69,1.34l-1.68,2.34a3.79,3.79,0,0,0,.35,4.84,3.77,3.77,0,0,1,.31,4.9l-.66.82a3.82,3.82,0,0,0,.15,4.79l.42.42a3.8,3.8,0,0,1,.1,4.84l-.5.62a3.76,3.76,0,0,0,.18,4.9l.27.27a6.93,6.93,0,0,0,4.92,2.13h62.53a7,7,0,0,0,4.94-2.13l.26-.27a3.8,3.8,0,0,0,.19-4.9Z" transform="translate(-4.97 -79.87)" style="fill:#09b9e4"/><line x1="281.98" y1="300.97" x2="312.14" y2="300.97" style="fill:none;stroke:#64cbe5;stroke-linecap:round;stroke-linejoin:round"/><line x1="251.8" y1="300.97" x2="268.53" y2="300.97" style="fill:none;stroke:#64cbe5;stroke-linecap:round;stroke-linejoin:round"/><line x1="247.43" y1="308.36" x2="291.15" y2="308.36" style="fill:none;stroke:#64cbe5;stroke-linecap:round;stroke-linejoin:round"/><line x1="299.34" y1="308.36" x2="312.24" y2="308.36" style="fill:none;stroke:#64cbe5;stroke-linecap:round;stroke-linejoin:round"/><line x1="251.8" y1="315.75" x2="275.19" y2="315.75" style="fill:none;stroke:#64cbe5;stroke-linecap:round;stroke-linejoin:round"/><line x1="290.49" y1="315.75" x2="299.9" y2="315.75" style="fill:none;stroke:#64cbe5;stroke-linecap:round;stroke-linejoin:round"/><line x1="272.71" y1="300.97" x2="276.1" y2="300.97" style="fill:none;stroke:#64cbe5;stroke-linecap:round;stroke-linejoin:round"/><g style="opacity:0.20000000298023224"><path d="M372,144c-19.9-24.64-49.49-42.12-81.78-42.68-3.69-.06-7.39,0-11.12.15,51.69,3.18,96.47,48.1,94.77,102.17-1.41,45.44-23.61,77.85-69.5,97.72-9.6,4.17-16.49,10.5-18,21.52-1.42,10.16,1.8,20.45-.32,30.6a8.47,8.47,0,0,1-1.88,4.23,9.29,9.29,0,0,1-3.76,2.11,67.65,67.65,0,0,1-35.27,2.24,11.58,11.58,0,0,0,1.35,1.78c6.31,6.62,16.56,4.31,24.63,4.25q14.45-.12,28.84-.19c6.9,0,17.92,1.88,23.11-4.06,5.31-5.56,2.74-15.12,3.81-22.14,2.82-18.34,17.13-33.2,30.23-45.16,15.12-13.72,27.09-29.49,33.84-49C403.43,211.55,395.79,173.49,372,144Z" transform="translate(-4.97 -79.87)" style="fill:#fdb83a"/></g><path d="M551.85,410.6s-10.08-7.12-18.14-8.28c-15.94-2.27-25.06,4-33.67-.79-3.56-2,5.29-3.36,6.23-5.61a31.38,31.38,0,0,0,0-3.36,5.61,5.61,0,0,1-4.22.15c-16.14-5.83-29.84-5.27-53.29-5.27-52.41,0-95.73,9.44-102.06,21.63h-.8v3.21h0c.3,13.6,46.23,24.6,102.85,24.6,54.66,0,102.44-10.5,103-23.23Zm-67.68,1.48c-7.43,0-13.44-2.15-13.44-4.82s6-4.84,13.44-4.84,13.43,2.16,13.43,4.84-6,4.8-13.43,4.8Z" transform="translate(-4.97 -79.87)" style="fill:#fbad18"/><path d="M551.7,409.25c-1.38-5.42-9.88-8.66-18-9.8-15.94-2.29-25.06,4-33.67-.81-5-2.82,14.54-4.37,2.06-8.87-16.14-5.83-29.84-5.25-53.29-5.25C392,384.52,346,395.58,346,409.25S392,434,448.81,434,555.05,422.67,551.7,409.25Zm-67.53,0c-7.43,0-13.44-2.16-13.44-4.83s6-4.84,13.44-4.84,13.43,2.17,13.43,4.84-6,4.78-13.43,4.78Z" transform="translate(-4.97 -79.87)" style="fill:#fdd247"/><path d="M402.71,411.94a5.86,5.86,0,0,0-1.68-1.86,18.3,18.3,0,0,0-5.17-2.86,1,1,0,0,0,.34-1.26,2,2,0,0,0-1.1-.89,13.93,13.93,0,0,0-6.34-.62,93.89,93.89,0,0,0-12.85,1.31c-2,.37-4.18,1.09-5,3a4,4,0,0,0-.22,2.47,5.72,5.72,0,0,1-1.58.45c-.52.17-1.06.69-.89,1.26a1.19,1.19,0,0,0,.37.54c4,4,9.74,5,15,5a55,55,0,0,0,17-2.44,3.71,3.71,0,0,0,2.37-1.68A2.86,2.86,0,0,0,402.71,411.94Z" transform="translate(-4.97 -79.87)" style="fill:#f7954c"/><path d="M442.26,398.37a5.86,5.86,0,0,0-1.68-1.86,17.92,17.92,0,0,0-5.17-2.86,1,1,0,0,0,.34-1.27,2,2,0,0,0-1.1-.88,13.92,13.92,0,0,0-6.34-.62,98.82,98.82,0,0,0-12.85,1.29c-2,.39-4.18,1.11-5,3.06a3.82,3.82,0,0,0-.22,2.45,5.14,5.14,0,0,1-1.58.47c-.52.17-1.05.69-.89,1.26a1.14,1.14,0,0,0,.37.54c3.95,4,9.74,4.95,15,5a55,55,0,0,0,17-2.45,3.59,3.59,0,0,0,2.35-1.68A2.8,2.8,0,0,0,442.26,398.37Z" transform="translate(-4.97 -79.87)" style="fill:#f1604d"/><path d="M513.84,418.46a5,5,0,0,0-1.44-1.6,16.32,16.32,0,0,0-4.44-2.45.81.81,0,0,0,.29-1.08,1.75,1.75,0,0,0-.94-.75,11.77,11.77,0,0,0-5.43-.54,84.69,84.69,0,0,0-11,1.11,5.42,5.42,0,0,0-4.31,2.62,3.37,3.37,0,0,0-.19,2.1,5.32,5.32,0,0,1-1.36.4c-.45.14-.91.59-.77,1.08a1.07,1.07,0,0,0,.32.47c3.36,3.36,8.4,4.23,12.83,4.25A47.26,47.26,0,0,0,512,422a3.1,3.1,0,0,0,1.88-1.3A2.34,2.34,0,0,0,513.84,418.46Z" transform="translate(-4.97 -79.87)" style="fill:#64cbe5"/><path d="M458.82,420.2a6.23,6.23,0,0,0-1.68-1.86,18.55,18.55,0,0,0-5.17-2.86,1,1,0,0,0,.34-1.26,2.19,2.19,0,0,0-1.1-.89,14.35,14.35,0,0,0-6.34-.62A95.48,95.48,0,0,0,432,414c-2,.39-4.18,1.1-5,3a3.89,3.89,0,0,0-.22,2.47,5.74,5.74,0,0,1-1.58.46c-.52.16-1.06.7-.9,1.26a1.53,1.53,0,0,0,.37.55c4,4,9.74,4.94,15,5a55.71,55.71,0,0,0,17-2.45,3.8,3.8,0,0,0,2.35-1.6A2.86,2.86,0,0,0,458.82,420.2Z" transform="translate(-4.97 -79.87)" style="fill:#fff"/><path d="M145.45,478.56c0,2.73-18.72,4.93-41.85,4.93s-41.85-2.2-41.85-4.93,18.74-4.92,41.85-4.92S145.45,475.86,145.45,478.56Z" transform="translate(-4.97 -79.87)" style="fill:#dae4e5"/><path d="M58.61,461.08A31.69,31.69,0,0,1,57,434.51a32.81,32.81,0,0,1,9.39-13.18,36,36,0,0,1,12.78-6.21A31.6,31.6,0,0,1,103,417.85a33.74,33.74,0,0,1,13,15.2c2.77,6,3.94,13.44,9.91,17.27,1.67,1.1,4.53,1.56,5.37,3.61,1,2.45-.81,4.87-1.78,7l-3.36,7.58c-.82,1.81-1.68,4.94-3.8,5.61s-4.31-1.08-6.28-1.68c-5.15-1.41-10.76.6-15.45,2.65a34,34,0,0,1-16.79,3.14A30.9,30.9,0,0,1,58.61,461.08Z" transform="translate(-4.97 -79.87)" style="fill:#dce2e8"/><path d="M130,463.35s-16.62-8.21-24.57-12.7a35.69,35.69,0,0,1-7.2-5c-1.87-1.68-5.65-5.57-3.21-8.16,2.85-3.05,6.21,1.93,6.2,4.72a10.58,10.58,0,0,1-3.83,7.05c-3.36,2.37-8.4,1.77-11.66-.2a2.65,2.65,0,0,1,1.68-4.88c2.57.16,9.84,5.59,8.16,10a9.9,9.9,0,0,1-5,5.2c-4,1.93-9.14-3.11-3.54-4.9,4-1.28,9,.1,12.78,1.54,10.19,4,18.08,7.34,28.21,11.49" transform="translate(-4.97 -79.87)" style="fill:none;stroke:#fff;stroke-miterlimit:10"/><rect x="119.35" y="463.81" width="18.79" height="1.85" transform="translate(-353 312.46) rotate(-65.88)" style="fill:#337bc0"/><path d="M131.13,477.24a1.09,1.09,0,0,0-1.28-.54h-.17a1.12,1.12,0,0,1-1.27-.52l-.14-.27a1.08,1.08,0,0,0-1.32-.5,1.12,1.12,0,0,1-1.33-.49l-.4-.72a1,1,0,0,1,0-.88l7.62-17a1,1,0,0,1,.67-.54l.83-.2a1.12,1.12,0,0,1,1.24.67,1.07,1.07,0,0,0,1.24.66h.3a1.1,1.1,0,0,1,1.25.6v.15a1.07,1.07,0,0,0,1.26.61h.21a1.06,1.06,0,0,1,1.26.62V459a2,2,0,0,1,0,1.54L133.73,477a2,2,0,0,1-1.14,1h-.1a1.09,1.09,0,0,1-1.33-.52Z" transform="translate(-4.97 -79.87)" style="fill:#09b9e4"/><line x1="126.01" y1="386.74" x2="122.45" y2="394.68" style="fill:none;stroke:#64cbe5;stroke-linecap:round;stroke-linejoin:round;stroke-width:0.5px"/><line x1="129.55" y1="378.8" x2="127.59" y2="383.2" style="fill:none;stroke:#64cbe5;stroke-linecap:round;stroke-linejoin:round;stroke-width:0.5px"/><line x1="132.02" y1="378.51" x2="126.86" y2="390.03" style="fill:none;stroke:#64cbe5;stroke-linecap:round;stroke-linejoin:round;stroke-width:0.5px"/><line x1="125.89" y1="392.18" x2="124.38" y2="395.57" style="fill:none;stroke:#64cbe5;stroke-linecap:round;stroke-linejoin:round;stroke-width:0.5px"/><line x1="133.45" y1="380.54" x2="130.69" y2="386.69" style="fill:none;stroke:#64cbe5;stroke-linecap:round;stroke-linejoin:round;stroke-width:0.5px"/><line x1="128.88" y1="390.72" x2="127.77" y2="393.2" style="fill:none;stroke:#64cbe5;stroke-linecap:round;stroke-linejoin:round;stroke-width:0.5px"/><line x1="127.1" y1="384.3" x2="126.7" y2="385.19" style="fill:none;stroke:#64cbe5;stroke-linecap:round;stroke-linejoin:round;stroke-width:0.5px"/><g style="opacity:0.550000011920929"><path d="M58.61,461.08A31.69,31.69,0,0,1,57,434.51c.42-1,.88-1.95,1.36-2.9-5.27,14,1.28,31.07,15.72,36.95,12.13,5,23.28,2.95,33.91-6.72a7.71,7.71,0,0,1,7.79-2.2c2.84.82,5.18,2.89,8.1,3.52a2.54,2.54,0,0,0,1.34,0,2.49,2.49,0,0,0,1-.73,19.59,19.59,0,0,0,4.76-9,2.94,2.94,0,0,1,.3.55c1,2.46-.81,4.87-1.78,7l-3.36,7.57c-.82,1.82-1.68,4.94-3.8,5.61s-4.31-1.07-6.28-1.68c-5.15-1.41-10.76.61-15.45,2.66a34.09,34.09,0,0,1-16.79,3.14A30.91,30.91,0,0,1,58.61,461.08Z" transform="translate(-4.97 -79.87)" style="fill:#dce2e8"/></g><path d="M455.06,468.79c0,2.13-14.71,3.86-32.87,3.86s-32.86-1.68-32.86-3.86,14.71-3.86,32.86-3.86S455.06,466.66,455.06,468.79Z" transform="translate(-4.97 -79.87)" style="fill:#dae4e5"/><path d="M455.8,457.35a23.38,23.38,0,0,0,1.59-19.66,24.28,24.28,0,0,0-6.71-9.93,26.66,26.66,0,0,0-9.39-4.8,23.3,23.3,0,0,0-17.65,1.68,24.89,24.89,0,0,0-9.93,11.07c-2.13,4.38-3.12,9.89-7.61,12.66-1.27.79-3.35,1.07-4,2.58-.79,1.8.52,3.63,1.21,5.21.83,1.9,1.68,3.78,2.44,5.68.59,1.34,1.12,3.68,2.74,4.21s3.22-.74,4.68-1.11c3.85-1,8,.61,11.42,2.22A25.24,25.24,0,0,0,437,469.73,22.87,22.87,0,0,0,455.8,457.35Z" transform="translate(-4.97 -79.87)" style="fill:#dce2e8"/><path d="M402.86,458s12.46-5.83,18.48-9a26.15,26.15,0,0,0,5.42-3.59c3.65-3.13,3.36-5.51,1.85-6.4-1.9-1.14-4,1-4,3.81a7.82,7.82,0,0,0,2.79,5.26,8.39,8.39,0,0,0,8.65,0c1.19-.72,1.67-3.78-1.15-3.66-1.91.08-7.39,4-6.21,7.27a7.31,7.31,0,0,0,3.61,3.93,7.74,7.74,0,0,0,4.92.62c2.81-.86-.18-3.64-1.68-4.06a16.43,16.43,0,0,0-10.08.8c-7.64,2.79-13.53,5.18-21.11,8.1" transform="translate(-4.97 -79.87)" style="fill:none;stroke:#fff;stroke-miterlimit:10"/><rect x="403.1" y="452" width="1.38" height="13.94" transform="translate(-151.97 113.91) rotate(-22.95)" style="fill:#337bc0"/><path d="M401.77,468.25a.82.82,0,0,1,1-.38h.12a.82.82,0,0,0,.95-.37l.12-.2a.81.81,0,0,1,1-.36.8.8,0,0,0,1-.33l.32-.54a.66.66,0,0,0,0-.64l-5.4-12.75a.7.7,0,0,0-.48-.42l-.61-.15a.8.8,0,0,0-.92.47.82.82,0,0,1-.94.47h-.22a.83.83,0,0,0-.94.44v.12a.8.8,0,0,1-.94.42h-.17a.78.78,0,0,0-.94.45h0a1.55,1.55,0,0,0,0,1.16L399.87,468a1.5,1.5,0,0,0,.83.79h0a.78.78,0,0,0,1-.37Z" transform="translate(-4.97 -79.87)" style="fill:#09b9e4"/><line x1="397.07" y1="380.49" x2="399.59" y2="386.44" style="fill:none;stroke:#64cbe5;stroke-linecap:round;stroke-linejoin:round;stroke-width:0.5px"/><line x1="394.55" y1="374.55" x2="395.95" y2="377.84" style="fill:none;stroke:#64cbe5;stroke-linecap:round;stroke-linejoin:round;stroke-width:0.5px"/><line x1="392.74" y1="374.29" x2="396.38" y2="382.91" style="fill:none;stroke:#64cbe5;stroke-linecap:round;stroke-linejoin:round;stroke-width:0.5px"/><line x1="397.07" y1="384.54" x2="398.15" y2="387.07" style="fill:none;stroke:#64cbe5;stroke-linecap:round;stroke-linejoin:round;stroke-width:0.5px"/><line x1="391.65" y1="375.77" x2="393.59" y2="380.39" style="fill:none;stroke:#64cbe5;stroke-linecap:round;stroke-linejoin:round;stroke-width:0.5px"/><line x1="394.87" y1="383.4" x2="395.66" y2="385.26" style="fill:none;stroke:#64cbe5;stroke-linecap:round;stroke-linejoin:round;stroke-width:0.5px"/><line x1="396.3" y1="378.66" x2="396.58" y2="379.33" style="fill:none;stroke:#64cbe5;stroke-linecap:round;stroke-linejoin:round;stroke-width:0.5px"/><g style="opacity:0.550000011920929"><path d="M455.8,457.35a23.38,23.38,0,0,0,1.59-19.66c-.3-.73-.62-1.46-.95-2.19a21.84,21.84,0,0,1-12.23,27.21c-9.07,3.51-17.31,1.83-25.06-5.54a5.7,5.7,0,0,0-5.74-1.76c-2.12.57-3.88,2.06-6.05,2.5a2.07,2.07,0,0,1-1,0,2.41,2.41,0,0,1-.74-.57,14.64,14.64,0,0,1-3.35-6.72,1.1,1.1,0,0,0-.24.4c-.79,1.8.52,3.63,1.21,5.21.82,1.9,1.68,3.78,2.43,5.67.59,1.35,1.13,3.68,2.74,4.22s3.23-.74,4.69-1.11c3.84-1,8,.61,11.42,2.22A25.19,25.19,0,0,0,437,469.8,22.89,22.89,0,0,0,455.8,457.35Z" transform="translate(-4.97 -79.87)" style="fill:#dce2e8"/></g><path d="M191.71,228.51a6.54,6.54,0,0,1-6.54-6.48c-.23-30.67,9.24-47.63,19.52-61.4a6.53,6.53,0,0,1,10.46,7.82h0c-8.3,11.12-17.13,25.33-16.91,53.48a6.53,6.53,0,0,1-6.48,6.58h0Z" transform="translate(-4.97 -79.87)" style="fill:#ffe1b0"/><path d="M231,148.84a6.56,6.56,0,0,1-5-10.62,26.23,26.23,0,0,1,6.57-6,6.53,6.53,0,0,1,6.71,11.2,14,14,0,0,0-3.05,2.94A6.55,6.55,0,0,1,231,148.84Z" transform="translate(-4.97 -79.87)" style="fill:#ffe1b0"/><path d="M257.54,501.47c0,4.39-19.51,7.95-43.67,7.95s-43.58-3.56-43.58-7.95,19.52-7.94,43.58-7.94S257.54,497.09,257.54,501.47Z" transform="translate(-4.97 -79.87)" style="fill:#dae4e5"/><path d="M242.71,483.18H204.64l19-6.19h38.63l-.15.4L243.77,483A3.78,3.78,0,0,1,242.71,483.18Z" transform="translate(-4.97 -79.87)" style="fill:#778083"/><path d="M242.21,482.53H205L223.63,477h37.74l-18.14,5.37A3,3,0,0,1,242.21,482.53Z" transform="translate(-4.97 -79.87)" style="fill:#dce2e8"/><path d="M239.17,481.6H214.48l12.38-3.69h25l-12,3.58A2.39,2.39,0,0,1,239.17,481.6Z" transform="translate(-4.97 -79.87)" style="fill:#778083;opacity:0.550000011920929;isolation:isolate"/><path d="M262.24,477H223.62l4.87-21.35a1.84,1.84,0,0,1,1.68-1.19H265a1.69,1.69,0,0,1,1.74,1.62,2,2,0,0,1-.06.48Z" transform="translate(-4.97 -79.87)" style="fill:#778083"/><path d="M261.37,477H223.63l4.87-21.35a1.85,1.85,0,0,1,1.68-1.19h33.94a1.69,1.69,0,0,1,1.74,1.62,2,2,0,0,1-.06.48Z" transform="translate(-4.97 -79.87)" style="fill:#778083"/><path d="M259.71,475.66h-34L230,455.79h34.06Z" transform="translate(-4.97 -79.87)" style="fill:#dce2e8"/><polyline points="251.21 391.54 250.86 393.19 249.18 393.19" style="fill:none;stroke:#fff;stroke-linecap:round;stroke-linejoin:round;stroke-width:0.5px"/><line x1="244.44" y1="393.19" x2="229.76" y2="393.19" style="fill:none;stroke:#fff;stroke-linecap:round;stroke-linejoin:round;stroke-width:0.5px;stroke-dasharray:2.2556521892547607,2.8195650577545166"/><polyline points="227.4 393.19 225.72 393.19 226.07 391.54" style="fill:none;stroke:#fff;stroke-linecap:round;stroke-linejoin:round;stroke-width:0.5px"/><polyline points="227.04 387.16 228.94 378.53 228.96 378.51 250.17 378.51" style="fill:none;stroke:#fff;stroke-linecap:round;stroke-linejoin:round;stroke-width:0.5px;stroke-dasharray:2.138029098510742,2.6725363731384277"/><polyline points="252.4 378.51 254.08 378.51 253.73 380.15" style="fill:none;stroke:#fff;stroke-linecap:round;stroke-linejoin:round;stroke-width:0.5px"/><line x1="252.82" y1="384.22" x2="251.66" y2="389.51" style="fill:none;stroke:#fff;stroke-linecap:round;stroke-linejoin:round;stroke-width:0.5px;stroke-dasharray:1.9848120212554932,2.4810149669647217"/><line x1="209.51" y1="400.71" x2="240.48" y2="400.71" style="fill:none;stroke:#dce2e8;stroke-miterlimit:10;stroke-width:0.5px"/><line x1="215.22" y1="399.13" x2="246.19" y2="399.13" style="fill:none;stroke:#dce2e8;stroke-miterlimit:10;stroke-width:0.25px"/><path d="M211.27,478.62a11.15,11.15,0,0,1,5.24-1.57,28.28,28.28,0,0,1,5,0c1,0,.72,1.18-.12,1.31a9.34,9.34,0,0,1-2.89,0A4.51,4.51,0,0,1,216,480a10,10,0,0,1-3.08.3c-.28,0-.65,0-.72-.36" transform="translate(-4.97 -79.87)" style="fill:#f3a087"/><line x1="246.96" y1="385.93" x2="239.87" y2="378.86" style="fill:none;stroke:#fff;stroke-miterlimit:10;stroke-width:0.25px"/><path d="M251.85,465.73a.35.35,0,0,1,.51.49.35.35,0,0,1-.5,0h0A.36.36,0,0,1,251.85,465.73Z" transform="translate(-4.97 -79.87)" style="fill:#fff"/><path d="M249.21,468.15a.35.35,0,0,1,.51.49.35.35,0,0,1-.5,0h0A.36.36,0,0,1,249.21,468.15Z" transform="translate(-4.97 -79.87)" style="fill:#fff"/><path d="M241.85,460.81a.36.36,0,0,1,.5,0,.35.35,0,0,1,0,.5.34.34,0,0,1-.49,0h0A.36.36,0,0,1,241.85,460.81Z" transform="translate(-4.97 -79.87)" style="fill:#fff"/><path d="M244.61,458.48a.35.35,0,0,1,.5,0,.35.35,0,0,1-.49.51h0A.36.36,0,0,1,244.61,458.48Z" transform="translate(-4.97 -79.87)" style="fill:#fff"/><path d="M242.11,461a5.57,5.57,0,0,1,7.34,7.36" transform="translate(-4.97 -79.87)" style="fill:none;stroke:#fff;stroke-miterlimit:10;stroke-width:0.25px"/><path d="M243.74,462.88l4.56-.71-3.52,3.8a1,1,0,1,0,0,1.48,1,1,0,0,0,0-1.45l0,0h0l3.67-3.63s-.53,3.16-.7,4.74a54.81,54.81,0,0,0-5.54,3.36c-.19.13-2.1-1.85-2-1.95A63.59,63.59,0,0,0,243.74,462.88Z" transform="translate(-4.97 -79.87)" style="fill:#fff"/><path d="M238.8,468.34l.75-.78a.36.36,0,0,1,.5,0l0,0,3.09,3.09a.36.36,0,0,1,0,.49h0l-.77.76a.36.36,0,0,1-.5,0l0,0-3.07-3.08A.33.33,0,0,1,238.8,468.34Z" transform="translate(-4.97 -79.87)" style="fill:#fff"/><path d="M183,481.32a74,74,0,0,0-1.11,7.56c-.75,4.08-1,8.76,1.68,11.87a8,8,0,0,0,6.72,3.14c2.52,0,5-.42,7.56-.49,1.68,0,6.9.42,8.59.49,7.56.3,11.76-1.38,19.34-2.3a177.67,177.67,0,0,0,19.66-3.95c19.38-5.3,12.36-13.11,8.08-14.37-.94-.27-5.16-1.68-5.16-1.68l-5.66,1.58H222.88A98.65,98.65,0,0,1,211.12,482" transform="translate(-4.97 -79.87)" style="fill:#073e60"/><path d="M239.5,470.62a9.7,9.7,0,0,1,1.2.81,14.5,14.5,0,0,0,2.68,1.32l2.72,1.1a1.78,1.78,0,0,1,.54.3,1.56,1.56,0,0,1,.32.8,20,20,0,0,1,.37,8.8,11.67,11.67,0,0,1-1.6-3.17A3.28,3.28,0,0,0,245,479a3.72,3.72,0,0,0-.87-.54,9.46,9.46,0,0,1-2.4-2.28,1.53,1.53,0,0,1-.39-.73.66.66,0,0,0,0-.28.41.41,0,0,0-.2-.19l-3.36-2.15" transform="translate(-4.97 -79.87)" style="fill:#f3a087"/><path d="M186.25,481.32c-1.56-1.16-3.26-2.45-4.87-3.8-3.68-3.09-7-6.45-7.38-8.88-.89-5.48-.18-21.75.26-29.42v-1.31c.43-7.26,4.33-10.47,6.28-11.64,1,9.42,3.24,30.71,3.36,31.81C184.27,459.49,186.25,481.32,186.25,481.32Z" transform="translate(-4.97 -79.87)" style="fill:#5490cc"/><path d="M186.25,481.32c-1.55-1.16-3.24-2.45-4.87-3.8-.14-6-2.32-4.7-4.82-15.11a69.82,69.82,0,0,1-.72-25.33l6,.91c1,9.34,2.08,19.41,2.2,20.15C184.28,459.49,186.25,481.32,186.25,481.32Z" transform="translate(-4.97 -79.87)" style="fill:#337bc0"/><path d="M190,422a20.49,20.49,0,0,0,.73-7.55c-.58-3.21-2.51-9-1.79-13.32s6.19-7.94,12-7.39,7.48,6.1,8.4,9.32a33.47,33.47,0,0,1,.57,10.75,7.49,7.49,0,0,1-2.65,5.29c-1,.57-4.59-.17-5.23.52a17.06,17.06,0,0,0-1.12,4.79" transform="translate(-4.97 -79.87)" style="fill:#f3a087"/><path d="M187.26,425.48a7.2,7.2,0,0,1,1.29-3.45c1-.89,7.37-.89,9.3-.65a29.1,29.1,0,0,1,7.31,2.92c.62.47-.62,2.91-.62,2.91Z" transform="translate(-4.97 -79.87)" style="fill:#5490cc"/><path d="M190.23,416.56s8,.69,9.55,0a6.07,6.07,0,0,0,3.93-4.89c.21-2.74-.37-3.58.68-5s2-1,2.13.46.22,4,.6,4.23,1.11-1.56.93-4.35a17.33,17.33,0,0,0-1.18-5.91c-.72-1.6-1.11-1.51-1.76-1.8a5,5,0,0,0,2.85-2.55,4,4,0,0,0-3.52-6.4c-7.44,0-15.34,1.48-15.51,7,0,0-2.6-.41-2.68,4.61s3.14,11.07,3.36,12.63S189.42,416.21,190.23,416.56Z" transform="translate(-4.97 -79.87)" style="fill:#073e60"/><path d="M212.53,475.52c.3,2.52,2.5,6.4,1,7a30,30,0,0,1-6.06-.19h-.22c-2.67-.22-5.71-.52-8.26-.7-10.21-.44-15.42,1.59-16.44,1-.49-.3-.51-1.19-.36-2.1a23.28,23.28,0,0,0,.17-6.72c-.25-1.89-.6-4.14-1.09-6.71-1.68-8.94-5-22.61-5.48-30.8-.78-12.89,13-11.66,13-11.66,17.55-1.09,25.78,4,26.74,11.49q.1.81.15,1.68c.46,7.77-1.91,20.32-3,29.71A46.71,46.71,0,0,0,212.53,475.52Z" transform="translate(-4.97 -79.87)" style="fill:#5490cc"/><path d="M212.53,475.52c.3,2.52,2.5,6.4,1,7a30,30,0,0,1-6.06-.19c2.72.2,3.22-1.88,2.62-3.27a19.58,19.58,0,0,1-1.68-8.3c.13-3.74,1.53-12.16,2.37-20.15a65.15,65.15,0,0,0,0-14c.42.84,1.68,2,5,2.81,0,7.82-2.07,19.28-3.11,28A46.77,46.77,0,0,0,212.53,475.52Z" transform="translate(-4.97 -79.87)" style="fill:#337bc0"/><path d="M203.9,426.27s8-.66,11.59,2.31c2.82,2.37,8.24,32.38,8.24,32.38l-7.5,3.11s-8.18-20.51-10.32-20.15" transform="translate(-4.97 -79.87)" style="fill:#5490cc"/><path d="M215.92,463.33c2.56,8.08,23.38,11.14,23.38,11.14l1.16-3.71s-12.71-9.48-17.3-10.75" transform="translate(-4.97 -79.87)" style="fill:#5490cc"/><path d="M242.81,483.5c1.85.12,3.73.42,5.58.42a.21.21,0,0,0,0-.42,42.51,42.51,0,0,0-5.63-.4.2.2,0,0,0,0,.4Z" transform="translate(-4.97 -79.87)" style="fill:#053044"/><path d="M238,499.07c-6.92-.34-13.74,1.31-20.58,2.3s-14.09,1.33-20.4-1.49a3.32,3.32,0,0,0-1.68-.46,3.71,3.71,0,0,0-1.68.84,9.69,9.69,0,0,1-3.73,1.82,9.05,9.05,0,0,1-4.41-.41,1,1,0,0,0-.58,0v.12a8,8,0,0,0,5.51,2c2.52,0,5-.42,7.56-.49,1.68,0,6.9.42,8.6.49,7.56.3,11.76-1.38,19.33-2.3,3.11-.39,7.74-1.23,12-2.15A1.13,1.13,0,0,0,238,499.07Z" transform="translate(-4.97 -79.87)" style="fill:#053044"/><path d="M432.77,224a11.26,11.26,0,0,0-3.35-1.56c-1.68-.49-.86-1.78-2.66-1.46-3.36.57-11.33,2.15-16.12,3.48h-.14c-2.4.59-3.22,0-3.22,0l-1,1.14.14.4a3.81,3.81,0,0,0-1.48,2.77c0,.26-.29,1.23-.39,2.19s-.1,1.76.29,2.08H405a12.6,12.6,0,0,0,4.44.62,112.57,112.57,0,0,0,14-1.34c3.36-.46,6.72-.91,8.72-1.13a3.64,3.64,0,0,0,2.11-1,3.23,3.23,0,0,0,1.05-1.78A4.56,4.56,0,0,0,432.77,224Z" transform="translate(-4.97 -79.87)" style="fill:#5490cc"/><path d="M410.1,231a3.58,3.58,0,0,1-.52,1,3.27,3.27,0,0,1-.3.35c-3.55,3.54-8,0-10.62-2.08-3.69-3-8.06-8.18-11.5-11.46-.1-.1-1.38-1.19-1.24-1.37l3.17-4.15s8.5,7.71,13.44,9.45a33,33,0,0,1,5.82,2.37l.53.35A6.07,6.07,0,0,1,410.1,231Z" transform="translate(-4.97 -79.87)" style="fill:#5490cc"/><path d="M423.39,232.39a110.66,110.66,0,0,1-14,1.34,12.58,12.58,0,0,1-4.43-.62h-.14c-3.36-1.39-5.31-4.48-.28-2.08a19.33,19.33,0,0,0,2.83,1.16,12,12,0,0,0,1.89.17h.28C414.2,232.27,427.75,222.1,423.39,232.39Z" transform="translate(-4.97 -79.87)" style="fill:#337bc0"/><path d="M445.59,252a14.3,14.3,0,0,0-.66,8.26c1.23,5.48-.16,5.85-.16,5.85a71.16,71.16,0,0,1-13.61,6.72c-4.42,1.37-8.19,1.14-8.09-3.75h0v-.86c.2-11-2.09-11.55-2.66-23.84-.57-12.62-.45-20.16,3.6-22.14,4.4-2.22,10.46-3.73,19-1.68,6.45,1.51,8.58,3.23,8.53,8a37.33,37.33,0,0,1-.7,5.87A105.47,105.47,0,0,1,445.59,252Z" transform="translate(-4.97 -79.87)" style="fill:#5490cc"/><path d="M445.59,252a14.3,14.3,0,0,0-.66,8.26c1.23,5.48-.16,5.85-.16,5.85a71.16,71.16,0,0,1-13.61,6.72l-5.76-.56-2.25-1.88v-2.3a43.82,43.82,0,0,0,8.72-.24,36.68,36.68,0,0,0,8.55-2.13,3.35,3.35,0,0,0,2.09-3.71,50.23,50.23,0,0,1-.89-7.64,41.39,41.39,0,0,1,2.05-9.46,19,19,0,0,0,.78-7,59,59,0,0,1,0-8l4.56-2.47,2.56.94a37.47,37.47,0,0,1-.71,5.88A105,105,0,0,1,445.59,252Z" transform="translate(-4.97 -79.87)" style="fill:#337bc0"/><path d="M426,201.88a10.82,10.82,0,0,1-2.45-7.7,6.06,6.06,0,0,1,5-6.19c2.18-.52,5.27,1.12,7.49,3.59,6.9.57,9.15,5.32,9.42,10.72l-8.1-1.8Z" transform="translate(-4.97 -79.87)" style="fill:#073e60"/><path d="M444.06,205.34a13.21,13.21,0,0,1-5.49,9.77l.37,5.63-3.61,2.33-2.47,1.6-1.41-3-.2-3.63a1.89,1.89,0,0,0-1.48-1.68,6.89,6.89,0,0,1-3.51-2.11A2,2,0,0,1,426,214h0c-2.34-3.19-3.23-15.38,4.79-18.86C439.07,191.51,444.23,199.15,444.06,205.34Z" transform="translate(-4.97 -79.87)" style="fill:#f3a087"/><path d="M430,225s-3.54,21.93-2.2,32.45l2.47,4.48,2.71-4.89s-2.59-18.34-1.16-31.67Z" transform="translate(-4.97 -79.87)" style="fill:#15415b"/><path d="M429.53,223.14v.3A5.81,5.81,0,0,0,430,225h0l1.81.37,1.58-1.18-1.81-2.11-.29.08a3.79,3.79,0,0,0-1.68.94Z" transform="translate(-4.97 -79.87)" style="fill:#103649"/><path d="M438.89,218.12a5.72,5.72,0,0,1,1.68,1.78s-1.18.53-2.22,1.15-5.49,3.8-5.49,3.8l-1.33-2.75A36.09,36.09,0,0,1,438.89,218.12Z" transform="translate(-4.97 -79.87)" style="fill:#337bc0"/><path d="M431.55,222.1a3.8,3.8,0,0,0-2.08,1.68,5.63,5.63,0,0,1,.21-4.32,7.79,7.79,0,0,1,1.55-1.13Z" transform="translate(-4.97 -79.87)" style="fill:#337bc0"/><g style="opacity:0.5"><path d="M405.84,373.83c0,2.61,15.87,4.71,35.43,4.71s35.46-2.1,35.46-4.71-15.88-4.7-35.46-4.7S405.84,371.25,405.84,373.83Z" transform="translate(-4.97 -79.87)" style="fill:#dae4e5"/></g><path d="M424.51,367.65a7.78,7.78,0,0,0-.55,2.69c0,1.06,3.46,1.13,3.84.59a28.3,28.3,0,0,0,.59-5.43" transform="translate(-4.97 -79.87)" style="fill:#f3a087"/><path d="M428.69,371.85a23.68,23.68,0,0,1-.3,2.92h-3.9l-.18-.65a6.23,6.23,0,0,1-2.27.65h-3.36c-2.41,0-3.78-.31-3.84-.73-.25-1.77,2.62-1.68,3.36-1.68,2.15,0,4.48-1,5-2.1.37-.81.21-1,.64-.86a1.12,1.12,0,0,1,.67.59,2,2,0,0,0,2,1.11,2.35,2.35,0,0,0,1.32-.64A1.41,1.41,0,0,1,428.69,371.85Z" transform="translate(-4.97 -79.87)" style="fill:#3a3b3a"/><path d="M462.4,364a33.41,33.41,0,0,0,1.18,3.8c.47,1,3.64-.22,3.79-.88a29,29,0,0,0-1.46-5.25" transform="translate(-4.97 -79.87)" style="fill:#f3a087"/><path d="M468.5,367.45c.42,1,1,3,1,3l-3,1.76-.57-.44a5.68,5.68,0,0,1-1.56,1.68,12.42,12.42,0,0,1-2.92,1.21c-2.69.62-4.77.32-5,0-.89-1.54,2.69-2.4,3.36-2.67a4.85,4.85,0,0,0,3-3.93c0-.87-.17-1,.3-1a1.1,1.1,0,0,1,.83.28,2,2,0,0,0,2.3.27,2.28,2.28,0,0,0,1-1.07A1.41,1.41,0,0,1,468.5,367.45Z" transform="translate(-4.97 -79.87)" style="fill:#3a3b3a"/><path d="M448.71,288s5.29-12.68-3.94-21.84a51.1,51.1,0,0,1-14.18,4,30.79,30.79,0,0,1-7.49-.19,160,160,0,0,0-.5,23.68Z" transform="translate(-4.97 -79.87)" style="fill:#073e60"/><path d="M428.86,368.88h-.47a27,27,0,0,1-5.16-.35v-1c.19-14.49-1.57-38.21-1.91-45.7a8.66,8.66,0,0,1,0-1.44c.57-5.49,6.23-4.77,8.62.27a20.93,20.93,0,0,1,1.34,3.88,36.21,36.21,0,0,1,.87,5.47C433.31,342.6,429.87,359.53,428.86,368.88Z" transform="translate(-4.97 -79.87)" style="fill:#073e60"/><path d="M438.69,293.88v.47c-1.26,6.6-5.33,24.45-7.28,30.23h0a3.5,3.5,0,0,1-2.5,1.83c-2.84.77-7.1-.29-7.46-6a14,14,0,0,1,0-2.05c.37-4.62,1.4-30.23,1.6-32.62s.64-6,1.95-6.5C431.41,277,440.38,284.64,438.69,293.88Z" transform="translate(-4.97 -79.87)" style="fill:#073e60"/><path d="M432.64,320.14c2.08-7.71,4.94-20.45,6-25.79l-1.38-6.13-6.71-8-3.7-.53a69.15,69.15,0,0,0,4.94,21.6s0,13.57-1.83,19.38l-1.68,4.49c.17.4.31.81.44,1.22a40.87,40.87,0,0,1,1.68,17.4c-1.33,10.26-2.14,25.08-2.14,25.08h.47c.94-9,4.22-25.2,3.45-37.51a5.85,5.85,0,0,0-.11-1.31,32.07,32.07,0,0,1,.44-9.92Z" transform="translate(-4.97 -79.87)" style="fill:#053044"/><path d="M451.7,320.34c-4.4-4.13-10.5-2.16-7.66,4.25,3.06,6.85,12.5,25.9,17.62,39.47l.35.87a27.79,27.79,0,0,0,5.36-1.68c-2.43-8.81-4.21-24-9.27-34.56A28.8,28.8,0,0,0,451.7,320.34Z" transform="translate(-4.97 -79.87)" style="fill:#073e60"/><path d="M426.86,279.75c-.84-10.21,11.88-3.36,18,0a8.68,8.68,0,0,1,3.85,6.94c.35,2.67,3.64,30.23,4.3,35.17,1.49,11.31-8.4,5.13-9.31,2C441.31,315.88,427.33,285.31,426.86,279.75Z" transform="translate(-4.97 -79.87)" style="fill:#073e60"/><path d="M452.1,314.87a27.43,27.43,0,0,0,5,12.09s-7.44-3.36-7.79-3.95a28.33,28.33,0,0,1-1.53-6.29C447.89,316.08,452.1,314.87,452.1,314.87Z" transform="translate(-4.97 -79.87)" style="fill:#073e60"/><path d="M365.14,189.25c5.7-3.48,7.34-6.82,7.34-6.82a12.87,12.87,0,0,0,.14-2.15,9,9,0,0,0-5.55-8.89c-6.9-2.53-11.35,2.14-16.12-6.13a.24.24,0,0,1,0,.12C352.19,173.11,350.93,189.31,365.14,189.25Z" transform="translate(-4.97 -79.87)" style="fill:#fff"/><path d="M365.14,189.25c5.7-3.48,7.34-6.82,7.34-6.82a12.87,12.87,0,0,0,.14-2.15c-15.91,15-21.27-12.78-21.64-14.9C352.19,173.11,350.93,189.31,365.14,189.25Z" transform="translate(-4.97 -79.87)" style="fill:#ffe7c5"/><path d="M350.93,165.4a15,15,0,0,0,4.54,5.94,10.44,10.44,0,0,0,3.19,1.82,16.8,16.8,0,0,0,3.64.74,15.57,15.57,0,0,1,3.83.82,7.63,7.63,0,0,1,3.28,2.43,7.5,7.5,0,0,1,.77,7.49,7.7,7.7,0,0,0-1.41-7,7,7,0,0,0-2.89-2.07,23.6,23.6,0,0,0-3.63-.74,17.16,17.16,0,0,1-3.81-.89,11.54,11.54,0,0,1-3.36-2.11A13.49,13.49,0,0,1,350.93,165.4Z" transform="translate(-4.97 -79.87)" style="fill:#ffe7c5"/><path d="M350.93,165.4a24,24,0,0,0,2.86,6.46,16.27,16.27,0,0,0,4.8,5,24.8,24.8,0,0,0,3.13,1.58,17.56,17.56,0,0,1,3.12,1.92,8.58,8.58,0,0,1,2.33,2.85,6.84,6.84,0,0,1,.64,3.56,7.75,7.75,0,0,0-3.47-5.76,15.19,15.19,0,0,0-3-1.68,16.89,16.89,0,0,1-3.24-1.68,15.42,15.42,0,0,1-4.89-5.39A18.93,18.93,0,0,1,350.93,165.4Z" transform="translate(-4.97 -79.87)" style="fill:#ffe7c5"/><path d="M457.23,291.22a3.07,3.07,0,0,1-1.08-.23c-4.1-1.6-5.17-10.82-5.27-11.88l-.12-1.19,1.14.37c1,.32,9.89,3.36,10.73,7.47a3.94,3.94,0,0,1-1.67,3.83A5.32,5.32,0,0,1,457.23,291.22Zm-4.64-11c.49,3.09,1.78,8.4,4.13,9.35.91.34,2,0,3.24-1.14a2.48,2.48,0,0,0,1.15-2.32c-.49-2.42-5.55-4.8-8.52-5.89Z" transform="translate(-4.97 -79.87)" style="fill:#337bc0"/><rect x="406.52" y="173.02" width="10.03" height="122.36" transform="translate(-56.8 251.86) rotate(-41.53)" style="fill:#fec25e"/><rect x="364.82" y="185.29" width="10.03" height="3.49" transform="translate(-36.01 212.35) rotate(-41.53)" style="fill:#faa92e"/><rect x="406.52" y="173.02" width="10.03" height="122.36" transform="translate(-56.8 251.86) rotate(-41.53)" style="fill:#f7954c"/><rect x="364.82" y="185.29" width="10.03" height="3.49" transform="translate(-36.01 212.35) rotate(-41.53)" style="fill:#0f123b"/><polygon points="446.14 200.91 443.29 203.43 362.27 111.76 359.95 109.14 362.78 106.62 365.09 109.23 446.14 200.91" style="fill:#72616f;opacity:0.20000000298023224;isolation:isolate"/><rect x="446.39" y="278.34" width="10.03" height="1.95" transform="translate(-76.68 289.64) rotate(-41.53)" style="fill:#337bc0"/><path d="M441.24,269.67l-2.64-2.18s-1,1.29-1.49,1.45h-.56a4.65,4.65,0,0,0-2.11.65c-.62.29-1.45.56-1.48.79s.4.66.82.62H434a1.22,1.22,0,0,0,0,.27c.18.54,2.77,4.17,5.34.24A7.55,7.55,0,0,1,441.24,269.67Z" transform="translate(-4.97 -79.87)" style="fill:#f3a087"/><path d="M443.61,234.86A100.49,100.49,0,0,0,448.39,249l.15.3h0a3.13,3.13,0,0,0,.19.54,4.3,4.3,0,0,0,4.2,2.89h.9a15.69,15.69,0,0,0,1.68,0,1.84,1.84,0,0,0,1.58-.56h0a1.06,1.06,0,0,0,.09-.35V250.5a19.61,19.61,0,0,0-.26-3c-.37-4.06-4.38-16.79-5.74-22a3.75,3.75,0,0,0-1.24-2,3.38,3.38,0,0,0-1.9-.75h-.34a4.68,4.68,0,0,0-3.81,3.14,11.06,11.06,0,0,0-1.06,3.51A12.45,12.45,0,0,0,443.61,234.86Z" transform="translate(-4.97 -79.87)" style="fill:#5490cc"/><path d="M437.51,268.16l2.22,2h0l.57.5s4.5-3.91,8-7.22a39.52,39.52,0,0,0,8.6-10.61c.1-.19.2-.41.28-.59h0a1.06,1.06,0,0,0,.09-.35v-1a1.5,1.5,0,0,0,0-.3,3.67,3.67,0,0,0-.83-2.37l-.16-.2a3.67,3.67,0,0,0-.88-.64,3.42,3.42,0,0,0-.65-.27,6.28,6.28,0,0,0-5,.67l-.44.46c-.3.33-.6.69-.92,1.09a17.32,17.32,0,0,0-2.42,4.05A144.89,144.89,0,0,1,437.51,268.16Z" transform="translate(-4.97 -79.87)" style="fill:#5490cc"/><path d="M425.05,197.79a16,16,0,0,1,9.39,1.15,7.51,7.51,0,0,0,6.71.21l1.55-.72s-1.53-1.68-1.68-1.91a14.56,14.56,0,0,0-2.33-2c-.79-.33-4.12-1.41-4.54-1.47a9.19,9.19,0,0,0-2.67,0,6.6,6.6,0,0,0-2.08.68c-.54.27-2.07,1.23-2.07,1.23Z" transform="translate(-4.97 -79.87)" style="fill:#073e60"/><path d="M386.71,216.35s-3.83-3.36-4-5.66,1.68-3.81,2.8-2.4A9.25,9.25,0,0,1,387,214.2l.7.83Z" transform="translate(-4.97 -79.87)" style="fill:#f3a087"/><path d="M439.73,270.18h0l.57.5s4.5-3.91,8-7.22a39.52,39.52,0,0,0,8.6-10.61c.1-.19.2-.41.28-.59h0a1.06,1.06,0,0,0,.09-.35v-1a1.5,1.5,0,0,0,0-.3,21,21,0,0,0-.25-3c-.37-4.06-4.39-16.79-5.75-22.05a3.68,3.68,0,0,0-1.24-2,3.32,3.32,0,0,0-1.9-.76h-.33a35,35,0,0,1,3.35,9.62c1.78,7.36,3.06,11.76,3.56,14.65a5.91,5.91,0,0,1-1.05,5.73C450.78,257.94,442.93,268,439.73,270.18Z" transform="translate(-4.97 -79.87)" style="fill:#337bc0"/><path d="M438.57,215.11a20.82,20.82,0,0,1-.57-4.59s2.62-1.84,2.62-3.74c0-2.64-2.93,0-2.93,0a19.53,19.53,0,0,1-.75-3.71c-.24-2.94,4.73-5,4.73-5l2.61,1.88,1.24,2.45S445.64,212.61,438.57,215.11Z" transform="translate(-4.97 -79.87)" style="fill:#073e60"/><rect x="309.32" y="289.72" width="38.76" height="6.89" rx="0.89" transform="translate(-107.44 123.38) rotate(-29.95)" style="fill:#f37043"/><g style="opacity:0.550000011920929"><path d="M342.3,283.24a.15.15,0,0,1-.2,0l-.7-1.24.26-.15.71,1.24A.15.15,0,0,1,342.3,283.24Z" transform="translate(-4.97 -79.87)" style="fill:#afd4dd"/><path d="M341.33,282.77h-.1l-.31-.53h.14l.3.52Z" transform="translate(-4.97 -79.87)" style="fill:#afd4dd"/><path d="M341.19,283.88a.15.15,0,0,1-.21,0l-.71-1.22.27-.15.7,1.22A.12.12,0,0,1,341.19,283.88Z" transform="translate(-4.97 -79.87)" style="fill:#afd4dd"/><path d="M340.2,283.43h-.1l-.3-.54h.13l.31.52Z" transform="translate(-4.97 -79.87)" style="fill:#afd4dd"/><path d="M340.07,284.54a.18.18,0,0,1-.22,0l-.71-1.23.27-.17.71,1.25A.13.13,0,0,1,340.07,284.54Z" transform="translate(-4.97 -79.87)" style="fill:#afd4dd"/><path d="M339.18,284.08a.09.09,0,0,1-.12,0l-.3-.52.13-.08.31.54Z" transform="translate(-4.97 -79.87)" style="fill:#afd4dd"/><path d="M338.94,285.19a.16.16,0,0,1-.22,0L338,284l.27-.15L339,285A.17.17,0,0,1,338.94,285.19Z" transform="translate(-4.97 -79.87)" style="fill:#afd4dd"/><path d="M337.85,284.72l-.3-.53h.13l.31.52Z" transform="translate(-4.97 -79.87)" style="fill:#afd4dd"/><path d="M337.82,285.83a.18.18,0,0,1-.22,0l-.71-1.22.27-.16.71,1.23A.12.12,0,0,1,337.82,285.83Z" transform="translate(-4.97 -79.87)" style="fill:#afd4dd"/><path d="M336.74,285.38l-.32-.52.14-.09.3.54s0,0,0,.07Z" transform="translate(-4.97 -79.87)" style="fill:#afd4dd"/><path d="M336.69,286.49a.15.15,0,0,1-.2,0l-.72-1.23.27-.15.7,1.22A.18.18,0,0,1,336.69,286.49Z" transform="translate(-4.97 -79.87)" style="fill:#afd4dd"/><path d="M335.6,286l-.3-.54h.13l.31.52s.08,0,0,0Z" transform="translate(-4.97 -79.87)" style="fill:#afd4dd"/><path d="M335.57,287.12a.16.16,0,0,1-.22,0l-.71-1.22.27-.15.71,1.22A.12.12,0,0,1,335.57,287.12Z" transform="translate(-4.97 -79.87)" style="fill:#afd4dd"/><path d="M334.49,286.67l-.32-.52h.14l.3.54Z" transform="translate(-4.97 -79.87)" style="fill:#afd4dd"/><path d="M334.44,287.78a.15.15,0,0,1-.2,0l-.72-1.23.27-.15.7,1.24A.14.14,0,0,1,334.44,287.78Z" transform="translate(-4.97 -79.87)" style="fill:#afd4dd"/><path d="M333.37,287.31l-.3-.54h.11l.32.52Z" transform="translate(-4.97 -79.87)" style="fill:#afd4dd"/><path d="M333.32,288.42a.14.14,0,0,1-.19,0h0l-.71-1.23.25-.15.71,1.23A.13.13,0,0,1,333.32,288.42Z" transform="translate(-4.97 -79.87)" style="fill:#afd4dd"/><path d="M332.24,288l-.3-.52.13-.09.31.54Z" transform="translate(-4.97 -79.87)" style="fill:#afd4dd"/><path d="M332.19,289.07a.15.15,0,0,1-.2,0l-.71-1.24.26-.15.7,1.24A.12.12,0,0,1,332.19,289.07Z" transform="translate(-4.97 -79.87)" style="fill:#afd4dd"/><path d="M331.12,288.6l-.34-.6h.12l.32.54Z" transform="translate(-4.97 -79.87)" style="fill:#afd4dd"/><path d="M331.07,289.68a.14.14,0,0,1-.19,0h0l-.73-1.23.27-.15.72,1.23A.18.18,0,0,1,331.07,289.68Z" transform="translate(-4.97 -79.87)" style="fill:#afd4dd"/><path d="M330.09,289.26H330l-.3-.54h.13l.31.52Z" transform="translate(-4.97 -79.87)" style="fill:#afd4dd"/><path d="M329.94,290.37a.14.14,0,0,1-.19,0h0l-.71-1.23.26-.15.7,1.22A.14.14,0,0,1,329.94,290.37Z" transform="translate(-4.97 -79.87)" style="fill:#afd4dd"/><path d="M328.87,289.91l-.31-.52.14-.08.3.53a.11.11,0,0,1,0,.07Z" transform="translate(-4.97 -79.87)" style="fill:#afd4dd"/><path d="M328.82,291a.17.17,0,0,1-.21,0l-.7-1.23.25-.15.72,1.23A.16.16,0,0,1,328.82,291Z" transform="translate(-4.97 -79.87)" style="fill:#afd4dd"/><path d="M327.84,290.55h-.1l-.3-.54h.13l.31.52Z" transform="translate(-4.97 -79.87)" style="fill:#afd4dd"/><path d="M327.69,291.66a.15.15,0,0,1-.2,0l-.71-1.23.27-.15.71,1.23A.15.15,0,0,1,327.69,291.66Z" transform="translate(-4.97 -79.87)" style="fill:#afd4dd"/><path d="M326.62,291.21l-.31-.53.14-.08.3.54Z" transform="translate(-4.97 -79.87)" style="fill:#afd4dd"/><path d="M326.58,292.31a.16.16,0,0,1-.22,0l-.7-1.22.27-.15.7,1.22A.17.17,0,0,1,326.58,292.31Z" transform="translate(-4.97 -79.87)" style="fill:#afd4dd"/><path d="M325.49,291.84l-.3-.53h.13l.31.52Z" transform="translate(-4.97 -79.87)" style="fill:#afd4dd"/><path d="M325.44,293a.15.15,0,0,1-.2,0l-.71-1.23.27-.15.71,1.22A.17.17,0,0,1,325.44,293Z" transform="translate(-4.97 -79.87)" style="fill:#afd4dd"/><path d="M324.37,292.5l-.31-.52.14-.09.3.54Z" transform="translate(-4.97 -79.87)" style="fill:#afd4dd"/><path d="M324.33,293.61a.22.22,0,0,1-.22,0l-.7-1.25.27-.15.7,1.25A.17.17,0,0,1,324.33,293.61Z" transform="translate(-4.97 -79.87)" style="fill:#afd4dd"/><path d="M323.34,293.14h-.1l-.3-.54h.13l.3.52Z" transform="translate(-4.97 -79.87)" style="fill:#afd4dd"/><path d="M323.21,294.25a.18.18,0,0,1-.22,0l-.71-1.23.27-.15.71,1.22A.18.18,0,0,1,323.21,294.25Z" transform="translate(-4.97 -79.87)" style="fill:#afd4dd"/><path d="M322.22,293.79h-.1l-.31-.54.14-.08.3.54Z" transform="translate(-4.97 -79.87)" style="fill:#afd4dd"/><path d="M322.08,294.9a.18.18,0,0,1-.22,0l-.7-1.24.27-.15.7,1.24A.13.13,0,0,1,322.08,294.9Z" transform="translate(-4.97 -79.87)" style="fill:#afd4dd"/><path d="M321,294.43l-.3-.54h.13l.3.54s0,0,0,0Z" transform="translate(-4.97 -79.87)" style="fill:#afd4dd"/><path d="M321,295.56a.18.18,0,0,1-.22,0l-.71-1.23.27-.15.71,1.22A.24.24,0,0,1,321,295.56Z" transform="translate(-4.97 -79.87)" style="fill:#afd4dd"/><path d="M320,295.08h-.09l-.32-.53.14-.09.3.54S320,295.07,320,295.08Z" transform="translate(-4.97 -79.87)" style="fill:#afd4dd"/><path d="M319.83,296.19a.16.16,0,0,1-.22,0l-.7-1.22.27-.15.7,1.22A.12.12,0,0,1,319.83,296.19Z" transform="translate(-4.97 -79.87)" style="fill:#afd4dd"/><path d="M318.76,295.74l-.31-.52h.12l.32.54s0-.05,0,0Z" transform="translate(-4.97 -79.87)" style="fill:#afd4dd"/><path d="M318.71,296.85a.17.17,0,0,1-.21,0l-.72-1.23.27-.15.71,1.23A.17.17,0,0,1,318.71,296.85Z" transform="translate(-4.97 -79.87)" style="fill:#afd4dd"/><path d="M317.73,296.39h-.1l-.32-.53h.14l.3.52Z" transform="translate(-4.97 -79.87)" style="fill:#afd4dd"/><path d="M317.58,297.49a.18.18,0,0,1-.22,0l-.7-1.23.27-.15.7,1.23A.13.13,0,0,1,317.58,297.49Z" transform="translate(-4.97 -79.87)" style="fill:#afd4dd"/><path d="M316.51,297l-.31-.52.12-.08.3.54Z" transform="translate(-4.97 -79.87)" style="fill:#afd4dd"/><path d="M316.46,298.07a.14.14,0,0,1-.21,0l-.72-1.22.27-.15.71,1.22A.16.16,0,0,1,316.46,298.07Z" transform="translate(-4.97 -79.87)" style="fill:#afd4dd"/><path d="M315.38,297.67l-.3-.54h.12l.31.52Z" transform="translate(-4.97 -79.87)" style="fill:#afd4dd"/><path d="M315.33,298.78a.13.13,0,0,1-.19,0h0l-.71-1.23.26-.15.7,1.23A.13.13,0,0,1,315.33,298.78Z" transform="translate(-4.97 -79.87)" style="fill:#afd4dd"/><path d="M314.26,298.33l-.31-.52.14-.09.3.54Z" transform="translate(-4.97 -79.87)" style="fill:#afd4dd"/><path d="M314.2,299.43a.13.13,0,0,1-.2,0l-.7-1.22.25-.15.72,1.22A.15.15,0,0,1,314.2,299.43Z" transform="translate(-4.97 -79.87)" style="fill:#afd4dd"/><path d="M313.13,299l-.3-.53H313l.31.52Z" transform="translate(-4.97 -79.87)" style="fill:#afd4dd"/></g><path d="M401.57,478.25c0,2.6-14,4.71-31.34,4.71s-31.34-2.11-31.34-4.71,14-4.71,31.34-4.71S401.57,475.64,401.57,478.25Z" transform="translate(-4.97 -79.87)" style="fill:#dae4e5"/><path d="M378.33,468.25s.1,4.3.18,5.41,3.58,1.18,4,.61a31.16,31.16,0,0,0,.6-5.61" transform="translate(-4.97 -79.87)" style="fill:#f3a087"/><path d="M383.43,475.24a23.46,23.46,0,0,1-.32,3h-4l-.2-.68a6.38,6.38,0,0,1-2.33.68h-3.36c-2.51,0-3.92-.32-4-.76-.26-1.83,2.72-1.68,3.49-1.68,2.23,0,4.64-1,5.17-2.17.37-.82.2-1,.67-.87a1.15,1.15,0,0,1,.69.59,2,2,0,0,0,2.1,1.14,2.29,2.29,0,0,0,1.36-.65A1.48,1.48,0,0,1,383.43,475.24Z" transform="translate(-4.97 -79.87)" style="fill:#3a3b3a"/><path d="M364.17,467.08a31.51,31.51,0,0,0,1.22,3.94c.49,1,3.77-.21,3.93-.9a30,30,0,0,0-1.51-5.44" transform="translate(-4.97 -79.87)" style="fill:#f3a087"/><path d="M370.55,470.67c.42,1.08,1.06,3.12,1.06,3.12l-3.07,1.84-.59-.46a5.85,5.85,0,0,1-1.68,1.68,13.2,13.2,0,0,1-3,1.26c-2.8.64-5,.32-5.17,0-.92-1.68,2.77-2.5,3.5-2.79a5,5,0,0,0,3.09-4.06c0-.91-.19-1,.3-1.06a1.07,1.07,0,0,1,.85.29,2.07,2.07,0,0,0,2.39.3,2.54,2.54,0,0,0,1-1.13A1.47,1.47,0,0,1,370.55,470.67Z" transform="translate(-4.97 -79.87)" style="fill:#3a3b3a"/><path d="M385.72,369.13c1.44-1.07,3-2.27,4.51-3.53,3.36-2.87,6.49-6,6.87-8.26.83-5,.19-20.24-.23-27.37v-1.21c-.42-6.72-4.05-9.74-5.86-10.85-.93,8.78-3,28.55-3.19,29.61C387.55,348.83,385.72,369.13,385.72,369.13Z" transform="translate(-4.97 -79.87)" style="fill:#c5e6ef"/><path d="M385.7,369.13c1.46-1.07,3-2.27,4.53-3.53.14-5.57,1.8-13.43,4.14-23.12,2.77-12.29,1-14.56,1-14.56l-5.58.85c-.92,8.69-1.93,18.06-2.05,18.75C387.55,348.83,385.7,369.13,385.7,369.13Z" transform="translate(-4.97 -79.87)" style="fill:#afd4dd"/><path d="M372.3,415.33A129.67,129.67,0,0,0,374,432.48c.74,3.81,12.69,4.5,11.15,1.58-2.22-4.27,1.68-17.62,3.56-40.31.27-3.44,1.81-3.84,2.85-10.93a21.79,21.79,0,0,0-2.89-13.25L372.05,368l-.21,20.68v7S371.81,405.22,372.3,415.33Z" transform="translate(-4.97 -79.87)" style="fill:#073e60"/><path d="M383.73,431.39a17,17,0,0,1,2.81,11.28c-.45,7.29-3,29.08-3,29.08a15.72,15.72,0,0,1-5.76-.17s-4.11-40.39-4.13-45S383.73,431.39,383.73,431.39Z" transform="translate(-4.97 -79.87)" style="fill:#073e60"/><path d="M372.3,415.33a127.87,127.87,0,0,1,4.83-13.43,25.33,25.33,0,0,1,4.71-7.29c8.39-8.83,2.62-20.27,2.62-20.27s-6.86,5.67-7.34,6.26-3.19,5.38-5.21,8v7S371.81,405.22,372.3,415.33Z" transform="translate(-4.97 -79.87)" style="fill:#053044"/><path d="M352.61,412.61s-3.76,12.38-3.17,16.26,14.36,40.21,14.36,40.21a14.22,14.22,0,0,0,5.61-1.38s-.3-16-3-26-5.85-16.12-8.53-17S353.37,414.7,352.61,412.61Z" transform="translate(-4.97 -79.87)" style="fill:#073e60"/><path d="M364.79,420s-4.08,6.5-1.56,12.33-4.22,4.87-4.22,4.87-3.36-9.79-2.6-11.05,3.51-5.53,4.4-5.77C362.13,420.16,363.46,420,364.79,420Z" transform="translate(-4.97 -79.87)" style="fill:#15415b"/><path d="M360.68,368.29s-8.74,40.43-9.88,51.31c-.49,4.63,4.37,12.26,8.85,8.08,5.36-5,14-27.81,16.69-31.91s12.75-7.73,5.88-28.18" transform="translate(-4.97 -79.87)" style="fill:#073e60"/><path d="M382.24,314a19,19,0,0,1-.67-7c.52-3,2.32-8.4,1.68-12.4s-5.76-7.39-11.14-6.86-6.93,5.67-7.84,8.64a31,31,0,0,0-.52,10.08,7,7,0,0,0,2.47,4.94c.89.52,4.26-.17,4.85.47a15.85,15.85,0,0,1,1,4.45" transform="translate(-4.97 -79.87)" style="fill:#f3a087"/><path d="M384.78,317.19a6.69,6.69,0,0,0-1.2-3.19c-.9-.84-6.87-.84-8.66-.63a27.23,27.23,0,0,0-6.72,2.72c-.59.44.55,2.71.55,2.71Z" transform="translate(-4.97 -79.87)" style="fill:#c5e6ef"/><path d="M322.38,293.76c0-.42.59-.22.74.12v-1.1c0-.4.54-.26.72,0v-.58c0-.51.61-.31.74.11a5.88,5.88,0,0,1,.14.73v-.39c0-.44.54-.32.69,0s0,.34.15.82a9,9,0,0,1,.25,1.31,8.15,8.15,0,0,0,.27,1.21,5.08,5.08,0,0,0,2,1.51l1.16-.62a16.4,16.4,0,0,1,.29,2.71c-.09.62-.54,1.41-.49,1.78a8.83,8.83,0,0,0,.49,1.39l-3.23,1.33a8.29,8.29,0,0,0-.85-2.37,27.73,27.73,0,0,1-2.2-2.64,12.6,12.6,0,0,1-.47-1.59l-.36-1.1-.1-1.17S322.38,293.89,322.38,293.76Z" transform="translate(-4.97 -79.87)" style="fill:#f3a087"/><path d="M325.64,303.43s1.08,6.28,2.15,11.3a49.53,49.53,0,0,0,3.75,11.59v.1c1,2.29,3,5,4.36,5.39a38.44,38.44,0,0,0,6.07,0,131.28,131.28,0,0,0,16.54-1.68h.28c2.91-.4,5.58-.75,7.41-.94a3.86,3.86,0,0,0,2.25-1,3.34,3.34,0,0,0,1.09-1.9h0c.42-2-.9-3.63-2.63-4.82l-.26-.17c2.14-2.12,4.32-4.42,4.32-4.42s-6,.29-9.37.51c-2.29.17-17.87,4.33-19.73,4.92l-.41.13-.59.1-.36.12a20,20,0,0,0-2.27-4.26,156.66,156.66,0,0,1-8.79-16.09l-3,.9h0Z" transform="translate(-4.97 -79.87)" style="fill:#c5e6ef"/><path d="M382,308.89s-7.45.64-8.88,0a5.61,5.61,0,0,1-3.64-4.55c-.21-2.54.33-3.36-.64-4.74s-1.83-.94-2,.41-.21,3.77-.56,3.94-1-1.46-.87-4.05a16.16,16.16,0,0,1,1.09-5.49c.67-1.49,1-1.41,1.68-1.68a4.6,4.6,0,0,1-2.65-2.36,3.71,3.71,0,0,1,3.35-6c6.91,0,14.26,1.38,14.41,6.5,0,0,2.42-.37,2.49,4.3s-2.91,10.3-3.12,11.76S382.84,308.55,382,308.89Z" transform="translate(-4.97 -79.87)" style="fill:#073e60"/><path d="M361.26,363.76c-.28,2.33-2.33,5.94-.92,6.45A26.6,26.6,0,0,0,366,370h.2c2.49-.22,5.31-.49,7.7-.67,9.48-.41,14.34,1.49,15.28.95.47-.28.47-1.1.33-1.94a21.46,21.46,0,0,1-.15-6.3c.24-1.77.56-3.86,1-6.27,1.56-8.31,4.64-21,5-28.66.74-12-12.09-10.84-12.09-10.84-16.33-1-24,3.68-24.88,10.7,0,.49-.1,1-.13,1.58-.42,7.24,1.78,18.91,2.82,27.64A45.08,45.08,0,0,1,361.26,363.76Z" transform="translate(-4.97 -79.87)" style="fill:#c5e6ef"/><path d="M361.26,363.76c-.28,2.33-2.33,5.94-.92,6.45A26.6,26.6,0,0,0,366,370c-2.53.18-3-1.68-2.43-3a18.55,18.55,0,0,0,1.68-7.73c-.12-3.47-1.41-11.3-2.19-18.71a59.92,59.92,0,0,1,0-13c-.38.77-1.51,1.88-4.67,2.61,0,7.27,1.92,17.93,2.88,26A45.08,45.08,0,0,1,361.26,363.76Z" transform="translate(-4.97 -79.87)" style="fill:#afd4dd"/><path d="M160.5,213l18.21-43.44-13.54,2.73H165l-27.06,5.48-.45.08-27.26,5.53-.45.08-13.29,2.69Zm4.55-32.36-8.63,20.61-30.63-12.85Z" transform="translate(-4.97 -79.87)" style="fill:#f37043"/><g style="opacity:0.5"><path d="M103.87,184.73h.29l.4,2a.16.16,0,0,1-.11.19h0a.13.13,0,0,1-.16-.1v0Z" transform="translate(-4.97 -79.87)" style="fill:#fab17e"/><path d="M104.59,184.58h.2l.21,1a.17.17,0,0,1-.09.14.13.13,0,0,1-.13-.09Z" transform="translate(-4.97 -79.87)" style="fill:#fab17e"/></g><g style="opacity:0.5"><path d="M105.25,184.44h.3l.39,2a.18.18,0,0,1-.1.19.18.18,0,0,1-.19-.14Z" transform="translate(-4.97 -79.87)" style="fill:#fab17e"/><path d="M106,184.29h.22l.18,1a.1.1,0,0,1-.06.13h0a.09.09,0,0,1-.12,0Z" transform="translate(-4.97 -79.87)" style="fill:#fab17e"/></g><g style="opacity:0.5"><path d="M106.64,184.16h.29l.4,2a.16.16,0,0,1-.11.19h0a.17.17,0,0,1-.18-.14Z" transform="translate(-4.97 -79.87)" style="fill:#fab17e"/><path d="M107.41,184h.22l.2,1v.12a.09.09,0,0,1-.12-.06,0,0,0,0,1,0,0Z" transform="translate(-4.97 -79.87)" style="fill:#fab17e"/></g><g style="opacity:0.5"><path d="M108,183.87h.3l.39,2a.15.15,0,0,1-.1.18.16.16,0,0,1-.19-.11h0Z" transform="translate(-4.97 -79.87)" style="fill:#fab17e"/><path d="M108.74,183.74h.2l.2,1a.12.12,0,0,1,0,.14.13.13,0,0,1-.11-.1Z" transform="translate(-4.97 -79.87)" style="fill:#fab17e"/></g><g style="opacity:0.5"><path d="M109.41,183.6h.31l.38,2a.17.17,0,0,1-.12.2.17.17,0,0,1-.18-.13Z" transform="translate(-4.97 -79.87)" style="fill:#fab17e"/><path d="M110.14,183.45h.2l.2,1a.13.13,0,0,1-.09.13.11.11,0,0,1-.13,0Z" transform="translate(-4.97 -79.87)" style="fill:#fab17e"/></g><g style="opacity:0.5"><path d="M110.77,183.33h.31l.4,2a.15.15,0,0,1-.11.18h0a.15.15,0,0,1-.16-.13Z" transform="translate(-4.97 -79.87)" style="fill:#fab17e"/><path d="M111.51,183.18h.2l.21,1s0,.1-.09.11-.1,0-.12-.08Z" transform="translate(-4.97 -79.87)" style="fill:#fab17e"/></g><g style="opacity:0.5"><path d="M112.18,183.05h.31l.38,2a.15.15,0,0,1-.15.16.15.15,0,0,1-.15-.15h0Z" transform="translate(-4.97 -79.87)" style="fill:#fab17e"/><path d="M112.91,182.9h.2l.18.95V184a.11.11,0,0,1-.13,0Z" transform="translate(-4.97 -79.87)" style="fill:#fab17e"/></g><g style="opacity:0.5"><path d="M113.56,182.76h.3l.41,2a.16.16,0,0,1-.16.15.15.15,0,0,1-.15-.15Z" transform="translate(-4.97 -79.87)" style="fill:#fab17e"/><path d="M114.28,182.61h.22l.19,1a.1.1,0,0,1-.06.13h-.15Z" transform="translate(-4.97 -79.87)" style="fill:#fab17e"/></g><g style="opacity:0.5"><path d="M115,182.48h.28l.4,2a.16.16,0,0,1-.11.19h0a.15.15,0,0,1-.17-.13h0Z" transform="translate(-4.97 -79.87)" style="fill:#fab17e"/><path d="M115.68,182.34h.2l.2,1a.12.12,0,0,1-.15.07.16.16,0,0,1-.07-.07Z" transform="translate(-4.97 -79.87)" style="fill:#fab17e"/></g><g style="opacity:0.5"><path d="M116.33,182.19h.3l.41,2a.15.15,0,0,1-.11.18h0a.16.16,0,0,1-.18-.12Z" transform="translate(-4.97 -79.87)" style="fill:#fab17e"/><path d="M117.05,182.06h.22l.19,1a.11.11,0,0,1-.1.1.1.1,0,0,1-.1-.1h0Z" transform="translate(-4.97 -79.87)" style="fill:#fab17e"/></g><g style="opacity:0.5"><path d="M117.73,181.92H118l.4,2a.14.14,0,0,1-.11.18h0a.14.14,0,0,1-.17-.09v0Z" transform="translate(-4.97 -79.87)" style="fill:#fab17e"/><path d="M118.45,181.77h.2l.2,1a.13.13,0,0,1-.08.13.12.12,0,0,1-.14,0Z" transform="translate(-4.97 -79.87)" style="fill:#fab17e"/></g><g style="opacity:0.5"><path d="M119.17,181.64h.3l.39,2a.16.16,0,0,1-.1.19.18.18,0,0,1-.19-.14Z" transform="translate(-4.97 -79.87)" style="fill:#fab17e"/><path d="M119.83,181.5H120l.19,1a.1.1,0,0,1-.06.13h0a.1.1,0,0,1-.11-.09h0Z" transform="translate(-4.97 -79.87)" style="fill:#fab17e"/></g><g style="opacity:0.5"><path d="M120.5,181.37h.28l.41,2a.15.15,0,0,1-.11.19h0a.18.18,0,0,1-.19-.12Z" transform="translate(-4.97 -79.87)" style="fill:#fab17e"/><path d="M121.22,181.22h.2l.2,1v.12a.11.11,0,0,1-.13,0Z" transform="translate(-4.97 -79.87)" style="fill:#fab17e"/></g><g style="opacity:0.5"><path d="M121.87,181.08h.31l.4,2a.16.16,0,0,1-.13.18.15.15,0,0,1-.17-.11Z" transform="translate(-4.97 -79.87)" style="fill:#fab17e"/><path d="M122.53,180.93h.2l.2,1a.11.11,0,0,1,0,.13.12.12,0,0,1-.12-.1Z" transform="translate(-4.97 -79.87)" style="fill:#fab17e"/></g><g style="opacity:0.5"><path d="M123.27,180.8h.3l.39,1.95a.16.16,0,1,1-.31.06Z" transform="translate(-4.97 -79.87)" style="fill:#fab17e"/><path d="M124,180.66h.2l.2,1a.11.11,0,1,1-.21,0Z" transform="translate(-4.97 -79.87)" style="fill:#fab17e"/></g><g style="opacity:0.5"><path d="M124.65,180.51h.3l.4,2a.15.15,0,0,1-.11.18h0a.15.15,0,0,1-.18-.11v0Z" transform="translate(-4.97 -79.87)" style="fill:#fab17e"/><path d="M125.37,180.38h.2l.2,1s0,.1-.08.12a.2.2,0,0,1-.12,0Z" transform="translate(-4.97 -79.87)" style="fill:#fab17e"/></g><g style="opacity:0.5"><path d="M126,180.24h.28l.41,2a.15.15,0,0,1-.15.15.15.15,0,0,1-.15-.15Z" transform="translate(-4.97 -79.87)" style="fill:#fab17e"/><path d="M126.76,180.09h.2l.2,1a.1.1,0,0,1-.08.12h0a.1.1,0,0,1-.13-.06v0Z" transform="translate(-4.97 -79.87)" style="fill:#fab17e"/></g><g style="opacity:0.5"><path d="M127.42,180h.3l.4,1.95a.15.15,0,0,1-.15.15.15.15,0,0,1-.15-.15h0Z" transform="translate(-4.97 -79.87)" style="fill:#fab17e"/><path d="M128.14,179.81h.22l.18.95a.1.1,0,0,1-.06.13h0s-.12,0-.12-.08Z" transform="translate(-4.97 -79.87)" style="fill:#fab17e"/></g><g style="opacity:0.5"><path d="M128.81,179.67h.29l.4,2a.15.15,0,0,1-.11.18h0a.16.16,0,0,1-.17-.13h0Z" transform="translate(-4.97 -79.87)" style="fill:#fab17e"/><path d="M129.53,179.54h.2l.21,1a.14.14,0,0,1-.09.13.11.11,0,0,1-.13,0Z" transform="translate(-4.97 -79.87)" style="fill:#fab17e"/></g><g style="opacity:0.5"><path d="M130.19,179.4h.3l.39,2a.15.15,0,0,1-.1.18.15.15,0,0,1-.19-.11Z" transform="translate(-4.97 -79.87)" style="fill:#fab17e"/><path d="M130.93,179.25h.22l.18,1a.1.1,0,0,1-.2,0h0Z" transform="translate(-4.97 -79.87)" style="fill:#fab17e"/></g><g style="opacity:0.5"><path d="M131.58,179.12h.29l.4,2a.16.16,0,0,1-.15.16.15.15,0,0,1-.15-.15h0Z" transform="translate(-4.97 -79.87)" style="fill:#fab17e"/><path d="M132.29,179h.22l.2,1a.17.17,0,0,1-.09.13.13.13,0,0,1-.13-.08Z" transform="translate(-4.97 -79.87)" style="fill:#fab17e"/></g><g style="opacity:0.5"><path d="M133,178.83h.3l.39,2a.15.15,0,0,1-.11.18h0a.17.17,0,0,1-.17-.13Z" transform="translate(-4.97 -79.87)" style="fill:#fab17e"/><path d="M133.68,178.7h.22l.18,1a.11.11,0,0,1-.08.13h-.12Z" transform="translate(-4.97 -79.87)" style="fill:#fab17e"/></g><g style="opacity:0.5"><path d="M134.29,178.56h.3l.38,2a.15.15,0,0,1-.11.18h0a.16.16,0,0,1-.19-.11Z" transform="translate(-4.97 -79.87)" style="fill:#fab17e"/><path d="M135.07,178.41h.21l.2,1v.12a.11.11,0,0,1-.13-.07,0,0,0,0,1,0,0Z" transform="translate(-4.97 -79.87)" style="fill:#fab17e"/></g><g style="opacity:0.5"><path d="M135.73,178.28h.3l.41,2a.18.18,0,0,1-.14.19.15.15,0,0,1-.17-.12Z" transform="translate(-4.97 -79.87)" style="fill:#fab17e"/><path d="M136.45,178.13h.2l.21,1a.08.08,0,0,1,0,.11h-.12Z" transform="translate(-4.97 -79.87)" style="fill:#fab17e"/></g><g style="opacity:0.5"><path d="M137.12,178h.31l.38,2a.15.15,0,0,1-.12.17.15.15,0,0,1-.18-.11h0Z" transform="translate(-4.97 -79.87)" style="fill:#fab17e"/><path d="M137.85,177.86h.2l.18,1a.09.09,0,0,1,0,.13.15.15,0,0,1-.13,0Z" transform="translate(-4.97 -79.87)" style="fill:#fab17e"/></g><g style="opacity:0.5"><path d="M138.5,177.72h.3l.41,2a.15.15,0,0,1-.11.18h0a.16.16,0,0,1-.19-.13Z" transform="translate(-4.97 -79.87)" style="fill:#fab17e"/><path d="M139.22,177.57h.22l.19,1a.12.12,0,0,1-.09.12.1.1,0,0,1-.11-.08h0Z" transform="translate(-4.97 -79.87)" style="fill:#fab17e"/></g><g style="opacity:0.5"><path d="M139.89,177.44h.29l.4,1.95a.15.15,0,0,1-.11.18h0a.13.13,0,0,1-.17-.09v0Z" transform="translate(-4.97 -79.87)" style="fill:#fab17e"/><path d="M140.62,177.31h.2l.2.95s0,.12-.08.12a.12.12,0,0,1-.14,0Z" transform="translate(-4.97 -79.87)" style="fill:#fab17e"/></g><g style="opacity:0.5"><path d="M141.27,177.15h.3l.41,1.95a.2.2,0,0,1-.12.19.15.15,0,0,1-.18-.11h0Z" transform="translate(-4.97 -79.87)" style="fill:#fab17e"/><path d="M142,177h.22l.19,1a.1.1,0,0,1-.06.13h-.14Z" transform="translate(-4.97 -79.87)" style="fill:#fab17e"/></g><g style="opacity:0.5"><path d="M142.68,176.89H143l.4,2a.15.15,0,0,1-.11.18h0a.16.16,0,0,1-.18-.13Z" transform="translate(-4.97 -79.87)" style="fill:#fab17e"/><path d="M143.39,176.73h.2l.2.94a.13.13,0,0,1-.08.14.13.13,0,0,1-.14-.09Z" transform="translate(-4.97 -79.87)" style="fill:#fab17e"/></g><g style="opacity:0.5"><path d="M144,176.6h.31l.38,2a.14.14,0,0,1-.1.18.17.17,0,0,1-.18-.11Z" transform="translate(-4.97 -79.87)" style="fill:#fab17e"/><path d="M144.77,176.47H145l.19.95a.1.1,0,0,1-.1.1.09.09,0,0,1-.1-.1h0Z" transform="translate(-4.97 -79.87)" style="fill:#fab17e"/></g><g style="opacity:0.5"><path d="M145.44,176.33h.28l.41,1.95a.16.16,0,0,1-.16.15.15.15,0,0,1-.15-.15Z" transform="translate(-4.97 -79.87)" style="fill:#fab17e"/><path d="M146.16,176.18h.2l.2,1a.14.14,0,0,1-.08.13.12.12,0,0,1-.14,0Z" transform="translate(-4.97 -79.87)" style="fill:#fab17e"/></g><g style="opacity:0.5"><path d="M146.81,176.05h.31l.4,2a.2.2,0,0,1-.13.19.16.16,0,0,1-.17-.14Z" transform="translate(-4.97 -79.87)" style="fill:#fab17e"/><path d="M147.54,175.89h.21l.19.94a.13.13,0,0,1-.08.14s-.11,0-.12-.08Z" transform="translate(-4.97 -79.87)" style="fill:#fab17e"/></g><g style="opacity:0.5"><path d="M148.21,175.76h.3l.39,2a.15.15,0,0,1-.11.19h0a.18.18,0,0,1-.19-.12Z" transform="translate(-4.97 -79.87)" style="fill:#fab17e"/><path d="M148.93,175.61h.2l.19,1a.11.11,0,0,1,0,.11.12.12,0,0,1-.14,0Z" transform="translate(-4.97 -79.87)" style="fill:#fab17e"/></g><g style="opacity:0.5"><path d="M149.59,175.47h.3l.4,1.95a.16.16,0,0,1-.11.19h0a.15.15,0,0,1-.18-.11h0Z" transform="translate(-4.97 -79.87)" style="fill:#fab17e"/><path d="M150.31,175.34h.2l.2,1a.1.1,0,0,1-.1.1.11.11,0,0,1-.1-.1h0Z" transform="translate(-4.97 -79.87)" style="fill:#fab17e"/></g><g style="opacity:0.5"><path d="M151,175.21h.3l.39,2a.13.13,0,0,1-.1.16h0a.15.15,0,0,1-.18-.11h0Z" transform="translate(-4.97 -79.87)" style="fill:#fab17e"/><path d="M151.7,175.05h.2l.2,1a.11.11,0,0,1-.08.14.13.13,0,0,1-.13-.09Z" transform="translate(-4.97 -79.87)" style="fill:#fab17e"/></g><g style="opacity:0.5"><path d="M152.37,174.92h.29l.4,2a.15.15,0,0,1-.11.18h0a.17.17,0,0,1-.18-.13Z" transform="translate(-4.97 -79.87)" style="fill:#fab17e"/><path d="M153.08,174.77h.22l.18,1s0,.1-.08.11a.09.09,0,0,1-.12,0Z" transform="translate(-4.97 -79.87)" style="fill:#fab17e"/></g><g style="opacity:0.5"><path d="M153.75,174.63H154l.4,2a.16.16,0,0,1-.11.19h0a.13.13,0,0,1-.16-.1v0Z" transform="translate(-4.97 -79.87)" style="fill:#fab17e"/><path d="M154.44,174.5h.2l.2,1s0,.12-.08.12a.11.11,0,0,1-.13-.07v0Z" transform="translate(-4.97 -79.87)" style="fill:#fab17e"/></g><g style="opacity:0.5"><path d="M155.13,174.37h.3l.39,1.94a.17.17,0,0,1-.1.19.15.15,0,0,1-.19-.11h0Z" transform="translate(-4.97 -79.87)" style="fill:#fab17e"/><path d="M155.85,174.21h.22l.18,1a.1.1,0,0,1-.06.13h0s-.12,0-.12-.09Z" transform="translate(-4.97 -79.87)" style="fill:#fab17e"/></g><g style="opacity:0.5"><path d="M156.52,174.08h.29l.4,2a.15.15,0,0,1-.11.18h0a.17.17,0,0,1-.18-.13Z" transform="translate(-4.97 -79.87)" style="fill:#fab17e"/><path d="M157.24,173.93h.21l.2.94a.13.13,0,0,1-.09.13.11.11,0,0,1-.13,0Z" transform="translate(-4.97 -79.87)" style="fill:#fab17e"/></g><g style="opacity:0.5"><path d="M157.9,173.8h.3l.39,1.94a.16.16,0,0,1-.11.19h0a.17.17,0,0,1-.17-.12Z" transform="translate(-4.97 -79.87)" style="fill:#fab17e"/><path d="M158.62,173.64h.22l.18,1a.1.1,0,0,1-.08.12h0a.12.12,0,0,1-.12-.09Z" transform="translate(-4.97 -79.87)" style="fill:#fab17e"/></g><g style="opacity:0.5"><path d="M159.29,173.53h.3l.39,1.94a.16.16,0,0,1-.15.16.15.15,0,0,1-.15-.15h0Z" transform="translate(-4.97 -79.87)" style="fill:#fab17e"/><path d="M160,173.38h.21l.2,1a.14.14,0,0,1-.1.14.14.14,0,0,1-.12-.09Z" transform="translate(-4.97 -79.87)" style="fill:#fab17e"/></g><g style="opacity:0.5"><path d="M160.67,173.24h.3l.41,2a.19.19,0,0,1-.14.18.16.16,0,0,1-.17-.13h0Z" transform="translate(-4.97 -79.87)" style="fill:#fab17e"/><path d="M161.39,173.09h.2l.2.94a.1.1,0,0,1-.06.13h-.14Z" transform="translate(-4.97 -79.87)" style="fill:#fab17e"/></g><g style="opacity:0.5"><path d="M162.06,173h.31l.38,1.94a.16.16,0,0,1-.11.19h0a.16.16,0,0,1-.18-.12Z" transform="translate(-4.97 -79.87)" style="fill:#fab17e"/><path d="M162.84,172.8h.2l.18,1a.09.09,0,0,1,0,.12.1.1,0,0,1-.13-.06v0Z" transform="translate(-4.97 -79.87)" style="fill:#fab17e"/></g><g style="opacity:0.5"><path d="M163.44,172.67h.3l.41,2a.16.16,0,0,1-.16.15.15.15,0,0,1-.15-.15Z" transform="translate(-4.97 -79.87)" style="fill:#fab17e"/><path d="M164.16,172.54h.22l.19,1a.1.1,0,0,1-.1.1.11.11,0,0,1-.11-.1h0Z" transform="translate(-4.97 -79.87)" style="fill:#fab17e"/></g><g style="opacity:0.5"><path d="M164.83,172.4h.29l.4,2a.15.15,0,0,1-.19.09.16.16,0,0,1-.09-.09Z" transform="translate(-4.97 -79.87)" style="fill:#fab17e"/><path d="M165.56,172.25h.2l.2.94a.12.12,0,0,1-.15.07.16.16,0,0,1-.07-.07Z" transform="translate(-4.97 -79.87)" style="fill:#fab17e"/></g><g style="opacity:0.5"><path d="M166.2,172.12h.28l.39,1.94a.17.17,0,0,1-.1.19.18.18,0,0,1-.19-.14Z" transform="translate(-4.97 -79.87)" style="fill:#fab17e"/><path d="M166.93,172h.22l.19,1a.12.12,0,0,1-.09.12.1.1,0,0,1-.11-.09h0Z" transform="translate(-4.97 -79.87)" style="fill:#fab17e"/></g><g style="opacity:0.5"><path d="M167.61,171.85h.28l.4,2a.14.14,0,0,1-.15.15.15.15,0,0,1-.15-.15h0Z" transform="translate(-4.97 -79.87)" style="fill:#fab17e"/><path d="M168.33,171.7h.2l.2.94s0,.11-.08.11a.09.09,0,0,1-.13-.06,0,0,0,0,1,0,0Z" transform="translate(-4.97 -79.87)" style="fill:#fab17e"/></g><g style="opacity:0.5"><path d="M169,171.56h.31l.38,1.93a.16.16,0,0,1-.1.19.15.15,0,0,1-.18-.11h0Z" transform="translate(-4.97 -79.87)" style="fill:#fab17e"/><path d="M169.71,171.41h.21l.19.94a.13.13,0,0,1-.09.14h-.11Z" transform="translate(-4.97 -79.87)" style="fill:#fab17e"/></g><g style="opacity:0.5"><path d="M170.38,171.28h.28l.41,1.94a.15.15,0,0,1-.11.19h0a.18.18,0,0,1-.19-.14Z" transform="translate(-4.97 -79.87)" style="fill:#fab17e"/><path d="M171.1,171.14h.2l.2.94a.14.14,0,0,1-.08.14.14.14,0,0,1-.17,0,.19.19,0,0,1,0-.07Z" transform="translate(-4.97 -79.87)" style="fill:#fab17e"/></g><path d="M102.53,182.58c-1.38,10.56,3,21.24,7.35,18.3,6.89-4.61,17.12-19.78,18.11-19.81a21.69,21.69,0,0,0,2.77.35,16.74,16.74,0,0,0,3-.45.37.37,0,0,0,.37-.31.34.34,0,0,0-.17-.26,2.35,2.35,0,0,0-1.21-.31c-.35,0-.81,0-.91-.38a.55.55,0,0,1,.24-.54,1.45,1.45,0,0,1,.57-.24c1.07-.28,2.43-.53,3.53-.8-.68-.2-1.68-.42-2.29-.57a7.91,7.91,0,0,0-1.53-.27,19,19,0,0,0-3.2.12,9.5,9.5,0,0,0-3.36,1.29,14.79,14.79,0,0,0-2.29,1.54c-1.86,1.45-8.91,9.73-10.46,10.87" transform="translate(-4.97 -79.87)" style="fill:#db856e"/><path d="M144.08,218.12a48.27,48.27,0,0,0-3.23,11.37c-.75,5.17,2.14,13.43,1.8,19.39a19.17,19.17,0,0,1-.71,4.82c-.55,1-1.78,2.17-1.91,3.55a2.12,2.12,0,0,0,1.38,2.06,2.79,2.79,0,0,0,1.94,0c2,.17,2.37,1.68,5.82,2.05a5.36,5.36,0,0,0,3.59-1,.71.71,0,0,0,.15-1l0,0c-.2-.3-2.75-1.06-3.89-1.68a6.84,6.84,0,0,1-2.5-3.05,28.61,28.61,0,0,1,.52-5.46c1.47-9.67,3.35-23.28,4.3-28.94" transform="translate(-4.97 -79.87)" style="fill:#db856e"/><path d="M153.05,260.56c.23-.42.28-1.05,0-1.2-.7-.42-1.42-.81-2.15-1.16s-1.68-.5-1.37-.31-.3.92-.92.9c-2.15,0-3.76-1.38-5-1.68a3.34,3.34,0,0,1-2.28-2.62,8.36,8.36,0,0,0-1.58,2.32,3.74,3.74,0,0,0-.23,1.78,3.84,3.84,0,0,1,.21,1.68,3.61,3.61,0,0,0,1.28.4,5.31,5.31,0,0,0,1.38,0l.13-1.06a6.61,6.61,0,0,1,1.09,0,3.66,3.66,0,0,1,1.68.84c.27.26.52.68.86.81a7,7,0,0,0,2.77.55C151.28,262,152.63,261.26,153.05,260.56Z" transform="translate(-4.97 -79.87)" style="fill:#073e60"/><path d="M114.72,205.27l-15.6,8.92a9.85,9.85,0,0,0,8,7.37c4.1.87,10.55-.3,12.25-.22S148,222.4,148,222.4s2.67.59,3.15-1.51c.74-3.36,0-4.34-2.21-5.81C145.22,212.61,130.93,207.9,114.72,205.27Z" transform="translate(-4.97 -79.87)" style="fill:#db856e"/><path d="M143.77,220.22a49.13,49.13,0,0,0,0,11.75c.71,5.16,6,13.79,7.38,19.65a20.06,20.06,0,0,1,.65,4.82c-.25,1.16-1.12,2.59-.85,3.95a2.12,2.12,0,0,0,1.88,1.68c1,.16,1.51-.51,1.84-.57,2-.39,2.74.89,6.17.37a5.57,5.57,0,0,0,3.19-1.95.7.7,0,0,0-.13-1l0,0c-.29-.24-2.94-.25-4.23-.57a7,7,0,0,1-3.25-2.27,27.19,27.19,0,0,1-1-5.37c-1.26-9.71-3.72-26.07-4.32-31.76" transform="translate(-4.97 -79.87)" style="fill:#ed9d80"/><path d="M164.38,260.05c.14-.47,0-1.07-.25-1.16a21.82,21.82,0,0,0-2.4-.52h-1.4c.41,0,0,1-.63,1.13-2.09.53-4-.29-5.24-.2a3.37,3.37,0,0,1-2.93-1.89,9.27,9.27,0,0,0-.89,2.66,4.18,4.18,0,0,0,.27,1.78,3.86,3.86,0,0,1,.67,1.54,3.08,3.08,0,0,0,1.35,0,5.09,5.09,0,0,0,1.31-.4l-.17-1.06a5.67,5.67,0,0,1,1.07-.23,3.78,3.78,0,0,1,1.85.35,3.5,3.5,0,0,0,1,.52,6.88,6.88,0,0,0,2.82-.22C163.09,261.88,164.18,260.86,164.38,260.05Z" transform="translate(-4.97 -79.87)" style="fill:#073e60"/><path d="M115,206.38l-15.6,8.91s.64,5.68,7.69,7.19c4.1.88,10.9-.12,12.59,0s28.56,1.06,28.56,1.06,2.63.57,2.77-1.6c.18-2.87.38-4.26-1.83-5.72C145.54,213.72,131.25,209.06,115,206.38Z" transform="translate(-4.97 -79.87)" style="fill:#ed9d80"/><path d="M102.46,201.42s-4.89,9.51-3.63,13.56,3.63,7.87,10.33,7.92,23.51,0,23.51,0a25.14,25.14,0,0,1,2.05-7.1,20.93,20.93,0,0,1,3.86-4.87s-17-5.26-18.2-6.38a14.67,14.67,0,0,1-2.35-3.63" transform="translate(-4.97 -79.87)" style="fill:#073e60"/><path d="M105.3,170.65a33.48,33.48,0,0,0-3.55,13.44,40.17,40.17,0,0,0,6.72,1" transform="translate(-4.97 -79.87)" style="fill:#c5e6ef"/><path d="M118.31,167.08c.89.3.56,2.43,1.45,2.73s1.93,0,2.52.26c3.15,1.78,2.35,5.34,2.72,9.72,1.34,3.36,1.68,6.43.64,8.4-1.33,2.35-2.72,3-4.35,4.94-1.21,1.46-1.6,4.43-1.85,7.64a11.89,11.89,0,0,1,.28,2c-.26,1-1.83,1.34-3.57,1.37-4,0-10.08-1.37-11.88-1.31s-3.27-.75-3.1-1.68c.11-.7.8-1,1.09-2.33.6-3,1.06-10.35,1.53-12.85a69.9,69.9,0,0,1,4.72-17.26" transform="translate(-4.97 -79.87)" style="fill:#c5e6ef"/><path d="M127.42,182.48a30.16,30.16,0,0,0-3.63-4.77l-3.36,1.54c1.68,3.09,1.9,6.72,2.64,10.08a7.79,7.79,0,0,0,2-.2c.33-.54.2-.27.65-1.06A14,14,0,0,0,127.42,182.48Z" transform="translate(-4.97 -79.87)" style="fill:#afd4dd"/><path d="M129.77,158.41a17.48,17.48,0,0,0,.57-4.43c-.1-2.56-.42-6.23-4.65-7.74s-8.9-.63-10.3,2.43-1.06,7.68-1.26,10.08a15.24,15.24,0,0,1-2,5.42l9.12,3.93a17.32,17.32,0,0,1,2.1-3.63c.6-.38.82,1.16,2.85,1,.86-.08,1.78-1.67,2.49-3.52a.61.61,0,0,1,0-.19,2.89,2.89,0,0,0,1.07-.1c.64-.18.59-.47.44-.85A9.75,9.75,0,0,1,129.77,158.41Z" transform="translate(-4.97 -79.87)" style="fill:#ed9d80"/><path d="M144.56,208.44a5,5,0,0,0,3,2.64,1.63,1.63,0,0,0,1-.2c.53.13,2.12,0,1.38-.78a4.43,4.43,0,0,0,3.48.19c.42,0,.32-.57-.64-.67a4.63,4.63,0,0,1-3.24-2c.17-.17.37,0,.89,0s.86-.3.84-.55-.74-.31-.91-.39l-1.9-.86a3.41,3.41,0,0,0-1.91-.35c-.14,0-1.36.29-1,.67" transform="translate(-4.97 -79.87)" style="fill:#ed9d80"/><path d="M123.27,184.22s4.78,12.9,5.61,14c3.36,4.15,16.15,10.68,16.15,10.68a2.52,2.52,0,0,0,1.68-2.82c-4-1.68-11.28-9.76-12.88-10.75-1-.62-5.62-16.39-5.62-16.39" transform="translate(-4.97 -79.87)" style="fill:#ed9d80"/><path d="M125.23,169.9c-3.47-1.33-6.71-1.34-9.44-4-2.68,2.08,3.26,14.06,4.72,14.38s3.46,6.93,3.83,7.82c4.81-.11,6.55-2.73,6.55-2.73C128.93,179.35,128.58,171.18,125.23,169.9Z" transform="translate(-4.97 -79.87)" style="fill:#c5e6ef"/><path d="M122.53,170.22c-.24-.91-.92-1.68-1.08-2.54a4.24,4.24,0,0,1,.53-2.74,4.71,4.71,0,0,1,1.17-1.1c1.92-1.52,2.57-2.76,1.93-5a6.25,6.25,0,0,1-.32-2.27c0-.69.2-1.41,1-1.49.5,0,.84,0,1,.5s-.13,2.49.59,1.24a5,5,0,0,0,1.28-4c0-.32-.12-1.68.08-1.84a5.1,5.1,0,0,1,1.78,3.68,2.67,2.67,0,0,0,1.23-2.3,6.3,6.3,0,0,0-.5-2.74,8,8,0,0,0-4.89-4.82,10.88,10.88,0,0,0-4.5-1.19c-1.55,0-3.48.51-3.93,1.68-2.17-.55-3.36,1.34-3.92,2a11.12,11.12,0,0,0-1.68,3.22c-.55,1.68-.68,3.51-1.12,5.26a7.68,7.68,0,0,1-2,3.88c-1.06.94-2.54,1-3.68,1.91a5.7,5.7,0,0,0-2.18,4.77c0,1.83,1,3.81-.08,5.49-.37.54-.88,1-1.23,1.53a4.16,4.16,0,0,0,.08,4.28,7.67,7.67,0,0,0,3.73,3.2,11,11,0,0,0,4,.55c2.62-.15,4.84,0,7.61-2.37,1.58-1.34.57-2.11,2.08-3.54.84-.79,2-1.23,2.67-2.27a4.13,4.13,0,0,0,.41-2.9A.2.2,0,0,1,122.53,170.22Z" transform="translate(-4.97 -79.87)" style="fill:#073e60"/><rect x="49.66" y="342.68" width="35.49" height="35.49" rx="7.49" transform="translate(-224.7 52.51) rotate(-40.95)" style="fill:#f7941d"/><path d="M58.83,355.51,60.61,354a.63.63,0,0,1,.85-.12l2.86,1.82,2.94,1.79,2.06,1.31L71.37,360l2.14,1.35,1.94,1.21c.91.55,1.82,1.07,2.71,1.67v.47c-.49.48-1,.89-1.53,1.35l-1.46,1.27a.48.48,0,0,1-.67,0c-1-.68-2.12-1.31-3.16-2a1.81,1.81,0,0,1-.3-.25.66.66,0,0,0-.93-.05l0,.05q-1.74,1.53-3.51,3c-.23.2-.25.35-.11.65.55,1.13,1.09,2.27,1.57,3.36s.37.94-.4,1.68-1.49,1.28-2.22,1.93c-.3.27-.5.25-.67-.13l-1-2.25c-.33-.77-.7-1.56-1.06-2.34l-.94-2.15-1.46-3.36c-.47-1-.92-2.09-1.39-3.14l-1.46-3.25c-.17-.39-.37-.79-.54-1.2a.77.77,0,0,1,.27-1,20,20,0,0,0,1.68-1.46Zm2.2,2.74v.2l1.06,2.17,1.39,2.78c.25.54.54,1.05.81,1.57s.33.3.57.1l2.53-2.22c.24-.18.24-.34,0-.49a12.62,12.62,0,0,1-1.27-.77l-4-2.74Z" transform="translate(-4.97 -79.87)" style="fill:#fff"/><path d="M78.46,355c1.41,1.68,2.82,3.26,4.25,4.87.29.34.32.56,0,.86-.86.69-1.68,1.43-2.5,2.16a.53.53,0,0,1-.86,0c-2.8-3.25-5.63-6.48-8.4-9.72-.52-.6-.5-.62,0-1.14s1.57-1.29,2.3-2c.37-.36.61-.34.93,0l4.3,5Z" transform="translate(-4.97 -79.87)" style="fill:#fff"/><path d="M68,346.41a2.22,2.22,0,0,1,3.14,0,1.07,1.07,0,0,1,.14.16,2.09,2.09,0,0,1-.07,3,1.76,1.76,0,0,1-.3.24,2.16,2.16,0,0,1-3.06.07,2.09,2.09,0,0,1-.2-.22,2.22,2.22,0,0,1,.23-3.12Z" transform="translate(-4.97 -79.87)" style="fill:#fff"/></svg>