<svg width="60" height="60" viewBox="0 0 60 60" fill="none" xmlns="http://www.w3.org/2000/svg">
<g clip-path="url(#clip0_595_71)">
<path d="M30 60C46.5685 60 60 46.5685 60 30C60 13.4315 46.5685 0 30 0C13.4315 0 0 13.4315 0 30C0 46.5685 13.4315 60 30 60Z" fill="url(#paint0_linear_595_71)"/>
<path d="M17.5092 41.4499C14.6396 41.4499 12.3047 43.7848 12.3047 46.6545C12.3046 46.7912 12.3315 46.9265 12.3838 47.0529C12.436 47.1792 12.5127 47.294 12.6094 47.3906C12.706 47.4873 12.8208 47.564 12.9471 47.6162C13.0735 47.6685 13.2088 47.6954 13.3455 47.6953H21.6728C21.8095 47.6954 21.9449 47.6685 22.0712 47.6162C22.1975 47.564 22.3123 47.4873 22.4089 47.3906C22.5056 47.294 22.5823 47.1792 22.6346 47.0529C22.6868 46.9265 22.7137 46.7912 22.7136 46.6545C22.7136 43.7848 20.3788 41.4499 17.5092 41.4499ZM42.4908 41.4499C39.6212 41.4499 37.2862 43.7848 37.2862 46.6545C37.2862 46.7912 37.313 46.9265 37.3653 47.0529C37.4176 47.1792 37.4943 47.294 37.5909 47.3906C37.6876 47.4873 37.8024 47.564 37.9287 47.6162C38.055 47.6685 38.1904 47.6954 38.3271 47.6953H46.6543C46.791 47.6954 46.9264 47.6685 47.0527 47.6162C47.1791 47.564 47.2938 47.4873 47.3905 47.3906C47.4872 47.294 47.5638 47.1792 47.6161 47.0529C47.6684 46.9265 47.6953 46.7912 47.6952 46.6545C47.6953 43.7848 45.3604 41.4499 42.4908 41.4499ZM17.5092 33.1227C17.6459 33.1228 17.7813 33.0959 17.9076 33.0436C18.034 32.9913 18.1488 32.9147 18.2454 32.818C18.3421 32.7213 18.4188 32.6066 18.4711 32.4803C18.5234 32.3539 18.5503 32.2186 18.5502 32.0818V30C18.5502 29.4257 19.0167 28.9591 19.5911 28.9591H28.9591V32.0818C28.9591 32.6572 29.4247 33.1227 30 33.1227C30.5753 33.1227 31.0409 32.6571 31.0409 32.0818V28.9591H40.4089C40.9833 28.9591 41.4498 29.4257 41.4498 30V32.0818C41.4497 32.2186 41.4766 32.3539 41.5289 32.4803C41.5812 32.6066 41.6579 32.7214 41.7545 32.818C41.8512 32.9147 41.966 32.9914 42.0923 33.0437C42.2187 33.0959 42.3541 33.1228 42.4908 33.1227C42.6275 33.1228 42.7629 33.0959 42.8892 33.0436C43.0155 32.9913 43.1303 32.9147 43.227 32.818C43.3236 32.7213 43.4003 32.6066 43.4526 32.4802C43.5048 32.3539 43.5317 32.2185 43.5316 32.0818V30C43.5316 28.278 42.1309 26.8773 40.4089 26.8773H31.0409V24.7955H34.1636C34.3003 24.7955 34.4356 24.7687 34.562 24.7164C34.6883 24.6641 34.8031 24.5874 34.8997 24.4908C34.9964 24.3941 35.0731 24.2793 35.1253 24.153C35.1776 24.0267 35.2045 23.8913 35.2044 23.7546C35.2044 20.885 32.8696 18.5501 29.9999 18.5501C27.1302 18.5501 24.7954 20.885 24.7954 23.7546C24.7953 23.8913 24.8221 24.0267 24.8744 24.153C24.9267 24.2793 25.0034 24.3941 25.1 24.4908C25.1967 24.5874 25.3115 24.6641 25.4378 24.7164C25.5641 24.7687 25.6995 24.7955 25.8362 24.7955H28.9589V26.8773H19.5908C17.8689 26.8773 16.4681 28.278 16.4681 30V32.0818C16.4681 32.2186 16.495 32.3539 16.5473 32.4802C16.5996 32.6066 16.6763 32.7213 16.773 32.818C16.8697 32.9146 16.9845 32.9913 17.1108 33.0436C17.2371 33.0959 17.3725 33.1228 17.5092 33.1227ZM33.1227 15.4274C33.1227 13.7054 31.722 12.3047 30 12.3047C28.278 12.3047 26.8773 13.7054 26.8773 15.4274C26.8773 17.1493 28.278 18.5501 30 18.5501C31.722 18.5501 33.1227 17.1493 33.1227 15.4274ZM45.6135 38.3272C45.6135 36.6053 44.2127 35.2045 42.4908 35.2045C40.7688 35.2045 39.3681 36.6053 39.3681 38.3272C39.3681 40.0492 40.7688 41.4499 42.4908 41.4499C44.2127 41.4499 45.6135 40.0492 45.6135 38.3272ZM20.6319 38.3272C20.6319 36.6053 19.2312 35.2045 17.5092 35.2045C15.7873 35.2045 14.3865 36.6053 14.3865 38.3272C14.3865 40.0492 15.7873 41.4499 17.5092 41.4499C19.2312 41.4499 20.6319 40.0492 20.6319 38.3272ZM30 41.4499C27.1304 41.4499 24.7955 43.7848 24.7955 46.6545C24.7954 46.7912 24.8223 46.9265 24.8745 47.0529C24.9268 47.1792 25.0035 47.294 25.1002 47.3906C25.1968 47.4873 25.3116 47.564 25.4379 47.6162C25.5642 47.6685 25.6996 47.6954 25.8363 47.6953H34.1636C34.3003 47.6954 34.4356 47.6685 34.562 47.6162C34.6883 47.564 34.8031 47.4873 34.8997 47.3906C34.9964 47.294 35.0731 47.1792 35.1253 47.0529C35.1776 46.9265 35.2045 46.7912 35.2044 46.6545C35.2045 43.7848 32.8696 41.4499 30 41.4499ZM33.1227 38.3272C33.1227 36.6053 31.722 35.2045 30 35.2045C28.278 35.2045 26.8773 36.6053 26.8773 38.3272C26.8773 40.0492 28.278 41.4499 30 41.4499C31.722 41.4499 33.1227 40.0492 33.1227 38.3272Z" fill="url(#paint1_linear_595_71)"/>
</g>
<defs>
<linearGradient id="paint0_linear_595_71" x1="30" y1="60" x2="30" y2="0" gradientUnits="userSpaceOnUse">
<stop stop-color="#FFBEF9"/>
<stop offset="1" stop-color="#FFF1FF"/>
</linearGradient>
<linearGradient id="paint1_linear_595_71" x1="30" y1="47.6953" x2="30" y2="12.3047" gradientUnits="userSpaceOnUse">
<stop stop-color="#FF81FF"/>
<stop offset="1" stop-color="#A93AFF"/>
</linearGradient>
<clipPath id="clip0_595_71">
<rect width="60" height="60" fill="white"/>
</clipPath>
</defs>
</svg>
