<svg width="4786" height="4906" viewBox="0 0 4786 4906" fill="none" xmlns="http://www.w3.org/2000/svg">
<g clip-path="url(#clip0_44_7)">
<mask id="mask0_44_7" style="mask-type:luminance" maskUnits="userSpaceOnUse" x="0" y="0" width="4786" height="4906">
<path d="M4786 0H0V4906H4786V0Z" fill="white"/>
</mask>
<g mask="url(#mask0_44_7)">
<mask id="mask1_44_7" style="mask-type:luminance" maskUnits="userSpaceOnUse" x="0" y="0" width="4786" height="4278">
<path d="M3449 0C3367.43 0.170703 3285.77 3.87962 3205.43 10.6457C2689.63 54.113 2226.16 224.832 1553.38 660.886C881.612 1096.29 1.19606 1797.79 0 2482.71V2485.86C2.88548 3147.03 828.149 3792.33 1759.4 4277.22C2335.96 3416.54 3515.64 2171.21 4723.7 3969.32C4772.16 3698.06 4785.7 3389.02 4785.99 3077.13V3057.47C4785.72 2765.22 4774.23 2471.02 4769.27 2203.42C4751.33 1318.87 4805.15 726.064 4548 387.76C4332.9 104.765 3899.17 0.962146 3461.17 0H3449Z" fill="white"/>
</mask>
<g mask="url(#mask1_44_7)">
<path d="M4805.15 0H0V4277.22H4805.15V0Z" fill="url(#paint0_linear_44_7)"/>
</g>
</g>
<mask id="mask2_44_7" style="mask-type:luminance" maskUnits="userSpaceOnUse" x="0" y="0" width="4786" height="4906">
<path d="M4786 0H0V4906H4786V0Z" fill="white"/>
</mask>
<g mask="url(#mask2_44_7)">
<mask id="mask3_44_7" style="mask-type:luminance" maskUnits="userSpaceOnUse" x="0" y="0" width="4786" height="4906">
<path d="M4786 0H0V4906H4786V0Z" fill="white"/>
</mask>
<g mask="url(#mask3_44_7)">
<g opacity="0.76">
<mask id="mask4_44_7" style="mask-type:luminance" maskUnits="userSpaceOnUse" x="1759" y="3049" width="2965" height="1857">
<path d="M4723.7 3049.6H1759.4V4906H4723.7V3049.6Z" fill="white"/>
</mask>
<g mask="url(#mask4_44_7)">
<mask id="mask5_44_7" style="mask-type:luminance" maskUnits="userSpaceOnUse" x="1759" y="3049" width="2965" height="1858">
<path d="M4388.03 4700.35C4567.23 4540.68 4668.28 4279.63 4723.7 3969.32C3515.64 2171.19 2335.97 3416.52 1759.4 4277.22C1794.25 4295.38 1829.23 4313.3 1864.35 4331.02C2839.14 4821.39 3900.64 5133.33 4388.03 4700.35Z" fill="white"/>
</mask>
<g mask="url(#mask5_44_7)">
<path d="M4723.7 2171.19H1759.4V5133.31H4723.7V2171.19Z" fill="url(#paint1_linear_44_7)"/>
</g>
</g>
</g>
</g>
</g>
</g>
<defs>
<linearGradient id="paint0_linear_44_7" x1="0" y1="2139.38" x2="4786" y2="2139.38" gradientUnits="userSpaceOnUse">
<stop stop-color="#02326A"/>
<stop offset="0.0958" stop-color="#02326A"/>
<stop offset="1" stop-color="#02326A"/>
</linearGradient>
<linearGradient id="paint1_linear_44_7" x1="0.000161766" y1="3648.6" x2="4786.02" y2="3648.6" gradientUnits="userSpaceOnUse">
<stop offset="1" stop-color="#02326A"/>
</linearGradient>
<clipPath id="clip0_44_7">
<rect width="4786" height="4906" fill="white"/>
</clipPath>
</defs>
</svg>
