<svg width="470" height="278" viewBox="0 0 470 278" fill="none" xmlns="http://www.w3.org/2000/svg">
<path d="M352.868 220.686H73.1024C61.3784 220.686 51.7234 211.031 51.7234 199.307V188.043H374.247V199.307C374.247 211.031 364.822 220.686 352.868 220.686Z" fill="#C1DDF7"/>
<path d="M246.893 220.686H180.687V249.191H246.893V220.686Z" fill="#71ADDB"/>
<path d="M374.247 188.503H51.7234V19.7698C51.7234 8.96538 60.4589 0 71.4932 0H354.478C365.282 0 374.247 8.7355 374.247 19.7698V188.503Z" fill="#214A81"/>
<path d="M362.983 13.793H64.8267V177.009H362.983V13.793Z" fill="white"/>
<path d="M213.1 210.342C217.163 210.342 220.456 207.048 220.456 202.986C220.456 198.923 217.163 195.629 213.1 195.629C209.037 195.629 205.744 198.923 205.744 202.986C205.744 207.048 209.037 210.342 213.1 210.342Z" fill="white"/>
<path d="M275.168 258.616H151.032C151.032 253.329 155.4 248.961 160.687 248.961H265.513C270.801 249.191 275.168 253.329 275.168 258.616Z" fill="#C1DDF7"/>
<path d="M200.227 42.5283H96.7805V145.975H200.227V42.5283Z" fill="#84B4FE"/>
<path d="M172.642 103.217C181.402 103.217 188.504 96.1152 188.504 87.355C188.504 78.5948 181.402 71.4932 172.642 71.4932C163.882 71.4932 156.78 78.5948 156.78 87.355C156.78 96.1152 163.882 103.217 172.642 103.217Z" fill="#FFD474"/>
<path d="M152.412 113.791L170.802 91.4927L200.227 118.159V146.205H152.412V113.791Z" fill="#D7E8F7"/>
<path d="M96.7805 113.331L117.7 81.1479L184.136 146.204H96.7805V113.331Z" fill="#214A81"/>
<path d="M322.524 70.3442H218.158C216.778 70.3442 215.399 69.1948 215.399 67.5856V67.3557C215.399 65.7466 216.548 64.5972 218.158 64.5972H322.754C324.363 64.5972 325.512 65.7466 325.512 67.3557V67.5856C325.282 68.9649 324.133 70.3442 322.524 70.3442Z" fill="#D7E8F7"/>
<path d="M292.869 99.7685H218.158C216.778 99.7685 215.399 98.6191 215.399 97.0099V96.7801C215.399 95.1709 216.548 94.0215 218.158 94.0215H292.869C294.478 94.0215 295.628 95.1709 295.628 96.7801V97.0099C295.398 98.6191 294.248 99.7685 292.869 99.7685Z" fill="#D7E8F7"/>
<path d="M322.524 114.71H218.158C216.778 114.71 215.399 113.561 215.399 111.952V111.722C215.399 110.113 216.548 108.963 218.158 108.963H322.524C324.133 108.963 325.282 110.343 325.282 111.722C325.282 113.331 324.133 114.71 322.524 114.71Z" fill="#D7E8F7"/>
<path d="M245.513 129.423H218.158C216.778 129.423 215.399 128.273 215.399 126.664V126.434C215.399 124.825 216.548 123.676 218.158 123.676H245.513C247.123 123.676 248.272 124.825 248.272 126.434V126.664C248.042 128.273 246.893 129.423 245.513 129.423Z" fill="#D7E8F7"/>
<path d="M272.639 85.0561H218.158C216.778 85.0561 215.399 83.9067 215.399 82.2975V82.0677C215.399 80.4585 216.548 79.3091 218.158 79.3091H272.639C274.249 79.3091 275.398 80.4585 275.398 82.0677V82.2975C275.168 83.9067 274.019 85.0561 272.639 85.0561Z" fill="#D7E8F7"/>
<path d="M469.041 277.727L320.959 278C320.384 278 320 277.455 320 276.636C320 275.818 320.384 275.273 320.959 275.273L469.041 275C469.616 275 470 275.545 470 276.364C469.808 277.182 469.425 277.727 469.041 277.727Z" fill="#CADFEF"/>
<path d="M133.331 277.468L1.14941 277.698C0.459763 277.698 0 277.238 0 276.548C0 275.859 0.459763 275.399 1.14941 275.399L133.331 275.169C134.021 275.169 134.481 275.629 134.481 276.318C134.251 277.008 133.791 277.468 133.331 277.468Z" fill="#CADFEF"/>
<path d="M296.318 261.146C296.548 260.456 300.915 245.284 300.915 245.284L308.961 245.744L304.363 261.606L296.318 261.146Z" fill="#FFBDA1"/>
<path d="M318.846 265.514L296.318 264.594L296.548 257.698L312.179 258.387C316.087 258.387 319.076 261.606 318.846 265.514Z" fill="#1E1A1E"/>
<path d="M200.227 250.342C200.916 250.112 215.859 245.284 215.859 245.284L219.997 252.181L204.365 257.238L200.227 250.342Z" fill="#FFBDA1"/>
<path d="M202.526 249.422L206.894 258.847V263.675C206.894 263.675 211.491 264.364 212.411 267.583H202.066L196.779 250.801L202.526 249.422Z" fill="#1E1A1E"/>
<path d="M328.042 156.779L334.018 150.802L334.938 142.757C334.938 142.067 335.168 141.377 335.858 141.147H336.317C337.007 141.147 337.697 141.607 337.926 142.527L338.846 159.538C338.846 160.458 338.156 161.377 337.237 161.607L329.421 162.986L328.042 156.779Z" fill="#FFBDA1"/>
<path d="M303.214 173.332H302.984L276.318 172.182L276.778 160.688L302.295 161.838L329.651 153.332L330.8 164.136L305.053 172.872C304.594 173.102 303.904 173.332 303.214 173.332Z" fill="#F7C869"/>
<path d="M275.168 204.365L255.628 242.755L254.939 243.904C254.019 245.743 252.41 246.893 250.571 247.352L216.089 256.548L212.181 244.594L245.514 231.95L240.686 236.548L254.019 194.939L275.168 204.365Z" fill="#03345F"/>
<path d="M266.203 190.342L316.777 196.089H317.696C322.064 196.549 325.053 200.457 324.593 204.824C324.593 205.284 324.363 205.974 324.363 206.434L311.49 247.582L297.927 246.663L308.731 202.066L316.317 212.41L265.513 209.652L266.203 190.342Z" fill="#03345F"/>
<path d="M277.697 158.619L275.168 156.78L272.869 158.619C268.502 161.837 265.283 166.205 263.674 171.492L261.605 176.09L250.571 200.227L273.789 202.526L283.674 186.894C289.421 177.469 286.892 164.826 277.697 158.619Z" fill="#FFD474"/>
<path d="M326.432 172.182L332.409 166.205L334.248 158.159C334.248 157.469 334.478 156.78 335.167 156.55H335.627C336.317 156.55 337.006 157.01 337.236 157.929V174.94C337.236 175.86 336.547 176.779 335.627 177.009L327.811 178.389L326.432 172.182Z" fill="#FFBDA1"/>
<path d="M277.007 153.102L274.019 158.619L279.996 164.366L284.134 153.332L277.007 153.102Z" fill="#FFBDA1"/>
<path d="M293.559 143.676L291.03 142.527L289.421 145.745L291.72 146.435L293.329 145.515C294.248 145.056 294.248 144.136 293.559 143.676Z" fill="#FFBDA1"/>
<path d="M281.375 156.32C287.342 156.32 292.179 151.483 292.179 145.516C292.179 139.549 287.342 134.711 281.375 134.711C275.408 134.711 270.571 139.549 270.571 145.516C270.571 151.483 275.408 156.32 281.375 156.32Z" fill="#FFBDA1"/>
<path d="M285.973 132.182L271.72 157.009L267.812 138.389L285.973 132.182Z" fill="#072042"/>
<path d="M279.486 145.907C279.97 144.329 279.082 142.658 277.504 142.174C275.926 141.691 274.255 142.578 273.772 144.156C273.288 145.734 274.175 147.406 275.754 147.889C277.332 148.372 279.003 147.485 279.486 145.907Z" fill="#FFBDA1"/>
<path d="M299.766 188.733C298.846 188.733 297.927 188.503 297.007 188.043L267.352 171.952L272.869 161.837L300.685 177.009L328.731 168.503L330.57 179.768L300.455 188.733C300.455 188.733 299.995 188.733 299.766 188.733Z" fill="#FFD474"/>
<path d="M81.838 128.503H22.9883C17.4712 128.503 12.8735 133.101 12.8735 138.618V265.513C12.8735 271.03 17.4712 275.628 22.9883 275.628H82.0679C87.5851 275.628 92.1827 271.03 92.1827 265.513V138.618C91.9528 133.101 87.5851 128.503 81.838 128.503Z" fill="#214A81"/>
<path d="M50.574 269.881C47.1258 269.881 44.3672 267.123 44.3672 263.675C44.3672 260.226 47.1258 257.468 50.574 257.468C54.0222 257.468 56.7808 260.226 56.7808 263.675C56.5509 267.123 54.0222 269.881 50.574 269.881Z" fill="white"/>
<path d="M85.2863 141.377H18.6206V251.951H85.2863V141.377Z" fill="white"/>
<path d="M74.4819 152.181H29.425V197.238H74.4819V152.181Z" fill="#84B4FE"/>
<path d="M62.5276 178.618C66.3364 178.618 69.424 175.53 69.424 171.721C69.424 167.912 66.3364 164.825 62.5276 164.825C58.7187 164.825 55.6311 167.912 55.6311 171.721C55.6311 175.53 58.7187 178.618 62.5276 178.618Z" fill="#FFD474"/>
<path d="M53.5625 183.215L61.6084 173.56L74.4817 185.054V197.237H53.5625V183.215Z" fill="#D7E8F7"/>
<path d="M29.4248 182.985L38.3902 168.962L67.3553 197.237H29.4248V182.985Z" fill="#214A81"/>
<path d="M51.0339 211.721H32.6433C31.0342 211.721 29.8848 210.572 29.8848 208.963V208.733C29.8848 207.353 31.0342 205.974 32.6433 205.974H51.0339C52.643 205.974 53.7925 207.124 53.7925 208.733V208.963C53.7925 210.572 52.643 211.721 51.0339 211.721Z" fill="#D7E8F7"/>
<path d="M51.0339 237.698H32.6433C31.0342 237.698 29.8848 236.548 29.8848 234.939V234.709C29.8848 233.1 31.0342 231.951 32.6433 231.951H51.0339C52.643 231.951 53.7925 233.1 53.7925 234.709V234.939C53.7925 236.548 52.643 237.698 51.0339 237.698Z" fill="#D7E8F7"/>
<path d="M73.1025 224.824H32.6433C31.0342 224.824 29.8848 223.675 29.8848 222.066V221.836C29.8848 220.227 31.0342 219.077 32.6433 219.077H73.1025C74.7117 219.077 75.8611 220.227 75.8611 221.836V222.066C75.8611 223.675 74.7117 224.824 73.1025 224.824Z" fill="#D7E8F7"/>
<path d="M455.625 89.4233H349.88C342.753 89.4233 337.236 95.1704 337.236 102.067V262.754C337.236 269.88 342.983 275.398 349.88 275.398H455.625C462.751 275.398 468.269 269.651 468.269 262.754V102.067C468.499 95.1704 462.751 89.4233 455.625 89.4233Z" fill="#214A81"/>
<path d="M400.914 268.272C396.546 268.272 393.098 264.823 393.098 260.456C393.098 256.088 396.546 252.64 400.914 252.64C405.281 252.64 408.73 256.088 408.73 260.456C408.5 264.823 405.051 268.272 400.914 268.272Z" fill="white"/>
<path d="M459.993 105.746H344.593V245.973H459.993V105.746Z" fill="white"/>
<path d="M441.602 121.147H361.833V200.916H441.602V121.147Z" fill="#84B4FE"/>
<path d="M420.224 168.042C426.952 168.042 432.407 162.587 432.407 155.859C432.407 149.13 426.952 143.675 420.224 143.675C413.495 143.675 408.04 149.13 408.04 155.859C408.04 162.587 413.495 168.042 420.224 168.042Z" fill="#FFD474"/>
<path d="M404.592 176.088L418.844 159.077L441.603 179.537V201.145H404.592V176.088Z" fill="#D7E8F7"/>
<path d="M361.833 175.629L377.925 151.031L429.189 201.145H361.833V175.629Z" fill="#214A81"/>
<path d="M382.983 217.008H364.592C362.983 217.008 361.833 215.859 361.833 214.25V214.02C361.833 212.411 362.983 211.261 364.592 211.261H382.983C384.592 211.261 385.741 212.411 385.741 214.02V214.25C385.741 215.629 384.592 217.008 382.983 217.008Z" fill="#D7E8F7"/>
<path d="M440.223 229.882H364.362C362.753 229.882 361.604 228.732 361.604 227.123V226.893C361.604 225.284 362.753 224.135 364.362 224.135H440.223C441.603 224.135 442.982 225.284 442.982 226.893V227.123C442.982 228.732 441.832 229.882 440.223 229.882Z" fill="#D7E8F7"/>
</svg>
