<svg width="60" height="60" viewBox="0 0 60 60" fill="none" xmlns="http://www.w3.org/2000/svg">
<g clip-path="url(#clip0_595_63)">
<path d="M30 60C46.5685 60 60 46.5685 60 30C60 13.4315 46.5685 0 30 0C13.4315 0 0 13.4315 0 30C0 46.5685 13.4315 60 30 60Z" fill="url(#paint0_linear_595_63)"/>
<path d="M33.1224 39.368H26.877C25.52 39.368 24.3622 40.2382 23.9322 41.4499H36.0672C35.6373 40.2382 34.4795 39.368 33.1224 39.368ZM29.9997 31.0408C28.8521 31.0408 27.9179 31.975 27.9179 33.1226C27.9179 34.2703 28.8521 35.2045 29.9997 35.2045C31.1473 35.2045 32.0816 34.2704 32.0816 33.1226C32.0816 31.975 31.1473 31.0408 29.9997 31.0408ZM47.4246 45.954C47.3261 45.8457 37.9411 35.3739 37.3433 24.7954H40.4087C40.6146 24.7956 40.8158 24.7346 40.987 24.6202C41.1582 24.5059 41.2916 24.3432 41.3703 24.153C41.4493 23.9628 41.47 23.7535 41.4298 23.5515C41.3896 23.3496 41.2904 23.1641 41.1446 23.0186L30.7356 12.6097C30.6389 12.513 30.5242 12.4363 30.3979 12.384C30.2717 12.3316 30.1363 12.3047 29.9996 12.3047C29.8629 12.3047 29.7276 12.3316 29.6013 12.384C29.475 12.4363 29.3603 12.513 29.2637 12.6097L18.8546 23.0186C18.7089 23.1641 18.6096 23.3496 18.5695 23.5515C18.5293 23.7535 18.55 23.9628 18.6289 24.153C18.7076 24.3432 18.841 24.5059 19.0122 24.6202C19.1834 24.7346 19.3847 24.7956 19.5905 24.7954H22.6559C22.0573 35.3605 12.6731 45.8467 12.5747 45.954C12.4393 46.1033 12.3501 46.2888 12.318 46.4878C12.2859 46.6868 12.3122 46.8909 12.3937 47.0752C12.4752 47.2597 12.6085 47.4164 12.7774 47.5265C12.9463 47.6366 13.1435 47.6952 13.3452 47.6953H46.6539C46.8556 47.6952 47.0528 47.6366 47.2217 47.5265C47.3906 47.4164 47.5239 47.2597 47.6054 47.0752C47.687 46.8909 47.7134 46.6868 47.6813 46.4878C47.6492 46.2888 47.56 46.1033 47.4246 45.954ZM37.286 43.5317H22.7134C22.5766 43.5318 22.4412 43.5049 22.3149 43.4526C22.1886 43.4003 22.0738 43.3237 21.9772 43.227C21.8805 43.1303 21.8038 43.0155 21.7515 42.8892C21.6993 42.7628 21.6724 42.6275 21.6725 42.4907C21.6725 39.6212 24.0075 37.2862 26.877 37.2862H29.9997C27.7034 37.2862 25.8362 35.4188 25.8362 33.1225C25.8362 30.8262 27.7034 28.959 29.9997 28.959C32.296 28.959 34.1633 30.8262 34.1633 33.1225C34.1633 35.4188 32.296 37.2862 29.9997 37.2862H33.1224C35.992 37.2862 38.327 39.6212 38.327 42.4907C38.327 42.6275 38.3002 42.7629 38.2479 42.8892C38.1956 43.0155 38.1189 43.1303 38.0222 43.227C37.9256 43.3237 37.8108 43.4003 37.6844 43.4526C37.5581 43.5049 37.4227 43.5318 37.286 43.5317Z" fill="url(#paint1_linear_595_63)"/>
</g>
<defs>
<linearGradient id="paint0_linear_595_63" x1="30" y1="60" x2="30" y2="0" gradientUnits="userSpaceOnUse">
<stop stop-color="#C3FFE8"/>
<stop offset="0.997" stop-color="#F0FFF4"/>
</linearGradient>
<linearGradient id="paint1_linear_595_63" x1="29.9997" y1="47.6953" x2="29.9997" y2="12.3046" gradientUnits="userSpaceOnUse">
<stop stop-color="#9CFFAC"/>
<stop offset="1" stop-color="#00B59C"/>
</linearGradient>
<clipPath id="clip0_595_63">
<rect width="60" height="60" fill="white"/>
</clipPath>
</defs>
</svg>
