<svg width="60" height="60" viewBox="0 0 60 60" fill="none" xmlns="http://www.w3.org/2000/svg">
<g clip-path="url(#clip0_595_84)">
<path d="M30 60C46.5685 60 60 46.5685 60 30C60 13.4315 46.5685 0 30 0C13.4315 0 0 13.4315 0 30C0 46.5685 13.4315 60 30 60Z" fill="url(#paint0_linear_595_84)"/>
<path d="M12.3047 36.2206H47.6953V37.9486C47.6953 39.2848 46.6121 40.368 45.276 40.368H14.724C13.3879 40.368 12.3047 39.2848 12.3047 37.9486V36.2206ZM37.6035 44.5152H36.2135L35.3248 42.4416H24.6752L23.7865 44.5152H22.3965C22.1215 44.5152 21.8578 44.6245 21.6633 44.8189C21.4689 45.0134 21.3596 45.2771 21.3596 45.5521C21.3596 45.8271 21.4689 46.0908 21.6633 46.2853C21.8578 46.4797 22.1215 46.589 22.3965 46.589H37.6035C37.8785 46.589 38.1422 46.4797 38.3367 46.2853C38.5311 46.0908 38.6404 45.8271 38.6404 45.5521C38.6404 45.2771 38.5311 45.0134 38.3367 44.8189C38.1422 44.6245 37.8785 44.5152 37.6035 44.5152ZM23.0878 20.668C23.6596 20.668 24.1247 20.2029 24.1247 19.6312C24.1247 19.0594 23.6596 18.5943 23.0878 18.5943C22.5161 18.5943 22.0509 19.0594 22.0509 19.6312C22.0509 20.2029 22.5161 20.668 23.0878 20.668ZM33.8017 21.3593H41.4052V17.9032H33.8017V21.3593ZM24.4702 22.7417H21.7052C21.6136 22.7418 21.5258 22.7782 21.461 22.843C21.3962 22.9078 21.3597 22.9956 21.3596 23.0873V26.5434C21.3596 27.4962 22.1348 28.2714 23.0877 28.2714C24.0405 28.2714 24.8157 27.4962 24.8157 26.5434V23.0873C24.8156 22.9956 24.7792 22.9078 24.7144 22.843C24.6496 22.7782 24.5618 22.7418 24.4702 22.7417ZM47.6953 15.8295V34.147H12.3047V15.8295C12.3047 14.4933 13.3879 13.4102 14.724 13.4102H45.2761C46.6121 13.4103 47.6953 14.4933 47.6953 15.8295ZM29.545 28.8447L28.8538 27.4622C28.7929 27.3404 28.7086 27.2318 28.6057 27.1426C28.5029 27.0534 28.3834 26.9853 28.2543 26.9423L26.8896 26.4873V24.1241H27.9265C28.119 24.1241 28.3078 24.0705 28.4716 23.9693C28.6354 23.8681 28.7678 23.7232 28.8539 23.551L29.5451 22.1685C29.8011 21.6563 29.5936 21.0336 29.0814 20.7775C28.5691 20.5214 27.9464 20.729 27.6904 21.2412L27.2857 22.0505H26.6557C26.4711 21.6637 26.1876 21.3324 25.8339 21.0903C26.0736 20.6414 26.1988 20.1402 26.1983 19.6313C26.1983 19.1516 26.0891 18.6972 25.8943 18.291L26.5859 17.5995C26.6821 17.5032 26.7585 17.3889 26.8106 17.2631C26.8627 17.1373 26.8895 17.0025 26.8895 16.8664C26.8895 16.7302 26.8627 16.5954 26.8106 16.4696C26.7585 16.3438 26.6821 16.2295 26.5859 16.1332C26.4896 16.0369 26.3753 15.9606 26.2495 15.9084C26.1237 15.8563 25.9889 15.8295 25.8527 15.8295C25.7166 15.8295 25.5817 15.8563 25.456 15.9084C25.3302 15.9606 25.2159 16.0369 25.1196 16.1332L24.4281 16.8248C24.022 16.63 23.5675 16.5208 23.0878 16.5208C22.6082 16.5208 22.1537 16.6301 21.7475 16.8248L21.056 16.1332C20.9597 16.0369 20.8455 15.9606 20.7197 15.9084C20.5939 15.8563 20.459 15.8295 20.3229 15.8295C20.1867 15.8295 20.0519 15.8563 19.9261 15.9084C19.8003 15.9606 19.686 16.0369 19.5898 16.1332C19.4935 16.2295 19.4171 16.3438 19.365 16.4696C19.3129 16.5954 19.2861 16.7302 19.2861 16.8664C19.2861 17.0025 19.3129 17.1373 19.365 17.2631C19.4171 17.3889 19.4935 17.5032 19.5898 17.5995L20.2813 18.291C20.0807 18.7093 19.9768 19.1674 19.9773 19.6313C19.9773 20.1583 20.1095 20.6549 20.3418 21.0903C19.9881 21.3325 19.7046 21.6637 19.5199 22.0505H18.8899L18.4853 21.2412C18.4244 21.1194 18.3401 21.0108 18.2373 20.9216C18.1344 20.8323 18.015 20.7643 17.8858 20.7212C17.7567 20.6781 17.6203 20.6609 17.4844 20.6706C17.3486 20.6803 17.216 20.7166 17.0943 20.7775C16.9725 20.8384 16.8639 20.9227 16.7747 21.0255C16.6854 21.1284 16.6174 21.2478 16.5743 21.377C16.5312 21.5061 16.514 21.6425 16.5237 21.7783C16.5333 21.9142 16.5697 22.0467 16.6305 22.1685L17.3217 23.551C17.4078 23.7232 17.5402 23.8681 17.704 23.9693C17.8678 24.0705 18.0566 24.1242 18.2491 24.1241H19.286V26.4873L17.9214 26.9423C17.6605 27.0292 17.4448 27.2163 17.3218 27.4622L16.6307 28.8447C16.5698 28.9665 16.5335 29.0991 16.5238 29.2349C16.5142 29.3707 16.5314 29.5071 16.5744 29.6362C16.6175 29.7654 16.6856 29.8848 16.7748 29.9877C16.864 30.0905 16.9726 30.1748 17.0944 30.2357C17.2162 30.2966 17.3487 30.3329 17.4846 30.3426C17.6204 30.3522 17.7568 30.335 17.8859 30.292C18.0151 30.2489 18.1345 30.1808 18.2374 30.0916C18.3402 30.0024 18.4245 29.8938 18.4854 29.772L18.9846 28.7737L19.8258 28.4932C20.4908 29.6016 21.7039 30.3452 23.0878 30.3452C24.4717 30.3452 25.6849 29.6016 26.3498 28.4932L27.191 28.7737L27.6902 29.772C27.815 30.0148 28.0305 30.1986 28.29 30.2835C28.5495 30.3684 28.8319 30.3475 29.0761 30.2254C29.3203 30.1033 29.5065 29.8899 29.5942 29.6314C29.682 29.3729 29.6643 29.0902 29.545 28.8447ZM43.4789 30.6907C43.4789 30.4157 43.3697 30.152 43.1752 29.9576C42.9808 29.7631 42.717 29.6539 42.442 29.6539H32.7649C32.4899 29.6539 32.2262 29.7631 32.0317 29.9576C31.8373 30.152 31.728 30.4157 31.728 30.6907C31.728 30.9657 31.8373 31.2295 32.0317 31.4239C32.2262 31.6184 32.4899 31.7276 32.7649 31.7276H42.442C42.717 31.7276 42.9808 31.6184 43.1752 31.4239C43.3697 31.2295 43.4789 30.9657 43.4789 30.6907ZM43.4789 26.5435C43.4789 26.2685 43.3697 26.0047 43.1752 25.8103C42.9808 25.6158 42.717 25.5066 42.442 25.5066H32.7649C32.4899 25.5066 32.2262 25.6158 32.0317 25.8103C31.8373 26.0047 31.728 26.2685 31.728 26.5435C31.728 26.8185 31.8373 27.0822 32.0317 27.2767C32.2262 27.4711 32.4899 27.5804 32.7649 27.5804H42.442C42.717 27.5803 42.9807 27.471 43.1751 27.2766C43.3696 27.0822 43.4788 26.8185 43.4789 26.5435ZM43.4789 16.8664C43.4789 16.5914 43.3697 16.3276 43.1752 16.1332C42.9808 15.9387 42.717 15.8295 42.442 15.8295H32.7649C32.4899 15.8295 32.2262 15.9387 32.0317 16.1332C31.8373 16.3276 31.728 16.5914 31.728 16.8664V22.3962C31.728 22.6712 31.8373 22.9349 32.0317 23.1294C32.2262 23.3238 32.4899 23.4331 32.7649 23.4331H42.442C42.717 23.4331 42.9808 23.3238 43.1752 23.1294C43.3697 22.9349 43.4789 22.6712 43.4789 22.3962V16.8664Z" fill="url(#paint1_linear_595_84)"/>
</g>
<defs>
<linearGradient id="paint0_linear_595_84" x1="30" y1="60" x2="30" y2="-9.99996" gradientUnits="userSpaceOnUse">
<stop stop-color="#C3FFE8"/>
<stop offset="0.997" stop-color="#F0FFF4"/>
</linearGradient>
<linearGradient id="paint1_linear_595_84" x1="30" y1="46.589" x2="30" y2="13.4103" gradientUnits="userSpaceOnUse">
<stop stop-color="#9CFFAC"/>
<stop offset="1" stop-color="#00B59C"/>
</linearGradient>
<clipPath id="clip0_595_84">
<rect width="60" height="60" fill="white"/>
</clipPath>
</defs>
</svg>
