<svg width="60" height="60" viewBox="0 0 60 60" fill="none" xmlns="http://www.w3.org/2000/svg">
<g clip-path="url(#clip0_595_75)">
<path d="M60 30C60 46.5686 46.5686 60 30 60C13.4314 60 0 46.5686 0 30C0 13.4314 13.4314 0 30 0C46.5686 0 60 13.4314 60 30Z" fill="url(#paint0_linear_595_75)"/>
<path d="M35.8712 46.5647C35.9264 47.1718 35.4483 47.6954 34.8387 47.6954H25.1616C24.5518 47.6954 24.0738 47.172 24.129 46.5647L24.6546 40.7831H35.3457L35.8712 46.5647ZM31.0369 22.1685V32.4886H31.3825C31.6575 32.4886 31.9212 32.5978 32.1156 32.7923C32.3101 32.9867 32.4193 33.2505 32.4193 33.5255C32.4193 33.8005 32.3101 34.0642 32.1156 34.2587C31.9212 34.4531 31.6575 34.5623 31.3825 34.5623H28.6175C28.3425 34.5623 28.0788 34.4531 27.8844 34.2587C27.6899 34.0642 27.5807 33.8005 27.5807 33.5255C27.5807 33.2505 27.6899 32.9867 27.8844 32.7923C28.0788 32.5978 28.3425 32.4886 28.6175 32.4886H28.9631V22.1685L22.2084 32.9759C22.1143 33.1265 22.0604 33.2988 22.052 33.4762C22.0436 33.6536 22.0808 33.8302 22.1603 33.9891L24.5205 38.7096H35.4792L37.8395 33.9891C37.9189 33.8302 37.9562 33.6536 37.9478 33.4762C37.9393 33.2988 37.8855 33.1265 37.7913 32.9759L31.0369 22.1685ZM46.5893 26.8205H45.2231C44.6187 23.832 43.1652 21.1242 40.9859 18.945C40.0036 17.9627 38.9139 17.1282 37.7397 16.4521H41.6525C42.0805 17.6589 43.233 18.5257 44.5847 18.5257C46.2998 18.5257 47.6952 17.1304 47.6952 15.4152C47.6952 13.7 46.3 12.3048 44.5848 12.3048C43.2332 12.3048 42.0806 13.1716 41.6527 14.3784H33.1105V13.3416C33.1105 13.0666 33.0013 12.8028 32.8068 12.6084C32.6124 12.4139 32.3486 12.3047 32.0736 12.3047H27.9263C27.6513 12.3047 27.3875 12.4139 27.1931 12.6084C26.9986 12.8028 26.8894 13.0666 26.8894 13.3416V14.3784H18.3472C17.9194 13.1716 16.7668 12.3048 15.4152 12.3048C13.7 12.3048 12.3047 13.7002 12.3047 15.4153C12.3047 17.1305 13.7 18.5258 15.4152 18.5258C16.7668 18.5258 17.9194 17.659 18.3473 16.4522H22.2602C21.086 17.1284 19.9963 17.9629 19.014 18.9451C16.8348 21.1243 15.3813 23.832 14.7769 26.8206H13.4107C13.1357 26.8206 12.872 26.9298 12.6775 27.1243C12.4831 27.3187 12.3738 27.5825 12.3738 27.8575V32.0048C12.3738 32.2798 12.4831 32.5436 12.6775 32.738C12.872 32.9325 13.1357 33.0417 13.4107 33.0417H17.5581C17.8331 33.0417 18.0968 32.9325 18.2913 32.738C18.4857 32.5436 18.595 32.2798 18.595 32.0048V27.8575C18.595 27.5825 18.4857 27.3187 18.2913 27.1243C18.0968 26.9298 17.8331 26.8206 17.5581 26.8206H16.9015C18.0709 21.9026 21.9716 18.002 26.8896 16.8325V17.4891C26.8896 17.7641 26.9989 18.0278 27.1933 18.2222C27.3878 18.4167 27.6515 18.5259 27.9265 18.5259H32.0739C32.3489 18.5259 32.6126 18.4167 32.807 18.2222C33.0015 18.0278 33.1107 17.7641 33.1107 17.4891V16.8325C38.0288 18.0019 41.9295 21.9026 43.0989 26.8206H42.4423C42.1673 26.8206 41.9035 26.9298 41.7091 27.1243C41.5146 27.3187 41.4054 27.5825 41.4054 27.8575V32.0048C41.4054 32.2798 41.5146 32.5436 41.7091 32.738C41.9035 32.9325 42.1673 33.0417 42.4423 33.0417H46.5896C46.8646 33.0417 47.1284 32.9325 47.3228 32.738C47.5173 32.5436 47.6265 32.2798 47.6265 32.0048V27.8575C47.6262 27.2846 47.162 26.8205 46.5893 26.8205Z" fill="url(#paint1_linear_595_75)"/>
</g>
<defs>
<linearGradient id="paint0_linear_595_75" x1="30" y1="60" x2="30" y2="-9.99996" gradientUnits="userSpaceOnUse">
<stop stop-color="#FFEDAD"/>
<stop offset="1" stop-color="#FFFFE5"/>
</linearGradient>
<linearGradient id="paint1_linear_595_75" x1="30" y1="47.6954" x2="30" y2="12.3048" gradientUnits="userSpaceOnUse">
<stop stop-color="#FFDE00"/>
<stop offset="1" stop-color="#FD5900"/>
</linearGradient>
<clipPath id="clip0_595_75">
<rect width="60" height="60" fill="white"/>
</clipPath>
</defs>
</svg>
