<svg width="60" height="60" viewBox="0 0 60 60" fill="none" xmlns="http://www.w3.org/2000/svg">
<g clip-path="url(#clip0_595_79)">
<path d="M30 60C46.5685 60 60 46.5685 60 30C60 13.4315 46.5685 0 30 0C13.4315 0 0 13.4315 0 30C0 46.5685 13.4315 60 30 60Z" fill="url(#paint0_linear_595_79)"/>
<path d="M12.3047 37.2583H47.6953V39.332C47.6953 39.6069 47.5861 39.8707 47.3916 40.0651C47.1972 40.2596 46.9334 40.3688 46.6584 40.3688H13.3416C13.0666 40.3688 12.8028 40.2596 12.6084 40.0651C12.4139 39.8707 12.3047 39.6069 12.3047 39.332V37.2583ZM23.5441 18.41L19.6316 20.6689L23.5441 22.9278L27.4567 20.6689L23.5441 18.41ZM24.581 29.2414L28.4936 26.9825V22.4647L24.581 24.7236V29.2414ZM18.5948 26.9825L22.5074 29.2414V24.7236L18.5948 22.4647V26.9825ZM47.6953 14.1023V35.1846H12.3047V14.1023C12.3047 13.8273 12.4139 13.5636 12.6084 13.3691C12.8028 13.1747 13.0666 13.0654 13.3416 13.0654H46.6586C46.9335 13.0655 47.1972 13.1747 47.3917 13.3692C47.5861 13.5636 47.6953 13.8273 47.6953 14.1023ZM30.5672 20.6689C30.5672 20.4869 30.5193 20.3081 30.4283 20.1505C30.3373 19.9929 30.2064 19.862 30.0487 19.771L24.0626 16.3149C23.9049 16.2239 23.7261 16.176 23.5441 16.176C23.3621 16.176 23.1833 16.2239 23.0257 16.3149L17.0395 19.771C16.8819 19.862 16.751 19.9929 16.66 20.1505C16.569 20.3081 16.5211 20.4869 16.5211 20.6689V27.5811C16.5211 27.7631 16.569 27.9419 16.66 28.0995C16.751 28.2571 16.8819 28.388 17.0395 28.479L23.0257 31.9351C23.1833 32.0261 23.3621 32.074 23.5441 32.074C23.7261 32.074 23.9049 32.0261 24.0626 31.9351L30.0487 28.479C30.2064 28.388 30.3373 28.2571 30.4283 28.0995C30.5193 27.9419 30.5672 27.7631 30.5672 27.5811V20.6689ZM43.4789 29.6548C43.4789 29.3798 43.3697 29.1161 43.1752 28.9217C42.9808 28.7272 42.717 28.618 42.442 28.618H34.1474C33.8724 28.618 33.6087 28.7272 33.4142 28.9217C33.2197 29.1161 33.1105 29.3798 33.1105 29.6548C33.1105 29.9298 33.2197 30.1936 33.4142 30.388C33.6087 30.5825 33.8724 30.6917 34.1474 30.6917H42.442C42.717 30.6917 42.9807 30.5824 43.1751 30.388C43.3696 30.1935 43.4788 29.9298 43.4789 29.6548ZM43.4789 25.5075C43.4789 25.2325 43.3697 24.9687 43.1752 24.7743C42.9808 24.5798 42.717 24.4706 42.442 24.4706H34.1474C33.8724 24.4706 33.6087 24.5798 33.4142 24.7743C33.2197 24.9687 33.1105 25.2325 33.1105 25.5075C33.1105 25.7825 33.2197 26.0462 33.4142 26.2406C33.6087 26.4351 33.8724 26.5443 34.1474 26.5443H42.442C42.717 26.5443 42.9808 26.4351 43.1752 26.2406C43.3697 26.0462 43.4789 25.7825 43.4789 25.5075ZM43.4789 21.3602C43.4789 21.0852 43.3697 20.8215 43.1752 20.627C42.9808 20.4326 42.717 20.3233 42.442 20.3233H34.1474C33.8724 20.3233 33.6087 20.4326 33.4142 20.627C33.2197 20.8215 33.1105 21.0852 33.1105 21.3602C33.1105 21.6352 33.2197 21.8989 33.4142 22.0934C33.6087 22.2878 33.8724 22.3971 34.1474 22.3971H42.442C42.717 22.397 42.9807 22.2877 43.1751 22.0933C43.3696 21.8989 43.4788 21.6352 43.4789 21.3602ZM43.4789 17.2128C43.4789 17.0766 43.4521 16.9418 43.4 16.816C43.3479 16.6902 43.2715 16.5759 43.1752 16.4796C43.0789 16.3833 42.9646 16.307 42.8388 16.2549C42.713 16.2028 42.5782 16.1759 42.442 16.1759H34.1474C33.8724 16.1759 33.6087 16.2852 33.4142 16.4796C33.2197 16.6741 33.1105 16.9378 33.1105 17.2128C33.1105 17.4878 33.2197 17.7515 33.4142 17.946C33.6087 18.1404 33.8724 18.2497 34.1474 18.2497H42.442C42.717 18.2497 42.9807 18.1404 43.1752 17.946C43.3696 17.7515 43.4789 17.4878 43.4789 17.2128ZM34.9249 42.4425H25.075L23.9154 45.5346C23.6612 46.2124 24.1623 46.9354 24.8862 46.9354H35.1135C35.8375 46.9354 36.3384 46.2124 36.0843 45.5346L34.9249 42.4425Z" fill="url(#paint1_linear_595_79)"/>
</g>
<defs>
<linearGradient id="paint0_linear_595_79" x1="30" y1="60" x2="30" y2="-9.99996" gradientUnits="userSpaceOnUse">
<stop stop-color="#FFC8D1"/>
<stop offset="1" stop-color="#FFF6F7"/>
</linearGradient>
<linearGradient id="paint1_linear_595_79" x1="30" y1="46.9354" x2="30" y2="13.0654" gradientUnits="userSpaceOnUse">
<stop stop-color="#FFA68D"/>
<stop offset="1" stop-color="#FD3A84"/>
</linearGradient>
<clipPath id="clip0_595_79">
<rect width="60" height="60" fill="white"/>
</clipPath>
</defs>
</svg>
