<svg id="scalability-benefits" xmlns="http://www.w3.org/2000/svg" xmlns:xlink="http://www.w3.org/1999/xlink" width="505" height="496.4" viewBox="0 0 505 496.4">
  <defs>
    <linearGradient id="linear-gradient" x1="-0.001" y1="0.499" x2="0.999" y2="0.499" gradientUnits="objectBoundingBox">
      <stop offset="0" stop-color="#00b1e0"/>
      <stop offset="1" stop-color="#8aeeff"/>
    </linearGradient>
    <linearGradient id="linear-gradient-2" x1="-0.002" y1="0.469" x2="0.999" y2="0.469" xlink:href="#linear-gradient"/>
    <linearGradient id="linear-gradient-3" x1="0" y1="0.458" x2="1" y2="0.458" xlink:href="#linear-gradient"/>
    <linearGradient id="linear-gradient-4" x1="-0.001" y1="0.495" x2="1" y2="0.495" xlink:href="#linear-gradient"/>
    <linearGradient id="linear-gradient-5" x1="-0.002" y1="0.522" x2="0.999" y2="0.522" xlink:href="#linear-gradient"/>
    <linearGradient id="linear-gradient-6" x1="0" y1="0.469" x2="1" y2="0.469" xlink:href="#linear-gradient"/>
    <linearGradient id="linear-gradient-7" x1="-0.001" y1="0.459" x2="1" y2="0.459" xlink:href="#linear-gradient"/>
    <linearGradient id="linear-gradient-8" x1="0" y1="0.499" x2="0.999" y2="0.499" xlink:href="#linear-gradient"/>
    <linearGradient id="linear-gradient-9" x1="0.001" y1="0.5" x2="1.002" y2="0.5" xlink:href="#linear-gradient"/>
    <linearGradient id="linear-gradient-10" x1="0.002" y1="0.497" x2="1.002" y2="0.497" xlink:href="#linear-gradient"/>
    <linearGradient id="linear-gradient-11" x1="0" y1="0.5" x2="1.001" y2="0.5" xlink:href="#linear-gradient"/>
    <linearGradient id="linear-gradient-12" x1="0.001" y1="0.498" x2="1" y2="0.498" xlink:href="#linear-gradient"/>
    <linearGradient id="linear-gradient-13" x1="0.001" y1="0.501" x2="0.998" y2="0.501" xlink:href="#linear-gradient"/>
    <linearGradient id="linear-gradient-14" x1="-0.005" y1="0.5" x2="0.999" y2="0.5" xlink:href="#linear-gradient"/>
    <linearGradient id="linear-gradient-15" x1="0.002" y1="0.499" x2="1.001" y2="0.499" xlink:href="#linear-gradient"/>
  </defs>
  <g id="Group_17162" data-name="Group 17162">
    <g id="Group_17111" data-name="Group 17111">
      <g id="Group_17086" data-name="Group 17086">
        <g id="Group_17077" data-name="Group 17077">
          <g id="Group_17076" data-name="Group 17076">
            <g id="Group_17075" data-name="Group 17075">
              <path id="Path_9076" data-name="Path 9076" d="M415.6,20.4a26.414,26.414,0,0,1,7.1-3.1l1.5-7,11.8-.2,1.7,6.9a31.611,31.611,0,0,1,7.2,2.8l6-3.9,8.5,8.2-3.7,6.1a26.414,26.414,0,0,1,3.1,7.1l7,1.5.2,11.8-6.9,1.7a31.611,31.611,0,0,1-2.8,7.2l3.9,6L452,74l-6.1-3.7a26.413,26.413,0,0,1-7.1,3.1l-1.5,7-11.8.2-1.7-6.9a31.61,31.61,0,0,1-7.2-2.8l-6,3.9-8.5-8.2,3.7-6.1a26.414,26.414,0,0,1-3.1-7.1l-7-1.5L395.4,40l6.9-1.7a31.611,31.611,0,0,1,2.8-7.2l-3.9-6,8.2-8.5,6.2,3.8Zm6.3,15.7a12.659,12.659,0,1,0,17.9-.3A12.646,12.646,0,0,0,421.9,36.1Z" fill="#e1e1e1"/>
            </g>
          </g>
        </g>
        <g id="Group_17081" data-name="Group 17081">
          <g id="Group_17080" data-name="Group 17080">
            <g id="Group_17079" data-name="Group 17079">
              <g id="Group_17078" data-name="Group 17078">
                <path id="Path_9077" data-name="Path 9077" d="M421.9,36.1a12.022,12.022,0,0,1,2.4-2.1,13.369,13.369,0,0,1,8.3-2,12.671,12.671,0,0,1,5.6,2,13.429,13.429,0,0,1,4.6,5.1,13.86,13.86,0,0,1,1.2,3.6,12.854,12.854,0,0,1-3.4,11.2,13.347,13.347,0,0,1-7.2,3.8,12.762,12.762,0,0,1-3.9.1,13.641,13.641,0,0,1-3.6-1,12.836,12.836,0,0,1-5.3-4.4,12.642,12.642,0,0,1-2.2-5.6,12.282,12.282,0,0,1,1.7-8.3,7.832,7.832,0,0,1,1.8-2.4,26.694,26.694,0,0,0-1.7,2.6,12.1,12.1,0,0,0-1.4,8.1,13.335,13.335,0,0,0,2.2,5.3,11.641,11.641,0,0,0,5.1,4.1,13.307,13.307,0,0,0,3.4,1,11.5,11.5,0,0,0,3.7-.1,12.582,12.582,0,0,0,6.8-3.6,12.4,12.4,0,0,0,3.3-6.9,9.23,9.23,0,0,0-.1-3.7,10.425,10.425,0,0,0-1.1-3.4,12.157,12.157,0,0,0-4.3-4.9,11.537,11.537,0,0,0-5.4-2,13.227,13.227,0,0,0-8.1,1.7C422.7,35.3,422,36.2,421.9,36.1Z" fill="#e1e1e1"/>
              </g>
            </g>
          </g>
        </g>
        <g id="Group_17085" data-name="Group 17085">
          <g id="Group_17084" data-name="Group 17084">
            <g id="Group_17083" data-name="Group 17083">
              <g id="Group_17082" data-name="Group 17082">
                <path id="Path_9078" data-name="Path 9078" d="M415.6,20.4a1.1,1.1,0,0,0-.4-.2c-.3-.2-.7-.4-1.2-.7-1.1-.6-2.6-1.5-4.6-2.7h.1c-2.1,2.2-4.8,5.1-8.2,8.6v-.2q1.8,2.7,3.9,6l.1.1-.1.1a30.035,30.035,0,0,0-2.8,7.1v.1h-.1c-2.2.5-4.5,1.1-6.9,1.7l.2-.3c.1,3.7.2,7.7.2,11.8l-.2-.3c2.2.4,4.6.9,7,1.4h.2l.1.2a30.621,30.621,0,0,0,3.1,7l.1.2-.1.2c-1.1,1.9-2.4,4-3.7,6.1l-.1-.4c2.7,2.6,5.6,5.4,8.5,8.2h-.4c1.9-1.2,3.9-2.6,6-3.9l.2-.1.2.1a26.307,26.307,0,0,0,7.1,2.8l.2.1.1.2c.5,2.2,1.1,4.5,1.7,6.9l-.4-.3c3.7-.1,7.8-.1,11.8-.2l-.3.3c.5-2.2,1-4.6,1.5-7v-.2l.2-.1a35.141,35.141,0,0,0,7-3h0l.2-.1.2.1c2.1,1.2,4.1,2.5,6.1,3.7l-.4.1c2.8-2.9,5.5-5.7,8.2-8.5v.4l-3.9-6-.1-.2.1-.2a26.932,26.932,0,0,0,2.8-7.1l.1-.2.2-.1c2.3-.6,4.7-1.1,6.9-1.7l-.3.3c-.1-4-.1-8-.2-11.8l.3.3c-2.4-.5-4.7-1-7-1.5h-.2l-.1-.2a27.4,27.4,0,0,0-3-7l-.1-.2.1-.2c1.3-2.1,2.5-4.1,3.7-6.1v.4c-3-2.9-5.8-5.6-8.5-8.2h.3q-3.15,2.1-6,3.9l-.1.1-.1-.1a31.675,31.675,0,0,0-7.1-2.8h-.1V17c-.6-2.5-1.2-4.8-1.7-7l.2.2c-4.6.1-8.5.1-11.8.2l.2-.1c-.6,2.8-1.1,5.1-1.5,7v.1h-.1a26.283,26.283,0,0,0-5.4,2.1c-.5.3-1,.5-1.3.7a1.375,1.375,0,0,0-.6.2,2.959,2.959,0,0,1,.4-.3c.3-.2.7-.4,1.2-.7a25.338,25.338,0,0,1,5.4-2.2l-.1.1c.4-1.9.8-4.2,1.4-7v-.1h.1c3.3-.1,7.2-.2,11.8-.3h.2v.2c.5,2.1,1.1,4.4,1.7,6.9l-.2-.2a30.6,30.6,0,0,1,7.2,2.8h-.3q2.85-1.95,6-3.9l.2-.1.2.2c2.7,2.6,5.5,5.3,8.5,8.2l.2.2-.1.2c-1.2,2-2.4,4-3.7,6.1v-.3a29.991,29.991,0,0,1,3.1,7.1l-.2-.2c2.3.5,4.6,1,7,1.4l.3.1v.3c.1,3.8.1,7.8.2,11.8V51H466c-2.3.6-4.6,1.1-6.9,1.7l.3-.3a28.527,28.527,0,0,1-2.9,7.3v-.4l3.9,6,.2.2-.2.2c-2.7,2.8-5.4,5.6-8.2,8.5l-.2.2-.2-.2c-2-1.2-4.1-2.5-6.1-3.7h.4a30.131,30.131,0,0,1-7.2,3.1l.3-.3c-.5,2.4-1,4.8-1.5,7l-.1.3h-.3c-4.1.1-8.1.1-11.8.2h-.3l-.1-.3c-.6-2.4-1.2-4.8-1.7-6.9l.3.3a29.286,29.286,0,0,1-7.3-2.9h.4q-3.15,2.1-6,3.9l-.2.1-.2-.2c-3-2.9-5.8-5.6-8.5-8.2l-.2-.2.1-.2c1.3-2.1,2.6-4.2,3.7-6.1v.3a30.132,30.132,0,0,1-3.1-7.2l.2.2c-2.4-.5-4.8-1-7-1.5h-.2v-.2c-.1-4.2-.1-8.1-.2-11.8v-.2h.2c2.4-.6,4.8-1.2,7-1.7l-.2.2a29.286,29.286,0,0,1,2.9-7.2v.2q-2.1-3.3-3.9-6l-.1-.1.1-.1c3.4-3.4,6.2-6.3,8.3-8.5l.1-.1h.1c2,1.2,3.5,2.2,4.5,2.8a8.756,8.756,0,0,0,1.2.7C415.5,20.3,415.6,20.3,415.6,20.4Z" fill="#e1e1e1"/>
              </g>
            </g>
          </g>
        </g>
      </g>
      <g id="Group_17098" data-name="Group 17098">
        <g id="Group_17089" data-name="Group 17089">
          <g id="Group_17088" data-name="Group 17088">
            <g id="Group_17087" data-name="Group 17087">
              <path id="Path_9079" data-name="Path 9079" d="M30.8,6.8a18.864,18.864,0,0,1,4.6-2L36.3.3,44,.1l1.1,4.5a18.344,18.344,0,0,1,4.6,1.8l3.9-2.5,5.5,5.3-2.4,4a18.863,18.863,0,0,1,2,4.6l4.5.9.1,7.6-4.5,1.1A18.345,18.345,0,0,1,57,32l2.5,3.9-5.3,5.5-4-2.4a18.864,18.864,0,0,1-4.6,2l-.9,4.5-7.6.1L36,41.2a18.345,18.345,0,0,1-4.6-1.8l-3.9,2.5L22,36.6l2.4-4a18.864,18.864,0,0,1-2-4.6l-4.5-.9-.1-7.6,4.5-1.1a18.345,18.345,0,0,1,1.8-4.6L21.6,9.9l5.3-5.5,3.9,2.4ZM34.9,17a8.2,8.2,0,1,0,11.6-.2A8.119,8.119,0,0,0,34.9,17Z" fill="#f5f5f5"/>
            </g>
          </g>
        </g>
        <g id="Group_17093" data-name="Group 17093">
          <g id="Group_17092" data-name="Group 17092">
            <g id="Group_17091" data-name="Group 17091">
              <g id="Group_17090" data-name="Group 17090">
                <path id="Path_9080" data-name="Path 9080" d="M34.9,17a5.289,5.289,0,0,1,1.5-1.3,8.774,8.774,0,0,1,5.4-1.3,7.178,7.178,0,0,1,3.6,1.3A7.756,7.756,0,0,1,48.3,19a6.154,6.154,0,0,1,.7,2.3,7,7,0,0,1,0,2.5,8.058,8.058,0,0,1-2.3,4.7,7.948,7.948,0,0,1-4.6,2.4,5.283,5.283,0,0,1-2.5,0,6.154,6.154,0,0,1-2.3-.7,7.927,7.927,0,0,1-3.4-2.8,8.459,8.459,0,0,1-1.4-3.6,8.236,8.236,0,0,1,1.1-5.4A5.677,5.677,0,0,1,34.9,17a7.02,7.02,0,0,0-1.1,1.7,8.218,8.218,0,0,0,.5,8.7,8.04,8.04,0,0,0,3.3,2.7,7.945,7.945,0,0,0,2.2.6,6.473,6.473,0,0,0,2.4-.1,8.543,8.543,0,0,0,4.4-2.3,7.987,7.987,0,0,0,2.2-4.5,9.638,9.638,0,0,0,0-2.4,8.083,8.083,0,0,0-.7-2.2,8.129,8.129,0,0,0-6.3-4.5,7.772,7.772,0,0,0-5.2,1.1A9.061,9.061,0,0,0,34.9,17Z" fill="#f5f5f5"/>
              </g>
            </g>
          </g>
        </g>
        <g id="Group_17097" data-name="Group 17097">
          <g id="Group_17096" data-name="Group 17096">
            <g id="Group_17095" data-name="Group 17095">
              <g id="Group_17094" data-name="Group 17094">
                <path id="Path_9081" data-name="Path 9081" d="M30.8,6.8a.774.774,0,0,1-.3-.1,2.932,2.932,0,0,0-.8-.4q-1.05-.6-3-1.8h.1c-1.4,1.4-3.1,3.3-5.3,5.5V9.9c.8,1.2,1.6,2.5,2.5,3.9V14a16.964,16.964,0,0,0-1.8,4.6v.1h-.1c-1.4.3-2.9.7-4.5,1.1l.1-.2c0,2.4.1,5,.2,7.6V27q2.1.45,4.5.9h.1V28a17.76,17.76,0,0,0,2,4.5l.1.1-.1.1c-.7,1.2-1.6,2.6-2.4,4v-.3c1.7,1.7,3.6,3.5,5.5,5.3h-.3c1.2-.8,2.5-1.7,3.9-2.5l.1-.1.1.1A15.772,15.772,0,0,0,36,41h.1v.1c.3,1.4.7,2.9,1.1,4.5l-.2-.2c2.4,0,5-.1,7.6-.1l-.2.2c.3-1.4.6-3,.9-4.5v-.1h.1a16.336,16.336,0,0,0,4.5-2h0l.1-.1.1.1c1.3.8,2.6,1.6,4,2.4h-.3c1.8-1.9,3.6-3.7,5.3-5.5v.3c-.9-1.3-1.7-2.6-2.5-3.9l-.1-.1.1-.1a19.964,19.964,0,0,0,1.8-4.6v-.1h.1c1.5-.4,3-.7,4.5-1.1l-.2.2c0-2.6-.1-5.2-.1-7.6l.2.2-4.5-.9h-.1V18a18.177,18.177,0,0,0-2-4.5l-.1-.1.1-.1q1.2-2.1,2.4-3.9v.2C56.8,7.7,54.9,6,53.2,4.3h.2C52.3,5,51,5.8,49.8,6.6l-.1.1h-.1A17.542,17.542,0,0,0,45,4.9h-.1V4.8c-.4-1.6-.8-3.1-1.1-4.5H44c-3,0-5.5.1-7.6.1l.1-.1c-.4,1.8-.7,3.3-1,4.5h0A35.7,35.7,0,0,0,32,6.1l-.8.4c-.3.3-.4.3-.4.3a1.238,1.238,0,0,1,.3-.2c.2-.1.4-.3.8-.5a19.078,19.078,0,0,1,3.5-1.4l-.1.1q.3-1.8.9-4.5V.2h.1C38.5.1,41,.1,44,0h.1V.1c.3,1.4.7,2.9,1.1,4.5l-.1-.1a25.029,25.029,0,0,1,4.7,1.8h-.2c1.2-.8,2.5-1.6,3.9-2.5l.1-.1.1.1c1.7,1.7,3.6,3.4,5.5,5.3l.1.1-.1.1c-.8,1.3-1.6,2.6-2.4,4v-.2a18.863,18.863,0,0,1,2,4.6l-.2-.1,4.5.9h.2v.2c0,2.5.1,5,.1,7.6v.2h-.2c-1.5.4-3,.7-4.5,1.1l.2-.2a20.7,20.7,0,0,1-1.8,4.7v-.2c.8,1.3,1.7,2.6,2.5,3.9l.1.2-.1.1c-1.7,1.8-3.5,3.6-5.3,5.5l-.1.1-.2-.1c-1.3-.8-2.6-1.6-4-2.4h.2a18.36,18.36,0,0,1-4.6,2l.2-.2q-.45,2.4-.9,4.5v.2h-.2c-2.6,0-5.2.1-7.6.1h-.2v-.2c-.4-1.5-.8-3.1-1.1-4.5l.2.2a17.81,17.81,0,0,1-4.7-1.9h.2c-1.3.9-2.7,1.7-3.9,2.5l-.1.1-.1-.1c-1.9-1.8-3.8-3.6-5.5-5.3l-.1-.1.1-.1c.8-1.4,1.7-2.7,2.4-3.9v.2a18.36,18.36,0,0,1-2-4.6l.1.1c-1.6-.3-3.1-.7-4.5-1h-.1v-.1c0-2.7-.1-5.2-.1-7.6v-.1h.1c1.6-.4,3.1-.7,4.5-1.1l-.1.1a17.81,17.81,0,0,1,1.9-4.7v.1c-.9-1.4-1.8-2.7-2.5-3.9l-.1-.1.1-.1c2.2-2.2,4-4.1,5.3-5.5H27c1.3.8,2.2,1.4,2.9,1.8a6.818,6.818,0,0,1,.7.5A1.238,1.238,0,0,0,30.8,6.8Z" fill="#f5f5f5"/>
              </g>
            </g>
          </g>
        </g>
      </g>
      <g id="Group_17110" data-name="Group 17110">
        <g id="Group_17101" data-name="Group 17101">
          <g id="Group_17100" data-name="Group 17100">
            <g id="Group_17099" data-name="Group 17099">
              <path id="Path_9082" data-name="Path 9082" d="M351,134.1h0l-2.2-8.9a35.993,35.993,0,0,1-9.1-3.6l-7.6,5h0l-10.9-10.5h0l4.7-7.8a36.076,36.076,0,0,1-3.9-9l-8.9-1.9h0l-.3-15.1h0l8.8-2.2a35.992,35.992,0,0,1,3.6-9.1l-5-7.6h0l10.5-10.9h0l7.8,4.7a36.076,36.076,0,0,1,9-3.9l1.9-8.9h0l15.1-.3h0l2.2,8.8a35.993,35.993,0,0,1,9.1,3.6l7.6-5h0L394.3,62h0l-4.7,7.8a36.076,36.076,0,0,1,3.9,9l8.9,1.9h0l.3,15.1h0L393.9,98a35.992,35.992,0,0,1-3.6,9.1l5,7.6h0l-10.5,10.9h0L377,121a36.076,36.076,0,0,1-9,3.9l-1.9,8.9h0Zm-11.3-12.5h0a38.241,38.241,0,0,0,9.2,3.6h0l2.2,8.8,15-.3,1.9-8.9h0a36.076,36.076,0,0,0,9-3.9h0l7.8,4.7,10.4-10.8-5-7.6h0a37.53,37.53,0,0,0,3.6-9.1h0l8.8-2.2-.3-15L393.4,79h0a36.077,36.077,0,0,0-3.9-9h0l4.7-7.8L383.4,51.7l-7.6,5h0a36.689,36.689,0,0,0-9.2-3.6h0l-2.2-8.8-15,.3-1.9,8.9h0a36.076,36.076,0,0,0-9,3.9h0l-7.8-4.7L320.3,63.5l5,7.6h0a39.2,39.2,0,0,0-3.6,9.1h0l-8.8,2.2.3,15,8.9,1.9h0a36.077,36.077,0,0,0,3.9,9h0l-4.7,7.8,10.8,10.5Zm18.5-16.8a16.251,16.251,0,0,1-11.7-27.5,16.411,16.411,0,0,1,11.4-5h.3a16.136,16.136,0,0,1,11.3,4.6,16.254,16.254,0,0,1-10.9,28A.756.756,0,0,0,358.2,104.8ZM346.6,77.4h0a16.239,16.239,0,0,0,.4,22.9,16.063,16.063,0,0,0,11.2,4.5h.3a16.079,16.079,0,0,0,11.3-4.9,15.915,15.915,0,0,0,4.5-11.5,16.044,16.044,0,0,0-16.1-15.8h-.3a15.2,15.2,0,0,0-11.3,4.8Z" fill="#e1e1e1"/>
            </g>
          </g>
        </g>
        <g id="Group_17105" data-name="Group 17105">
          <g id="Group_17104" data-name="Group 17104">
            <g id="Group_17103" data-name="Group 17103">
              <g id="Group_17102" data-name="Group 17102">
                <path id="Path_9083" data-name="Path 9083" d="M346.6,77.4a10.578,10.578,0,0,1,3-2.6,16.5,16.5,0,0,1,23.6,6.6,17.021,17.021,0,0,1,1.5,4.5,16.7,16.7,0,0,1,.1,5A16.477,16.477,0,0,1,361.1,105a16.832,16.832,0,0,1-5,.1,14.321,14.321,0,0,1-4.6-1.3A16.572,16.572,0,0,1,342,91.1a15.9,15.9,0,0,1,2.1-10.6,9.423,9.423,0,0,1,2.5-3.1c.1.1-1,1.1-2.2,3.3a16.527,16.527,0,0,0-1.8,10.4,15.534,15.534,0,0,0,2.8,6.7,15.366,15.366,0,0,0,6.5,5.2,16.162,16.162,0,0,0,9.1,1.1,15.469,15.469,0,0,0,8.7-4.6,16.248,16.248,0,0,0,4.3-8.8,14.765,14.765,0,0,0-.1-4.7,12.787,12.787,0,0,0-1.4-4.3,16.153,16.153,0,0,0-5.5-6.3,16.029,16.029,0,0,0-17.1-.3A15.547,15.547,0,0,0,346.6,77.4Z" fill="#ececec"/>
              </g>
            </g>
          </g>
        </g>
        <g id="Group_17109" data-name="Group 17109">
          <g id="Group_17108" data-name="Group 17108">
            <g id="Group_17107" data-name="Group 17107">
              <g id="Group_17106" data-name="Group 17106">
                <path id="Path_9084" data-name="Path 9084" d="M338.5,57.2a5.193,5.193,0,0,1-.5-.3,14.678,14.678,0,0,1-1.5-.9c-1.4-.8-3.3-2-5.9-3.5h.2c-2.7,2.8-6.2,6.5-10.4,10.9v-.3c1.5,2.3,3.2,4.9,5,7.6l.1.1-.1.1a35.163,35.163,0,0,0-3.5,9.1v.2h-.2c-2.8.7-5.7,1.4-8.9,2.2l.3-.3c.1,4.8.2,9.8.3,15.1l-.3-.4c2.8.6,5.8,1.2,8.9,1.8h.2l.1.2a34.5,34.5,0,0,0,3.9,8.9l.1.2-.1.2c-1.5,2.4-3.1,5.1-4.7,7.8l-.1-.5c3.4,3.3,7.1,6.8,10.9,10.5l-.5-.1c2.4-1.6,5-3.3,7.6-5l.2-.1.2.1a37.628,37.628,0,0,0,9,3.6l.3.1.1.3c.7,2.8,1.4,5.8,2.2,8.9l-.4-.3c4.8-.1,9.9-.2,15.1-.3l-.4.4c.6-2.8,1.2-5.9,1.9-8.9l.1-.3.3-.1a31.771,31.771,0,0,0,8.9-3.9h0l.2-.1.2.1c2.6,1.6,5.2,3.2,7.8,4.7l-.6.1c3.5-3.7,7-7.3,10.5-10.9l-.1.6c-1.7-2.6-3.3-5.1-5-7.6l-.2-.2.1-.2a38.484,38.484,0,0,0,3.6-9l.1-.3.3-.1c3-.7,5.9-1.5,8.9-2.2l-.3.4c-.1-5.2-.2-10.2-.3-15.1l.3.4c-3-.6-6-1.3-8.9-1.9l-.2-.1-.1-.2a33.89,33.89,0,0,0-3.9-8.9l-.1-.2.1-.2c1.6-2.7,3.2-5.3,4.7-7.8l.1.5q-5.7-5.55-10.8-10.5h.4c-2.7,1.8-5.2,3.4-7.6,5l-.2.1-.2-.1a34.478,34.478,0,0,0-9.1-3.6h-.2v-.2c-.8-3.2-1.5-6.1-2.1-8.9l.3.2c-5.8.1-10.8.1-15.1.2l.2-.2c-.8,3.6-1.4,6.5-1.9,8.9v.1h-.1a33.937,33.937,0,0,0-6.9,2.7c-.7.4-1.2.6-1.6.8-.5.6-.7.7-.7.6a5.193,5.193,0,0,0,.5-.3c.3-.2.9-.5,1.6-.9a30.823,30.823,0,0,1,6.9-2.8l-.1.1c.5-2.4,1.1-5.4,1.8-8.9v-.2h.2c4.3-.1,9.2-.2,15.1-.3h.2l.1.2c.7,2.7,1.4,5.6,2.2,8.9l-.2-.2a36.483,36.483,0,0,1,9.2,3.6h-.3c2.4-1.6,4.9-3.3,7.6-5l.2-.2.2.2c3.4,3.3,7.1,6.8,10.9,10.5l.2.2-.2.3c-1.5,2.5-3.1,5.1-4.7,7.8v-.4a41.227,41.227,0,0,1,4,9.1l-.3-.3c2.9.6,5.9,1.2,8.9,1.8l.3.1v.3c.1,4.9.2,9.9.3,15.1v.4l-.3.1c-2.9.7-5.9,1.4-8.9,2.2l.3-.3a40.663,40.663,0,0,1-3.6,9.3v-.5c1.7,2.5,3.3,5.1,5,7.6l.2.3-.3.3c-3.4,3.6-6.9,7.2-10.5,10.9l-.3.3-.3-.2c-2.6-1.6-5.2-3.1-7.8-4.7h.5a38.26,38.26,0,0,1-9.1,4l.3-.4c-.6,3.1-1.3,6.1-1.9,8.9l-.1.4h-.4c-5.2.1-10.3.2-15.1.3h-.4l-.1-.4c-.7-3.1-1.5-6.1-2.2-8.9l.3.3a34.768,34.768,0,0,1-9.3-3.7h.5c-2.6,1.7-5.3,3.4-7.6,5l-.3.2-.2-.2c-3.8-3.6-7.4-7.2-10.8-10.5l-.2-.2.2-.3c1.7-2.7,3.3-5.4,4.7-7.8v.4a37.254,37.254,0,0,1-3.9-9.1l.3.3c-3.1-.7-6.2-1.3-8.9-1.9l-.3-.1v-.3c-.1-5.3-.2-10.3-.2-15.1v-.3l.3-.1c3.1-.8,6.1-1.5,8.9-2.1l-.2.2a36.133,36.133,0,0,1,3.7-9.2v.3c-1.8-2.8-3.5-5.3-5-7.6l-.1-.2.1-.1q6.45-6.6,10.5-10.8l.1-.1.1.1c2.5,1.6,4.4,2.7,5.7,3.6a14.678,14.678,0,0,0,1.5.9C338.4,57.1,338.5,57.2,338.5,57.2Z" fill="#ececec"/>
              </g>
            </g>
          </g>
        </g>
      </g>
    </g>
    <g id="Group_17130" data-name="Group 17130">
      <g id="Group_17114" data-name="Group 17114">
        <g id="Group_17113" data-name="Group 17113">
          <g id="Group_17112" data-name="Group 17112">
            <rect id="Rectangle_1321" data-name="Rectangle 1321" width="64.2" height="45.8" transform="translate(426.7 149.6)" fill="#e1e1e1"/>
          </g>
        </g>
      </g>
      <g id="Group_17129" data-name="Group 17129">
        <g id="Group_17118" data-name="Group 17118">
          <g id="Group_17117" data-name="Group 17117">
            <g id="Group_17116" data-name="Group 17116">
              <g id="Group_17115" data-name="Group 17115">
                <path id="Path_9085" data-name="Path 9085" d="M491.4,156.4c0,.1-14.5.2-32.4.2s-32.4-.1-32.4-.2,14.5-.2,32.4-.2C477,156.2,491.4,156.3,491.4,156.4Z" fill="#fff"/>
              </g>
            </g>
          </g>
        </g>
        <g id="Group_17128" data-name="Group 17128">
          <g id="Group_17121" data-name="Group 17121">
            <g id="Group_17120" data-name="Group 17120">
              <g id="Group_17119" data-name="Group 17119">
                <path id="Path_9086" data-name="Path 9086" d="M432,153.1a.882.882,0,0,1-.9.8.817.817,0,0,1-.9-.8.906.906,0,0,1,1.8,0Z" fill="#fff"/>
              </g>
            </g>
          </g>
          <g id="Group_17124" data-name="Group 17124">
            <g id="Group_17123" data-name="Group 17123">
              <g id="Group_17122" data-name="Group 17122">
                <path id="Path_9087" data-name="Path 9087" d="M435.1,153.1a.882.882,0,0,1-.9.8.817.817,0,0,1-.9-.8.906.906,0,0,1,1.8,0Z" fill="#fff"/>
              </g>
            </g>
          </g>
          <g id="Group_17127" data-name="Group 17127">
            <g id="Group_17126" data-name="Group 17126">
              <g id="Group_17125" data-name="Group 17125">
                <path id="Path_9088" data-name="Path 9088" d="M438.3,153.1a.882.882,0,0,1-.9.8.817.817,0,0,1-.9-.8.906.906,0,0,1,1.8,0Z" fill="#fff"/>
              </g>
            </g>
          </g>
        </g>
      </g>
    </g>
    <g id="Group_17161" data-name="Group 17161">
      <g id="Group_17134" data-name="Group 17134">
        <g id="Group_17133" data-name="Group 17133">
          <g id="Group_17132" data-name="Group 17132">
            <g id="Group_17131" data-name="Group 17131">
              <path id="Path_9089" data-name="Path 9089" d="M51.1,305.5a6.039,6.039,0,0,1,.7-.8l2.1-2.1c1.8-1.7,4.2-4.1,7-6.8l.1-.1v.4c-2.8-2.6-5.2-4.9-7-6.6-.8-.8-1.5-1.5-2.1-2a6.039,6.039,0,0,1-.7-.8,6.039,6.039,0,0,1,.8.7c.6.5,1.3,1.2,2.2,1.9,1.8,1.6,4.4,3.9,7.1,6.5l.2.2-.2.2-.1.1c-2.7,2.6-5.2,5-7.1,6.6-.9.8-1.6,1.4-2.2,2C51.4,305.3,51.1,305.6,51.1,305.5Z" fill="#e1e1e1"/>
            </g>
          </g>
        </g>
      </g>
      <g id="Group_17138" data-name="Group 17138">
        <g id="Group_17137" data-name="Group 17137">
          <g id="Group_17136" data-name="Group 17136">
            <g id="Group_17135" data-name="Group 17135">
              <path id="Path_9090" data-name="Path 9090" d="M29.7,286.7a6.039,6.039,0,0,1-.7.8l-2.1,2.1c-1.8,1.7-4.2,4.1-7,6.8l-.1.1v-.4c2.8,2.6,5.2,4.9,7,6.6.8.8,1.5,1.5,2.1,2a6.039,6.039,0,0,1,.7.8,6.039,6.039,0,0,1-.8-.7c-.6-.5-1.3-1.2-2.2-1.9-1.8-1.6-4.4-3.9-7.1-6.5l-.2-.2.2-.2.1-.1c2.7-2.6,5.2-5,7.1-6.6.9-.8,1.6-1.4,2.2-2C29.4,286.9,29.7,286.7,29.7,286.7Z" fill="#e1e1e1"/>
            </g>
          </g>
        </g>
      </g>
      <g id="Group_17142" data-name="Group 17142">
        <g id="Group_17141" data-name="Group 17141">
          <g id="Group_17140" data-name="Group 17140">
            <g id="Group_17139" data-name="Group 17139">
              <path id="Path_9091" data-name="Path 9091" d="M35.2,310c-.1,0,2.1-6.3,5-14.1,2.9-7.7,5.3-13.9,5.5-13.9.1,0-2.1,6.3-5,14.1C37.8,303.8,35.3,310,35.2,310Z" fill="#e1e1e1"/>
            </g>
          </g>
        </g>
      </g>
      <g id="Group_17146" data-name="Group 17146">
        <g id="Group_17145" data-name="Group 17145">
          <g id="Group_17144" data-name="Group 17144">
            <g id="Group_17143" data-name="Group 17143">
              <path id="Path_9092" data-name="Path 9092" d="M75.3,323.4v-4.1c0-2.7,0-6.5-.1-11.5,0-9.9-.1-24-.1-41l.2.2H5.9l.2-.2v56.5l-.2-.2c20.6,0,37.9.1,50.1.1,6.1,0,10.9,0,14.2.1H75a.774.774,0,0,0,.3.1h-5c-3.3,0-8.1,0-14.2.1-12.2,0-29.6.1-50.3.1H5.6V266.7H75.4v.2c0,17.1-.1,31.2-.1,41.1,0,4.9,0,8.8-.1,11.4v3A8.153,8.153,0,0,1,75.3,323.4Z" fill="#e1e1e1"/>
            </g>
          </g>
        </g>
      </g>
      <g id="Group_17150" data-name="Group 17150">
        <g id="Group_17149" data-name="Group 17149">
          <g id="Group_17148" data-name="Group 17148">
            <g id="Group_17147" data-name="Group 17147">
              <path id="Path_9093" data-name="Path 9093" d="M75.9,275.3c0,.1-15.7.2-35,.2s-35-.1-35-.2,15.7-.2,35-.2C60.2,275,75.9,275.2,75.9,275.3Z" fill="#e1e1e1"/>
            </g>
          </g>
        </g>
      </g>
      <g id="Group_17160" data-name="Group 17160">
        <g id="Group_17153" data-name="Group 17153">
          <g id="Group_17152" data-name="Group 17152">
            <g id="Group_17151" data-name="Group 17151">
              <path id="Path_9094" data-name="Path 9094" d="M11.6,271.2a.9.9,0,1,1-.9-.9C11.2,270.2,11.6,270.6,11.6,271.2Z" fill="#e1e1e1"/>
            </g>
          </g>
        </g>
        <g id="Group_17156" data-name="Group 17156">
          <g id="Group_17155" data-name="Group 17155">
            <g id="Group_17154" data-name="Group 17154">
              <path id="Path_9095" data-name="Path 9095" d="M15,271.2a.9.9,0,1,1-.9-.9C14.6,270.2,15,270.6,15,271.2Z" fill="#e1e1e1"/>
            </g>
          </g>
        </g>
        <g id="Group_17159" data-name="Group 17159">
          <g id="Group_17158" data-name="Group 17158">
            <g id="Group_17157" data-name="Group 17157">
              <path id="Path_9096" data-name="Path 9096" d="M18.4,271.2a.9.9,0,1,1-.9-.9C18,270.2,18.4,270.6,18.4,271.2Z" fill="#e1e1e1"/>
            </g>
          </g>
        </g>
      </g>
    </g>
  </g>
  <g id="Group_17298" data-name="Group 17298">
    <path id="Path_9097" data-name="Path 9097" d="M42.1,8.8H355.9V260.4H216.2v25.9l-22.9-25.9H42.1Z" fill="#fff"/>
    <g id="Group_17167" data-name="Group 17167">
      <g id="Group_17163" data-name="Group 17163">
        <rect id="Rectangle_1322" data-name="Rectangle 1322" width="314.1" height="21.2" transform="translate(42.3 8.2)" fill="#e1e1e1"/>
      </g>
      <g id="Group_17164" data-name="Group 17164">
        <path id="Path_9098" data-name="Path 9098" d="M59.2,19.6a4.588,4.588,0,0,1-4.6,4.6A4.653,4.653,0,0,1,50,19.6a4.6,4.6,0,1,1,9.2,0Z" fill="#fff"/>
      </g>
      <g id="Group_17165" data-name="Group 17165">
        <path id="Path_9099" data-name="Path 9099" d="M72.5,19.6a4.588,4.588,0,0,1-4.6,4.6,4.653,4.653,0,0,1-4.6-4.6A4.588,4.588,0,0,1,67.9,15,4.525,4.525,0,0,1,72.5,19.6Z" fill="#fff"/>
      </g>
      <g id="Group_17166" data-name="Group 17166">
        <path id="Path_9100" data-name="Path 9100" d="M85.8,19.6a4.588,4.588,0,0,1-4.6,4.6,4.653,4.653,0,0,1-4.6-4.6A4.588,4.588,0,0,1,81.2,15,4.525,4.525,0,0,1,85.8,19.6Z" fill="#fff"/>
      </g>
    </g>
    <g id="Group_17170" data-name="Group 17170">
      <g id="Group_17169" data-name="Group 17169">
        <g id="Group_17168" data-name="Group 17168">
          <path id="Path_9101" data-name="Path 9101" d="M42.3,260.3c0-1.9.1-75.2.2-251.9l-.2.2H356.2l-.3-.3V260.2l.2-.2h-140v25.8l.3-.1c-8.2-9-15.7-17.3-22.9-25.2l-.1-.1h-.1c-94.8,0-149.7-.1-151-.1,1.3,0,56.2.2,151.3.6l-.1-.1c7.2,7.9,14.7,16.2,22.9,25.2l.3.4V260.3l-.2.2h140V8.1H42.1v.2C42.2,185,42.3,258.3,42.3,260.3Z" fill="#0e314c"/>
        </g>
      </g>
    </g>
    <g id="Group_17297" data-name="Group 17297">
      <g id="Group_17173" data-name="Group 17173">
        <g id="Group_17172" data-name="Group 17172">
          <g id="Group_17171" data-name="Group 17171">
            <path id="Path_9102" data-name="Path 9102" d="M68.2,260.4c-.2,0-.3-49.5-.3-110.5,0-61.1.1-110.5.3-110.5s.3,49.5.3,110.5S68.4,260.4,68.2,260.4Z" fill="#0e314c"/>
          </g>
        </g>
      </g>
      <g id="Group_17176" data-name="Group 17176">
        <g id="Group_17175" data-name="Group 17175">
          <g id="Group_17174" data-name="Group 17174">
            <path id="Path_9103" data-name="Path 9103" d="M61.3,48.5c0,.2-2.5.4-5.6.4s-5.6-.2-5.6-.4,2.5-.4,5.6-.4S61.3,48.3,61.3,48.5Z" fill="#0e314c"/>
          </g>
        </g>
      </g>
      <g id="Group_17179" data-name="Group 17179">
        <g id="Group_17178" data-name="Group 17178">
          <g id="Group_17177" data-name="Group 17177">
            <path id="Path_9104" data-name="Path 9104" d="M61.3,63.8c0,.2-2.5.4-5.6.4s-5.6-.2-5.6-.4,2.5-.4,5.6-.4C58.8,63.3,61.3,63.5,61.3,63.8Z" fill="#0e314c"/>
          </g>
        </g>
      </g>
      <g id="Group_17182" data-name="Group 17182">
        <g id="Group_17181" data-name="Group 17181">
          <g id="Group_17180" data-name="Group 17180">
            <path id="Path_9105" data-name="Path 9105" d="M61.3,79c0,.2-2.5.4-5.6.4s-5.6-.2-5.6-.4,2.5-.4,5.6-.4S61.3,78.8,61.3,79Z" fill="#0e314c"/>
          </g>
        </g>
      </g>
      <g id="Group_17185" data-name="Group 17185">
        <g id="Group_17184" data-name="Group 17184">
          <g id="Group_17183" data-name="Group 17183">
            <path id="Path_9106" data-name="Path 9106" d="M61.3,94.3c0,.2-2.5.4-5.6.4s-5.6-.2-5.6-.4,2.5-.4,5.6-.4S61.3,94.1,61.3,94.3Z" fill="#0e314c"/>
          </g>
        </g>
      </g>
      <g id="Group_17188" data-name="Group 17188">
        <g id="Group_17187" data-name="Group 17187">
          <g id="Group_17186" data-name="Group 17186">
            <path id="Path_9107" data-name="Path 9107" d="M61.3,109.6c0,.2-2.5.4-5.6.4s-5.6-.2-5.6-.4,2.5-.4,5.6-.4S61.3,109.4,61.3,109.6Z" fill="#0e314c"/>
          </g>
        </g>
      </g>
      <g id="Group_17191" data-name="Group 17191">
        <g id="Group_17190" data-name="Group 17190">
          <g id="Group_17189" data-name="Group 17189">
            <path id="Path_9108" data-name="Path 9108" d="M61.3,124.9c0,.2-2.5.4-5.6.4s-5.6-.2-5.6-.4,2.5-.4,5.6-.4S61.3,124.6,61.3,124.9Z" fill="#0e314c"/>
          </g>
        </g>
      </g>
      <g id="Group_17194" data-name="Group 17194">
        <g id="Group_17193" data-name="Group 17193">
          <g id="Group_17192" data-name="Group 17192">
            <path id="Path_9109" data-name="Path 9109" d="M61.3,140.2c0,.2-2.5.4-5.6.4s-5.6-.2-5.6-.4,2.5-.4,5.6-.4C58.8,139.7,61.3,139.9,61.3,140.2Z" fill="#0e314c"/>
          </g>
        </g>
      </g>
      <g id="Group_17197" data-name="Group 17197">
        <g id="Group_17196" data-name="Group 17196">
          <g id="Group_17195" data-name="Group 17195">
            <path id="Path_9110" data-name="Path 9110" d="M61.3,155.4c0,.2-2.5.4-5.6.4s-5.6-.2-5.6-.4,2.5-.4,5.6-.4S61.3,155.2,61.3,155.4Z" fill="#0e314c"/>
          </g>
        </g>
      </g>
      <g id="Group_17200" data-name="Group 17200">
        <g id="Group_17199" data-name="Group 17199">
          <g id="Group_17198" data-name="Group 17198">
            <path id="Path_9111" data-name="Path 9111" d="M61.3,170.7c0,.2-2.5.4-5.6.4s-5.6-.2-5.6-.4,2.5-.4,5.6-.4S61.3,170.5,61.3,170.7Z" fill="#0e314c"/>
          </g>
        </g>
      </g>
      <g id="Group_17203" data-name="Group 17203">
        <g id="Group_17202" data-name="Group 17202">
          <g id="Group_17201" data-name="Group 17201">
            <path id="Path_9112" data-name="Path 9112" d="M61.3,186c0,.2-2.5.4-5.6.4s-5.6-.2-5.6-.4,2.5-.4,5.6-.4S61.3,185.8,61.3,186Z" fill="#0e314c"/>
          </g>
        </g>
      </g>
      <g id="Group_17206" data-name="Group 17206">
        <g id="Group_17205" data-name="Group 17205">
          <g id="Group_17204" data-name="Group 17204">
            <path id="Path_9113" data-name="Path 9113" d="M61.3,201.3c0,.2-2.5.4-5.6.4s-5.6-.2-5.6-.4,2.5-.4,5.6-.4C58.8,200.8,61.3,201,61.3,201.3Z" fill="#0e314c"/>
          </g>
        </g>
      </g>
      <g id="Group_17209" data-name="Group 17209">
        <g id="Group_17208" data-name="Group 17208">
          <g id="Group_17207" data-name="Group 17207">
            <path id="Path_9114" data-name="Path 9114" d="M61.3,216.5c0,.2-2.5.4-5.6.4s-5.6-.2-5.6-.4,2.5-.4,5.6-.4S61.3,216.3,61.3,216.5Z" fill="#0e314c"/>
          </g>
        </g>
      </g>
      <g id="Group_17212" data-name="Group 17212">
        <g id="Group_17211" data-name="Group 17211">
          <g id="Group_17210" data-name="Group 17210">
            <path id="Path_9115" data-name="Path 9115" d="M61.3,231.8c0,.2-2.5.4-5.6.4s-5.6-.2-5.6-.4,2.5-.4,5.6-.4S61.3,231.6,61.3,231.8Z" fill="#0e314c"/>
          </g>
        </g>
      </g>
      <g id="Group_17215" data-name="Group 17215">
        <g id="Group_17214" data-name="Group 17214">
          <g id="Group_17213" data-name="Group 17213">
            <path id="Path_9116" data-name="Path 9116" d="M61.3,247.1c0,.2-2.5.4-5.6.4s-5.6-.2-5.6-.4,2.5-.4,5.6-.4S61.3,246.9,61.3,247.1Z" fill="#0e314c"/>
          </g>
        </g>
      </g>
      <g id="Group_17218" data-name="Group 17218">
        <g id="Group_17217" data-name="Group 17217">
          <g id="Group_17216" data-name="Group 17216">
            <path id="Path_9117" data-name="Path 9117" d="M106.1,247.1c0,.2-6.5.4-14.5.4s-14.5-.2-14.5-.4,6.5-.4,14.5-.4S106.1,246.9,106.1,247.1Z" fill="url(#linear-gradient)"/>
          </g>
        </g>
      </g>
      <g id="Group_17221" data-name="Group 17221">
        <g id="Group_17220" data-name="Group 17220">
          <g id="Group_17219" data-name="Group 17219">
            <path id="Path_9118" data-name="Path 9118" d="M146.5,63.8c0,.2-12.1.4-27.1.4s-27.1-.2-27.1-.4,12.1-.4,27.1-.4C134.3,63.3,146.5,63.5,146.5,63.8Z" fill="url(#linear-gradient-2)"/>
          </g>
        </g>
      </g>
      <g id="Group_17224" data-name="Group 17224">
        <g id="Group_17223" data-name="Group 17223">
          <g id="Group_17222" data-name="Group 17222">
            <path id="Path_9119" data-name="Path 9119" d="M209.2,63.8c0,.2-12.1.4-27.1.4S155,64,155,63.8s12.1-.4,27.1-.4C197.1,63.3,209.2,63.5,209.2,63.8Z" fill="#0e314c"/>
          </g>
        </g>
      </g>
      <g id="Group_17227" data-name="Group 17227">
        <g id="Group_17226" data-name="Group 17226">
          <g id="Group_17225" data-name="Group 17225">
            <path id="Path_9120" data-name="Path 9120" d="M185.2,79c0,.2-17.9.4-40,.4s-40-.2-40-.4,17.9-.4,40-.4S185.2,78.8,185.2,79Z" fill="#0e314c"/>
          </g>
        </g>
      </g>
      <g id="Group_17230" data-name="Group 17230">
        <g id="Group_17229" data-name="Group 17229">
          <g id="Group_17228" data-name="Group 17228">
            <path id="Path_9121" data-name="Path 9121" d="M185.2,94.3c0,.2-17.9.4-40,.4s-40-.2-40-.4,17.9-.4,40-.4S185.2,94.1,185.2,94.3Z" fill="#0e314c"/>
          </g>
        </g>
      </g>
      <g id="Group_17233" data-name="Group 17233">
        <g id="Group_17232" data-name="Group 17232">
          <g id="Group_17231" data-name="Group 17231">
            <path id="Path_9122" data-name="Path 9122" d="M240.3,140.2c0,.2-17.9.4-40,.4s-40-.2-40-.4,17.9-.4,40-.4C222.4,139.7,240.3,139.9,240.3,140.2Z" fill="#0e314c"/>
          </g>
        </g>
      </g>
      <g id="Group_17236" data-name="Group 17236">
        <g id="Group_17235" data-name="Group 17235">
          <g id="Group_17234" data-name="Group 17234">
            <path id="Path_9123" data-name="Path 9123" d="M216.5,109.6c0,.2-17.9.4-40,.4s-40-.2-40-.4,17.9-.4,40-.4S216.5,109.4,216.5,109.6Z" fill="#0e314c"/>
          </g>
        </g>
      </g>
      <g id="Group_17239" data-name="Group 17239">
        <g id="Group_17238" data-name="Group 17238">
          <g id="Group_17237" data-name="Group 17237">
            <path id="Path_9124" data-name="Path 9124" d="M314.2,109.6c0,.2-17.9.4-40,.4s-40-.2-40-.4,17.9-.4,40-.4S314.2,109.4,314.2,109.6Z" fill="#0e314c"/>
          </g>
        </g>
      </g>
      <g id="Group_17242" data-name="Group 17242">
        <g id="Group_17241" data-name="Group 17241">
          <g id="Group_17240" data-name="Group 17240">
            <path id="Path_9125" data-name="Path 9125" d="M280.3,79c0,.2-17.9.4-40,.4s-40-.2-40-.4,17.9-.4,40-.4S280.3,78.8,280.3,79Z" fill="#0e314c"/>
          </g>
        </g>
      </g>
      <g id="Group_17245" data-name="Group 17245">
        <g id="Group_17244" data-name="Group 17244">
          <g id="Group_17243" data-name="Group 17243">
            <path id="Path_9126" data-name="Path 9126" d="M335.5,140.2c0,.2-17.9.4-40,.4s-40-.2-40-.4,17.9-.4,40-.4C317.6,139.7,335.5,139.9,335.5,140.2Z" fill="url(#linear-gradient-3)"/>
          </g>
        </g>
      </g>
      <g id="Group_17248" data-name="Group 17248">
        <g id="Group_17247" data-name="Group 17247">
          <g id="Group_17246" data-name="Group 17246">
            <path id="Path_9127" data-name="Path 9127" d="M324.5,94.3c0,.2-27.8.4-62.1.4s-62.1-.2-62.1-.4,27.8-.4,62.1-.4S324.5,94.1,324.5,94.3Z" fill="#0e314c"/>
          </g>
        </g>
      </g>
      <g id="Group_17251" data-name="Group 17251">
        <g id="Group_17250" data-name="Group 17250">
          <g id="Group_17249" data-name="Group 17249">
            <path id="Path_9128" data-name="Path 9128" d="M106.1,48.5c0,.2-6.5.4-14.5.4s-14.5-.2-14.5-.4,6.5-.4,14.5-.4S106.1,48.3,106.1,48.5Z" fill="#0e314c"/>
          </g>
        </g>
      </g>
      <g id="Group_17254" data-name="Group 17254">
        <g id="Group_17253" data-name="Group 17253">
          <g id="Group_17252" data-name="Group 17252">
            <path id="Path_9129" data-name="Path 9129" d="M106.1,231.8c0,.2-6.5.4-14.5.4s-14.5-.2-14.5-.4,6.5-.4,14.5-.4S106.1,231.6,106.1,231.8Z" fill="#0e314c"/>
          </g>
        </g>
      </g>
      <g id="Group_17257" data-name="Group 17257">
        <g id="Group_17256" data-name="Group 17256">
          <g id="Group_17255" data-name="Group 17255">
            <path id="Path_9130" data-name="Path 9130" d="M120.4,109.6c0,.2-6.5.4-14.5.4s-14.5-.2-14.5-.4,6.5-.4,14.5-.4S120.4,109.4,120.4,109.6Z" fill="#0e314c"/>
          </g>
        </g>
      </g>
      <g id="Group_17260" data-name="Group 17260">
        <g id="Group_17259" data-name="Group 17259">
          <g id="Group_17258" data-name="Group 17258">
            <path id="Path_9131" data-name="Path 9131" d="M352.9,109.6c0,.2-6.5.4-14.5.4s-14.5-.2-14.5-.4,6.5-.4,14.5-.4S352.9,109.4,352.9,109.6Z" fill="url(#linear-gradient-4)"/>
          </g>
        </g>
      </g>
      <g id="Group_17263" data-name="Group 17263">
        <g id="Group_17262" data-name="Group 17262">
          <g id="Group_17261" data-name="Group 17261">
            <path id="Path_9132" data-name="Path 9132" d="M146.5,170.6c0,.2-12.1.4-27.1.4s-27.1-.2-27.1-.4,12.1-.4,27.1-.4C134.3,170.2,146.5,170.4,146.5,170.6Z" fill="url(#linear-gradient-5)"/>
          </g>
        </g>
      </g>
      <g id="Group_17266" data-name="Group 17266">
        <g id="Group_17265" data-name="Group 17265">
          <g id="Group_17264" data-name="Group 17264">
            <path id="Path_9133" data-name="Path 9133" d="M209.2,170.6c0,.2-12.1.4-27.1.4s-27.1-.2-27.1-.4,12.1-.4,27.1-.4S209.2,170.4,209.2,170.6Z" fill="#0e314c"/>
          </g>
        </g>
      </g>
      <g id="Group_17269" data-name="Group 17269">
        <g id="Group_17268" data-name="Group 17268">
          <g id="Group_17267" data-name="Group 17267">
            <path id="Path_9134" data-name="Path 9134" d="M185.2,185.9c0,.2-17.9.4-40,.4s-40-.2-40-.4,17.9-.4,40-.4S185.2,185.7,185.2,185.9Z" fill="#0e314c"/>
          </g>
        </g>
      </g>
      <g id="Group_17272" data-name="Group 17272">
        <g id="Group_17271" data-name="Group 17271">
          <g id="Group_17270" data-name="Group 17270">
            <path id="Path_9135" data-name="Path 9135" d="M185.2,201.2c0,.2-17.9.4-40,.4s-40-.2-40-.4,17.9-.4,40-.4S185.2,200.9,185.2,201.2Z" fill="#0e314c"/>
          </g>
        </g>
      </g>
      <g id="Group_17275" data-name="Group 17275">
        <g id="Group_17274" data-name="Group 17274">
          <g id="Group_17273" data-name="Group 17273">
            <path id="Path_9136" data-name="Path 9136" d="M216.5,216.5c0,.2-17.9.4-40,.4s-40-.2-40-.4,17.9-.4,40-.4C198.6,216,216.5,216.2,216.5,216.5Z" fill="#0e314c"/>
          </g>
        </g>
      </g>
      <g id="Group_17278" data-name="Group 17278">
        <g id="Group_17277" data-name="Group 17277">
          <g id="Group_17276" data-name="Group 17276">
            <path id="Path_9137" data-name="Path 9137" d="M314.2,216.5c0,.2-17.9.4-40,.4s-40-.2-40-.4,17.9-.4,40-.4C296.3,216,314.2,216.2,314.2,216.5Z" fill="#0e314c"/>
          </g>
        </g>
      </g>
      <g id="Group_17281" data-name="Group 17281">
        <g id="Group_17280" data-name="Group 17280">
          <g id="Group_17279" data-name="Group 17279">
            <path id="Path_9138" data-name="Path 9138" d="M280.3,185.9c0,.2-17.9.4-40,.4s-40-.2-40-.4,17.9-.4,40-.4S280.3,185.7,280.3,185.9Z" fill="#0e314c"/>
          </g>
        </g>
      </g>
      <g id="Group_17284" data-name="Group 17284">
        <g id="Group_17283" data-name="Group 17283">
          <g id="Group_17282" data-name="Group 17282">
            <path id="Path_9139" data-name="Path 9139" d="M324.5,201.2c0,.2-27.8.4-62.1.4s-62.1-.2-62.1-.4,27.8-.4,62.1-.4S324.5,200.9,324.5,201.2Z" fill="url(#linear-gradient-6)"/>
          </g>
        </g>
      </g>
      <g id="Group_17287" data-name="Group 17287">
        <g id="Group_17286" data-name="Group 17286">
          <g id="Group_17285" data-name="Group 17285">
            <path id="Path_9140" data-name="Path 9140" d="M120.4,216.5c0,.2-6.5.4-14.5.4s-14.5-.2-14.5-.4,6.5-.4,14.5-.4C113.9,216,120.4,216.2,120.4,216.5Z" fill="#0e314c"/>
          </g>
        </g>
      </g>
      <g id="Group_17290" data-name="Group 17290">
        <g id="Group_17289" data-name="Group 17289">
          <g id="Group_17288" data-name="Group 17288">
            <path id="Path_9141" data-name="Path 9141" d="M352.9,216.5c0,.2-6.5.4-14.5.4s-14.5-.2-14.5-.4,6.5-.4,14.5-.4C346.4,216,352.9,216.2,352.9,216.5Z" fill="url(#linear-gradient-7)"/>
          </g>
        </g>
      </g>
      <g id="Group_17292" data-name="Group 17292">
        <g id="Group_17291" data-name="Group 17291">
          <path id="Path_9142" data-name="Path 9142" d="M55.8,247a.15.15,0,0,0,0-.3.15.15,0,0,0,0,.3Z" fill="#0e314c"/>
        </g>
      </g>
      <g id="Group_17294" data-name="Group 17294">
        <g id="Group_17293" data-name="Group 17293">
          <path id="Path_9143" data-name="Path 9143" d="M86.7,48.7a.15.15,0,0,0,0-.3c-.1,0-.1.3,0,.3Z" fill="#0e314c"/>
        </g>
      </g>
      <g id="Group_17296" data-name="Group 17296">
        <g id="Group_17295" data-name="Group 17295">
          <path id="Path_9144" data-name="Path 9144" d="M88.2,48.6a.15.15,0,0,0,0-.3.15.15,0,0,0,0,.3Z" fill="#0e314c"/>
        </g>
      </g>
    </g>
  </g>
  <g id="Group_17308" data-name="Group 17308">
    <g id="Group_17302" data-name="Group 17302">
      <g id="Group_17301" data-name="Group 17301">
        <g id="Group_17300" data-name="Group 17300">
          <g id="Group_17299" data-name="Group 17299">
            <path id="Path_9145" data-name="Path 9145" d="M185.9,479.1c-1.6-1.3-5-5.6-2.4-10.5,1-1.8,3.1-2.7,5-3.5a19.752,19.752,0,0,0,5.4-2.8c2.9-2.5,3.8-6.7,5.7-10,2.2-3.8,6.4-6.7,10.9-6.5,5.1.2,9.3,4.4,11.2,9.1s2,10,2,15.1c0,2.8-.1,6-2.2,7.9-1.9,1.8-4.8,1.8-7.4,1.7-9.2-.3-18.5-.6-27.7-.9" fill="#f5f5f5"/>
          </g>
        </g>
      </g>
    </g>
    <g id="Group_17307" data-name="Group 17307">
      <g id="Group_17306" data-name="Group 17306">
        <g id="Group_17305" data-name="Group 17305">
          <g id="Group_17304" data-name="Group 17304">
            <g id="Group_17303" data-name="Group 17303">
              <path id="Path_9146" data-name="Path 9146" d="M238.9,403H166l13.1,78.2a8.9,8.9,0,0,0,6.2,7,.367.367,0,0,1,.3.1c.2.1.4.1.6.2.5.1,1,.1,1.5.2v.1l.4-.1h32.5a11.018,11.018,0,0,0,1.8-.2,8.912,8.912,0,0,0,7.4-7.6l6.3-53.9.3-2.1h0l2.5-21.3Zm-13.8,49.9h-7.5l.8-22.7h8.7Zm2.7-22.7H235l-2.7,22.7h-6.4ZM206.4,478l-.5-19.7h10.8L216,478Zm-11.6-19.7h10.5l.5,19.7h-9.4Zm.8,19.7h-8.8c-.8-5.3-1.9-12.2-3.1-19.7H194Zm-1.2-25.1-1.8-22.7h12l.5,22.7Zm11.5,0-.5-22.7h12.3l-.8,22.7Zm-.7-28.2-.5-21h13.8l-.7,21Zm-.7,0H192.2l-1.6-21H204Zm-13,0h-13c-.5-2.9-.9-5.7-1.3-8.1-1.4-8.5-1.9-11.7-2.2-12.9h14.8Zm.4,5.5,1.8,22.7H182.9c-.4-2.3-.7-4.6-1.1-7-.8-5.4-1.7-10.7-2.5-15.7Zm-9.7,22.7h-7l-3.8-22.7h7.3C179.7,437.2,180.9,445,182.2,452.9Zm.8,5.4c1.1,6.8,2.1,13.6,3.1,19.7h-6.8L176,458.3ZM216.8,478l.7-19.7h7.2L223,478Zm1.8-53.3.7-21h10l-1.8,21Zm-44.3-21c.3,1.5,1.6,9.8,3.4,21h-7.3l-3.5-21Zm55,74.3h-5.6l1.7-19.7h6.3Zm6.3-53.3h-7.3l1.8-21h8Z" fill="#e1e1e1"/>
            </g>
          </g>
        </g>
      </g>
    </g>
  </g>
  <g id="Group_17317" data-name="Group 17317">
    <g id="Group_17312" data-name="Group 17312">
      <g id="Group_17311" data-name="Group 17311">
        <g id="Group_17310" data-name="Group 17310">
          <g id="Group_17309" data-name="Group 17309">
            <path id="Path_9147" data-name="Path 9147" d="M191.4,297.7v13H135.6a6.487,6.487,0,0,1-6.5-6.5h0a6.487,6.487,0,0,1,6.5-6.5" fill="#e1e1e1"/>
          </g>
        </g>
      </g>
    </g>
    <g id="Group_17316" data-name="Group 17316">
      <g id="Group_17315" data-name="Group 17315">
        <g id="Group_17314" data-name="Group 17314">
          <g id="Group_17313" data-name="Group 17313">
            <path id="Path_9148" data-name="Path 9148" d="M191.4,308H172.9a3.691,3.691,0,0,1-3.7-3.7v-.2a3.691,3.691,0,0,1,3.7-3.7h18.5Z" fill="#fafafa"/>
          </g>
        </g>
      </g>
    </g>
  </g>
  <g id="Group_17326" data-name="Group 17326">
    <g id="Group_17321" data-name="Group 17321">
      <g id="Group_17320" data-name="Group 17320">
        <g id="Group_17319" data-name="Group 17319">
          <g id="Group_17318" data-name="Group 17318">
            <path id="Path_9149" data-name="Path 9149" d="M191.4,284.8v13H135.6a6.487,6.487,0,0,1-6.5-6.5h0a6.487,6.487,0,0,1,6.5-6.5Z" fill="#f5f5f5"/>
          </g>
        </g>
      </g>
    </g>
    <g id="Group_17325" data-name="Group 17325">
      <g id="Group_17324" data-name="Group 17324">
        <g id="Group_17323" data-name="Group 17323">
          <g id="Group_17322" data-name="Group 17322">
            <path id="Path_9150" data-name="Path 9150" d="M191.4,295H172.9a3.691,3.691,0,0,1-3.7-3.7v-.2a3.691,3.691,0,0,1,3.7-3.7h18.5Z" fill="#e1e1e1"/>
          </g>
        </g>
      </g>
    </g>
  </g>
  <g id="Group_17333" data-name="Group 17333">
    <g id="Group_17327" data-name="Group 17327">
      <path id="Path_9151" data-name="Path 9151" d="M151.1,263.9l-8.9,20.9h5.7l3.9-11.2Z" fill="#e1e1e1"/>
    </g>
    <g id="Group_17332" data-name="Group 17332">
      <g id="Group_17330" data-name="Group 17330">
        <g id="Group_17328" data-name="Group 17328">
          <path id="Path_9152" data-name="Path 9152" d="M178.3,245.1l3.4,39.7h-29l-3.1-39.7Z" fill="#ececec"/>
        </g>
        <g id="Group_17329" data-name="Group 17329">
          <path id="Path_9153" data-name="Path 9153" d="M175.5,248.3l3,33.2-21.8.3-2.9-33.7Z" fill="#fafafa"/>
        </g>
      </g>
      <g id="Group_17331" data-name="Group 17331">
        <path id="Path_9154" data-name="Path 9154" d="M170.8,252.9l1.7,22.8H160.9l-2-22.8Z" fill="#e1e1e1"/>
      </g>
    </g>
  </g>
  <g id="Group_17335" data-name="Group 17335">
    <g id="Group_17334" data-name="Group 17334">
      <path id="Path_9155" data-name="Path 9155" d="M505,488.8c0,.2-113.1.3-252.5.3C113,489.1,0,489,0,488.8s113-.3,252.5-.3C391.9,488.5,505,488.7,505,488.8Z" fill="#1a2e35"/>
    </g>
  </g>
  <g id="Group_17336" data-name="Group 17336">
    <path id="Path_9156" data-name="Path 9156" d="M338,288.4H202.8a10.5,10.5,0,0,1-10.5-10.5V186.6a4.8,4.8,0,0,1,4.8-4.8H343.8a4.8,4.8,0,0,1,4.8,4.8v91.3A10.65,10.65,0,0,1,338,288.4Z" fill="#e1e1e1"/>
  </g>
  <g id="Group_17338" data-name="Group 17338">
    <g id="Group_17337" data-name="Group 17337">
      <path id="Path_9157" data-name="Path 9157" d="M338,288.4h.3a4.142,4.142,0,0,0,1-.1,10.343,10.343,0,0,0,3.7-1.2,10.14,10.14,0,0,0,4.3-4.4,9.353,9.353,0,0,0,1.1-3.8c.1-1.4,0-3,0-4.6,0-13-.1-31.8-.1-54.9V186.5a4.513,4.513,0,0,0-2.4-3.9,3.874,3.874,0,0,0-2.4-.5H197.8a8.083,8.083,0,0,0-1.6.1,4.478,4.478,0,0,0-3.7,4.3v92.3a10.591,10.591,0,0,0,1.9,5.1,9.927,9.927,0,0,0,4.2,3.4,11.635,11.635,0,0,0,5.3.9h59c23.2,0,42,.1,54.9.1,6.5,0,11.5,0,14.9.1h.1c-3.4,0-8.5,0-14.9.1-13,0-31.7.1-54.9.1H204a11.618,11.618,0,0,1-5.5-.9,10.916,10.916,0,0,1-6.4-9c-.1-1.9,0-3.8-.1-5.7V186.4a5.26,5.26,0,0,1,1.2-3.2,4.791,4.791,0,0,1,3-1.7,10.283,10.283,0,0,1,1.7-.1H343.6a5.834,5.834,0,0,1,2.6.6,4.931,4.931,0,0,1,2.6,4.3v32.9c0,23.2-.1,42-.1,54.9,0,1.6,0,3.1-.1,4.6a9.9,9.9,0,0,1-1.2,3.9,11.881,11.881,0,0,1-4.4,4.5,8.25,8.25,0,0,1-3.7,1.1A2.638,2.638,0,0,1,338,288.4Z" fill="#0e314c"/>
    </g>
  </g>
  <g id="Group_17339" data-name="Group 17339">
    <path id="Path_9158" data-name="Path 9158" d="M283.9,288.4H256.8s-8.4,13.9,0,22.3h28.1C284.8,310.7,271,301.7,283.9,288.4Z" fill="#e1e1e1"/>
  </g>
  <g id="Group_17340" data-name="Group 17340" opacity="0.3">
    <path id="Path_9159" data-name="Path 9159" d="M256.8,288.4l-1.4,2.8,24.9,1.9s2-2.9,3.6-4.7H256.8Z"/>
  </g>
  <g id="Group_17341" data-name="Group 17341">
    <circle id="Ellipse_192" data-name="Ellipse 192" cx="3.1" cy="3.1" r="3.1" transform="translate(270.6 275)" fill="#fafafa"/>
  </g>
  <g id="Group_17342" data-name="Group 17342">
    <rect id="Rectangle_1323" data-name="Rectangle 1323" width="141.3" height="81.3" transform="translate(200.1 187.7)" fill="#fafafa"/>
  </g>
  <g id="Group_17344" data-name="Group 17344">
    <g id="Group_17343" data-name="Group 17343">
      <path id="Path_9160" data-name="Path 9160" d="M341,269v-5.8c0-3.7,0-9.2-.1-16.3,0-14.1-.1-34.4-.1-59.3l.2.2c-37.9,0-87.3,0-141.3.1h0l.3-.3v81.3l-.3-.3c41.4.1,76.7.1,101.6.1,12.5,0,22.4.1,29.2.1h9.8a2.256,2.256,0,0,0,.7.2H330.6c-6.8,0-16.7,0-29.1.1-25,0-60.4.1-101.8.1h-.3V187.4h.3c54,0,103.4,0,141.3.1h.2v.2c0,25-.1,45.3-.1,59.5,0,7,0,12.5-.1,16.2v4.2A5.044,5.044,0,0,1,341,269Z" fill="#0e314c"/>
    </g>
  </g>
  <g id="Group_17345" data-name="Group 17345">
    <path id="Path_9161" data-name="Path 9161" d="M405.9,488.6h-8.4L378.7,320.4h11.1Z" fill="#235f87"/>
  </g>
  <g id="Group_17346" data-name="Group 17346">
    <path id="Path_9162" data-name="Path 9162" d="M352.8,488.6h-8.4L325.5,320.4h11Z" fill="#235f87"/>
  </g>
  <g id="Group_17347" data-name="Group 17347">
    <path id="Path_9163" data-name="Path 9163" d="M408.4,320.4h-296v-9.7h296Z" fill="#235f87"/>
  </g>
  <g id="Group_17348" data-name="Group 17348">
    <path id="Path_9164" data-name="Path 9164" d="M173.9,488.6h8.4l18-168.2h-11Z" fill="#235f87"/>
  </g>
  <g id="Group_17349" data-name="Group 17349">
    <path id="Path_9165" data-name="Path 9165" d="M101.8,488.6h8.4l18.9-168.2h-11Z" fill="#235f87"/>
  </g>
  <g id="Group_17350" data-name="Group 17350">
    <rect id="Rectangle_1324" data-name="Rectangle 1324" width="63" height="2.9" transform="translate(245.4 307.8)" fill="#0e314c"/>
  </g>
  <g id="Group_17352" data-name="Group 17352">
    <g id="Group_17351" data-name="Group 17351">
      <path id="Path_9166" data-name="Path 9166" d="M379.9,450.4l6,32.7-40.7,7.6c-.5-3.9,19.1-15.7,19.1-15.7l-4.7-20.8Z" fill="#00b1e0"/>
    </g>
  </g>
  <g id="Group_17355" data-name="Group 17355" opacity="0.6">
    <g id="Group_17354" data-name="Group 17354">
      <g id="Group_17353" data-name="Group 17353">
        <path id="Path_9167" data-name="Path 9167" d="M376.5,470.9a1.811,1.811,0,0,1,1.5,1.7,1.586,1.586,0,0,1-1.7,1.5,1.912,1.912,0,0,1-1.6-1.8,1.75,1.75,0,0,1,1.9-1.4" fill="#fff"/>
      </g>
    </g>
  </g>
  <g id="Group_17357" data-name="Group 17357">
    <g id="Group_17356" data-name="Group 17356">
      <path id="Path_9168" data-name="Path 9168" d="M385.8,483.1l-.7-3.3-38.7,8.5s-1.7,1.1-1.2,2.4Z" fill="#235f87"/>
    </g>
  </g>
  <g id="Group_17360" data-name="Group 17360">
    <g id="Group_17359" data-name="Group 17359">
      <g id="Group_17358" data-name="Group 17358">
        <path id="Path_9169" data-name="Path 9169" d="M363.6,475c0,.2,1.1.1,2.2.6,1.1.4,1.8,1.2,1.9,1.1.2-.1-.3-1.2-1.7-1.7C364.6,474.3,363.5,474.8,363.6,475Z" fill="#0e314c"/>
      </g>
    </g>
  </g>
  <g id="Group_17363" data-name="Group 17363">
    <g id="Group_17362" data-name="Group 17362">
      <g id="Group_17361" data-name="Group 17361">
        <path id="Path_9170" data-name="Path 9170" d="M359.6,477.5c0,.2.9.4,1.7,1.1.9.7,1.2,1.6,1.4,1.5.2,0,.1-1.2-.9-2.1C360.8,477.2,359.6,477.3,359.6,477.5Z" fill="#0e314c"/>
      </g>
    </g>
  </g>
  <g id="Group_17366" data-name="Group 17366">
    <g id="Group_17365" data-name="Group 17365">
      <g id="Group_17364" data-name="Group 17364">
        <path id="Path_9171" data-name="Path 9171" d="M358.2,483.1c.2,0,.3-1-.4-2s-1.7-1.3-1.8-1.1.6.7,1.2,1.5C357.7,482.3,358,483.1,358.2,483.1Z" fill="#0e314c"/>
      </g>
    </g>
  </g>
  <g id="Group_17369" data-name="Group 17369">
    <g id="Group_17368" data-name="Group 17368">
      <g id="Group_17367" data-name="Group 17367">
        <path id="Path_9172" data-name="Path 9172" d="M363,470.1c.1.2,1-.3,2.1-.4,1.1-.2,2.1.1,2.1-.1.1-.2-.9-.7-2.2-.6S362.9,470,363,470.1Z" fill="#0e314c"/>
      </g>
    </g>
  </g>
  <g id="Group_17372" data-name="Group 17372">
    <g id="Group_17371" data-name="Group 17371">
      <g id="Group_17370" data-name="Group 17370">
        <path id="Path_9173" data-name="Path 9173" d="M363.1,465.1c0,.1.8.1,2-.4a8.084,8.084,0,0,0,2-1.1,7.634,7.634,0,0,0,1.1-.8c.2-.2.4-.3.5-.6a.917.917,0,0,0-.1-1.1,1.314,1.314,0,0,0-1-.3c-.3,0-.5.2-.7.2a7.46,7.46,0,0,0-1.2.7,6.035,6.035,0,0,0-1.6,1.6c-.8,1.1-1,1.9-.9,1.9s.4-.7,1.3-1.6c.4-.4,1-.9,1.6-1.4a10.907,10.907,0,0,1,1.1-.6c.4-.2.8-.3.9-.1.1.1.1.1,0,.2s-.2.3-.4.4a3.915,3.915,0,0,1-1,.8,7.262,7.262,0,0,1-1.8,1.1C363.8,464.8,363.1,465,363.1,465.1Z" fill="#0e314c"/>
      </g>
    </g>
  </g>
  <g id="Group_17375" data-name="Group 17375">
    <g id="Group_17374" data-name="Group 17374">
      <g id="Group_17373" data-name="Group 17373">
        <path id="Path_9174" data-name="Path 9174" d="M363.4,465.3a3.747,3.747,0,0,0,.2-2.1,7.865,7.865,0,0,0-.7-2.2,4.441,4.441,0,0,0-.8-1.1,1.73,1.73,0,0,0-1.5-.8.842.842,0,0,0-.7.7,2.2,2.2,0,0,0-.1.8,3.194,3.194,0,0,0,.3,1.4,4.57,4.57,0,0,0,1.3,1.9c1,.9,1.9,1,1.9.9a13.352,13.352,0,0,1-1.5-1.3,4.454,4.454,0,0,1-1-1.8,5.019,5.019,0,0,1-.2-1.2c0-.4.1-.8.2-.8a1.2,1.2,0,0,1,.8.5,6.072,6.072,0,0,1,.7,1,10.4,10.4,0,0,1,.8,2C363.4,464.5,363.3,465.3,363.4,465.3Z" fill="#0e314c"/>
      </g>
    </g>
  </g>
  <g id="Group_17377" data-name="Group 17377">
    <g id="Group_17376" data-name="Group 17376">
      <path id="Path_9175" data-name="Path 9175" d="M332.5,455.6l6.4,32.6-40.6,8.2c-.5-3.9,18.9-15.9,18.9-15.9l-5-20.7Z" fill="#00b1e0"/>
    </g>
  </g>
  <g id="Group_17380" data-name="Group 17380" opacity="0.6">
    <g id="Group_17379" data-name="Group 17379">
      <g id="Group_17378" data-name="Group 17378">
        <path id="Path_9176" data-name="Path 9176" d="M329.4,476.2a1.728,1.728,0,0,1,1.5,1.7,1.558,1.558,0,0,1-1.6,1.5,1.614,1.614,0,1,1,.3-3.2" fill="#fff"/>
      </g>
    </g>
  </g>
  <g id="Group_17382" data-name="Group 17382">
    <g id="Group_17381" data-name="Group 17381">
      <path id="Path_9177" data-name="Path 9177" d="M338.9,488.3l-.8-3.3-38.6,9s-1.6,1.1-1.2,2.4Z" fill="#235f87"/>
    </g>
  </g>
  <g id="Group_17385" data-name="Group 17385">
    <g id="Group_17384" data-name="Group 17384">
      <g id="Group_17383" data-name="Group 17383">
        <path id="Path_9178" data-name="Path 9178" d="M316.5,480.4c0,.2,1.1.1,2.2.5s1.8,1.2,2,1.1-.4-1.2-1.7-1.7C317.5,479.8,316.4,480.3,316.5,480.4Z" fill="#0e314c"/>
      </g>
    </g>
  </g>
  <g id="Group_17388" data-name="Group 17388">
    <g id="Group_17387" data-name="Group 17387">
      <g id="Group_17386" data-name="Group 17386">
        <path id="Path_9179" data-name="Path 9179" d="M312.6,483.1c0,.2.9.4,1.8,1.1s1.2,1.5,1.4,1.5.1-1.2-1-2C313.7,482.7,312.5,482.9,312.6,483.1Z" fill="#0e314c"/>
      </g>
    </g>
  </g>
  <g id="Group_17391" data-name="Group 17391">
    <g id="Group_17390" data-name="Group 17390">
      <g id="Group_17389" data-name="Group 17389">
        <path id="Path_9180" data-name="Path 9180" d="M311.2,488.6c.2,0,.3-1-.5-2-.7-1-1.7-1.2-1.8-1s.6.6,1.2,1.5C310.8,487.8,311,488.7,311.2,488.6Z" fill="#0e314c"/>
      </g>
    </g>
  </g>
  <g id="Group_17394" data-name="Group 17394">
    <g id="Group_17393" data-name="Group 17393">
      <g id="Group_17392" data-name="Group 17392">
        <path id="Path_9181" data-name="Path 9181" d="M315.9,475.6c.1.2,1-.3,2.1-.4,1.1-.2,2.1,0,2.1-.2.1-.2-.9-.7-2.2-.5C316.5,474.6,315.7,475.5,315.9,475.6Z" fill="#0e314c"/>
      </g>
    </g>
  </g>
  <g id="Group_17397" data-name="Group 17397">
    <g id="Group_17396" data-name="Group 17396">
      <g id="Group_17395" data-name="Group 17395">
        <path id="Path_9182" data-name="Path 9182" d="M315.9,470.6c0,.1.8,0,2-.4a8.084,8.084,0,0,0,2-1.1,4.064,4.064,0,0,0,1-.9c.2-.2.4-.3.5-.6a.909.909,0,0,0-.1-1.1,1.314,1.314,0,0,0-1-.3,4.88,4.88,0,0,0-.7.3,7.46,7.46,0,0,0-1.2.7,8.045,8.045,0,0,0-1.6,1.6,4.591,4.591,0,0,0-.9,1.9c.1,0,.4-.7,1.2-1.6a7.615,7.615,0,0,1,1.6-1.4,10.907,10.907,0,0,1,1.1-.6c.4-.2.8-.3.9-.1.1.1.1.1,0,.2s-.2.3-.4.4a3.915,3.915,0,0,1-1,.8,7.262,7.262,0,0,1-1.8,1.1C316.6,470.3,315.8,470.5,315.9,470.6Z" fill="#0e314c"/>
      </g>
    </g>
  </g>
  <g id="Group_17400" data-name="Group 17400">
    <g id="Group_17399" data-name="Group 17399">
      <g id="Group_17398" data-name="Group 17398">
        <path id="Path_9183" data-name="Path 9183" d="M316.2,470.8c.1,0,.3-.8.1-2.1a7.865,7.865,0,0,0-.7-2.2,4.441,4.441,0,0,0-.8-1.1,1.73,1.73,0,0,0-1.5-.8.842.842,0,0,0-.7.7,2.2,2.2,0,0,0-.1.8,3.194,3.194,0,0,0,.3,1.4,4.57,4.57,0,0,0,1.3,1.9c1,.9,1.9,1,1.9.9s-.7-.4-1.5-1.2a3.867,3.867,0,0,1-1-1.8,5.019,5.019,0,0,1-.2-1.2c0-.4.1-.8.2-.8a1.2,1.2,0,0,1,.8.5,6.072,6.072,0,0,1,.7,1,7.076,7.076,0,0,1,.8,1.9C316.1,470,316.1,470.8,316.2,470.8Z" fill="#0e314c"/>
      </g>
    </g>
  </g>
  <g id="Group_17401" data-name="Group 17401">
    <path id="Path_9184" data-name="Path 9184" d="M356.1,462.2l-15.8-87.8a24.634,24.634,0,0,1,1.1-12.9h0A25.023,25.023,0,0,1,365,344.9h55.7L457.1,361h0a22.6,22.6,0,0,1-24.3,22.5l-59.4-4.7,8.6,79.6Z" fill="#0e314c"/>
  </g>
  <g id="Group_17402" data-name="Group 17402">
    <path id="Path_9185" data-name="Path 9185" d="M310.1,466.8l-18-92.5a24.634,24.634,0,0,1,1.1-12.9h0a25.023,25.023,0,0,1,23.6-16.6h55.7l36.4,16.1v24.4l-83.7-6.6,11,82.2Z" fill="#0e314c"/>
  </g>
  <g id="Group_17404" data-name="Group 17404">
    <g id="Group_17403" data-name="Group 17403">
      <path id="Path_9186" data-name="Path 9186" d="M336.1,460.9a6.467,6.467,0,0,1-.2-1c-.1-.7-.3-1.6-.4-2.8-.4-2.5-.9-6.1-1.5-10.5-1.2-8.9-2.9-21.1-4.7-34.5-1.7-12.9-3.2-24.7-4.4-33.4l.1.1c-4-2.7-7-5.2-9.2-6.8-1.1-.8-1.9-1.4-2.5-1.8s-.9-.6-.9-.7a.31.31,0,0,1,.2.1,4.348,4.348,0,0,0,.7.4c.6.4,1.5,1,2.6,1.8,2.2,1.5,5.3,4,9.3,6.6l.1.1v.1c1.2,8.7,2.8,20.4,4.5,33.3,1.8,13.5,3.4,25.7,4.5,34.5.5,4.4,1,8,1.3,10.5.1,1.2.2,2.2.3,2.9A4.469,4.469,0,0,1,336.1,460.9Z" fill="#235f87"/>
    </g>
  </g>
  <g id="Group_17405" data-name="Group 17405">
    <path id="Path_9187" data-name="Path 9187" d="M283.4,308l3.9-7.4a2.277,2.277,0,0,1,2.1-1l1.8.1,3-2.8h3.5l2.7-1.8,10.4,2,8.6,2.3-4.9,9.7-4.9-1-8.2-.1a8.863,8.863,0,0,1-6.3-2.7h0a8.064,8.064,0,0,0-5.5-2.3h0S287,308.7,283.4,308Z" fill="#ffbf9d"/>
  </g>
  <g id="Group_17406" data-name="Group 17406">
    <path id="Path_9188" data-name="Path 9188" d="M402.1,196.6l.2,53.5-22.9,1.1-.7-13s-8.1,1.6-10.3-5.9c-1.3-4.8-1-42.2-1-42.2Z" fill="#ffbf9d"/>
  </g>
  <g id="Group_17407" data-name="Group 17407">
    <path id="Path_9189" data-name="Path 9189" d="M402.5,238.5c2.4-2.5,3.6-6.1,4.1-9.5.6-3.5.7-7,1.4-10.5.8-3.6,2.3-7,3.1-10.6s.7-7.7-1.4-10.7c0,0-1.4-4.1-7.5-4.5,0,0-5.1-8.3-12.7-7.6-10.3,1-10.6-2.1-17.7-3.2-6.7-1-7.9,4.9-7.9,4.9s-3.7,2.7-3.8,6.6v.1a9.033,9.033,0,0,0,6.2,8.8c.5.2.9.3,1.4.5a8.737,8.737,0,0,1,3.6,1.8c1.4,1.4,1.7,3.7,1.6,5.7s-.4,4.1.3,6c.2.7.8,1.4,1.5,1.2.8-.2.8-1.3.8-2.1.2-2.4,3.3-4.2,5.5-2.5a3.719,3.719,0,0,1,1.1,4.5c-.8,1.7-2.6,3-2.9,4.9-.6,3.1,3.1,5.9,4.5,7.6a12.877,12.877,0,0,0,1.6,1.7c3,2.6,6,6.1,10,7.5,2.7.9,6,.7,8-1.3" fill="#0e314c"/>
  </g>
  <g id="Group_17408" data-name="Group 17408">
    <path id="Path_9190" data-name="Path 9190" d="M375.3,248.6c-5.1,3.6-3,13.3-3,18.4-.2,11.3.9,22,1.5,23.8.9,2.6,4,24.8,4,24.8l-5.3,29.2s6.8,17.4,36.4,17.3l14.7-3.5a15.324,15.324,0,0,0,11.7-16.2L432,303.2l-4.5-31.8c-1.2-16.7-11.6-25.6-25-24.6Z" fill="url(#linear-gradient-8)"/>
  </g>
  <g id="Group_17410" data-name="Group 17410" opacity="0.1">
    <g id="Group_17409" data-name="Group 17409">
      <path id="Path_9191" data-name="Path 9191" d="M387.4,358.2c-3.2-1.7,1.1-34.3,4.9-51,1.5-6.5,3.4-13.3,8.1-18.1,3.6-3.8,8.7-6,13.8-7.2s9.3-1.3,14.6-1.4l4.6,74.3C433.3,354.8,401.3,365.5,387.4,358.2Z"/>
    </g>
  </g>
  <g id="Group_17411" data-name="Group 17411">
    <path id="Path_9192" data-name="Path 9192" d="M375.3,248.6a20,20,0,0,0-14.4,11.1c-3.7,7.7-20,39.9-20,39.9L316,297.9l-5,11.3,34.1,9.2h0c7,1.3,13.2-2.9,16.6-9.3L376,282.9Z" fill="url(#linear-gradient-9)"/>
  </g>
  <g id="Group_17412" data-name="Group 17412">
    <path id="Path_9193" data-name="Path 9193" d="M377.8,248.7s-.7-5.7.1-6.7,25.5-.8,25.5-.8l1.2,6.2-.6,1.3s-1.1.4-1.2.4l-22.9.6Z" fill="url(#linear-gradient-10)"/>
  </g>
  <g id="Group_17414" data-name="Group 17414">
    <g id="Group_17413" data-name="Group 17413">
      <path id="Path_9194" data-name="Path 9194" d="M343.9,305.2a5.325,5.325,0,0,1-1.8-2.4,6.516,6.516,0,0,1-.8-2.9,13.506,13.506,0,0,1,1.3,2.6A22.135,22.135,0,0,1,343.9,305.2Z" fill="#0e314c"/>
    </g>
  </g>
  <g id="Group_17416" data-name="Group 17416">
    <g id="Group_17415" data-name="Group 17415">
      <path id="Path_9195" data-name="Path 9195" d="M379.5,274.1a84.683,84.683,0,0,1-3.7,8.8c-2.2,4.8-4.1,8.6-4.2,8.6a84.683,84.683,0,0,1,3.7-8.8C377.5,277.9,379.4,274,379.5,274.1Z" fill="#0e314c"/>
    </g>
  </g>
  <g id="Group_17418" data-name="Group 17418">
    <g id="Group_17417" data-name="Group 17417">
      <path id="Path_9196" data-name="Path 9196" d="M404.6,246.6a2.767,2.767,0,0,1,.1.8,2.008,2.008,0,0,1-1.3,1.8h0c-2.6.2-6.7.4-11.4.5-4,.1-7.6.2-10.2.3a6.458,6.458,0,0,1-3.1-.7,2.79,2.79,0,0,1-.9-.7,6.907,6.907,0,0,0,1,.5,7.751,7.751,0,0,0,3,.5c2.6-.1,6.2-.3,10.2-.4,4.7-.2,8.9-.3,11.4-.3h0a1.654,1.654,0,0,0,1.2-1.5C404.6,246.9,404.5,246.6,404.6,246.6Z" fill="#0e314c"/>
    </g>
  </g>
  <g id="Group_17420" data-name="Group 17420">
    <g id="Group_17419" data-name="Group 17419">
      <path id="Path_9197" data-name="Path 9197" d="M363.5,255.8c.1.1-4.7,9.8-10.9,21.7S341.3,299,341.2,299c-.1-.1,4.7-9.8,10.9-21.7C358.2,265.3,363.3,255.7,363.5,255.8Z" fill="#0e314c"/>
    </g>
  </g>
  <g id="Group_17421" data-name="Group 17421">
    <path id="Path_9198" data-name="Path 9198" d="M387.2,390.4l-.9,98.2h5.6l.4-96.3s.3-4.4,3.6-4.7,53.6,2.2,53.6,2.2l14.8,98.7h6.4l-14.5-98.7S414,375.5,393,379.9c0,0-5-.9-5.3,2.9C387.5,386.9,387.2,390.4,387.2,390.4Z" fill="#e1e1e1"/>
  </g>
  <g id="Group_17422" data-name="Group 17422">
    <path id="Path_9199" data-name="Path 9199" d="M388.1,379.1s8.7-68.1,11.9-79.7a20.8,20.8,0,0,1,9.7-12.4,16.236,16.236,0,0,1,8.9-2.3l46.4,1a7.09,7.09,0,0,1,6.8,8.1l-15.4,96.1h-57s-54.6-6-63-6.3c-5.2-.2-5.6,1.8-6.1,4h0c-4.9-4-2-12.2,4.3-11.8Z" fill="#6084a4"/>
  </g>
  <g id="Group_17424" data-name="Group 17424">
    <g id="Group_17423" data-name="Group 17423">
      <path id="Path_9200" data-name="Path 9200" d="M471.3,290.4h-1.6c-1.1,0-2.6,0-4.5.1-3.9,0-9.6.1-16.5.1H427.6c-1.1,0-2.3,0-3.4.1a12.442,12.442,0,0,0-10.6,8.3,22.088,22.088,0,0,0-.8,3.7c-.2,1.3-.4,2.5-.6,3.8-.4,2.6-.8,5.2-1.3,7.8-3.5,21-6.6,40-8.9,53.8-1.2,6.9-2.1,12.4-2.8,16.3-.3,1.9-.6,3.4-.8,4.4a8.914,8.914,0,0,0-.2,1.1,1.577,1.577,0,0,0-.1.4v-.4a7.385,7.385,0,0,1,.2-1.2c.2-1.1.4-2.5.7-4.4.6-3.9,1.5-9.5,2.6-16.3,2.2-13.8,5.3-32.8,8.7-53.8.4-2.6.9-5.2,1.3-7.8.2-1.3.4-2.5.6-3.8a28.72,28.72,0,0,1,.8-3.8,13.267,13.267,0,0,1,4.4-6,12.621,12.621,0,0,1,6.6-2.6c1.2-.1,2.3-.1,3.4-.1h21.1c6.9,0,12.6.1,16.5.1,1.9,0,3.4,0,4.5.1h1.2A4.548,4.548,0,0,0,471.3,290.4Z" fill="#0e314c"/>
    </g>
  </g>
  <g id="Group_17425" data-name="Group 17425">
    <path id="Path_9201" data-name="Path 9201" d="M330.2,390.4l-2.5,98.2h5.6l1.4-96.1s.1-5.7,4.4-5.2c3.3.4,54.1,6.3,54.1,6.3l17.1,95.1h6.4L399.3,390l-62.2-7.8a6.273,6.273,0,0,0-3.8.6,5.549,5.549,0,0,0-3.1,4.9C330,391.5,330.2,390.4,330.2,390.4Z" fill="#ececec"/>
  </g>
  <g id="Group_17428" data-name="Group 17428">
    <g id="Group_17427" data-name="Group 17427">
      <g id="Group_17426" data-name="Group 17426">
        <path id="Path_9202" data-name="Path 9202" d="M76.1,415.1c8.1,2.8,18.7.3,25.7-4.8s12-12.4,16.4-19.7c1.9-3.2,3.7-6.4,4.3-10.1.6-3.6-.3-7.7-3.1-10.1-4.4-3.7-11.1-1.8-16,1a55.546,55.546,0,0,0-27.3,43.7" fill="url(#linear-gradient-11)"/>
      </g>
    </g>
  </g>
  <g id="Group_17431" data-name="Group 17431">
    <g id="Group_17430" data-name="Group 17430">
      <g id="Group_17429" data-name="Group 17429">
        <path id="Path_9203" data-name="Path 9203" d="M84.8,434.6c4.9,6.4,13.3,9.3,21.4,9.7s16.1-1.9,23.6-4.8c2.7-1.1,5.7-2.5,6.7-5.3a6.7,6.7,0,0,0-1.4-6.2,14.084,14.084,0,0,0-5.5-3.7c-7.4-3.2-15.9-3.3-23.8-1.3-7.8,2-14.6,6.6-21,11.6" fill="url(#linear-gradient-12)"/>
      </g>
    </g>
  </g>
  <g id="Group_17434" data-name="Group 17434">
    <g id="Group_17433" data-name="Group 17433">
      <g id="Group_17432" data-name="Group 17432">
        <path id="Path_9204" data-name="Path 9204" d="M76,380.2c6.7.1,11.8-5.8,14.9-11.8a43.334,43.334,0,0,0,4-27.2c-.6-3.4-1.9-7.1-5-8.8s-7.2-.6-9.8,1.8S76,340,75,343.4c-3.7,11.8-2.9,25.2,1,36.8" fill="url(#linear-gradient-13)"/>
      </g>
    </g>
  </g>
  <g id="Group_17437" data-name="Group 17437">
    <g id="Group_17436" data-name="Group 17436">
      <g id="Group_17435" data-name="Group 17435">
        <path id="Path_9205" data-name="Path 9205" d="M53.9,417.5c11.5-19.5,13.4-43.4,6.6-65.1-1.1-3.5-3.2-7.5-6.8-7.8-4.1-.3-6.6,4.3-7.7,8.2-3.9,13.7-3.1,28.3-2.2,42.6.4,8.8,3.4,16.3,10.1,22.1" fill="url(#linear-gradient-14)"/>
      </g>
    </g>
  </g>
  <g id="Group_17440" data-name="Group 17440">
    <g id="Group_17439" data-name="Group 17439">
      <g id="Group_17438" data-name="Group 17438">
        <path id="Path_9206" data-name="Path 9206" d="M41.9,425.5A46.714,46.714,0,0,0,14,396c-3-1.1-6.9-1.8-9.2.5-2.2,2.3-1.5,6.1-.1,9,2.3,4.6,6.1,8.3,9.8,11.9,3.4,3.2,6.9,6.5,11.2,8.4,4.4,1.8,12.3,2.3,16.2-.3" fill="url(#linear-gradient-15)"/>
      </g>
    </g>
  </g>
  <g id="Group_17444" data-name="Group 17444">
    <g id="Group_17443" data-name="Group 17443">
      <g id="Group_17442" data-name="Group 17442">
        <g id="Group_17441" data-name="Group 17441">
          <path id="Path_9207" data-name="Path 9207" d="M113.1,375.3l-.2.2a2.651,2.651,0,0,0-.6.5q-.9.6-2.4,1.8c-.5.4-1.1.8-1.7,1.3s-1.3,1-2,1.6c-1.4,1.2-3.1,2.5-4.8,4.1-.9.8-1.8,1.6-2.7,2.5l-2.8,2.8c-2,1.9-3.9,4.1-5.9,6.4a131.492,131.492,0,0,0-11.8,16.1,136.585,136.585,0,0,0-9.1,17.8c-1.1,2.9-2.3,5.6-3.1,8.2-.4,1.3-.9,2.5-1.2,3.8-.3,1.2-.7,2.4-1,3.5-.7,2.2-1.1,4.3-1.5,6.1-.2.9-.4,1.7-.6,2.5-.1.8-.3,1.5-.4,2.1-.2,1.3-.4,2.2-.5,3-.1.3-.1.6-.2.8a.438.438,0,0,1-.1.3v-.3c0-.2.1-.5.1-.8.1-.7.3-1.7.4-3l.3-2.1c.1-.8.3-1.6.5-2.5.4-1.8.8-3.9,1.4-6.1.3-1.1.6-2.3,1-3.5.3-1.2.8-2.5,1.2-3.8.8-2.6,1.9-5.4,3-8.2a137.5,137.5,0,0,1,9.1-17.9,136.038,136.038,0,0,1,11.9-16.2c2.1-2.3,4-4.5,6-6.4l2.8-2.8c1-.8,1.9-1.7,2.7-2.4a51.016,51.016,0,0,1,4.9-4c.7-.6,1.4-1.1,2-1.6a20.276,20.276,0,0,1,1.8-1.3c1-.7,1.9-1.3,2.5-1.7a5.923,5.923,0,0,0,.6-.4Z" fill="#0e314c"/>
        </g>
      </g>
    </g>
  </g>
  <g id="Group_17448" data-name="Group 17448">
    <g id="Group_17447" data-name="Group 17447">
      <g id="Group_17446" data-name="Group 17446">
        <g id="Group_17445" data-name="Group 17445">
          <path id="Path_9208" data-name="Path 9208" d="M128.3,429.5a4.53,4.53,0,0,1-.8-.1c-.5-.1-1.3-.3-2.2-.5a58.644,58.644,0,0,0-8.3-1,60.428,60.428,0,0,0-49.2,20.4,67.365,67.365,0,0,0-5.1,6.6c-.6.8-1,1.5-1.3,1.9s-.4.7-.5.7a2.768,2.768,0,0,1,.4-.7c.3-.4.6-1.1,1.2-2a51.529,51.529,0,0,1,5-6.7,60.426,60.426,0,0,1,22.3-16.2,59.8,59.8,0,0,1,27.2-4.4,53.937,53.937,0,0,1,8.3,1.2,12.87,12.87,0,0,1,2.2.6A7.347,7.347,0,0,1,128.3,429.5Z" fill="#0e314c"/>
        </g>
      </g>
    </g>
  </g>
  <g id="Group_17452" data-name="Group 17452">
    <g id="Group_17451" data-name="Group 17451">
      <g id="Group_17450" data-name="Group 17450">
        <g id="Group_17449" data-name="Group 17449">
          <path id="Path_9209" data-name="Path 9209" d="M85.9,340.3v.3a5.072,5.072,0,0,1-.2.9c-.2.8-.4,1.9-.8,3.4-.7,2.9-1.7,7.1-2.9,12.3-2.5,10.4-6.2,24.7-10,40.6-1.9,7.9-3.6,15.5-5.1,22.4s-2.7,13.2-3.6,18.4c-.5,2.6-.9,5-1.2,7.1-.4,2.1-.6,3.9-.9,5.4-.2,1.4-.4,2.6-.5,3.4a6.373,6.373,0,0,1-.2.9.438.438,0,0,1-.1.3v-.3c0-.2.1-.5.1-.9.1-.8.2-2,.4-3.4.2-1.5.4-3.3.8-5.4.3-2.1.7-4.5,1.1-7.1.9-5.3,2.1-11.5,3.5-18.5,1.5-6.9,3.2-14.5,5.1-22.5,3.8-15.9,7.6-30.2,10.2-40.6,1.3-5.2,2.4-9.3,3.1-12.3.4-1.4.6-2.5.9-3.3a3.711,3.711,0,0,0,.2-.9A.31.31,0,0,0,85.9,340.3Z" fill="#0e314c"/>
        </g>
      </g>
    </g>
  </g>
  <g id="Group_17456" data-name="Group 17456">
    <g id="Group_17455" data-name="Group 17455">
      <g id="Group_17454" data-name="Group 17454">
        <g id="Group_17453" data-name="Group 17453">
          <path id="Path_9210" data-name="Path 9210" d="M59.6,454.1a.31.31,0,0,0-.1-.2,2.544,2.544,0,0,0-.2-.7,23.2,23.2,0,0,0-.6-2.7c-.5-2.4-1.1-5.8-1.9-10-1.5-8.5-3.2-20.3-4.3-33.4-.5-6.6-.8-12.8-.9-18.5s0-10.8.1-15.2c.1-2.2.2-4.1.3-5.8s.2-3.2.3-4.4.2-2.1.3-2.8c0-.3.1-.5.1-.7v.7c0,.7-.1,1.6-.2,2.8s-.2,2.7-.2,4.4c-.1,1.7-.2,3.7-.2,5.8-.1,4.3-.1,9.4,0,15.1.2,5.7.5,12,1,18.5,1.1,13.1,2.8,24.9,4.1,33.4.7,4.3,1.3,7.7,1.7,10.1.2,1.2.4,2.1.5,2.7,0,.3.1.5.1.7A.31.31,0,0,1,59.6,454.1Z" fill="#0e314c"/>
        </g>
      </g>
    </g>
  </g>
  <g id="Group_17460" data-name="Group 17460">
    <g id="Group_17459" data-name="Group 17459">
      <g id="Group_17458" data-name="Group 17458">
        <g id="Group_17457" data-name="Group 17457">
          <path id="Path_9211" data-name="Path 9211" d="M60.4,456.6s-.1-.2-.3-.7a20.522,20.522,0,0,0-.8-2c-.2-.4-.3-.9-.5-1.4s-.5-1.1-.7-1.7c-.3-.6-.5-1.2-.8-1.9s-.7-1.4-1-2.1c-.4-.7-.8-1.5-1.2-2.3s-.9-1.6-1.4-2.4c-.9-1.7-2.1-3.4-3.3-5.2-2.5-3.5-5.4-7.3-8.6-11a131.943,131.943,0,0,0-9.9-9.9c-1.6-1.4-3.2-2.8-4.7-3.9-.7-.6-1.5-1.2-2.2-1.7l-2.1-1.5c-1.3-1-2.5-1.8-3.6-2.5s-2-1.4-2.8-1.8c-.7-.5-1.3-.8-1.8-1.1a4.575,4.575,0,0,0-.6-.4s.2.1.7.3c.5.3,1.1.6,1.8,1a16.1,16.1,0,0,1,2.8,1.8c1.1.7,2.3,1.5,3.7,2.5l2.1,1.5c.7.6,1.4,1.1,2.2,1.7,1.5,1.2,3.1,2.5,4.7,3.9a132.437,132.437,0,0,1,10,9.9c3.3,3.8,6.2,7.6,8.7,11.1,1.1,1.8,2.3,3.5,3.2,5.2.5.8.9,1.6,1.4,2.4.4.8.8,1.6,1.1,2.3a19.986,19.986,0,0,1,1,2.1c.3.7.6,1.3.8,1.9s.5,1.2.7,1.7.3,1,.5,1.4c.3.8.5,1.5.7,2A3.154,3.154,0,0,1,60.4,456.6Z" fill="#0e314c"/>
        </g>
      </g>
    </g>
  </g>
  <g id="Group_17464" data-name="Group 17464">
    <g id="Group_17463" data-name="Group 17463">
      <g id="Group_17462" data-name="Group 17462">
        <g id="Group_17461" data-name="Group 17461">
          <path id="Path_9212" data-name="Path 9212" d="M108.8,398a28.129,28.129,0,0,1-3.6.2,70.324,70.324,0,0,0-8.7,1,58.4,58.4,0,0,0-8.4,2.2,22.189,22.189,0,0,1-3.5,1.1,9.242,9.242,0,0,1,.9-.5,25.54,25.54,0,0,1,2.5-1,57.312,57.312,0,0,1,8.5-2.4,53.359,53.359,0,0,1,8.8-.9,20.972,20.972,0,0,1,2.7.1A3.268,3.268,0,0,1,108.8,398Z" fill="#0e314c"/>
        </g>
      </g>
    </g>
  </g>
  <g id="Group_17468" data-name="Group 17468">
    <g id="Group_17467" data-name="Group 17467">
      <g id="Group_17466" data-name="Group 17466">
        <g id="Group_17465" data-name="Group 17465">
          <path id="Path_9213" data-name="Path 9213" d="M117.5,440.3c-.2.1-1.5-3.7-4.7-7.1A29.352,29.352,0,0,0,106,428a7.81,7.81,0,0,1,2.3,1,21.431,21.431,0,0,1,4.8,3.8,24.571,24.571,0,0,1,3.5,5.1A6.735,6.735,0,0,1,117.5,440.3Z" fill="#0e314c"/>
        </g>
      </g>
    </g>
  </g>
  <g id="Group_17472" data-name="Group 17472">
    <g id="Group_17471" data-name="Group 17471">
      <g id="Group_17470" data-name="Group 17470">
        <g id="Group_17469" data-name="Group 17469">
          <path id="Path_9214" data-name="Path 9214" d="M88,356.1c.1.1-2,2.2-4.3,5s-3.9,5.3-4.1,5.2a23.064,23.064,0,0,1,3.7-5.6A26.251,26.251,0,0,1,88,356.1Z" fill="#0e314c"/>
        </g>
      </g>
    </g>
  </g>
  <g id="Group_17476" data-name="Group 17476">
    <g id="Group_17475" data-name="Group 17475">
      <g id="Group_17474" data-name="Group 17474">
        <g id="Group_17473" data-name="Group 17473">
          <path id="Path_9215" data-name="Path 9215" d="M81,344.2a23.741,23.741,0,0,1,1,4.5c.4,2.5.7,4.6.5,4.6a23.741,23.741,0,0,1-1-4.5A26.182,26.182,0,0,1,81,344.2Z" fill="#0e314c"/>
        </g>
      </g>
    </g>
  </g>
  <g id="Group_17480" data-name="Group 17480">
    <g id="Group_17479" data-name="Group 17479">
      <g id="Group_17478" data-name="Group 17478">
        <g id="Group_17477" data-name="Group 17477">
          <path id="Path_9216" data-name="Path 9216" d="M59.6,381.7a67.846,67.846,0,0,1-3.4,7.1,68.57,68.57,0,0,1-3.8,6.8,67.846,67.846,0,0,1,3.4-7.1C57.7,384.7,59.4,381.7,59.6,381.7Z" fill="#0e314c"/>
        </g>
      </g>
    </g>
  </g>
  <g id="Group_17484" data-name="Group 17484">
    <g id="Group_17483" data-name="Group 17483">
      <g id="Group_17482" data-name="Group 17482">
        <g id="Group_17481" data-name="Group 17481">
          <path id="Path_9217" data-name="Path 9217" d="M46.8,369a30.639,30.639,0,0,1,2.8,5.1,41.846,41.846,0,0,1,2.4,5.4,30.639,30.639,0,0,1-2.8-5.1A29.969,29.969,0,0,1,46.8,369Z" fill="#0e314c"/>
        </g>
      </g>
    </g>
  </g>
  <g id="Group_17488" data-name="Group 17488">
    <g id="Group_17487" data-name="Group 17487">
      <g id="Group_17486" data-name="Group 17486">
        <g id="Group_17485" data-name="Group 17485">
          <path id="Path_9218" data-name="Path 9218" d="M28,412.6c0,.2-2.3-.3-5.2-.5-2.8-.2-5.2-.1-5.2-.2a16.179,16.179,0,0,1,5.2-.3A16.562,16.562,0,0,1,28,412.6Z" fill="#0e314c"/>
        </g>
      </g>
    </g>
  </g>
  <g id="Group_17491" data-name="Group 17491">
    <g id="Group_17490" data-name="Group 17490">
      <g id="Group_17489" data-name="Group 17489">
        <path id="Path_9219" data-name="Path 9219" d="M40.8,451.2l6.4,33.6a4.708,4.708,0,0,0,4.6,3.8H70.7a4.637,4.637,0,0,0,4.6-3.9l5.6-33.5Z" fill="#0e314c"/>
      </g>
    </g>
  </g>
  <g id="Group_17494" data-name="Group 17494">
    <g id="Group_17493" data-name="Group 17493">
      <g id="Group_17492" data-name="Group 17492">
        <path id="Path_9220" data-name="Path 9220" d="M42.9,462.1H79l1.9-10.9H40.8Z" fill="#235f87"/>
      </g>
    </g>
  </g>
  <g id="Group_17497" data-name="Group 17497">
    <g id="Group_17496" data-name="Group 17496">
      <g id="Group_17495" data-name="Group 17495">
        <path id="Path_9221" data-name="Path 9221" d="M42.9,462.1l.8,4H78.5l.5-4Z" fill="#fafafa"/>
      </g>
    </g>
  </g>
  <g id="Group_17527" data-name="Group 17527">
    <g id="Group_17498" data-name="Group 17498">
      <path id="Path_9222" data-name="Path 9222" d="M209.1,193.6a1.5,1.5,0,1,1-1.5-1.5A1.538,1.538,0,0,1,209.1,193.6Z" fill="#0e314c"/>
      <path id="Path_9223" data-name="Path 9223" d="M214.4,193.6a1.5,1.5,0,1,1-1.5-1.5A1.612,1.612,0,0,1,214.4,193.6Z" fill="#0e314c"/>
      <path id="Path_9224" data-name="Path 9224" d="M219.7,193.6a1.5,1.5,0,1,1-1.5-1.5A1.538,1.538,0,0,1,219.7,193.6Z" fill="#0e314c"/>
    </g>
    <g id="Group_17500" data-name="Group 17500">
      <g id="Group_17499" data-name="Group 17499">
        <path id="Path_9225" data-name="Path 9225" d="M291.7,227.7c0,.1-17.5.2-39,.2s-39-.1-39-.2,17.4-.2,39-.2C274.3,227.4,291.7,227.5,291.7,227.7Z" fill="#00b1e0"/>
      </g>
    </g>
    <g id="Group_17502" data-name="Group 17502">
      <g id="Group_17501" data-name="Group 17501">
        <path id="Path_9226" data-name="Path 9226" d="M308,237.7c0,.1-21.2.2-47.4.2s-47.4-.1-47.4-.2,21.2-.2,47.4-.2C286.8,237.4,308,237.5,308,237.7Z" fill="#00b1e0"/>
      </g>
    </g>
    <g id="Group_17504" data-name="Group 17504">
      <g id="Group_17503" data-name="Group 17503">
        <path id="Path_9227" data-name="Path 9227" d="M221.1,242.7a30.954,30.954,0,0,1-4.8.2,29.887,29.887,0,0,1-4.8-.2,30.954,30.954,0,0,1,4.8-.2A30.957,30.957,0,0,1,221.1,242.7Z" fill="#00b1e0"/>
      </g>
    </g>
    <g id="Group_17506" data-name="Group 17506">
      <g id="Group_17505" data-name="Group 17505">
        <path id="Path_9228" data-name="Path 9228" d="M254.3,242.8c0,.1-4.7.2-10.5.2s-10.5-.1-10.5-.2,4.7-.2,10.5-.2S254.3,242.7,254.3,242.8Z" fill="#00b1e0"/>
      </g>
    </g>
    <g id="Group_17508" data-name="Group 17508">
      <g id="Group_17507" data-name="Group 17507">
        <path id="Path_9229" data-name="Path 9229" d="M275.6,242.8c0,.1-4,.2-9,.2s-9-.1-9-.2,4-.2,9-.2S275.6,242.7,275.6,242.8Z" fill="#00b1e0"/>
      </g>
    </g>
    <g id="Group_17510" data-name="Group 17510">
      <g id="Group_17509" data-name="Group 17509">
        <path id="Path_9230" data-name="Path 9230" d="M219.8,249.2a44.2,44.2,0,0,1-8.4,0,44.2,44.2,0,0,1,8.4,0Z" fill="#00b1e0"/>
      </g>
    </g>
    <g id="Group_17512" data-name="Group 17512">
      <g id="Group_17511" data-name="Group 17511">
        <path id="Path_9231" data-name="Path 9231" d="M220.1,255.9a46.324,46.324,0,0,1-8.6,0,24.2,24.2,0,0,1,4.3-.2A16.49,16.49,0,0,1,220.1,255.9Z" fill="#00b1e0"/>
      </g>
    </g>
    <g id="Group_17514" data-name="Group 17514">
      <g id="Group_17513" data-name="Group 17513">
        <path id="Path_9232" data-name="Path 9232" d="M220.1,263.4a46.322,46.322,0,0,1-8.6,0,46.322,46.322,0,0,1,8.6,0Z" fill="#00b1e0"/>
      </g>
    </g>
    <g id="Group_17516" data-name="Group 17516">
      <g id="Group_17515" data-name="Group 17515">
        <path id="Path_9233" data-name="Path 9233" d="M298.8,263.1c0,.1-14.4.2-32.2.2s-32.2-.1-32.2-.2,14.4-.2,32.2-.2C284.4,262.8,298.8,262.9,298.8,263.1Z" fill="#00b1e0"/>
      </g>
    </g>
    <g id="Group_17518" data-name="Group 17518">
      <g id="Group_17517" data-name="Group 17517">
        <path id="Path_9234" data-name="Path 9234" d="M293.2,255.9c0,.1-13.8.2-30.7.2-17,0-30.7-.1-30.7-.2s13.8-.2,30.7-.2C279.4,255.6,293.2,255.8,293.2,255.9Z" fill="#00b1e0"/>
      </g>
    </g>
    <g id="Group_17520" data-name="Group 17520">
      <g id="Group_17519" data-name="Group 17519">
        <path id="Path_9235" data-name="Path 9235" d="M316,248.9c0,.1-18.7.2-41.8.2s-41.8-.1-41.8-.2,18.7-.2,41.8-.2C297.3,248.6,316,248.7,316,248.9Z" fill="#00b1e0"/>
      </g>
    </g>
    <g id="Group_17522" data-name="Group 17522">
      <g id="Group_17521" data-name="Group 17521">
        <path id="Path_9236" data-name="Path 9236" d="M338.2,199.4c0,.1-30.2.2-67.5.2s-67.5-.1-67.5-.2,30.2-.2,67.5-.2S338.2,199.3,338.2,199.4Z" fill="#0e314c"/>
      </g>
    </g>
    <g id="Group_17524" data-name="Group 17524">
      <g id="Group_17523" data-name="Group 17523">
        <path id="Path_9237" data-name="Path 9237" d="M242.3,221.6c0,.1-6.4.2-14.3.2s-14.3-.1-14.3-.2,6.4-.2,14.3-.2S242.3,221.5,242.3,221.6Z" fill="#00b1e0"/>
      </g>
    </g>
    <g id="Group_17526" data-name="Group 17526">
      <g id="Group_17525" data-name="Group 17525">
        <path id="Path_9238" data-name="Path 9238" d="M226.1,208a59.08,59.08,0,0,1-6.7.2,59.084,59.084,0,0,1-6.7-.2,59.08,59.08,0,0,1,6.7-.2A59.08,59.08,0,0,1,226.1,208Z" fill="#00b1e0"/>
      </g>
    </g>
  </g>
</svg>
