<?xml version="1.0" encoding="utf-8"?>
<!-- Generator: Adobe Illustrator 16.0.0, SVG Export Plug-In . SVG Version: 6.00 Build 0)  -->
<!DOCTYPE svg PUBLIC "-//W3C//DTD SVG 1.1//EN" "http://www.w3.org/Graphics/SVG/1.1/DTD/svg11.dtd">
<svg version="1.1" id="Layer_1" xmlns="http://www.w3.org/2000/svg" xmlns:xlink="http://www.w3.org/1999/xlink" x="0px" y="0px"
	 width="555px" height="555px" viewBox="0 0 555 555" enable-background="new 0 0 555 555" xml:space="preserve">
<g>
	<path fill="#F8F8F8" d="M278,43c31.743,0,62.515,6.208,91.46,18.451c27.979,11.834,53.115,28.784,74.71,50.379
		c21.596,21.595,38.545,46.731,50.38,74.71C506.792,215.486,513,246.257,513,278c0,31.743-6.208,62.515-18.45,91.46
		c-11.835,27.979-28.784,53.115-50.38,74.71c-21.595,21.596-46.731,38.545-74.71,50.38C340.515,506.792,309.743,513,278,513
		c-31.743,0-62.514-6.208-91.46-18.45c-27.979-11.835-53.115-28.784-74.71-50.38c-21.595-21.595-38.545-46.731-50.379-74.71
		C49.208,340.515,43,309.743,43,278c0-31.743,6.208-62.514,18.451-91.46c11.834-27.979,28.784-53.115,50.379-74.71
		s46.731-38.545,74.71-50.379C215.486,49.208,246.257,43,278,43 M278,2C125.57,2,2,125.57,2,278c0,152.431,123.57,276,276,276
		c152.431,0,276-123.569,276-276C554,125.57,430.431,2,278,2L278,2z"/>
</g>
<g>
	<path fill="#F8F8F8" d="M278,123c41.669,0,80.844,16.227,110.309,45.691C417.773,198.156,434,237.331,434,279
		s-16.227,80.844-45.691,110.309S319.669,435,278,435s-80.844-16.227-110.309-45.691C138.227,359.844,122,320.669,122,279
		s16.227-80.844,45.691-110.309C197.156,139.227,236.331,123,278,123 M278,82C169.2,82,81,170.2,81,279s88.2,197,197,197
		s197-88.2,197-197S386.8,82,278,82L278,82z"/>
</g>
<g>
	<g>
		<g>
			<path fill="#9BC5E5" d="M417.415,263.791h-15.502c-0.355,0-0.677-0.252-0.819-0.644c-0.143-0.392-0.078-0.847,0.163-1.16
				l14.906-19.335l1.313,1.459l-13.516,17.532h13.455V263.791z"/>
		</g>
	</g>
	<g>
		<g>
			<path fill="#9BC5E5" d="M418.214,272.485h-17.499V61.222h17.499V272.485z M402.504,270.337h13.921V63.371h-13.921V270.337z"/>
		</g>
	</g>
	<rect x="398.319" y="261.177" fill="#9BC5E5" width="22.29" height="19.186"/>
	<g>
		<g>
			<path fill="#9BC5E5" d="M417.415,184.395h-15.502c-0.355,0-0.677-0.252-0.819-0.644s-0.078-0.847,0.163-1.16l14.906-19.335
				l1.313,1.459l-13.516,17.531h13.455V184.395z"/>
		</g>
	</g>
	<g>
		<g>
			<path fill="#9BC5E5" d="M417.415,204.243h-15.502c-0.355,0-0.677-0.252-0.819-0.644c-0.143-0.392-0.078-0.847,0.163-1.16
				l14.906-19.335l1.313,1.459l-13.516,17.532h13.455V204.243z"/>
		</g>
	</g>
	<g>
		<g>
			<path fill="#9BC5E5" d="M417.415,224.092h-15.502c-0.355,0-0.677-0.252-0.819-0.644c-0.143-0.392-0.078-0.847,0.163-1.16
				l14.906-19.335l1.313,1.459l-13.516,17.533h13.455V224.092z"/>
		</g>
	</g>
	<g>
		<g>
			<path fill="#9BC5E5" d="M417.415,243.941h-15.502c-0.355,0-0.677-0.252-0.819-0.644s-0.078-0.847,0.163-1.16l14.906-19.335
				l1.313,1.459l-13.516,17.532h13.455V243.941z"/>
		</g>
	</g>
	<g>
		<g>
			<path fill="#9BC5E5" d="M417.415,165.023h-15.502c-0.355,0-0.677-0.253-0.819-0.644c-0.143-0.392-0.078-0.847,0.163-1.16
				l14.906-19.335l1.313,1.458l-13.516,17.533h13.455V165.023z"/>
		</g>
	</g>
	<g>
		<g>
			<path fill="#9BC5E5" d="M417.415,145.615h-15.502c-0.355,0-0.677-0.252-0.819-0.644c-0.143-0.392-0.078-0.847,0.163-1.16
				l14.906-19.335l1.313,1.459l-13.516,17.531h13.455V145.615z"/>
		</g>
	</g>
	<g>
		<g>
			<path fill="#9BC5E5" d="M417.415,126.242h-15.502c-0.355,0-0.677-0.252-0.819-0.644c-0.143-0.391-0.078-0.846,0.163-1.159
				l14.906-19.336l1.313,1.459l-13.516,17.532h13.455V126.242z"/>
		</g>
	</g>
	<g>
		<g>
			<path fill="#9BC5E5" d="M417.415,106.869h-15.502c-0.355,0-0.677-0.252-0.819-0.643c-0.143-0.392-0.078-0.847,0.163-1.16
				l14.906-19.336l1.313,1.459l-13.516,17.532h13.455V106.869z"/>
		</g>
	</g>
	<g>
		<g>
			<path fill="#9BC5E5" d="M417.415,87.498h-15.502c-0.355,0-0.677-0.253-0.819-0.644c-0.143-0.392-0.078-0.847,0.163-1.16
				l14.906-19.336l1.313,1.459L403.96,85.349h13.455V87.498z"/>
		</g>
	</g>
	<g>
		<g>
			<path fill="#9BC5E5" d="M417.415,68.126h-15.502c-0.355,0-0.677-0.253-0.819-0.645c-0.143-0.391-0.078-0.846,0.163-1.159
				l14.906-19.336l1.313,1.459L403.96,65.977h13.455V68.126z"/>
		</g>
	</g>
	<rect x="389.816" y="39.786" fill="#9BC5E5" width="28.368" height="28.725"/>
	<rect x="432.446" y="39.786" fill="#9BC5E5" width="28.367" height="16.499"/>
	<g>
		<path fill="#9BC5E5" d="M460.344,41.884H320.23c-0.494,0-0.895-0.481-0.895-1.074c0-0.594,0.4-1.075,0.895-1.075h140.113
			c0.493,0,0.894,0.481,0.894,1.075C461.237,41.403,460.837,41.884,460.344,41.884z"/>
	</g>
	<g>
		<g>
			<rect x="326.739" y="47.942" fill="#9BC5E5" width="0.895" height="42.281"/>
		</g>
	</g>
	<path fill="#9BC5E5" d="M410.261,40.093"/>
	<rect x="390.718" y="276.933" fill="#9BC5E5" width="37.494" height="8.441"/>
	<g>
		<path fill="#9BC5E5" d="M404.104,41.603c-0.114,0-0.229-0.053-0.316-0.157l-7.471-8.973h-68.493l-7.024,8.436
			c-0.174,0.208-0.457,0.208-0.632,0c-0.175-0.21-0.175-0.55,0-0.76l7.286-8.75h69.234l7.732,9.288c0.175,0.21,0.175,0.55,0,0.76
			C404.333,41.55,404.219,41.603,404.104,41.603z"/>
	</g>
	<g>
		<g>
			<path fill="#9BC5E5" d="M460.94,41.603c-0.161,0-0.316-0.105-0.396-0.289l-7.477-17.155h-18.132l-7.03,16.613
				c-0.112,0.263-0.382,0.367-0.602,0.234c-0.22-0.133-0.308-0.457-0.196-0.722l7.279-17.199h19.222l7.728,17.731
				c0.114,0.263,0.03,0.586-0.188,0.725C461.081,41.583,461.01,41.603,460.94,41.603z"/>
		</g>
	</g>
	<ellipse fill="#9BC5E5" cx="327.187" cy="45.823" rx="3.279" ry="3.939"/>
	<g>
		<g>
			<path fill="#9BC5E5" d="M346.575,32.464c-0.192,0-0.369-0.149-0.428-0.381c-0.072-0.283,0.061-0.584,0.297-0.669l66.211-24.249
				c0.101-0.036,0.209-0.03,0.305,0.019l31.381,15.908c0.228,0.115,0.334,0.43,0.238,0.704c-0.097,0.273-0.359,0.401-0.586,0.286
				L412.761,8.249l-66.055,24.192C346.661,32.456,346.618,32.464,346.575,32.464z"/>
		</g>
	</g>
	<g>
		<g>
			<path fill="#9BC5E5" d="M402.368,41.674c-0.105,0-0.213-0.022-0.317-0.07c-0.462-0.211-0.693-0.832-0.518-1.386l10.426-32.95
				c0.141-0.447,0.508-0.729,0.909-0.689c0.396,0.04,0.725,0.389,0.803,0.858l5.39,32.137c0.098,0.582-0.216,1.147-0.7,1.266
				c-0.482,0.113-0.955-0.26-1.053-0.842L412.53,11.51l-9.326,29.471C403.069,41.411,402.729,41.674,402.368,41.674z"/>
		</g>
	</g>
	<ellipse fill="#9BC5E5" cx="412.794" cy="7.649" rx="1.802" ry="2.164"/>
	<g>
		<g>
			<path fill="#9BC5E5" d="M337.147,41.705c-0.099,0-0.197-0.039-0.281-0.12l-8.781-8.526v7.973c0,0.297-0.2,0.536-0.447,0.536
				s-0.447-0.239-0.447-0.536v-9.096c0-0.208,0.1-0.396,0.255-0.486c0.154-0.089,0.34-0.063,0.474,0.068l9.511,9.232
				c0.192,0.187,0.222,0.524,0.065,0.755C337.407,41.637,337.278,41.705,337.147,41.705z"/>
		</g>
	</g>
	<g>
		<g>
			<path fill="#9BC5E5" d="M345.64,41.705c-0.099,0-0.197-0.039-0.28-0.12l-8.782-8.526v7.973c0,0.297-0.2,0.536-0.447,0.536
				c-0.248,0-0.447-0.239-0.447-0.536v-9.096c0-0.208,0.099-0.396,0.254-0.486c0.154-0.089,0.34-0.063,0.475,0.068l9.51,9.232
				c0.193,0.187,0.223,0.524,0.066,0.755C345.899,41.637,345.771,41.705,345.64,41.705z"/>
		</g>
	</g>
	<g>
		<g>
			<path fill="#9BC5E5" d="M354.132,41.705c-0.099,0-0.197-0.039-0.28-0.12l-8.782-8.526v7.973c0,0.297-0.2,0.536-0.447,0.536
				s-0.447-0.239-0.447-0.536v-9.096c0-0.208,0.1-0.396,0.255-0.486c0.153-0.089,0.339-0.063,0.474,0.068l9.511,9.232
				c0.192,0.187,0.222,0.524,0.066,0.755C354.392,41.637,354.263,41.705,354.132,41.705z"/>
		</g>
	</g>
	<g>
		<g>
			<path fill="#9BC5E5" d="M362.624,41.705c-0.099,0-0.197-0.039-0.28-0.12l-8.782-8.526v7.973c0,0.297-0.2,0.536-0.447,0.536
				s-0.447-0.239-0.447-0.536v-9.096c0-0.208,0.1-0.396,0.255-0.486c0.154-0.089,0.339-0.063,0.474,0.068l9.51,9.232
				c0.192,0.187,0.223,0.524,0.066,0.755C362.884,41.637,362.755,41.705,362.624,41.705z"/>
		</g>
	</g>
	<g>
		<g>
			<path fill="#9BC5E5" d="M371.116,41.705c-0.099,0-0.197-0.039-0.281-0.12l-8.781-8.526v7.973c0,0.297-0.2,0.536-0.447,0.536
				c-0.248,0-0.447-0.239-0.447-0.536v-9.096c0-0.208,0.099-0.396,0.254-0.486s0.34-0.063,0.475,0.068l9.51,9.232
				c0.192,0.187,0.223,0.524,0.066,0.755C371.376,41.637,371.247,41.705,371.116,41.705z"/>
		</g>
	</g>
	<g>
		<g>
			<path fill="#9BC5E5" d="M379.608,41.705c-0.099,0-0.197-0.039-0.28-0.12l-8.782-8.526v7.973c0,0.297-0.2,0.536-0.447,0.536
				c-0.248,0-0.447-0.239-0.447-0.536v-9.096c0-0.208,0.099-0.396,0.255-0.486c0.153-0.089,0.339-0.063,0.474,0.068l9.511,9.232
				c0.191,0.187,0.222,0.524,0.066,0.755C379.868,41.637,379.739,41.705,379.608,41.705z"/>
		</g>
	</g>
	<g>
		<g>
			<path fill="#9BC5E5" d="M388.101,41.705c-0.099,0-0.198-0.039-0.281-0.12l-8.781-8.526v7.973c0,0.297-0.201,0.536-0.447,0.536
				c-0.248,0-0.447-0.239-0.447-0.536v-9.096c0-0.208,0.099-0.396,0.254-0.486c0.154-0.089,0.34-0.063,0.475,0.068l9.51,9.232
				c0.192,0.187,0.223,0.524,0.066,0.755C388.36,41.637,388.231,41.705,388.101,41.705z"/>
		</g>
	</g>
	<g>
		<g>
			<path fill="#9BC5E5" d="M396.593,41.705c-0.099,0-0.198-0.039-0.281-0.12l-8.781-8.526v7.973c0,0.297-0.201,0.536-0.447,0.536
				c-0.248,0-0.447-0.239-0.447-0.536v-9.096c0-0.208,0.099-0.396,0.254-0.486c0.154-0.089,0.34-0.063,0.475,0.068l9.51,9.232
				c0.192,0.187,0.223,0.524,0.066,0.755C396.853,41.637,396.724,41.705,396.593,41.705z"/>
		</g>
	</g>
	<g>
		<g>
			<path fill="#9BC5E5" d="M446.796,41.705c-0.127,0-0.253-0.064-0.342-0.19l-11.405-16.168v15.685c0,0.297-0.2,0.536-0.447,0.536
				s-0.446-0.239-0.446-0.536v-17.15c0-0.225,0.116-0.427,0.292-0.503c0.177-0.079,0.374-0.015,0.495,0.156l12.194,17.286
				c0.16,0.226,0.137,0.565-0.052,0.756C447.001,41.663,446.897,41.705,446.796,41.705z"/>
		</g>
	</g>
	<g>
		<g>
			<path fill="#9BC5E5" d="M455.568,41.705c-0.145,0-0.287-0.084-0.373-0.241l-8.69-15.795v15.362c0,0.297-0.2,0.536-0.447,0.536
				s-0.447-0.239-0.447-0.536v-17.15c0-0.236,0.129-0.446,0.318-0.514c0.191-0.066,0.394,0.021,0.502,0.218l9.511,17.285
				c0.136,0.249,0.079,0.582-0.126,0.745C455.739,41.676,455.653,41.705,455.568,41.705z"/>
		</g>
	</g>
	<ellipse fill="#9BC5E5" cx="327.186" cy="91.655" rx="2.816" ry="3.382"/>
	<line fill="#9BC5E5" x1="444.321" y1="286.176" x2="376.353" y2="286.176"/>
</g>
<g>
	<g>
		<path fill="#D4E5F6" d="M156.354,266.788c-1.156-5.1-3.122-9.903-5.728-14.277c-4.077-6.866-9.773-12.692-16.54-16.918
			c-4.309-2.707-9.079-4.77-14.145-6.058c-3.962-1.007-8.104-1.535-12.379-1.535c-3.879,0-7.659,0.445-11.273,1.288
			c-5.1,1.155-9.903,3.119-14.277,5.71c-6.868,4.093-12.694,9.788-16.901,16.555c-2.723,4.308-4.771,9.062-6.059,14.129
			c-1.023,3.961-1.551,8.104-1.551,12.38c0,3.878,0.445,7.658,1.304,11.272c1.138,5.101,3.103,9.903,5.71,14.277
			c4.077,6.866,9.772,12.694,16.539,16.919c4.309,2.707,9.062,4.77,14.129,6.057c3.961,1.007,8.104,1.535,12.379,1.535
			c3.879,0,7.658-0.445,11.289-1.287c5.101-1.155,9.904-3.104,14.262-5.711c6.884-4.094,12.692-9.771,16.917-16.555
			c2.723-4.309,4.788-9.063,6.074-14.13c1.008-3.961,1.536-8.104,1.536-12.378C157.641,274.183,157.195,270.403,156.354,266.788z
			 M79.784,278.063c0-15.351,12.445-27.779,27.779-27.779c15.35,0,27.795,12.428,27.795,27.779c0,15.35-12.445,27.778-27.795,27.778
			C92.229,305.841,79.784,293.412,79.784,278.063z"/>
		<path fill="#D4E5F6" d="M115.584,246.426h-14.931c-2.411,0-4.364-1.954-4.364-4.364V222.73c0-2.41,1.953-4.363,4.364-4.363h14.931
			c2.41,0,4.363,1.954,4.363,4.363v19.332C119.948,244.472,117.994,246.426,115.584,246.426z"/>
		<path fill="#D4E5F6" d="M90.866,250.024l-10.557,10.558c-1.704,1.704-4.468,1.704-6.172,0l-13.669-13.669
			c-1.704-1.705-1.704-4.468,0-6.171l10.557-10.558c1.704-1.704,4.468-1.704,6.171,0l13.669,13.67
			C92.57,245.557,92.57,248.32,90.866,250.024z"/>
		<path fill="#D4E5F6" d="M75.933,270.046v14.93c0,2.41-1.954,4.364-4.364,4.364H52.237c-2.411,0-4.364-1.954-4.364-4.364v-14.93
			c0-2.41,1.953-4.364,4.364-4.364h19.332C73.979,265.683,75.933,267.636,75.933,270.046z"/>
		<path fill="#D4E5F6" d="M79.53,294.764l10.559,10.558c1.703,1.704,1.703,4.467,0,6.171l-13.671,13.671
			c-1.704,1.702-4.467,1.702-6.17,0l-10.559-10.559c-1.704-1.704-1.704-4.467,0-6.171l13.669-13.67
			C75.064,293.06,77.827,293.06,79.53,294.764z"/>
		<path fill="#D4E5F6" d="M99.552,309.697h14.931c2.411,0,4.363,1.953,4.363,4.365v19.33c0,2.411-1.953,4.364-4.363,4.364H99.552
			c-2.409,0-4.363-1.953-4.363-4.364v-19.33C95.189,311.65,97.143,309.697,99.552,309.697z"/>
		<path fill="#D4E5F6" d="M124.27,306.1l10.557-10.558c1.705-1.704,4.467-1.704,6.173,0l13.668,13.669
			c1.706,1.705,1.706,4.469,0,6.172L144.11,325.94c-1.703,1.704-4.467,1.704-6.17,0l-13.671-13.67
			C122.567,310.566,122.567,307.804,124.27,306.1z"/>
		<path fill="#D4E5F6" d="M139.203,286.077v-14.931c0-2.41,1.955-4.363,4.366-4.363H162.9c2.411,0,4.363,1.954,4.363,4.363v14.931
			c0,2.41-1.953,4.363-4.363,4.363h-19.331C141.158,290.44,139.203,288.487,139.203,286.077z"/>
		<path fill="#D4E5F6" d="M135.605,261.359l-10.557-10.557c-1.704-1.704-1.704-4.467,0-6.171l13.671-13.669
			c1.703-1.705,4.468-1.705,6.17,0l10.557,10.557c1.706,1.705,1.706,4.467,0,6.171l-13.668,13.669
			C140.073,263.064,137.31,263.064,135.605,261.359z"/>
	</g>
	<g>
		<path fill="#D4E5F6" d="M231.845,210.235c-0.511-2.255-1.38-4.38-2.533-6.314c-1.802-3.037-4.319-5.613-7.313-7.482
			c-1.906-1.197-4.014-2.109-6.253-2.678c-1.752-0.446-3.585-0.68-5.475-0.68c-1.716,0-3.387,0.197-4.985,0.57
			c-2.255,0.511-4.379,1.38-6.313,2.526c-3.038,1.81-5.613,4.328-7.475,7.321c-1.206,1.905-2.109,4.007-2.679,6.248
			c-0.453,1.752-0.687,3.584-0.687,5.475c0,1.716,0.198,3.387,0.578,4.986c0.502,2.255,1.372,4.379,2.525,6.314
			c1.802,3.036,4.322,5.613,7.313,7.481c1.906,1.197,4.006,2.109,6.248,2.678c1.752,0.446,3.585,0.679,5.475,0.679
			c1.716,0,3.387-0.197,4.991-0.569c2.257-0.511,4.382-1.373,6.309-2.526c3.043-1.81,5.613-4.321,7.482-7.321
			c1.203-1.905,2.117-4.007,2.685-6.248c0.445-1.751,0.679-3.584,0.679-5.475C232.415,213.505,232.217,211.834,231.845,210.235z
			 M197.984,215.22c0-6.788,5.504-12.285,12.286-12.285c6.787,0,12.291,5.497,12.291,12.285c0,6.789-5.504,12.285-12.291,12.285
			C203.488,227.505,197.984,222.009,197.984,215.22z"/>
		<path fill="#D4E5F6" d="M213.815,201.23h-6.602c-1.065,0-1.929-0.864-1.929-1.93v-8.549c0-1.066,0.864-1.93,1.929-1.93h6.602
			c1.067,0,1.929,0.864,1.929,1.93v8.549C215.745,200.366,214.883,201.23,213.815,201.23z"/>
		<path fill="#D4E5F6" d="M202.886,202.821l-4.67,4.669c-0.752,0.753-1.974,0.753-2.729,0l-6.045-6.045
			c-0.752-0.754-0.752-1.976,0-2.729l4.668-4.669c0.755-0.753,1.976-0.753,2.731,0l6.045,6.045
			C203.639,200.846,203.639,202.068,202.886,202.821z"/>
		<path fill="#D4E5F6" d="M196.281,211.676v6.603c0,1.065-0.864,1.93-1.929,1.93h-8.55c-1.065,0-1.929-0.864-1.929-1.93v-6.603
			c0-1.065,0.864-1.93,1.929-1.93h8.55C195.417,209.746,196.281,210.61,196.281,211.676z"/>
		<path fill="#D4E5F6" d="M197.872,222.606l4.67,4.669c0.752,0.754,0.752,1.976,0,2.729l-6.045,6.045
			c-0.755,0.753-1.976,0.753-2.731,0l-4.668-4.669c-0.752-0.753-0.752-1.975,0-2.729l6.045-6.045
			C195.896,221.853,197.12,221.853,197.872,222.606z"/>
		<path fill="#D4E5F6" d="M206.727,229.21h6.602c1.067,0,1.932,0.864,1.932,1.93v8.549c0,1.065-0.864,1.93-1.932,1.93h-6.602
			c-1.065,0-1.929-0.864-1.929-1.93v-8.549C204.797,230.075,205.662,229.21,206.727,229.21z"/>
		<path fill="#D4E5F6" d="M217.658,227.619l4.668-4.668c0.752-0.754,1.976-0.754,2.729,0l6.045,6.045
			c0.755,0.754,0.755,1.976,0,2.729l-4.668,4.669c-0.755,0.753-1.976,0.753-2.728,0l-6.045-6.045
			C216.903,229.595,216.903,228.373,217.658,227.619z"/>
		<path fill="#D4E5F6" d="M224.261,218.765v-6.602c0-1.065,0.864-1.93,1.932-1.93h8.547c1.067,0,1.932,0.865,1.932,1.93v6.602
			c0,1.066-0.864,1.93-1.932,1.93h-8.547C225.125,220.695,224.261,219.831,224.261,218.765z"/>
		<path fill="#D4E5F6" d="M222.67,207.834l-4.668-4.668c-0.755-0.754-0.755-1.975,0-2.729l6.045-6.045
			c0.752-0.753,1.976-0.753,2.729,0l4.668,4.669c0.755,0.753,0.755,1.976,0,2.729l-6.045,6.045
			C224.646,208.588,223.425,208.588,222.67,207.834z"/>
	</g>
	<g>
		<path fill="#242E36" d="M454.805,489.527H100.081c-5.517,0-9.99-4.473-9.99-9.989V273.302c0-5.517,4.473-9.989,9.99-9.989h354.724
			c5.517,0,9.989,4.472,9.989,9.989v206.236C464.794,485.055,460.321,489.527,454.805,489.527z"/>
		<rect x="97.795" y="269.278" fill="#E4ECF8" width="361.066" height="195.545"/>
		<rect x="97.795" y="272.092" fill="#FFFFFF" width="358.252" height="192.731"/>
		<rect x="238.358" y="488.277" fill="#192328" width="79.947" height="29.581"/>
		<rect x="204.373" y="517.858" fill="#192328" width="147.916" height="11.326"/>
	</g>
	<rect x="106.767" y="284.379" fill="#D4E5F6" width="151.946" height="14.538"/>
	
		<rect x="106.771" y="307.598" fill="none" stroke="#D4E5F6" stroke-width="1.0555" stroke-miterlimit="10" width="151.946" height="145.374"/>
	<rect x="272.547" y="284.379" fill="#E4ECF8" width="171.875" height="170.352"/>
	<rect x="272.547" y="284.379" fill="#D4E5F6" width="171.875" height="13.834"/>
	<g>
		
			<path fill="none" stroke="#242E36" stroke-width="1.0555" stroke-linecap="round" stroke-miterlimit="10" stroke-dasharray="3.1222,5.2036" d="
			M429.416,395.583v48.654c0,1.91-1.549,3.459-3.46,3.459H291.245c-1.908,0-3.458-1.549-3.458-3.459v-48.654
			c0-1.911,1.55-3.459,3.458-3.459h134.711C427.867,392.124,429.416,393.672,429.416,395.583z"/>
	</g>
	<g>
		<linearGradient id="SVGID_1_" gradientUnits="userSpaceOnUse" x1="338.6484" y1="231.4321" x2="379.4922" y2="231.4321">
			<stop  offset="0.0618" style="stop-color:#E28425"/>
			<stop  offset="1" style="stop-color:#E05A26"/>
		</linearGradient>
		<path fill="url(#SVGID_1_)" d="M379.492,257.329h-40.844l3.802-10.413l3.507-9.597l3.204-8.78l3.507-9.596l4.447-12.178
			c0.596-1.638,3.314-1.638,3.91,0l4.444,12.178l3.51,9.596l3.204,8.78l3.507,9.597L379.492,257.329z"/>
		<linearGradient id="SVGID_2_" gradientUnits="userSpaceOnUse" x1="330.4639" y1="259.4727" x2="387.6768" y2="259.4727">
			<stop  offset="0.0618" style="stop-color:#E28425"/>
			<stop  offset="1" style="stop-color:#E05A26"/>
		</linearGradient>
		<path fill="url(#SVGID_2_)" d="M385.123,262.025h-52.108c-1.403,0-2.543-1.133-2.551-2.537l0,0
			c-0.011-1.416,1.135-2.568,2.551-2.568h52.108c1.416,0,2.562,1.153,2.554,2.568l0,0
			C387.667,260.892,386.526,262.025,385.123,262.025z"/>
		<polygon fill="#FFFEFE" points="368.979,228.538 349.161,228.538 352.668,218.942 365.47,218.942 		"/>
		<polygon fill="#FFFEFE" points="375.69,246.916 342.45,246.916 345.957,237.318 372.184,237.318 		"/>
	</g>
	<g>
		<linearGradient id="SVGID_3_" gradientUnits="userSpaceOnUse" x1="230.6367" y1="511.7256" x2="275.2231" y2="511.7256">
			<stop  offset="0.0618" style="stop-color:#E28425"/>
			<stop  offset="1" style="stop-color:#E05A26"/>
		</linearGradient>
		<path fill="url(#SVGID_3_)" d="M275.223,539.996h-44.586l4.147-11.367l3.83-10.479l3.499-9.584l3.83-10.477l4.853-13.295
			c0.651-1.787,3.619-1.787,4.27,0l4.853,13.295l3.83,10.477l3.499,9.584l3.83,10.479L275.223,539.996z"/>
		<linearGradient id="SVGID_4_" gradientUnits="userSpaceOnUse" x1="221.7012" y1="542.3359" x2="284.1611" y2="542.3359">
			<stop  offset="0.0618" style="stop-color:#E28425"/>
			<stop  offset="1" style="stop-color:#E05A26"/>
		</linearGradient>
		<path fill="url(#SVGID_4_)" d="M281.373,545.123h-56.886c-1.534,0-2.778-1.237-2.786-2.768l0,0
			c-0.01-1.547,1.239-2.806,2.786-2.806h56.886c1.546,0,2.796,1.259,2.788,2.806l0,0
			C284.15,543.886,282.906,545.123,281.373,545.123z"/>
		<polygon fill="#FFFEFE" points="263.747,508.566 242.112,508.566 245.942,498.09 259.917,498.09 		"/>
		<polygon fill="#FFFEFE" points="271.076,528.629 234.784,528.629 238.613,518.15 267.246,518.15 		"/>
	</g>
	<g>
		<linearGradient id="SVGID_5_" gradientUnits="userSpaceOnUse" x1="73.7861" y1="509.7881" x2="107.5513" y2="509.7881">
			<stop  offset="0.0618" style="stop-color:#E28425"/>
			<stop  offset="1" style="stop-color:#E05A26"/>
		</linearGradient>
		<path fill="url(#SVGID_5_)" d="M107.551,531.197H73.786l3.142-8.608l2.899-7.935l2.649-7.26l2.9-7.933l3.675-10.067
			c0.493-1.354,2.742-1.354,3.235,0l3.673,10.067l2.9,7.933l2.65,7.26l2.899,7.935L107.551,531.197z"/>
		<linearGradient id="SVGID_6_" gradientUnits="userSpaceOnUse" x1="67.0195" y1="532.9697" x2="114.3193" y2="532.9697">
			<stop  offset="0.0618" style="stop-color:#E28425"/>
			<stop  offset="1" style="stop-color:#E05A26"/>
		</linearGradient>
		<path fill="url(#SVGID_6_)" d="M112.208,535.08H69.128c-1.16,0-2.103-0.938-2.109-2.098l0,0c-0.008-1.17,0.938-2.123,2.109-2.123
			h43.079c1.172,0,2.118,0.953,2.112,2.123l0,0C114.312,534.143,113.369,535.08,112.208,535.08z"/>
		<polygon fill="#FFFEFE" points="98.86,507.395 82.476,507.395 85.376,499.462 95.959,499.462 		"/>
		<polygon fill="#FFFEFE" points="104.409,522.589 76.928,522.589 79.827,514.654 101.51,514.654 		"/>
	</g>
	<linearGradient id="SVGID_7_" gradientUnits="userSpaceOnUse" x1="220.8169" y1="304.3682" x2="186.1131" y2="351.2652">
		<stop  offset="0" style="stop-color:#32B6EA"/>
		<stop  offset="1" style="stop-color:#37C5EB"/>
	</linearGradient>
	<polygon fill="url(#SVGID_7_)" points="258.717,307.598 258.717,404.04 217.536,393.403 223.276,371.175 202.131,365.717 
		200.134,373.468 175.849,367.207 179.453,353.265 169.351,350.662 167.281,358.71 125.904,348.032 127.524,341.785 
		106.771,336.426 106.771,307.598 	"/>
	<g>
		<g>
			<path fill="#E4ECF8" d="M42.391,483.276c-7.342,0.652-20.466-38.61-39.51-35.536c0,0,17.603-8.373,26.465-3.787
				C44.341,451.713,45.557,482.995,42.391,483.276z"/>
			<path fill="none" stroke="#D4E5F6" stroke-width="0.6749" stroke-linecap="round" stroke-miterlimit="10" d="M43.516,509.817
				c0,0,3.824-59.566-26.428-63.727"/>
		</g>
		<g>
			<path fill="#E4ECF8" d="M52.698,500.521c7.342,0.652,20.467-38.611,39.51-35.536c0,0-17.602-8.373-26.464-3.787
				C50.748,468.957,49.532,500.239,52.698,500.521z"/>
			<path fill="none" stroke="#D4E5F6" stroke-width="0.6749" stroke-linecap="round" stroke-miterlimit="10" d="M51.573,527.06
				c0,0-3.823-59.564,26.428-63.726"/>
		</g>
		<g>
			<path fill="#E4ECF8" d="M13.94,384.989c0,0,10.646,5.548,16.53,32.762c4.523,20.916,14.395,28.789,14.395,28.789
				s3.003-21.669-1.836-41.159c-4.161-16.756-15.181-23.616-29.688-20.692"/>
			<path fill="none" stroke="#D4E5F6" stroke-width="0.6749" stroke-linecap="round" stroke-miterlimit="10" d="M46.814,508.317
				c0-0.75,4.087-106.985-23.391-119.055"/>
		</g>
		<g>
			<path fill="#E4ECF8" d="M82.191,403.881c0,0-10.647,5.548-16.531,32.764c-4.523,20.916-14.395,28.789-14.395,28.789
				s-3.004-21.67,1.835-41.159c4.162-16.756,15.183-23.616,29.689-20.692"/>
			<path fill="none" stroke="#D4E5F6" stroke-width="0.6749" stroke-linecap="round" stroke-miterlimit="10" d="M49.316,527.21
				c0-0.75-4.086-106.984,23.392-119.056"/>
		</g>
		<path fill="none" stroke="#84B1DF" stroke-width="0.6749" stroke-linecap="round" stroke-miterlimit="10" d="M50.788,508.617"/>
		<g>
			<linearGradient id="SVGID_8_" gradientUnits="userSpaceOnUse" x1="35.3252" y1="519.0996" x2="60.1904" y2="519.0996">
				<stop  offset="0" style="stop-color:#4195D1"/>
				<stop  offset="1" style="stop-color:#3E73B9"/>
			</linearGradient>
			<path fill="url(#SVGID_8_)" d="M56.033,530.885H39.481c-1.066,0-1.957-0.818-2.046-1.882l-2.11-21.689H60.19l-2.111,21.689
				C57.989,530.066,57.101,530.885,56.033,530.885z"/>
			<linearGradient id="SVGID_9_" gradientUnits="userSpaceOnUse" x1="33.8096" y1="509.4219" x2="61.7046" y2="509.4219">
				<stop  offset="0" style="stop-color:#407BBE"/>
				<stop  offset="1" style="stop-color:#3E73B9"/>
			</linearGradient>
			<path fill="url(#SVGID_9_)" d="M60.813,511.53h-26.11c-0.492,0-0.893-0.398-0.893-0.892v-2.433c0-0.492,0.401-0.893,0.893-0.893
				h26.11c0.492,0,0.892,0.4,0.892,0.893v2.433C61.705,511.132,61.305,511.53,60.813,511.53z"/>
		</g>
	</g>
	<g>
		<linearGradient id="SVGID_10_" gradientUnits="userSpaceOnUse" x1="287.7871" y1="348.627" x2="429.416" y2="348.627">
			<stop  offset="0" style="stop-color:#32B6EA"/>
			<stop  offset="1" style="stop-color:#37C5EB"/>
		</linearGradient>
		<path fill="url(#SVGID_10_)" d="M429.416,324.417v48.421c0,1.975-1.602,3.575-3.577,3.575H291.362
			c-1.974,0-3.575-1.601-3.575-3.575v-48.421c0-1.975,1.602-3.575,3.575-3.575h134.477
			C427.814,320.842,429.416,322.442,429.416,324.417z"/>
		<g>
			<g>
				<text transform="matrix(1 0 0 1 320.2393 362.2266)"><tspan x="0" y="0" fill="#FFFFFF" font-family="'Arial-BoldMT'" font-size="38.8774" letter-spacing="7">&lt;/</tspan><tspan x="48.979" y="0" fill="#FFFFFF" font-family="'Arial-BoldMT'" font-size="38.8774">&gt;</tspan></text>
			</g>
		</g>
	</g>
	<g>
		<g>
			<g>
				<path fill="#F6DABA" d="M485.083,469.629c-0.367,1.033-1.377,1.696-2.468,1.802c-4.9,0.478-21.356,1.806-21.977-1.785
					c-0.729-4.222,13.939-4.529,18.201-4.081C482.389,465.938,485.966,467.13,485.083,469.629z"/>
				<g>
					<path fill="#F6DABA" d="M463.636,469.062c0.151-0.91-0.227-1.822-0.891-2.462c-3.28-3.155-15.248-14.493-17.089-13.723
						c-2.135,0.895,14.374,18.035,15.582,17.803C462.178,470.498,463.394,470.524,463.636,469.062z"/>
					<path fill="#F6DABA" d="M441.684,449.312c0.422-0.466,2.687,1.794,3.418,2.378c0.109,0.089,0.188,0.141,0.216,0.137
						c0.029-0.002,0.026-0.041,0.008-0.1c-0.117-0.358-1.007-1.621-0.567-2.013c0.484-0.433,2.268,1.286,2.869,2.38
						c0.031,0.061,0.078,0.127,0.102,0.184c0.486,1.071,0.586,1.787-0.086,2.762c-1.07,1.559-3.601-0.643-4.438-1.426
						c-0.703-0.658-1.211-1.641-1.477-2.514C441.482,450.286,441.449,449.569,441.684,449.312z"/>
				</g>
				<linearGradient id="SVGID_11_" gradientUnits="userSpaceOnUse" x1="459.2813" y1="463.9316" x2="475.5776" y2="468.6212">
					<stop  offset="0.0618" style="stop-color:#E28425"/>
					<stop  offset="1" style="stop-color:#E05A26"/>
				</linearGradient>
				<path fill="url(#SVGID_11_)" d="M483.097,463.773l-4.027,8.936l-3.911,1.36c0,0-11.694-1.267-14.6-2.97
					c-4.744-2.781-12.023-11.936-12.023-11.936l3.231-3.09c0,0,10.7,8.68,11.518,9.177
					C464.106,465.742,483.097,463.773,483.097,463.773z"/>
			</g>
			<g>
				<path fill="#F6DABA" d="M352.39,425.171c-0.32-0.588-3.233,1.177-4.137,1.596c-0.136,0.064-0.229,0.1-0.258,0.088
					c-0.031-0.011-0.019-0.051,0.016-0.105c0.211-0.342,1.453-1.422,1.096-1.94c-0.39-0.567-2.671,0.76-3.566,1.738
					c-0.05,0.055-0.114,0.112-0.153,0.163c-0.773,0.985-1.058,1.701-0.609,2.88c0.713,1.882,3.887,0.245,4.952-0.353
					c0.896-0.504,1.668-1.393,2.16-2.227C352.351,426.23,352.566,425.498,352.39,425.171z"/>
				<path fill="#F6DABA" d="M309.766,423.623c-0.505,1.053-0.244,2.313,0.498,3.214c3.324,4.054,14.696,17.456,17.867,15.226
					c3.73-2.625-7.065-13.916-10.606-16.789C314.574,422.879,310.987,421.078,309.766,423.623z"/>
				<path fill="#F6DABA" d="M324.691,440.05c0.076-0.979,0.695-1.828,1.544-2.321c4.189-2.434,19.435-11.136,21.143-9.875
					c1.981,1.466-19.424,15.023-20.614,14.477C325.837,441.906,324.572,441.625,324.691,440.05z"/>
				<linearGradient id="SVGID_12_" gradientUnits="userSpaceOnUse" x1="331.0586" y1="435.6465" x2="323.3207" y2="423.7758">
					<stop  offset="0.0618" style="stop-color:#E28425"/>
					<stop  offset="1" style="stop-color:#E05A26"/>
				</linearGradient>
				<path fill="url(#SVGID_12_)" d="M314.449,421.317c0,0,12.734,12.432,13.724,12.678c0.989,0.247,12.97-5.076,12.97-5.076
					l2.341,4.06c0,0-13.726,10.453-16.389,10.241c-2.663-0.213-9.144-5.485-9.144-5.485L314.449,421.317z"/>
			</g>
			<g>
				<g>
					<g>
						<linearGradient id="SVGID_13_" gradientUnits="userSpaceOnUse" x1="319.2471" y1="424.7803" x2="495.2432" y2="424.7803">
							<stop  offset="0" style="stop-color:#32B6EA"/>
							<stop  offset="1" style="stop-color:#37C5EB"/>
						</linearGradient>
						<path fill="url(#SVGID_13_)" d="M484.391,463.186l-160.282-15.72c-2.96-0.292-5.126-2.927-4.835-5.888l4.939-50.368
							c0.291-2.96,2.926-5.126,5.886-4.835l160.282,15.72c2.963,0.291,5.126,2.927,4.837,5.888l-4.941,50.367
							C489.988,461.311,487.351,463.476,484.391,463.186z"/>
						<linearGradient id="SVGID_14_" gradientUnits="userSpaceOnUse" x1="323.752" y1="399.5215" x2="495.2432" y2="399.5215">
							<stop  offset="0" style="stop-color:#32B6EA"/>
							<stop  offset="1" style="stop-color:#37C5EB"/>
						</linearGradient>
						<path fill="url(#SVGID_14_)" d="M494.755,412.693l-171.003-16.771l0.461-4.712c0.291-2.96,2.926-5.126,5.886-4.835
							l160.282,15.72c2.963,0.291,5.126,2.927,4.837,5.888L494.755,412.693z"/>
					</g>
					<g>
						<circle fill="#FFFFFF" cx="465.974" cy="405.155" r="1.8"/>
						<circle fill="#FFFFFF" cx="476.61" cy="406.198" r="1.801"/>
						<circle fill="#FFFFFF" cx="487.248" cy="407.242" r="1.801"/>
					</g>
				</g>
				<g>
					<circle fill="#E4ECF8" cx="350.464" cy="423.71" r="15.171"/>
					<g>
						<path fill="#D4E5F6" d="M398.086,424.676l-10.253-1.024c-1.046-0.104-1.812-1.038-1.708-2.088l0,0
							c0.104-1.048,1.039-1.813,2.089-1.709l10.252,1.024c1.049,0.105,1.814,1.04,1.708,2.088l0,0
							C400.069,424.017,399.135,424.781,398.086,424.676z"/>
						<path fill="#D4E5F6" d="M461.498,431.012l-55.818-5.576c-1.049-0.105-1.812-1.04-1.707-2.088l0,0
							c0.104-1.05,1.038-1.815,2.088-1.71l55.817,5.575c1.05,0.105,1.815,1.041,1.708,2.09l0,0
							C463.482,430.351,462.547,431.116,461.498,431.012z"/>
						<path fill="#D4E5F6" d="M412.459,434.357l-25.44-2.541c-1.05-0.105-1.814-1.04-1.708-2.088l0,0
							c0.104-1.05,1.039-1.814,2.088-1.709l25.441,2.541c1.046,0.105,1.812,1.04,1.708,2.088l0,0
							C414.443,433.697,413.509,434.463,412.459,434.357z"/>
						<path fill="#D4E5F6" d="M475.872,440.692l-55.818-5.576c-1.049-0.104-1.814-1.04-1.708-2.088l0,0
							c0.104-1.05,1.039-1.813,2.088-1.709l55.818,5.576c1.047,0.104,1.813,1.039,1.708,2.088l0,0
							C477.855,440.031,476.921,440.797,475.872,440.692z"/>
					</g>
				</g>
			</g>
			<path fill="#F6DABA" d="M489.134,498.93c0.065,2.322-2.093,4.325-4.676,4.37c-2.052,0.036-7.048-0.334-10.494-0.966
				c-8.534-1.566-16.535-2.591-17.487-5.733c-0.953-3.143,4.649-5.279,13.204-4.672c7.735,0.551,17.425-0.613,18.597,1.548
				C488.871,494.57,489.076,496.898,489.134,498.93z"/>
			<path fill="#F6DABA" d="M489.826,498.852c2.169-0.36,4.402,1.494,4.866,4.012c0.367,2.004,0.833,6.936,0.799,10.387
				c-0.08,8.546,0.258,16.501-2.538,17.835c-2.799,1.333-5.717-3.874-6.54-12.317c-0.742-7.633-3.41-16.96-1.572-18.383
				C485.772,499.664,487.926,499.166,489.826,498.852z"/>
			<path fill="#F6DABA" d="M484.65,461.42l-5.631,3.17l-0.924-3.717c0,0-0.188,0.162-0.523,0.343
				c-0.734,0.418-2.161,0.902-4.021,0.04c-0.385-0.185-0.7-0.516-0.958-0.972c-0.422-0.765-0.689-1.82-0.851-2.979
				c-0.016-0.104-0.029-0.206-0.029-0.312c-0.369-2.955-0.063-6.306-0.063-6.306c-0.016-0.013-0.033-0.025-0.049-0.023l0.033-0.079
				c0,0,2.96-1.09,3.882,0.353c0.672,1.059,0.055,2.088,0.614,2.667c0.914,0.965,1.862-2.609,2.63-2.479
				c0.752,0.135,1.521,0.91,0.755,2.603c-1.088,2.384,3.785,2.776,3.785,2.776l0.073-0.01c-0.034,0.064-0.06,0.099-0.06,0.099
				L484.65,461.42z"/>
			<g>
				<path fill="#F6DABA" d="M457.939,492.866c6.056-1.746,1.611,27.272-0.62,33.16c-2.23,5.889-2.601,1.931-2.574-8.488
					C454.773,507.12,455.557,493.554,457.939,492.866z"/>
				<polygon fill="#F6DABA" points="453.839,522.194 453.933,530.022 457.075,529.8 458.629,521.439 				"/>
				<path fill="#242E36" d="M453.717,527.47c0,0-1.208,1.86-3.866,4.102c-2.656,2.243-3.403,1.825-3.427,2.611
					s11.484-0.475,11.484-0.475l-0.269-6.441C457.64,527.267,453.709,527.302,453.717,527.47z"/>
			</g>
			<g>
				<path fill="#F6DABA" d="M489.139,529.817c-2.502-5.864,26.806-3.447,32.95-1.743c6.146,1.702-5.108,1.85-15.485,2.729
					C496.226,531.683,490.123,532.124,489.139,529.817z"/>
				<polygon fill="#F6DABA" points="517.868,531.823 525.624,530.744 525.004,527.655 516.515,527.168 				"/>
				<path fill="#242E36" d="M523.313,531.298c0,0,1.655,1.156,3.853,3.85s1.768,3.433,2.554,3.469
					c0.787,0.037-0.286-11.488-0.286-11.488l-6.443,0.16C522.989,527.288,523.146,531.304,523.313,531.298z"/>
				<path fill="#151416" d="M518.316,532.821"/>
			</g>
			<linearGradient id="SVGID_15_" gradientUnits="userSpaceOnUse" x1="453.1699" y1="512.2891" x2="519.6621" y2="512.2891">
				<stop  offset="0" style="stop-color:#39A4DD"/>
				<stop  offset="1" style="stop-color:#3E73B9"/>
			</linearGradient>
			<path fill="url(#SVGID_15_)" d="M453.17,523.549l5.34,0.487l0.463,0.047l3.76-20.992c0,0,4.155,2.438,10.408,4.362
				c4.702,1.475,6.498,1.857,6.498,1.857s3.263,20.052,8.892,22.604c5.615,2.553,31.132-0.08,31.132-0.08l-0.266-4.852l-0.893-0.081
				l-22.328-2.03c0,0,0.453-4.711,0.639-10.862c0.036-1.032,0.057-2.1,0.07-3.202c0.023-2.658-0.232-4.781-0.581-6.405
				c-0.65-3.063-1.624-4.421-1.624-4.421l-3.028-1.463l-8.311-4.015l-4.49-2.17c0,0-4.988-0.708-10.479-0.777
				c-4.79-0.07-9.955,0.348-12.496,2.158C453.367,495.502,453.17,523.549,453.17,523.549z"/>
			<linearGradient id="SVGID_16_" gradientUnits="userSpaceOnUse" x1="485.082" y1="463.876" x2="485.082" y2="502.6888">
				<stop  offset="0.0618" style="stop-color:#E28425"/>
				<stop  offset="1" style="stop-color:#E05A26"/>
			</linearGradient>
			<path fill="url(#SVGID_16_)" d="M495.819,498.718c-0.281-4.462-0.664-9.138-1.226-13.576c-0.563-4.449-1.102-8.675-1.641-13.125
				c-0.359-2.979-0.877-6.226-3.046-8.485c-0.776-0.798-1.674-1.46-2.63-2.022c-0.302-0.168-2.663-1.551-2.887-1.337
				c-0.966,0.943-2.067,1.741-3.249,2.382c-0.594,0.327-1.214,0.597-1.844,0.832l-0.572,0.235
				c-2.494,2.023-4.111,10.609-4.202,13.183c-0.011,0.416-0.023,0.832-0.045,1.247c-0.033,0.675-0.067,1.349-0.111,2.012
				c-0.203,3.405-0.372,6.845,0.122,10.215c0.203,1.372,0.528,2.754,1.044,4.045c0.068,0.191,0.136,0.383,0.227,0.563
				c0.349,0.798,0.776,1.551,1.291,2.248c0.506,0.685,1.102,1.315,1.789,1.865c0.313,0.246,0.65,0.483,0.986,0.697
				c2.531,1.584,5.687,2.135,8.631,2.066c0.955-0.021,2.169,0.158,3.316,0.214c1.102,0.067,4.226-0.022,4.226-0.044
				C495.999,501.92,495.864,499.525,495.819,498.718z"/>
			<path fill="#F6DABA" d="M489.126,464.382c1.026,0.391,1.661,1.416,1.742,2.51c0.354,4.911,1.278,21.394-2.328,21.925
				c-4.235,0.626-4.184-14.047-3.632-18.295C485.369,466.982,486.65,463.437,489.126,464.382z"/>
			<path fill="#F6DABA" d="M488.204,486.157c-0.88-0.277-1.835-0.034-2.562,0.533c-3.588,2.8-16.506,13.046-16.001,14.977
				c0.583,2.24,19.886-11.679,19.825-12.906C489.423,487.805,489.618,486.604,488.204,486.157z"/>
			<path fill="#F6DABA" d="M471.399,498.766c0,0-1.289,1.755-4.233,1.098c-0.992-0.223-0.005,2.008,1.731,2.654
				c1.736,0.644,5.623-2.938,5.623-2.938L471.399,498.766z"/>
			<linearGradient id="SVGID_17_" gradientUnits="userSpaceOnUse" x1="479.9551" y1="495.3203" x2="491.5621" y2="469.5269">
				<stop  offset="0.0618" style="stop-color:#E28425"/>
				<stop  offset="1" style="stop-color:#E05A26"/>
			</linearGradient>
			<path fill="url(#SVGID_17_)" d="M490.826,464.19c-1.221-0.985-3.018-0.995-4.241-0.015c-1.122,0.897-2.278,2.743-2.432,6.533
				c-0.047,1.177-0.055,2.348-0.034,3.487c0.102,6.203,0.998,11.492,0.67,11.88c-0.394,0.46-12.445,11.67-12.445,11.67l1.896,2.576
				c0,0,15.04-7.865,16.61-11.475c1.567-3.611,1.921-11.908,1.7-17.089C492.383,467.843,492.37,465.438,490.826,464.19z"/>
			<path fill="none" stroke="#BC4A72" stroke-width="0.7178" stroke-miterlimit="10" d="M472.073,502.256"/>
			<path fill="#242E36" d="M483.966,450.234c-0.008-0.438-0.028-0.875-0.064-1.311c-0.12-1.567-0.555-3.339-1.95-4.065
				c-1.114-0.582-2.458-0.288-3.713-0.239c-2.007,0.078-1.291,0.665-2.918-0.508c-0.701-0.504-0.141,0.251-0.989,0.088
				c-1.138-0.219-1.688,0.098-2.359,1.043c-1.038,1.469-1.085,1.255-0.177,2.808c0.9,1.539-1.859,2.594-0.081,2.445
				c1.18-0.1,2.974-0.858,3.804,0.443c0.672,1.059,0.053,2.088,0.614,2.667c0.914,0.965,1.862-2.609,2.63-2.479
				c0.752,0.135,1.518,0.909,0.755,2.604c-0.813,1.78,1.752,2.47,3.007,2.672c0.477,0.076,0.528,0.141,0.786-0.233
				c0.37-0.543,0.375-1.796,0.461-2.44C483.925,452.571,483.989,451.402,483.966,450.234z"/>
			<path fill="#F6DABA" d="M475.75,500.023"/>
			<path fill="#F6DABA" d="M475.75,500.023"/>
			<path fill="#F6DABA" d="M299.867,491.936c-6.305-2.808-2.96,32.034-0.983,39.305c1.974,7.269,1.833-6.142,2.494-18.53
				C302.042,500.321,302.349,493.04,299.867,491.936z"/>
			<path fill="#F6DABA" d="M320.825,490.761c-6.248-2.738-4.392,32.183-2.604,39.414c1.786,7.232,2.567,2.576,3.564-9.787
				C322.78,508.022,323.286,491.838,320.825,490.761z"/>
			<polygon fill="#F6DABA" points="322.289,526.01 321.419,535.289 318.11,534.681 317.285,524.588 			"/>
			<polygon fill="#F6DABA" points="302.763,526.1 301.817,535.37 298.514,534.726 297.771,524.626 			"/>
			<path fill="#F6DABA" d="M309.323,460.535c-2.434,0.5-4.04,3.512-3.517,6.532c0.419,2.401,1.91,8.132,3.332,11.992
				c3.522,9.559,6.36,18.631,9.846,18.963c3.484,0.33,4.468-6.731,1.938-16.552c-2.286-8.877-3.221-20.461-5.73-21.291
				C313.921,459.758,311.45,460.098,309.323,460.535z"/>
			<path fill="#F6DABA" d="M301.716,459.647c-2.312-0.43-4.688,1.782-5.181,4.782c-0.393,2.388-0.888,8.265-0.852,12.377
				c0.086,10.184-0.275,19.664,2.703,21.252c2.978,1.59,6.087-4.616,6.961-14.679c0.792-9.094,3.635-20.209,1.677-21.905
				C306.032,460.616,303.739,460.023,301.716,459.647z"/>
			<path fill="#F6DABA" d="M308.068,418.665l5.996,3.375l0.986-3.957c0,0,0.198,0.172,0.555,0.364
				c0.781,0.445,2.302,0.961,4.28,0.043c0.408-0.197,0.744-0.548,1.021-1.036c0.447-0.813,0.734-1.936,0.906-3.171
				c0.016-0.109,0.031-0.219,0.031-0.329c0.393-3.147,0.064-6.716,0.064-6.716c0.019-0.013,0.037-0.026,0.053-0.024l-0.037-0.085
				c0,0-3.149-1.158-4.131,0.376c-0.717,1.128-0.058,2.224-0.654,2.841c-0.971,1.027-1.983-2.779-2.799-2.639
				c-0.802,0.142-1.619,0.967-0.804,2.77c1.158,2.537-4.03,2.957-4.03,2.957l-0.081-0.011c0.039,0.069,0.065,0.104,0.065,0.104
				L308.068,418.665z"/>
			<linearGradient id="SVGID_18_" gradientUnits="userSpaceOnUse" x1="295.1846" y1="494.9561" x2="324.0098" y2="494.9561">
				<stop  offset="0" style="stop-color:#39A4DD"/>
				<stop  offset="1" style="stop-color:#3E73B9"/>
			</linearGradient>
			<path fill="url(#SVGID_18_)" d="M317.548,459.766c0,0,6.17,28.391,6.436,35.827c0.266,7.438-1.591,33.9-1.591,33.9l-5.527-0.188
				c0,0-1.38-28.73-1.777-31.653c-0.398-2.921-7.771-17.792-7.771-17.792l-4.283,50.597c0,0-5.446,0.266-5.645,0.066
				c-0.2-0.199-5.701-68.819,1.469-71.209"/>
			<linearGradient id="SVGID_19_" gradientUnits="userSpaceOnUse" x1="303.9854" y1="426.0684" x2="309.6715" y2="454.9096">
				<stop  offset="0.0618" style="stop-color:#E28425"/>
				<stop  offset="1" style="stop-color:#E05A26"/>
			</linearGradient>
			<path fill="url(#SVGID_19_)" d="M318.847,435.054c-0.086-2.743-1.814-11.901-4.46-14.04l-0.619-0.254
				c-0.675-0.253-1.322-0.549-1.955-0.886c-1.266-0.689-2.435-1.534-3.46-2.533c-2.955,1.07-5.827,2.814-7.373,5.558
				c-0.69,1.237-1.07,2.604-1.294,4.011c-0.112,0.702-0.185,1.42-0.239,2.137c-0.269,1.226-0.479,2.42-0.648,3.616
				c-0.055,0.395-0.112,0.788-0.154,1.183c-0.577,4.951-1.379,10.522-1.52,15.573c-0.055,0.507-0.112,1.013-0.17,1.52
				c-0.125,1.295-0.111,2.589-0.083,3.883c0.013,0.774,0.013,1.591,0.058,2.364c0.025,0.563,0.055,1.153,0.182,1.702
				c0.07,0.366,0.294,1.394,0.745,1.478c0.549,0.084,2.223,0.211,2.772,0.281c0.533,0.07,1.07,0.141,1.604,0.196
				c4.868,0.479,9.792,0.226,14.574-0.76c0.269-0.056,0.55-0.126,0.747-0.309c0.183-0.198,0.24-0.479,0.281-0.746
				c0.323-1.8,0.563-3.587,0.745-5.36c0.182-1.87,0.31-3.729,0.38-5.586c0.016-0.182,0.016-0.352,0.016-0.533
				c0.041-1.056,0.055-2.125,0.055-3.194C319.045,441.301,318.945,438.22,318.847,435.054z"/>
			<path fill="#242E36" d="M321.966,532.514c0,0,1.031,2.11,3.627,5.064c2.598,2.952,3.429,2.538,3.376,3.474
				c-0.052,0.937-12.127-1.827-12.127-1.827l0.917-7.614C317.759,531.61,321.992,532.316,321.966,532.514z"/>
			<path fill="#242E36" d="M302.349,532.602c0,0,1.273,1.937,4.197,4.476c2.926,2.538,3.702,2.004,3.762,2.938
				c0.058,0.937-12.236,0-12.236,0v-7.681C298.071,532.335,302.349,532.401,302.349,532.602z"/>
			<path fill="#151416" d="M303.838,526.603"/>
			<g>
				<g>
					<path fill="#F6DABA" d="M302.953,422.547c-0.945,0.685-1.315,1.915-1.097,3.062c0.992,5.148,4.596,22.352,8.448,21.902
						c4.53-0.526,0.425-15.6-1.317-19.814C307.535,424.185,305.241,420.891,302.953,422.547z"/>
					<path fill="#F6DABA" d="M309.578,444.418c0.734-0.65,1.771-0.827,2.724-0.59c4.702,1.172,21.7,5.551,22.046,7.646
						c0.401,2.432-24.399-2.757-24.873-3.978C309.107,446.548,308.396,445.465,309.578,444.418z"/>
					<path fill="#F6DABA" d="M330.734,449.309c0,0,1.647-0.512,2.077-0.811c1-0.704,1.896-0.704,1.722,0.579
						c-0.026,0.181,1.991,0.269,2.431,0.297c0.44,0.03,3.313,0.298,0.281,1.954c-1.233,0.674-4.642,1.495-6.401,0.488"/>
				</g>
			</g>
			<path fill="#180F32" d="M323.108,406.804c-0.013,0.043-0.013,0.084-0.028,0.126v0.043c-0.406,0.07-0.828,0.098-1.236,0.056
				c-1.253-0.099-3.166-0.915-4.051,0.479c-0.045,0.057-0.07,0.127-0.115,0.184c-0.533,1.068,0.029,2.068-0.533,2.659
				c-0.972,1.027-1.984-2.786-2.799-2.646c-0.802,0.141-1.619,0.97-0.802,2.771c0.856,1.899-1.872,2.631-3.208,2.842
				c-0.508,0.085-0.564,0.155-0.846-0.239c-0.394-0.577-0.394-1.912-0.477-2.603c-0.169-1.238-0.239-2.476-0.211-3.714v-0.043
				c0-0.463,0.026-0.914,0.07-1.364c0.125-1.659,0.588-3.546,2.067-4.319c1.194-0.619,2.616-0.31,3.952-0.254
				c1.647,0.07,3.306-0.31,4.77-1.054C322.013,401.176,323.435,403.877,323.108,406.804z"/>
			<path fill="#F6DABA" d="M317.548,459.766"/>
			<path fill="#F6DABA" d="M317.548,459.766"/>
			<linearGradient id="SVGID_20_" gradientUnits="userSpaceOnUse" x1="319.1074" y1="448.6211" x2="307.1489" y2="423.5316">
				<stop  offset="0.0618" style="stop-color:#E28425"/>
				<stop  offset="1" style="stop-color:#E05A26"/>
			</linearGradient>
			<path fill="url(#SVGID_20_)" d="M302.231,422.942c1.05-1.297,2.921-1.707,4.413-0.959c1.367,0.685,2.983,2.347,3.985,6.26
				c2.005,7.827,2.245,14.176,2.755,14.566c0.511,0.392,16.709,5.234,16.709,5.234l-0.981,4.283c0,0-18.773-0.663-21.213-4.072
				c-2.437-3.409-4.853-11.605-5.777-17.048C301.425,427.094,300.901,424.587,302.231,422.942z"/>
		</g>
		<g>
			<g>
				<linearGradient id="SVGID_21_" gradientUnits="userSpaceOnUse" x1="470.4043" y1="446.3125" x2="484.625" y2="446.3125">
					<stop  offset="0.0618" style="stop-color:#E28425"/>
					<stop  offset="1" style="stop-color:#E05A26"/>
				</linearGradient>
				<path fill="url(#SVGID_21_)" d="M470.404,449.154c0,0.048,0,0.084,0.014,0.133c0,0.445,0.047,0.878,0.133,1.287h13.928
					c0.086-0.409,0.133-0.842,0.133-1.287c0.014-0.049,0.014-0.085,0.014-0.133c0-3.925-3.179-7.104-7.105-7.104
					C473.583,442.051,470.404,445.229,470.404,449.154z"/>
				<linearGradient id="SVGID_22_" gradientUnits="userSpaceOnUse" x1="469.2461" y1="449.9307" x2="485.7207" y2="449.9307">
					<stop  offset="0.0618" style="stop-color:#E28425"/>
					<stop  offset="1" style="stop-color:#E05A26"/>
				</linearGradient>
				<path fill="url(#SVGID_22_)" d="M469.246,449.925v0.012c0,0.349,0.284,0.638,0.656,0.638h15.162
					c0.357,0,0.656-0.289,0.656-0.638v-0.012c0-0.349-0.299-0.638-0.656-0.638h-15.162
					C469.53,449.287,469.246,449.576,469.246,449.925z"/>
			</g>
		</g>
		<g>
			<g>
				<linearGradient id="SVGID_23_" gradientUnits="userSpaceOnUse" x1="308.3496" y1="403.4248" x2="323.1553" y2="403.4248">
					<stop  offset="0.0618" style="stop-color:#E28425"/>
					<stop  offset="1" style="stop-color:#E05A26"/>
				</linearGradient>
				<path fill="url(#SVGID_23_)" d="M323.108,406.804c-0.013,0.043-0.013,0.084-0.028,0.126v0.043
					c-0.055,0.45-0.153,0.887-0.281,1.279l-5.121-0.562l-8.875-0.972l-0.425-0.041c-0.041-0.437-0.041-0.887,0.016-1.352
					c-0.016-0.056-0.016-0.085,0-0.141c0.451-4.065,4.093-6.991,8.173-6.543c1.141,0.128,2.194,0.508,3.096,1.085
					C322.013,401.176,323.435,403.877,323.108,406.804z"/>
				<linearGradient id="SVGID_24_" gradientUnits="userSpaceOnUse" x1="307.0986" y1="406.793" x2="324.1592" y2="406.793">
					<stop  offset="0.0618" style="stop-color:#E28425"/>
					<stop  offset="1" style="stop-color:#E05A26"/>
				</linearGradient>
				<path fill="url(#SVGID_24_)" d="M307.103,405.851v0.013c-0.042,0.362,0.222,0.693,0.606,0.736l15.691,1.722
					c0.372,0.04,0.713-0.226,0.752-0.586l0.003-0.013c0.039-0.36-0.237-0.694-0.606-0.734l-15.693-1.724
					C307.47,405.224,307.142,405.49,307.103,405.851z"/>
			</g>
		</g>
	</g>
	<g>
		<path fill="#F6DABA" d="M134.381,469.792l19.193-0.798l0.841-32.834l-1.325-8.246l-8.865-3.26l-5.709,1.09
			c-3.244,0.619-5.553,3.512-5.438,6.814l2.083,23.237L134.381,469.792z"/>
		<path fill="#F6DABA" d="M142.085,420.611v6.597c0,0,1.396,0.833,4.658,0.833c1.757,0,2.153-0.833,2.153-0.833v-2.439
			L142.085,420.611z"/>
		<path fill="#F6DABA" d="M141.317,415.684c0.016,0.24,0.023,0.464,0.039,0.68c0,0.077-0.008,0.153-0.008,0.238
			c-0.161,3.917,2.351,8.111,6.136,8.682c0,0,0.031,0.008,0.086,0.016c0.029,0,0.076,0.008,0.13,0.008
			c0.81,0.1,3.739,0.338,4.811-0.841c1.255-1.388,2.375-3.932,2.375-5.67s-0.317-2.148-0.317-2.851c0-0.548,0.294-2.261,0.299-3.004
			c0.026-3.495-2.325-6.963-6.503-6.963C142.095,405.979,141.14,411.476,141.317,415.684z"/>
		<path fill="#6FBAAE" d="M148.893,426.984"/>
		<g>
			<path fill="#F6DABA" d="M122.573,449.279c1.718,1.42,10.892-7.795,14.495-11.996c3.603-4.199,5.691-8.152,3.593-9.887
				c-2.096-1.733-5.587,1.062-9.034,5.391C128.18,437.115,120.856,447.858,122.573,449.279z"/>
			<g>
				<path fill="#F6DABA" d="M118.39,473.085c1.931,0.421,5.563-13.673,6.438-17.686s1.503-8.313-0.663-8.785
					c-2.164-0.473-3.385,3.698-4.259,7.71C119.029,458.338,116.459,472.663,118.39,473.085z"/>
				<g>
					<path fill="#E4ECF8" d="M126.486,482.742v14.667c0,1.874-1.519,3.394-3.395,3.394h-8.054c-1.875,0-3.395-1.52-3.395-3.394
						v-14.667H126.486z"/>
					<linearGradient id="SVGID_25_" gradientUnits="userSpaceOnUse" x1="111.6426" y1="486.7529" x2="126.4863" y2="486.7529">
						<stop  offset="0" style="stop-color:#32B6EA"/>
						<stop  offset="1" style="stop-color:#37C5EB"/>
					</linearGradient>
					<path fill="url(#SVGID_25_)" d="M126.486,482.742v1.449c-1.174,0.891-0.717,5.234-1.67,5.234c-1.065,0-0.451-4.73-1.638-4.73
						c-1.194,0,0.359,2.721-0.953,2.721c-1.313,0-0.995-2.775-1.712-2.775s0.014,6.123-1.181,6.123s-0.027-6.386-0.932-6.386
						c-0.903,0-0.172,2.562-1.284,2.562c-1.105,0-0.456-2.472-1.622-2.472c-1.168,0-0.091,3.853-1.341,3.853
						c-1.25,0-1.367-1.366-1.409-2.976c-0.027-1.056-0.669-1.879-1.104-2.319v-0.283H126.486z"/>
					<linearGradient id="SVGID_26_" gradientUnits="userSpaceOnUse" x1="111.7261" y1="482.8184" x2="126.4268" y2="482.8184">
						<stop  offset="0" style="stop-color:#32B6EA"/>
						<stop  offset="1" style="stop-color:#37C5EB"/>
					</linearGradient>
					<ellipse fill="url(#SVGID_26_)" cx="119.076" cy="482.818" rx="7.35" ry="0.647"/>
					<g>
						<path fill="#E4ECF8" d="M126.455,483.039h-0.336v-1.709c0-3.891-3.167-7.057-7.057-7.057c-3.892,0-7.058,3.166-7.058,7.057
							v1.709h-0.336v-1.709c0-4.075,3.317-7.393,7.394-7.393c4.076,0,7.393,3.317,7.393,7.393V483.039z"/>
					</g>
				</g>
				<path fill="#F6DABA" d="M119.287,469.427c-0.898-0.267-1.603,0.303-2.044,1.039c-0.463,0.774-0.713,1.677-0.901,2.554
					c-0.161,0.754-0.618,2.036,0.251,2.494c0.566,0.299,1.282,0.412,1.917,0.379c0.317-0.016,0.669-0.105,0.913-0.32
					c0.362-0.32,0.325-0.908,0.493-1.329c0.017-0.044,0.047-0.095,0.095-0.094c0.03,0,0.056,0.023,0.074,0.049
					c0.084,0.114,0.086,0.268,0.082,0.411c-0.015,0.591-0.331,1.48,0.095,1.99c0.758,0.903,1.202-1.216,1.262-1.587
					c0.155-0.959,0.235-2.045-0.009-2.996C121.15,470.609,120.69,469.844,119.287,469.427z"/>
			</g>
			<linearGradient id="SVGID_27_" gradientUnits="userSpaceOnUse" x1="125.4204" y1="435.7568" x2="142.5801" y2="435.7568">
				<stop  offset="0.0618" style="stop-color:#E28425"/>
				<stop  offset="1" style="stop-color:#E05A26"/>
			</linearGradient>
			<path fill="url(#SVGID_27_)" d="M125.42,440.888c0,0,9.664-17.353,15.832-13.981c6.167,3.373-11.144,18.136-11.144,18.136
				L125.42,440.888z"/>
		</g>
		<path fill="#F6DABA" d="M146.256,467.354c-1.914,0.725-2.979,3.761-2.333,6.585c0.516,2.247,1.422,5.132,3.012,8.507
			c3.976,8.425,7.05,19.69,9.87,19.65c2.819-0.041,3.754-7.028,0.992-16.13c-2.497-8.228-4.785-19.016-6.86-19.552
			C149.885,466.143,147.93,466.718,146.256,467.354z"/>
		<g>
			<path fill="#F6DABA" d="M157.734,500.299c-7.659-2.346-4.194,28.424-1.622,35.005c2.57,6.58,3.536-4.691,3.997-16.05
				C160.572,507.895,160.747,501.221,157.734,500.299z"/>
		</g>
		<path fill="#F6DABA" d="M154.118,527.062c0.088,0.117,0.641,10.228,0.641,10.228s4.879,0.348,4.879,0
			c0-0.349,0.38-9.124,0.38-9.124L154.118,527.062z"/>
		<path fill="#F6DABA" d="M136.881,527.062c0.086,0.117,0.64,10.228,0.64,10.228s4.879,0.348,4.879,0
			c0-0.349,0.377-9.124,0.377-9.124L136.881,527.062z"/>
		<path fill="#F6DABA" d="M136.938,467.22c-2.018,0.34-3.65,3.112-3.564,6.009c0.07,2.304,0.401,5.31,1.307,8.929
			c2.268,9.036,3.101,20.684,5.874,21.19c2.775,0.506,5.045-6.168,4.098-15.633c-0.854-8.555-1.007-19.582-2.939-20.51
			C140.734,466.735,138.703,466.921,136.938,467.22z"/>
		<g>
			<path fill="#F6DABA" d="M141.616,501.092c-7.532-2.729-5.431,28.181-3.194,34.884c2.239,6.701,3.583-4.514,4.613-15.834
				C144.069,508.82,144.579,502.164,141.616,501.092z"/>
		</g>
		<linearGradient id="SVGID_28_" gradientUnits="userSpaceOnUse" x1="131.1812" y1="498.125" x2="162.3789" y2="498.125">
			<stop  offset="0" style="stop-color:#39A4DD"/>
			<stop  offset="1" style="stop-color:#3E73B9"/>
		</linearGradient>
		<path fill="url(#SVGID_28_)" d="M154.553,467.368c0,0,7.979,28.82,7.823,34.862c-0.154,6.044-2.479,31.224-2.479,31.224
			s-6.74,0.813-6.74,0c0-0.813-1.161-30.1-1.627-32.656c-0.466-2.557-5.579-13.481-5.579-13.481s-0.232,12.552-0.232,16.038
			c0,3.487-3.137,29.866-3.137,29.866l-6.509,0.116c0,0-0.93-16.037-0.93-20.568c0-4.533,1.104-11.622,1.047-12.552
			c-0.058-0.93-8.833-23.707-3.023-32.539C140.81,456.064,154.553,467.368,154.553,467.368z"/>
		<linearGradient id="SVGID_29_" gradientUnits="userSpaceOnUse" x1="132.5835" y1="446.75" x2="156.627" y2="446.75">
			<stop  offset="0.0618" style="stop-color:#E28425"/>
			<stop  offset="1" style="stop-color:#E05A26"/>
		</linearGradient>
		<path fill="url(#SVGID_29_)" d="M153.688,427.695c1.333,1.236,2.372,3.401,2.622,7.83c0.073,1.237,0.986,4.635-0.672,8.774
			c-2.57,6.406,0.023,19.667,0.695,22.809c0.075,0.354-0.19,0.686-0.549,0.691l-22.078,0.383c-0.653,0.012-1.174-0.535-1.12-1.186
			c0.354-4.409,1.513-19.574,0.935-23.197c-2.05-12.832,0.016-16.963,3.593-17.965C142.47,424.333,152.355,426.457,153.688,427.695z
			"/>
		<g>
			<path fill="#F6DABA" d="M177.734,431.051c-0.011-2.21-12.854-3.348-18.341-3.426c-5.486-0.08-9.823,0.839-9.813,3.538
				c0.01,2.698,4.355,3.582,9.841,3.461C164.907,434.502,177.742,433.261,177.734,431.051z"/>
			<g>
				<g>
					<path fill="#242E36" d="M184.993,415.35L184.993,415.35c-0.817-0.194-1.323-1.015-1.13-1.832l8.729-36.78
						c0.192-0.817,1.013-1.322,1.83-1.13l0,0c0.817,0.195,1.323,1.015,1.13,1.832l-8.729,36.781
						C186.63,415.037,185.81,415.543,184.993,415.35z"/>
					<linearGradient id="SVGID_30_" gradientUnits="userSpaceOnUse" x1="194.4531" y1="373.085" x2="185.7272" y2="413.5413">
						<stop  offset="0.0618" style="stop-color:#E28425"/>
						<stop  offset="1" style="stop-color:#E05A26"/>
					</linearGradient>
					<path fill="url(#SVGID_30_)" d="M205.927,376.552c-0.195,0.819-0.701,1.478-1.367,1.882c-0.661,0.415-1.476,0.569-2.296,0.375
						l-17.342-4.115c-1.388-0.329-2.32-1.559-2.328-2.918c-0.005-0.242,0.021-0.496,0.078-0.742c0.195-0.82,0.7-1.476,1.359-1.882
						c0.146-0.092,0.289-0.164,0.445-0.226c0.568-0.241,1.216-0.301,1.849-0.151l17.344,4.115c0.921,0.219,1.648,0.846,2.02,1.642
						c0.06,0.094,0.099,0.192,0.128,0.289C206.023,375.352,206.067,375.951,205.927,376.552z"/>
					<linearGradient id="SVGID_31_" gradientUnits="userSpaceOnUse" x1="187.9512" y1="386.8594" x2="194.4128" y2="372.1931">
						<stop  offset="0.0618" style="stop-color:#E28425"/>
						<stop  offset="1" style="stop-color:#E05A26"/>
					</linearGradient>
					<path fill="url(#SVGID_31_)" d="M205.69,374.531c-0.682,0.473-1.028,2.149-1.781,1.971c-0.921-0.219,0.471-2.059-0.612-2.315
						c-1.08-0.257-0.716,2.91-1.757,2.664c-1.046-0.248-0.023-2.836-0.869-3.037c-0.844-0.2-0.472,1.994-1.479,1.757
						c-1.005-0.238,0.24-2.176-0.885-2.443c-1.125-0.266-1.042,3.906-2.481,3.565c-1.437-0.342,0.159-4.732-0.594-4.912
						c-0.752-0.177-1.067,2.096-1.939,1.891c-0.87-0.209-0.162-1.612-1.245-1.868c-1.083-0.257-0.833,2.678-2.025,2.396
						c-1.182-0.281-0.258-3.019-0.755-3.138c-0.508-0.119-0.409,1.19-0.94,1.063c-0.534-0.126-0.01-1.234-0.729-1.405
						c-0.71-0.168-1.236,2.386-1.921,2.225c-0.685-0.164,0.112-2.807-0.325-2.919c-0.438-0.121-0.563,1.313-1.497,1.708
						c-0.477,0.201-0.919,0.148-1.26,0.042c-0.005-0.242,0.021-0.496,0.078-0.742c0.195-0.82,0.7-1.476,1.359-1.882
						c0.146-0.092,0.289-0.164,0.445-0.226c0.568-0.241,1.216-0.301,1.849-0.151l17.344,4.115
						C204.591,373.108,205.318,373.735,205.69,374.531z"/>
				</g>
				<path fill="#F6DABA" d="M187.862,408.168c-1.718-0.942-9.123,11.444-11.083,15.016c-1.958,3.57-3.759,7.484-1.833,8.54
					c1.927,1.058,4.257-2.566,6.214-6.139C183.118,422.015,189.583,409.11,187.862,408.168z"/>
			</g>
			<linearGradient id="SVGID_32_" gradientUnits="userSpaceOnUse" x1="167.9736" y1="431.8135" x2="150.3176" y2="430.8265">
				<stop  offset="0.0618" style="stop-color:#E28425"/>
				<stop  offset="1" style="stop-color:#E05A26"/>
			</linearGradient>
			<path fill="url(#SVGID_32_)" d="M148.914,431.306c0,0-5.212-5.795,7.8-4.42c7.586,0.802,11.372,1.193,11.372,1.193l0.307,6.106
				C168.393,434.186,148.914,438.626,148.914,431.306z"/>
		</g>
		<path fill="#242E36" d="M156.092,410.781c-0.154,1.821-1.18,3.444-1.914,5.104c-0.856,1.94-0.911,3.916-0.823,5.998
			c0.049,1.152,0.013,2.33-0.414,3.416c-0.364,0.931-1.187,1.713-1.325,2.725c-0.185,1.338,0.859,2.761,1.146,4.054
			c0.284,1.282,0.479,2.57,0.344,3.888c-0.224,2.176-1.476,3.779-3.257,4.953c-1.89,1.245-3.801,2.563-5.342,4.233
			c-1.643,1.783-3.444,2.17-5.485,0.815c-1.586-1.054-2.916-2.711-4.884-3.045c-1.028-0.176-2.083-0.133-3.115-0.274
			c-2.978-0.41-5.343-3.717-3.794-6.605c0.667-1.243,2.048-1.838,2.836-2.984c1.321-1.922,0.899-4.334,0.853-6.519
			c-0.047-2.258,0.904-4.478,2.257-6.251c0.932-1.224,2.2-2.258,3.179-3.484c1.143-1.428,1.479-3.003,1.885-4.743
			c0.372-1.59,1.364-2.989,2.432-4.189c1.364-1.536,2.89-2.854,4.949-3.27c3.569-0.72,9.95,0.813,10.46,5.228
			C156.115,410.15,156.118,410.468,156.092,410.781z"/>
		<g>
			<g>
				<linearGradient id="SVGID_33_" gradientUnits="userSpaceOnUse" x1="137.7632" y1="405.8848" x2="156.7607" y2="405.8848">
					<stop  offset="0.0618" style="stop-color:#E28425"/>
					<stop  offset="1" style="stop-color:#E05A26"/>
				</linearGradient>
				<path fill="url(#SVGID_33_)" d="M137.763,409.682c0,0.063,0,0.112,0.016,0.177c0,0.595,0.065,1.175,0.177,1.722h18.612
					c0.115-0.547,0.177-1.127,0.177-1.722c0.016-0.064,0.016-0.113,0.016-0.177c0-5.245-4.246-9.491-9.49-9.491
					C142.01,400.19,137.763,404.437,137.763,409.682z"/>
				<linearGradient id="SVGID_34_" gradientUnits="userSpaceOnUse" x1="136.2144" y1="410.7188" x2="158.2266" y2="410.7188">
					<stop  offset="0.0618" style="stop-color:#E28425"/>
					<stop  offset="1" style="stop-color:#E05A26"/>
				</linearGradient>
				<path fill="url(#SVGID_34_)" d="M136.214,410.711v0.016c0,0.467,0.38,0.854,0.875,0.854h20.26c0.479,0,0.877-0.387,0.877-0.854
					v-0.016c0-0.467-0.398-0.853-0.877-0.853h-20.26C136.594,409.858,136.214,410.244,136.214,410.711z"/>
			</g>
		</g>
		<path fill="#35223F" d="M159.677,536.261c0,0,0.515,1.494,3.624,3.44c3.111,1.944,3.926,1.521,3.996,2.248
			s-12.926,0.129-12.926,0.129l0.203-5.983C154.574,536.095,159.677,536.104,159.677,536.261z"/>
		<path fill="#35223F" d="M142.439,536.098c0,0,0.591,1.255,2.684,3.283c1.851,1.792,3.486,1.408,3.335,2.049
			c-0.144,0.615-11.133,0.218-11.133,0.218v-5.55C137.326,536.098,142.442,536.101,142.439,536.098z"/>
		<path fill="#F6DABA" d="M184.717,411.021c0.484-0.522,0.393-1.332,0.325-2.04c-0.073-0.767-0.083-1.54-0.028-2.308
			c0.023-0.335,0.086-0.715,0.367-0.895c0.313-0.198,0.716-0.053,1.067,0.063c0.688,0.221,1.555,0.246,2.013-0.314
			c0.383-0.466,0.479-1.754,1.005-2.047c0.096-0.054,0.333-0.214,0.706,0.032c0.966,0.637,0.828,1.999,0.596,3.018
			c-0.364,1.599-0.786,2.698-2.296,3.845c-0.838,0.639-1.9,1.39-2.476,2.341"/>
	</g>
	<g>
		<path fill="#F6DABA" d="M304.054,202.933c-0.893-0.17-4.363,0.489-5.045,1.088c-2.935,2.579-8.298,8.912-8.056,14.238
			c0.297,6.527,2.771,7.616,2.771,12.264c0,4.648-1.781,13.945-1.781,15.132c0,1.187,19.089,0.692,19.484,0.198
			c0.396-0.495-0.216-34.73-1.385-38.078C308.892,204.475,307.829,203.656,304.054,202.933z"/>
		<path fill="none" stroke="#D5BB95" stroke-width="0.8786" stroke-miterlimit="10" d="M309.05,253.396
			c0.661,3.01-1.396,5.932-4.446,6.367c-2.43,0.346-5.718,0.449-9.933-0.174c-10.525-1.552-23.043-0.507-24.964-4.457
			c-1.921-3.949,3.866-8.557,14.173-9.016c9.315-0.413,20.846-2.332,22.783,0.309C307.642,247.762,308.472,250.761,309.05,253.396z"
			/>
		<path fill="none" stroke="#D5BB95" stroke-width="0.8786" stroke-miterlimit="10" d="M305.551,249.412
			c1.525,2.677,0.43,6.079-2.354,7.401c-2.215,1.053-5.324,2.128-9.533,2.789c-10.511,1.647-22.151,6.367-25.16,3.169
			c-3.01-3.199,1.146-9.321,10.852-12.823c8.771-3.165,19.208-8.425,21.843-6.48C302.531,244.453,304.216,247.07,305.551,249.412z"
			/>
		<path fill="none" stroke="#D5BB95" stroke-width="0.8904" stroke-miterlimit="10" d="M292.828,218.634"/>
		<path fill="#64A295" d="M306.97,203.329"/>
		<path fill="#F6DABA" d="M310.136,205.406"/>
		<g>
			<path fill="#F6DABA" d="M269.587,250.808c6.732-5.981,14.462,26.124,14.603,34.687c0.144,8.563-3.96,0.437-9.135-12.211
				C269.881,260.634,266.939,253.161,269.587,250.808z"/>
			<path fill="#0F1136" d="M281.659,287.379c0,0-0.492,1.354-1.877,3.361c-1.386,2.009-1.968,1.863-1.841,2.4
				c0.13,0.537,7.69-2.439,7.69-2.439l-1.525-4.265C284.106,286.437,281.625,287.266,281.659,287.379z"/>
		</g>
		<g>
			<path fill="#F6DABA" d="M269.667,257.345c8.821-1.824-0.505,29.856-4.655,37.347s-3.65-1.599-1.823-15.142
				C265.018,266.007,266.197,258.062,269.667,257.345z"/>
			<path fill="#0F1136" d="M261.88,295.061c0,0-1.104,0.928-3.306,1.977s-2.637,0.632-2.793,1.162
				c-0.154,0.529,7.883,1.724,7.883,1.724l0.807-4.456C264.471,295.467,261.904,294.945,261.88,295.061z"/>
		</g>
		<g>
			<path fill="#19101B" d="M289.482,245.333h-21.468l-9.159-19.678c-0.318-0.677-0.021-1.486,0.659-1.8
				c0.669-0.329,1.481-0.024,1.799,0.657l8.433,18.11h19.737c0.75,0,1.356,0.607,1.356,1.355S290.232,245.333,289.482,245.333z"/>
		</g>
		<g>
			<path fill="#F6DABA" d="M299.678,205.965c1.213,0.064,2.244,0.921,2.715,2.036c2.106,5.01,8.896,21.913,5.299,23.68
				c-4.229,2.078-9.354-13.263-10.273-17.885C296.652,209.944,296.743,205.811,299.678,205.965z"/>
			<g>
				<path fill="#F6DABA" d="M307.892,228.049c-0.878-0.714-2.091-0.852-3.192-0.509c-5.443,1.692-25.118,7.974-25.453,10.457
					c-0.389,2.882,28.354-4.875,28.867-6.339C308.511,230.518,309.305,229.198,307.892,228.049z"/>
				<path fill="#F6DABA" d="M282.021,237.031c-0.499-1.701-3.337-0.51-4.29-0.067c-1.552,0.721-2.822,2.737-2.549,3.358
					c0.276,0.621,3.713-1.229,3.895-1.141c0.18,0.089-1.403,1.15-1.085,1.706c0.318,0.557,2.595-0.577,3.325-1.381
					C282.044,238.703,282.333,238.098,282.021,237.031z"/>
			</g>
			<path fill="#C66E6D" d="M299.459,222.86c0,0-7.412-15.986-1.297-18.318c6.048-2.305,9.545,15.242,9.545,15.242L299.459,222.86z"
				/>
		</g>
		<g>
			<path fill="#242E36" d="M308.394,213.192c0.398,0.298,0.779,0.625,1.156,0.951c0.708,0.612,1.416,1.225,2.125,1.837
				c0.872,0.754,1.78,1.529,2.887,1.854c1.221,0.358,2.606,0.095,3.611-0.684c2.535-1.967,0.924-4.704,1.278-7.297
				c0.208-1.517,1.205-2.831,1.226-4.385c0.023-1.701-0.997-3.292-2.236-4.381c-1.604-1.409-3.59-2.074-5.29-3.315
				c-1.109-0.81-2.021-1.845-2.283-3.208c-0.289-1.503-0.144-3.128-0.867-4.524c-0.864-1.661-2.715-2.701-3.91-4.114
				c-1.369-1.621-2.89-3.322-4.785-4.33c-1.994-1.061-4.301-1.474-6.529-1.042c-1.341,0.26-0.323,1.347-1.361,2.234
				c-4.574,3.919-2.297,8.772-1.792,13.248c0.3,2.64-1.046,6.097,0.93,8.317c0.563,0.634,1.333,1,1.898,1.633
				c0.627,0.703,1.057,1.578,1.33,2.475c0.427,1.404,0.508,2.886,0.664,4.346c0.119,1.123,0.197,3.018,0.958,3.93
				c0.68,0.817,1.45-0.16,2.005-0.794c0.778-0.887,1.361-1.94,2.277-2.704c1.417-1.181,3.599-1.572,5.316-0.864
				C307.501,212.583,307.959,212.869,308.394,213.192z"/>
			
				<rect x="298.19" y="197.987" transform="matrix(-0.9621 0.2728 -0.2728 -0.9621 646.3174 314.782)" fill="#F6DABA" width="6.17" height="8.673"/>
			<path fill="#F6DABA" d="M297.949,201.555c0,0-4.176,1.595-5.137,0.377c-0.964-1.219-3.338-8.512-1.144-12.732
				c2.197-4.22,8.04-5.003,10.901-2.524s1.312,13.146-1.136,13.942C298.987,201.414,297.949,201.555,297.949,201.555z"/>
			<g>
				<path fill="#242E36" d="M308.6,201.662c0,0-1.729,0.512-4.923-1.382c-7.704-4.565-7.964-9.096-12.689-10.739
					c0,0-1.422-6.46,3.663-7.475c5.084-1.015,11.255,4.808,12.185,7.658C307.764,192.575,308.6,201.662,308.6,201.662z"/>
			</g>
			<g>
				<g>
					<linearGradient id="SVGID_35_" gradientUnits="userSpaceOnUse" x1="289.3076" y1="184.5557" x2="310.3076" y2="184.5557">
						<stop  offset="0.0618" style="stop-color:#E28425"/>
						<stop  offset="1" style="stop-color:#E05A26"/>
					</linearGradient>
					<path fill="url(#SVGID_35_)" d="M289.308,188.751c0,0.071,0,0.125,0.019,0.195c0,0.658,0.07,1.298,0.195,1.902h20.572
						c0.123-0.604,0.195-1.244,0.195-1.902c0.019-0.071,0.019-0.125,0.019-0.195c0-5.796-4.694-10.49-10.492-10.49
						C294.002,178.262,289.308,182.955,289.308,188.751z"/>
					<linearGradient id="SVGID_36_" gradientUnits="userSpaceOnUse" x1="287.5947" y1="189.8979" x2="311.9238" y2="189.8979">
						<stop  offset="0.0618" style="stop-color:#E28425"/>
						<stop  offset="1" style="stop-color:#E05A26"/>
					</linearGradient>
					<path fill="url(#SVGID_36_)" d="M287.595,189.889v0.018c0,0.516,0.422,0.942,0.969,0.942h22.393
						c0.531,0,0.968-0.426,0.968-0.942v-0.018c0-0.516-0.437-0.942-0.968-0.942h-22.393
						C288.017,188.947,287.595,189.374,287.595,189.889z"/>
				</g>
			</g>
		</g>
		<linearGradient id="SVGID_37_" gradientUnits="userSpaceOnUse" x1="290.2207" y1="224.666" x2="312.6914" y2="224.666">
			<stop  offset="0.0618" style="stop-color:#E28425"/>
			<stop  offset="1" style="stop-color:#E05A26"/>
		</linearGradient>
		<path fill="url(#SVGID_37_)" d="M302.466,202.245c0,0,5.132-0.022,7.399,4.688c2.96,6.155,3.022,38.827,2.689,39.495
			c-0.451,0.904-21.091,0.904-21.544-0.15c-0.45-1.055,3.051-13.86,1.921-18.267s-2.762-8.079-2.71-11.92
			C290.261,212.923,294.435,203.156,302.466,202.245z"/>
		<linearGradient id="SVGID_38_" gradientUnits="userSpaceOnUse" x1="260.73" y1="269.4023" x2="297.79" y2="269.4023">
			<stop  offset="0" style="stop-color:#39A4DD"/>
			<stop  offset="1" style="stop-color:#3E73B9"/>
		</linearGradient>
		<path fill="url(#SVGID_38_)" d="M291.011,246.277c0,0-19.997,5.122-23.387,9.867c-3.39,4.746-6.894,35.139-6.894,35.139
			l5.764,1.244c3.728-7.797,8.248-25.988,10.169-26.666c1.921-0.678,20.827-4.595,20.827-4.595l0.3-10.997L291.011,246.277z"/>
		<linearGradient id="SVGID_39_" gradientUnits="userSpaceOnUse" x1="267.4146" y1="265.2676" x2="313.1885" y2="265.2676">
			<stop  offset="0" style="stop-color:#39A4DD"/>
			<stop  offset="1" style="stop-color:#3E73B9"/>
		</linearGradient>
		<path fill="url(#SVGID_39_)" d="M290.898,245.75c-8.021-1.017-21.978-1.733-23.267,3.188
			c-2.127,8.125,12.082,36.584,12.082,36.584l4.858-1.695c-1.583-13.445-5.462-24.292-4.858-25.196
			c0.602-0.904,14.312,4.971,25.91,3.616c11.601-1.356,6.404-15.593,6.404-15.593L290.898,245.75z"/>
		<g>
			<path fill="#F6DABA" d="M304.768,205.97c1.283,0.067,2.374,0.974,2.871,2.155c2.234,5.304,9.42,23.197,5.613,25.068
				c-4.478,2.199-9.906-14.041-10.877-18.934C301.563,210.182,301.659,205.806,304.768,205.97z"/>
			<g>
				<path fill="#F6DABA" d="M313.463,229.349c-0.93-0.756-2.213-0.902-3.382-0.54c-5.762,1.791-26.589,8.441-26.943,11.069
					c-0.414,3.051,30.016-5.16,30.557-6.71C314.116,231.962,314.957,230.564,313.463,229.349z"/>
				<path fill="#F6DABA" d="M286.074,238.857c-0.528-1.801-3.532-0.54-4.543-0.071c-1.643,0.763-2.986,2.897-2.694,3.555
					c0.292,0.658,3.929-1.302,4.121-1.207c0.19,0.093-1.486,1.217-1.15,1.806c0.338,0.589,2.749-0.611,3.52-1.463
					C286.098,240.626,286.405,239.986,286.074,238.857z"/>
			</g>
			<linearGradient id="SVGID_40_" gradientUnits="userSpaceOnUse" x1="309.375" y1="224.2666" x2="304.92" y2="209.4945">
				<stop  offset="0.0618" style="stop-color:#E28425"/>
				<stop  offset="1" style="stop-color:#E05A26"/>
			</linearGradient>
			<path fill="url(#SVGID_40_)" d="M304.535,223.854c0,0-7.847-16.923-1.371-19.391c6.398-2.44,10.101,16.135,10.101,16.135
				L304.535,223.854z"/>
		</g>
	</g>
	<g>
		<g>
			<g>
				<rect x="409.825" y="511.586" fill="#242E36" width="11.882" height="3.599"/>
				<rect x="412.809" y="472.675" fill="#242E36" width="5.365" height="66.465"/>
			</g>
			<g>
				<rect x="371.652" y="511.586" fill="#242E36" width="11.883" height="3.599"/>
				<rect x="374.637" y="472.675" fill="#242E36" width="5.365" height="66.465"/>
			</g>
		</g>
		<g>
			<linearGradient id="SVGID_41_" gradientUnits="userSpaceOnUse" x1="363.4756" y1="486.8535" x2="429.8848" y2="486.8535">
				<stop  offset="0.0618" style="stop-color:#E28425"/>
				<stop  offset="1" style="stop-color:#E05A26"/>
			</linearGradient>
			<path fill="url(#SVGID_41_)" d="M429.885,481.567v10.572c0,0.8-0.648,1.447-1.448,1.447h-63.511c-0.802,0-1.45-0.647-1.45-1.447
				v-10.572c0-0.8,0.648-1.448,1.45-1.448h63.511C429.236,480.119,429.885,480.768,429.885,481.567z"/>
			<g>
				<g>
					<path fill="#FFFFFF" d="M378.036,480.119l-9.783,13.468h-3.327c-0.802,0-1.45-0.647-1.45-1.447v-0.891l8.086-11.13H378.036z"/>
				</g>
				<g>
					<polygon fill="#FFFFFF" points="391.262,480.119 381.479,493.587 375.004,493.587 384.787,480.119 					"/>
				</g>
				<g>
					<polygon fill="#FFFFFF" points="404.485,480.119 394.701,493.587 388.229,493.587 398.013,480.119 					"/>
				</g>
				<g>
					<g>
						<polygon fill="#FFFFFF" points="417.708,480.119 407.927,493.587 401.455,493.587 411.235,480.119 						"/>
					</g>
				</g>
				<g>
					<path fill="#FFFFFF" d="M429.885,481.567L429.885,481.567l-8.732,12.02h-6.473l9.781-13.468h3.976
						C429.236,480.119,429.885,480.768,429.885,481.567z"/>
				</g>
			</g>
		</g>
		<g>
			<linearGradient id="SVGID_42_" gradientUnits="userSpaceOnUse" x1="363.4756" y1="506.1133" x2="429.8848" y2="506.1133">
				<stop  offset="0.0618" style="stop-color:#E28425"/>
				<stop  offset="1" style="stop-color:#E05A26"/>
			</linearGradient>
			<path fill="url(#SVGID_42_)" d="M429.885,500.826v10.572c0,0.8-0.648,1.449-1.448,1.449h-63.511c-0.802,0-1.45-0.649-1.45-1.449
				v-10.572c0-0.799,0.648-1.447,1.45-1.447h63.511C429.236,499.379,429.885,500.027,429.885,500.826z"/>
			<g>
				<g>
					<path fill="#FFFFFF" d="M378.036,499.379l-9.783,13.469h-3.327c-0.802,0-1.45-0.649-1.45-1.449v-0.89l8.086-11.13H378.036z"/>
				</g>
				<g>
					<polygon fill="#FFFFFF" points="391.262,499.379 381.479,512.848 375.004,512.848 384.787,499.379 					"/>
				</g>
				<g>
					<polygon fill="#FFFFFF" points="404.485,499.379 394.701,512.848 388.229,512.848 398.013,499.379 					"/>
				</g>
				<g>
					<polygon fill="#FFFFFF" points="417.708,499.379 407.927,512.848 401.455,512.848 411.235,499.379 					"/>
				</g>
				<g>
					<path fill="#FFFFFF" d="M429.885,500.826L429.885,500.826l-8.732,12.021h-6.473l9.781-13.469h3.976
						C429.236,499.379,429.885,500.027,429.885,500.826z"/>
				</g>
			</g>
		</g>
		<g>
			<path fill="#242E36" d="M417.703,488.421v15.513c0,0.955-0.773,1.729-1.729,1.729h-38.588c-0.956,0-1.729-0.774-1.729-1.729
				v-15.513c0-0.956,0.772-1.73,1.729-1.73h38.588C416.93,486.69,417.703,487.465,417.703,488.421z"/>
			<path fill="none" stroke="#FFFFFF" stroke-width="0.2845" stroke-miterlimit="10" d="M415.839,489.234v13.886
				c0,0.524-0.425,0.948-0.948,0.948h-36.422c-0.523,0-0.947-0.424-0.947-0.948v-13.886c0-0.524,0.424-0.949,0.947-0.949h36.422
				C415.414,488.285,415.839,488.71,415.839,489.234z"/>
			<g>
				<path fill="#FFFFFF" d="M392.527,493.677c0,0.597-0.38,1.048-1.133,1.048c-0.752,0-1.13-0.43-1.13-1.048v-1.991h0.633v1.962
					c0,0.398,0.153,0.597,0.497,0.597c0.35,0,0.503-0.198,0.503-0.597v-1.962h0.63V493.677z"/>
				<path fill="#FFFFFF" d="M395.357,494.656h-0.813l-0.942-2.357c0.034,0.267,0.086,0.651,0.086,1.201v1.156h-0.573v-2.971h0.795
					l0.963,2.36c-0.031-0.202-0.086-0.613-0.086-1.057v-1.304h0.57V494.656z"/>
				<path fill="#FFFFFF" d="M398.294,493.157c0,1.198-0.729,1.499-1.461,1.499h-0.849v-2.971h0.776
					C397.547,491.686,398.294,491.929,398.294,493.157z M396.615,492.148v2.044h0.257c0.436,0,0.766-0.201,0.766-1.035
					c0-0.85-0.349-1.009-0.778-1.009H396.615z"/>
				<path fill="#FFFFFF" d="M400.479,492.145h-1.073v0.772h0.938v0.455h-0.938v0.82h1.151v0.464h-1.781v-2.971h1.773
					L400.479,492.145z"/>
				<path fill="#FFFFFF" d="M401.993,493.492h-0.32v1.164h-0.632v-2.971h0.927c0.796,0,1.2,0.287,1.2,0.888
					c0,0.396-0.195,0.631-0.589,0.803l0.769,1.28h-0.716L401.993,493.492z M401.673,493.046h0.331c0.331,0,0.511-0.137,0.511-0.473
					c0-0.305-0.178-0.438-0.558-0.438h-0.284V493.046z"/>
				<path fill="#FFFFFF" d="M384.037,497.09l-0.314,0.365c-0.167-0.137-0.339-0.21-0.542-0.21c-0.398,0-0.689,0.3-0.689,1.072
					c0,0.747,0.283,1.06,0.695,1.06c0.244,0,0.421-0.106,0.593-0.239l0.292,0.366c-0.19,0.192-0.503,0.373-0.911,0.373
					c-0.794,0-1.336-0.545-1.336-1.56c0-0.999,0.576-1.549,1.323-1.549C383.535,496.769,383.787,496.883,384.037,497.09z"/>
				<path fill="#FFFFFF" d="M386.831,498.323c0,0.974-0.503,1.554-1.317,1.554s-1.322-0.563-1.322-1.554
					c0-0.972,0.508-1.555,1.322-1.555S386.831,497.326,386.831,498.323z M384.857,498.323c0,0.775,0.245,1.081,0.656,1.081
					c0.424,0,0.653-0.306,0.653-1.081c0-0.778-0.229-1.083-0.653-1.083C385.092,497.24,384.857,497.545,384.857,498.323z"/>
				<path fill="#FFFFFF" d="M389.549,499.809h-0.813l-0.944-2.357c0.036,0.266,0.086,0.651,0.086,1.201v1.156h-0.57v-2.973h0.794
					l0.963,2.361c-0.031-0.201-0.086-0.612-0.086-1.056v-1.306h0.57V499.809z"/>
				<path fill="#FFFFFF" d="M392.082,497.141l-0.302,0.35c-0.208-0.172-0.417-0.25-0.656-0.25c-0.258,0-0.432,0.111-0.432,0.321
					c0,0.207,0.111,0.293,0.596,0.442c0.536,0.172,0.88,0.396,0.88,0.945c0,0.545-0.43,0.928-1.15,0.928
					c-0.495,0-0.854-0.177-1.099-0.418l0.32-0.356c0.219,0.185,0.455,0.298,0.76,0.298s0.513-0.146,0.513-0.408
					c0-0.235-0.117-0.34-0.567-0.477c-0.643-0.202-0.9-0.46-0.9-0.91c0-0.508,0.438-0.837,1.038-0.837
					C391.522,496.769,391.824,496.9,392.082,497.141z"/>
				<path fill="#FFFFFF" d="M394.412,497.33h-0.75v2.479h-0.632v-2.479h-0.789v-0.494h2.241L394.412,497.33z"/>
				<path fill="#FFFFFF" d="M395.758,498.645h-0.322v1.164h-0.633v-2.973h0.93c0.794,0,1.197,0.288,1.197,0.89
					c0,0.396-0.195,0.631-0.588,0.803l0.768,1.28h-0.716L395.758,498.645z M395.436,498.196h0.33c0.331,0,0.511-0.137,0.511-0.471
					c0-0.305-0.177-0.438-0.558-0.438h-0.283V498.196z"/>
				<path fill="#FFFFFF" d="M399.624,498.828c0,0.598-0.383,1.049-1.132,1.049c-0.753,0-1.13-0.431-1.13-1.049v-1.992h0.632v1.962
					c0,0.399,0.154,0.598,0.498,0.598c0.346,0,0.502-0.198,0.502-0.598v-1.962h0.63V498.828z"/>
				<path fill="#FFFFFF" d="M402.274,497.09l-0.314,0.365c-0.167-0.137-0.339-0.21-0.542-0.21c-0.398,0-0.689,0.3-0.689,1.072
					c0,0.747,0.283,1.06,0.695,1.06c0.244,0,0.421-0.106,0.593-0.239l0.292,0.366c-0.19,0.192-0.503,0.373-0.911,0.373
					c-0.794,0-1.336-0.545-1.336-1.56c0-0.999,0.575-1.549,1.323-1.549C401.772,496.769,402.024,496.883,402.274,497.09z"/>
				<path fill="#FFFFFF" d="M404.524,497.33h-0.753v2.479h-0.63v-2.479h-0.791v-0.494h2.241L404.524,497.33z"/>
				<path fill="#FFFFFF" d="M405.545,499.809h-0.63v-2.973h0.63V499.809z"/>
				<path fill="#FFFFFF" d="M408.666,498.323c0,0.974-0.502,1.554-1.317,1.554c-0.817,0-1.322-0.563-1.322-1.554
					c0-0.972,0.505-1.555,1.322-1.555C408.164,496.769,408.666,497.326,408.666,498.323z M406.69,498.323
					c0,0.775,0.244,1.081,0.658,1.081c0.425,0,0.651-0.306,0.651-1.081c0-0.778-0.227-1.083-0.651-1.083
					C406.927,497.24,406.69,497.545,406.69,498.323z"/>
				<path fill="#FFFFFF" d="M411.384,499.809h-0.812l-0.945-2.357c0.036,0.266,0.086,0.651,0.086,1.201v1.156h-0.57v-2.973h0.794
					l0.961,2.361c-0.028-0.201-0.086-0.612-0.086-1.056v-1.306h0.572V499.809z"/>
			</g>
		</g>
	</g>
</g>
<g>
	<g>
		<g>
			<g>
				<path fill="#E2F3FC" d="M394.91,98.08l-2.939-0.29l-2.561-0.25l-15.62-1.53l-6.899-0.68l-0.051-0.01h-0.01l-8.051-0.79
					l-0.469-0.05l-10.131-0.99l-75.52-7.41c-2.26-0.21-4.27,1.44-4.5,3.69l-3.76,38.42c-0.22,2.26,1.43,4.27,3.69,4.49l48.051,4.71
					l13.56,1.33l60.64,5.95c2.26,0.23,4.27-1.43,4.49-3.69l3.41-34.82l0.359-3.6C398.82,100.31,397.17,98.3,394.91,98.08z
					 M327.391,92.83c1.43,0,2.58,1.16,2.58,2.6c0,1.42-1.15,2.58-2.58,2.58c-1.431,0-2.591-1.16-2.591-2.58
					C324.8,93.99,325.96,92.83,327.391,92.83z"/>
				<path fill="#6072B6" d="M394.906,98.079L272.658,86.082c-2.257-0.213-4.271,1.434-4.494,3.69l-0.346,3.6l130.423,12.79h0.01
					l0.346-3.599C398.82,100.305,397.174,98.302,394.906,98.079z M327.387,98.007c-1.424,0-2.582-1.159-2.582-2.582
					c0-1.434,1.158-2.593,2.582-2.593c1.434,0,2.582,1.159,2.582,2.593C329.969,96.849,328.82,98.007,327.387,98.007z"/>
			</g>
			<g>
				<circle fill="#FFFFFF" cx="376.293" cy="100.41" r="1.374"/>
				<circle fill="#FFFFFF" cx="384.406" cy="101.206" r="1.374"/>
				<circle fill="#FFFFFF" cx="392.52" cy="102.002" r="1.374"/>
			</g>
		</g>
		<g>
			<circle fill="#6072B6" cx="289.207" cy="115.58" r="11.571"/>
			<radialGradient id="SVGID_43_" cx="288.1904" cy="114.563" r="11.5723" gradientUnits="userSpaceOnUse">
				<stop  offset="0" style="stop-color:#FCCC36"/>
				<stop  offset="1" style="stop-color:#F5BB27"/>
			</radialGradient>
			<circle fill="url(#SVGID_43_)" cx="288.191" cy="114.563" r="11.571"/>
			<g>
				<path fill="#6072B6" d="M325.554,116.319l-7.867-0.786c-0.786-0.079-1.36-0.78-1.282-1.567l0.005-0.047
					c0.079-0.787,0.78-1.361,1.566-1.282l7.868,0.786c0.786,0.079,1.359,0.78,1.281,1.566l-0.004,0.048
					C327.042,115.824,326.34,116.397,325.554,116.319z"/>
				<path fill="#6072B6" d="M373.921,121.151l-42.622-4.258c-0.787-0.079-1.361-0.78-1.282-1.567l0.005-0.047
					c0.078-0.787,0.779-1.361,1.566-1.282l42.622,4.258c0.786,0.079,1.36,0.78,1.282,1.567l-0.005,0.047
					C375.408,120.655,374.707,121.229,373.921,121.151z"/>
				<path fill="#6072B6" d="M336.517,123.703l-19.452-1.943c-0.787-0.078-1.361-0.78-1.282-1.566l0.005-0.047
					c0.078-0.787,0.779-1.361,1.566-1.282l19.453,1.943c0.786,0.079,1.359,0.78,1.281,1.566l-0.004,0.048
					C338.005,123.208,337.303,123.782,336.517,123.703z"/>
				<path fill="#6072B6" d="M384.884,128.535l-42.622-4.258c-0.787-0.079-1.361-0.78-1.282-1.567l0.005-0.047
					c0.078-0.787,0.779-1.361,1.566-1.282l42.622,4.258c0.786,0.079,1.36,0.78,1.282,1.566l-0.005,0.048
					C386.371,128.04,385.67,128.613,384.884,128.535z"/>
			</g>
			<g>
				<path fill="#7B86C1" d="M324.537,115.302l-7.867-0.786c-0.787-0.079-1.361-0.78-1.282-1.567l0.005-0.047
					c0.078-0.787,0.779-1.361,1.566-1.282l7.867,0.786c0.787,0.079,1.361,0.78,1.282,1.566l-0.005,0.048
					C326.025,114.807,325.324,115.381,324.537,115.302z"/>
				<path fill="#7B86C1" d="M372.904,120.134l-42.622-4.258c-0.787-0.079-1.36-0.78-1.282-1.566l0.005-0.047
					c0.079-0.787,0.78-1.361,1.566-1.282l42.622,4.258c0.787,0.079,1.361,0.78,1.282,1.566l-0.005,0.048
					C374.393,119.639,373.691,120.212,372.904,120.134z"/>
				<path fill="#7B86C1" d="M335.5,122.687l-19.453-1.943c-0.785-0.079-1.359-0.78-1.281-1.566l0.005-0.048
					c0.079-0.787,0.78-1.36,1.566-1.282l19.452,1.943c0.787,0.079,1.361,0.78,1.282,1.567l-0.005,0.047
					C336.988,122.191,336.287,122.765,335.5,122.687z"/>
				<path fill="#7B86C1" d="M383.867,127.518l-42.623-4.258c-0.786-0.079-1.359-0.78-1.281-1.566l0.005-0.048
					c0.078-0.787,0.78-1.36,1.566-1.282l42.622,4.258c0.787,0.079,1.361,0.78,1.282,1.566l-0.005,0.048
					C385.355,127.023,384.654,127.597,383.867,127.518z"/>
			</g>
		</g>
	</g>
</g>
</svg>
