<svg xmlns="http://www.w3.org/2000/svg" viewBox="0 0 628.58 472.17"><defs><style>.cls-1,.cls-15{fill:#ef4223;}.cls-1{opacity:0.1;}.cls-2{fill:#085e37;}.cls-3{fill:#fdbb92;}.cls-4{fill:#fd967d;}.cls-5{fill:#002029;}.cls-6{fill:#173953;}.cls-7{fill:#354adb;}.cls-8{fill:#fff;}.cls-9{fill:#2a5b74;}.cls-10{fill:#3263ff;}.cls-11{fill:#0f8754;}.cls-12{opacity:0.3;}.cls-13{fill:#5a95ff;}.cls-14{fill:#ff988a;}.cls-16{fill:#ddd6ff;}</style></defs><title>our work</title><g id="Layer_2" data-name="Layer 2"><g id="OBJECTS"><path class="cls-1" d="M15.11,472.17s-45.68-61.92,21.8-118.35C64,331.14,169.49,315.17,80.82,188.66,28.68,114.28,104.41,5.93,225.29,74.73,328.16,133.28,399.71,8.61,490.79.33,560.08-6,601.74,79.47,560,145.9c-46.9,74.53,42.52,62,61.95,86.69,34.23,43.44-76.84,95-25.89,150.18,51.89,56.19,16.3,89.4,16.3,89.4Z"/><path class="cls-2" d="M166.79,193.4A99.32,99.32,0,0,1,154,207.54a87.19,87.19,0,0,1-15.87,11.38,7.23,7.23,0,0,1-7.27-.1l-.82-.5L99,199.68A10.32,10.32,0,0,1,109.64,182a12.07,12.07,0,0,1,1.08.74l24.94,19.7a73.68,73.68,0,0,0,9.55-5.71,86.1,86.1,0,0,0,12.55-10.95l0,0a5.92,5.92,0,0,1,9,7.65Z"/><path class="cls-3" d="M171.32,188.1h0l-.24.06s-.1.18-.28.47c-.89,1.41-3.78,5.4-7.21,4.06-.27-.1-.53-.22-.78-.34s-.53-.29-.78-.45a11.45,11.45,0,0,1-4.21-5s-.82-7,2-8.7c1.64-1,2.6-.7,3.11-.3a1.72,1.72,0,0,1,.51.64l.42-.52c1.5-1.87,6.6-8.13,7.86-8.27,1.48-.15-3.75,8.74-3.75,8.74s1.24-.38,3.8,2.18S175.27,187.06,171.32,188.1Z"/><path class="cls-4" d="M167.08,184.45a.37.37,0,0,1-.36-.31.36.36,0,0,1,.3-.41s1-.23,2.09-2a.37.37,0,0,1,.63.37c-1.25,2.14-2.55,2.37-2.61,2.38Z"/><path class="cls-4" d="M168.68,186.84a.36.36,0,0,1-.35-.27.36.36,0,0,1,.25-.45,4.27,4.27,0,0,0,2.53-2.18.37.37,0,0,1,.48-.19.37.37,0,0,1,.19.48,4.94,4.94,0,0,1-3,2.59Z"/><path class="cls-4" d="M165.4,182.22a2,2,0,0,1-1.56.51,15.77,15.77,0,0,1-4.55-1,.38.38,0,0,1-.22-.47.37.37,0,0,1,.47-.22c1.83.68,4.78,1.39,5.29.75.18-.22,0-.74-.41-1.43l-1.48-2.43a1.72,1.72,0,0,1,.51.64l.42-.52,1.17,1.92C165.28,180.31,166,181.47,165.4,182.22Z"/><path class="cls-4" d="M171.31,188.1l-.24.06s-.1.18-.28.47c-6-3.51-4.4-8.61-4.38-8.66a.36.36,0,0,1,.46-.23.37.37,0,0,1,.23.46C167,180.4,165.64,184.9,171.31,188.1Z"/><polygon class="cls-5" points="83.98 326.21 76 446.73 89.1 445.92 117.41 295.58 86.58 296.63 83.98 326.21"/><path class="cls-3" d="M76.92,445.88,76,457.34a15.75,15.75,0,0,0,10,1.22L87.9,445Z"/><path class="cls-6" d="M90.82,443.48a11.44,11.44,0,0,1-.53,7l-15.7-.74a18,18,0,0,1-.14-6.9Z"/><path class="cls-7" d="M113.3,470.47c-.85,1.81-38.18-.13-38.18-.13s-1.18-11.09,0-14.5,6.61.42,10.34-.44c0,0,2.23-3.09,4-3,.66,0,3,1.55,6,3.49l1.47,1c.35.24.71.47,1.07.7l1.77,1.16.67.43h0c.54.36,1.09.7,1.63,1,3.27,2,6.37,3.76,8.16,4.08C115,465.12,114.16,468.65,113.3,470.47Z"/><path class="cls-8" d="M99.76,458.72a3.4,3.4,0,0,0-2,.4,9,9,0,0,0-2.89,3.15.65.65,0,0,1-.38.31.66.66,0,0,1-.53-.05.67.67,0,0,1-.26-.91,10.26,10.26,0,0,1,3.44-3.69,5.1,5.1,0,0,1,.89-.37C99,457.65,99.79,457.87,99.76,458.72Z"/><path class="cls-8" d="M96.92,456.86a3.74,3.74,0,0,0-1.23.4,9,9,0,0,0-2.88,3.15.7.7,0,0,1-.39.31.63.63,0,0,1-.52-.05.66.66,0,0,1-.27-.91,10.36,10.36,0,0,1,3.44-3.69l.38-.17C96.08,456,96.78,455.91,96.92,456.86Z"/><path class="cls-8" d="M102.07,460.19a3.48,3.48,0,0,0-1.62.42,9.26,9.26,0,0,0-2.89,3.15.63.63,0,0,1-.38.32.68.68,0,0,1-.79-1,10.26,10.26,0,0,1,3.44-3.68,6.37,6.37,0,0,1,.6-.28h0C101.5,459.05,102.13,459.32,102.07,460.19Z"/><path class="cls-6" d="M46.41,447.19l11.66.53L88,377.11l6.13-76.44-27.36-4.16-1.52-.23-4.57-.7c2,16.34,4.85,74.12,4.85,74.12a253.85,253.85,0,0,0-9,26.14C52.48,410.05,46.41,447.19,46.41,447.19Z"/><path class="cls-5" d="M49,446.42h.13a.74.74,0,0,0,.74-.61c.07-.39,7.12-39.14,11.31-51.44,2.75-8.1,9.67-24.29,9.74-24.45a.66.66,0,0,0,.06-.34l-4.27-73.08-1.52-.23,4.29,73.22c-.74,1.73-7.1,16.68-9.72,24.39-4.22,12.41-11.29,51.27-11.37,51.66A.75.75,0,0,0,49,446.42Z"/><path class="cls-3" d="M48.07,445.68l-3.38,11.66a15.78,15.78,0,0,0,10,1.22l3.37-13.67Z"/><path class="cls-9" d="M61.26,444.43c.58,2.8.41,4.87-1.72,6.58l-16.4-1a11.2,11.2,0,0,1,.57-6.68Z"/><path class="cls-10" d="M81.28,470.47c-.85,1.81-38.19-.13-38.19-.13s-1.18-11.09,0-14.5,6.61.42,10.34-.44c0,0,2.24-3.09,4-3,.67,0,3,1.55,6,3.49l1.48,1,1.06.7,1.77,1.16.68.43h0c.54.36,1.09.7,1.63,1,3.28,2,6.37,3.76,8.17,4.08C83,465.12,82.13,468.65,81.28,470.47Z"/><path class="cls-8" d="M67.73,458.72a3.41,3.41,0,0,0-2,.4,9.2,9.2,0,0,0-2.89,3.15.65.65,0,0,1-.38.31.66.66,0,0,1-.53-.05.67.67,0,0,1-.26-.91,10.26,10.26,0,0,1,3.44-3.69,5.1,5.1,0,0,1,.89-.37C66.94,457.65,67.76,457.87,67.73,458.72Z"/><path class="cls-8" d="M64.9,456.86a3.71,3.71,0,0,0-1.24.4,9.1,9.1,0,0,0-2.88,3.15.7.7,0,0,1-.39.31.64.64,0,0,1-.52-.05.66.66,0,0,1-.26-.91A10.2,10.2,0,0,1,63,456.07l.38-.17C64.05,456,64.75,455.91,64.9,456.86Z"/><path class="cls-8" d="M70,460.19a3.48,3.48,0,0,0-1.62.42,9.08,9.08,0,0,0-2.88,3.15.68.68,0,0,1-.39.32.68.68,0,0,1-.79-1,10.36,10.36,0,0,1,3.44-3.68,5.51,5.51,0,0,1,.61-.28h0C69.47,459.05,70.1,459.32,70,460.19Z"/><path class="cls-11" d="M115.35,300.67c-5.8,3-44.12,2.46-52.7-2.44C60,296.72,58.78,287,58.41,273.88c0-.59,0-1.19,0-1.79,0-2.4-.08-4.9-.08-7.47v-.78c0-1.14,0-2.29,0-3.45,0-.94,0-1.9,0-2.86,0-1.17,0-2.36.06-3.54,0-.22,0-.44,0-.66,0-.55,0-1.1,0-1.65s0-.94,0-1.41l0-1.23,0-1.16c.06-2.07.13-4.15.21-6.22l.06-1.82c.13-3.15.27-6.27.42-9.33,0-.26,0-.52,0-.78l.12-2.19c0-.31,0-.63,0-.94s0-.68.05-1,0-.87.08-1.3,0-.68,0-1l.06-.94c0-.8.09-1.58.14-2.36,0-.26,0-.52,0-.77.85-13.59,1.82-24.36,2.36-27.48,1.75-10.17,26.29-20.28,26.29-20.28L99.64,175c.65.21,1.28.45,1.9.72.39.17.78.35,1.15.54a21.28,21.28,0,0,1,11.55,21.19c-.37,3.6-.53,7.57-.55,11.68v2.05c0,2,0,3.95.1,5.92,0,.68,0,1.35,0,2,0,0,0,.05,0,.08l0,1,0,.94c0,.34,0,.68,0,1q.06,1.62.12,3.21c0,.32,0,.64,0,1,0,.87.07,1.74.11,2.58,0,.33,0,.65,0,1,.06,1.49.12,2.94.16,4.34,0,.41,0,.82,0,1.22l0,1.11q0,.58,0,1.14c0,2,.06,3.82,0,5.44,0,.17,0,.34,0,.5,0,.51,0,1,0,1.57,0,2.13,0,4.48.19,7l.06,1c0,.31,0,.61,0,.92s0,.66.07,1c.06.79.11,1.6.18,2.42,0,.4.07.8.1,1.21a.57.57,0,0,0,0,.13V259c0,.3,0,.61.08.92,0,0,0,.08,0,.12l.15,1.74c0,.26,0,.52.07.78.07.8.15,1.6.22,2.41l.42,4.35C117.55,284.32,118.94,298.79,115.35,300.67Z"/><path class="cls-2" d="M103.25,282a43.14,43.14,0,0,1-19.91-5.31,50.7,50.7,0,0,1-10.65-7.42.62.62,0,0,1,0-.88.63.63,0,0,1,.89,0A50.82,50.82,0,0,0,84,275.62c5.83,3.08,14.89,6.4,24.91,4.66a.62.62,0,0,1,.72.51.63.63,0,0,1-.51.73A34.58,34.58,0,0,1,103.25,282Z"/><path class="cls-2" d="M92,198.42a.63.63,0,0,1-.16-1.23c.1,0,9.64-2.73,14.38-11.68a.62.62,0,1,1,1.1.58c-5,9.45-14.74,12.2-15.15,12.31Z"/><path class="cls-2" d="M76.81,240.52a.64.64,0,0,1-.58-.38c-6.07-14,2.26-39.68,2.62-40.77a.62.62,0,0,1,.79-.39.62.62,0,0,1,.39.78c-.08.27-8.53,26.34-2.65,39.89a.63.63,0,0,1-.32.82A.74.74,0,0,1,76.81,240.52Z"/><path class="cls-2" d="M78.1,204.83a.6.6,0,0,1-.52-.29.61.61,0,0,1,.18-.86l4.68-3a.62.62,0,0,1,.67,1.05l-4.67,3A.61.61,0,0,1,78.1,204.83Z"/><path class="cls-2" d="M58.44,251.68c1.7,3.37,3.47,6.35,4.81,7.36.3.22.92.68,4.86,1,3.68.34,10.23.59,22.1.49,7.49-.06,19.9-.41,25-.56,0,0,0-.08,0-.12,0-.31,0-.62-.08-.92-18.81.56-49,.74-51.18-.9-1.4-1.05-3.51-4.89-5.48-9Z"/><path class="cls-11" d="M62.28,189.18l-.25.6-.2.5-.38,1c-.25.64-.48,1.27-.71,1.91-.45,1.26-.87,2.52-1.27,3.78-.8,2.53-1.51,5.07-2.13,7.65a101,101,0,0,0-2.55,15.87,73.28,73.28,0,0,0,.56,16.68,57.34,57.34,0,0,0,2,8.49c.44,1.41,1,2.81,1.53,4.19s1.23,2.75,1.93,4.09h0l.48.83a8.36,8.36,0,0,0,7.26,4.19c4.79,0,9.54,0,14.3-.09s9.53-.11,14.29-.2c9.53-.17,22.76-2.08,32.33-2.51,1.44-.22,1.67-1,1.54-4.06a5.49,5.49,0,0,0-5-5.22h0c-9.35-.9-18.72-2-28.09-3.16-4.69-.58-9.37-1.19-14-1.8s-9.38-1.25-14-1.9l7.73,5h0a34,34,0,0,1-3.45-10.78,53.67,53.67,0,0,1-.39-12.34A81.18,81.18,0,0,1,75.81,209c.51-2.14,1.11-4.27,1.77-6.36.33-1.05.68-2.09,1-3.11.18-.51.37-1,.56-1.51l.28-.72.24-.58.12-.3a9.5,9.5,0,0,0-17.55-7.28Z"/><path class="cls-2" d="M68.43,244.85a.61.61,0,0,0,.41-.16S74.29,240,79.47,241a.63.63,0,0,0,.74-.49.62.62,0,0,0-.49-.73c-5.8-1.15-11.47,3.78-11.71,4a.62.62,0,0,0-.05.88A.61.61,0,0,0,68.43,244.85Z"/><path class="cls-2" d="M74.61,241.39a.62.62,0,0,0,.51-.26.62.62,0,0,0-.14-.87c-2.08-1.52-6.08-1.84-6.24-1.85a.62.62,0,1,0-.1,1.24s3.81.31,5.61,1.62A.62.62,0,0,0,74.61,241.39Z"/><path class="cls-5" d="M115.33,148s3.81-.24,5.77-7.09c2.32-8.07-6.58-1.9-13.31-2.7s-16.64-.19-20,5.48-1,12-1,12Z"/><path class="cls-3" d="M89.42,174.9s-1.81-1.68-2.66-2.58c2-2.47,5.86-8,6.28-13.51L106.94,169s-.36.66-1,1.73l-.1.18a.05.05,0,0,0,0,0c-.45.75-1,1.68-1.66,2.71-.24.37-.48.76-.75,1.16s-.47.72-.72,1.08a54.28,54.28,0,0,1-4.11,5.38C95.47,179.86,89.42,174.9,89.42,174.9Z"/><path class="cls-4" d="M106,170.68l-.1.18a.05.05,0,0,0,0,0c-.45.75-1,1.68-1.66,2.71-.24.37-.48.76-.75,1.16s-.47.72-.72,1.08c-1.42-3-1.61-7.73-1.65-7.83Z"/><path class="cls-3" d="M88.65,158.87A44.76,44.76,0,0,0,94,163.73c6.55,5.23,15.49,10.58,18.07,11,1.91.33,3.29-.75,4.16-4.07.13-.52.26-1,.38-1.61l.59-3.4c.06-.39.11-.8.16-1.21,1-.13,3-.49,2.69-1.08-.36-.74-2.23-4.37-2.3-4.52h0a35.58,35.58,0,0,0-.54-7.35,7.12,7.12,0,0,0-.79-2.12,7.2,7.2,0,0,0-3.57-3.09c-4.61-1.85-13.3-5-18.06-4.23C88.07,143.07,83.22,152.76,88.65,158.87Z"/><path class="cls-4" d="M107.67,161.83c0,.82,1.22,1.55,2.82,1.63s2.93-.52,3-1.34-1.22-1.54-2.82-1.62S107.71,161,107.67,161.83Z"/><path class="cls-5" d="M117.33,164.45s-4.57-2-7.62-.46-3.59-1.44-3-3.27,0-5.89,0-5.89l-1.3.08s.35,5.87-1.68,7.3-1.15,9.31,1.81,11.46,7.09,4,9.6,2.14S117.33,164.45,117.33,164.45Z"/><path class="cls-9" d="M115.09,168.32h.21a.37.37,0,0,0,.35-.37.35.35,0,0,0-.37-.35,2.79,2.79,0,0,1-2.39-1.57.36.36,0,0,0-.48-.17.36.36,0,0,0-.17.48A3.53,3.53,0,0,0,115.09,168.32Z"/><path class="cls-5" d="M115.7,157.6c0,.67-.22,1.23-.59,1.25s-.7-.49-.74-1.16.22-1.23.59-1.25S115.66,156.94,115.7,157.6Z"/><path class="cls-5" d="M112.06,156.31a.73.73,0,0,1-.25-.08.59.59,0,0,1-.2-.8,4,4,0,0,1,4.62-1.82.58.58,0,1,1-.36,1.1A2.89,2.89,0,0,0,112.6,156,.59.59,0,0,1,112.06,156.31Z"/><path class="cls-4" d="M102.85,159.86a.4.4,0,0,1-.36-.36,6.76,6.76,0,0,0-2.23-4.27.4.4,0,0,1-.06-.56.39.39,0,0,1,.56-.07,7.38,7.38,0,0,1,2.53,4.82.41.41,0,0,1-.36.44Z"/><path class="cls-4" d="M99.91,157.68a.39.39,0,0,1-.33-.24.4.4,0,0,1,.21-.53,4.55,4.55,0,0,1,2.45-.33.4.4,0,0,1,.28.49.39.39,0,0,1-.49.29,3.58,3.58,0,0,0-1.92.29A.34.34,0,0,1,99.91,157.68Z"/><path class="cls-5" d="M94.75,142.05c4.76-.73,13.45,2.38,18.06,4.23a7.26,7.26,0,0,1,2.52,1.69,23.66,23.66,0,0,1-4.28-1c-1.07,1.45-2.53,2.67-3.94,2.67-.08,1.78-.35,3.41-.44,5.23a6.35,6.35,0,0,1-1.3.08s-2.86-5.13-7.05-2.17c-2.39,1.68-1.82,4.87-.09,7.17-1,2.52-2.77,3.91-4.26,3.82a44.76,44.76,0,0,1-5.32-4.86C83.22,152.76,88.07,143.07,94.75,142.05Z"/><path class="cls-8" d="M115.92,152.14c-1.29-.14-2.56,2-2.88,4.91s.44,5.27,1.74,5.42,2.48-1.88,2.85-4.64l0-.27a2,2,0,0,0,0-.23C117.94,154.54,117.18,152.28,115.92,152.14ZM114.83,162c-.86-.09-1.6-2.12-1.3-4.87s1.48-4.56,2.34-4.47,1.59,2,1.31,4.76c0,0,0,.07,0,.12l-.06.48C116.72,160.5,115.66,162.07,114.83,162Z"/><path class="cls-8" d="M118.13,158.05a.24.24,0,0,1-.34-.06.48.48,0,0,0-.16-.16l-.08,0a.57.57,0,0,0-.3.12.21.21,0,0,1-.14.07l.06-.48s0-.09,0-.12a.71.71,0,0,1,.42-.08l.08,0a.82.82,0,0,1,.52.38A.24.24,0,0,1,118.13,158.05Z"/><path class="cls-8" d="M113.38,156.32l-6.65-.93c0,.17,0,.34.08.51l6.51.91h0a.26.26,0,0,0,.28-.21A.25.25,0,0,0,113.38,156.32Z"/><rect class="cls-6" x="111.64" y="245.51" width="51.68" height="4.61"/><polygon class="cls-6" points="176.4 204.2 159.25 248.54 163.33 250.12 181.01 204.2 176.4 204.2"/><path class="cls-3" d="M142,251.71a11.8,11.8,0,0,1-1.78,1.3c-2.87,1.76-7.95,4-13.55,2.73a15.57,15.57,0,0,1-8.6-5.6s.59-3.52,2.74-4.3c1.83-.67.52,2.22,1,3.13s7.14,1.25,11.07.85a45.43,45.43,0,0,1,6.3-.16l.81,0,1.32.09a1,1,0,0,1,.58.21,1.09,1.09,0,0,1,.07,1.72Z"/><path class="cls-4" d="M142.28,250.39a14.17,14.17,0,0,1-5.88,3.28h-.07a.26.26,0,0,1-.08-.51,13.61,13.61,0,0,0,5.69-3.18A1.1,1.1,0,0,1,142.28,250.39Z"/><path class="cls-4" d="M140,249.69a15.22,15.22,0,0,1-5.32,2.77h-.08a.26.26,0,0,1-.25-.18.26.26,0,0,1,.17-.32,15.51,15.51,0,0,0,4.67-2.31Z"/><path class="cls-8" d="M498.52,132.54V342.77a7.17,7.17,0,0,1-7.16,7.16H397.47a7.17,7.17,0,0,1-7.16-7.16V132.54a5.34,5.34,0,0,1,5.34-5.33h97.53A5.34,5.34,0,0,1,498.52,132.54Z"/><g class="cls-12"><path class="cls-13" d="M482.32,253.33H410.23a2.37,2.37,0,0,1-2.37-2.38h0a2.37,2.37,0,0,1,2.37-2.37h72.09a2.37,2.37,0,0,1,2.37,2.37h0A2.37,2.37,0,0,1,482.32,253.33Z"/></g><g class="cls-12"><path class="cls-13" d="M482.32,268.41H410.23a2.38,2.38,0,0,1-2.37-2.38h0a2.38,2.38,0,0,1,2.37-2.38h72.09a2.38,2.38,0,0,1,2.37,2.38h0A2.38,2.38,0,0,1,482.32,268.41Z"/></g><g class="cls-12"><path class="cls-13" d="M482.32,283.48H410.23a2.37,2.37,0,0,1-2.37-2.37h0a2.37,2.37,0,0,1,2.37-2.38h72.09a2.37,2.37,0,0,1,2.37,2.38h0A2.37,2.37,0,0,1,482.32,283.48Z"/></g><g class="cls-12"><path class="cls-13" d="M482.32,298.56H410.23a2.37,2.37,0,0,1-2.37-2.38h0a2.37,2.37,0,0,1,2.37-2.37h72.09a2.37,2.37,0,0,1,2.37,2.37h0A2.37,2.37,0,0,1,482.32,298.56Z"/></g><g class="cls-12"><path class="cls-13" d="M482.32,313.64H410.23a2.38,2.38,0,0,1-2.37-2.38h0a2.38,2.38,0,0,1,2.37-2.38h72.09a2.38,2.38,0,0,1,2.37,2.38h0A2.38,2.38,0,0,1,482.32,313.64Z"/></g><g class="cls-12"><path class="cls-13" d="M482.32,328.72H410.23a2.38,2.38,0,0,1-2.37-2.38h0a2.38,2.38,0,0,1,2.37-2.38h72.09a2.38,2.38,0,0,1,2.37,2.38h0A2.38,2.38,0,0,1,482.32,328.72Z"/></g><g class="cls-12"><path class="cls-13" d="M498.52,132.54v14.8H390.31v-14.8a5.34,5.34,0,0,1,5.34-5.33h97.53A5.34,5.34,0,0,1,498.52,132.54Z"/></g><path class="cls-14" d="M472.32,136.3a3.52,3.52,0,1,1-3.52-3.51A3.52,3.52,0,0,1,472.32,136.3Z"/><path class="cls-15" d="M483.72,136.3a3.52,3.52,0,1,1-3.52-3.51A3.52,3.52,0,0,1,483.72,136.3Z"/><path class="cls-15" d="M494.64,136.3a3.52,3.52,0,1,1-3.52-3.51A3.52,3.52,0,0,1,494.64,136.3Z"/><path class="cls-15" d="M474.27,176a35.57,35.57,0,0,0-27.18-12.61H446c-.59,0-1.19.05-1.78.1l-.35,0-.52,0-.38,0-.48.06-.45.06-.54.08-.37.06-.34.06-.31.06-.43.08-.52.11-.48.11q-.78.18-1.56.39l-.36.11c-.47.14-.94.28-1.41.44s-.92.32-1.38.5-.91.35-1.36.55l-.44.2-.44.2c-.15.06-.3.14-.44.21l-.39.18-.08.05c-.28.13-.56.28-.83.42l-.33.18c-.18.09-.35.19-.52.29l-.42.24-.41.25c-.29.17-.57.35-.85.53-.79.51-1.57,1.05-2.32,1.62l0,0c-.64.49-1.26,1-1.86,1.52l-.37.32-.7.65-.35.34-.34.33-.67.69-.33.35-.64.72-.32.36c-.1.13-.2.25-.31.37l-.34.42-.49.62a35.66,35.66,0,0,0,27.09,57.33l1.22,0A35.65,35.65,0,0,0,474.27,176Zm-25.76,48.26c-.47,0-.95,0-1.42,0A25.27,25.27,0,0,1,421.85,199a25,25,0,0,1,3.26-12.38,23.84,23.84,0,0,1,1.35-2.13q.44-.61.9-1.2a25.23,25.23,0,1,1,21.15,40.91Z"/><path class="cls-16" d="M448.51,224.24l-2.64,10.45a35.66,35.66,0,0,1-27.09-57.33c.27-.35.55-.7.83-1l6.85,8.21a25.22,25.22,0,0,0,20.63,39.75C447.56,224.28,448,224.26,448.51,224.24Z"/><path class="cls-14" d="M474.27,176l-5.67,9.88a25.21,25.21,0,0,0-41.24-2.53q-.47.58-.9,1.2a23.84,23.84,0,0,0-1.35,2.13l-6.33-9.3.49-.62.34-.42c.11-.12.21-.24.31-.37l.32-.36.64-.72.33-.35.67-.69.34-.33.35-.34.7-.65.37-.32c.6-.53,1.22-1,1.86-1.52l0,0c.75-.57,1.53-1.11,2.32-1.62.28-.18.56-.36.85-.53l.41-.25.42-.24c.17-.1.34-.2.52-.29l.33-.18c.27-.15.55-.29.83-.42l.08-.05.39-.18c.14-.07.29-.15.44-.21l.44-.2.44-.2c.45-.2.9-.38,1.36-.55s.92-.35,1.38-.5.94-.31,1.41-.44l.36-.11q.78-.21,1.56-.39l.48-.11.52-.11.43-.08.31-.06.34-.06.37-.06.54-.08.45-.06.48-.06.38,0,.52,0,.35,0c.59-.05,1.19-.08,1.78-.1h1.08A35.57,35.57,0,0,1,474.27,176Z"/><path class="cls-5" d="M519.65,208.56c-3.74-1.29-.18-16.82,1.17-19.12,3.84-6.55-1-16-1-16,3-.88,10.65,3.76,12.33,13.26.63,3.57.23,8.78-.78,14.11C527.21,199.77,523.85,209.38,519.65,208.56Z"/><path class="cls-7" d="M529.88,192.46a9.38,9.38,0,0,0-9.53,9.21s0,.06,0,.1l0,.13,0,.27-.11.55-.23,1.11c-.15.75-.32,1.5-.49,2.26q-.51,2.25-1.08,4.5c-.77,3-1.62,5.93-2.57,8.78a64.57,64.57,0,0,1-3.21,8,27.08,27.08,0,0,1-1.81,3.17c-.3.43-.59.8-.81,1.06s-.38.39-.33.41h0l-.05,0-.09.05a2.33,2.33,0,0,1-.5.2,10.09,10.09,0,0,1-1.54.39,30.52,30.52,0,0,1-4,.43c-1.43.08-2.92.09-4.43.06l-.55,0v13.3c1.61.19,3.24.33,4.93.41a44.56,44.56,0,0,0,5.75-.07,28.16,28.16,0,0,0,3.27-.46,17.21,17.21,0,0,0,1.83-.48l.49-.16.24-.08.12,0,.14-.05.6-.26.3-.13.27-.13a17.1,17.1,0,0,0,3.6-2.45,24.79,24.79,0,0,0,2.51-2.52,41.81,41.81,0,0,0,3.58-4.94,80,80,0,0,0,5-9.67c1.43-3.21,2.69-6.42,3.87-9.65q.87-2.41,1.68-4.86c.26-.81.53-1.63.79-2.45l.38-1.25.19-.63.2-.69.44-1.53a9.38,9.38,0,0,0-8.86-11.92Z"/><path class="cls-5" d="M573.5,297.33l5.55,71.84s8.87,9.89,14.29,31c2.95,11.5,11.83,36.58,11.83,36.58L594.3,441s-30.15-55.21-33.66-68.08-19-67.09-19-67.09Z"/><path class="cls-3" d="M603,434.55l4.73,10.14a17.17,17.17,0,0,1-8.51,5.65l-5.06-12.19Z"/><path class="cls-6" d="M590.83,437.11a11,11,0,0,0,3,6.06l13.69-6.42a17.3,17.3,0,0,0-2.41-6.18Z"/><path class="cls-15" d="M584.91,471.24l16.61-.05c.3-.08.68-.42,1.49-1.25l13-13.42a1.79,1.79,0,0,0,.29-2.1c-1.5-2.72-5.24-9.37-6.9-10.93-2.09-2-3.51-.54-3.51-.54s-3.56,4.59-5.37,3.81c-2.13-.92-4-1.68-4.41,2.88a31.51,31.51,0,0,1-2.76,9.71s-2.19,3.76-5.26,5.27C582.71,467.26,584.91,471.24,584.91,471.24Z"/><path class="cls-8" d="M594.28,456.42a3.34,3.34,0,0,1,1.68-1.11,8.67,8.67,0,0,1,4.1.21.59.59,0,0,0,.47,0,.66.66,0,0,0,.33-.38.65.65,0,0,0-.44-.81,10,10,0,0,0-4.84-.2,4.18,4.18,0,0,0-.86.35C594.1,455.14,593.69,455.85,594.28,456.42Z"/><path class="cls-8" d="M595,453.23a3.3,3.3,0,0,1,1.11-.56,8.64,8.64,0,0,1,4.1.21.62.62,0,0,0,.48-.05.6.6,0,0,0,.32-.39.64.64,0,0,0-.43-.8,10,10,0,0,0-4.85-.21l-.38.14C594.94,452,594.43,452.48,595,453.23Z"/><path class="cls-8" d="M593.69,459a3.29,3.29,0,0,1,1.4-.8,8.64,8.64,0,0,1,4.1.21.66.66,0,0,0,.48-.05A.6.6,0,0,0,600,458a.64.64,0,0,0-.43-.8,10,10,0,0,0-4.85-.21,5.33,5.33,0,0,0-.6.23h0C593.31,457.81,593.06,458.43,593.69,459Z"/><path class="cls-6" d="M560.13,299.86c0,4.31-29.79,64-28,71.94.57,17.72-12.44,77.67-14.24,76.74h-9.46l1.19-81.84,13.81-65.85S545,294.3,560.13,299.86Z"/><path class="cls-5" d="M515.29,447.6a.72.72,0,0,0,.71-.6c.07-.41,7.08-41.68,9.21-51.17,2.1-9.34,2.4-26.89,2.43-28.5,3-10.61,28.22-67.07,28.47-67.64a.72.72,0,0,0-1.32-.59c-1,2.34-25.7,57.45-28.57,67.93a1.08,1.08,0,0,0,0,.19c0,.18-.26,18.86-2.39,28.29s-9.15,50.84-9.22,51.25a.71.71,0,0,0,.59.83Z"/><path class="cls-3" d="M517.11,447.64l-.33,11.18a17.16,17.16,0,0,1-10.14,1.23l1-13.17Z"/><path class="cls-9" d="M505.12,444.47a11,11,0,0,0,0,6.78l15.11.42a17.2,17.2,0,0,0,.63-6.61Z"/><path class="cls-15" d="M482.59,471c.82,1.74,36.74-.13,36.74-.13s1.14-10.66,0-13.95-6.36.41-10-.42c0,0-2.15-3-3.89-2.87-.65,0-2.9,1.49-5.73,3.35l-1.42.93-1,.67-1.71,1.12-.65.41h0l-1.57,1c-3.15,2-6.13,3.62-7.85,3.92C480.93,465.87,481.77,469.27,482.59,471Z"/><path class="cls-8" d="M495.62,459.72a3.3,3.3,0,0,1,2,.38,8.76,8.76,0,0,1,2.77,3,.68.68,0,0,0,.37.3.65.65,0,0,0,.51-.05.63.63,0,0,0,.25-.87,9.75,9.75,0,0,0-3.3-3.55,6.62,6.62,0,0,0-.86-.36C496.38,458.68,495.6,458.89,495.62,459.72Z"/><path class="cls-8" d="M498.35,457.93a3.63,3.63,0,0,1,1.19.38,8.85,8.85,0,0,1,2.77,3,.61.61,0,0,0,.37.3.65.65,0,0,0,.51-.05.64.64,0,0,0,.25-.87,9.81,9.81,0,0,0-3.31-3.55l-.36-.17C499.17,457.05,498.49,457,498.35,457.93Z"/><path class="cls-8" d="M493.4,461.13a3.33,3.33,0,0,1,1.56.41,8.83,8.83,0,0,1,2.78,3,.6.6,0,0,0,.37.31.63.63,0,0,0,.5-.05.66.66,0,0,0,.26-.88,10,10,0,0,0-3.31-3.54,6.07,6.07,0,0,0-.59-.27h0C494,460,493.34,460.29,493.4,461.13Z"/><path class="cls-10" d="M517.93,303.23c1.44,3.68,8.5,4.94,20.35,1.09s31.13-2.18,35.22-7c2.41-2.85,3.64-10.83.59-23.17-.23-.94-.47-1.89-.7-2.84-.31-1.23-.62-2.47-.92-3.71l-.69-2.83c-.31-1.27-.61-2.52-.89-3.75-.22-1-.44-1.92-.64-2.85-.65-3-1.2-5.8-1.57-8.31a86.26,86.26,0,0,1-.3-17.47h0c.45-7.34,1.21-14.49.71-20.64h0a25.73,25.73,0,0,0-2.09-8.82c-3.09-6.6-10.11-12-15.42-15.28a19.94,19.94,0,0,0-13.87-2.76c-6.59,1.1-14.22,11-15.42,14.77-.82,2.62-1.26,4.72-1.38,11.17-.16,8.39-.3,15.86,1,24.56h0l.12.81c.91,5.86.17,15.92-1,26.53l-.12,1.08a2.46,2.46,0,0,1,0,.26l-.3,2.65c-.15,1.28-.3,2.57-.44,3.85-.12,1-.23,1.94-.35,2.91-.15,1.28-.3,2.55-.45,3.8-.12,1-.23,1.95-.34,2.9C517.75,291.18,516.84,300.42,517.93,303.23Z"/><path class="cls-7" d="M524.15,286.86a.64.64,0,0,1-.62-.5.62.62,0,0,1,.49-.73c.15,0,15.48-3.38,23.06-17.81a.63.63,0,0,1,1.11.59,36.46,36.46,0,0,1-14.93,14.89,35.4,35.4,0,0,1-9,3.55Z"/><path class="cls-8" d="M532.17,205.34a2.68,2.68,0,0,1-2.54-1.94c-1.58-4,.78-12.89,4.29-16.16l.51.55c-3.27,3.05-5.57,11.64-4.1,15.34a1.93,1.93,0,0,0,1.84,1.46h0c7.72-.07,13.84-17.4,13.9-17.57l.71.24c-.26.74-6.36,18-14.6,18.08Z"/><path class="cls-7" d="M520.91,264.09a54.16,54.16,0,0,0,7.78,4.44,4.6,4.6,0,0,0,1.69.3,12,12,0,0,0,5.16-1.56c10.14-5.52,17.56-15.52,22-22.94,5.22-8.71,8-16.5,8.42-18.72a.6.6,0,1,0-1.17-.24c-.45,2.15-3.14,9.76-8.28,18.35-4.36,7.28-11.64,17.1-21.55,22.49-.87.48-3.89,2-5.82,1.21a57.79,57.79,0,0,1-8.09-4.67l-.12,1.08A2.46,2.46,0,0,1,520.91,264.09Z"/><path class="cls-7" d="M534.77,242.6a.64.64,0,0,0,.49-.23c6.93-9.08,11.11-22.72,11.16-22.86a.61.61,0,0,0-.41-.75.6.6,0,0,0-.75.4c0,.14-4.16,13.58-11,22.48a.59.59,0,0,0,.47,1Z"/><path class="cls-3" d="M526.48,180.5s.32.67.89,1.75l.09.19,0,0c.41.77.92,1.72,1.52,2.76.22.38.45.78.69,1.18s.43.73.67,1.11a43.26,43.26,0,0,0,5.69,7.61c5.87-2.21,9.89-5.12,11.28-9,0,0-6.41-7.69-6.65-15Z"/><path class="cls-4" d="M527.37,182.25l.09.19,0,0c.41.77.92,1.72,1.52,2.76.22.38.45.78.69,1.18s.43.73.67,1.11c1.53-2.91,1.94-7.58,2-7.68Z"/><path class="cls-3" d="M516.94,180.17c.1.56.2,1.1.3,1.61.71,3.33,2,4.45,3.93,4.22,3.41-.42,18.21-8.85,23.86-14.65s1.29-15.6-5.28-16.92c-4.68-.93-13.41,1.75-18,3.37a7.07,7.07,0,0,0-4.55,5,34.77,34.77,0,0,0-.87,7.24h0c-.08.14-2.1,3.66-2.49,4.37s1.68,1,2.62,1.19c0,.4.06.81.1,1.21Z"/><path class="cls-4" d="M518.25,179.23a3.63,3.63,0,0,0,2.77-1.52.36.36,0,0,0-.09-.5.37.37,0,0,0-.51.09,2.78,2.78,0,0,1-2.61,1.16.38.38,0,0,0-.42.3.36.36,0,0,0,.29.41A2.91,2.91,0,0,0,518.25,179.23Z"/><path class="cls-4" d="M520.81,174.68c.18.8,1.6,1.15,3.16.79s2.68-1.3,2.49-2.09-1.6-1.15-3.16-.79S520.63,173.89,520.81,174.68Z"/><path class="cls-5" d="M518.33,168.88c-.08.66.16,1.22.52,1.26s.72-.46.79-1.12-.16-1.22-.53-1.26S518.4,168.22,518.33,168.88Z"/><path class="cls-5" d="M522,167.76a.47.47,0,0,0,.25-.07.57.57,0,0,0,.23-.77,4,4,0,0,0-4.48-2,.57.57,0,0,0-.41.7.59.59,0,0,0,.71.4,2.85,2.85,0,0,1,3.17,1.45A.58.58,0,0,0,522,167.76Z"/><path class="cls-4" d="M530.94,171.69a.4.4,0,0,0,.37-.34,6.69,6.69,0,0,1,2.39-4.12.4.4,0,0,0,.1-.55.41.41,0,0,0-.56-.1,7.39,7.39,0,0,0-2.72,4.65.4.4,0,0,0,.34.45Z"/><path class="cls-4" d="M533.94,169.67a.41.41,0,0,0,.34-.23.4.4,0,0,0-.18-.53,4.39,4.39,0,0,0-2.41-.43.39.39,0,0,0-.3.47.4.4,0,0,0,.47.31,3.58,3.58,0,0,1,1.89.37A.43.43,0,0,0,533.94,169.67Z"/><path class="cls-5" d="M517.56,161.56c2.26,2.23,7,5.13,11.1,5.12,0,0,3.07-4.94,7.08-1.83s-1.19,10.43-5.49,9.45a10.54,10.54,0,0,0,2.34,9.39c10.16,5.29,22.65-.58,22.65-.58a52.73,52.73,0,0,0-.67-16.15h0c-1.08-9.87-4.55-23.69-23.87-18.38-9.63,2.65-12.47,5.77-13.31,8.4C516.66,159.23,516.81,160.82,517.56,161.56Z"/><path class="cls-5" d="M530.25,174.3S527.69,182,533.16,186s9.57,6,8.39,13.54c-1.84,11.82,14.9,24,25.41,13.46,8.94-8.91-7-14.78-7.07-27.13s-7.33-28.36-7.33-28.36S546.71,174.22,530.25,174.3Z"/><path class="cls-8" d="M529.93,174a1.28,1.28,0,1,0,1.27-1.27A1.27,1.27,0,0,0,529.93,174Z"/><path class="cls-10" d="M478.79,229.65a5.29,5.29,0,0,1,7.08-2.43h0c8.11,4,16.35,7.8,24.61,11.57q6.21,2.82,12.43,5.6c2.11.94,4.22,1.89,6.34,2.82l.19.09.64.28.63-.54.47-.42a36.92,36.92,0,0,0,3.66-3.9,54.44,54.44,0,0,0,6.53-10.46,83.5,83.5,0,0,0,4.72-12.14c.45-1.45.86-2.92,1.24-4.4,3.79,3.35,8.92,4.94,14.46,1.87a10.84,10.84,0,0,0,3.52-2.88h1c-.22,1.08-.45,2.14-.7,3.2-.59,2.55-1.27,5.06-2,7.57a102.34,102.34,0,0,1-5.77,14.79,72.84,72.84,0,0,1-8.79,14q-1.35,1.65-2.85,3.23T543,260.57c-1.11,1-2.26,1.92-3.47,2.82s-2.49,1.72-3.8,2.5l-.8.43a8,8,0,0,1-8.07-.22c-3.92-2.42-7.79-4.84-11.67-7.28s-7.75-4.9-11.61-7.36c-7.72-5-15.41-9.94-23-15.12A5.29,5.29,0,0,1,478.79,229.65Z"/><path class="cls-3" d="M481.38,236c1.71-.32,6.24-4.6,4.52-10-1.59-5-1-6.51-2.68-10-1.43-3-1.82-.17-2.12,2.53s.22,3.83-2.06,3-9.67-8-12.32-8.45,6.73,8.58,6.73,8.58-9.14-6.31-10.46-5.51c-1.58,1,7.8,8.26,7.8,8.26s-8.53-4.24-8.94-3.63c-.78,1.18,7,6.75,7,6.75s-6-2.62-6-1.44S473.25,235,481.38,236Z"/><path class="cls-7" d="M529.27,247.22l.3.34,0,0a17.8,17.8,0,0,1,3.19,5.73.6.6,0,0,0,.58.42.47.47,0,0,0,.17,0,.59.59,0,0,0,.4-.75,19.3,19.3,0,0,0-2.59-5.11q-.3-.41-.63-.81l-.63.54-.64-.28Z"/><path class="cls-7" d="M529.46,247.31a.8.8,0,0,0,.11.25l0,0a.59.59,0,0,0,.49.19,5.48,5.48,0,0,1,1.26.07,17.33,17.33,0,0,1,4.15,1.43.54.54,0,0,0,.27.07.61.61,0,0,0,.54-.33.6.6,0,0,0-.26-.8,16.85,16.85,0,0,0-4.86-1.6l-.47.42-.63.54Z"/><path class="cls-16" d="M373,420.93H349.66a1.63,1.63,0,0,1,0-3.25h21.67V275.52H354.11a1.63,1.63,0,1,1,0-3.25H373a1.63,1.63,0,0,1,1.63,1.62V419.3A1.63,1.63,0,0,1,373,420.93Z"/><path class="cls-6" d="M362.72,269.72h5a0,0,0,0,1,0,0v8.35a0,0,0,0,1,0,0h-5a3.37,3.37,0,0,1-3.37-3.37v-1.61A3.37,3.37,0,0,1,362.72,269.72Z" transform="translate(727.06 547.79) rotate(180)"/><path class="cls-6" d="M360.89,415.13h5a0,0,0,0,1,0,0v8.35a0,0,0,0,1,0,0h-5a3.37,3.37,0,0,1-3.37-3.37V418.5a3.37,3.37,0,0,1,3.37-3.37Z" transform="translate(723.38 838.6) rotate(180)"/><path class="cls-16" d="M200.08,379.8H181.9a1.62,1.62,0,0,1-1.62-1.62V232.77a1.63,1.63,0,0,1,1.62-1.63h14.72a1.63,1.63,0,0,1,0,3.26H183.53V376.55h16.55a1.63,1.63,0,1,1,0,3.25Z"/><path class="cls-6" d="M191.63,228.3h5a0,0,0,0,1,0,0v8.35a0,0,0,0,1,0,0h-5a3.37,3.37,0,0,1-3.37-3.37v-1.61a3.37,3.37,0,0,1,3.37-3.37Z"/><path class="cls-6" d="M195.1,374h5a0,0,0,0,1,0,0v8.35a0,0,0,0,1,0,0h-5a3.37,3.37,0,0,1-3.37-3.37v-1.61A3.37,3.37,0,0,1,195.1,374Z"/><polygon class="cls-5" points="261.88 290.09 254.84 315.76 301.13 315.76 294.1 290.09 261.88 290.09"/><path class="cls-6" d="M228.84,315.76H329.15a8.51,8.51,0,0,1,8.51,8.51v2a0,0,0,0,1,0,0H220.34a0,0,0,0,1,0,0v-2A8.51,8.51,0,0,1,228.84,315.76Z"/><rect class="cls-6" x="196.62" y="170.14" width="162.74" height="119.95" rx="5.23"/><path class="cls-8" d="M351.88,179.63v87.6a2.4,2.4,0,0,1-2.4,2.41h-143a2.4,2.4,0,0,1-2.4-2.41v-87.6a3,3,0,0,1,3-3H348.9A3,3,0,0,1,351.88,179.63Z"/><rect class="cls-14" x="294.46" y="195.7" width="7.72" height="7.72"/><rect class="cls-15" x="294.46" y="209.45" width="7.72" height="7.72"/><g class="cls-12"><path class="cls-13" d="M335.31,211.14H309.69a2.29,2.29,0,0,0-2.39,2.17h0a2.29,2.29,0,0,0,2.39,2.18h25.62a2.29,2.29,0,0,0,2.39-2.18h0A2.29,2.29,0,0,0,335.31,211.14Z"/></g><g class="cls-12"><path class="cls-13" d="M335.31,197.38H309.69a2.29,2.29,0,0,0-2.39,2.18h0a2.29,2.29,0,0,0,2.39,2.17h25.62a2.29,2.29,0,0,0,2.39-2.17h0A2.29,2.29,0,0,0,335.31,197.38Z"/></g><g class="cls-12"><path class="cls-13" d="M294.58,256h0a2.17,2.17,0,0,0,2.17,2.17h38.56a2.17,2.17,0,0,0,2.17-2.17h0a2.18,2.18,0,0,0-2.17-2.18H296.75A2.18,2.18,0,0,0,294.58,256Z"/></g><g class="cls-12"><path class="cls-13" d="M294.54,247.24h0a2.17,2.17,0,0,0,2.17,2.17h38.55a2.17,2.17,0,0,0,2.18-2.17h0a2.17,2.17,0,0,0-2.18-2.17H296.71A2.17,2.17,0,0,0,294.54,247.24Z"/></g><g class="cls-12"><path class="cls-13" d="M294.5,238.51h0a2.17,2.17,0,0,0,2.17,2.17h38.55a2.18,2.18,0,0,0,2.18-2.17h0a2.19,2.19,0,0,0-2.18-2.18H296.67A2.18,2.18,0,0,0,294.5,238.51Z"/></g><g class="cls-12"><path class="cls-13" d="M294.46,229.77h0a2.17,2.17,0,0,0,2.17,2.17h38.55a2.18,2.18,0,0,0,2.18-2.17h0a2.18,2.18,0,0,0-2.18-2.17H296.63A2.17,2.17,0,0,0,294.46,229.77Z"/></g><path class="cls-15" d="M278.19,229.41a28.75,28.75,0,1,1-55.26-11.11l26.52,11.11-1.36-28.71c.44,0,.9,0,1.36,0A28.75,28.75,0,0,1,278.19,229.41Z"/><path class="cls-14" d="M245.49,196.17a28.64,28.64,0,0,0-21.19,10.88,28.3,28.3,0,0,0-4,6.72l26.51,11.11Z"/><g class="cls-12"><path class="cls-13" d="M351.88,179.63v6.27H204.09v-6.27a3,3,0,0,1,3-3H348.9A3,3,0,0,1,351.88,179.63Z"/></g><path class="cls-14" d="M334.75,181.28a2.1,2.1,0,1,1-2.1-2.1A2.1,2.1,0,0,1,334.75,181.28Z"/><circle class="cls-15" cx="339.46" cy="181.28" r="2.1"/><circle class="cls-15" cx="345.97" cy="181.28" r="2.1"/><path class="cls-9" d="M284.16,280.07a6.18,6.18,0,1,1-6.18-6.18A6.18,6.18,0,0,1,284.16,280.07Z"/><rect class="cls-16" x="200.08" y="326.3" width="157.43" height="144.94" rx="7.35"/><path class="cls-8" d="M323.66,343.32H215.57a2.32,2.32,0,0,1-2.32-2.32h0a2.32,2.32,0,0,1,2.32-2.33H323.66A2.33,2.33,0,0,1,326,341h0A2.33,2.33,0,0,1,323.66,343.32Z"/><path class="cls-8" d="M323.66,355.72H215.57a2.32,2.32,0,0,1-2.32-2.33h0a2.32,2.32,0,0,1,2.32-2.33H323.66a2.33,2.33,0,0,1,2.33,2.33h0A2.33,2.33,0,0,1,323.66,355.72Z"/><path class="cls-8" d="M323.66,368.11H215.57a2.32,2.32,0,0,1-2.32-2.33h0a2.32,2.32,0,0,1,2.32-2.32H323.66a2.33,2.33,0,0,1,2.33,2.32h0A2.33,2.33,0,0,1,323.66,368.11Z"/><path class="cls-8" d="M323.66,380.51H215.57a2.33,2.33,0,0,1-2.32-2.33h0a2.32,2.32,0,0,1,2.32-2.33H323.66a2.33,2.33,0,0,1,2.33,2.33h0A2.34,2.34,0,0,1,323.66,380.51Z"/><path class="cls-8" d="M323.66,392.9H215.57a2.32,2.32,0,0,1-2.32-2.33h0a2.33,2.33,0,0,1,2.32-2.33H323.66a2.34,2.34,0,0,1,2.33,2.33h0A2.33,2.33,0,0,1,323.66,392.9Z"/><path class="cls-8" d="M323.66,405.29H215.57a2.32,2.32,0,0,1-2.32-2.32h0a2.32,2.32,0,0,1,2.32-2.33H323.66A2.33,2.33,0,0,1,326,403h0A2.33,2.33,0,0,1,323.66,405.29Z"/><path class="cls-8" d="M342.12,338.67h0a2.24,2.24,0,0,0-2.24,2.23v.19a2.24,2.24,0,0,0,2.24,2.23h0a2.23,2.23,0,0,0,2.23-2.23v-.19A2.23,2.23,0,0,0,342.12,338.67Z"/><path class="cls-8" d="M342.12,351.06h0a2.24,2.24,0,0,0-2.24,2.24v.18a2.24,2.24,0,0,0,2.24,2.24h0a2.23,2.23,0,0,0,2.23-2.24v-.18A2.23,2.23,0,0,0,342.12,351.06Z"/><path class="cls-8" d="M342.12,363.46h0a2.24,2.24,0,0,0-2.24,2.23v.19a2.24,2.24,0,0,0,2.24,2.23h0a2.23,2.23,0,0,0,2.23-2.23v-.19A2.23,2.23,0,0,0,342.12,363.46Z"/><path class="cls-8" d="M342.12,375.85h0a2.24,2.24,0,0,0-2.24,2.23v.19a2.24,2.24,0,0,0,2.24,2.24h0a2.23,2.23,0,0,0,2.23-2.24v-.19A2.23,2.23,0,0,0,342.12,375.85Z"/><path class="cls-8" d="M342.12,388.24h0a2.24,2.24,0,0,0-2.24,2.24v.19a2.24,2.24,0,0,0,2.24,2.23h0a2.23,2.23,0,0,0,2.23-2.23v-.19A2.23,2.23,0,0,0,342.12,388.24Z"/><path class="cls-8" d="M342.12,400.64h0a2.24,2.24,0,0,0-2.24,2.23v.19a2.24,2.24,0,0,0,2.24,2.23h0a2.23,2.23,0,0,0,2.23-2.23v-.19A2.23,2.23,0,0,0,342.12,400.64Z"/><path class="cls-8" d="M238.31,461.66a21.48,21.48,0,1,1,21.48-21.48A21.5,21.5,0,0,1,238.31,461.66Zm0-35.67a14.2,14.2,0,1,0,14.2,14.19A14.21,14.21,0,0,0,238.31,426Z"/><path class="cls-8" d="M238.25,438.48a1.7,1.7,0,0,1-1.7-1.69v-7.52a1.7,1.7,0,0,1,3.4,0v7.52A1.7,1.7,0,0,1,238.25,438.48Z"/><path class="cls-8" d="M238.25,452.72a1.7,1.7,0,0,1-1.7-1.7V443.5a1.7,1.7,0,0,1,3.4,0V451A1.7,1.7,0,0,1,238.25,452.72Z"/><path class="cls-8" d="M234.9,441.84h-7.52a1.7,1.7,0,0,1,0-3.4h7.52a1.7,1.7,0,0,1,0,3.4Z"/><path class="cls-8" d="M249.13,441.84h-7.52a1.7,1.7,0,0,1,0-3.4h7.52a1.7,1.7,0,1,1,0,3.4Z"/><path class="cls-8" d="M283.91,461.66a21.48,21.48,0,1,1,21.47-21.48A21.51,21.51,0,0,1,283.91,461.66Zm0-35.67a14.2,14.2,0,1,0,14.19,14.19A14.21,14.21,0,0,0,283.91,426Z"/><path class="cls-8" d="M283.85,438.48a1.7,1.7,0,0,1-1.7-1.69v-7.52a1.7,1.7,0,1,1,3.39,0v7.52A1.69,1.69,0,0,1,283.85,438.48Z"/><path class="cls-8" d="M283.85,452.72a1.7,1.7,0,0,1-1.7-1.7V443.5a1.7,1.7,0,1,1,3.39,0V451A1.7,1.7,0,0,1,283.85,452.72Z"/><path class="cls-8" d="M280.49,441.84H273a1.7,1.7,0,0,1,0-3.4h7.52a1.7,1.7,0,0,1,0,3.4Z"/><path class="cls-8" d="M294.72,441.84H287.2a1.7,1.7,0,0,1,0-3.4h7.52a1.7,1.7,0,0,1,0,3.4Z"/><rect class="cls-6" x="310.14" y="424.01" width="30.58" height="8.09" rx="1.82"/><path class="cls-8" d="M317.7,429.44a4,4,0,0,1-1.68-.37,7.37,7.37,0,0,0-3.15-.65h-1.36a.37.37,0,0,1-.36-.37.36.36,0,0,1,.36-.36h1.36a8.25,8.25,0,0,1,3.45.71,3.25,3.25,0,0,0,3.64-.61,4,4,0,0,1,5.55,0h0a3.29,3.29,0,0,0,4.55,0,4,4,0,0,1,4.71-.62,3.89,3.89,0,0,0,1.87.52h2.41a.37.37,0,0,1,.37.36.38.38,0,0,1-.37.37h-2.41a4.68,4.68,0,0,1-2.23-.61,3.25,3.25,0,0,0-3.85.5,4,4,0,0,1-5.54,0h0a3.27,3.27,0,0,0-4.54,0A4,4,0,0,1,317.7,429.44Z"/><path class="cls-8" d="M329.39,458.14h-18a1.25,1.25,0,0,1-1.26-1.26h0a1.25,1.25,0,0,1,1.26-1.25h18a1.25,1.25,0,0,1,1.25,1.25h0A1.25,1.25,0,0,1,329.39,458.14Z"/><path class="cls-8" d="M329.39,451.57h-18a1.25,1.25,0,0,1-1.26-1.25h0a1.25,1.25,0,0,1,1.26-1.25h18a1.25,1.25,0,0,1,1.25,1.25h0A1.25,1.25,0,0,1,329.39,451.57Z"/><path class="cls-8" d="M329.39,445h-18a1.25,1.25,0,0,1-1.26-1.26h0a1.25,1.25,0,0,1,1.26-1.25h18a1.25,1.25,0,0,1,1.25,1.25h0A1.25,1.25,0,0,1,329.39,445Z"/><path class="cls-8" d="M329.39,438.44h-18a1.25,1.25,0,0,1-1.26-1.25h0a1.25,1.25,0,0,1,1.26-1.25h18a1.25,1.25,0,0,1,1.25,1.25h0A1.25,1.25,0,0,1,329.39,438.44Z"/><path class="cls-8" d="M337.64,455.63h-.05a1.25,1.25,0,0,0-1.25,1.25h0a1.25,1.25,0,0,0,1.25,1.26h.05a1.25,1.25,0,0,0,1.25-1.26h0A1.25,1.25,0,0,0,337.64,455.63Z"/><path class="cls-8" d="M337.64,449.07h-.05a1.25,1.25,0,0,0-1.25,1.25h0a1.25,1.25,0,0,0,1.25,1.25h.05a1.25,1.25,0,0,0,1.25-1.25h0A1.25,1.25,0,0,0,337.64,449.07Z"/><path class="cls-8" d="M337.64,442.5h-.05a1.25,1.25,0,0,0-1.25,1.25h0a1.25,1.25,0,0,0,1.25,1.26h.05a1.25,1.25,0,0,0,1.25-1.26h0A1.25,1.25,0,0,0,337.64,442.5Z"/><path class="cls-8" d="M337.64,435.94h-.05a1.25,1.25,0,0,0-1.25,1.25h0a1.25,1.25,0,0,0,1.25,1.25h.05a1.25,1.25,0,0,0,1.25-1.25h0A1.25,1.25,0,0,0,337.64,435.94Z"/><path class="cls-16" d="M177.71,392.36v75.86a3,3,0,0,1-3,3h-44a3,3,0,0,1-3-3V392.36a3,3,0,0,1,3-3h44a3,3,0,0,1,3,3Z"/><path class="cls-8" d="M164,404H134.64a2.08,2.08,0,0,1-2.08-2.08h0a2.08,2.08,0,0,1,2.08-2.08H164a2.08,2.08,0,0,1,2.08,2.08h0A2.08,2.08,0,0,1,164,404Z"/><rect class="cls-8" x="132.56" y="409.28" width="33.52" height="4.16" rx="2.08"/><path class="cls-8" d="M164,422.9H134.64a2.08,2.08,0,0,1-2.08-2.08h0a2.08,2.08,0,0,1,2.08-2.08H164a2.08,2.08,0,0,1,2.08,2.08h0A2.08,2.08,0,0,1,164,422.9Z"/><path class="cls-8" d="M164,432.37H134.64a2.08,2.08,0,0,1-2.08-2.08h0a2.08,2.08,0,0,1,2.08-2.08H164a2.08,2.08,0,0,1,2.08,2.08h0A2.08,2.08,0,0,1,164,432.37Z"/><path class="cls-8" d="M164,441.83H134.64a2.08,2.08,0,0,1-2.08-2.07h0a2.08,2.08,0,0,1,2.08-2.08H164a2.08,2.08,0,0,1,2.08,2.08h0A2.08,2.08,0,0,1,164,441.83Z"/><path class="cls-8" d="M164,451.3H134.64a2.08,2.08,0,0,1-2.08-2.08h0a2.08,2.08,0,0,1,2.08-2.08H164a2.08,2.08,0,0,1,2.08,2.08h0A2.08,2.08,0,0,1,164,451.3Z"/><path class="cls-8" d="M164,460.77H134.64a2.08,2.08,0,0,1-2.08-2.08h0a2.08,2.08,0,0,1,2.08-2.08H164a2.08,2.08,0,0,1,2.08,2.08h0A2.08,2.08,0,0,1,164,460.77Z"/><path class="cls-8" d="M172,400.7a.89.89,0,1,1-.89-.89A.89.89,0,0,1,172,400.7Z"/><path class="cls-8" d="M172,403.08a.89.89,0,1,1-.89-.89A.89.89,0,0,1,172,403.08Z"/><path class="cls-8" d="M172,410.17a.89.89,0,1,1-.89-.89A.89.89,0,0,1,172,410.17Z"/><path class="cls-8" d="M172,412.54a.89.89,0,1,1-.89-.89A.89.89,0,0,1,172,412.54Z"/><path class="cls-8" d="M172,429.1a.89.89,0,1,1-.89-.89A.89.89,0,0,1,172,429.1Z"/><path class="cls-8" d="M172,431.48a.89.89,0,1,1-.89-.89A.89.89,0,0,1,172,431.48Z"/><path class="cls-8" d="M172,419.63a.89.89,0,1,1-.89-.89A.89.89,0,0,1,172,419.63Z"/><path class="cls-8" d="M172,422a.89.89,0,1,1-.89-.89A.89.89,0,0,1,172,422Z"/><path class="cls-8" d="M172,438.57a.89.89,0,1,1-.89-.89A.89.89,0,0,1,172,438.57Z"/><path class="cls-8" d="M172,440.94a.89.89,0,1,1-.89-.89A.89.89,0,0,1,172,440.94Z"/><path class="cls-8" d="M172,448a.89.89,0,1,1-.89-.89A.89.89,0,0,1,172,448Z"/><path class="cls-8" d="M172,450.41a.89.89,0,1,1-.89-.89A.89.89,0,0,1,172,450.41Z"/><path class="cls-8" d="M172,457.5a.89.89,0,1,1-.89-.89A.89.89,0,0,1,172,457.5Z"/><path class="cls-8" d="M172,459.88a.89.89,0,1,1-.89-.89A.89.89,0,0,1,172,459.88Z"/><path class="cls-16" d="M152.7,387.54a1.62,1.62,0,0,1-1.62-1.63V304.09a1.62,1.62,0,0,1,1.62-1.63h29.2a1.63,1.63,0,1,1,0,3.25H154.33v80.2A1.63,1.63,0,0,1,152.7,387.54Z"/><path class="cls-6" d="M168.17,389.34H137.23a3.44,3.44,0,0,1,3.43-3.43h24.08a3.44,3.44,0,0,1,3.43,3.43Z"/><path class="cls-6" d="M175.39,299.91h5a0,0,0,0,1,0,0v8.35a0,0,0,0,1,0,0h-5a3.37,3.37,0,0,1-3.37-3.37v-1.61A3.37,3.37,0,0,1,175.39,299.91Z"/><path class="cls-16" d="M415.56,387.54a1.62,1.62,0,0,1-1.62-1.63v-17H373a1.63,1.63,0,0,1,0-3.25h42.61a1.63,1.63,0,0,1,1.63,1.62v18.63A1.63,1.63,0,0,1,415.56,387.54Z"/><path class="cls-6" d="M377.89,362.9h5a0,0,0,0,1,0,0v8.35a0,0,0,0,1,0,0h-5a3.37,3.37,0,0,1-3.37-3.37v-1.61A3.37,3.37,0,0,1,377.89,362.9Z" transform="translate(757.38 734.14) rotate(180)"/><path class="cls-6" d="M414.76,377.56h5a0,0,0,0,1,0,0v8.35a0,0,0,0,1,0,0h-5a3.37,3.37,0,0,1-3.37-3.37v-1.61A3.37,3.37,0,0,1,414.76,377.56Z" transform="translate(797.3 -33.83) rotate(90)"/><path class="cls-6" d="M396,385.91a4.47,4.47,0,0,0-4.46,4.47l.11,76.23A4.39,4.39,0,0,0,396,471L434.7,471a4.42,4.42,0,0,0,4.4-4.42L439,390.36a4.45,4.45,0,0,0-4.45-4.45Z"/><path class="cls-5" d="M391.53,406.48h0a1.61,1.61,0,0,1-1.61-1.61v-7a1.62,1.62,0,0,1,1.61-1.62h0Z"/><path class="cls-5" d="M439,406h0a1.32,1.32,0,0,0,1.32-1.32V399a1.32,1.32,0,0,0-1.32-1.32h0Z"/><path class="cls-5" d="M391.55,418.13h0a1.62,1.62,0,0,1-1.62-1.61v-7a1.62,1.62,0,0,1,1.61-1.62h0Z"/><path class="cls-8" d="M433,464.68l-28.61,0h-6.07a1.83,1.83,0,0,1-1.65-1.08,1.71,1.71,0,0,1-.15-.71l0-14.3,0-13.95,0-16.91,0-9,0-15.18a1.8,1.8,0,0,1,1.79-1.8l13.94,0h8.49l12.25,0a1.81,1.81,0,0,1,1.78,1.59,1.27,1.27,0,0,1,0,.2l0,14,0,15.36v9.15l0,30.76A1.78,1.78,0,0,1,433,464.68Z"/><path class="cls-15" d="M416.24,413.77a15.67,15.67,0,1,0,15.67,15.67A15.68,15.68,0,0,0,416.24,413.77Zm.63,21.45v-5.49H424a21,21,0,0,1-.84,5.49Zm4.44,6.26a17.51,17.51,0,0,0,2.73-5h4.77a14.36,14.36,0,0,1-9.38,7A16.37,16.37,0,0,0,421.31,441.48Zm1.38-5a15.92,15.92,0,0,1-2.34,4.18,13.12,13.12,0,0,1-3.47,3.17v-7.35Zm-5.82-14.76V415l.57,0a19.54,19.54,0,0,1,4.91,6.64Zm6.86,0a21.23,21.23,0,0,0-2.12-3.85,20.47,20.47,0,0,0-2-2.44,14.48,14.48,0,0,1,8.78,6.29Zm-6.86,6.75V423h6a17.86,17.86,0,0,1,1.09,5.49Zm8.34,0a19.49,19.49,0,0,0-1-5.49h4.92a14.23,14.23,0,0,1,1.5,5.49Zm5.44,1.26a14.34,14.34,0,0,1-1.21,5.49h-5a22,22,0,0,0,.79-5.49Zm-22.45,5.49h-5.15a14.16,14.16,0,0,1-1.21-5.49h5.58A22,22,0,0,0,408.2,435.22Zm2.08-13.5a19.78,19.78,0,0,1,1.76-3.1,18.24,18.24,0,0,1,3.18-3.56l.39,0v6.68Zm5.33,1.26v5.49h-6.92a17.9,17.9,0,0,1,1.08-5.49Zm-11.53-1.26a14.48,14.48,0,0,1,9-6.33,20.6,20.6,0,0,0-4.14,6.33Zm11.53,8v5.49h-6.1a20.49,20.49,0,0,1-.83-5.49Zm-13.74-1.26a14.28,14.28,0,0,1,1.5-5.49h5.07a19.15,19.15,0,0,0-1,5.49Zm6.73,8a17.49,17.49,0,0,0,2.72,5,17.16,17.16,0,0,0,1.93,2,14.53,14.53,0,0,1-9.57-7Zm7,0v7.26a14.8,14.8,0,0,1-5.67-7.26Z"/><path class="cls-6" d="M428.3,391.63l-1.79,2.74a2.71,2.71,0,0,1-2.26,1.22l-17.36,0a2.73,2.73,0,0,1-2.27-1.22l-1.8-2.73a.52.52,0,0,1,.52-.52l24.45,0A.51.51,0,0,1,428.3,391.63Z"/><path class="cls-9" d="M421.63,393.3l-14.88,0a.55.55,0,0,1-.55-.55h0a.55.55,0,0,1,.55-.55l14.87,0a.54.54,0,0,1,.55.55h0A.55.55,0,0,1,421.63,393.3Z"/><path class="cls-9" d="M425.08,392.58a.66.66,0,1,1-.52-.52A.66.66,0,0,1,425.08,392.58Z"/></g></g></svg>